<?xml version="1.0" encoding="UTF-8" standalone="no"?>
<?xml-stylesheet href="data:text/css,.graph%20text%20%7B%0A%09font-family%3A%20sans-serif%3B%0A%09stroke%3A%20white%3B%0A%09paint-order%3A%20stroke%3B%0A%09stroke-width%3A%203%3B%0A%09stroke-linecap%3A%20square%3B%0A%7D%0A%0A.namespace%20polygon%20%7B%0A%09fill-opacity%3A%200.2%3B%0A%09stroke%3A%20none%3B%0A%7D%0A" type="text/css"?>
<!DOCTYPE svg PUBLIC "-//W3C//DTD SVG 1.1//EN"
 "http://www.w3.org/Graphics/SVG/1.1/DTD/svg11.dtd">
<!-- Generated by graphviz version 13.1.2 (0)
 -->
<!-- Pages: 1 -->
<svg width="329pt" height="616pt"
 viewBox="0.00 0.00 329.00 616.00" xmlns="http://www.w3.org/2000/svg" xmlns:xlink="http://www.w3.org/1999/xlink">
<g id="graph0" class="graph" transform="scale(1 1) rotate(0) translate(4 612)">
<polygon fill="white" stroke="none" points="-4,4 -4,-612 325,-612 325,4 -4,4"/>
<g id="clust1" class="cluster namespace">
<title>e_shop</title>
<polygon fill="lightgrey" stroke="lightgrey" points="8,-8 8,-600 313,-600 313,-8 8,-8"/>
<text xml:space="preserve" text-anchor="middle" x="160.5" y="-587" font-family="sans-serif" font-size="10.00">eShop</text>
</g>
<g id="clust2" class="cluster namespace">
<title>#/domains/payment_processing</title>
<polygon fill="lightgrey" stroke="lightgrey" points="39,-28 39,-280 281,-280 281,-28 39,-28"/>
<text xml:space="preserve" text-anchor="middle" x="160" y="-267" font-family="sans-serif" font-size="10.00">Payment Processing</text>
</g>
<g id="clust3" class="cluster namespace">
<title>#/domains/payment_processing/subdomains/payment_processors</title>
<polygon fill="lightgrey" stroke="lightgrey" points="59,-48 59,-240 261,-240 261,-48 59,-48"/>
<text xml:space="preserve" text-anchor="middle" x="160" y="-227" font-family="sans-serif" font-size="10.00">Payment Processors</text>
</g>
<g id="clust4" class="cluster namespace">
<title>#/domains/payment_processing/subdomains/payment_processors/boundedcontexts/payment_processor</title>
<polygon fill="lightgrey" stroke="lightgrey" points="79,-68 79,-200 241,-200 241,-68 79,-68"/>
<text xml:space="preserve" text-anchor="middle" x="160" y="-187" font-family="sans-serif" font-size="10.00">PaymentProcessor</text>
</g>
<g id="clust5" class="cluster namespace">
<title>#/domains/commerce</title>
<polygon fill="lightgrey" stroke="lightgrey" points="38,-308 38,-560 282,-560 282,-308 38,-308"/>
<text xml:space="preserve" text-anchor="middle" x="160" y="-547" font-family="sans-serif" font-size="10.00">Commerce</text>
</g>
<g id="clust6" class="cluster namespace">
<title>#/domains/commerce/subdomains/ordering</title>
<polygon fill="lightgrey" stroke="lightgrey" points="58,-328 58,-520 262,-520 262,-328 58,-328"/>
<text xml:space="preserve" text-anchor="middle" x="160" y="-507" font-family="sans-serif" font-size="10.00">Ordering</text>
</g>
<g id="clust7" class="cluster namespace">
<title>#/domains/commerce/subdomains/ordering/boundedcontexts/ordering</title>
<polygon fill="lightgrey" stroke="lightgrey" points="78,-348 78,-480 242,-480 242,-348 78,-348"/>
<text xml:space="preserve" text-anchor="middle" x="160" y="-467" font-family="sans-serif" font-size="10.00">Ordering</text>
</g>
<!-- #/domains/payment_processing/subdomains/payment_processors/boundedcontexts/payment_processor/services/payment_service -->
<g id="node1" class="node">
<title>#/domains/payment_processing/subdomains/payment_processors/boundedcontexts/payment_processor/services/payment_service</title>
<g id="a_node1"><a xlink:title="Takes payments and emits status changes.">
<polygon fill="white" stroke="black" points="165.61,-88.1 169.33,-88.3 173.01,-88.59 176.64,-88.98 180.19,-89.47 183.67,-90.05 187.05,-90.73 190.32,-91.5 193.46,-92.35 196.48,-93.29 199.35,-94.32 202.06,-95.43 204.62,-96.62 207,-97.88 209.2,-99.21 211.22,-100.61 213.05,-102.08 214.68,-103.6 216.12,-105.18 217.36,-106.82 218.4,-108.5 219.25,-110.22 219.89,-111.98 220.34,-113.77 220.6,-115.59 220.67,-117.44 220.56,-119.3 220.26,-121.17 219.8,-123.06 219.16,-124.94 218.37,-126.83 217.43,-128.7 216.34,-130.56 215.11,-132.41 213.76,-134.23 212.28,-136.02 210.7,-137.78 209.01,-139.5 207.22,-141.18 205.35,-142.82 203.39,-144.4 201.36,-145.92 199.27,-147.39 197.12,-148.79 194.92,-150.12 192.67,-151.38 190.38,-152.57 188.06,-153.68 185.7,-154.71 183.32,-155.65 180.92,-156.5 178.49,-157.27 176.06,-157.95 173.61,-158.53 171.15,-159.02 168.68,-159.41 166.2,-159.7 163.72,-159.9 161.24,-160 158.76,-160 156.28,-159.9 153.8,-159.7 151.32,-159.41 148.85,-159.02 146.39,-158.53 143.94,-157.95 141.51,-157.27 139.08,-156.5 136.68,-155.65 134.3,-154.71 131.94,-153.68 129.62,-152.57 127.33,-151.38 125.08,-150.12 122.88,-148.79 120.73,-147.39 118.64,-145.92 116.61,-144.4 114.65,-142.82 112.78,-141.18 110.99,-139.5 109.3,-137.78 107.72,-136.02 106.24,-134.23 104.89,-132.41 103.66,-130.56 102.57,-128.7 101.63,-126.83 100.84,-124.94 100.2,-123.06 99.74,-121.17 99.44,-119.3 99.33,-117.44 99.4,-115.59 99.66,-113.77 100.11,-111.98 100.75,-110.22 101.6,-108.5 102.64,-106.82 103.88,-105.18 105.32,-103.6 106.95,-102.08 108.78,-100.61 110.8,-99.21 113,-97.88 115.38,-96.62 117.94,-95.43 120.65,-94.32 123.52,-93.29 126.54,-92.35 129.68,-91.5 132.95,-90.73 136.33,-90.05 139.81,-89.47 143.36,-88.98 146.99,-88.59 150.67,-88.3 154.39,-88.1 158.13,-88 161.87,-88 165.61,-88.1"/>
<text xml:space="preserve" text-anchor="middle" x="160" y="-119.8" font-family="sans-serif" font-size="14.00">PaymentService</text>
</a>
</g>
</g>
<!-- #/domains/commerce/subdomains/ordering/boundedcontexts/ordering/services/ordering_service -->
<g id="node2" class="node">
<title>#/domains/commerce/subdomains/ordering/boundedcontexts/ordering/services/ordering_service</title>
<g id="a_node2"><a xlink:title="Order lifecycle, status and events.">
<polygon fill="white" stroke="black" points="165.7,-368.1 169.47,-368.3 173.2,-368.59 176.88,-368.98 180.48,-369.47 184.01,-370.05 187.44,-370.73 190.75,-371.5 193.95,-372.35 197,-373.29 199.92,-374.32 202.67,-375.43 205.26,-376.62 207.68,-377.88 209.91,-379.21 211.96,-380.61 213.81,-382.08 215.47,-383.6 216.93,-385.18 218.19,-386.82 219.25,-388.5 220.1,-390.22 220.76,-391.98 221.22,-393.77 221.48,-395.59 221.55,-397.44 221.43,-399.3 221.13,-401.17 220.66,-403.06 220.02,-404.94 219.22,-406.83 218.26,-408.7 217.15,-410.56 215.91,-412.41 214.53,-414.23 213.04,-416.02 211.43,-417.78 209.71,-419.5 207.9,-421.18 206,-422.82 204.02,-424.4 201.96,-425.92 199.84,-427.39 197.66,-428.79 195.42,-430.12 193.14,-431.38 190.82,-432.57 188.46,-433.68 186.07,-434.71 183.66,-435.65 181.22,-436.5 178.76,-437.27 176.29,-437.95 173.8,-438.53 171.31,-439.02 168.8,-439.41 166.29,-439.7 163.78,-439.9 161.26,-440 158.74,-440 156.22,-439.9 153.71,-439.7 151.2,-439.41 148.69,-439.02 146.2,-438.53 143.71,-437.95 141.24,-437.27 138.78,-436.5 136.34,-435.65 133.93,-434.71 131.54,-433.68 129.18,-432.57 126.86,-431.38 124.58,-430.12 122.34,-428.79 120.16,-427.39 118.04,-425.92 115.98,-424.4 114,-422.82 112.1,-421.18 110.29,-419.5 108.57,-417.78 106.96,-416.02 105.47,-414.23 104.09,-412.41 102.85,-410.56 101.74,-408.7 100.78,-406.83 99.98,-404.94 99.34,-403.06 98.87,-401.17 98.57,-399.3 98.45,-397.44 98.52,-395.59 98.78,-393.77 99.24,-391.98 99.9,-390.22 100.75,-388.5 101.81,-386.82 103.07,-385.18 104.53,-383.6 106.19,-382.08 108.04,-380.61 110.09,-379.21 112.32,-377.88 114.74,-376.62 117.33,-375.43 120.08,-374.32 123,-373.29 126.05,-372.35 129.25,-371.5 132.56,-370.73 135.99,-370.05 139.52,-369.47 143.12,-368.98 146.8,-368.59 150.53,-368.3 154.3,-368.1 158.1,-368 161.9,-368 165.7,-368.1"/>
<text xml:space="preserve" text-anchor="middle" x="160" y="-399.8" font-family="sans-serif" font-size="14.00">OrderingService</text>
</a>
</g>
</g>
<!-- #/domains/commerce/subdomains/ordering/boundedcontexts/ordering/services/ordering_service&#45;&gt;#/domains/payment_processing/subdomains/payment_processors/boundedcontexts/payment_processor/services/payment_service -->
<g id="edge1" class="edge">
<title>#/domains/commerce/subdomains/ordering/boundedcontexts/ordering/services/ordering_service&#45;&gt;#/domains/payment_processing/subdomains/payment_processors/boundedcontexts/payment_processor/services/payment_service</title>
<path fill="none" stroke="black" d="M126.02,-372.26C107.81,-353.42 87.17,-327.67 77.45,-300 60.16,-250.77 94.25,-196.85 123.73,-162.06"/>
<polygon fill="black" stroke="black" points="126.14,-164.61 130.09,-154.78 120.87,-160 126.14,-164.61"/>
<text xml:space="preserve" text-anchor="middle" x="110.23" y="-291" font-family="sans-serif" font-size="10.00">ProcessPayment</text>
<g id="a_edge1&#45;headlabel"><a xlink:title="open&#45;host&#45;service">
<text xml:space="preserve" text-anchor="middle" x="131.09" y="-150.64" font-family="sans-serif" font-size="10.00">OHS</text>
</a>
</g>
<g id="a_edge1&#45;taillabel"><a xlink:title="customer&#45;supplier">
<text xml:space="preserve" text-anchor="middle" x="126.02" y="-369.26" font-family="sans-serif" font-size="10.00">C/s</text>
</a>
</g>
</g>
<!-- #/domains/commerce/subdomains/ordering/boundedcontexts/ordering/services/ordering_service&#45;&gt;#/domains/payment_processing/subdomains/payment_processors/boundedcontexts/payment_processor/services/payment_service -->
<g id="edge2" class="edge">
<title>#/domains/commerce/subdomains/ordering/boundedcontexts/ordering/services/ordering_service&#45;&gt;#/domains/payment_processing/subdomains/payment_processors/boundedcontexts/payment_processor/services/payment_service</title>
<path fill="none" stroke="black" d="M160,-367.51C160,-317.63 160,-226.72 160,-171.5"/>
<polygon fill="black" stroke="black" points="163.5,-171.79 160,-161.79 156.5,-171.79 163.5,-171.79"/>
<text xml:space="preserve" text-anchor="middle" x="198.87" y="-291" font-family="sans-serif" font-size="10.00">PaymentSucceeded</text>
<g id="a_edge2&#45;headlabel"><a xlink:title="published&#45;language">
<text xml:space="preserve" text-anchor="middle" x="160" y="-157.28" font-family="sans-serif" font-size="10.00">PL</text>
</a>
</g>
<g id="a_edge2&#45;taillabel"><a xlink:title="conformist">
<text xml:space="preserve" text-anchor="middle" x="160" y="-364.51" font-family="sans-serif" font-size="10.00">C</text>
</a>
</g>
</g>
</g>
</svg>
