<?xml version="1.0" encoding="UTF-8" standalone="no"?>
<?xml-stylesheet href="data:text/css,.graph%20text%20%7B%0A%09font-family%3A%20sans-serif%3B%0A%09stroke%3A%20white%3B%0A%09paint-order%3A%20stroke%3B%0A%09stroke-width%3A%203%3B%0A%09stroke-linecap%3A%20square%3B%0A%7D%0A%0A.namespace%20polygon%20%7B%0A%09fill-opacity%3A%200.2%3B%0A%09stroke%3A%20none%3B%0A%7D%0A" type="text/css"?>
<!DOCTYPE svg PUBLIC "-//W3C//DTD SVG 1.1//EN"
 "http://www.w3.org/Graphics/SVG/1.1/DTD/svg11.dtd">
<!-- Generated by graphviz version 13.1.2 (0)
 -->
<!-- Pages: 1 -->
<svg width="208pt" height="356pt"
 viewBox="0.00 0.00 208.00 356.00" xmlns="http://www.w3.org/2000/svg" xmlns:xlink="http://www.w3.org/1999/xlink">
<g id="graph0" class="graph" transform="scale(1 1) rotate(0) translate(4 352)">
<polygon fill="white" stroke="none" points="-4,4 -4,-352 204,-352 204,4 -4,4"/>
<g id="clust1" class="cluster namespace">
<title>e_shop</title>
<polygon fill="lightgrey" stroke="lightgrey" points="8,-8 8,-340 192,-340 192,-8 8,-8"/>
<text xml:space="preserve" text-anchor="middle" x="100" y="-327" font-family="sans-serif" font-size="10.00">eShop</text>
</g>
<g id="clust2" class="cluster namespace">
<title>#/domains/payment_processing</title>
<polygon fill="lightgrey" stroke="lightgrey" points="16,-16 16,-160 184,-160 184,-16 16,-16"/>
<text xml:space="preserve" text-anchor="middle" x="100" y="-147" font-family="sans-serif" font-size="10.00">Payment Processing</text>
</g>
<g id="clust3" class="cluster namespace">
<title>#/domains/payment_processing/subdomains/payment_processors</title>
<polygon fill="lightgrey" stroke="lightgrey" points="24,-24 24,-132 176,-132 176,-24 24,-24"/>
<text xml:space="preserve" text-anchor="middle" x="100" y="-119" font-family="sans-serif" font-size="10.00">Payment Processors</text>
</g>
<g id="clust4" class="cluster namespace">
<title>#/domains/commerce</title>
<polygon fill="lightgrey" stroke="lightgrey" points="27,-168 27,-312 173,-312 173,-168 27,-168"/>
<text xml:space="preserve" text-anchor="middle" x="100" y="-299" font-family="sans-serif" font-size="10.00">Commerce</text>
</g>
<g id="clust5" class="cluster namespace">
<title>#/domains/commerce/subdomains/ordering</title>
<polygon fill="lightgrey" stroke="lightgrey" points="35,-176 35,-284 165,-284 165,-176 35,-176"/>
<text xml:space="preserve" text-anchor="middle" x="100" y="-271" font-family="sans-serif" font-size="10.00">Ordering</text>
</g>
<!-- #/domains/payment_processing/subdomains/payment_processors/boundedcontexts/payment_processor -->
<g id="node1" class="node">
<title>#/domains/payment_processing/subdomains/payment_processors/boundedcontexts/payment_processor</title>
<g id="a_node1"><a xlink:title="Simulated external payment processor.">
<polygon fill="white" stroke="black" points="106.27,-32.1 110.42,-32.3 114.53,-32.59 118.57,-32.98 122.54,-33.47 126.42,-34.05 130.2,-34.73 133.85,-35.5 137.36,-36.35 140.72,-37.29 143.93,-38.32 146.96,-39.43 149.81,-40.62 152.47,-41.88 154.93,-43.21 157.18,-44.61 159.22,-46.08 161.05,-47.6 162.66,-49.18 164.04,-50.82 165.2,-52.5 166.15,-54.22 166.87,-55.98 167.37,-57.77 167.66,-59.59 167.74,-61.44 167.61,-63.3 167.28,-65.17 166.76,-67.06 166.05,-68.94 165.17,-70.83 164.11,-72.7 162.9,-74.56 161.53,-76.41 160.02,-78.23 158.37,-80.02 156.6,-81.78 154.71,-83.5 152.72,-85.18 150.63,-86.82 148.44,-88.4 146.18,-89.92 143.85,-91.39 141.44,-92.79 138.99,-94.12 136.47,-95.38 133.92,-96.57 131.32,-97.68 128.69,-98.71 126.04,-99.65 123.35,-100.5 120.65,-101.27 117.93,-101.95 115.19,-102.53 112.44,-103.02 109.69,-103.41 106.92,-103.7 104.16,-103.9 101.39,-104 98.61,-104 95.84,-103.9 93.08,-103.7 90.31,-103.41 87.56,-103.02 84.81,-102.53 82.07,-101.95 79.35,-101.27 76.65,-100.5 73.96,-99.65 71.31,-98.71 68.68,-97.68 66.08,-96.57 63.53,-95.38 61.01,-94.12 58.56,-92.79 56.15,-91.39 53.82,-89.92 51.56,-88.4 49.37,-86.82 47.28,-85.18 45.29,-83.5 43.4,-81.78 41.63,-80.02 39.98,-78.23 38.47,-76.41 37.1,-74.56 35.89,-72.7 34.83,-70.83 33.95,-68.94 33.24,-67.06 32.72,-65.17 32.39,-63.3 32.26,-61.44 32.34,-59.59 32.63,-57.77 33.13,-55.98 33.85,-54.22 34.8,-52.5 35.96,-50.82 37.34,-49.18 38.95,-47.6 40.78,-46.08 42.82,-44.61 45.07,-43.21 47.53,-41.88 50.19,-40.62 53.04,-39.43 56.07,-38.32 59.28,-37.29 62.64,-36.35 66.15,-35.5 69.8,-34.73 73.58,-34.05 77.46,-33.47 81.43,-32.98 85.47,-32.59 89.58,-32.3 93.73,-32.1 97.91,-32 102.09,-32 106.27,-32.1"/>
<text xml:space="preserve" text-anchor="middle" x="100" y="-63.8" font-family="sans-serif" font-size="14.00">PaymentProcessor</text>
</a>
</g>
</g>
<!-- #/domains/commerce/subdomains/ordering/boundedcontexts/ordering -->
<g id="node2" class="node">
<title>#/domains/commerce/subdomains/ordering/boundedcontexts/ordering</title>
<g id="a_node2"><a xlink:title="Order lifecycle, status and events.">
<polygon fill="white" stroke="black" points="105.32,-184.1 108.84,-184.3 112.33,-184.59 115.76,-184.98 119.13,-185.47 122.42,-186.05 125.63,-186.73 128.72,-187.5 131.71,-188.35 134.56,-189.29 137.28,-190.32 139.85,-191.43 142.27,-192.62 144.53,-193.88 146.62,-195.21 148.53,-196.61 150.26,-198.08 151.81,-199.6 153.17,-201.18 154.35,-202.82 155.34,-204.5 156.14,-206.22 156.75,-207.98 157.18,-209.77 157.42,-211.59 157.49,-213.44 157.38,-215.3 157.1,-217.17 156.66,-219.06 156.06,-220.94 155.31,-222.83 154.41,-224.7 153.38,-226.56 152.22,-228.41 150.94,-230.23 149.54,-232.02 148.03,-233.78 146.43,-235.5 144.74,-237.18 142.96,-238.82 141.11,-240.4 139.19,-241.92 137.21,-243.39 135.17,-244.79 133.09,-246.12 130.96,-247.38 128.79,-248.57 126.58,-249.68 124.35,-250.71 122.1,-251.65 119.82,-252.5 117.52,-253.27 115.21,-253.95 112.89,-254.53 110.56,-255.02 108.22,-255.41 105.88,-255.7 103.53,-255.9 101.18,-256 98.82,-256 96.47,-255.9 94.12,-255.7 91.78,-255.41 89.44,-255.02 87.11,-254.53 84.79,-253.95 82.48,-253.27 80.18,-252.5 77.9,-251.65 75.65,-250.71 73.42,-249.68 71.21,-248.57 69.04,-247.38 66.91,-246.12 64.83,-244.79 62.79,-243.39 60.81,-241.92 58.89,-240.4 57.04,-238.82 55.26,-237.18 53.57,-235.5 51.97,-233.78 50.46,-232.02 49.06,-230.23 47.78,-228.41 46.62,-226.56 45.59,-224.7 44.69,-222.83 43.94,-220.94 43.34,-219.06 42.9,-217.17 42.62,-215.3 42.51,-213.44 42.58,-211.59 42.82,-209.77 43.25,-207.98 43.86,-206.22 44.66,-204.5 45.65,-202.82 46.83,-201.18 48.19,-199.6 49.74,-198.08 51.47,-196.61 53.38,-195.21 55.47,-193.88 57.73,-192.62 60.15,-191.43 62.72,-190.32 65.44,-189.29 68.29,-188.35 71.28,-187.5 74.37,-186.73 77.58,-186.05 80.87,-185.47 84.24,-184.98 87.67,-184.59 91.16,-184.3 94.68,-184.1 98.22,-184 101.78,-184 105.32,-184.1"/>
<text xml:space="preserve" text-anchor="middle" x="100" y="-215.8" font-family="sans-serif" font-size="14.00">Ordering</text>
</a>
</g>
</g>
<!-- #/domains/commerce/subdomains/ordering/boundedcontexts/ordering&#45;&gt;#/domains/payment_processing/subdomains/payment_processors/boundedcontexts/payment_processor -->
<g id="edge1" class="edge">
<title>#/domains/commerce/subdomains/ordering/boundedcontexts/ordering&#45;&gt;#/domains/payment_processing/subdomains/payment_processors/boundedcontexts/payment_processor</title>
<path fill="none" stroke="black" d="M88.4,-184.21C86.24,-163.57 85.92,-137.17 87.45,-114.85"/>
<polygon fill="black" stroke="black" points="90.92,-115.37 88.29,-105.11 83.94,-114.77 90.92,-115.37"/>
<g id="a_edge1&#45;headlabel"><a xlink:title="open&#45;host&#45;service">
<text xml:space="preserve" text-anchor="middle" x="88.42" y="-100.6" font-family="sans-serif" font-size="10.00">OHS</text>
</a>
</g>
<g id="a_edge1&#45;taillabel"><a xlink:title="customer&#45;supplier">
<text xml:space="preserve" text-anchor="middle" x="88.4" y="-181.21" font-family="sans-serif" font-size="10.00">C/s</text>
</a>
</g>
</g>
<!-- #/domains/commerce/subdomains/ordering/boundedcontexts/ordering&#45;&gt;#/domains/payment_processing/subdomains/payment_processors/boundedcontexts/payment_processor -->
<g id="edge2" class="edge">
<title>#/domains/commerce/subdomains/ordering/boundedcontexts/ordering&#45;&gt;#/domains/payment_processing/subdomains/payment_processors/boundedcontexts/payment_processor</title>
<path fill="none" stroke="black" d="M111.6,-184.21C113.76,-163.57 114.08,-137.17 112.55,-114.85"/>
<polygon fill="black" stroke="black" points="116.06,-114.77 111.71,-105.11 109.08,-115.37 116.06,-114.77"/>
<g id="a_edge2&#45;headlabel"><a xlink:title="published&#45;language">
<text xml:space="preserve" text-anchor="middle" x="111.58" y="-100.6" font-family="sans-serif" font-size="10.00">PL</text>
</a>
</g>
<g id="a_edge2&#45;taillabel"><a xlink:title="conformist">
<text xml:space="preserve" text-anchor="middle" x="111.6" y="-181.21" font-family="sans-serif" font-size="10.00">C</text>
</a>
</g>
</g>
</g>
</svg>
