<?xml version="1.0" encoding="UTF-8" standalone="no"?>
<?xml-stylesheet href="data:text/css,.graph%20text%20%7B%0A%09font-family%3A%20sans-serif%3B%0A%09stroke%3A%20white%3B%0A%09paint-order%3A%20stroke%3B%0A%09stroke-width%3A%203%3B%0A%09stroke-linecap%3A%20square%3B%0A%7D%0A%0A.namespace%20polygon%20%7B%0A%09fill-opacity%3A%200.2%3B%0A%09stroke%3A%20none%3B%0A%7D%0A" type="text/css"?>
<!DOCTYPE svg PUBLIC "-//W3C//DTD SVG 1.1//EN"
 "http://www.w3.org/Graphics/SVG/1.1/DTD/svg11.dtd">
<!-- Generated by graphviz version 13.1.2 (0)
 -->
<!-- Pages: 1 -->
<svg width="616pt" height="292pt"
 viewBox="0.00 0.00 616.00 292.00" xmlns="http://www.w3.org/2000/svg" xmlns:xlink="http://www.w3.org/1999/xlink">
<g id="graph0" class="graph" transform="scale(1 1) rotate(0) translate(4 288)">
<polygon fill="white" stroke="none" points="-4,4 -4,-288 611.67,-288 611.67,4 -4,4"/>
<g id="clust1" class="cluster namespace">
<title>#/boundedcontexts/billing_&amp;_plans/aggregates/subscription</title>
<polygon fill="lightgrey" stroke="lightgrey" points="8,-8 8,-276 599.67,-276 599.67,-8 8,-8"/>
<text xml:space="preserve" text-anchor="middle" x="303.83" y="-263" font-family="sans-serif" font-size="10.00">Members / Billing &amp; Plans / Billing &amp; Plans / Subscription</text>
</g>
<!-- #/boundedcontexts/billing_&amp;_plans/aggregates/subscription/entities/subscription -->
<g id="node1" class="node">
<title>#/boundedcontexts/billing_&amp;_plans/aggregates/subscription/entities/subscription</title>
<g id="a_node1"><a xlink:title="The household&#39;s current arrangement">
<polygon fill="white" stroke="none" points="161.07,-191 16,-191 16,-73 161.07,-73 161.07,-191"/>
<polygon fill="none" stroke="black" points="16,-161 16,-191 161.07,-191 161.07,-161 16,-161"/>
<text xml:space="preserve" text-anchor="start" x="62.84" y="-178" font-family="sans-serif" font-size="10.00">«root entity»</text>
<text xml:space="preserve" text-anchor="start" x="61.3" y="-168" font-family="sans-serif" font-weight="bold" font-size="10.00">Subscription</text>
<polygon fill="none" stroke="black" points="16,-139 16,-161 161.07,-161 161.07,-139 16,-139"/>
<text xml:space="preserve" text-anchor="start" x="21" y="-147" font-family="sans-serif" font-size="10.00">{id} subscriptionId: string</text>
<polygon fill="none" stroke="black" points="16,-117 16,-139 161.07,-139 161.07,-117 16,-117"/>
<text xml:space="preserve" text-anchor="start" x="21" y="-125" font-family="sans-serif" font-size="10.00">householdId: string</text>
<polygon fill="none" stroke="black" points="16,-95 16,-117 161.07,-117 161.07,-95 16,-95"/>
<text xml:space="preserve" text-anchor="start" x="21" y="-103" font-family="sans-serif" font-size="10.00">status: &#39;active&#39; | &#39;dunning&#39; | &#39;lapsed&#39;</text>
<polygon fill="none" stroke="black" points="16,-73 16,-95 161.07,-95 161.07,-73 16,-73"/>
<text xml:space="preserve" text-anchor="start" x="21" y="-81" font-family="sans-serif" font-size="10.00">plan: Plan</text>
</a>
</g>
</g>
<!-- #/boundedcontexts/billing_&amp;_plans/aggregates/subscription/entities/invoice -->
<g id="node2" class="node">
<title>#/boundedcontexts/billing_&amp;_plans/aggregates/subscription/entities/invoice</title>
<g id="a_node2"><a xlink:title="One period&#39;s charge; an entity because it is numbered and paid">
<polygon fill="white" stroke="none" points="371.88,-112 276.18,-112 276.18,-16 371.88,-16 371.88,-112"/>
<polygon fill="none" stroke="black" points="276.18,-82 276.18,-112 371.88,-112 371.88,-82 276.18,-82"/>
<text xml:space="preserve" text-anchor="start" x="307.64" y="-99" font-family="sans-serif" font-size="10.00">«entity»</text>
<text xml:space="preserve" text-anchor="start" x="308.47" y="-89" font-family="sans-serif" font-weight="bold" font-size="10.00">Invoice</text>
<polygon fill="none" stroke="black" points="276.18,-60 276.18,-82 371.88,-82 371.88,-60 276.18,-60"/>
<text xml:space="preserve" text-anchor="start" x="281.18" y="-68" font-family="sans-serif" font-size="10.00">{id} invoiceId: string</text>
<polygon fill="none" stroke="black" points="276.18,-38 276.18,-60 371.88,-60 371.88,-38 276.18,-38"/>
<text xml:space="preserve" text-anchor="start" x="281.18" y="-46" font-family="sans-serif" font-size="10.00">amount: Money</text>
<polygon fill="none" stroke="black" points="276.18,-16 276.18,-38 371.88,-38 371.88,-16 276.18,-16"/>
<text xml:space="preserve" text-anchor="start" x="281.18" y="-24" font-family="sans-serif" font-size="10.00">paid: boolean</text>
</a>
</g>
</g>
<!-- #/boundedcontexts/billing_&amp;_plans/aggregates/subscription/entities/subscription&#45;&gt;#/boundedcontexts/billing_&amp;_plans/aggregates/subscription/entities/invoice -->
<g id="edge1" class="edge">
<title>#/boundedcontexts/billing_&amp;_plans/aggregates/subscription/entities/subscription&#45;&gt;#/boundedcontexts/billing_&amp;_plans/aggregates/subscription/entities/invoice</title>
<path fill="none" stroke="black" d="M172.97,-107.7C207.77,-97.57 246.88,-86.18 276.44,-77.57"/>
<polygon fill="black" stroke="black" points="173.25,-107.62 168.6,-113.14 161.72,-110.98 166.37,-105.46 173.25,-107.62"/>
<text xml:space="preserve" text-anchor="middle" x="197.12" y="-107.09" font-family="sans-serif" font-size="10.00">billed&#45;by</text>
<text xml:space="preserve" text-anchor="middle" x="265.16" y="-84.45" font-family="sans-serif" font-size="10.00">*</text>
</g>
<!-- #/boundedcontexts/billing_&amp;_plans/aggregates/subscription/valueobjects/plan -->
<g id="node5" class="node">
<title>#/boundedcontexts/billing_&amp;_plans/aggregates/subscription/valueobjects/plan</title>
<g id="a_node5"><a xlink:title="A tier: price, concurrent streams, ad&#45;supported or not">
<polygon fill="white" stroke="none" points="414.89,-248 233.17,-248 233.17,-130 414.89,-130 414.89,-248"/>
<polygon fill="none" stroke="black" points="233.17,-218 233.17,-248 414.89,-248 414.89,-218 233.17,-218"/>
<text xml:space="preserve" text-anchor="start" x="294.73" y="-235" font-family="sans-serif" font-size="10.00">«value object»</text>
<text xml:space="preserve" text-anchor="start" x="314.3" y="-225" font-family="sans-serif" font-weight="bold" font-size="10.00">Plan</text>
<polygon fill="none" stroke="black" points="233.17,-196 233.17,-218 414.89,-218 414.89,-196 233.17,-196"/>
<text xml:space="preserve" text-anchor="start" x="238.17" y="-204" font-family="sans-serif" font-size="10.00">tier: &#39;basic&#45;with&#45;ads&#39; | &#39;standard&#39; | &#39;premium&#39;</text>
<polygon fill="none" stroke="black" points="233.17,-174 233.17,-196 414.89,-196 414.89,-174 233.17,-174"/>
<text xml:space="preserve" text-anchor="start" x="238.17" y="-182" font-family="sans-serif" font-size="10.00">price: Money</text>
<polygon fill="none" stroke="black" points="233.17,-152 233.17,-174 414.89,-174 414.89,-152 233.17,-152"/>
<text xml:space="preserve" text-anchor="start" x="238.17" y="-160" font-family="sans-serif" font-size="10.00">maxStreams: int</text>
<polygon fill="none" stroke="black" points="233.17,-130 233.17,-152 414.89,-152 414.89,-130 233.17,-130"/>
<text xml:space="preserve" text-anchor="start" x="238.17" y="-138" font-family="sans-serif" font-size="10.00">adSupported: boolean</text>
</a>
</g>
</g>
<!-- #/boundedcontexts/billing_&amp;_plans/aggregates/subscription/entities/subscription&#45;&gt;#/boundedcontexts/billing_&amp;_plans/aggregates/subscription/valueobjects/plan -->
<g id="edge4" class="edge">
<title>#/boundedcontexts/billing_&amp;_plans/aggregates/subscription/entities/subscription&#45;&gt;#/boundedcontexts/billing_&amp;_plans/aggregates/subscription/valueobjects/plan</title>
<path fill="none" stroke="black" stroke-dasharray="5,2" d="M160.86,-149.41C180.39,-154.18 201.93,-159.44 222.75,-164.52"/>
<polygon fill="black" stroke="black" points="232.38,-166.87 221.6,-168.87 228.7,-165.97 222.66,-164.5 222.66,-164.5 222.66,-164.5 228.7,-165.97 223.73,-160.13 232.38,-166.87"/>
<text xml:space="preserve" text-anchor="middle" x="197.12" y="-165.21" font-family="sans-serif" font-size="10.00">on&#45;plan</text>
<text xml:space="preserve" text-anchor="middle" x="218.85" y="-167.09" font-family="sans-serif" font-size="10.00">1</text>
</g>
<!-- #/boundedcontexts/billing_&amp;_plans/aggregates/subscription/valueobjects/billing_period -->
<g id="node3" class="node">
<title>#/boundedcontexts/billing_&amp;_plans/aggregates/subscription/valueobjects/billing_period</title>
<g id="a_node3"><a xlink:title="The month an invoice covers">
<polygon fill="white" stroke="none" points="570.84,-95 502.25,-95 502.25,-21 570.84,-21 570.84,-95"/>
<polygon fill="none" stroke="black" points="502.25,-65 502.25,-95 570.84,-95 570.84,-65 502.25,-65"/>
<text xml:space="preserve" text-anchor="start" x="507.25" y="-82" font-family="sans-serif" font-size="10.00">«value object»</text>
<text xml:space="preserve" text-anchor="start" x="508.21" y="-72" font-family="sans-serif" font-weight="bold" font-size="10.00">BillingPeriod</text>
<polygon fill="none" stroke="black" points="502.25,-43 502.25,-65 570.84,-65 570.84,-43 502.25,-43"/>
<text xml:space="preserve" text-anchor="start" x="507.25" y="-51" font-family="sans-serif" font-size="10.00">from: date</text>
<polygon fill="none" stroke="black" points="502.25,-21 502.25,-43 570.84,-43 570.84,-21 502.25,-21"/>
<text xml:space="preserve" text-anchor="start" x="507.25" y="-29" font-family="sans-serif" font-size="10.00">to: date</text>
</a>
</g>
</g>
<!-- #/boundedcontexts/billing_&amp;_plans/aggregates/subscription/entities/invoice&#45;&gt;#/boundedcontexts/billing_&amp;_plans/aggregates/subscription/valueobjects/billing_period -->
<g id="edge2" class="edge">
<title>#/boundedcontexts/billing_&amp;_plans/aggregates/subscription/entities/invoice&#45;&gt;#/boundedcontexts/billing_&amp;_plans/aggregates/subscription/valueobjects/billing_period</title>
<path fill="none" stroke="black" stroke-dasharray="5,2" d="M371.75,-62.67C407.49,-61.65 456.44,-60.25 491.5,-59.26"/>
<polygon fill="black" stroke="black" points="501.14,-58.98 491.27,-63.76 497.36,-59.09 491.14,-59.27 491.14,-59.27 491.14,-59.27 497.36,-59.09 491.02,-54.77 501.14,-58.98"/>
<text xml:space="preserve" text-anchor="middle" x="448.15" y="-63.82" font-family="sans-serif" font-size="10.00">covers</text>
<text xml:space="preserve" text-anchor="middle" x="488.95" y="-62.67" font-family="sans-serif" font-size="10.00">1</text>
</g>
<!-- #/boundedcontexts/billing_&amp;_plans/aggregates/subscription/valueobjects/money -->
<g id="node4" class="node">
<title>#/boundedcontexts/billing_&amp;_plans/aggregates/subscription/valueobjects/money</title>
<g id="a_node4"><a xlink:title="An amount in a currency: minor units and an ISO 4217 code">
<polygon fill="white" stroke="none" points="591.67,-187 481.42,-187 481.42,-113 591.67,-113 591.67,-187"/>
<polygon fill="none" stroke="black" points="481.42,-157 481.42,-187 591.67,-187 591.67,-157 481.42,-157"/>
<text xml:space="preserve" text-anchor="start" x="507.25" y="-174" font-family="sans-serif" font-size="10.00">«value object»</text>
<text xml:space="preserve" text-anchor="start" x="521.83" y="-164" font-family="sans-serif" font-weight="bold" font-size="10.00">Money</text>
<polygon fill="none" stroke="black" points="481.42,-135 481.42,-157 591.67,-157 591.67,-135 481.42,-135"/>
<text xml:space="preserve" text-anchor="start" x="486.42" y="-143" font-family="sans-serif" font-size="10.00">amountMinor: int64</text>
<polygon fill="none" stroke="black" points="481.42,-113 481.42,-135 591.67,-135 591.67,-113 481.42,-113"/>
<text xml:space="preserve" text-anchor="start" x="486.42" y="-121" font-family="sans-serif" font-size="10.00">currency: ISO 4217 code</text>
</a>
</g>
</g>
<!-- #/boundedcontexts/billing_&amp;_plans/aggregates/subscription/entities/invoice&#45;&gt;#/boundedcontexts/billing_&amp;_plans/aggregates/subscription/valueobjects/money -->
<g id="edge3" class="edge">
<title>#/boundedcontexts/billing_&amp;_plans/aggregates/subscription/entities/invoice&#45;&gt;#/boundedcontexts/billing_&amp;_plans/aggregates/subscription/valueobjects/money</title>
<path fill="none" stroke="black" stroke-dasharray="5,2" d="M371.75,-83.09C401.04,-95.05 439.2,-110.64 471.32,-123.76"/>
<polygon fill="black" stroke="black" points="480.39,-127.47 469.43,-127.85 476.89,-126.04 471.13,-123.69 471.13,-123.69 471.13,-123.69 476.89,-126.04 472.84,-119.52 480.39,-127.47"/>
<text xml:space="preserve" text-anchor="middle" x="448.15" y="-122.73" font-family="sans-serif" font-size="10.00">charges</text>
<text xml:space="preserve" text-anchor="middle" x="466.54" y="-125.66" font-family="sans-serif" font-size="10.00">1</text>
</g>
</g>
</svg>
