<?xml version="1.0" encoding="UTF-8" standalone="no"?>
<?xml-stylesheet href="data:text/css,.graph%20text%20%7B%0A%09font-family%3A%20sans-serif%3B%0A%09stroke%3A%20white%3B%0A%09paint-order%3A%20stroke%3B%0A%09stroke-width%3A%203%3B%0A%09stroke-linecap%3A%20square%3B%0A%7D%0A%0A.namespace%20polygon%20%7B%0A%09fill-opacity%3A%200.2%3B%0A%09stroke%3A%20none%3B%0A%7D%0A" type="text/css"?>
<!DOCTYPE svg PUBLIC "-//W3C//DTD SVG 1.1//EN"
 "http://www.w3.org/Graphics/SVG/1.1/DTD/svg11.dtd">
<!-- Generated by graphviz version 13.1.2 (0)
 -->
<!-- Pages: 1 -->
<svg width="468pt" height="556pt"
 viewBox="0.00 0.00 468.00 556.00" xmlns="http://www.w3.org/2000/svg" xmlns:xlink="http://www.w3.org/1999/xlink">
<g id="graph0" class="graph" transform="scale(1 1) rotate(0) translate(4 552)">
<polygon fill="white" stroke="none" points="-4,4 -4,-552 464,-552 464,4 -4,4"/>
<g id="clust1" class="cluster namespace">
<title>swagger_petstore_(v3)</title>
<polygon fill="lightgrey" stroke="lightgrey" points="8,-8 8,-540 452,-540 452,-8 8,-8"/>
<text xml:space="preserve" text-anchor="middle" x="230" y="-527" font-family="sans-serif" font-size="10.00">Swagger Petstore (v3)</text>
</g>
<g id="clust2" class="cluster namespace">
<title>#/domains/petstore_commerce</title>
<polygon fill="lightgrey" stroke="lightgrey" points="28,-28 28,-500 432,-500 432,-28 28,-28"/>
<text xml:space="preserve" text-anchor="middle" x="230" y="-487" font-family="sans-serif" font-size="10.00">Petstore Commerce</text>
</g>
<g id="clust3" class="cluster namespace">
<title>#/domains/petstore_commerce/subdomains/sales</title>
<polygon fill="lightgrey" stroke="lightgrey" points="135,-48 135,-240 329,-240 329,-48 135,-48"/>
<text xml:space="preserve" text-anchor="middle" x="232" y="-227" font-family="sans-serif" font-size="10.00">Sales</text>
</g>
<g id="clust4" class="cluster namespace">
<title>#/domains/petstore_commerce/subdomains/sales/boundedcontexts/sales_bc</title>
<polygon fill="lightgrey" stroke="lightgrey" points="155,-68 155,-200 309,-200 309,-68 155,-68"/>
<text xml:space="preserve" text-anchor="middle" x="232" y="-187" font-family="sans-serif" font-size="10.00">Sales BC</text>
</g>
<g id="clust5" class="cluster namespace">
<title>#/domains/petstore_commerce/subdomains/inventory</title>
<polygon fill="lightgrey" stroke="lightgrey" points="119,-268 119,-460 345,-460 345,-268 119,-268"/>
<text xml:space="preserve" text-anchor="middle" x="232" y="-447" font-family="sans-serif" font-size="10.00">Inventory</text>
</g>
<g id="clust6" class="cluster namespace">
<title>#/domains/petstore_commerce/subdomains/inventory/boundedcontexts/inventory_bc</title>
<polygon fill="lightgrey" stroke="lightgrey" points="139,-288 139,-420 325,-420 325,-288 139,-288"/>
<text xml:space="preserve" text-anchor="middle" x="232" y="-407" font-family="sans-serif" font-size="10.00">Inventory BC</text>
</g>
<!-- #/domains/petstore_commerce/subdomains/sales/boundedcontexts/sales_bc/aggregates/order -->
<g id="node1" class="node">
<title>#/domains/petstore_commerce/subdomains/sales/boundedcontexts/sales_bc/aggregates/order</title>
<g id="a_node1"><a xlink:title="Order for a single pet">
<polygon fill="white" stroke="black" points="237.32,-88.1 240.84,-88.3 244.33,-88.59 247.76,-88.98 251.13,-89.47 254.42,-90.05 257.63,-90.73 260.72,-91.5 263.71,-92.35 266.56,-93.29 269.28,-94.32 271.85,-95.43 274.27,-96.62 276.53,-97.88 278.62,-99.21 280.53,-100.61 282.26,-102.08 283.81,-103.6 285.17,-105.18 286.35,-106.82 287.34,-108.5 288.14,-110.22 288.75,-111.98 289.18,-113.77 289.42,-115.59 289.49,-117.44 289.38,-119.3 289.1,-121.17 288.66,-123.06 288.06,-124.94 287.31,-126.83 286.41,-128.7 285.38,-130.56 284.22,-132.41 282.94,-134.23 281.54,-136.02 280.03,-137.78 278.43,-139.5 276.74,-141.18 274.96,-142.82 273.11,-144.4 271.19,-145.92 269.21,-147.39 267.17,-148.79 265.09,-150.12 262.96,-151.38 260.79,-152.57 258.58,-153.68 256.35,-154.71 254.1,-155.65 251.82,-156.5 249.52,-157.27 247.21,-157.95 244.89,-158.53 242.56,-159.02 240.22,-159.41 237.88,-159.7 235.53,-159.9 233.18,-160 230.82,-160 228.47,-159.9 226.12,-159.7 223.78,-159.41 221.44,-159.02 219.11,-158.53 216.79,-157.95 214.48,-157.27 212.18,-156.5 209.9,-155.65 207.65,-154.71 205.42,-153.68 203.21,-152.57 201.04,-151.38 198.91,-150.12 196.83,-148.79 194.79,-147.39 192.81,-145.92 190.89,-144.4 189.04,-142.82 187.26,-141.18 185.57,-139.5 183.97,-137.78 182.46,-136.02 181.06,-134.23 179.78,-132.41 178.62,-130.56 177.59,-128.7 176.69,-126.83 175.94,-124.94 175.34,-123.06 174.9,-121.17 174.62,-119.3 174.51,-117.44 174.58,-115.59 174.82,-113.77 175.25,-111.98 175.86,-110.22 176.66,-108.5 177.65,-106.82 178.83,-105.18 180.19,-103.6 181.74,-102.08 183.47,-100.61 185.38,-99.21 187.47,-97.88 189.73,-96.62 192.15,-95.43 194.72,-94.32 197.44,-93.29 200.29,-92.35 203.28,-91.5 206.37,-90.73 209.58,-90.05 212.87,-89.47 216.24,-88.98 219.67,-88.59 223.16,-88.3 226.68,-88.1 230.22,-88 233.78,-88 237.32,-88.1"/>
<text xml:space="preserve" text-anchor="middle" x="232" y="-119.8" font-family="sans-serif" font-size="14.00">Order</text>
</a>
</g>
</g>
<!-- #/domains/petstore_commerce/subdomains/inventory/boundedcontexts/inventory_bc/aggregates/inventory_projection -->
<g id="node2" class="node">
<title>#/domains/petstore_commerce/subdomains/inventory/boundedcontexts/inventory_bc/aggregates/inventory_projection</title>
<g id="a_node2"><a xlink:title="Projection for /store/inventory (status→count)">
<polygon fill="white" stroke="black" points="238.72,-308.1 243.16,-308.3 247.56,-308.59 251.9,-308.98 256.16,-309.47 260.31,-310.05 264.36,-310.73 268.27,-311.5 272.03,-312.35 275.64,-313.29 279.07,-314.32 282.32,-315.43 285.37,-316.62 288.22,-317.88 290.86,-319.21 293.27,-320.61 295.46,-322.08 297.42,-323.6 299.14,-325.18 300.62,-326.82 301.87,-328.5 302.88,-330.22 303.65,-331.98 304.19,-333.77 304.5,-335.59 304.58,-337.44 304.45,-339.3 304.09,-341.17 303.54,-343.06 302.78,-344.94 301.83,-346.83 300.7,-348.7 299.4,-350.56 297.93,-352.41 296.31,-354.23 294.55,-356.02 292.65,-357.78 290.63,-359.5 288.49,-361.18 286.25,-362.82 283.91,-364.4 281.49,-365.92 278.98,-367.39 276.41,-368.79 273.77,-370.12 271.08,-371.38 268.35,-372.57 265.56,-373.68 262.75,-374.71 259.9,-375.65 257.02,-376.5 254.13,-377.27 251.21,-377.95 248.28,-378.53 245.33,-379.02 242.38,-379.41 239.42,-379.7 236.45,-379.9 233.48,-380 230.52,-380 227.55,-379.9 224.58,-379.7 221.62,-379.41 218.67,-379.02 215.72,-378.53 212.79,-377.95 209.87,-377.27 206.98,-376.5 204.1,-375.65 201.25,-374.71 198.44,-373.68 195.65,-372.57 192.92,-371.38 190.23,-370.12 187.59,-368.79 185.02,-367.39 182.51,-365.92 180.09,-364.4 177.75,-362.82 175.51,-361.18 173.37,-359.5 171.35,-357.78 169.45,-356.02 167.69,-354.23 166.07,-352.41 164.6,-350.56 163.3,-348.7 162.17,-346.83 161.22,-344.94 160.46,-343.06 159.91,-341.17 159.55,-339.3 159.42,-337.44 159.5,-335.59 159.81,-333.77 160.35,-331.98 161.12,-330.22 162.13,-328.5 163.38,-326.82 164.86,-325.18 166.58,-323.6 168.54,-322.08 170.73,-320.61 173.14,-319.21 175.78,-317.88 178.63,-316.62 181.68,-315.43 184.93,-314.32 188.36,-313.29 191.97,-312.35 195.73,-311.5 199.64,-310.73 203.69,-310.05 207.84,-309.47 212.1,-308.98 216.44,-308.59 220.84,-308.3 225.28,-308.1 229.76,-308 234.24,-308 238.72,-308.1"/>
<text xml:space="preserve" text-anchor="middle" x="232" y="-339.8" font-family="sans-serif" font-size="14.00">InventoryProjection</text>
</a>
</g>
</g>
<!-- #/domains/petstore_commerce/subdomains/inventory/boundedcontexts/inventory_bc/aggregates/inventory_projection&#45;&gt;#/domains/petstore_commerce/subdomains/sales/boundedcontexts/sales_bc/aggregates/order -->
<g id="edge1" class="edge">
<title>#/domains/petstore_commerce/subdomains/inventory/boundedcontexts/inventory_bc/aggregates/inventory_projection&#45;&gt;#/domains/petstore_commerce/subdomains/sales/boundedcontexts/sales_bc/aggregates/order</title>
<path fill="none" stroke="black" d="M169.57,-321.05C142.06,-307.89 112.44,-288.14 96.69,-260 70.66,-213.5 130.53,-172.22 178.77,-147.91"/>
<polygon fill="black" stroke="black" points="180.04,-151.18 187.49,-143.64 176.97,-144.89 180.04,-151.18"/>
<text xml:space="preserve" text-anchor="middle" x="128.34" y="-251" font-family="sans-serif" font-size="10.00">OrderApproved</text>
<g id="a_edge1&#45;headlabel"><a xlink:title="published&#45;language">
<text xml:space="preserve" text-anchor="middle" x="188.85" y="-139.98" font-family="sans-serif" font-size="10.00">PL</text>
</a>
</g>
<g id="a_edge1&#45;taillabel"><a xlink:title="conformist">
<text xml:space="preserve" text-anchor="middle" x="169.57" y="-318.05" font-family="sans-serif" font-size="10.00">C</text>
</a>
</g>
</g>
<!-- #/domains/petstore_commerce/subdomains/inventory/boundedcontexts/inventory_bc/aggregates/inventory_projection&#45;&gt;#/domains/petstore_commerce/subdomains/sales/boundedcontexts/sales_bc/aggregates/order -->
<g id="edge2" class="edge">
<title>#/domains/petstore_commerce/subdomains/inventory/boundedcontexts/inventory_bc/aggregates/inventory_projection&#45;&gt;#/domains/petstore_commerce/subdomains/sales/boundedcontexts/sales_bc/aggregates/order</title>
<path fill="none" stroke="black" d="M227.48,-307.93C225.79,-293.16 224.08,-275.77 223.26,-260 221.71,-230.61 223.77,-197.65 226.28,-171.65"/>
<polygon fill="black" stroke="black" points="229.76,-172.04 227.3,-161.74 222.8,-171.33 229.76,-172.04"/>
<text xml:space="preserve" text-anchor="middle" x="254.63" y="-251" font-family="sans-serif" font-size="10.00">OrderDelivered</text>
<g id="a_edge2&#45;headlabel"><a xlink:title="published&#45;language">
<text xml:space="preserve" text-anchor="middle" x="227.46" y="-157.23" font-family="sans-serif" font-size="10.00">PL</text>
</a>
</g>
<g id="a_edge2&#45;taillabel"><a xlink:title="conformist">
<text xml:space="preserve" text-anchor="middle" x="227.48" y="-304.93" font-family="sans-serif" font-size="10.00">C</text>
</a>
</g>
</g>
<!-- #/domains/petstore_commerce/subdomains/inventory/boundedcontexts/inventory_bc/aggregates/inventory_projection&#45;&gt;#/domains/petstore_commerce/subdomains/sales/boundedcontexts/sales_bc/aggregates/order -->
<g id="edge3" class="edge">
<title>#/domains/petstore_commerce/subdomains/inventory/boundedcontexts/inventory_bc/aggregates/inventory_projection&#45;&gt;#/domains/petstore_commerce/subdomains/sales/boundedcontexts/sales_bc/aggregates/order</title>
<path fill="none" stroke="black" d="M265.08,-310.5C277.28,-296.28 289.66,-278.6 296,-260 307.69,-225.7 287.56,-188.63 266.86,-162.03"/>
<polygon fill="black" stroke="black" points="269.84,-160.15 260.82,-154.6 264.41,-164.57 269.84,-160.15"/>
<text xml:space="preserve" text-anchor="middle" x="325.95" y="-251" font-family="sans-serif" font-size="10.00">OrderDeleted</text>
<g id="a_edge3&#45;headlabel"><a xlink:title="published&#45;language">
<text xml:space="preserve" text-anchor="middle" x="259.86" y="-150.43" font-family="sans-serif" font-size="10.00">PL</text>
</a>
</g>
<g id="a_edge3&#45;taillabel"><a xlink:title="conformist">
<text xml:space="preserve" text-anchor="middle" x="265.08" y="-307.5" font-family="sans-serif" font-size="10.00">C</text>
</a>
</g>
</g>
</g>
</svg>
