<?xml version="1.0" encoding="UTF-8" standalone="no"?>
<?xml-stylesheet href="data:text/css,.graph%20text%20%7B%0A%09font-family%3A%20sans-serif%3B%0A%09stroke%3A%20white%3B%0A%09paint-order%3A%20stroke%3B%0A%09stroke-width%3A%203%3B%0A%09stroke-linecap%3A%20square%3B%0A%7D%0A%0A.namespace%20polygon%20%7B%0A%09fill-opacity%3A%200.3%3B%0A%09stroke%3A%20none%3B%0A%7D%0A" type="text/css"?>
<!DOCTYPE svg PUBLIC "-//W3C//DTD SVG 1.1//EN"
 "http://www.w3.org/Graphics/SVG/1.1/DTD/svg11.dtd">
<!-- Generated by graphviz version 13.1.2 (0)
 -->
<!-- Pages: 1 -->
<svg width="331pt" height="428pt"
 viewBox="0.00 0.00 331.00 428.00" xmlns="http://www.w3.org/2000/svg" xmlns:xlink="http://www.w3.org/1999/xlink">
<g id="graph0" class="graph" transform="scale(1 1) rotate(0) translate(4 424)">
<polygon fill="white" stroke="none" points="-4,4 -4,-424 326.8,-424 326.8,4 -4,4"/>
<g id="clust1" class="cluster namespace">
<title>e_commerce</title>
<polygon fill="lightgrey" stroke="lightgrey" points="8,-8 8,-412 314.8,-412 314.8,-8 8,-8"/>
<text xml:space="preserve" text-anchor="middle" x="161.4" y="-399" font-family="sans-serif" font-size="10.00">eCommerce</text>
</g>
<g id="clust2" class="cluster namespace">
<title>#/domains/commerce</title>
<polygon fill="lightgrey" stroke="lightgrey" points="16.43,-16 16.43,-196 306.8,-196 306.8,-16 16.43,-16"/>
<text xml:space="preserve" text-anchor="middle" x="161.62" y="-183" font-family="sans-serif" font-size="10.00">Commerce</text>
</g>
<g id="clust3" class="cluster namespace">
<title>#/domains/commerce/subdomains/sales</title>
<polygon fill="lightgrey" stroke="lightgrey" points="24.43,-24 24.43,-168 298.8,-168 298.8,-24 24.43,-24"/>
<text xml:space="preserve" text-anchor="middle" x="161.62" y="-155" font-family="sans-serif" font-size="10.00">Sales</text>
</g>
<g id="clust4" class="cluster namespace">
<title>#/domains/commerce/subdomains/sales/boundedcontexts/ordering</title>
<polygon fill="lightgrey" stroke="lightgrey" points="32.43,-32 32.43,-140 290.8,-140 290.8,-32 32.43,-32"/>
<text xml:space="preserve" text-anchor="middle" x="161.62" y="-127" font-family="sans-serif" font-size="10.00">Ordering</text>
</g>
<g id="clust5" class="cluster namespace">
<title>#/domains/commerce/subdomains/sales/boundedcontexts/ordering/aggregates/order</title>
<polygon fill="lightgrey" stroke="lightgrey" points="40.43,-40 40.43,-112 282.8,-112 282.8,-40 40.43,-40"/>
<text xml:space="preserve" text-anchor="middle" x="161.62" y="-99" font-family="sans-serif" font-size="10.00">Order</text>
</g>
<g id="clust6" class="cluster namespace">
<title>#/domains/content</title>
<polygon fill="lightgrey" stroke="lightgrey" points="16,-204 16,-384 297.16,-384 297.16,-204 16,-204"/>
<text xml:space="preserve" text-anchor="middle" x="156.58" y="-371" font-family="sans-serif" font-size="10.00">Content</text>
</g>
<g id="clust7" class="cluster namespace">
<title>#/domains/content/subdomains/publishing</title>
<polygon fill="lightgrey" stroke="lightgrey" points="24,-212 24,-356 289.16,-356 289.16,-212 24,-212"/>
<text xml:space="preserve" text-anchor="middle" x="156.58" y="-343" font-family="sans-serif" font-size="10.00">Publishing</text>
</g>
<g id="clust8" class="cluster namespace">
<title>#/domains/content/subdomains/publishing/boundedcontexts/cms</title>
<polygon fill="lightgrey" stroke="lightgrey" points="32,-220 32,-328 281.16,-328 281.16,-220 32,-220"/>
<text xml:space="preserve" text-anchor="middle" x="156.58" y="-315" font-family="sans-serif" font-size="10.00">CMS</text>
</g>
<g id="clust9" class="cluster namespace">
<title>#/domains/content/subdomains/publishing/boundedcontexts/cms/aggregates/article</title>
<polygon fill="lightgrey" stroke="lightgrey" points="40,-228 40,-300 273.16,-300 273.16,-228 40,-228"/>
<text xml:space="preserve" text-anchor="middle" x="156.58" y="-287" font-family="sans-serif" font-size="10.00">Article</text>
</g>
<!-- #/domains/commerce/subdomains/sales/boundedcontexts/ordering/aggregates/order/entities/order -->
<g id="node1" class="node">
<title>#/domains/commerce/subdomains/sales/boundedcontexts/ordering/aggregates/order/entities/order</title>
<g id="a_node1"><a xlink:title="Amount + currency">
<polygon fill="white" stroke="black" points="102.43,-84 48.43,-84 48.43,-48 102.43,-48 102.43,-84"/>
<text xml:space="preserve" text-anchor="middle" x="75.43" y="-61.8" font-family="sans-serif" font-size="14.00">Order</text>
</a>
</g>
</g>
<!-- #/domains/commerce/subdomains/sales/boundedcontexts/ordering/aggregates/order/valueobjects/money -->
<g id="node2" class="node">
<title>#/domains/commerce/subdomains/sales/boundedcontexts/ordering/aggregates/order/valueobjects/money</title>
<g id="a_node2"><a xlink:title="Amount + currency">
<ellipse fill="white" stroke="black" stroke-dasharray="5,2" cx="236.41" cy="-66" rx="38.39" ry="18"/>
<text xml:space="preserve" text-anchor="middle" x="236.41" y="-61.8" font-family="sans-serif" font-size="14.00">Money</text>
</a>
</g>
</g>
<!-- #/domains/commerce/subdomains/sales/boundedcontexts/ordering/aggregates/order/entities/order&#45;&gt;#/domains/commerce/subdomains/sales/boundedcontexts/ordering/aggregates/order/valueobjects/money -->
<g id="edge1" class="edge">
<title>#/domains/commerce/subdomains/sales/boundedcontexts/ordering/aggregates/order/entities/order&#45;&gt;#/domains/commerce/subdomains/sales/boundedcontexts/ordering/aggregates/order/valueobjects/money</title>
<path fill="none" stroke="black" stroke-dasharray="5,2" d="M102.69,-66C125.3,-66 158.54,-66 186.1,-66"/>
<polygon fill="black" stroke="black" points="186,-69.5 196,-66 186,-62.5 186,-69.5"/>
<text xml:space="preserve" text-anchor="middle" x="150.44" y="-69" font-family="Times,serif" font-size="10.00">totals</text>
</g>
<!-- #/domains/content/subdomains/publishing/boundedcontexts/cms/aggregates/article/entities/article -->
<g id="node3" class="node">
<title>#/domains/content/subdomains/publishing/boundedcontexts/cms/aggregates/article/entities/article</title>
<g id="a_node3"><a xlink:title="URL&#45;safe identifier">
<polygon fill="white" stroke="black" points="102.87,-272 48,-272 48,-236 102.87,-236 102.87,-272"/>
<text xml:space="preserve" text-anchor="middle" x="75.43" y="-249.8" font-family="sans-serif" font-size="14.00">Article</text>
</a>
</g>
</g>
<!-- #/domains/content/subdomains/publishing/boundedcontexts/cms/aggregates/article/valueobjects/slug -->
<g id="node4" class="node">
<title>#/domains/content/subdomains/publishing/boundedcontexts/cms/aggregates/article/valueobjects/slug</title>
<g id="a_node4"><a xlink:title="URL&#45;safe identifier">
<ellipse fill="white" stroke="black" stroke-dasharray="5,2" cx="236.41" cy="-254" rx="28.75" ry="18"/>
<text xml:space="preserve" text-anchor="middle" x="236.41" y="-249.8" font-family="sans-serif" font-size="14.00">Slug</text>
</a>
</g>
</g>
<!-- #/domains/content/subdomains/publishing/boundedcontexts/cms/aggregates/article/entities/article&#45;&gt;#/domains/content/subdomains/publishing/boundedcontexts/cms/aggregates/article/valueobjects/slug -->
<g id="edge2" class="edge">
<title>#/domains/content/subdomains/publishing/boundedcontexts/cms/aggregates/article/entities/article&#45;&gt;#/domains/content/subdomains/publishing/boundedcontexts/cms/aggregates/article/valueobjects/slug</title>
<path fill="none" stroke="black" stroke-dasharray="5,2" d="M103.04,-254C128.45,-254 167.04,-254 196.01,-254"/>
<polygon fill="black" stroke="black" points="195.86,-257.5 205.86,-254 195.86,-250.5 195.86,-257.5"/>
<text xml:space="preserve" text-anchor="middle" x="150.44" y="-257" font-family="Times,serif" font-size="10.00">addressable by</text>
</g>
</g>
</svg>
