<?xml version="1.0" encoding="UTF-8" standalone="no"?>
<?xml-stylesheet href="data:text/css,.graph%20text%20%7B%0A%09font-family%3A%20sans-serif%3B%0A%09stroke%3A%20white%3B%0A%09paint-order%3A%20stroke%3B%0A%09stroke-width%3A%203%3B%0A%09stroke-linecap%3A%20square%3B%0A%7D%0A%0A.namespace%20polygon%20%7B%0A%09fill-opacity%3A%200.2%3B%0A%09stroke%3A%20none%3B%0A%7D%0A" type="text/css"?>
<!DOCTYPE svg PUBLIC "-//W3C//DTD SVG 1.1//EN"
 "http://www.w3.org/Graphics/SVG/1.1/DTD/svg11.dtd">
<!-- Generated by graphviz version 13.1.2 (0)
 -->
<!-- Pages: 1 -->
<svg width="1119pt" height="624pt"
 viewBox="0.00 0.00 1119.00 624.00" xmlns="http://www.w3.org/2000/svg" xmlns:xlink="http://www.w3.org/1999/xlink">
<g id="graph0" class="graph" transform="scale(1 1) rotate(0) translate(4 620)">
<polygon fill="white" stroke="none" points="-4,4 -4,-620 1115,-620 1115,4 -4,4"/>
<g id="clust1" class="cluster namespace">
<title>e_shop_on_containers</title>
<polygon fill="lightgrey" stroke="lightgrey" points="8,-8 8,-608 1103,-608 1103,-8 8,-8"/>
<text xml:space="preserve" text-anchor="middle" x="555.5" y="-595" font-family="sans-serif" font-size="10.00">eShopOnContainers</text>
</g>
<g id="clust2" class="cluster namespace">
<title>#/domains/commerce</title>
<polygon fill="lightgrey" stroke="lightgrey" points="16,-16 16,-428 313,-428 313,-16 16,-16"/>
<text xml:space="preserve" text-anchor="middle" x="164.5" y="-415" font-family="sans-serif" font-size="10.00">Commerce</text>
</g>
<g id="clust3" class="cluster namespace">
<title>#/domains/commerce/subdomains/sales</title>
<polygon fill="lightgrey" stroke="lightgrey" points="175,-292 175,-400 305,-400 305,-292 175,-292"/>
<text xml:space="preserve" text-anchor="middle" x="240" y="-387" font-family="sans-serif" font-size="10.00">Sales</text>
</g>
<g id="clust4" class="cluster namespace">
<title>#/domains/commerce/subdomains/shopping</title>
<polygon fill="lightgrey" stroke="lightgrey" points="24,-148 24,-256 154,-256 154,-148 24,-148"/>
<text xml:space="preserve" text-anchor="middle" x="89" y="-243" font-family="sans-serif" font-size="10.00">Shopping</text>
</g>
<g id="clust5" class="cluster namespace">
<title>#/domains/commerce/subdomains/payments</title>
<polygon fill="lightgrey" stroke="lightgrey" points="175,-148 175,-256 305,-256 305,-148 175,-148"/>
<text xml:space="preserve" text-anchor="middle" x="240" y="-243" font-family="sans-serif" font-size="10.00">Payments</text>
</g>
<g id="clust6" class="cluster namespace">
<title>#/domains/commerce/subdomains/cataloging</title>
<polygon fill="lightgrey" stroke="lightgrey" points="24,-24 24,-132 154,-132 154,-24 24,-24"/>
<text xml:space="preserve" text-anchor="middle" x="89" y="-119" font-family="sans-serif" font-size="10.00">Cataloging</text>
</g>
<g id="clust7" class="cluster namespace">
<title>#/domains/integration</title>
<polygon fill="lightgrey" stroke="lightgrey" points="167,-436 167,-580 313,-580 313,-436 167,-436"/>
<text xml:space="preserve" text-anchor="middle" x="240" y="-567" font-family="sans-serif" font-size="10.00">Integration</text>
</g>
<g id="clust8" class="cluster namespace">
<title>#/domains/integration/subdomains/edge</title>
<polygon fill="lightgrey" stroke="lightgrey" points="175,-444 175,-552 305,-552 305,-444 175,-444"/>
<text xml:space="preserve" text-anchor="middle" x="240" y="-539" font-family="sans-serif" font-size="10.00">Edge</text>
</g>
<g id="clust9" class="cluster namespace">
<title>#/domains/identity&amp;access</title>
<polygon fill="lightgrey" stroke="lightgrey" points="321,-140 321,-284 467,-284 467,-140 321,-140"/>
<text xml:space="preserve" text-anchor="middle" x="394" y="-271" font-family="sans-serif" font-size="10.00">Identity&amp;Access</text>
</g>
<g id="clust10" class="cluster namespace">
<title>#/domains/identity&amp;access/subdomains/auth</title>
<polygon fill="lightgrey" stroke="lightgrey" points="329,-148 329,-256 459,-256 459,-148 329,-148"/>
<text xml:space="preserve" text-anchor="middle" x="394" y="-243" font-family="sans-serif" font-size="10.00">Auth</text>
</g>
<g id="clust11" class="cluster namespace">
<title>#/domains/customer_experience</title>
<polygon fill="lightgrey" stroke="lightgrey" points="475,-140 475,-284 1095,-284 1095,-140 475,-140"/>
<text xml:space="preserve" text-anchor="middle" x="785" y="-271" font-family="sans-serif" font-size="10.00">CustomerExperience</text>
</g>
<g id="clust12" class="cluster namespace">
<title>#/domains/customer_experience/subdomains/promotions</title>
<polygon fill="lightgrey" stroke="lightgrey" points="483,-148 483,-256 613,-256 613,-148 483,-148"/>
<text xml:space="preserve" text-anchor="middle" x="548" y="-243" font-family="sans-serif" font-size="10.00">Promotions</text>
</g>
<g id="clust13" class="cluster namespace">
<title>#/domains/customer_experience/subdomains/geodata</title>
<polygon fill="lightgrey" stroke="lightgrey" points="634,-148 634,-256 764,-256 764,-148 634,-148"/>
<text xml:space="preserve" text-anchor="middle" x="699" y="-243" font-family="sans-serif" font-size="10.00">Geodata</text>
</g>
<g id="clust14" class="cluster namespace">
<title>#/domains/customer_experience/subdomains/webhooks</title>
<polygon fill="lightgrey" stroke="lightgrey" points="785,-148 785,-256 915,-256 915,-148 785,-148"/>
<text xml:space="preserve" text-anchor="middle" x="850" y="-243" font-family="sans-serif" font-size="10.00">Webhooks</text>
</g>
<g id="clust15" class="cluster namespace">
<title>#/domains/customer_experience/subdomains/realtime</title>
<polygon fill="lightgrey" stroke="lightgrey" points="935,-148 935,-256 1087,-256 1087,-148 935,-148"/>
<text xml:space="preserve" text-anchor="middle" x="1011" y="-243" font-family="sans-serif" font-size="10.00">Realtime</text>
</g>
<!-- #/domains/commerce/subdomains/sales/boundedcontexts/ordering -->
<g id="node1" class="node">
<title>#/domains/commerce/subdomains/sales/boundedcontexts/ordering</title>
<g id="a_node1"><a xlink:title="Ordering.API (rich DDD + domain events)">
<polygon fill="white" stroke="black" points="245.32,-300.1 248.84,-300.3 252.33,-300.59 255.76,-300.98 259.13,-301.47 262.42,-302.05 265.63,-302.73 268.72,-303.5 271.71,-304.35 274.56,-305.29 277.28,-306.32 279.85,-307.43 282.27,-308.62 284.53,-309.88 286.62,-311.21 288.53,-312.61 290.26,-314.08 291.81,-315.6 293.17,-317.18 294.35,-318.82 295.34,-320.5 296.14,-322.22 296.75,-323.98 297.18,-325.77 297.42,-327.59 297.49,-329.44 297.38,-331.3 297.1,-333.17 296.66,-335.06 296.06,-336.94 295.31,-338.83 294.41,-340.7 293.38,-342.56 292.22,-344.41 290.94,-346.23 289.54,-348.02 288.03,-349.78 286.43,-351.5 284.74,-353.18 282.96,-354.82 281.11,-356.4 279.19,-357.92 277.21,-359.39 275.17,-360.79 273.09,-362.12 270.96,-363.38 268.79,-364.57 266.58,-365.68 264.35,-366.71 262.1,-367.65 259.82,-368.5 257.52,-369.27 255.21,-369.95 252.89,-370.53 250.56,-371.02 248.22,-371.41 245.88,-371.7 243.53,-371.9 241.18,-372 238.82,-372 236.47,-371.9 234.12,-371.7 231.78,-371.41 229.44,-371.02 227.11,-370.53 224.79,-369.95 222.48,-369.27 220.18,-368.5 217.9,-367.65 215.65,-366.71 213.42,-365.68 211.21,-364.57 209.04,-363.38 206.91,-362.12 204.83,-360.79 202.79,-359.39 200.81,-357.92 198.89,-356.4 197.04,-354.82 195.26,-353.18 193.57,-351.5 191.97,-349.78 190.46,-348.02 189.06,-346.23 187.78,-344.41 186.62,-342.56 185.59,-340.7 184.69,-338.83 183.94,-336.94 183.34,-335.06 182.9,-333.17 182.62,-331.3 182.51,-329.44 182.58,-327.59 182.82,-325.77 183.25,-323.98 183.86,-322.22 184.66,-320.5 185.65,-318.82 186.83,-317.18 188.19,-315.6 189.74,-314.08 191.47,-312.61 193.38,-311.21 195.47,-309.88 197.73,-308.62 200.15,-307.43 202.72,-306.32 205.44,-305.29 208.29,-304.35 211.28,-303.5 214.37,-302.73 217.58,-302.05 220.87,-301.47 224.24,-300.98 227.67,-300.59 231.16,-300.3 234.68,-300.1 238.22,-300 241.78,-300 245.32,-300.1"/>
<text xml:space="preserve" text-anchor="middle" x="240" y="-331.8" font-family="sans-serif" font-size="14.00">Ordering</text>
</a>
</g>
</g>
<!-- #/domains/commerce/subdomains/shopping/boundedcontexts/basket -->
<g id="node2" class="node">
<title>#/domains/commerce/subdomains/shopping/boundedcontexts/basket</title>
<g id="a_node2"><a xlink:title="Basket.API (Redis)">
<polygon fill="white" stroke="black" points="94.32,-156.1 97.84,-156.3 101.33,-156.59 104.76,-156.98 108.13,-157.47 111.42,-158.05 114.63,-158.73 117.72,-159.5 120.71,-160.35 123.56,-161.29 126.28,-162.32 128.85,-163.43 131.27,-164.62 133.53,-165.88 135.62,-167.21 137.53,-168.61 139.26,-170.08 140.81,-171.6 142.17,-173.18 143.35,-174.82 144.34,-176.5 145.14,-178.22 145.75,-179.98 146.18,-181.77 146.42,-183.59 146.49,-185.44 146.38,-187.3 146.1,-189.17 145.66,-191.06 145.06,-192.94 144.31,-194.83 143.41,-196.7 142.38,-198.56 141.22,-200.41 139.94,-202.23 138.54,-204.02 137.03,-205.78 135.43,-207.5 133.74,-209.18 131.96,-210.82 130.11,-212.4 128.19,-213.92 126.21,-215.39 124.17,-216.79 122.09,-218.12 119.96,-219.38 117.79,-220.57 115.58,-221.68 113.35,-222.71 111.1,-223.65 108.82,-224.5 106.52,-225.27 104.21,-225.95 101.89,-226.53 99.56,-227.02 97.22,-227.41 94.88,-227.7 92.53,-227.9 90.18,-228 87.82,-228 85.47,-227.9 83.12,-227.7 80.78,-227.41 78.44,-227.02 76.11,-226.53 73.79,-225.95 71.48,-225.27 69.18,-224.5 66.9,-223.65 64.65,-222.71 62.42,-221.68 60.21,-220.57 58.04,-219.38 55.91,-218.12 53.83,-216.79 51.79,-215.39 49.81,-213.92 47.89,-212.4 46.04,-210.82 44.26,-209.18 42.57,-207.5 40.97,-205.78 39.46,-204.02 38.06,-202.23 36.78,-200.41 35.62,-198.56 34.59,-196.7 33.69,-194.83 32.94,-192.94 32.34,-191.06 31.9,-189.17 31.62,-187.3 31.51,-185.44 31.58,-183.59 31.82,-181.77 32.25,-179.98 32.86,-178.22 33.66,-176.5 34.65,-174.82 35.83,-173.18 37.19,-171.6 38.74,-170.08 40.47,-168.61 42.38,-167.21 44.47,-165.88 46.73,-164.62 49.15,-163.43 51.72,-162.32 54.44,-161.29 57.29,-160.35 60.28,-159.5 63.37,-158.73 66.58,-158.05 69.87,-157.47 73.24,-156.98 76.67,-156.59 80.16,-156.3 83.68,-156.1 87.22,-156 90.78,-156 94.32,-156.1"/>
<text xml:space="preserve" text-anchor="middle" x="89" y="-187.8" font-family="sans-serif" font-size="14.00">Basket</text>
</a>
</g>
</g>
<!-- #/domains/commerce/subdomains/sales/boundedcontexts/ordering&#45;&gt;#/domains/commerce/subdomains/shopping/boundedcontexts/basket -->
<g id="edge4" class="edge">
<title>#/domains/commerce/subdomains/sales/boundedcontexts/ordering&#45;&gt;#/domains/commerce/subdomains/shopping/boundedcontexts/basket</title>
<path fill="none" stroke="black" d="M208.52,-303.85C200.25,-297.65 191.63,-290.91 184,-284 164.71,-266.53 145.8,-244.27 129.41,-226.14"/>
<polygon fill="black" stroke="black" points="132.42,-224.25 123.08,-219.24 127.26,-228.98 132.42,-224.25"/>
<g id="a_edge4&#45;headlabel"><a xlink:title="open&#45;host&#45;service">
<text xml:space="preserve" text-anchor="middle" x="122.06" y="-215.13" font-family="sans-serif" font-size="10.00">OHS</text>
</a>
</g>
<g id="a_edge4&#45;taillabel"><a xlink:title="anti&#45;corruption&#45;layer">
<text xml:space="preserve" text-anchor="middle" x="208.52" y="-300.85" font-family="sans-serif" font-size="10.00">ACL</text>
</a>
</g>
</g>
<!-- #/domains/commerce/subdomains/payments/boundedcontexts/payment -->
<g id="node3" class="node">
<title>#/domains/commerce/subdomains/payments/boundedcontexts/payment</title>
<g id="a_node3"><a xlink:title="Payment.API (sample)">
<polygon fill="white" stroke="black" points="245.32,-156.1 248.84,-156.3 252.33,-156.59 255.76,-156.98 259.13,-157.47 262.42,-158.05 265.63,-158.73 268.72,-159.5 271.71,-160.35 274.56,-161.29 277.28,-162.32 279.85,-163.43 282.27,-164.62 284.53,-165.88 286.62,-167.21 288.53,-168.61 290.26,-170.08 291.81,-171.6 293.17,-173.18 294.35,-174.82 295.34,-176.5 296.14,-178.22 296.75,-179.98 297.18,-181.77 297.42,-183.59 297.49,-185.44 297.38,-187.3 297.1,-189.17 296.66,-191.06 296.06,-192.94 295.31,-194.83 294.41,-196.7 293.38,-198.56 292.22,-200.41 290.94,-202.23 289.54,-204.02 288.03,-205.78 286.43,-207.5 284.74,-209.18 282.96,-210.82 281.11,-212.4 279.19,-213.92 277.21,-215.39 275.17,-216.79 273.09,-218.12 270.96,-219.38 268.79,-220.57 266.58,-221.68 264.35,-222.71 262.1,-223.65 259.82,-224.5 257.52,-225.27 255.21,-225.95 252.89,-226.53 250.56,-227.02 248.22,-227.41 245.88,-227.7 243.53,-227.9 241.18,-228 238.82,-228 236.47,-227.9 234.12,-227.7 231.78,-227.41 229.44,-227.02 227.11,-226.53 224.79,-225.95 222.48,-225.27 220.18,-224.5 217.9,-223.65 215.65,-222.71 213.42,-221.68 211.21,-220.57 209.04,-219.38 206.91,-218.12 204.83,-216.79 202.79,-215.39 200.81,-213.92 198.89,-212.4 197.04,-210.82 195.26,-209.18 193.57,-207.5 191.97,-205.78 190.46,-204.02 189.06,-202.23 187.78,-200.41 186.62,-198.56 185.59,-196.7 184.69,-194.83 183.94,-192.94 183.34,-191.06 182.9,-189.17 182.62,-187.3 182.51,-185.44 182.58,-183.59 182.82,-181.77 183.25,-179.98 183.86,-178.22 184.66,-176.5 185.65,-174.82 186.83,-173.18 188.19,-171.6 189.74,-170.08 191.47,-168.61 193.38,-167.21 195.47,-165.88 197.73,-164.62 200.15,-163.43 202.72,-162.32 205.44,-161.29 208.29,-160.35 211.28,-159.5 214.37,-158.73 217.58,-158.05 220.87,-157.47 224.24,-156.98 227.67,-156.59 231.16,-156.3 234.68,-156.1 238.22,-156 241.78,-156 245.32,-156.1"/>
<text xml:space="preserve" text-anchor="middle" x="240" y="-187.8" font-family="sans-serif" font-size="14.00">Payment</text>
</a>
</g>
</g>
<!-- #/domains/commerce/subdomains/sales/boundedcontexts/ordering&#45;&gt;#/domains/commerce/subdomains/payments/boundedcontexts/payment -->
<g id="edge11" class="edge">
<title>#/domains/commerce/subdomains/sales/boundedcontexts/ordering&#45;&gt;#/domains/commerce/subdomains/payments/boundedcontexts/payment</title>
<path fill="none" stroke="black" d="M240,-300.26C240,-281.87 240,-259.03 240,-239.17"/>
<polygon fill="black" stroke="black" points="243.5,-239.38 240,-229.38 236.5,-239.38 243.5,-239.38"/>
<g id="a_edge11&#45;headlabel"><a xlink:title="open&#45;host&#45;service">
<text xml:space="preserve" text-anchor="middle" x="240" y="-224.87" font-family="sans-serif" font-size="10.00">OHS</text>
</a>
</g>
<g id="a_edge11&#45;taillabel"><a xlink:title="customer&#45;supplier">
<text xml:space="preserve" text-anchor="middle" x="240" y="-297.26" font-family="sans-serif" font-size="10.00">C/s</text>
</a>
</g>
</g>
<!-- #/domains/commerce/subdomains/sales/boundedcontexts/ordering&#45;&gt;#/domains/commerce/subdomains/payments/boundedcontexts/payment -->
<g id="edge12" class="edge">
<title>#/domains/commerce/subdomains/sales/boundedcontexts/ordering&#45;&gt;#/domains/commerce/subdomains/payments/boundedcontexts/payment</title>
<path fill="none" stroke="black" d="M263.2,-302.07C267.63,-282.06 268.19,-256.34 264.87,-234.9"/>
<polygon fill="black" stroke="black" points="268.35,-234.44 263,-225.3 261.48,-235.78 268.35,-234.44"/>
<g id="a_edge12&#45;headlabel"><a xlink:title="published&#45;language">
<text xml:space="preserve" text-anchor="middle" x="262.71" y="-220.81" font-family="sans-serif" font-size="10.00">PL</text>
</a>
</g>
<g id="a_edge12&#45;taillabel"><a xlink:title="conformist">
<text xml:space="preserve" text-anchor="middle" x="263.2" y="-299.07" font-family="sans-serif" font-size="10.00">C</text>
</a>
</g>
</g>
<!-- #/domains/identity&amp;access/subdomains/auth/boundedcontexts/identity -->
<g id="node6" class="node">
<title>#/domains/identity&amp;access/subdomains/auth/boundedcontexts/identity</title>
<g id="a_node6"><a xlink:title="Identity.API">
<polygon fill="white" stroke="black" points="399.32,-156.1 402.84,-156.3 406.33,-156.59 409.76,-156.98 413.13,-157.47 416.42,-158.05 419.63,-158.73 422.72,-159.5 425.71,-160.35 428.56,-161.29 431.28,-162.32 433.85,-163.43 436.27,-164.62 438.53,-165.88 440.62,-167.21 442.53,-168.61 444.26,-170.08 445.81,-171.6 447.17,-173.18 448.35,-174.82 449.34,-176.5 450.14,-178.22 450.75,-179.98 451.18,-181.77 451.42,-183.59 451.49,-185.44 451.38,-187.3 451.1,-189.17 450.66,-191.06 450.06,-192.94 449.31,-194.83 448.41,-196.7 447.38,-198.56 446.22,-200.41 444.94,-202.23 443.54,-204.02 442.03,-205.78 440.43,-207.5 438.74,-209.18 436.96,-210.82 435.11,-212.4 433.19,-213.92 431.21,-215.39 429.17,-216.79 427.09,-218.12 424.96,-219.38 422.79,-220.57 420.58,-221.68 418.35,-222.71 416.1,-223.65 413.82,-224.5 411.52,-225.27 409.21,-225.95 406.89,-226.53 404.56,-227.02 402.22,-227.41 399.88,-227.7 397.53,-227.9 395.18,-228 392.82,-228 390.47,-227.9 388.12,-227.7 385.78,-227.41 383.44,-227.02 381.11,-226.53 378.79,-225.95 376.48,-225.27 374.18,-224.5 371.9,-223.65 369.65,-222.71 367.42,-221.68 365.21,-220.57 363.04,-219.38 360.91,-218.12 358.83,-216.79 356.79,-215.39 354.81,-213.92 352.89,-212.4 351.04,-210.82 349.26,-209.18 347.57,-207.5 345.97,-205.78 344.46,-204.02 343.06,-202.23 341.78,-200.41 340.62,-198.56 339.59,-196.7 338.69,-194.83 337.94,-192.94 337.34,-191.06 336.9,-189.17 336.62,-187.3 336.51,-185.44 336.58,-183.59 336.82,-181.77 337.25,-179.98 337.86,-178.22 338.66,-176.5 339.65,-174.82 340.83,-173.18 342.19,-171.6 343.74,-170.08 345.47,-168.61 347.38,-167.21 349.47,-165.88 351.73,-164.62 354.15,-163.43 356.72,-162.32 359.44,-161.29 362.29,-160.35 365.28,-159.5 368.37,-158.73 371.58,-158.05 374.87,-157.47 378.24,-156.98 381.67,-156.59 385.16,-156.3 388.68,-156.1 392.22,-156 395.78,-156 399.32,-156.1"/>
<text xml:space="preserve" text-anchor="middle" x="394" y="-187.8" font-family="sans-serif" font-size="14.00">Identity</text>
</a>
</g>
</g>
<!-- #/domains/commerce/subdomains/sales/boundedcontexts/ordering&#45;&gt;#/domains/identity&amp;access/subdomains/auth/boundedcontexts/identity -->
<g id="edge6" class="edge">
<title>#/domains/commerce/subdomains/sales/boundedcontexts/ordering&#45;&gt;#/domains/identity&amp;access/subdomains/auth/boundedcontexts/identity</title>
<path fill="none" stroke="black" d="M282.45,-308.39C293.14,-300.99 304.32,-292.6 314,-284 331.67,-268.29 349.25,-248.83 363.41,-231.95"/>
<polygon fill="black" stroke="black" points="365.85,-234.49 369.52,-224.55 360.45,-230.03 365.85,-234.49"/>
<g id="a_edge6&#45;headlabel"><a xlink:title="open&#45;host&#45;service">
<text xml:space="preserve" text-anchor="middle" x="370.48" y="-220.39" font-family="sans-serif" font-size="10.00">OHS</text>
</a>
</g>
<g id="a_edge6&#45;taillabel"><a xlink:title="anti&#45;corruption&#45;layer">
<text xml:space="preserve" text-anchor="middle" x="282.45" y="-305.39" font-family="sans-serif" font-size="10.00">ACL</text>
</a>
</g>
</g>
<!-- #/domains/customer_experience/subdomains/promotions/boundedcontexts/marketing -->
<g id="node7" class="node">
<title>#/domains/customer_experience/subdomains/promotions/boundedcontexts/marketing</title>
<g id="a_node7"><a xlink:title="Marketing.API">
<polygon fill="white" stroke="black" points="553.32,-156.1 556.84,-156.3 560.33,-156.59 563.76,-156.98 567.13,-157.47 570.42,-158.05 573.63,-158.73 576.72,-159.5 579.71,-160.35 582.56,-161.29 585.28,-162.32 587.85,-163.43 590.27,-164.62 592.53,-165.88 594.62,-167.21 596.53,-168.61 598.26,-170.08 599.81,-171.6 601.17,-173.18 602.35,-174.82 603.34,-176.5 604.14,-178.22 604.75,-179.98 605.18,-181.77 605.42,-183.59 605.49,-185.44 605.38,-187.3 605.1,-189.17 604.66,-191.06 604.06,-192.94 603.31,-194.83 602.41,-196.7 601.38,-198.56 600.22,-200.41 598.94,-202.23 597.54,-204.02 596.03,-205.78 594.43,-207.5 592.74,-209.18 590.96,-210.82 589.11,-212.4 587.19,-213.92 585.21,-215.39 583.17,-216.79 581.09,-218.12 578.96,-219.38 576.79,-220.57 574.58,-221.68 572.35,-222.71 570.1,-223.65 567.82,-224.5 565.52,-225.27 563.21,-225.95 560.89,-226.53 558.56,-227.02 556.22,-227.41 553.88,-227.7 551.53,-227.9 549.18,-228 546.82,-228 544.47,-227.9 542.12,-227.7 539.78,-227.41 537.44,-227.02 535.11,-226.53 532.79,-225.95 530.48,-225.27 528.18,-224.5 525.9,-223.65 523.65,-222.71 521.42,-221.68 519.21,-220.57 517.04,-219.38 514.91,-218.12 512.83,-216.79 510.79,-215.39 508.81,-213.92 506.89,-212.4 505.04,-210.82 503.26,-209.18 501.57,-207.5 499.97,-205.78 498.46,-204.02 497.06,-202.23 495.78,-200.41 494.62,-198.56 493.59,-196.7 492.69,-194.83 491.94,-192.94 491.34,-191.06 490.9,-189.17 490.62,-187.3 490.51,-185.44 490.58,-183.59 490.82,-181.77 491.25,-179.98 491.86,-178.22 492.66,-176.5 493.65,-174.82 494.83,-173.18 496.19,-171.6 497.74,-170.08 499.47,-168.61 501.38,-167.21 503.47,-165.88 505.73,-164.62 508.15,-163.43 510.72,-162.32 513.44,-161.29 516.29,-160.35 519.28,-159.5 522.37,-158.73 525.58,-158.05 528.87,-157.47 532.24,-156.98 535.67,-156.59 539.16,-156.3 542.68,-156.1 546.22,-156 549.78,-156 553.32,-156.1"/>
<text xml:space="preserve" text-anchor="middle" x="548" y="-187.8" font-family="sans-serif" font-size="14.00">Marketing</text>
</a>
</g>
</g>
<!-- #/domains/commerce/subdomains/sales/boundedcontexts/ordering&#45;&gt;#/domains/customer_experience/subdomains/promotions/boundedcontexts/marketing -->
<g id="edge7" class="edge">
<title>#/domains/commerce/subdomains/sales/boundedcontexts/ordering&#45;&gt;#/domains/customer_experience/subdomains/promotions/boundedcontexts/marketing</title>
<path fill="none" stroke="black" d="M297.01,-332.05C345.45,-327.35 415.31,-315.22 468,-284 488.96,-271.58 507.33,-251.78 521.16,-233.81"/>
<polygon fill="black" stroke="black" points="523.92,-235.96 527.07,-225.84 518.3,-231.79 523.92,-235.96"/>
<g id="a_edge7&#45;headlabel"><a xlink:title="open&#45;host&#45;service">
<text xml:space="preserve" text-anchor="middle" x="527.97" y="-221.63" font-family="sans-serif" font-size="10.00">OHS</text>
</a>
</g>
<g id="a_edge7&#45;taillabel"><a xlink:title="anti&#45;corruption&#45;layer">
<text xml:space="preserve" text-anchor="middle" x="297.01" y="-329.05" font-family="sans-serif" font-size="10.00">ACL</text>
</a>
</g>
</g>
<!-- #/domains/customer_experience/subdomains/geodata/boundedcontexts/locations -->
<g id="node8" class="node">
<title>#/domains/customer_experience/subdomains/geodata/boundedcontexts/locations</title>
<g id="a_node8"><a xlink:title="Locations.API">
<polygon fill="white" stroke="black" points="704.32,-156.1 707.84,-156.3 711.33,-156.59 714.76,-156.98 718.13,-157.47 721.42,-158.05 724.63,-158.73 727.72,-159.5 730.71,-160.35 733.56,-161.29 736.28,-162.32 738.85,-163.43 741.27,-164.62 743.53,-165.88 745.62,-167.21 747.53,-168.61 749.26,-170.08 750.81,-171.6 752.17,-173.18 753.35,-174.82 754.34,-176.5 755.14,-178.22 755.75,-179.98 756.18,-181.77 756.42,-183.59 756.49,-185.44 756.38,-187.3 756.1,-189.17 755.66,-191.06 755.06,-192.94 754.31,-194.83 753.41,-196.7 752.38,-198.56 751.22,-200.41 749.94,-202.23 748.54,-204.02 747.03,-205.78 745.43,-207.5 743.74,-209.18 741.96,-210.82 740.11,-212.4 738.19,-213.92 736.21,-215.39 734.17,-216.79 732.09,-218.12 729.96,-219.38 727.79,-220.57 725.58,-221.68 723.35,-222.71 721.1,-223.65 718.82,-224.5 716.52,-225.27 714.21,-225.95 711.89,-226.53 709.56,-227.02 707.22,-227.41 704.88,-227.7 702.53,-227.9 700.18,-228 697.82,-228 695.47,-227.9 693.12,-227.7 690.78,-227.41 688.44,-227.02 686.11,-226.53 683.79,-225.95 681.48,-225.27 679.18,-224.5 676.9,-223.65 674.65,-222.71 672.42,-221.68 670.21,-220.57 668.04,-219.38 665.91,-218.12 663.83,-216.79 661.79,-215.39 659.81,-213.92 657.89,-212.4 656.04,-210.82 654.26,-209.18 652.57,-207.5 650.97,-205.78 649.46,-204.02 648.06,-202.23 646.78,-200.41 645.62,-198.56 644.59,-196.7 643.69,-194.83 642.94,-192.94 642.34,-191.06 641.9,-189.17 641.62,-187.3 641.51,-185.44 641.58,-183.59 641.82,-181.77 642.25,-179.98 642.86,-178.22 643.66,-176.5 644.65,-174.82 645.83,-173.18 647.19,-171.6 648.74,-170.08 650.47,-168.61 652.38,-167.21 654.47,-165.88 656.73,-164.62 659.15,-163.43 661.72,-162.32 664.44,-161.29 667.29,-160.35 670.28,-159.5 673.37,-158.73 676.58,-158.05 679.87,-157.47 683.24,-156.98 686.67,-156.59 690.16,-156.3 693.68,-156.1 697.22,-156 700.78,-156 704.32,-156.1"/>
<text xml:space="preserve" text-anchor="middle" x="699" y="-187.8" font-family="sans-serif" font-size="14.00">Locations</text>
</a>
</g>
</g>
<!-- #/domains/commerce/subdomains/sales/boundedcontexts/ordering&#45;&gt;#/domains/customer_experience/subdomains/geodata/boundedcontexts/locations -->
<g id="edge8" class="edge">
<title>#/domains/commerce/subdomains/sales/boundedcontexts/ordering&#45;&gt;#/domains/customer_experience/subdomains/geodata/boundedcontexts/locations</title>
<path fill="none" stroke="black" d="M297.45,-332.37C390.02,-327.29 567.34,-313.91 622,-284 643.03,-272.5 660.79,-252.78 673.93,-234.63"/>
<polygon fill="black" stroke="black" points="676.69,-236.79 679.52,-226.58 670.94,-232.8 676.69,-236.79"/>
<g id="a_edge8&#45;headlabel"><a xlink:title="open&#45;host&#45;service">
<text xml:space="preserve" text-anchor="middle" x="680.38" y="-222.33" font-family="sans-serif" font-size="10.00">OHS</text>
</a>
</g>
<g id="a_edge8&#45;taillabel"><a xlink:title="anti&#45;corruption&#45;layer">
<text xml:space="preserve" text-anchor="middle" x="297.45" y="-329.37" font-family="sans-serif" font-size="10.00">ACL</text>
</a>
</g>
</g>
<!-- #/domains/commerce/subdomains/shopping/boundedcontexts/basket&#45;&gt;#/domains/commerce/subdomains/sales/boundedcontexts/ordering -->
<g id="edge2" class="edge">
<title>#/domains/commerce/subdomains/shopping/boundedcontexts/basket&#45;&gt;#/domains/commerce/subdomains/sales/boundedcontexts/ordering</title>
<path fill="none" stroke="black" d="M98.47,-227.33C110.62,-245.24 129.13,-266.91 148,-284 157.39,-292.51 168.27,-300.75 179.33,-308.04"/>
<polygon fill="black" stroke="black" points="177.45,-310.99 187.77,-313.37 181.19,-305.07 177.45,-310.99"/>
<g id="a_edge2&#45;headlabel"><a xlink:title="published&#45;language">
<text xml:space="preserve" text-anchor="middle" x="189.05" y="-311.18" font-family="sans-serif" font-size="10.00">PL</text>
</a>
</g>
<g id="a_edge2&#45;taillabel"><a xlink:title="conformist">
<text xml:space="preserve" text-anchor="middle" x="98.47" y="-224.33" font-family="sans-serif" font-size="10.00">C</text>
</a>
</g>
</g>
<!-- #/domains/commerce/subdomains/cataloging/boundedcontexts/catalog -->
<g id="node4" class="node">
<title>#/domains/commerce/subdomains/cataloging/boundedcontexts/catalog</title>
<g id="a_node4"><a xlink:title="Catalog.API">
<polygon fill="white" stroke="black" points="94.32,-32.1 97.84,-32.3 101.33,-32.59 104.76,-32.98 108.13,-33.47 111.42,-34.05 114.63,-34.73 117.72,-35.5 120.71,-36.35 123.56,-37.29 126.28,-38.32 128.85,-39.43 131.27,-40.62 133.53,-41.88 135.62,-43.21 137.53,-44.61 139.26,-46.08 140.81,-47.6 142.17,-49.18 143.35,-50.82 144.34,-52.5 145.14,-54.22 145.75,-55.98 146.18,-57.77 146.42,-59.59 146.49,-61.44 146.38,-63.3 146.1,-65.17 145.66,-67.06 145.06,-68.94 144.31,-70.83 143.41,-72.7 142.38,-74.56 141.22,-76.41 139.94,-78.23 138.54,-80.02 137.03,-81.78 135.43,-83.5 133.74,-85.18 131.96,-86.82 130.11,-88.4 128.19,-89.92 126.21,-91.39 124.17,-92.79 122.09,-94.12 119.96,-95.38 117.79,-96.57 115.58,-97.68 113.35,-98.71 111.1,-99.65 108.82,-100.5 106.52,-101.27 104.21,-101.95 101.89,-102.53 99.56,-103.02 97.22,-103.41 94.88,-103.7 92.53,-103.9 90.18,-104 87.82,-104 85.47,-103.9 83.12,-103.7 80.78,-103.41 78.44,-103.02 76.11,-102.53 73.79,-101.95 71.48,-101.27 69.18,-100.5 66.9,-99.65 64.65,-98.71 62.42,-97.68 60.21,-96.57 58.04,-95.38 55.91,-94.12 53.83,-92.79 51.79,-91.39 49.81,-89.92 47.89,-88.4 46.04,-86.82 44.26,-85.18 42.57,-83.5 40.97,-81.78 39.46,-80.02 38.06,-78.23 36.78,-76.41 35.62,-74.56 34.59,-72.7 33.69,-70.83 32.94,-68.94 32.34,-67.06 31.9,-65.17 31.62,-63.3 31.51,-61.44 31.58,-59.59 31.82,-57.77 32.25,-55.98 32.86,-54.22 33.66,-52.5 34.65,-50.82 35.83,-49.18 37.19,-47.6 38.74,-46.08 40.47,-44.61 42.38,-43.21 44.47,-41.88 46.73,-40.62 49.15,-39.43 51.72,-38.32 54.44,-37.29 57.29,-36.35 60.28,-35.5 63.37,-34.73 66.58,-34.05 69.87,-33.47 73.24,-32.98 76.67,-32.59 80.16,-32.3 83.68,-32.1 87.22,-32 90.78,-32 94.32,-32.1"/>
<text xml:space="preserve" text-anchor="middle" x="89" y="-63.8" font-family="sans-serif" font-size="14.00">Catalog</text>
</a>
</g>
</g>
<!-- #/domains/commerce/subdomains/shopping/boundedcontexts/basket&#45;&gt;#/domains/commerce/subdomains/cataloging/boundedcontexts/catalog -->
<g id="edge5" class="edge">
<title>#/domains/commerce/subdomains/shopping/boundedcontexts/basket&#45;&gt;#/domains/commerce/subdomains/cataloging/boundedcontexts/catalog</title>
<path fill="none" stroke="black" d="M89,-156.04C89,-143.41 89,-128.94 89,-115.47"/>
<polygon fill="black" stroke="black" points="92.5,-115.48 89,-105.48 85.5,-115.48 92.5,-115.48"/>
<g id="a_edge5&#45;headlabel"><a xlink:title="published&#45;language">
<text xml:space="preserve" text-anchor="middle" x="89" y="-100.97" font-family="sans-serif" font-size="10.00">PL</text>
</a>
</g>
<g id="a_edge5&#45;taillabel"><a xlink:title="conformist">
<text xml:space="preserve" text-anchor="middle" x="89" y="-153.04" font-family="sans-serif" font-size="10.00">C</text>
</a>
</g>
</g>
<!-- #/domains/commerce/subdomains/payments/boundedcontexts/payment&#45;&gt;#/domains/commerce/subdomains/sales/boundedcontexts/ordering -->
<g id="edge3" class="edge">
<title>#/domains/commerce/subdomains/payments/boundedcontexts/payment&#45;&gt;#/domains/commerce/subdomains/sales/boundedcontexts/ordering</title>
<path fill="none" stroke="black" d="M217.29,-223.81C212.58,-243.39 211.75,-269.05 214.79,-290.78"/>
<polygon fill="black" stroke="black" points="211.33,-291.34 216.53,-300.58 218.22,-290.12 211.33,-291.34"/>
<g id="a_edge3&#45;headlabel"><a xlink:title="published&#45;language">
<text xml:space="preserve" text-anchor="middle" x="216.8" y="-299.07" font-family="sans-serif" font-size="10.00">PL</text>
</a>
</g>
<g id="a_edge3&#45;taillabel"><a xlink:title="conformist">
<text xml:space="preserve" text-anchor="middle" x="217.29" y="-220.81" font-family="sans-serif" font-size="10.00">C</text>
</a>
</g>
</g>
<!-- #/domains/integration/subdomains/edge/boundedcontexts/api_gateway -->
<g id="node5" class="node">
<title>#/domains/integration/subdomains/edge/boundedcontexts/api_gateway</title>
<g id="a_node5"><a xlink:title="Ocelot + Aggregators (Web &amp; Mobile Shopping)">
<polygon fill="white" stroke="black" points="245.32,-452.1 248.84,-452.3 252.33,-452.59 255.76,-452.98 259.13,-453.47 262.42,-454.05 265.63,-454.73 268.72,-455.5 271.71,-456.35 274.56,-457.29 277.28,-458.32 279.85,-459.43 282.27,-460.62 284.53,-461.88 286.62,-463.21 288.53,-464.61 290.26,-466.08 291.81,-467.6 293.17,-469.18 294.35,-470.82 295.34,-472.5 296.14,-474.22 296.75,-475.98 297.18,-477.77 297.42,-479.59 297.49,-481.44 297.38,-483.3 297.1,-485.17 296.66,-487.06 296.06,-488.94 295.31,-490.83 294.41,-492.7 293.38,-494.56 292.22,-496.41 290.94,-498.23 289.54,-500.02 288.03,-501.78 286.43,-503.5 284.74,-505.18 282.96,-506.82 281.11,-508.4 279.19,-509.92 277.21,-511.39 275.17,-512.79 273.09,-514.12 270.96,-515.38 268.79,-516.57 266.58,-517.68 264.35,-518.71 262.1,-519.65 259.82,-520.5 257.52,-521.27 255.21,-521.95 252.89,-522.53 250.56,-523.02 248.22,-523.41 245.88,-523.7 243.53,-523.9 241.18,-524 238.82,-524 236.47,-523.9 234.12,-523.7 231.78,-523.41 229.44,-523.02 227.11,-522.53 224.79,-521.95 222.48,-521.27 220.18,-520.5 217.9,-519.65 215.65,-518.71 213.42,-517.68 211.21,-516.57 209.04,-515.38 206.91,-514.12 204.83,-512.79 202.79,-511.39 200.81,-509.92 198.89,-508.4 197.04,-506.82 195.26,-505.18 193.57,-503.5 191.97,-501.78 190.46,-500.02 189.06,-498.23 187.78,-496.41 186.62,-494.56 185.59,-492.7 184.69,-490.83 183.94,-488.94 183.34,-487.06 182.9,-485.17 182.62,-483.3 182.51,-481.44 182.58,-479.59 182.82,-477.77 183.25,-475.98 183.86,-474.22 184.66,-472.5 185.65,-470.82 186.83,-469.18 188.19,-467.6 189.74,-466.08 191.47,-464.61 193.38,-463.21 195.47,-461.88 197.73,-460.62 200.15,-459.43 202.72,-458.32 205.44,-457.29 208.29,-456.35 211.28,-455.5 214.37,-454.73 217.58,-454.05 220.87,-453.47 224.24,-452.98 227.67,-452.59 231.16,-452.3 234.68,-452.1 238.22,-452 241.78,-452 245.32,-452.1"/>
<text xml:space="preserve" text-anchor="middle" x="240" y="-483.8" font-family="sans-serif" font-size="14.00">ApiGateway</text>
</a>
</g>
</g>
<!-- #/domains/integration/subdomains/edge/boundedcontexts/api_gateway&#45;&gt;#/domains/commerce/subdomains/sales/boundedcontexts/ordering -->
<g id="edge1" class="edge">
<title>#/domains/integration/subdomains/edge/boundedcontexts/api_gateway&#45;&gt;#/domains/commerce/subdomains/sales/boundedcontexts/ordering</title>
<path fill="none" stroke="black" d="M240,-452.21C240,-431.65 240,-405.36 240,-383.09"/>
<polygon fill="black" stroke="black" points="243.5,-383.37 240,-373.37 236.5,-383.37 243.5,-383.37"/>
<g id="a_edge1&#45;headlabel"><a xlink:title="open&#45;host&#45;service">
<text xml:space="preserve" text-anchor="middle" x="240" y="-368.86" font-family="sans-serif" font-size="10.00">OHS</text>
</a>
</g>
<g id="a_edge1&#45;taillabel"><a xlink:title="conformist">
<text xml:space="preserve" text-anchor="middle" x="240" y="-449.21" font-family="sans-serif" font-size="10.00">C</text>
</a>
</g>
</g>
<!-- #/domains/customer_experience/subdomains/webhooks/boundedcontexts/webhooks -->
<g id="node9" class="node">
<title>#/domains/customer_experience/subdomains/webhooks/boundedcontexts/webhooks</title>
<g id="a_node9"><a xlink:title="Webhooks.API">
<polygon fill="white" stroke="black" points="855.32,-156.1 858.84,-156.3 862.33,-156.59 865.76,-156.98 869.13,-157.47 872.42,-158.05 875.63,-158.73 878.72,-159.5 881.71,-160.35 884.56,-161.29 887.28,-162.32 889.85,-163.43 892.27,-164.62 894.53,-165.88 896.62,-167.21 898.53,-168.61 900.26,-170.08 901.81,-171.6 903.17,-173.18 904.35,-174.82 905.34,-176.5 906.14,-178.22 906.75,-179.98 907.18,-181.77 907.42,-183.59 907.49,-185.44 907.38,-187.3 907.1,-189.17 906.66,-191.06 906.06,-192.94 905.31,-194.83 904.41,-196.7 903.38,-198.56 902.22,-200.41 900.94,-202.23 899.54,-204.02 898.03,-205.78 896.43,-207.5 894.74,-209.18 892.96,-210.82 891.11,-212.4 889.19,-213.92 887.21,-215.39 885.17,-216.79 883.09,-218.12 880.96,-219.38 878.79,-220.57 876.58,-221.68 874.35,-222.71 872.1,-223.65 869.82,-224.5 867.52,-225.27 865.21,-225.95 862.89,-226.53 860.56,-227.02 858.22,-227.41 855.88,-227.7 853.53,-227.9 851.18,-228 848.82,-228 846.47,-227.9 844.12,-227.7 841.78,-227.41 839.44,-227.02 837.11,-226.53 834.79,-225.95 832.48,-225.27 830.18,-224.5 827.9,-223.65 825.65,-222.71 823.42,-221.68 821.21,-220.57 819.04,-219.38 816.91,-218.12 814.83,-216.79 812.79,-215.39 810.81,-213.92 808.89,-212.4 807.04,-210.82 805.26,-209.18 803.57,-207.5 801.97,-205.78 800.46,-204.02 799.06,-202.23 797.78,-200.41 796.62,-198.56 795.59,-196.7 794.69,-194.83 793.94,-192.94 793.34,-191.06 792.9,-189.17 792.62,-187.3 792.51,-185.44 792.58,-183.59 792.82,-181.77 793.25,-179.98 793.86,-178.22 794.66,-176.5 795.65,-174.82 796.83,-173.18 798.19,-171.6 799.74,-170.08 801.47,-168.61 803.38,-167.21 805.47,-165.88 807.73,-164.62 810.15,-163.43 812.72,-162.32 815.44,-161.29 818.29,-160.35 821.28,-159.5 824.37,-158.73 827.58,-158.05 830.87,-157.47 834.24,-156.98 837.67,-156.59 841.16,-156.3 844.68,-156.1 848.22,-156 851.78,-156 855.32,-156.1"/>
<text xml:space="preserve" text-anchor="middle" x="850" y="-187.8" font-family="sans-serif" font-size="14.00">Webhooks</text>
</a>
</g>
</g>
<!-- #/domains/customer_experience/subdomains/webhooks/boundedcontexts/webhooks&#45;&gt;#/domains/commerce/subdomains/sales/boundedcontexts/ordering -->
<g id="edge9" class="edge">
<title>#/domains/customer_experience/subdomains/webhooks/boundedcontexts/webhooks&#45;&gt;#/domains/commerce/subdomains/sales/boundedcontexts/ordering</title>
<path fill="none" stroke="black" d="M831.84,-225.19C818.41,-245.72 798.12,-270.86 773,-284 693.92,-325.37 433.63,-333.37 308.44,-334.79"/>
<polygon fill="black" stroke="black" points="308.6,-331.29 298.64,-334.89 308.67,-338.28 308.6,-331.29"/>
<g id="a_edge9&#45;headlabel"><a xlink:title="published&#45;language">
<text xml:space="preserve" text-anchor="middle" x="297.12" y="-331.9" font-family="sans-serif" font-size="10.00">PL</text>
</a>
</g>
<g id="a_edge9&#45;taillabel"><a xlink:title="conformist">
<text xml:space="preserve" text-anchor="middle" x="831.84" y="-222.19" font-family="sans-serif" font-size="10.00">C</text>
</a>
</g>
</g>
<!-- #/domains/customer_experience/subdomains/realtime/boundedcontexts/ordering_signal_rhub -->
<g id="node10" class="node">
<title>#/domains/customer_experience/subdomains/realtime/boundedcontexts/ordering_signal_rhub</title>
<g id="a_node10"><a xlink:title="Ordering.SignalRHub">
<polygon fill="white" stroke="black" points="1016.32,-156.1 1019.84,-156.3 1023.33,-156.59 1026.76,-156.98 1030.13,-157.47 1033.42,-158.05 1036.63,-158.73 1039.72,-159.5 1042.71,-160.35 1045.56,-161.29 1048.28,-162.32 1050.85,-163.43 1053.27,-164.62 1055.53,-165.88 1057.62,-167.21 1059.53,-168.61 1061.26,-170.08 1062.81,-171.6 1064.17,-173.18 1065.35,-174.82 1066.34,-176.5 1067.14,-178.22 1067.75,-179.98 1068.18,-181.77 1068.42,-183.59 1068.49,-185.44 1068.38,-187.3 1068.1,-189.17 1067.66,-191.06 1067.06,-192.94 1066.31,-194.83 1065.41,-196.7 1064.38,-198.56 1063.22,-200.41 1061.94,-202.23 1060.54,-204.02 1059.03,-205.78 1057.43,-207.5 1055.74,-209.18 1053.96,-210.82 1052.11,-212.4 1050.19,-213.92 1048.21,-215.39 1046.17,-216.79 1044.09,-218.12 1041.96,-219.38 1039.79,-220.57 1037.58,-221.68 1035.35,-222.71 1033.1,-223.65 1030.82,-224.5 1028.52,-225.27 1026.21,-225.95 1023.89,-226.53 1021.56,-227.02 1019.22,-227.41 1016.88,-227.7 1014.53,-227.9 1012.18,-228 1009.82,-228 1007.47,-227.9 1005.12,-227.7 1002.78,-227.41 1000.44,-227.02 998.11,-226.53 995.79,-225.95 993.48,-225.27 991.18,-224.5 988.9,-223.65 986.65,-222.71 984.42,-221.68 982.21,-220.57 980.04,-219.38 977.91,-218.12 975.83,-216.79 973.79,-215.39 971.81,-213.92 969.89,-212.4 968.04,-210.82 966.26,-209.18 964.57,-207.5 962.97,-205.78 961.46,-204.02 960.06,-202.23 958.78,-200.41 957.62,-198.56 956.59,-196.7 955.69,-194.83 954.94,-192.94 954.34,-191.06 953.9,-189.17 953.62,-187.3 953.51,-185.44 953.58,-183.59 953.82,-181.77 954.25,-179.98 954.86,-178.22 955.66,-176.5 956.65,-174.82 957.83,-173.18 959.19,-171.6 960.74,-170.08 962.47,-168.61 964.38,-167.21 966.47,-165.88 968.73,-164.62 971.15,-163.43 973.72,-162.32 976.44,-161.29 979.29,-160.35 982.28,-159.5 985.37,-158.73 988.58,-158.05 991.87,-157.47 995.24,-156.98 998.67,-156.59 1002.16,-156.3 1005.68,-156.1 1009.22,-156 1012.78,-156 1016.32,-156.1"/>
<text xml:space="preserve" text-anchor="middle" x="1011" y="-187.8" font-family="sans-serif" font-size="14.00">OrderingSignalRHub</text>
</a>
</g>
</g>
<!-- #/domains/customer_experience/subdomains/realtime/boundedcontexts/ordering_signal_rhub&#45;&gt;#/domains/commerce/subdomains/sales/boundedcontexts/ordering -->
<g id="edge10" class="edge">
<title>#/domains/customer_experience/subdomains/realtime/boundedcontexts/ordering_signal_rhub&#45;&gt;#/domains/commerce/subdomains/sales/boundedcontexts/ordering</title>
<path fill="none" stroke="black" d="M990.31,-224.52C974.76,-245.31 951.47,-271.03 924,-284 869.32,-309.82 470.78,-326.77 308.49,-332.68"/>
<polygon fill="black" stroke="black" points="308.6,-329.17 298.73,-333.03 308.85,-336.17 308.6,-329.17"/>
<g id="a_edge10&#45;headlabel"><a xlink:title="published&#45;language">
<text xml:space="preserve" text-anchor="middle" x="297.22" y="-330.08" font-family="sans-serif" font-size="10.00">PL</text>
</a>
</g>
<g id="a_edge10&#45;taillabel"><a xlink:title="conformist">
<text xml:space="preserve" text-anchor="middle" x="990.31" y="-221.52" font-family="sans-serif" font-size="10.00">C</text>
</a>
</g>
</g>
</g>
</svg>
