<?xml version="1.0" encoding="UTF-8" standalone="no"?>
<?xml-stylesheet href="data:text/css,.graph%20text%20%7B%0A%09font-family%3A%20sans-serif%3B%0A%09stroke%3A%20white%3B%0A%09paint-order%3A%20stroke%3B%0A%09stroke-width%3A%203%3B%0A%09stroke-linecap%3A%20square%3B%0A%7D%0A%0A.namespace%20polygon%20%7B%0A%09fill-opacity%3A%200.2%3B%0A%09stroke%3A%20none%3B%0A%7D%0A" type="text/css"?>
<!DOCTYPE svg PUBLIC "-//W3C//DTD SVG 1.1//EN"
 "http://www.w3.org/Graphics/SVG/1.1/DTD/svg11.dtd">
<!-- Generated by graphviz version 13.1.2 (0)
 -->
<!-- Pages: 1 -->
<svg width="918pt" height="504pt"
 viewBox="0.00 0.00 918.00 504.00" xmlns="http://www.w3.org/2000/svg" xmlns:xlink="http://www.w3.org/1999/xlink">
<g id="graph0" class="graph" transform="scale(1 1) rotate(0) translate(4 500)">
<polygon fill="white" stroke="none" points="-4,4 -4,-500 914,-500 914,4 -4,4"/>
<g id="clust1" class="cluster namespace">
<title>e_shop_on_containers</title>
<polygon fill="lightgrey" stroke="lightgrey" points="8,-8 8,-488 902,-488 902,-8 8,-8"/>
<text xml:space="preserve" text-anchor="middle" x="455" y="-475" font-family="sans-serif" font-size="10.00">eShopOnContainers</text>
</g>
<g id="clust2" class="cluster namespace">
<title>#/domains/commerce</title>
<polygon fill="lightgrey" stroke="lightgrey" points="28,-28 28,-448 298,-448 298,-28 28,-28"/>
<text xml:space="preserve" text-anchor="middle" x="163" y="-435" font-family="sans-serif" font-size="10.00">Commerce</text>
</g>
<g id="clust3" class="cluster namespace">
<title>#/domains/commerce/subdomains/cataloging</title>
<polygon fill="lightgrey" stroke="lightgrey" points="48,-48 48,-204 278,-204 278,-48 48,-48"/>
<text xml:space="preserve" text-anchor="middle" x="163" y="-191" font-family="sans-serif" font-size="10.00">Cataloging</text>
</g>
<g id="clust4" class="cluster namespace">
<title>#/domains/commerce/subdomains/cataloging/boundedcontexts/catalog</title>
<polygon fill="lightgrey" stroke="lightgrey" points="68,-68 68,-164 258,-164 258,-68 68,-68"/>
<text xml:space="preserve" text-anchor="middle" x="163" y="-151" font-family="sans-serif" font-size="10.00">Catalog</text>
</g>
<g id="clust5" class="cluster namespace">
<title>#/domains/commerce/subdomains/shopping</title>
<polygon fill="lightgrey" stroke="lightgrey" points="52,-252 52,-408 274,-408 274,-252 52,-252"/>
<text xml:space="preserve" text-anchor="middle" x="163" y="-395" font-family="sans-serif" font-size="10.00">Shopping</text>
</g>
<g id="clust6" class="cluster namespace">
<title>#/domains/commerce/subdomains/shopping/boundedcontexts/basket</title>
<polygon fill="lightgrey" stroke="lightgrey" points="72,-272 72,-368 254,-368 254,-272 72,-272"/>
<text xml:space="preserve" text-anchor="middle" x="163" y="-355" font-family="sans-serif" font-size="10.00">Basket</text>
</g>
<g id="clust7" class="cluster namespace">
<title>#/domains/integration</title>
<polygon fill="lightgrey" stroke="lightgrey" points="318,-232 318,-448 882,-448 882,-232 318,-232"/>
<text xml:space="preserve" text-anchor="middle" x="600" y="-435" font-family="sans-serif" font-size="10.00">Integration</text>
</g>
<g id="clust8" class="cluster namespace">
<title>#/domains/integration/subdomains/edge</title>
<polygon fill="lightgrey" stroke="lightgrey" points="338,-252 338,-408 862,-408 862,-252 338,-252"/>
<text xml:space="preserve" text-anchor="middle" x="600" y="-395" font-family="sans-serif" font-size="10.00">Edge</text>
</g>
<g id="clust9" class="cluster namespace">
<title>#/domains/integration/subdomains/edge/boundedcontexts/api_gateway</title>
<polygon fill="lightgrey" stroke="lightgrey" points="358,-272 358,-368 842,-368 842,-272 358,-272"/>
<text xml:space="preserve" text-anchor="middle" x="600" y="-355" font-family="sans-serif" font-size="10.00">ApiGateway</text>
</g>
<!-- #/domains/commerce/subdomains/cataloging/boundedcontexts/catalog/services/catalog_service -->
<g id="node1" class="node">
<title>#/domains/commerce/subdomains/cataloging/boundedcontexts/catalog/services/catalog_service</title>
<g id="a_node1"><a xlink:title="Queries, pricing updates, stock">
<polygon fill="white" stroke="black" points="169.9,-88.05 174.47,-88.15 178.99,-88.3 183.45,-88.49 187.82,-88.74 192.09,-89.03 196.24,-89.36 200.26,-89.75 204.13,-90.18 207.84,-90.65 211.37,-91.16 214.7,-91.71 217.84,-92.31 220.77,-92.94 223.48,-93.61 225.96,-94.31 228.2,-95.04 230.21,-95.8 231.98,-96.59 233.51,-97.41 234.79,-98.25 235.83,-99.11 236.62,-99.99 237.17,-100.89 237.49,-101.8 237.58,-102.72 237.44,-103.65 237.08,-104.59 236.5,-105.53 235.72,-106.47 234.75,-107.41 233.59,-108.35 232.25,-109.28 230.74,-110.2 229.08,-111.11 227.27,-112.01 225.32,-112.89 223.24,-113.75 221.04,-114.59 218.74,-115.41 216.34,-116.2 213.84,-116.96 211.27,-117.69 208.63,-118.39 205.92,-119.06 203.16,-119.69 200.34,-120.29 197.49,-120.84 194.59,-121.35 191.66,-121.82 188.71,-122.25 185.73,-122.64 182.74,-122.97 179.72,-123.26 176.7,-123.51 173.66,-123.7 170.62,-123.85 167.58,-123.95 164.53,-124 161.47,-124 158.42,-123.95 155.38,-123.85 152.34,-123.7 149.3,-123.51 146.28,-123.26 143.26,-122.97 140.27,-122.64 137.29,-122.25 134.34,-121.82 131.41,-121.35 128.51,-120.84 125.66,-120.29 122.84,-119.69 120.08,-119.06 117.37,-118.39 114.73,-117.69 112.16,-116.96 109.66,-116.2 107.26,-115.41 104.96,-114.59 102.76,-113.75 100.68,-112.89 98.73,-112.01 96.92,-111.11 95.26,-110.2 93.75,-109.28 92.41,-108.35 91.25,-107.41 90.28,-106.47 89.5,-105.53 88.92,-104.59 88.56,-103.65 88.42,-102.72 88.51,-101.8 88.83,-100.89 89.38,-99.99 90.17,-99.11 91.21,-98.25 92.49,-97.41 94.02,-96.59 95.79,-95.8 97.8,-95.04 100.04,-94.31 102.52,-93.61 105.23,-92.94 108.16,-92.31 111.3,-91.71 114.63,-91.16 118.16,-90.65 121.87,-90.18 125.74,-89.75 129.76,-89.36 133.91,-89.03 138.18,-88.74 142.55,-88.49 147.01,-88.3 151.53,-88.15 156.1,-88.05 160.7,-88 165.3,-88 169.9,-88.05"/>
<text xml:space="preserve" text-anchor="middle" x="163" y="-101.8" font-family="sans-serif" font-size="14.00">CatalogService</text>
</a>
</g>
</g>
<!-- #/domains/commerce/subdomains/shopping/boundedcontexts/basket/services/basket_service -->
<g id="node2" class="node">
<title>#/domains/commerce/subdomains/shopping/boundedcontexts/basket/services/basket_service</title>
<g id="a_node2"><a xlink:title="Basket.API (Redis)">
<polygon fill="white" stroke="black" points="169.53,-292.05 173.86,-292.15 178.13,-292.3 182.35,-292.49 186.49,-292.74 190.53,-293.03 194.46,-293.36 198.27,-293.75 201.93,-294.18 205.43,-294.65 208.77,-295.16 211.93,-295.71 214.9,-296.31 217.67,-296.94 220.23,-297.61 222.58,-298.31 224.71,-299.04 226.61,-299.8 228.29,-300.59 229.73,-301.41 230.94,-302.25 231.92,-303.11 232.67,-303.99 233.2,-304.89 233.5,-305.8 233.58,-306.72 233.45,-307.65 233.11,-308.59 232.56,-309.53 231.83,-310.47 230.9,-311.41 229.81,-312.35 228.54,-313.28 227.11,-314.2 225.54,-315.11 223.82,-316.01 221.98,-316.89 220.01,-317.75 217.93,-318.59 215.75,-319.41 213.48,-320.2 211.12,-320.96 208.69,-321.69 206.18,-322.39 203.62,-323.06 201.01,-323.69 198.34,-324.29 195.64,-324.84 192.9,-325.35 190.13,-325.82 187.33,-326.25 184.51,-326.64 181.68,-326.97 178.83,-327.26 175.97,-327.51 173.09,-327.7 170.21,-327.85 167.33,-327.95 164.44,-328 161.56,-328 158.67,-327.95 155.79,-327.85 152.91,-327.7 150.03,-327.51 147.17,-327.26 144.32,-326.97 141.49,-326.64 138.67,-326.25 135.87,-325.82 133.1,-325.35 130.36,-324.84 127.66,-324.29 124.99,-323.69 122.38,-323.06 119.82,-322.39 117.31,-321.69 114.88,-320.96 112.52,-320.2 110.25,-319.41 108.07,-318.59 105.99,-317.75 104.02,-316.89 102.18,-316.01 100.46,-315.11 98.89,-314.2 97.46,-313.28 96.19,-312.35 95.1,-311.41 94.17,-310.47 93.44,-309.53 92.89,-308.59 92.55,-307.65 92.42,-306.72 92.5,-305.8 92.8,-304.89 93.33,-303.99 94.08,-303.11 95.06,-302.25 96.27,-301.41 97.71,-300.59 99.39,-299.8 101.29,-299.04 103.42,-298.31 105.77,-297.61 108.33,-296.94 111.1,-296.31 114.07,-295.71 117.23,-295.16 120.57,-294.65 124.07,-294.18 127.73,-293.75 131.54,-293.36 135.47,-293.03 139.51,-292.74 143.65,-292.49 147.87,-292.3 152.14,-292.15 156.47,-292.05 160.82,-292 165.18,-292 169.53,-292.05"/>
<text xml:space="preserve" text-anchor="middle" x="163" y="-305.8" font-family="sans-serif" font-size="14.00">BasketService</text>
</a>
</g>
</g>
<!-- #/domains/commerce/subdomains/shopping/boundedcontexts/basket/services/basket_service&#45;&gt;#/domains/commerce/subdomains/cataloging/boundedcontexts/catalog/services/catalog_service -->
<g id="edge3" class="edge">
<title>#/domains/commerce/subdomains/shopping/boundedcontexts/basket/services/basket_service&#45;&gt;#/domains/commerce/subdomains/cataloging/boundedcontexts/catalog/services/catalog_service</title>
<path fill="none" stroke="black" d="M163,-291.78C163,-257.06 163,-178.34 163,-135.71"/>
<polygon fill="black" stroke="black" points="166.5,-135.98 163,-125.98 159.5,-135.98 166.5,-135.98"/>
<text xml:space="preserve" text-anchor="middle" x="206.6" y="-215" font-family="sans-serif" font-size="10.00">ProductPriceChanged</text>
<g id="a_edge3&#45;headlabel"><a xlink:title="published&#45;language">
<text xml:space="preserve" text-anchor="middle" x="163" y="-121.47" font-family="sans-serif" font-size="10.00">PL</text>
</a>
</g>
<g id="a_edge3&#45;taillabel"><a xlink:title="conformist">
<text xml:space="preserve" text-anchor="middle" x="163" y="-288.78" font-family="sans-serif" font-size="10.00">C</text>
</a>
</g>
</g>
<!-- #/domains/integration/subdomains/edge/boundedcontexts/api_gateway/services/ocelot_gateway -->
<g id="node3" class="node">
<title>#/domains/integration/subdomains/edge/boundedcontexts/api_gateway/services/ocelot_gateway</title>
<g id="a_node3"><a xlink:title="Ocelot + Aggregators (Web &amp; Mobile Shopping)">
<polygon fill="white" stroke="black" points="461.01,-292.05 465.64,-292.15 470.24,-292.3 474.76,-292.49 479.2,-292.74 483.53,-293.03 487.75,-293.36 491.83,-293.75 495.76,-294.18 499.52,-294.65 503.1,-295.16 506.49,-295.71 509.68,-296.31 512.65,-296.94 515.4,-297.61 517.91,-298.31 520.2,-299.04 522.24,-299.8 524.03,-300.59 525.58,-301.41 526.88,-302.25 527.93,-303.11 528.74,-303.99 529.3,-304.89 529.63,-305.8 529.71,-306.72 529.57,-307.65 529.2,-308.59 528.62,-309.53 527.83,-310.47 526.84,-311.41 525.66,-312.35 524.3,-313.28 522.77,-314.2 521.08,-315.11 519.24,-316.01 517.26,-316.89 515.15,-317.75 512.92,-318.59 510.59,-319.41 508.15,-320.2 505.62,-320.96 503.01,-321.69 500.32,-322.39 497.58,-323.06 494.77,-323.69 491.91,-324.29 489.01,-324.84 486.07,-325.35 483.1,-325.82 480.1,-326.25 477.08,-326.64 474.04,-326.97 470.98,-327.26 467.91,-327.51 464.83,-327.7 461.74,-327.85 458.65,-327.95 455.55,-328 452.45,-328 449.35,-327.95 446.26,-327.85 443.17,-327.7 440.09,-327.51 437.02,-327.26 433.96,-326.97 430.92,-326.64 427.9,-326.25 424.9,-325.82 421.93,-325.35 418.99,-324.84 416.09,-324.29 413.23,-323.69 410.42,-323.06 407.68,-322.39 404.99,-321.69 402.38,-320.96 399.85,-320.2 397.41,-319.41 395.08,-318.59 392.85,-317.75 390.74,-316.89 388.76,-316.01 386.92,-315.11 385.23,-314.2 383.7,-313.28 382.34,-312.35 381.16,-311.41 380.17,-310.47 379.38,-309.53 378.8,-308.59 378.43,-307.65 378.29,-306.72 378.37,-305.8 378.7,-304.89 379.26,-303.99 380.07,-303.11 381.12,-302.25 382.42,-301.41 383.97,-300.59 385.76,-299.8 387.8,-299.04 390.09,-298.31 392.6,-297.61 395.35,-296.94 398.32,-296.31 401.51,-295.71 404.9,-295.16 408.48,-294.65 412.24,-294.18 416.17,-293.75 420.25,-293.36 424.47,-293.03 428.8,-292.74 433.24,-292.49 437.76,-292.3 442.36,-292.15 446.99,-292.05 451.66,-292 456.34,-292 461.01,-292.05"/>
<text xml:space="preserve" text-anchor="middle" x="454" y="-305.8" font-family="sans-serif" font-size="14.00">OcelotGateway</text>
</a>
</g>
</g>
<!-- #/domains/integration/subdomains/edge/boundedcontexts/api_gateway/services/ocelot_gateway&#45;&gt;#/domains/commerce/subdomains/cataloging/boundedcontexts/catalog/services/catalog_service -->
<g id="edge1" class="edge">
<title>#/domains/integration/subdomains/edge/boundedcontexts/api_gateway/services/ocelot_gateway&#45;&gt;#/domains/commerce/subdomains/cataloging/boundedcontexts/catalog/services/catalog_service</title>
<path fill="none" stroke="black" d="M430.19,-292.47C378.11,-256.32 254.06,-170.21 195.14,-129.31"/>
<polygon fill="black" stroke="black" points="197.38,-126.61 187.17,-123.78 193.39,-132.36 197.38,-126.61"/>
<text xml:space="preserve" text-anchor="middle" x="348.7" y="-215" font-family="sans-serif" font-size="10.00">GetProduct</text>
<g id="a_edge1&#45;headlabel"><a xlink:title="open&#45;host&#45;service">
<text xml:space="preserve" text-anchor="middle" x="185.93" y="-119.92" font-family="sans-serif" font-size="10.00">OHS</text>
</a>
</g>
<g id="a_edge1&#45;taillabel"><a xlink:title="conformist">
<text xml:space="preserve" text-anchor="middle" x="430.19" y="-289.47" font-family="sans-serif" font-size="10.00">C</text>
</a>
</g>
</g>
<!-- #/domains/integration/subdomains/edge/boundedcontexts/api_gateway/services/web_shopping_aggregator -->
<g id="node4" class="node">
<title>#/domains/integration/subdomains/edge/boundedcontexts/api_gateway/services/web_shopping_aggregator</title>
<g id="a_node4"><a xlink:title="Ocelot + Aggregators (Web &amp; Mobile Shopping)">
<polygon fill="white" stroke="black" points="715.87,-292.05 723.06,-292.15 730.18,-292.3 737.2,-292.49 744.08,-292.74 750.81,-293.03 757.35,-293.36 763.67,-293.75 769.76,-294.18 775.6,-294.65 781.15,-295.16 786.41,-295.71 791.35,-296.31 795.96,-296.94 800.22,-297.61 804.13,-298.31 807.67,-299.04 810.83,-299.8 813.62,-300.59 816.02,-301.41 818.04,-302.25 819.67,-303.11 820.92,-303.99 821.79,-304.89 822.29,-305.8 822.43,-306.72 822.2,-307.65 821.64,-308.59 820.73,-309.53 819.51,-310.47 817.97,-311.41 816.15,-312.35 814.04,-313.28 811.66,-314.2 809.04,-315.11 806.19,-316.01 803.12,-316.89 799.85,-317.75 796.39,-318.59 792.76,-319.41 788.98,-320.2 785.06,-320.96 781.01,-321.69 776.85,-322.39 772.58,-323.06 768.23,-323.69 763.8,-324.29 759.3,-324.84 754.74,-325.35 750.13,-325.82 745.48,-326.25 740.79,-326.64 736.08,-326.97 731.33,-327.26 726.57,-327.51 721.79,-327.7 717,-327.85 712.2,-327.95 707.4,-328 702.6,-328 697.8,-327.95 693,-327.85 688.21,-327.7 683.43,-327.51 678.67,-327.26 673.92,-326.97 669.21,-326.64 664.52,-326.25 659.87,-325.82 655.26,-325.35 650.7,-324.84 646.2,-324.29 641.77,-323.69 637.42,-323.06 633.15,-322.39 628.99,-321.69 624.94,-320.96 621.02,-320.2 617.24,-319.41 613.61,-318.59 610.15,-317.75 606.88,-316.89 603.81,-316.01 600.96,-315.11 598.34,-314.2 595.96,-313.28 593.85,-312.35 592.03,-311.41 590.49,-310.47 589.27,-309.53 588.36,-308.59 587.8,-307.65 587.57,-306.72 587.71,-305.8 588.21,-304.89 589.08,-303.99 590.33,-303.11 591.96,-302.25 593.98,-301.41 596.38,-300.59 599.17,-299.8 602.33,-299.04 605.87,-298.31 609.78,-297.61 614.04,-296.94 618.65,-296.31 623.59,-295.71 628.85,-295.16 634.4,-294.65 640.24,-294.18 646.33,-293.75 652.65,-293.36 659.19,-293.03 665.92,-292.74 672.8,-292.49 679.82,-292.3 686.94,-292.15 694.13,-292.05 701.37,-292 708.63,-292 715.87,-292.05"/>
<text xml:space="preserve" text-anchor="middle" x="705" y="-305.8" font-family="sans-serif" font-size="14.00">WebShoppingAggregator</text>
</a>
</g>
</g>
<!-- #/domains/integration/subdomains/edge/boundedcontexts/api_gateway/services/web_shopping_aggregator&#45;&gt;#/domains/commerce/subdomains/cataloging/boundedcontexts/catalog/services/catalog_service -->
<g id="edge2" class="edge">
<title>#/domains/integration/subdomains/edge/boundedcontexts/api_gateway/services/web_shopping_aggregator&#45;&gt;#/domains/commerce/subdomains/cataloging/boundedcontexts/catalog/services/catalog_service</title>
<path fill="none" stroke="black" d="M676.38,-291.93C647.47,-275.17 601.18,-249.61 559,-232 441.69,-183.02 298.11,-142.21 220.11,-121.55"/>
<polygon fill="black" stroke="black" points="221.11,-118.2 210.55,-119.04 219.33,-124.97 221.11,-118.2"/>
<text xml:space="preserve" text-anchor="middle" x="569.42" y="-215" font-family="sans-serif" font-size="10.00">SearchProducts</text>
<g id="a_edge2&#45;headlabel"><a xlink:title="open&#45;host&#45;service">
<text xml:space="preserve" text-anchor="middle" x="209.08" y="-115.65" font-family="sans-serif" font-size="10.00">OHS</text>
</a>
</g>
<g id="a_edge2&#45;taillabel"><a xlink:title="conformist">
<text xml:space="preserve" text-anchor="middle" x="676.38" y="-288.93" font-family="sans-serif" font-size="10.00">C</text>
</a>
</g>
</g>
</g>
</svg>
