<?xml version="1.0" encoding="UTF-8" standalone="no"?>
<?xml-stylesheet href="data:text/css,.graph%20text%20%7B%0A%09font-family%3A%20sans-serif%3B%0A%09stroke%3A%20white%3B%0A%09paint-order%3A%20stroke%3B%0A%09stroke-width%3A%203%3B%0A%09stroke-linecap%3A%20square%3B%0A%7D%0A%0A.namespace%20polygon%20%7B%0A%09fill-opacity%3A%200.2%3B%0A%09stroke%3A%20none%3B%0A%7D%0A" type="text/css"?>
<!DOCTYPE svg PUBLIC "-//W3C//DTD SVG 1.1//EN"
 "http://www.w3.org/Graphics/SVG/1.1/DTD/svg11.dtd">
<!-- Generated by graphviz version 13.1.2 (0)
 -->
<!-- Pages: 1 -->
<svg width="408pt" height="1056pt"
 viewBox="0.00 0.00 408.00 1056.00" xmlns="http://www.w3.org/2000/svg" xmlns:xlink="http://www.w3.org/1999/xlink">
<g id="graph0" class="graph" transform="scale(1 1) rotate(0) translate(4 1052)">
<polygon fill="white" stroke="none" points="-4,4 -4,-1052 404,-1052 404,4 -4,4"/>
<g id="clust1" class="cluster namespace">
<title>e_shop</title>
<polygon fill="lightgrey" stroke="lightgrey" points="8,-8 8,-1040 392,-1040 392,-8 8,-8"/>
<text xml:space="preserve" text-anchor="middle" x="200" y="-1027" font-family="sans-serif" font-size="10.00">eShop</text>
</g>
<g id="clust2" class="cluster namespace">
<title>#/domains/api_integration</title>
<polygon fill="lightgrey" stroke="lightgrey" points="28,-588 28,-1000 372,-1000 372,-588 28,-588"/>
<text xml:space="preserve" text-anchor="middle" x="200" y="-987" font-family="sans-serif" font-size="10.00">API Integration</text>
</g>
<g id="clust3" class="cluster namespace">
<title>#/domains/api_integration/subdomains/webhooks</title>
<polygon fill="lightgrey" stroke="lightgrey" points="48,-608 48,-960 352,-960 352,-608 48,-608"/>
<text xml:space="preserve" text-anchor="middle" x="200" y="-947" font-family="sans-serif" font-size="10.00">Webhooks</text>
</g>
<g id="clust4" class="cluster namespace">
<title>#/domains/api_integration/subdomains/webhooks/boundedcontexts/webhook_client</title>
<polygon fill="lightgrey" stroke="lightgrey" points="112,-788 112,-920 288,-920 288,-788 112,-788"/>
<text xml:space="preserve" text-anchor="middle" x="200" y="-907" font-family="sans-serif" font-size="10.00">WebhookClient</text>
</g>
<g id="clust5" class="cluster namespace">
<title>#/domains/api_integration/subdomains/webhooks/boundedcontexts/webhooks</title>
<polygon fill="lightgrey" stroke="lightgrey" points="113,-628 113,-760 287,-760 287,-628 113,-628"/>
<text xml:space="preserve" text-anchor="middle" x="200" y="-747" font-family="sans-serif" font-size="10.00">Webhooks</text>
</g>
<g id="clust6" class="cluster namespace">
<title>#/domains/commerce</title>
<polygon fill="lightgrey" stroke="lightgrey" points="78,-308 78,-560 322,-560 322,-308 78,-308"/>
<text xml:space="preserve" text-anchor="middle" x="200" y="-547" font-family="sans-serif" font-size="10.00">Commerce</text>
</g>
<g id="clust7" class="cluster namespace">
<title>#/domains/commerce/subdomains/ordering</title>
<polygon fill="lightgrey" stroke="lightgrey" points="98,-328 98,-520 302,-520 302,-328 98,-328"/>
<text xml:space="preserve" text-anchor="middle" x="200" y="-507" font-family="sans-serif" font-size="10.00">Ordering</text>
</g>
<g id="clust8" class="cluster namespace">
<title>#/domains/commerce/subdomains/ordering/boundedcontexts/ordering</title>
<polygon fill="lightgrey" stroke="lightgrey" points="118,-348 118,-480 282,-480 282,-348 118,-348"/>
<text xml:space="preserve" text-anchor="middle" x="200" y="-467" font-family="sans-serif" font-size="10.00">Ordering</text>
</g>
<g id="clust9" class="cluster namespace">
<title>#/domains/payment_processing</title>
<polygon fill="lightgrey" stroke="lightgrey" points="76,-28 76,-280 318,-280 318,-28 76,-28"/>
<text xml:space="preserve" text-anchor="middle" x="197" y="-267" font-family="sans-serif" font-size="10.00">Payment Processing</text>
</g>
<g id="clust10" class="cluster namespace">
<title>#/domains/payment_processing/subdomains/payment_processors</title>
<polygon fill="lightgrey" stroke="lightgrey" points="96,-48 96,-240 298,-240 298,-48 96,-48"/>
<text xml:space="preserve" text-anchor="middle" x="197" y="-227" font-family="sans-serif" font-size="10.00">Payment Processors</text>
</g>
<g id="clust11" class="cluster namespace">
<title>#/domains/payment_processing/subdomains/payment_processors/boundedcontexts/payment_processor</title>
<polygon fill="lightgrey" stroke="lightgrey" points="116,-68 116,-200 278,-200 278,-68 116,-68"/>
<text xml:space="preserve" text-anchor="middle" x="197" y="-187" font-family="sans-serif" font-size="10.00">PaymentProcessor</text>
</g>
<!-- #/domains/api_integration/subdomains/webhooks/boundedcontexts/webhook_client/services/webhook_receiver -->
<g id="node1" class="node">
<title>#/domains/api_integration/subdomains/webhooks/boundedcontexts/webhook_client/services/webhook_receiver</title>
<g id="a_node1"><a xlink:title="Receives webhook POSTs.">
<polygon fill="white" stroke="black" points="206.31,-808.1 210.48,-808.3 214.62,-808.59 218.69,-808.98 222.68,-809.47 226.59,-810.05 230.38,-810.73 234.06,-811.5 237.59,-812.35 240.98,-813.29 244.2,-814.32 247.25,-815.43 250.12,-816.62 252.8,-817.88 255.27,-819.21 257.54,-820.61 259.59,-822.08 261.43,-823.6 263.05,-825.18 264.44,-826.82 265.61,-828.5 266.56,-830.22 267.29,-831.98 267.79,-833.77 268.08,-835.59 268.16,-837.44 268.03,-839.3 267.7,-841.17 267.18,-843.06 266.47,-844.94 265.58,-846.83 264.51,-848.7 263.29,-850.56 261.91,-852.41 260.39,-854.23 258.73,-856.02 256.95,-857.78 255.05,-859.5 253.05,-861.18 250.94,-862.82 248.75,-864.4 246.47,-865.92 244.12,-867.39 241.7,-868.79 239.23,-870.12 236.7,-871.38 234.13,-872.57 231.52,-873.68 228.87,-874.71 226.2,-875.65 223.5,-876.5 220.78,-877.27 218.04,-877.95 215.28,-878.53 212.52,-879.02 209.75,-879.41 206.97,-879.7 204.18,-879.9 201.39,-880 198.61,-880 195.82,-879.9 193.03,-879.7 190.25,-879.41 187.48,-879.02 184.72,-878.53 181.96,-877.95 179.22,-877.27 176.5,-876.5 173.8,-875.65 171.13,-874.71 168.48,-873.68 165.87,-872.57 163.3,-871.38 160.77,-870.12 158.3,-868.79 155.88,-867.39 153.53,-865.92 151.25,-864.4 149.06,-862.82 146.95,-861.18 144.95,-859.5 143.05,-857.78 141.27,-856.02 139.61,-854.23 138.09,-852.41 136.71,-850.56 135.49,-848.7 134.42,-846.83 133.53,-844.94 132.82,-843.06 132.3,-841.17 131.97,-839.3 131.84,-837.44 131.92,-835.59 132.21,-833.77 132.71,-831.98 133.44,-830.22 134.39,-828.5 135.56,-826.82 136.95,-825.18 138.57,-823.6 140.41,-822.08 142.46,-820.61 144.73,-819.21 147.2,-817.88 149.88,-816.62 152.75,-815.43 155.8,-814.32 159.02,-813.29 162.41,-812.35 165.94,-811.5 169.62,-810.73 173.41,-810.05 177.32,-809.47 181.31,-808.98 185.38,-808.59 189.52,-808.3 193.69,-808.1 197.89,-808 202.11,-808 206.31,-808.1"/>
<text xml:space="preserve" text-anchor="middle" x="200" y="-839.8" font-family="sans-serif" font-size="14.00">WebhookReceiver</text>
</a>
</g>
</g>
<!-- #/domains/api_integration/subdomains/webhooks/boundedcontexts/webhooks/services/webhooks_service -->
<g id="node2" class="node">
<title>#/domains/api_integration/subdomains/webhooks/boundedcontexts/webhooks/services/webhooks_service</title>
<g id="a_node2"><a xlink:title="Register webhooks and deliver order events to subscribers.">
<polygon fill="white" stroke="black" points="206.19,-648.1 210.28,-648.3 214.33,-648.59 218.33,-648.98 222.25,-649.47 226.08,-650.05 229.8,-650.73 233.4,-651.5 236.87,-652.35 240.19,-653.29 243.35,-654.32 246.34,-655.43 249.15,-656.62 251.78,-657.88 254.2,-659.21 256.43,-660.61 258.44,-662.08 260.25,-663.6 261.83,-665.18 263.2,-666.82 264.35,-668.5 265.28,-670.22 265.99,-671.98 266.48,-673.77 266.77,-675.59 266.84,-677.44 266.72,-679.3 266.4,-681.17 265.88,-683.06 265.18,-684.94 264.31,-686.83 263.27,-688.7 262.07,-690.56 260.72,-692.41 259.23,-694.23 257.6,-696.02 255.85,-697.78 253.99,-699.5 252.02,-701.18 249.96,-702.82 247.81,-704.4 245.57,-705.92 243.27,-707.39 240.9,-708.79 238.47,-710.12 235.99,-711.38 233.47,-712.57 230.91,-713.68 228.32,-714.71 225.69,-715.65 223.04,-716.5 220.38,-717.27 217.69,-717.95 214.99,-718.53 212.28,-719.02 209.56,-719.41 206.83,-719.7 204.1,-719.9 201.37,-720 198.63,-720 195.9,-719.9 193.17,-719.7 190.44,-719.41 187.72,-719.02 185.01,-718.53 182.31,-717.95 179.62,-717.27 176.96,-716.5 174.31,-715.65 171.68,-714.71 169.09,-713.68 166.53,-712.57 164.01,-711.38 161.53,-710.12 159.1,-708.79 156.73,-707.39 154.43,-705.92 152.19,-704.4 150.04,-702.82 147.98,-701.18 146.01,-699.5 144.15,-697.78 142.4,-696.02 140.77,-694.23 139.28,-692.41 137.93,-690.56 136.73,-688.7 135.69,-686.83 134.82,-684.94 134.12,-683.06 133.6,-681.17 133.28,-679.3 133.16,-677.44 133.23,-675.59 133.52,-673.77 134.01,-671.98 134.72,-670.22 135.65,-668.5 136.8,-666.82 138.17,-665.18 139.75,-663.6 141.56,-662.08 143.57,-660.61 145.8,-659.21 148.22,-657.88 150.85,-656.62 153.66,-655.43 156.65,-654.32 159.81,-653.29 163.13,-652.35 166.6,-651.5 170.2,-650.73 173.92,-650.05 177.75,-649.47 181.67,-648.98 185.67,-648.59 189.72,-648.3 193.81,-648.1 197.94,-648 202.06,-648 206.19,-648.1"/>
<text xml:space="preserve" text-anchor="middle" x="200" y="-679.8" font-family="sans-serif" font-size="14.00">WebhooksService</text>
</a>
</g>
</g>
<!-- #/domains/api_integration/subdomains/webhooks/boundedcontexts/webhook_client/services/webhook_receiver&#45;&gt;#/domains/api_integration/subdomains/webhooks/boundedcontexts/webhooks/services/webhooks_service -->
<g id="edge2" class="edge">
<title>#/domains/api_integration/subdomains/webhooks/boundedcontexts/webhook_client/services/webhook_receiver&#45;&gt;#/domains/api_integration/subdomains/webhooks/boundedcontexts/webhooks/services/webhooks_service</title>
<path fill="none" stroke="black" d="M148.25,-816.97C134.53,-807.35 121.43,-795.04 113.8,-780 100.97,-754.73 122.19,-731.11 146.78,-713.75"/>
<polygon fill="black" stroke="black" points="148.66,-716.7 155.05,-708.24 144.78,-710.87 148.66,-716.7"/>
<text xml:space="preserve" text-anchor="middle" x="149.9" y="-771" font-family="sans-serif" font-size="10.00">RegisterWebhook</text>
<g id="a_edge2&#45;headlabel"><a xlink:title="open&#45;host&#45;service">
<text xml:space="preserve" text-anchor="middle" x="156.31" y="-704.41" font-family="sans-serif" font-size="10.00">OHS</text>
</a>
</g>
<g id="a_edge2&#45;taillabel"><a xlink:title="customer&#45;supplier">
<text xml:space="preserve" text-anchor="middle" x="148.25" y="-813.97" font-family="sans-serif" font-size="10.00">C/s</text>
</a>
</g>
</g>
<!-- #/domains/api_integration/subdomains/webhooks/boundedcontexts/webhooks/services/webhooks_service&#45;&gt;#/domains/api_integration/subdomains/webhooks/boundedcontexts/webhook_client/services/webhook_receiver -->
<g id="edge1" class="edge">
<title>#/domains/api_integration/subdomains/webhooks/boundedcontexts/webhooks/services/webhooks_service&#45;&gt;#/domains/api_integration/subdomains/webhooks/boundedcontexts/webhook_client/services/webhook_receiver</title>
<path fill="none" stroke="black" d="M200,-720.34C200,-742.68 200,-771.81 200,-796.07"/>
<polygon fill="black" stroke="black" points="196.5,-796.03 200,-806.03 203.5,-796.03 196.5,-796.03"/>
<text xml:space="preserve" text-anchor="middle" x="235.54" y="-771" font-family="sans-serif" font-size="10.00">ReceiveWebhook</text>
<g id="a_edge1&#45;headlabel"><a xlink:title="open&#45;host&#45;service">
<text xml:space="preserve" text-anchor="middle" x="200" y="-804.54" font-family="sans-serif" font-size="10.00">OHS</text>
</a>
</g>
<g id="a_edge1&#45;taillabel"><a xlink:title="customer&#45;supplier">
<text xml:space="preserve" text-anchor="middle" x="200" y="-717.34" font-family="sans-serif" font-size="10.00">C/s</text>
</a>
</g>
</g>
<!-- #/domains/commerce/subdomains/ordering/boundedcontexts/ordering/services/ordering_service -->
<g id="node3" class="node">
<title>#/domains/commerce/subdomains/ordering/boundedcontexts/ordering/services/ordering_service</title>
<g id="a_node3"><a xlink:title="Ordering application service.">
<polygon fill="white" stroke="black" points="205.7,-368.1 209.47,-368.3 213.2,-368.59 216.88,-368.98 220.48,-369.47 224.01,-370.05 227.44,-370.73 230.75,-371.5 233.95,-372.35 237,-373.29 239.92,-374.32 242.67,-375.43 245.26,-376.62 247.68,-377.88 249.91,-379.21 251.96,-380.61 253.81,-382.08 255.47,-383.6 256.93,-385.18 258.19,-386.82 259.25,-388.5 260.1,-390.22 260.76,-391.98 261.22,-393.77 261.48,-395.59 261.55,-397.44 261.43,-399.3 261.13,-401.17 260.66,-403.06 260.02,-404.94 259.22,-406.83 258.26,-408.7 257.15,-410.56 255.91,-412.41 254.53,-414.23 253.04,-416.02 251.43,-417.78 249.71,-419.5 247.9,-421.18 246,-422.82 244.02,-424.4 241.96,-425.92 239.84,-427.39 237.66,-428.79 235.42,-430.12 233.14,-431.38 230.82,-432.57 228.46,-433.68 226.07,-434.71 223.66,-435.65 221.22,-436.5 218.76,-437.27 216.29,-437.95 213.8,-438.53 211.31,-439.02 208.8,-439.41 206.29,-439.7 203.78,-439.9 201.26,-440 198.74,-440 196.22,-439.9 193.71,-439.7 191.2,-439.41 188.69,-439.02 186.2,-438.53 183.71,-437.95 181.24,-437.27 178.78,-436.5 176.34,-435.65 173.93,-434.71 171.54,-433.68 169.18,-432.57 166.86,-431.38 164.58,-430.12 162.34,-428.79 160.16,-427.39 158.04,-425.92 155.98,-424.4 154,-422.82 152.1,-421.18 150.29,-419.5 148.57,-417.78 146.96,-416.02 145.47,-414.23 144.09,-412.41 142.85,-410.56 141.74,-408.7 140.78,-406.83 139.98,-404.94 139.34,-403.06 138.87,-401.17 138.57,-399.3 138.45,-397.44 138.52,-395.59 138.78,-393.77 139.24,-391.98 139.9,-390.22 140.75,-388.5 141.81,-386.82 143.07,-385.18 144.53,-383.6 146.19,-382.08 148.04,-380.61 150.09,-379.21 152.32,-377.88 154.74,-376.62 157.33,-375.43 160.08,-374.32 163,-373.29 166.05,-372.35 169.25,-371.5 172.56,-370.73 175.99,-370.05 179.52,-369.47 183.12,-368.98 186.8,-368.59 190.53,-368.3 194.3,-368.1 198.1,-368 201.9,-368 205.7,-368.1"/>
<text xml:space="preserve" text-anchor="middle" x="200" y="-399.8" font-family="sans-serif" font-size="14.00">OrderingService</text>
</a>
</g>
</g>
<!-- #/domains/api_integration/subdomains/webhooks/boundedcontexts/webhooks/services/webhooks_service&#45;&gt;#/domains/commerce/subdomains/ordering/boundedcontexts/ordering/services/ordering_service -->
<g id="edge3" class="edge">
<title>#/domains/api_integration/subdomains/webhooks/boundedcontexts/webhooks/services/webhooks_service&#45;&gt;#/domains/commerce/subdomains/ordering/boundedcontexts/ordering/services/ordering_service</title>
<path fill="none" stroke="black" d="M200,-647.51C200,-597.63 200,-506.72 200,-451.5"/>
<polygon fill="black" stroke="black" points="203.5,-451.79 200,-441.79 196.5,-451.79 203.5,-451.79"/>
<text xml:space="preserve" text-anchor="middle" x="220.55" y="-571" font-family="sans-serif" font-size="10.00">OrderPaid</text>
<g id="a_edge3&#45;headlabel"><a xlink:title="published&#45;language">
<text xml:space="preserve" text-anchor="middle" x="200" y="-437.28" font-family="sans-serif" font-size="10.00">PL</text>
</a>
</g>
<g id="a_edge3&#45;taillabel"><a xlink:title="conformist">
<text xml:space="preserve" text-anchor="middle" x="200" y="-644.51" font-family="sans-serif" font-size="10.00">C</text>
</a>
</g>
</g>
<!-- #/domains/payment_processing/subdomains/payment_processors/boundedcontexts/payment_processor/services/payment_service -->
<g id="node4" class="node">
<title>#/domains/payment_processing/subdomains/payment_processors/boundedcontexts/payment_processor/services/payment_service</title>
<g id="a_node4"><a xlink:title="Takes payments and emits status changes.">
<polygon fill="white" stroke="black" points="202.61,-88.1 206.33,-88.3 210.01,-88.59 213.64,-88.98 217.19,-89.47 220.67,-90.05 224.05,-90.73 227.32,-91.5 230.46,-92.35 233.48,-93.29 236.35,-94.32 239.06,-95.43 241.62,-96.62 244,-97.88 246.2,-99.21 248.22,-100.61 250.05,-102.08 251.68,-103.6 253.12,-105.18 254.36,-106.82 255.4,-108.5 256.25,-110.22 256.89,-111.98 257.34,-113.77 257.6,-115.59 257.67,-117.44 257.56,-119.3 257.26,-121.17 256.8,-123.06 256.16,-124.94 255.37,-126.83 254.43,-128.7 253.34,-130.56 252.11,-132.41 250.76,-134.23 249.28,-136.02 247.7,-137.78 246.01,-139.5 244.22,-141.18 242.35,-142.82 240.39,-144.4 238.36,-145.92 236.27,-147.39 234.12,-148.79 231.92,-150.12 229.67,-151.38 227.38,-152.57 225.06,-153.68 222.7,-154.71 220.32,-155.65 217.92,-156.5 215.49,-157.27 213.06,-157.95 210.61,-158.53 208.15,-159.02 205.68,-159.41 203.2,-159.7 200.72,-159.9 198.24,-160 195.76,-160 193.28,-159.9 190.8,-159.7 188.32,-159.41 185.85,-159.02 183.39,-158.53 180.94,-157.95 178.51,-157.27 176.08,-156.5 173.68,-155.65 171.3,-154.71 168.94,-153.68 166.62,-152.57 164.33,-151.38 162.08,-150.12 159.88,-148.79 157.73,-147.39 155.64,-145.92 153.61,-144.4 151.65,-142.82 149.78,-141.18 147.99,-139.5 146.3,-137.78 144.72,-136.02 143.24,-134.23 141.89,-132.41 140.66,-130.56 139.57,-128.7 138.63,-126.83 137.84,-124.94 137.2,-123.06 136.74,-121.17 136.44,-119.3 136.33,-117.44 136.4,-115.59 136.66,-113.77 137.11,-111.98 137.75,-110.22 138.6,-108.5 139.64,-106.82 140.88,-105.18 142.32,-103.6 143.95,-102.08 145.78,-100.61 147.8,-99.21 150,-97.88 152.38,-96.62 154.94,-95.43 157.65,-94.32 160.52,-93.29 163.54,-92.35 166.68,-91.5 169.95,-90.73 173.33,-90.05 176.81,-89.47 180.36,-88.98 183.99,-88.59 187.67,-88.3 191.39,-88.1 195.13,-88 198.87,-88 202.61,-88.1"/>
<text xml:space="preserve" text-anchor="middle" x="197" y="-119.8" font-family="sans-serif" font-size="14.00">PaymentService</text>
</a>
</g>
</g>
<!-- #/domains/commerce/subdomains/ordering/boundedcontexts/ordering/services/ordering_service&#45;&gt;#/domains/payment_processing/subdomains/payment_processors/boundedcontexts/payment_processor/services/payment_service -->
<g id="edge4" class="edge">
<title>#/domains/commerce/subdomains/ordering/boundedcontexts/ordering/services/ordering_service&#45;&gt;#/domains/payment_processing/subdomains/payment_processors/boundedcontexts/payment_processor/services/payment_service</title>
<path fill="none" stroke="black" d="M162.86,-373.4C142.58,-354.78 119.42,-328.85 108.45,-300 89.47,-250.06 127.03,-195.59 158.94,-160.91"/>
<polygon fill="black" stroke="black" points="161.1,-163.72 165.44,-154.06 156.02,-158.91 161.1,-163.72"/>
<text xml:space="preserve" text-anchor="middle" x="141.23" y="-291" font-family="sans-serif" font-size="10.00">ProcessPayment</text>
<g id="a_edge4&#45;headlabel"><a xlink:title="open&#45;host&#45;service">
<text xml:space="preserve" text-anchor="middle" x="166.48" y="-149.96" font-family="sans-serif" font-size="10.00">OHS</text>
</a>
</g>
<g id="a_edge4&#45;taillabel"><a xlink:title="customer&#45;supplier">
<text xml:space="preserve" text-anchor="middle" x="162.86" y="-370.4" font-family="sans-serif" font-size="10.00">C/s</text>
</a>
</g>
</g>
<!-- #/domains/commerce/subdomains/ordering/boundedcontexts/ordering/services/ordering_service&#45;&gt;#/domains/payment_processing/subdomains/payment_processors/boundedcontexts/payment_processor/services/payment_service -->
<g id="edge5" class="edge">
<title>#/domains/commerce/subdomains/ordering/boundedcontexts/ordering/services/ordering_service&#45;&gt;#/domains/payment_processing/subdomains/payment_processors/boundedcontexts/payment_processor/services/payment_service</title>
<path fill="none" stroke="black" d="M199.62,-367.51C199.08,-317.63 198.1,-226.72 197.5,-171.5"/>
<polygon fill="black" stroke="black" points="201,-171.76 197.4,-161.79 194.01,-171.83 201,-171.76"/>
<text xml:space="preserve" text-anchor="middle" x="237.73" y="-291" font-family="sans-serif" font-size="10.00">PaymentSucceeded</text>
<g id="a_edge5&#45;headlabel"><a xlink:title="published&#45;language">
<text xml:space="preserve" text-anchor="middle" x="197.38" y="-157.28" font-family="sans-serif" font-size="10.00">PL</text>
</a>
</g>
<g id="a_edge5&#45;taillabel"><a xlink:title="conformist">
<text xml:space="preserve" text-anchor="middle" x="199.62" y="-364.51" font-family="sans-serif" font-size="10.00">C</text>
</a>
</g>
</g>
</g>
</svg>
