<?xml version="1.0" encoding="UTF-8" standalone="no"?>
<?xml-stylesheet href="data:text/css,.graph%20text%20%7B%0A%09font-family%3A%20sans-serif%3B%0A%09stroke%3A%20white%3B%0A%09paint-order%3A%20stroke%3B%0A%09stroke-width%3A%203%3B%0A%09stroke-linecap%3A%20square%3B%0A%7D%0A%0A.namespace%20polygon%20%7B%0A%09fill-opacity%3A%200.2%3B%0A%09stroke%3A%20none%3B%0A%7D%0A" type="text/css"?>
<!DOCTYPE svg PUBLIC "-//W3C//DTD SVG 1.1//EN"
 "http://www.w3.org/Graphics/SVG/1.1/DTD/svg11.dtd">
<!-- Generated by graphviz version 13.1.2 (0)
 -->
<!-- Pages: 1 -->
<svg width="568pt" height="544pt"
 viewBox="0.00 0.00 568.00 544.00" xmlns="http://www.w3.org/2000/svg" xmlns:xlink="http://www.w3.org/1999/xlink">
<g id="graph0" class="graph" transform="scale(1 1) rotate(0) translate(4 540)">
<polygon fill="white" stroke="none" points="-4,4 -4,-540 564,-540 564,4 -4,4"/>
<g id="clust1" class="cluster namespace">
<title>e_shop</title>
<polygon fill="lightgrey" stroke="lightgrey" points="8,-8 8,-528 552,-528 552,-8 8,-8"/>
<text xml:space="preserve" text-anchor="middle" x="280" y="-515" font-family="sans-serif" font-size="10.00">eShop</text>
</g>
<g id="clust2" class="cluster namespace">
<title>#/domains/commerce</title>
<polygon fill="lightgrey" stroke="lightgrey" points="121,-28 121,-244 391,-244 391,-28 121,-28"/>
<text xml:space="preserve" text-anchor="middle" x="256" y="-231" font-family="sans-serif" font-size="10.00">Commerce</text>
</g>
<g id="clust3" class="cluster namespace">
<title>#/domains/commerce/subdomains/catalog</title>
<polygon fill="lightgrey" stroke="lightgrey" points="141,-48 141,-204 371,-204 371,-48 141,-48"/>
<text xml:space="preserve" text-anchor="middle" x="256" y="-191" font-family="sans-serif" font-size="10.00">Catalog</text>
</g>
<g id="clust4" class="cluster namespace">
<title>#/domains/commerce/subdomains/catalog/boundedcontexts/catalog.api</title>
<polygon fill="lightgrey" stroke="lightgrey" points="161,-68 161,-164 351,-164 351,-68 161,-68"/>
<text xml:space="preserve" text-anchor="middle" x="256" y="-151" font-family="sans-serif" font-size="10.00">Catalog.API</text>
</g>
<g id="clust5" class="cluster namespace">
<title>#/domains/edge_&amp;_experience</title>
<polygon fill="lightgrey" stroke="lightgrey" points="28,-272 28,-488 278,-488 278,-272 28,-272"/>
<text xml:space="preserve" text-anchor="middle" x="153" y="-475" font-family="sans-serif" font-size="10.00">Edge &amp; Experience</text>
</g>
<g id="clust6" class="cluster namespace">
<title>#/domains/edge_&amp;_experience/subdomains/mobile</title>
<polygon fill="lightgrey" stroke="lightgrey" points="48,-292 48,-448 258,-448 258,-292 48,-292"/>
<text xml:space="preserve" text-anchor="middle" x="153" y="-435" font-family="sans-serif" font-size="10.00">Mobile</text>
</g>
<g id="clust7" class="cluster namespace">
<title>#/domains/edge_&amp;_experience/subdomains/mobile/boundedcontexts/experience_bff</title>
<polygon fill="lightgrey" stroke="lightgrey" points="68,-312 68,-408 238,-408 238,-312 68,-312"/>
<text xml:space="preserve" text-anchor="middle" x="153" y="-395" font-family="sans-serif" font-size="10.00">Experience BFF</text>
</g>
<g id="clust8" class="cluster namespace">
<title>#/domains/operations</title>
<polygon fill="lightgrey" stroke="lightgrey" points="298,-272 298,-488 532,-488 532,-272 298,-272"/>
<text xml:space="preserve" text-anchor="middle" x="415" y="-475" font-family="sans-serif" font-size="10.00">Operations</text>
</g>
<g id="clust9" class="cluster namespace">
<title>#/domains/operations/subdomains/backoffice</title>
<polygon fill="lightgrey" stroke="lightgrey" points="318,-292 318,-448 512,-448 512,-292 318,-292"/>
<text xml:space="preserve" text-anchor="middle" x="415" y="-435" font-family="sans-serif" font-size="10.00">Backoffice</text>
</g>
<g id="clust10" class="cluster namespace">
<title>#/domains/operations/subdomains/backoffice/boundedcontexts/backoffice_app</title>
<polygon fill="lightgrey" stroke="lightgrey" points="338,-312 338,-408 492,-408 492,-312 338,-312"/>
<text xml:space="preserve" text-anchor="middle" x="415" y="-395" font-family="sans-serif" font-size="10.00">BackofficeApp</text>
</g>
<!-- #/domains/commerce/subdomains/catalog/boundedcontexts/catalog.api/services/catalog_service -->
<g id="node1" class="node">
<title>#/domains/commerce/subdomains/catalog/boundedcontexts/catalog.api/services/catalog_service</title>
<g id="a_node1"><a xlink:title="Catalog application service (HTTP).">
<polygon fill="white" stroke="black" points="262.9,-88.05 267.47,-88.15 271.99,-88.3 276.45,-88.49 280.82,-88.74 285.09,-89.03 289.24,-89.36 293.26,-89.75 297.13,-90.18 300.84,-90.65 304.37,-91.16 307.7,-91.71 310.84,-92.31 313.77,-92.94 316.48,-93.61 318.96,-94.31 321.2,-95.04 323.21,-95.8 324.98,-96.59 326.51,-97.41 327.79,-98.25 328.83,-99.11 329.62,-99.99 330.17,-100.89 330.49,-101.8 330.58,-102.72 330.44,-103.65 330.08,-104.59 329.5,-105.53 328.72,-106.47 327.75,-107.41 326.59,-108.35 325.25,-109.28 323.74,-110.2 322.08,-111.11 320.27,-112.01 318.32,-112.89 316.24,-113.75 314.04,-114.59 311.74,-115.41 309.34,-116.2 306.84,-116.96 304.27,-117.69 301.63,-118.39 298.92,-119.06 296.16,-119.69 293.34,-120.29 290.49,-120.84 287.59,-121.35 284.66,-121.82 281.71,-122.25 278.73,-122.64 275.74,-122.97 272.72,-123.26 269.7,-123.51 266.66,-123.7 263.62,-123.85 260.58,-123.95 257.53,-124 254.47,-124 251.42,-123.95 248.38,-123.85 245.34,-123.7 242.3,-123.51 239.28,-123.26 236.26,-122.97 233.27,-122.64 230.29,-122.25 227.34,-121.82 224.41,-121.35 221.51,-120.84 218.66,-120.29 215.84,-119.69 213.08,-119.06 210.37,-118.39 207.73,-117.69 205.16,-116.96 202.66,-116.2 200.26,-115.41 197.96,-114.59 195.76,-113.75 193.68,-112.89 191.73,-112.01 189.92,-111.11 188.26,-110.2 186.75,-109.28 185.41,-108.35 184.25,-107.41 183.28,-106.47 182.5,-105.53 181.92,-104.59 181.56,-103.65 181.42,-102.72 181.51,-101.8 181.83,-100.89 182.38,-99.99 183.17,-99.11 184.21,-98.25 185.49,-97.41 187.02,-96.59 188.79,-95.8 190.8,-95.04 193.04,-94.31 195.52,-93.61 198.23,-92.94 201.16,-92.31 204.3,-91.71 207.63,-91.16 211.16,-90.65 214.87,-90.18 218.74,-89.75 222.76,-89.36 226.91,-89.03 231.18,-88.74 235.55,-88.49 240.01,-88.3 244.53,-88.15 249.1,-88.05 253.7,-88 258.3,-88 262.9,-88.05"/>
<text xml:space="preserve" text-anchor="middle" x="256" y="-101.8" font-family="sans-serif" font-size="14.00">CatalogService</text>
</a>
</g>
</g>
<!-- #/domains/edge_&amp;_experience/subdomains/mobile/boundedcontexts/experience_bff/services/shopping_bff -->
<g id="node2" class="node">
<title>#/domains/edge_&amp;_experience/subdomains/mobile/boundedcontexts/experience_bff/services/shopping_bff</title>
<g id="a_node2"><a xlink:title="BFF that aggregates catalog/basket/ordering.">
<polygon fill="white" stroke="black" points="159,-332.05 162.98,-332.15 166.91,-332.3 170.79,-332.49 174.6,-332.74 178.31,-333.03 181.93,-333.36 185.42,-333.75 188.79,-334.18 192.01,-334.65 195.08,-335.16 197.99,-335.71 200.72,-336.31 203.26,-336.94 205.62,-337.61 207.78,-338.31 209.73,-339.04 211.48,-339.8 213.02,-340.59 214.35,-341.41 215.47,-342.25 216.37,-343.11 217.06,-343.99 217.54,-344.89 217.82,-345.8 217.89,-346.72 217.77,-347.65 217.45,-348.59 216.96,-349.53 216.28,-350.47 215.43,-351.41 214.42,-352.35 213.26,-353.28 211.94,-354.2 210.5,-355.11 208.92,-356.01 207.22,-356.89 205.41,-357.75 203.5,-358.59 201.5,-359.41 199.41,-360.2 197.24,-360.96 195,-361.69 192.7,-362.39 190.35,-363.06 187.94,-363.69 185.49,-364.29 183.01,-364.84 180.49,-365.35 177.94,-365.82 175.37,-366.25 172.78,-366.64 170.17,-366.97 167.55,-367.26 164.92,-367.51 162.28,-367.7 159.63,-367.85 156.98,-367.95 154.33,-368 151.67,-368 149.02,-367.95 146.37,-367.85 143.72,-367.7 141.08,-367.51 138.45,-367.26 135.83,-366.97 133.22,-366.64 130.63,-366.25 128.06,-365.82 125.51,-365.35 122.99,-364.84 120.51,-364.29 118.06,-363.69 115.65,-363.06 113.3,-362.39 111,-361.69 108.76,-360.96 106.59,-360.2 104.5,-359.41 102.5,-358.59 100.59,-357.75 98.78,-356.89 97.08,-356.01 95.5,-355.11 94.06,-354.2 92.74,-353.28 91.58,-352.35 90.57,-351.41 89.72,-350.47 89.04,-349.53 88.55,-348.59 88.23,-347.65 88.11,-346.72 88.18,-345.8 88.46,-344.89 88.94,-343.99 89.63,-343.11 90.53,-342.25 91.65,-341.41 92.98,-340.59 94.52,-339.8 96.27,-339.04 98.22,-338.31 100.38,-337.61 102.74,-336.94 105.28,-336.31 108.01,-335.71 110.92,-335.16 113.99,-334.65 117.21,-334.18 120.58,-333.75 124.07,-333.36 127.69,-333.03 131.4,-332.74 135.21,-332.49 139.09,-332.3 143.02,-332.15 147,-332.05 151,-332 155,-332 159,-332.05"/>
<text xml:space="preserve" text-anchor="middle" x="153" y="-345.8" font-family="sans-serif" font-size="14.00">ShoppingBff</text>
</a>
</g>
</g>
<!-- #/domains/edge_&amp;_experience/subdomains/mobile/boundedcontexts/experience_bff/services/shopping_bff&#45;&gt;#/domains/commerce/subdomains/catalog/boundedcontexts/catalog.api/services/catalog_service -->
<g id="edge1" class="edge">
<title>#/domains/edge_&amp;_experience/subdomains/mobile/boundedcontexts/experience_bff/services/shopping_bff&#45;&gt;#/domains/commerce/subdomains/catalog/boundedcontexts/catalog.api/services/catalog_service</title>
<path fill="none" stroke="black" d="M160.41,-331.6C178.08,-290.08 222.81,-184.98 244.22,-134.67"/>
<polygon fill="black" stroke="black" points="247.37,-136.21 248.07,-125.64 240.93,-133.47 247.37,-136.21"/>
<text xml:space="preserve" text-anchor="middle" x="226.12" y="-255" font-family="sans-serif" font-size="10.00">GetCatalogItems</text>
<g id="a_edge1&#45;headlabel"><a xlink:title="open&#45;host&#45;service">
<text xml:space="preserve" text-anchor="middle" x="248.66" y="-121.25" font-family="sans-serif" font-size="10.00">OHS</text>
</a>
</g>
<g id="a_edge1&#45;taillabel"><a xlink:title="anti&#45;corruption&#45;layer">
<text xml:space="preserve" text-anchor="middle" x="160.41" y="-328.6" font-family="sans-serif" font-size="10.00">ACL</text>
</a>
</g>
</g>
<!-- #/domains/operations/subdomains/backoffice/boundedcontexts/backoffice_app/services/backoffice -->
<g id="node3" class="node">
<title>#/domains/operations/subdomains/backoffice/boundedcontexts/backoffice_app/services/backoffice</title>
<g id="a_node3"><a xlink:title="Admin/demo app for price updates.">
<polygon fill="white" stroke="black" points="420.26,-332.05 423.75,-332.15 427.19,-332.3 430.59,-332.49 433.92,-332.74 437.18,-333.03 440.35,-333.36 443.41,-333.75 446.36,-334.18 449.19,-334.65 451.88,-335.16 454.42,-335.71 456.81,-336.31 459.04,-336.94 461.11,-337.61 463,-338.31 464.71,-339.04 466.25,-339.8 467.6,-340.59 468.76,-341.41 469.74,-342.25 470.53,-343.11 471.13,-343.99 471.55,-344.89 471.8,-345.8 471.86,-346.72 471.75,-347.65 471.48,-348.59 471.04,-349.53 470.45,-350.47 469.71,-351.41 468.82,-352.35 467.8,-353.28 466.65,-354.2 465.38,-355.11 464,-356.01 462.51,-356.89 460.93,-357.75 459.25,-358.59 457.5,-359.41 455.67,-360.2 453.77,-360.96 451.81,-361.69 449.79,-362.39 447.73,-363.06 445.62,-363.69 443.47,-364.29 441.29,-364.84 439.09,-365.35 436.86,-365.82 434.6,-366.25 432.33,-366.64 430.05,-366.97 427.75,-367.26 425.45,-367.51 423.13,-367.7 420.81,-367.85 418.49,-367.95 416.16,-368 413.84,-368 411.51,-367.95 409.19,-367.85 406.87,-367.7 404.55,-367.51 402.25,-367.26 399.95,-366.97 397.67,-366.64 395.4,-366.25 393.14,-365.82 390.91,-365.35 388.71,-364.84 386.53,-364.29 384.38,-363.69 382.27,-363.06 380.21,-362.39 378.19,-361.69 376.23,-360.96 374.33,-360.2 372.5,-359.41 370.75,-358.59 369.07,-357.75 367.49,-356.89 366,-356.01 364.62,-355.11 363.35,-354.2 362.2,-353.28 361.18,-352.35 360.29,-351.41 359.55,-350.47 358.96,-349.53 358.52,-348.59 358.25,-347.65 358.14,-346.72 358.2,-345.8 358.45,-344.89 358.87,-343.99 359.47,-343.11 360.26,-342.25 361.24,-341.41 362.4,-340.59 363.75,-339.8 365.29,-339.04 367,-338.31 368.89,-337.61 370.96,-336.94 373.19,-336.31 375.58,-335.71 378.12,-335.16 380.81,-334.65 383.64,-334.18 386.59,-333.75 389.65,-333.36 392.82,-333.03 396.08,-332.74 399.41,-332.49 402.81,-332.3 406.25,-332.15 409.74,-332.05 413.24,-332 416.76,-332 420.26,-332.05"/>
<text xml:space="preserve" text-anchor="middle" x="415" y="-345.8" font-family="sans-serif" font-size="14.00">Backoffice</text>
</a>
</g>
</g>
<!-- #/domains/operations/subdomains/backoffice/boundedcontexts/backoffice_app/services/backoffice&#45;&gt;#/domains/commerce/subdomains/catalog/boundedcontexts/catalog.api/services/catalog_service -->
<g id="edge2" class="edge">
<title>#/domains/operations/subdomains/backoffice/boundedcontexts/backoffice_app/services/backoffice&#45;&gt;#/domains/commerce/subdomains/catalog/boundedcontexts/catalog.api/services/catalog_service</title>
<path fill="none" stroke="black" d="M403.82,-331.98C376.51,-290.41 306.23,-183.46 273.4,-133.48"/>
<polygon fill="black" stroke="black" points="276.42,-131.7 268,-125.26 270.57,-135.54 276.42,-131.7"/>
<text xml:space="preserve" text-anchor="middle" x="384.58" y="-255" font-family="sans-serif" font-size="10.00">ChangePrice</text>
<g id="a_edge2&#45;headlabel"><a xlink:title="open&#45;host&#45;service">
<text xml:space="preserve" text-anchor="middle" x="267.17" y="-121" font-family="sans-serif" font-size="10.00">OHS</text>
</a>
</g>
<g id="a_edge2&#45;taillabel"><a xlink:title="customer&#45;supplier">
<text xml:space="preserve" text-anchor="middle" x="403.82" y="-328.98" font-family="sans-serif" font-size="10.00">C/s</text>
</a>
</g>
</g>
</g>
</svg>
