<?xml version="1.0" encoding="UTF-8" standalone="no"?>
<?xml-stylesheet href="data:text/css,.graph%20text%20%7B%0A%09font-family%3A%20sans-serif%3B%0A%09stroke%3A%20white%3B%0A%09paint-order%3A%20stroke%3B%0A%09stroke-width%3A%203%3B%0A%09stroke-linecap%3A%20square%3B%0A%7D%0A%0A.namespace%20polygon%20%7B%0A%09fill-opacity%3A%200.2%3B%0A%09stroke%3A%20none%3B%0A%7D%0A" type="text/css"?>
<!DOCTYPE svg PUBLIC "-//W3C//DTD SVG 1.1//EN"
 "http://www.w3.org/Graphics/SVG/1.1/DTD/svg11.dtd">
<!-- Generated by graphviz version 13.1.2 (0)
 -->
<!-- Pages: 1 -->
<svg width="337pt" height="320pt"
 viewBox="0.00 0.00 337.00 320.00" xmlns="http://www.w3.org/2000/svg" xmlns:xlink="http://www.w3.org/1999/xlink">
<g id="graph0" class="graph" transform="scale(1 1) rotate(0) translate(4 316)">
<polygon fill="white" stroke="none" points="-4,4 -4,-316 333,-316 333,4 -4,4"/>
<g id="clust1" class="cluster namespace">
<title>swagger_petstore_(v3)</title>
<polygon fill="lightgrey" stroke="lightgrey" points="8,-8 8,-304 321,-304 321,-8 8,-8"/>
<text xml:space="preserve" text-anchor="middle" x="164.5" y="-291" font-family="sans-serif" font-size="10.00">Swagger Petstore (v3)</text>
</g>
<g id="clust2" class="cluster namespace">
<title>#/domains/petstore_commerce</title>
<polygon fill="lightgrey" stroke="lightgrey" points="16,-16 16,-276 313,-276 313,-16 16,-16"/>
<text xml:space="preserve" text-anchor="middle" x="164.5" y="-263" font-family="sans-serif" font-size="10.00">Petstore Commerce</text>
</g>
<g id="clust3" class="cluster namespace">
<title>#/domains/petstore_commerce/subdomains/catalog</title>
<polygon fill="lightgrey" stroke="lightgrey" points="99,-24 99,-132 229,-132 229,-24 99,-24"/>
<text xml:space="preserve" text-anchor="middle" x="164" y="-119" font-family="sans-serif" font-size="10.00">Catalog</text>
</g>
<g id="clust4" class="cluster namespace">
<title>#/domains/petstore_commerce/subdomains/sales</title>
<polygon fill="lightgrey" stroke="lightgrey" points="24,-140 24,-248 154,-248 154,-140 24,-140"/>
<text xml:space="preserve" text-anchor="middle" x="89" y="-235" font-family="sans-serif" font-size="10.00">Sales</text>
</g>
<g id="clust5" class="cluster namespace">
<title>#/domains/petstore_commerce/subdomains/inventory</title>
<polygon fill="lightgrey" stroke="lightgrey" points="175,-140 175,-248 305,-248 305,-140 175,-140"/>
<text xml:space="preserve" text-anchor="middle" x="240" y="-235" font-family="sans-serif" font-size="10.00">Inventory</text>
</g>
<!-- #/domains/petstore_commerce/subdomains/catalog/boundedcontexts/catalog_bc -->
<g id="node1" class="node">
<title>#/domains/petstore_commerce/subdomains/catalog/boundedcontexts/catalog_bc</title>
<g id="a_node1"><a xlink:title="Owns Pet aggregate &amp; pet&#45;facing operations">
<polygon fill="white" stroke="black" points="169.32,-32.1 172.84,-32.3 176.33,-32.59 179.76,-32.98 183.13,-33.47 186.42,-34.05 189.63,-34.73 192.72,-35.5 195.71,-36.35 198.56,-37.29 201.28,-38.32 203.85,-39.43 206.27,-40.62 208.53,-41.88 210.62,-43.21 212.53,-44.61 214.26,-46.08 215.81,-47.6 217.17,-49.18 218.35,-50.82 219.34,-52.5 220.14,-54.22 220.75,-55.98 221.18,-57.77 221.42,-59.59 221.49,-61.44 221.38,-63.3 221.1,-65.17 220.66,-67.06 220.06,-68.94 219.31,-70.83 218.41,-72.7 217.38,-74.56 216.22,-76.41 214.94,-78.23 213.54,-80.02 212.03,-81.78 210.43,-83.5 208.74,-85.18 206.96,-86.82 205.11,-88.4 203.19,-89.92 201.21,-91.39 199.17,-92.79 197.09,-94.12 194.96,-95.38 192.79,-96.57 190.58,-97.68 188.35,-98.71 186.1,-99.65 183.82,-100.5 181.52,-101.27 179.21,-101.95 176.89,-102.53 174.56,-103.02 172.22,-103.41 169.88,-103.7 167.53,-103.9 165.18,-104 162.82,-104 160.47,-103.9 158.12,-103.7 155.78,-103.41 153.44,-103.02 151.11,-102.53 148.79,-101.95 146.48,-101.27 144.18,-100.5 141.9,-99.65 139.65,-98.71 137.42,-97.68 135.21,-96.57 133.04,-95.38 130.91,-94.12 128.83,-92.79 126.79,-91.39 124.81,-89.92 122.89,-88.4 121.04,-86.82 119.26,-85.18 117.57,-83.5 115.97,-81.78 114.46,-80.02 113.06,-78.23 111.78,-76.41 110.62,-74.56 109.59,-72.7 108.69,-70.83 107.94,-68.94 107.34,-67.06 106.9,-65.17 106.62,-63.3 106.51,-61.44 106.58,-59.59 106.82,-57.77 107.25,-55.98 107.86,-54.22 108.66,-52.5 109.65,-50.82 110.83,-49.18 112.19,-47.6 113.74,-46.08 115.47,-44.61 117.38,-43.21 119.47,-41.88 121.73,-40.62 124.15,-39.43 126.72,-38.32 129.44,-37.29 132.29,-36.35 135.28,-35.5 138.37,-34.73 141.58,-34.05 144.87,-33.47 148.24,-32.98 151.67,-32.59 155.16,-32.3 158.68,-32.1 162.22,-32 165.78,-32 169.32,-32.1"/>
<text xml:space="preserve" text-anchor="middle" x="164" y="-63.8" font-family="sans-serif" font-size="14.00">Catalog BC</text>
</a>
</g>
</g>
<!-- #/domains/petstore_commerce/subdomains/sales/boundedcontexts/sales_bc -->
<g id="node2" class="node">
<title>#/domains/petstore_commerce/subdomains/sales/boundedcontexts/sales_bc</title>
<g id="a_node2"><a xlink:title="Owns Order aggregate &amp; order&#45;facing operations">
<polygon fill="white" stroke="black" points="94.32,-148.1 97.84,-148.3 101.33,-148.59 104.76,-148.98 108.13,-149.47 111.42,-150.05 114.63,-150.73 117.72,-151.5 120.71,-152.35 123.56,-153.29 126.28,-154.32 128.85,-155.43 131.27,-156.62 133.53,-157.88 135.62,-159.21 137.53,-160.61 139.26,-162.08 140.81,-163.6 142.17,-165.18 143.35,-166.82 144.34,-168.5 145.14,-170.22 145.75,-171.98 146.18,-173.77 146.42,-175.59 146.49,-177.44 146.38,-179.3 146.1,-181.17 145.66,-183.06 145.06,-184.94 144.31,-186.83 143.41,-188.7 142.38,-190.56 141.22,-192.41 139.94,-194.23 138.54,-196.02 137.03,-197.78 135.43,-199.5 133.74,-201.18 131.96,-202.82 130.11,-204.4 128.19,-205.92 126.21,-207.39 124.17,-208.79 122.09,-210.12 119.96,-211.38 117.79,-212.57 115.58,-213.68 113.35,-214.71 111.1,-215.65 108.82,-216.5 106.52,-217.27 104.21,-217.95 101.89,-218.53 99.56,-219.02 97.22,-219.41 94.88,-219.7 92.53,-219.9 90.18,-220 87.82,-220 85.47,-219.9 83.12,-219.7 80.78,-219.41 78.44,-219.02 76.11,-218.53 73.79,-217.95 71.48,-217.27 69.18,-216.5 66.9,-215.65 64.65,-214.71 62.42,-213.68 60.21,-212.57 58.04,-211.38 55.91,-210.12 53.83,-208.79 51.79,-207.39 49.81,-205.92 47.89,-204.4 46.04,-202.82 44.26,-201.18 42.57,-199.5 40.97,-197.78 39.46,-196.02 38.06,-194.23 36.78,-192.41 35.62,-190.56 34.59,-188.7 33.69,-186.83 32.94,-184.94 32.34,-183.06 31.9,-181.17 31.62,-179.3 31.51,-177.44 31.58,-175.59 31.82,-173.77 32.25,-171.98 32.86,-170.22 33.66,-168.5 34.65,-166.82 35.83,-165.18 37.19,-163.6 38.74,-162.08 40.47,-160.61 42.38,-159.21 44.47,-157.88 46.73,-156.62 49.15,-155.43 51.72,-154.32 54.44,-153.29 57.29,-152.35 60.28,-151.5 63.37,-150.73 66.58,-150.05 69.87,-149.47 73.24,-148.98 76.67,-148.59 80.16,-148.3 83.68,-148.1 87.22,-148 90.78,-148 94.32,-148.1"/>
<text xml:space="preserve" text-anchor="middle" x="89" y="-179.8" font-family="sans-serif" font-size="14.00">Sales BC</text>
</a>
</g>
</g>
<!-- #/domains/petstore_commerce/subdomains/sales/boundedcontexts/sales_bc&#45;&gt;#/domains/petstore_commerce/subdomains/catalog/boundedcontexts/catalog_bc -->
<g id="edge1" class="edge">
<title>#/domains/petstore_commerce/subdomains/sales/boundedcontexts/sales_bc&#45;&gt;#/domains/petstore_commerce/subdomains/catalog/boundedcontexts/catalog_bc</title>
<path fill="none" stroke="black" d="M110.89,-149.72C119.11,-137.24 128.53,-122.91 137.14,-109.83"/>
<polygon fill="black" stroke="black" points="139.83,-112.1 142.41,-101.82 133.99,-108.25 139.83,-112.1"/>
<g id="a_edge1&#45;headlabel"><a xlink:title="open&#45;host&#45;service">
<text xml:space="preserve" text-anchor="middle" x="143.24" y="-97.56" font-family="sans-serif" font-size="10.00">OHS</text>
</a>
</g>
<g id="a_edge1&#45;taillabel"><a xlink:title="anti&#45;corruption&#45;layer">
<text xml:space="preserve" text-anchor="middle" x="110.89" y="-146.72" font-family="sans-serif" font-size="10.00">ACL</text>
</a>
</g>
</g>
<!-- #/domains/petstore_commerce/subdomains/inventory/boundedcontexts/inventory_bc -->
<g id="node3" class="node">
<title>#/domains/petstore_commerce/subdomains/inventory/boundedcontexts/inventory_bc</title>
<g id="a_node3"><a xlink:title="Projection for /store/inventory (status→count)">
<polygon fill="white" stroke="black" points="245.32,-148.1 248.84,-148.3 252.33,-148.59 255.76,-148.98 259.13,-149.47 262.42,-150.05 265.63,-150.73 268.72,-151.5 271.71,-152.35 274.56,-153.29 277.28,-154.32 279.85,-155.43 282.27,-156.62 284.53,-157.88 286.62,-159.21 288.53,-160.61 290.26,-162.08 291.81,-163.6 293.17,-165.18 294.35,-166.82 295.34,-168.5 296.14,-170.22 296.75,-171.98 297.18,-173.77 297.42,-175.59 297.49,-177.44 297.38,-179.3 297.1,-181.17 296.66,-183.06 296.06,-184.94 295.31,-186.83 294.41,-188.7 293.38,-190.56 292.22,-192.41 290.94,-194.23 289.54,-196.02 288.03,-197.78 286.43,-199.5 284.74,-201.18 282.96,-202.82 281.11,-204.4 279.19,-205.92 277.21,-207.39 275.17,-208.79 273.09,-210.12 270.96,-211.38 268.79,-212.57 266.58,-213.68 264.35,-214.71 262.1,-215.65 259.82,-216.5 257.52,-217.27 255.21,-217.95 252.89,-218.53 250.56,-219.02 248.22,-219.41 245.88,-219.7 243.53,-219.9 241.18,-220 238.82,-220 236.47,-219.9 234.12,-219.7 231.78,-219.41 229.44,-219.02 227.11,-218.53 224.79,-217.95 222.48,-217.27 220.18,-216.5 217.9,-215.65 215.65,-214.71 213.42,-213.68 211.21,-212.57 209.04,-211.38 206.91,-210.12 204.83,-208.79 202.79,-207.39 200.81,-205.92 198.89,-204.4 197.04,-202.82 195.26,-201.18 193.57,-199.5 191.97,-197.78 190.46,-196.02 189.06,-194.23 187.78,-192.41 186.62,-190.56 185.59,-188.7 184.69,-186.83 183.94,-184.94 183.34,-183.06 182.9,-181.17 182.62,-179.3 182.51,-177.44 182.58,-175.59 182.82,-173.77 183.25,-171.98 183.86,-170.22 184.66,-168.5 185.65,-166.82 186.83,-165.18 188.19,-163.6 189.74,-162.08 191.47,-160.61 193.38,-159.21 195.47,-157.88 197.73,-156.62 200.15,-155.43 202.72,-154.32 205.44,-153.29 208.29,-152.35 211.28,-151.5 214.37,-150.73 217.58,-150.05 220.87,-149.47 224.24,-148.98 227.67,-148.59 231.16,-148.3 234.68,-148.1 238.22,-148 241.78,-148 245.32,-148.1"/>
<text xml:space="preserve" text-anchor="middle" x="240" y="-179.8" font-family="sans-serif" font-size="14.00">Inventory BC</text>
</a>
</g>
</g>
<!-- #/domains/petstore_commerce/subdomains/inventory/boundedcontexts/inventory_bc&#45;&gt;#/domains/petstore_commerce/subdomains/catalog/boundedcontexts/catalog_bc -->
<g id="edge2" class="edge">
<title>#/domains/petstore_commerce/subdomains/inventory/boundedcontexts/inventory_bc&#45;&gt;#/domains/petstore_commerce/subdomains/catalog/boundedcontexts/catalog_bc</title>
<path fill="none" stroke="black" d="M217.81,-149.72C209.49,-137.24 199.94,-122.91 191.22,-109.83"/>
<polygon fill="black" stroke="black" points="194.34,-108.2 185.88,-101.82 188.51,-112.08 194.34,-108.2"/>
<g id="a_edge2&#45;headlabel"><a xlink:title="published&#45;language">
<text xml:space="preserve" text-anchor="middle" x="185.04" y="-97.56" font-family="sans-serif" font-size="10.00">PL</text>
</a>
</g>
<g id="a_edge2&#45;taillabel"><a xlink:title="conformist">
<text xml:space="preserve" text-anchor="middle" x="217.81" y="-146.72" font-family="sans-serif" font-size="10.00">C</text>
</a>
</g>
</g>
</g>
</svg>
