<?xml version="1.0" encoding="UTF-8" standalone="no"?>
<?xml-stylesheet href="data:text/css,.graph%20text%20%7B%0A%09font-family%3A%20sans-serif%3B%0A%09stroke%3A%20white%3B%0A%09paint-order%3A%20stroke%3B%0A%09stroke-width%3A%203%3B%0A%09stroke-linecap%3A%20square%3B%0A%7D%0A%0A.namespace%20polygon%20%7B%0A%09fill-opacity%3A%200.2%3B%0A%09stroke%3A%20none%3B%0A%7D%0A" type="text/css"?>
<!DOCTYPE svg PUBLIC "-//W3C//DTD SVG 1.1//EN"
 "http://www.w3.org/Graphics/SVG/1.1/DTD/svg11.dtd">
<!-- Generated by graphviz version 13.1.2 (0)
 -->
<!-- Pages: 1 -->
<svg width="340pt" height="508pt"
 viewBox="0.00 0.00 340.00 508.00" xmlns="http://www.w3.org/2000/svg" xmlns:xlink="http://www.w3.org/1999/xlink">
<g id="graph0" class="graph" transform="scale(1 1) rotate(0) translate(4 504)">
<polygon fill="white" stroke="none" points="-4,4 -4,-504 336,-504 336,4 -4,4"/>
<g id="clust1" class="cluster namespace">
<title>e_shop</title>
<polygon fill="lightgrey" stroke="lightgrey" points="8,-8 8,-492 324,-492 324,-8 8,-8"/>
<text xml:space="preserve" text-anchor="middle" x="166" y="-479" font-family="sans-serif" font-size="10.00">eShop</text>
</g>
<g id="clust2" class="cluster namespace">
<title>#/domains/commerce</title>
<polygon fill="lightgrey" stroke="lightgrey" points="93,-168 93,-312 239,-312 239,-168 93,-168"/>
<text xml:space="preserve" text-anchor="middle" x="166" y="-299" font-family="sans-serif" font-size="10.00">Commerce</text>
</g>
<g id="clust3" class="cluster namespace">
<title>#/domains/commerce/subdomains/ordering</title>
<polygon fill="lightgrey" stroke="lightgrey" points="101,-176 101,-284 231,-284 231,-176 101,-176"/>
<text xml:space="preserve" text-anchor="middle" x="166" y="-271" font-family="sans-serif" font-size="10.00">Ordering</text>
</g>
<g id="clust4" class="cluster namespace">
<title>#/domains/edge_&amp;_experience</title>
<polygon fill="lightgrey" stroke="lightgrey" points="16,-320 16,-464 162,-464 162,-320 16,-320"/>
<text xml:space="preserve" text-anchor="middle" x="89" y="-451" font-family="sans-serif" font-size="10.00">Edge &amp; Experience</text>
</g>
<g id="clust5" class="cluster namespace">
<title>#/domains/edge_&amp;_experience/subdomains/mobile</title>
<polygon fill="lightgrey" stroke="lightgrey" points="24,-328 24,-436 154,-436 154,-328 24,-328"/>
<text xml:space="preserve" text-anchor="middle" x="89" y="-423" font-family="sans-serif" font-size="10.00">Mobile</text>
</g>
<g id="clust6" class="cluster namespace">
<title>#/domains/api_integration</title>
<polygon fill="lightgrey" stroke="lightgrey" points="170,-320 170,-464 316,-464 316,-320 170,-320"/>
<text xml:space="preserve" text-anchor="middle" x="243" y="-451" font-family="sans-serif" font-size="10.00">API Integration</text>
</g>
<g id="clust7" class="cluster namespace">
<title>#/domains/api_integration/subdomains/webhooks</title>
<polygon fill="lightgrey" stroke="lightgrey" points="178,-328 178,-436 308,-436 308,-328 178,-328"/>
<text xml:space="preserve" text-anchor="middle" x="243" y="-423" font-family="sans-serif" font-size="10.00">Webhooks</text>
</g>
<g id="clust8" class="cluster namespace">
<title>#/domains/payment_processing</title>
<polygon fill="lightgrey" stroke="lightgrey" points="90,-16 90,-160 242,-160 242,-16 90,-16"/>
<text xml:space="preserve" text-anchor="middle" x="166" y="-147" font-family="sans-serif" font-size="10.00">Payment Processing</text>
</g>
<g id="clust9" class="cluster namespace">
<title>#/domains/payment_processing/subdomains/payment_processors</title>
<polygon fill="lightgrey" stroke="lightgrey" points="98,-24 98,-132 234,-132 234,-24 98,-24"/>
<text xml:space="preserve" text-anchor="middle" x="166" y="-119" font-family="sans-serif" font-size="10.00">Payment Processors</text>
</g>
<!-- #/domains/commerce/subdomains/ordering/boundedcontexts/ordering.api -->
<g id="node1" class="node">
<title>#/domains/commerce/subdomains/ordering/boundedcontexts/ordering.api</title>
<g id="a_node1"><a xlink:title="Order lifecycle, status and events.">
<polygon fill="white" stroke="black" points="171.32,-184.1 174.84,-184.3 178.33,-184.59 181.76,-184.98 185.13,-185.47 188.42,-186.05 191.63,-186.73 194.72,-187.5 197.71,-188.35 200.56,-189.29 203.28,-190.32 205.85,-191.43 208.27,-192.62 210.53,-193.88 212.62,-195.21 214.53,-196.61 216.26,-198.08 217.81,-199.6 219.17,-201.18 220.35,-202.82 221.34,-204.5 222.14,-206.22 222.75,-207.98 223.18,-209.77 223.42,-211.59 223.49,-213.44 223.38,-215.3 223.1,-217.17 222.66,-219.06 222.06,-220.94 221.31,-222.83 220.41,-224.7 219.38,-226.56 218.22,-228.41 216.94,-230.23 215.54,-232.02 214.03,-233.78 212.43,-235.5 210.74,-237.18 208.96,-238.82 207.11,-240.4 205.19,-241.92 203.21,-243.39 201.17,-244.79 199.09,-246.12 196.96,-247.38 194.79,-248.57 192.58,-249.68 190.35,-250.71 188.1,-251.65 185.82,-252.5 183.52,-253.27 181.21,-253.95 178.89,-254.53 176.56,-255.02 174.22,-255.41 171.88,-255.7 169.53,-255.9 167.18,-256 164.82,-256 162.47,-255.9 160.12,-255.7 157.78,-255.41 155.44,-255.02 153.11,-254.53 150.79,-253.95 148.48,-253.27 146.18,-252.5 143.9,-251.65 141.65,-250.71 139.42,-249.68 137.21,-248.57 135.04,-247.38 132.91,-246.12 130.83,-244.79 128.79,-243.39 126.81,-241.92 124.89,-240.4 123.04,-238.82 121.26,-237.18 119.57,-235.5 117.97,-233.78 116.46,-232.02 115.06,-230.23 113.78,-228.41 112.62,-226.56 111.59,-224.7 110.69,-222.83 109.94,-220.94 109.34,-219.06 108.9,-217.17 108.62,-215.3 108.51,-213.44 108.58,-211.59 108.82,-209.77 109.25,-207.98 109.86,-206.22 110.66,-204.5 111.65,-202.82 112.83,-201.18 114.19,-199.6 115.74,-198.08 117.47,-196.61 119.38,-195.21 121.47,-193.88 123.73,-192.62 126.15,-191.43 128.72,-190.32 131.44,-189.29 134.29,-188.35 137.28,-187.5 140.37,-186.73 143.58,-186.05 146.87,-185.47 150.24,-184.98 153.67,-184.59 157.16,-184.3 160.68,-184.1 164.22,-184 167.78,-184 171.32,-184.1"/>
<text xml:space="preserve" text-anchor="middle" x="166" y="-215.8" font-family="sans-serif" font-size="14.00">Ordering.API</text>
</a>
</g>
</g>
<!-- #/domains/payment_processing/subdomains/payment_processors/boundedcontexts/payment_processor -->
<g id="node4" class="node">
<title>#/domains/payment_processing/subdomains/payment_processors/boundedcontexts/payment_processor</title>
<g id="a_node4"><a xlink:title="Simulated external payment processor.">
<polygon fill="white" stroke="black" points="171.32,-32.1 174.84,-32.3 178.33,-32.59 181.76,-32.98 185.13,-33.47 188.42,-34.05 191.63,-34.73 194.72,-35.5 197.71,-36.35 200.56,-37.29 203.28,-38.32 205.85,-39.43 208.27,-40.62 210.53,-41.88 212.62,-43.21 214.53,-44.61 216.26,-46.08 217.81,-47.6 219.17,-49.18 220.35,-50.82 221.34,-52.5 222.14,-54.22 222.75,-55.98 223.18,-57.77 223.42,-59.59 223.49,-61.44 223.38,-63.3 223.1,-65.17 222.66,-67.06 222.06,-68.94 221.31,-70.83 220.41,-72.7 219.38,-74.56 218.22,-76.41 216.94,-78.23 215.54,-80.02 214.03,-81.78 212.43,-83.5 210.74,-85.18 208.96,-86.82 207.11,-88.4 205.19,-89.92 203.21,-91.39 201.17,-92.79 199.09,-94.12 196.96,-95.38 194.79,-96.57 192.58,-97.68 190.35,-98.71 188.1,-99.65 185.82,-100.5 183.52,-101.27 181.21,-101.95 178.89,-102.53 176.56,-103.02 174.22,-103.41 171.88,-103.7 169.53,-103.9 167.18,-104 164.82,-104 162.47,-103.9 160.12,-103.7 157.78,-103.41 155.44,-103.02 153.11,-102.53 150.79,-101.95 148.48,-101.27 146.18,-100.5 143.9,-99.65 141.65,-98.71 139.42,-97.68 137.21,-96.57 135.04,-95.38 132.91,-94.12 130.83,-92.79 128.79,-91.39 126.81,-89.92 124.89,-88.4 123.04,-86.82 121.26,-85.18 119.57,-83.5 117.97,-81.78 116.46,-80.02 115.06,-78.23 113.78,-76.41 112.62,-74.56 111.59,-72.7 110.69,-70.83 109.94,-68.94 109.34,-67.06 108.9,-65.17 108.62,-63.3 108.51,-61.44 108.58,-59.59 108.82,-57.77 109.25,-55.98 109.86,-54.22 110.66,-52.5 111.65,-50.82 112.83,-49.18 114.19,-47.6 115.74,-46.08 117.47,-44.61 119.38,-43.21 121.47,-41.88 123.73,-40.62 126.15,-39.43 128.72,-38.32 131.44,-37.29 134.29,-36.35 137.28,-35.5 140.37,-34.73 143.58,-34.05 146.87,-33.47 150.24,-32.98 153.67,-32.59 157.16,-32.3 160.68,-32.1 164.22,-32 167.78,-32 171.32,-32.1"/>
<text xml:space="preserve" text-anchor="middle" x="166" y="-63.8" font-family="sans-serif" font-size="14.00">PaymentProcessor</text>
</a>
</g>
</g>
<!-- #/domains/commerce/subdomains/ordering/boundedcontexts/ordering.api&#45;&gt;#/domains/payment_processing/subdomains/payment_processors/boundedcontexts/payment_processor -->
<g id="edge3" class="edge">
<title>#/domains/commerce/subdomains/ordering/boundedcontexts/ordering.api&#45;&gt;#/domains/payment_processing/subdomains/payment_processors/boundedcontexts/payment_processor</title>
<path fill="none" stroke="black" d="M154.4,-184.21C152.22,-163.43 151.92,-136.79 153.48,-114.37"/>
<polygon fill="black" stroke="black" points="156.95,-114.86 154.34,-104.59 149.98,-114.25 156.95,-114.86"/>
<g id="a_edge3&#45;headlabel"><a xlink:title="open&#45;host&#45;service">
<text xml:space="preserve" text-anchor="middle" x="154.47" y="-100.08" font-family="sans-serif" font-size="10.00">OHS</text>
</a>
</g>
<g id="a_edge3&#45;taillabel"><a xlink:title="customer&#45;supplier">
<text xml:space="preserve" text-anchor="middle" x="154.4" y="-181.21" font-family="sans-serif" font-size="10.00">C/s</text>
</a>
</g>
</g>
<!-- #/domains/commerce/subdomains/ordering/boundedcontexts/ordering.api&#45;&gt;#/domains/payment_processing/subdomains/payment_processors/boundedcontexts/payment_processor -->
<g id="edge4" class="edge">
<title>#/domains/commerce/subdomains/ordering/boundedcontexts/ordering.api&#45;&gt;#/domains/payment_processing/subdomains/payment_processors/boundedcontexts/payment_processor</title>
<path fill="none" stroke="black" d="M177.6,-184.21C179.78,-163.43 180.08,-136.79 178.52,-114.37"/>
<polygon fill="black" stroke="black" points="182.02,-114.25 177.66,-104.59 175.05,-114.86 182.02,-114.25"/>
<g id="a_edge4&#45;headlabel"><a xlink:title="published&#45;language">
<text xml:space="preserve" text-anchor="middle" x="177.53" y="-100.08" font-family="sans-serif" font-size="10.00">PL</text>
</a>
</g>
<g id="a_edge4&#45;taillabel"><a xlink:title="conformist">
<text xml:space="preserve" text-anchor="middle" x="177.6" y="-181.21" font-family="sans-serif" font-size="10.00">C</text>
</a>
</g>
</g>
<!-- #/domains/edge_&amp;_experience/subdomains/mobile/boundedcontexts/experience_bff -->
<g id="node2" class="node">
<title>#/domains/edge_&amp;_experience/subdomains/mobile/boundedcontexts/experience_bff</title>
<g id="a_node2"><a xlink:title="BFF that aggregates catalog/basket/ordering.">
<polygon fill="white" stroke="black" points="94.32,-336.1 97.84,-336.3 101.33,-336.59 104.76,-336.98 108.13,-337.47 111.42,-338.05 114.63,-338.73 117.72,-339.5 120.71,-340.35 123.56,-341.29 126.28,-342.32 128.85,-343.43 131.27,-344.62 133.53,-345.88 135.62,-347.21 137.53,-348.61 139.26,-350.08 140.81,-351.6 142.17,-353.18 143.35,-354.82 144.34,-356.5 145.14,-358.22 145.75,-359.98 146.18,-361.77 146.42,-363.59 146.49,-365.44 146.38,-367.3 146.1,-369.17 145.66,-371.06 145.06,-372.94 144.31,-374.83 143.41,-376.7 142.38,-378.56 141.22,-380.41 139.94,-382.23 138.54,-384.02 137.03,-385.78 135.43,-387.5 133.74,-389.18 131.96,-390.82 130.11,-392.4 128.19,-393.92 126.21,-395.39 124.17,-396.79 122.09,-398.12 119.96,-399.38 117.79,-400.57 115.58,-401.68 113.35,-402.71 111.1,-403.65 108.82,-404.5 106.52,-405.27 104.21,-405.95 101.89,-406.53 99.56,-407.02 97.22,-407.41 94.88,-407.7 92.53,-407.9 90.18,-408 87.82,-408 85.47,-407.9 83.12,-407.7 80.78,-407.41 78.44,-407.02 76.11,-406.53 73.79,-405.95 71.48,-405.27 69.18,-404.5 66.9,-403.65 64.65,-402.71 62.42,-401.68 60.21,-400.57 58.04,-399.38 55.91,-398.12 53.83,-396.79 51.79,-395.39 49.81,-393.92 47.89,-392.4 46.04,-390.82 44.26,-389.18 42.57,-387.5 40.97,-385.78 39.46,-384.02 38.06,-382.23 36.78,-380.41 35.62,-378.56 34.59,-376.7 33.69,-374.83 32.94,-372.94 32.34,-371.06 31.9,-369.17 31.62,-367.3 31.51,-365.44 31.58,-363.59 31.82,-361.77 32.25,-359.98 32.86,-358.22 33.66,-356.5 34.65,-354.82 35.83,-353.18 37.19,-351.6 38.74,-350.08 40.47,-348.61 42.38,-347.21 44.47,-345.88 46.73,-344.62 49.15,-343.43 51.72,-342.32 54.44,-341.29 57.29,-340.35 60.28,-339.5 63.37,-338.73 66.58,-338.05 69.87,-337.47 73.24,-336.98 76.67,-336.59 80.16,-336.3 83.68,-336.1 87.22,-336 90.78,-336 94.32,-336.1"/>
<text xml:space="preserve" text-anchor="middle" x="89" y="-367.8" font-family="sans-serif" font-size="14.00">Experience BFF</text>
</a>
</g>
</g>
<!-- #/domains/edge_&amp;_experience/subdomains/mobile/boundedcontexts/experience_bff&#45;&gt;#/domains/commerce/subdomains/ordering/boundedcontexts/ordering.api -->
<g id="edge1" class="edge">
<title>#/domains/edge_&amp;_experience/subdomains/mobile/boundedcontexts/experience_bff&#45;&gt;#/domains/commerce/subdomains/ordering/boundedcontexts/ordering.api</title>
<path fill="none" stroke="black" d="M106.47,-336.96C117.55,-315.37 131.99,-287.26 143.87,-264.11"/>
<polygon fill="black" stroke="black" points="146.98,-265.71 148.43,-255.22 140.75,-262.52 146.98,-265.71"/>
<g id="a_edge1&#45;headlabel"><a xlink:title="open&#45;host&#45;service">
<text xml:space="preserve" text-anchor="middle" x="149.13" y="-250.87" font-family="sans-serif" font-size="10.00">OHS</text>
</a>
</g>
<g id="a_edge1&#45;taillabel"><a xlink:title="anti&#45;corruption&#45;layer">
<text xml:space="preserve" text-anchor="middle" x="106.47" y="-333.96" font-family="sans-serif" font-size="10.00">ACL</text>
</a>
</g>
</g>
<!-- #/domains/api_integration/subdomains/webhooks/boundedcontexts/webhooks.api -->
<g id="node3" class="node">
<title>#/domains/api_integration/subdomains/webhooks/boundedcontexts/webhooks.api</title>
<g id="a_node3"><a xlink:title="Register webhooks and deliver order events to subscribers.">
<polygon fill="white" stroke="black" points="248.32,-336.1 251.84,-336.3 255.33,-336.59 258.76,-336.98 262.13,-337.47 265.42,-338.05 268.63,-338.73 271.72,-339.5 274.71,-340.35 277.56,-341.29 280.28,-342.32 282.85,-343.43 285.27,-344.62 287.53,-345.88 289.62,-347.21 291.53,-348.61 293.26,-350.08 294.81,-351.6 296.17,-353.18 297.35,-354.82 298.34,-356.5 299.14,-358.22 299.75,-359.98 300.18,-361.77 300.42,-363.59 300.49,-365.44 300.38,-367.3 300.1,-369.17 299.66,-371.06 299.06,-372.94 298.31,-374.83 297.41,-376.7 296.38,-378.56 295.22,-380.41 293.94,-382.23 292.54,-384.02 291.03,-385.78 289.43,-387.5 287.74,-389.18 285.96,-390.82 284.11,-392.4 282.19,-393.92 280.21,-395.39 278.17,-396.79 276.09,-398.12 273.96,-399.38 271.79,-400.57 269.58,-401.68 267.35,-402.71 265.1,-403.65 262.82,-404.5 260.52,-405.27 258.21,-405.95 255.89,-406.53 253.56,-407.02 251.22,-407.41 248.88,-407.7 246.53,-407.9 244.18,-408 241.82,-408 239.47,-407.9 237.12,-407.7 234.78,-407.41 232.44,-407.02 230.11,-406.53 227.79,-405.95 225.48,-405.27 223.18,-404.5 220.9,-403.65 218.65,-402.71 216.42,-401.68 214.21,-400.57 212.04,-399.38 209.91,-398.12 207.83,-396.79 205.79,-395.39 203.81,-393.92 201.89,-392.4 200.04,-390.82 198.26,-389.18 196.57,-387.5 194.97,-385.78 193.46,-384.02 192.06,-382.23 190.78,-380.41 189.62,-378.56 188.59,-376.7 187.69,-374.83 186.94,-372.94 186.34,-371.06 185.9,-369.17 185.62,-367.3 185.51,-365.44 185.58,-363.59 185.82,-361.77 186.25,-359.98 186.86,-358.22 187.66,-356.5 188.65,-354.82 189.83,-353.18 191.19,-351.6 192.74,-350.08 194.47,-348.61 196.38,-347.21 198.47,-345.88 200.73,-344.62 203.15,-343.43 205.72,-342.32 208.44,-341.29 211.29,-340.35 214.28,-339.5 217.37,-338.73 220.58,-338.05 223.87,-337.47 227.24,-336.98 230.67,-336.59 234.16,-336.3 237.68,-336.1 241.22,-336 244.78,-336 248.32,-336.1"/>
<text xml:space="preserve" text-anchor="middle" x="243" y="-367.8" font-family="sans-serif" font-size="14.00">Webhooks.API</text>
</a>
</g>
</g>
<!-- #/domains/api_integration/subdomains/webhooks/boundedcontexts/webhooks.api&#45;&gt;#/domains/commerce/subdomains/ordering/boundedcontexts/ordering.api -->
<g id="edge2" class="edge">
<title>#/domains/api_integration/subdomains/webhooks/boundedcontexts/webhooks.api&#45;&gt;#/domains/commerce/subdomains/ordering/boundedcontexts/ordering.api</title>
<path fill="none" stroke="black" d="M225.53,-336.96C214.45,-315.37 200.01,-287.26 188.13,-264.11"/>
<polygon fill="black" stroke="black" points="191.25,-262.52 183.57,-255.22 185.02,-265.71 191.25,-262.52"/>
<g id="a_edge2&#45;headlabel"><a xlink:title="published&#45;language">
<text xml:space="preserve" text-anchor="middle" x="182.87" y="-250.87" font-family="sans-serif" font-size="10.00">PL</text>
</a>
</g>
<g id="a_edge2&#45;taillabel"><a xlink:title="conformist">
<text xml:space="preserve" text-anchor="middle" x="225.53" y="-333.96" font-family="sans-serif" font-size="10.00">C</text>
</a>
</g>
</g>
</g>
</svg>
