<?xml version="1.0" encoding="UTF-8" standalone="no"?>
<?xml-stylesheet href="data:text/css,.graph%20text%20%7B%0A%09font-family%3A%20sans-serif%3B%0A%09stroke%3A%20white%3B%0A%09paint-order%3A%20stroke%3B%0A%09stroke-width%3A%203%3B%0A%09stroke-linecap%3A%20square%3B%0A%7D%0A%0A.namespace%20polygon%20%7B%0A%09fill-opacity%3A%200.2%3B%0A%09stroke%3A%20none%3B%0A%7D%0A" type="text/css"?>
<!DOCTYPE svg PUBLIC "-//W3C//DTD SVG 1.1//EN"
 "http://www.w3.org/Graphics/SVG/1.1/DTD/svg11.dtd">
<!-- Generated by graphviz version 13.1.2 (0)
 -->
<!-- Pages: 1 -->
<svg width="334pt" height="544pt"
 viewBox="0.00 0.00 334.00 544.00" xmlns="http://www.w3.org/2000/svg" xmlns:xlink="http://www.w3.org/1999/xlink">
<g id="graph0" class="graph" transform="scale(1 1) rotate(0) translate(4 540)">
<polygon fill="white" stroke="none" points="-4,4 -4,-540 330,-540 330,4 -4,4"/>
<g id="clust1" class="cluster namespace">
<title>e_shop</title>
<polygon fill="lightgrey" stroke="lightgrey" points="8,-8 8,-528 318,-528 318,-8 8,-8"/>
<text xml:space="preserve" text-anchor="middle" x="163" y="-515" font-family="sans-serif" font-size="10.00">eShop</text>
</g>
<g id="clust2" class="cluster namespace">
<title>#/domains/commerce</title>
<polygon fill="lightgrey" stroke="lightgrey" points="28,-28 28,-244 298,-244 298,-28 28,-28"/>
<text xml:space="preserve" text-anchor="middle" x="163" y="-231" font-family="sans-serif" font-size="10.00">Commerce</text>
</g>
<g id="clust3" class="cluster namespace">
<title>#/domains/commerce/subdomains/catalog</title>
<polygon fill="lightgrey" stroke="lightgrey" points="48,-48 48,-204 278,-204 278,-48 48,-48"/>
<text xml:space="preserve" text-anchor="middle" x="163" y="-191" font-family="sans-serif" font-size="10.00">Catalog</text>
</g>
<g id="clust4" class="cluster namespace">
<title>#/domains/commerce/subdomains/catalog/boundedcontexts/catalog.api</title>
<polygon fill="lightgrey" stroke="lightgrey" points="68,-68 68,-164 258,-164 258,-68 68,-68"/>
<text xml:space="preserve" text-anchor="middle" x="163" y="-151" font-family="sans-serif" font-size="10.00">Catalog.API</text>
</g>
<g id="clust5" class="cluster namespace">
<title>#/domains/edge_&amp;_experience</title>
<polygon fill="lightgrey" stroke="lightgrey" points="46,-272 46,-488 280,-488 280,-272 46,-272"/>
<text xml:space="preserve" text-anchor="middle" x="163" y="-475" font-family="sans-serif" font-size="10.00">Edge &amp; Experience</text>
</g>
<g id="clust6" class="cluster namespace">
<title>#/domains/edge_&amp;_experience/subdomains/backoffice</title>
<polygon fill="lightgrey" stroke="lightgrey" points="66,-292 66,-448 260,-448 260,-292 66,-292"/>
<text xml:space="preserve" text-anchor="middle" x="163" y="-435" font-family="sans-serif" font-size="10.00">Backoffice</text>
</g>
<g id="clust7" class="cluster namespace">
<title>#/domains/edge_&amp;_experience/subdomains/backoffice/boundedcontexts/backoffice_app</title>
<polygon fill="lightgrey" stroke="lightgrey" points="86,-312 86,-408 240,-408 240,-312 86,-312"/>
<text xml:space="preserve" text-anchor="middle" x="163" y="-395" font-family="sans-serif" font-size="10.00">BackofficeApp</text>
</g>
<!-- #/domains/commerce/subdomains/catalog/boundedcontexts/catalog.api/services/catalog_service -->
<g id="node1" class="node">
<title>#/domains/commerce/subdomains/catalog/boundedcontexts/catalog.api/services/catalog_service</title>
<g id="a_node1"><a xlink:title="Catalog application service (HTTP).">
<polygon fill="white" stroke="black" points="169.9,-88.05 174.47,-88.15 178.99,-88.3 183.45,-88.49 187.82,-88.74 192.09,-89.03 196.24,-89.36 200.26,-89.75 204.13,-90.18 207.84,-90.65 211.37,-91.16 214.7,-91.71 217.84,-92.31 220.77,-92.94 223.48,-93.61 225.96,-94.31 228.2,-95.04 230.21,-95.8 231.98,-96.59 233.51,-97.41 234.79,-98.25 235.83,-99.11 236.62,-99.99 237.17,-100.89 237.49,-101.8 237.58,-102.72 237.44,-103.65 237.08,-104.59 236.5,-105.53 235.72,-106.47 234.75,-107.41 233.59,-108.35 232.25,-109.28 230.74,-110.2 229.08,-111.11 227.27,-112.01 225.32,-112.89 223.24,-113.75 221.04,-114.59 218.74,-115.41 216.34,-116.2 213.84,-116.96 211.27,-117.69 208.63,-118.39 205.92,-119.06 203.16,-119.69 200.34,-120.29 197.49,-120.84 194.59,-121.35 191.66,-121.82 188.71,-122.25 185.73,-122.64 182.74,-122.97 179.72,-123.26 176.7,-123.51 173.66,-123.7 170.62,-123.85 167.58,-123.95 164.53,-124 161.47,-124 158.42,-123.95 155.38,-123.85 152.34,-123.7 149.3,-123.51 146.28,-123.26 143.26,-122.97 140.27,-122.64 137.29,-122.25 134.34,-121.82 131.41,-121.35 128.51,-120.84 125.66,-120.29 122.84,-119.69 120.08,-119.06 117.37,-118.39 114.73,-117.69 112.16,-116.96 109.66,-116.2 107.26,-115.41 104.96,-114.59 102.76,-113.75 100.68,-112.89 98.73,-112.01 96.92,-111.11 95.26,-110.2 93.75,-109.28 92.41,-108.35 91.25,-107.41 90.28,-106.47 89.5,-105.53 88.92,-104.59 88.56,-103.65 88.42,-102.72 88.51,-101.8 88.83,-100.89 89.38,-99.99 90.17,-99.11 91.21,-98.25 92.49,-97.41 94.02,-96.59 95.79,-95.8 97.8,-95.04 100.04,-94.31 102.52,-93.61 105.23,-92.94 108.16,-92.31 111.3,-91.71 114.63,-91.16 118.16,-90.65 121.87,-90.18 125.74,-89.75 129.76,-89.36 133.91,-89.03 138.18,-88.74 142.55,-88.49 147.01,-88.3 151.53,-88.15 156.1,-88.05 160.7,-88 165.3,-88 169.9,-88.05"/>
<text xml:space="preserve" text-anchor="middle" x="163" y="-101.8" font-family="sans-serif" font-size="14.00">CatalogService</text>
</a>
</g>
</g>
<!-- #/domains/edge_&amp;_experience/subdomains/backoffice/boundedcontexts/backoffice_app/services/backoffice -->
<g id="node2" class="node">
<title>#/domains/edge_&amp;_experience/subdomains/backoffice/boundedcontexts/backoffice_app/services/backoffice</title>
<g id="a_node2"><a xlink:title="Admin/demo app for price updates.">
<polygon fill="white" stroke="black" points="168.26,-332.05 171.75,-332.15 175.19,-332.3 178.59,-332.49 181.92,-332.74 185.18,-333.03 188.35,-333.36 191.41,-333.75 194.36,-334.18 197.19,-334.65 199.88,-335.16 202.42,-335.71 204.81,-336.31 207.04,-336.94 209.11,-337.61 211,-338.31 212.71,-339.04 214.25,-339.8 215.6,-340.59 216.76,-341.41 217.74,-342.25 218.53,-343.11 219.13,-343.99 219.55,-344.89 219.8,-345.8 219.86,-346.72 219.75,-347.65 219.48,-348.59 219.04,-349.53 218.45,-350.47 217.71,-351.41 216.82,-352.35 215.8,-353.28 214.65,-354.2 213.38,-355.11 212,-356.01 210.51,-356.89 208.93,-357.75 207.25,-358.59 205.5,-359.41 203.67,-360.2 201.77,-360.96 199.81,-361.69 197.79,-362.39 195.73,-363.06 193.62,-363.69 191.47,-364.29 189.29,-364.84 187.09,-365.35 184.86,-365.82 182.6,-366.25 180.33,-366.64 178.05,-366.97 175.75,-367.26 173.45,-367.51 171.13,-367.7 168.81,-367.85 166.49,-367.95 164.16,-368 161.84,-368 159.51,-367.95 157.19,-367.85 154.87,-367.7 152.55,-367.51 150.25,-367.26 147.95,-366.97 145.67,-366.64 143.4,-366.25 141.14,-365.82 138.91,-365.35 136.71,-364.84 134.53,-364.29 132.38,-363.69 130.27,-363.06 128.21,-362.39 126.19,-361.69 124.23,-360.96 122.33,-360.2 120.5,-359.41 118.75,-358.59 117.07,-357.75 115.49,-356.89 114,-356.01 112.62,-355.11 111.35,-354.2 110.2,-353.28 109.18,-352.35 108.29,-351.41 107.55,-350.47 106.96,-349.53 106.52,-348.59 106.25,-347.65 106.14,-346.72 106.2,-345.8 106.45,-344.89 106.87,-343.99 107.47,-343.11 108.26,-342.25 109.24,-341.41 110.4,-340.59 111.75,-339.8 113.29,-339.04 115,-338.31 116.89,-337.61 118.96,-336.94 121.19,-336.31 123.58,-335.71 126.12,-335.16 128.81,-334.65 131.64,-334.18 134.59,-333.75 137.65,-333.36 140.82,-333.03 144.08,-332.74 147.41,-332.49 150.81,-332.3 154.25,-332.15 157.74,-332.05 161.24,-332 164.76,-332 168.26,-332.05"/>
<text xml:space="preserve" text-anchor="middle" x="163" y="-345.8" font-family="sans-serif" font-size="14.00">Backoffice</text>
</a>
</g>
</g>
<!-- #/domains/edge_&amp;_experience/subdomains/backoffice/boundedcontexts/backoffice_app/services/backoffice&#45;&gt;#/domains/commerce/subdomains/catalog/boundedcontexts/catalog.api/services/catalog_service -->
<g id="edge1" class="edge">
<title>#/domains/edge_&amp;_experience/subdomains/backoffice/boundedcontexts/backoffice_app/services/backoffice&#45;&gt;#/domains/commerce/subdomains/catalog/boundedcontexts/catalog.api/services/catalog_service</title>
<path fill="none" stroke="black" d="M163,-331.6C163,-290.35 163,-186.31 163,-135.63"/>
<polygon fill="black" stroke="black" points="166.5,-135.76 163,-125.76 159.5,-135.76 166.5,-135.76"/>
<text xml:space="preserve" text-anchor="middle" x="188.55" y="-255" font-family="sans-serif" font-size="10.00">ChangePrice</text>
<g id="a_edge1&#45;headlabel"><a xlink:title="open&#45;host&#45;service">
<text xml:space="preserve" text-anchor="middle" x="163" y="-121.25" font-family="sans-serif" font-size="10.00">OHS</text>
</a>
</g>
<g id="a_edge1&#45;taillabel"><a xlink:title="customer&#45;supplier">
<text xml:space="preserve" text-anchor="middle" x="163" y="-328.6" font-family="sans-serif" font-size="10.00">C/s</text>
</a>
</g>
</g>
</g>
</svg>
