<?xml version="1.0" encoding="UTF-8" standalone="no"?>
<?xml-stylesheet href="data:text/css,.graph%20text%20%7B%0A%09font-family%3A%20sans-serif%3B%0A%09stroke%3A%20white%3B%0A%09paint-order%3A%20stroke%3B%0A%09stroke-width%3A%203%3B%0A%09stroke-linecap%3A%20square%3B%0A%7D%0A%0A.namespace%20polygon%20%7B%0A%09fill-opacity%3A%200.2%3B%0A%09stroke%3A%20none%3B%0A%7D%0A" type="text/css"?>
<!DOCTYPE svg PUBLIC "-//W3C//DTD SVG 1.1//EN"
 "http://www.w3.org/Graphics/SVG/1.1/DTD/svg11.dtd">
<!-- Generated by graphviz version 13.1.2 (0)
 -->
<!-- Pages: 1 -->
<svg width="512pt" height="616pt"
 viewBox="0.00 0.00 512.00 616.00" xmlns="http://www.w3.org/2000/svg" xmlns:xlink="http://www.w3.org/1999/xlink">
<g id="graph0" class="graph" transform="scale(1 1) rotate(0) translate(4 612)">
<polygon fill="white" stroke="none" points="-4,4 -4,-612 508,-612 508,4 -4,4"/>
<g id="clust1" class="cluster namespace">
<title>e_shop</title>
<polygon fill="lightgrey" stroke="lightgrey" points="8,-8 8,-600 496,-600 496,-8 8,-8"/>
<text xml:space="preserve" text-anchor="middle" x="252" y="-587" font-family="sans-serif" font-size="10.00">eShop</text>
</g>
<g id="clust2" class="cluster namespace">
<title>#/domains/identity_&amp;_access</title>
<polygon fill="lightgrey" stroke="lightgrey" points="108,-28 108,-280 344,-280 344,-28 108,-28"/>
<text xml:space="preserve" text-anchor="middle" x="226" y="-267" font-family="sans-serif" font-size="10.00">Identity &amp; Access</text>
</g>
<g id="clust3" class="cluster namespace">
<title>#/domains/identity_&amp;_access/subdomains/auth_n_and_auth_z</title>
<polygon fill="lightgrey" stroke="lightgrey" points="128,-48 128,-240 324,-240 324,-48 128,-48"/>
<text xml:space="preserve" text-anchor="middle" x="226" y="-227" font-family="sans-serif" font-size="10.00">AuthN and AuthZ</text>
</g>
<g id="clust4" class="cluster namespace">
<title>#/domains/identity_&amp;_access/subdomains/auth_n_and_auth_z/boundedcontexts/identity</title>
<polygon fill="lightgrey" stroke="lightgrey" points="148,-68 148,-200 304,-200 304,-68 148,-68"/>
<text xml:space="preserve" text-anchor="middle" x="226" y="-187" font-family="sans-serif" font-size="10.00">Identity</text>
</g>
<g id="clust5" class="cluster namespace">
<title>#/domains/edge_&amp;_experience</title>
<polygon fill="lightgrey" stroke="lightgrey" points="28,-308 28,-560 476,-560 476,-308 28,-308"/>
<text xml:space="preserve" text-anchor="middle" x="252" y="-547" font-family="sans-serif" font-size="10.00">Edge &amp; Experience</text>
</g>
<g id="clust6" class="cluster namespace">
<title>#/domains/edge_&amp;_experience/subdomains/web</title>
<polygon fill="lightgrey" stroke="lightgrey" points="48,-328 48,-520 242,-520 242,-328 48,-328"/>
<text xml:space="preserve" text-anchor="middle" x="145" y="-507" font-family="sans-serif" font-size="10.00">Web</text>
</g>
<g id="clust7" class="cluster namespace">
<title>#/domains/edge_&amp;_experience/subdomains/web/boundedcontexts/web</title>
<polygon fill="lightgrey" stroke="lightgrey" points="68,-348 68,-480 222,-480 222,-348 68,-348"/>
<text xml:space="preserve" text-anchor="middle" x="145" y="-467" font-family="sans-serif" font-size="10.00">Web</text>
</g>
<g id="clust8" class="cluster namespace">
<title>#/domains/edge_&amp;_experience/subdomains/mobile</title>
<polygon fill="lightgrey" stroke="lightgrey" points="262,-328 262,-520 456,-520 456,-328 262,-328"/>
<text xml:space="preserve" text-anchor="middle" x="359" y="-507" font-family="sans-serif" font-size="10.00">Mobile</text>
</g>
<g id="clust9" class="cluster namespace">
<title>#/domains/edge_&amp;_experience/subdomains/mobile/boundedcontexts/mobile_bff</title>
<polygon fill="lightgrey" stroke="lightgrey" points="282,-348 282,-480 436,-480 436,-348 282,-348"/>
<text xml:space="preserve" text-anchor="middle" x="359" y="-467" font-family="sans-serif" font-size="10.00">Mobile BFF</text>
</g>
<!-- #/domains/identity_&amp;_access/subdomains/auth_n_and_auth_z/boundedcontexts/identity/services/identity_service -->
<g id="node1" class="node">
<title>#/domains/identity_&amp;_access/subdomains/auth_n_and_auth_z/boundedcontexts/identity/services/identity_service</title>
<g id="a_node1"><a xlink:title="Token service for authN/authZ.">
<polygon fill="white" stroke="black" points="231.33,-88.1 234.86,-88.3 238.35,-88.59 241.79,-88.98 245.16,-89.47 248.46,-90.05 251.67,-90.73 254.77,-91.5 257.76,-92.35 260.62,-93.29 263.34,-94.32 265.92,-95.43 268.34,-96.62 270.6,-97.88 272.69,-99.21 274.61,-100.61 276.35,-102.08 277.9,-103.6 279.26,-105.18 280.44,-106.82 281.43,-108.5 282.23,-110.22 282.84,-111.98 283.27,-113.77 283.52,-115.59 283.58,-117.44 283.47,-119.3 283.19,-121.17 282.75,-123.06 282.15,-124.94 281.4,-126.83 280.5,-128.7 279.47,-130.56 278.31,-132.41 277.02,-134.23 275.62,-136.02 274.11,-137.78 272.51,-139.5 270.81,-141.18 269.04,-142.82 267.18,-144.4 265.26,-145.92 263.27,-147.39 261.23,-148.79 259.14,-150.12 257.01,-151.38 254.83,-152.57 252.63,-153.68 250.39,-154.71 248.13,-155.65 245.85,-156.5 243.55,-157.27 241.24,-157.95 238.91,-158.53 236.58,-159.02 234.23,-159.41 231.89,-159.7 229.53,-159.9 227.18,-160 224.82,-160 222.47,-159.9 220.11,-159.7 217.77,-159.41 215.42,-159.02 213.09,-158.53 210.76,-157.95 208.45,-157.27 206.15,-156.5 203.87,-155.65 201.61,-154.71 199.37,-153.68 197.17,-152.57 194.99,-151.38 192.86,-150.12 190.77,-148.79 188.73,-147.39 186.74,-145.92 184.82,-144.4 182.96,-142.82 181.19,-141.18 179.49,-139.5 177.89,-137.78 176.38,-136.02 174.98,-134.23 173.69,-132.41 172.53,-130.56 171.5,-128.7 170.6,-126.83 169.85,-124.94 169.25,-123.06 168.81,-121.17 168.53,-119.3 168.42,-117.44 168.48,-115.59 168.73,-113.77 169.16,-111.98 169.77,-110.22 170.57,-108.5 171.56,-106.82 172.74,-105.18 174.1,-103.6 175.65,-102.08 177.39,-100.61 179.31,-99.21 181.4,-97.88 183.66,-96.62 186.08,-95.43 188.66,-94.32 191.38,-93.29 194.24,-92.35 197.23,-91.5 200.33,-90.73 203.54,-90.05 206.84,-89.47 210.21,-88.98 213.65,-88.59 217.14,-88.3 220.67,-88.1 224.22,-88 227.78,-88 231.33,-88.1"/>
<text xml:space="preserve" text-anchor="middle" x="226" y="-119.8" font-family="sans-serif" font-size="14.00">IdentityService</text>
</a>
</g>
</g>
<!-- #/domains/edge_&amp;_experience/subdomains/web/boundedcontexts/web/services/web_app -->
<g id="node2" class="node">
<title>#/domains/edge_&amp;_experience/subdomains/web/boundedcontexts/web/services/web_app</title>
<g id="a_node2"><a xlink:title="Blazor Server web app for customers.">
<polygon fill="white" stroke="black" points="150.32,-368.1 153.84,-368.3 157.33,-368.59 160.76,-368.98 164.13,-369.47 167.42,-370.05 170.63,-370.73 173.72,-371.5 176.71,-372.35 179.56,-373.29 182.28,-374.32 184.85,-375.43 187.27,-376.62 189.53,-377.88 191.62,-379.21 193.53,-380.61 195.26,-382.08 196.81,-383.6 198.17,-385.18 199.35,-386.82 200.34,-388.5 201.14,-390.22 201.75,-391.98 202.18,-393.77 202.42,-395.59 202.49,-397.44 202.38,-399.3 202.1,-401.17 201.66,-403.06 201.06,-404.94 200.31,-406.83 199.41,-408.7 198.38,-410.56 197.22,-412.41 195.94,-414.23 194.54,-416.02 193.03,-417.78 191.43,-419.5 189.74,-421.18 187.96,-422.82 186.11,-424.4 184.19,-425.92 182.21,-427.39 180.17,-428.79 178.09,-430.12 175.96,-431.38 173.79,-432.57 171.58,-433.68 169.35,-434.71 167.1,-435.65 164.82,-436.5 162.52,-437.27 160.21,-437.95 157.89,-438.53 155.56,-439.02 153.22,-439.41 150.88,-439.7 148.53,-439.9 146.18,-440 143.82,-440 141.47,-439.9 139.12,-439.7 136.78,-439.41 134.44,-439.02 132.11,-438.53 129.79,-437.95 127.48,-437.27 125.18,-436.5 122.9,-435.65 120.65,-434.71 118.42,-433.68 116.21,-432.57 114.04,-431.38 111.91,-430.12 109.83,-428.79 107.79,-427.39 105.81,-425.92 103.89,-424.4 102.04,-422.82 100.26,-421.18 98.57,-419.5 96.97,-417.78 95.46,-416.02 94.06,-414.23 92.78,-412.41 91.62,-410.56 90.59,-408.7 89.69,-406.83 88.94,-404.94 88.34,-403.06 87.9,-401.17 87.62,-399.3 87.51,-397.44 87.58,-395.59 87.82,-393.77 88.25,-391.98 88.86,-390.22 89.66,-388.5 90.65,-386.82 91.83,-385.18 93.19,-383.6 94.74,-382.08 96.47,-380.61 98.38,-379.21 100.47,-377.88 102.73,-376.62 105.15,-375.43 107.72,-374.32 110.44,-373.29 113.29,-372.35 116.28,-371.5 119.37,-370.73 122.58,-370.05 125.87,-369.47 129.24,-368.98 132.67,-368.59 136.16,-368.3 139.68,-368.1 143.22,-368 146.78,-368 150.32,-368.1"/>
<text xml:space="preserve" text-anchor="middle" x="145" y="-399.8" font-family="sans-serif" font-size="14.00">WebApp</text>
</a>
</g>
</g>
<!-- #/domains/edge_&amp;_experience/subdomains/web/boundedcontexts/web/services/web_app&#45;&gt;#/domains/identity_&amp;_access/subdomains/auth_n_and_auth_z/boundedcontexts/identity/services/identity_service -->
<g id="edge1" class="edge">
<title>#/domains/edge_&amp;_experience/subdomains/web/boundedcontexts/web/services/web_app&#45;&gt;#/domains/identity_&amp;_access/subdomains/auth_n_and_auth_z/boundedcontexts/identity/services/identity_service</title>
<path fill="none" stroke="black" d="M155.18,-368.07C169.77,-318 196.64,-225.78 212.76,-170.45"/>
<polygon fill="black" stroke="black" points="216.07,-171.6 215.51,-161.02 209.35,-169.64 216.07,-171.6"/>
<text xml:space="preserve" text-anchor="middle" x="201.29" y="-291" font-family="sans-serif" font-size="10.00">IssueToken</text>
<g id="a_edge1&#45;headlabel"><a xlink:title="open&#45;host&#45;service">
<text xml:space="preserve" text-anchor="middle" x="215.93" y="-156.57" font-family="sans-serif" font-size="10.00">OHS</text>
</a>
</g>
<g id="a_edge1&#45;taillabel"><a xlink:title="customer&#45;supplier">
<text xml:space="preserve" text-anchor="middle" x="155.18" y="-365.07" font-family="sans-serif" font-size="10.00">C/s</text>
</a>
</g>
</g>
<!-- #/domains/edge_&amp;_experience/subdomains/mobile/boundedcontexts/mobile_bff/services/shopping_bff -->
<g id="node3" class="node">
<title>#/domains/edge_&amp;_experience/subdomains/mobile/boundedcontexts/mobile_bff/services/shopping_bff</title>
<g id="a_node3"><a xlink:title="BFF that aggregates catalog/basket/ordering.">
<polygon fill="white" stroke="black" points="364.32,-368.1 367.84,-368.3 371.33,-368.59 374.76,-368.98 378.13,-369.47 381.42,-370.05 384.63,-370.73 387.72,-371.5 390.71,-372.35 393.56,-373.29 396.28,-374.32 398.85,-375.43 401.27,-376.62 403.53,-377.88 405.62,-379.21 407.53,-380.61 409.26,-382.08 410.81,-383.6 412.17,-385.18 413.35,-386.82 414.34,-388.5 415.14,-390.22 415.75,-391.98 416.18,-393.77 416.42,-395.59 416.49,-397.44 416.38,-399.3 416.1,-401.17 415.66,-403.06 415.06,-404.94 414.31,-406.83 413.41,-408.7 412.38,-410.56 411.22,-412.41 409.94,-414.23 408.54,-416.02 407.03,-417.78 405.43,-419.5 403.74,-421.18 401.96,-422.82 400.11,-424.4 398.19,-425.92 396.21,-427.39 394.17,-428.79 392.09,-430.12 389.96,-431.38 387.79,-432.57 385.58,-433.68 383.35,-434.71 381.1,-435.65 378.82,-436.5 376.52,-437.27 374.21,-437.95 371.89,-438.53 369.56,-439.02 367.22,-439.41 364.88,-439.7 362.53,-439.9 360.18,-440 357.82,-440 355.47,-439.9 353.12,-439.7 350.78,-439.41 348.44,-439.02 346.11,-438.53 343.79,-437.95 341.48,-437.27 339.18,-436.5 336.9,-435.65 334.65,-434.71 332.42,-433.68 330.21,-432.57 328.04,-431.38 325.91,-430.12 323.83,-428.79 321.79,-427.39 319.81,-425.92 317.89,-424.4 316.04,-422.82 314.26,-421.18 312.57,-419.5 310.97,-417.78 309.46,-416.02 308.06,-414.23 306.78,-412.41 305.62,-410.56 304.59,-408.7 303.69,-406.83 302.94,-404.94 302.34,-403.06 301.9,-401.17 301.62,-399.3 301.51,-397.44 301.58,-395.59 301.82,-393.77 302.25,-391.98 302.86,-390.22 303.66,-388.5 304.65,-386.82 305.83,-385.18 307.19,-383.6 308.74,-382.08 310.47,-380.61 312.38,-379.21 314.47,-377.88 316.73,-376.62 319.15,-375.43 321.72,-374.32 324.44,-373.29 327.29,-372.35 330.28,-371.5 333.37,-370.73 336.58,-370.05 339.87,-369.47 343.24,-368.98 346.67,-368.59 350.16,-368.3 353.68,-368.1 357.22,-368 360.78,-368 364.32,-368.1"/>
<text xml:space="preserve" text-anchor="middle" x="359" y="-399.8" font-family="sans-serif" font-size="14.00">ShoppingBff</text>
</a>
</g>
</g>
<!-- #/domains/edge_&amp;_experience/subdomains/mobile/boundedcontexts/mobile_bff/services/shopping_bff&#45;&gt;#/domains/identity_&amp;_access/subdomains/auth_n_and_auth_z/boundedcontexts/identity/services/identity_service -->
<g id="edge2" class="edge">
<title>#/domains/edge_&amp;_experience/subdomains/mobile/boundedcontexts/mobile_bff/services/shopping_bff&#45;&gt;#/domains/identity_&amp;_access/subdomains/auth_n_and_auth_z/boundedcontexts/identity/services/identity_service</title>
<path fill="none" stroke="black" d="M342.56,-368.63C318.33,-318 273.08,-223.4 246.65,-168.16"/>
<polygon fill="black" stroke="black" points="249.91,-166.87 242.44,-159.36 243.6,-169.89 249.91,-166.87"/>
<text xml:space="preserve" text-anchor="middle" x="331.37" y="-291" font-family="sans-serif" font-size="10.00">IssueToken</text>
<g id="a_edge2&#45;headlabel"><a xlink:title="open&#45;host&#45;service">
<text xml:space="preserve" text-anchor="middle" x="241.78" y="-154.99" font-family="sans-serif" font-size="10.00">OHS</text>
</a>
</g>
<g id="a_edge2&#45;taillabel"><a xlink:title="customer&#45;supplier">
<text xml:space="preserve" text-anchor="middle" x="342.56" y="-365.63" font-family="sans-serif" font-size="10.00">C/s</text>
</a>
</g>
</g>
</g>
</svg>
