<?xml version="1.0" encoding="UTF-8" standalone="no"?>
<?xml-stylesheet href="data:text/css,.graph%20text%20%7B%0A%09font-family%3A%20sans-serif%3B%0A%09stroke%3A%20white%3B%0A%09paint-order%3A%20stroke%3B%0A%09stroke-width%3A%203%3B%0A%09stroke-linecap%3A%20square%3B%0A%7D%0A%0A.namespace%20polygon%20%7B%0A%09fill-opacity%3A%200.2%3B%0A%09stroke%3A%20none%3B%0A%7D%0A" type="text/css"?>
<!DOCTYPE svg PUBLIC "-//W3C//DTD SVG 1.1//EN"
 "http://www.w3.org/Graphics/SVG/1.1/DTD/svg11.dtd">
<!-- Generated by graphviz version 13.1.2 (0)
 -->
<!-- Pages: 1 -->
<svg width="1208pt" height="932pt"
 viewBox="0.00 0.00 1208.00 932.00" xmlns="http://www.w3.org/2000/svg" xmlns:xlink="http://www.w3.org/1999/xlink">
<g id="graph0" class="graph" transform="scale(1 1) rotate(0) translate(4 928)">
<polygon fill="white" stroke="none" points="-4,4 -4,-928 1204,-928 1204,4 -4,4"/>
<g id="clust1" class="cluster namespace">
<title>e_shop_on_containers</title>
<polygon fill="lightgrey" stroke="lightgrey" points="8,-8 8,-916 1192,-916 1192,-8 8,-8"/>
<text xml:space="preserve" text-anchor="middle" x="600" y="-903" font-family="sans-serif" font-size="10.00">eShopOnContainers</text>
</g>
<g id="clust2" class="cluster namespace">
<title>#/domains/commerce</title>
<polygon fill="lightgrey" stroke="lightgrey" points="28,-28 28,-876 306,-876 306,-28 28,-28"/>
<text xml:space="preserve" text-anchor="middle" x="167" y="-863" font-family="sans-serif" font-size="10.00">Commerce</text>
</g>
<g id="clust3" class="cluster namespace">
<title>#/domains/commerce/subdomains/sales</title>
<polygon fill="lightgrey" stroke="lightgrey" points="72,-476 72,-632 286,-632 286,-476 72,-476"/>
<text xml:space="preserve" text-anchor="middle" x="179" y="-619" font-family="sans-serif" font-size="10.00">Sales</text>
</g>
<g id="clust4" class="cluster namespace">
<title>#/domains/commerce/subdomains/sales/boundedcontexts/ordering</title>
<polygon fill="lightgrey" stroke="lightgrey" points="92,-496 92,-592 266,-592 266,-496 92,-496"/>
<text xml:space="preserve" text-anchor="middle" x="179" y="-579" font-family="sans-serif" font-size="10.00">Ordering</text>
</g>
<g id="clust5" class="cluster namespace">
<title>#/domains/commerce/subdomains/shopping</title>
<polygon fill="lightgrey" stroke="lightgrey" points="56,-252 56,-408 278,-408 278,-252 56,-252"/>
<text xml:space="preserve" text-anchor="middle" x="167" y="-395" font-family="sans-serif" font-size="10.00">Shopping</text>
</g>
<g id="clust6" class="cluster namespace">
<title>#/domains/commerce/subdomains/shopping/boundedcontexts/basket</title>
<polygon fill="lightgrey" stroke="lightgrey" points="76,-272 76,-368 258,-368 258,-272 76,-272"/>
<text xml:space="preserve" text-anchor="middle" x="167" y="-355" font-family="sans-serif" font-size="10.00">Basket</text>
</g>
<g id="clust7" class="cluster namespace">
<title>#/domains/commerce/subdomains/payments</title>
<polygon fill="lightgrey" stroke="lightgrey" points="48,-680 48,-836 286,-836 286,-680 48,-680"/>
<text xml:space="preserve" text-anchor="middle" x="167" y="-823" font-family="sans-serif" font-size="10.00">Payments</text>
</g>
<g id="clust8" class="cluster namespace">
<title>#/domains/commerce/subdomains/payments/boundedcontexts/payment</title>
<polygon fill="lightgrey" stroke="lightgrey" points="68,-700 68,-796 266,-796 266,-700 68,-700"/>
<text xml:space="preserve" text-anchor="middle" x="167" y="-783" font-family="sans-serif" font-size="10.00">Payment</text>
</g>
<g id="clust9" class="cluster namespace">
<title>#/domains/commerce/subdomains/cataloging</title>
<polygon fill="lightgrey" stroke="lightgrey" points="52,-48 52,-204 282,-204 282,-48 52,-48"/>
<text xml:space="preserve" text-anchor="middle" x="167" y="-191" font-family="sans-serif" font-size="10.00">Cataloging</text>
</g>
<g id="clust10" class="cluster namespace">
<title>#/domains/commerce/subdomains/cataloging/boundedcontexts/catalog</title>
<polygon fill="lightgrey" stroke="lightgrey" points="72,-68 72,-164 262,-164 262,-68 72,-68"/>
<text xml:space="preserve" text-anchor="middle" x="167" y="-151" font-family="sans-serif" font-size="10.00">Catalog</text>
</g>
<g id="clust11" class="cluster namespace">
<title>#/domains/integration</title>
<polygon fill="lightgrey" stroke="lightgrey" points="326,-660 326,-876 890,-876 890,-660 326,-660"/>
<text xml:space="preserve" text-anchor="middle" x="608" y="-863" font-family="sans-serif" font-size="10.00">Integration</text>
</g>
<g id="clust12" class="cluster namespace">
<title>#/domains/integration/subdomains/edge</title>
<polygon fill="lightgrey" stroke="lightgrey" points="346,-680 346,-836 870,-836 870,-680 346,-680"/>
<text xml:space="preserve" text-anchor="middle" x="608" y="-823" font-family="sans-serif" font-size="10.00">Edge</text>
</g>
<g id="clust13" class="cluster namespace">
<title>#/domains/integration/subdomains/edge/boundedcontexts/api_gateway</title>
<polygon fill="lightgrey" stroke="lightgrey" points="366,-700 366,-796 850,-796 850,-700 366,-700"/>
<text xml:space="preserve" text-anchor="middle" x="608" y="-783" font-family="sans-serif" font-size="10.00">ApiGateway</text>
</g>
<g id="clust14" class="cluster namespace">
<title>#/domains/identity&amp;access</title>
<polygon fill="lightgrey" stroke="lightgrey" points="326,-232 326,-448 596,-448 596,-232 326,-232"/>
<text xml:space="preserve" text-anchor="middle" x="461" y="-435" font-family="sans-serif" font-size="10.00">Identity&amp;Access</text>
</g>
<g id="clust15" class="cluster namespace">
<title>#/domains/identity&amp;access/subdomains/auth</title>
<polygon fill="lightgrey" stroke="lightgrey" points="346,-252 346,-408 576,-408 576,-252 346,-252"/>
<text xml:space="preserve" text-anchor="middle" x="461" y="-395" font-family="sans-serif" font-size="10.00">Auth</text>
</g>
<g id="clust16" class="cluster namespace">
<title>#/domains/identity&amp;access/subdomains/auth/boundedcontexts/identity</title>
<polygon fill="lightgrey" stroke="lightgrey" points="366,-272 366,-368 556,-368 556,-272 366,-272"/>
<text xml:space="preserve" text-anchor="middle" x="461" y="-355" font-family="sans-serif" font-size="10.00">Identity</text>
</g>
<g id="clust17" class="cluster namespace">
<title>#/domains/customer_experience</title>
<polygon fill="lightgrey" stroke="lightgrey" points="616,-232 616,-448 1172,-448 1172,-232 616,-232"/>
<text xml:space="preserve" text-anchor="middle" x="894" y="-435" font-family="sans-serif" font-size="10.00">CustomerExperience</text>
</g>
<g id="clust18" class="cluster namespace">
<title>#/domains/customer_experience/subdomains/promotions</title>
<polygon fill="lightgrey" stroke="lightgrey" points="636,-252 636,-408 886,-408 886,-252 636,-252"/>
<text xml:space="preserve" text-anchor="middle" x="761" y="-395" font-family="sans-serif" font-size="10.00">Promotions</text>
</g>
<g id="clust19" class="cluster namespace">
<title>#/domains/customer_experience/subdomains/promotions/boundedcontexts/marketing</title>
<polygon fill="lightgrey" stroke="lightgrey" points="656,-272 656,-368 866,-368 866,-272 656,-272"/>
<text xml:space="preserve" text-anchor="middle" x="761" y="-355" font-family="sans-serif" font-size="10.00">Marketing</text>
</g>
<g id="clust20" class="cluster namespace">
<title>#/domains/customer_experience/subdomains/geodata</title>
<polygon fill="lightgrey" stroke="lightgrey" points="906,-252 906,-408 1152,-408 1152,-252 906,-252"/>
<text xml:space="preserve" text-anchor="middle" x="1029" y="-395" font-family="sans-serif" font-size="10.00">Geodata</text>
</g>
<g id="clust21" class="cluster namespace">
<title>#/domains/customer_experience/subdomains/geodata/boundedcontexts/locations</title>
<polygon fill="lightgrey" stroke="lightgrey" points="926,-272 926,-368 1132,-368 1132,-272 926,-272"/>
<text xml:space="preserve" text-anchor="middle" x="1029" y="-355" font-family="sans-serif" font-size="10.00">Locations</text>
</g>
<!-- #/domains/commerce/subdomains/sales/boundedcontexts/ordering/services/ordering_app -->
<g id="node1" class="node">
<title>#/domains/commerce/subdomains/sales/boundedcontexts/ordering/services/ordering_app</title>
<g id="a_node1"><a xlink:title="Start/Place orders">
<polygon fill="white" stroke="black" points="185.16,-516.05 189.24,-516.15 193.28,-516.3 197.26,-516.49 201.16,-516.74 204.98,-517.03 208.68,-517.36 212.27,-517.75 215.73,-518.18 219.03,-518.65 222.18,-519.16 225.16,-519.71 227.97,-520.31 230.58,-520.94 233,-521.61 235.21,-522.31 237.22,-523.04 239.01,-523.8 240.59,-524.59 241.96,-525.41 243.1,-526.25 244.03,-527.11 244.73,-527.99 245.23,-528.89 245.51,-529.8 245.59,-530.72 245.46,-531.65 245.14,-532.59 244.63,-533.53 243.93,-534.47 243.06,-535.41 242.03,-536.35 240.83,-537.28 239.49,-538.2 238,-539.11 236.38,-540.01 234.64,-540.89 232.78,-541.75 230.82,-542.59 228.77,-543.41 226.62,-544.2 224.4,-544.96 222.1,-545.69 219.74,-546.39 217.32,-547.06 214.86,-547.69 212.34,-548.29 209.79,-548.84 207.21,-549.35 204.59,-549.82 201.96,-550.25 199.3,-550.64 196.62,-550.97 193.93,-551.26 191.23,-551.51 188.52,-551.7 185.81,-551.85 183.09,-551.95 180.36,-552 177.64,-552 174.91,-551.95 172.19,-551.85 169.48,-551.7 166.77,-551.51 164.07,-551.26 161.38,-550.97 158.7,-550.64 156.04,-550.25 153.41,-549.82 150.79,-549.35 148.21,-548.84 145.66,-548.29 143.14,-547.69 140.68,-547.06 138.26,-546.39 135.9,-545.69 133.6,-544.96 131.38,-544.2 129.23,-543.41 127.18,-542.59 125.22,-541.75 123.36,-540.89 121.62,-540.01 120,-539.11 118.51,-538.2 117.17,-537.28 115.97,-536.35 114.94,-535.41 114.07,-534.47 113.37,-533.53 112.86,-532.59 112.54,-531.65 112.41,-530.72 112.49,-529.8 112.77,-528.89 113.27,-527.99 113.97,-527.11 114.9,-526.25 116.04,-525.41 117.41,-524.59 118.99,-523.8 120.78,-523.04 122.79,-522.31 125,-521.61 127.42,-520.94 130.03,-520.31 132.84,-519.71 135.82,-519.16 138.97,-518.65 142.27,-518.18 145.73,-517.75 149.32,-517.36 153.02,-517.03 156.84,-516.74 160.74,-516.49 164.72,-516.3 168.76,-516.15 172.84,-516.05 176.94,-516 181.06,-516 185.16,-516.05"/>
<text xml:space="preserve" text-anchor="middle" x="179" y="-529.8" font-family="sans-serif" font-size="14.00">OrderingApp</text>
</a>
</g>
</g>
<!-- #/domains/commerce/subdomains/shopping/boundedcontexts/basket/services/basket_service -->
<g id="node2" class="node">
<title>#/domains/commerce/subdomains/shopping/boundedcontexts/basket/services/basket_service</title>
<g id="a_node2"><a xlink:title="Basket.API (Redis)">
<polygon fill="white" stroke="black" points="173.53,-292.05 177.86,-292.15 182.13,-292.3 186.35,-292.49 190.49,-292.74 194.53,-293.03 198.46,-293.36 202.27,-293.75 205.93,-294.18 209.43,-294.65 212.77,-295.16 215.93,-295.71 218.9,-296.31 221.67,-296.94 224.23,-297.61 226.58,-298.31 228.71,-299.04 230.61,-299.8 232.29,-300.59 233.73,-301.41 234.94,-302.25 235.92,-303.11 236.67,-303.99 237.2,-304.89 237.5,-305.8 237.58,-306.72 237.45,-307.65 237.11,-308.59 236.56,-309.53 235.83,-310.47 234.9,-311.41 233.81,-312.35 232.54,-313.28 231.11,-314.2 229.54,-315.11 227.82,-316.01 225.98,-316.89 224.01,-317.75 221.93,-318.59 219.75,-319.41 217.48,-320.2 215.12,-320.96 212.69,-321.69 210.18,-322.39 207.62,-323.06 205.01,-323.69 202.34,-324.29 199.64,-324.84 196.9,-325.35 194.13,-325.82 191.33,-326.25 188.51,-326.64 185.68,-326.97 182.83,-327.26 179.97,-327.51 177.09,-327.7 174.21,-327.85 171.33,-327.95 168.44,-328 165.56,-328 162.67,-327.95 159.79,-327.85 156.91,-327.7 154.03,-327.51 151.17,-327.26 148.32,-326.97 145.49,-326.64 142.67,-326.25 139.87,-325.82 137.1,-325.35 134.36,-324.84 131.66,-324.29 128.99,-323.69 126.38,-323.06 123.82,-322.39 121.31,-321.69 118.88,-320.96 116.52,-320.2 114.25,-319.41 112.07,-318.59 109.99,-317.75 108.02,-316.89 106.18,-316.01 104.46,-315.11 102.89,-314.2 101.46,-313.28 100.19,-312.35 99.1,-311.41 98.17,-310.47 97.44,-309.53 96.89,-308.59 96.55,-307.65 96.42,-306.72 96.5,-305.8 96.8,-304.89 97.33,-303.99 98.08,-303.11 99.06,-302.25 100.27,-301.41 101.71,-300.59 103.39,-299.8 105.29,-299.04 107.42,-298.31 109.77,-297.61 112.33,-296.94 115.1,-296.31 118.07,-295.71 121.23,-295.16 124.57,-294.65 128.07,-294.18 131.73,-293.75 135.54,-293.36 139.47,-293.03 143.51,-292.74 147.65,-292.49 151.87,-292.3 156.14,-292.15 160.47,-292.05 164.82,-292 169.18,-292 173.53,-292.05"/>
<text xml:space="preserve" text-anchor="middle" x="167" y="-305.8" font-family="sans-serif" font-size="14.00">BasketService</text>
</a>
</g>
</g>
<!-- #/domains/commerce/subdomains/sales/boundedcontexts/ordering/services/ordering_app&#45;&gt;#/domains/commerce/subdomains/shopping/boundedcontexts/basket/services/basket_service -->
<g id="edge5" class="edge">
<title>#/domains/commerce/subdomains/sales/boundedcontexts/ordering/services/ordering_app&#45;&gt;#/domains/commerce/subdomains/shopping/boundedcontexts/basket/services/basket_service</title>
<path fill="none" stroke="black" d="M156.95,-516.34C143.27,-504.54 126.9,-487.41 119.34,-468 101.81,-422.97 128.44,-368.68 148.4,-337.17"/>
<polygon fill="black" stroke="black" points="151.18,-339.33 153.75,-329.05 145.33,-335.48 151.18,-339.33"/>
<text xml:space="preserve" text-anchor="middle" x="140.17" y="-459" font-family="sans-serif" font-size="10.00">GetBasket</text>
<g id="a_edge5&#45;headlabel"><a xlink:title="open&#45;host&#45;service">
<text xml:space="preserve" text-anchor="middle" x="154.59" y="-324.78" font-family="sans-serif" font-size="10.00">OHS</text>
</a>
</g>
<g id="a_edge5&#45;taillabel"><a xlink:title="anti&#45;corruption&#45;layer">
<text xml:space="preserve" text-anchor="middle" x="156.95" y="-513.34" font-family="sans-serif" font-size="10.00">ACL</text>
</a>
</g>
</g>
<!-- #/domains/identity&amp;access/subdomains/auth/boundedcontexts/identity/services/identity_service -->
<g id="node7" class="node">
<title>#/domains/identity&amp;access/subdomains/auth/boundedcontexts/identity/services/identity_service</title>
<g id="a_node7"><a xlink:title="Token issuance, user claims">
<polygon fill="white" stroke="black" points="467.9,-292.05 472.47,-292.15 476.99,-292.3 481.45,-292.49 485.82,-292.74 490.09,-293.03 494.24,-293.36 498.26,-293.75 502.13,-294.18 505.84,-294.65 509.37,-295.16 512.7,-295.71 515.84,-296.31 518.77,-296.94 521.48,-297.61 523.96,-298.31 526.2,-299.04 528.21,-299.8 529.98,-300.59 531.51,-301.41 532.79,-302.25 533.83,-303.11 534.62,-303.99 535.17,-304.89 535.49,-305.8 535.58,-306.72 535.44,-307.65 535.08,-308.59 534.5,-309.53 533.72,-310.47 532.75,-311.41 531.59,-312.35 530.25,-313.28 528.74,-314.2 527.08,-315.11 525.27,-316.01 523.32,-316.89 521.24,-317.75 519.04,-318.59 516.74,-319.41 514.34,-320.2 511.84,-320.96 509.27,-321.69 506.63,-322.39 503.92,-323.06 501.16,-323.69 498.34,-324.29 495.49,-324.84 492.59,-325.35 489.66,-325.82 486.71,-326.25 483.73,-326.64 480.74,-326.97 477.72,-327.26 474.7,-327.51 471.66,-327.7 468.62,-327.85 465.58,-327.95 462.53,-328 459.47,-328 456.42,-327.95 453.38,-327.85 450.34,-327.7 447.3,-327.51 444.28,-327.26 441.26,-326.97 438.27,-326.64 435.29,-326.25 432.34,-325.82 429.41,-325.35 426.51,-324.84 423.66,-324.29 420.84,-323.69 418.08,-323.06 415.37,-322.39 412.73,-321.69 410.16,-320.96 407.66,-320.2 405.26,-319.41 402.96,-318.59 400.76,-317.75 398.68,-316.89 396.73,-316.01 394.92,-315.11 393.26,-314.2 391.75,-313.28 390.41,-312.35 389.25,-311.41 388.28,-310.47 387.5,-309.53 386.92,-308.59 386.56,-307.65 386.42,-306.72 386.51,-305.8 386.83,-304.89 387.38,-303.99 388.17,-303.11 389.21,-302.25 390.49,-301.41 392.02,-300.59 393.79,-299.8 395.8,-299.04 398.04,-298.31 400.52,-297.61 403.23,-296.94 406.16,-296.31 409.3,-295.71 412.63,-295.16 416.16,-294.65 419.87,-294.18 423.74,-293.75 427.76,-293.36 431.91,-293.03 436.18,-292.74 440.55,-292.49 445.01,-292.3 449.53,-292.15 454.1,-292.05 458.7,-292 463.3,-292 467.9,-292.05"/>
<text xml:space="preserve" text-anchor="middle" x="461" y="-305.8" font-family="sans-serif" font-size="14.00">IdentityService</text>
</a>
</g>
</g>
<!-- #/domains/commerce/subdomains/sales/boundedcontexts/ordering/services/ordering_app&#45;&gt;#/domains/identity&amp;access/subdomains/auth/boundedcontexts/identity/services/identity_service -->
<g id="edge7" class="edge">
<title>#/domains/commerce/subdomains/sales/boundedcontexts/ordering/services/ordering_app&#45;&gt;#/domains/identity&amp;access/subdomains/auth/boundedcontexts/identity/services/identity_service</title>
<path fill="none" stroke="black" d="M200.2,-516.31C249.94,-477.15 374.29,-379.26 431.43,-334.28"/>
<polygon fill="black" stroke="black" points="433.44,-337.15 439.14,-328.21 429.11,-331.65 433.44,-337.15"/>
<text xml:space="preserve" text-anchor="middle" x="293.26" y="-459" font-family="sans-serif" font-size="10.00">IssueToken</text>
<g id="a_edge7&#45;headlabel"><a xlink:title="open&#45;host&#45;service">
<text xml:space="preserve" text-anchor="middle" x="440.32" y="-324.28" font-family="sans-serif" font-size="10.00">OHS</text>
</a>
</g>
<g id="a_edge7&#45;taillabel"><a xlink:title="anti&#45;corruption&#45;layer">
<text xml:space="preserve" text-anchor="middle" x="200.2" y="-513.31" font-family="sans-serif" font-size="10.00">ACL</text>
</a>
</g>
</g>
<!-- #/domains/customer_experience/subdomains/promotions/boundedcontexts/marketing/services/marketing_service -->
<g id="node8" class="node">
<title>#/domains/customer_experience/subdomains/promotions/boundedcontexts/marketing/services/marketing_service</title>
<g id="a_node8"><a xlink:title="Apply campaigns/discounts">
<polygon fill="white" stroke="black" points="768.91,-292.05 774.14,-292.15 779.32,-292.3 784.42,-292.49 789.43,-292.74 794.32,-293.03 799.08,-293.36 803.69,-293.75 808.12,-294.18 812.36,-294.65 816.4,-295.16 820.23,-295.71 823.82,-296.31 827.17,-296.94 830.27,-297.61 833.12,-298.31 835.69,-299.04 837.99,-299.8 840.02,-300.59 841.77,-301.41 843.24,-302.25 844.42,-303.11 845.33,-303.99 845.97,-304.89 846.33,-305.8 846.43,-306.72 846.27,-307.65 845.85,-308.59 845.2,-309.53 844.31,-310.47 843.19,-311.41 841.86,-312.35 840.33,-313.28 838.6,-314.2 836.69,-315.11 834.62,-316.01 832.38,-316.89 830,-317.75 827.49,-318.59 824.85,-319.41 822.1,-320.2 819.24,-320.96 816.3,-321.69 813.27,-322.39 810.17,-323.06 807,-323.69 803.78,-324.29 800.5,-324.84 797.19,-325.35 793.84,-325.82 790.45,-326.25 787.04,-326.64 783.61,-326.97 780.16,-327.26 776.69,-327.51 773.22,-327.7 769.73,-327.85 766.24,-327.95 762.75,-328 759.25,-328 755.76,-327.95 752.27,-327.85 748.78,-327.7 745.31,-327.51 741.84,-327.26 738.39,-326.97 734.96,-326.64 731.55,-326.25 728.16,-325.82 724.81,-325.35 721.5,-324.84 718.22,-324.29 715,-323.69 711.83,-323.06 708.73,-322.39 705.7,-321.69 702.76,-320.96 699.9,-320.2 697.15,-319.41 694.51,-318.59 692,-317.75 689.62,-316.89 687.38,-316.01 685.31,-315.11 683.4,-314.2 681.67,-313.28 680.14,-312.35 678.81,-311.41 677.69,-310.47 676.8,-309.53 676.15,-308.59 675.73,-307.65 675.57,-306.72 675.67,-305.8 676.03,-304.89 676.67,-303.99 677.58,-303.11 678.76,-302.25 680.23,-301.41 681.98,-300.59 684.01,-299.8 686.31,-299.04 688.88,-298.31 691.73,-297.61 694.83,-296.94 698.18,-296.31 701.77,-295.71 705.6,-295.16 709.64,-294.65 713.88,-294.18 718.31,-293.75 722.92,-293.36 727.68,-293.03 732.57,-292.74 737.58,-292.49 742.68,-292.3 747.86,-292.15 753.09,-292.05 758.36,-292 763.64,-292 768.91,-292.05"/>
<text xml:space="preserve" text-anchor="middle" x="761" y="-305.8" font-family="sans-serif" font-size="14.00">MarketingService</text>
</a>
</g>
</g>
<!-- #/domains/commerce/subdomains/sales/boundedcontexts/ordering/services/ordering_app&#45;&gt;#/domains/customer_experience/subdomains/promotions/boundedcontexts/marketing/services/marketing_service -->
<g id="edge8" class="edge">
<title>#/domains/commerce/subdomains/sales/boundedcontexts/ordering/services/ordering_app&#45;&gt;#/domains/customer_experience/subdomains/promotions/boundedcontexts/marketing/services/marketing_service</title>
<path fill="none" stroke="black" d="M244.49,-526.98C324.26,-517.83 461.76,-496.1 570,-448 634.98,-419.13 699.98,-366.1 734.88,-335.16"/>
<polygon fill="black" stroke="black" points="736.85,-338.1 741.96,-328.82 732.17,-332.89 736.85,-338.1"/>
<text xml:space="preserve" text-anchor="middle" x="585.2" y="-459" font-family="sans-serif" font-size="10.00">ApplyCampaigns</text>
<g id="a_edge8&#45;headlabel"><a xlink:title="open&#45;host&#45;service">
<text xml:space="preserve" text-anchor="middle" x="743.08" y="-324.8" font-family="sans-serif" font-size="10.00">OHS</text>
</a>
</g>
<g id="a_edge8&#45;taillabel"><a xlink:title="anti&#45;corruption&#45;layer">
<text xml:space="preserve" text-anchor="middle" x="244.49" y="-523.98" font-family="sans-serif" font-size="10.00">ACL</text>
</a>
</g>
</g>
<!-- #/domains/customer_experience/subdomains/geodata/boundedcontexts/locations/services/locations_service -->
<g id="node9" class="node">
<title>#/domains/customer_experience/subdomains/geodata/boundedcontexts/locations/services/locations_service</title>
<g id="a_node9"><a xlink:title="Resolve/validate location data">
<polygon fill="white" stroke="black" points="1036.69,-292.05 1041.79,-292.15 1046.83,-292.3 1051.8,-292.49 1056.67,-292.74 1061.43,-293.03 1066.06,-293.36 1070.54,-293.75 1074.86,-294.18 1078.99,-294.65 1082.92,-295.16 1086.64,-295.71 1090.14,-296.31 1093.4,-296.94 1096.42,-297.61 1099.19,-298.31 1101.69,-299.04 1103.94,-299.8 1105.91,-300.59 1107.61,-301.41 1109.04,-302.25 1110.19,-303.11 1111.08,-303.99 1111.7,-304.89 1112.05,-305.8 1112.14,-306.72 1111.99,-307.65 1111.58,-308.59 1110.95,-309.53 1110.08,-310.47 1108.99,-311.41 1107.7,-312.35 1106.2,-313.28 1104.52,-314.2 1102.67,-315.11 1100.65,-316.01 1098.47,-316.89 1096.16,-317.75 1093.71,-318.59 1091.14,-319.41 1088.46,-320.2 1085.69,-320.96 1082.82,-321.69 1079.87,-322.39 1076.85,-323.06 1073.77,-323.69 1070.63,-324.29 1067.45,-324.84 1064.22,-325.35 1060.96,-325.82 1057.66,-326.25 1054.34,-326.64 1051,-326.97 1047.65,-327.26 1044.27,-327.51 1040.89,-327.7 1037.5,-327.85 1034.1,-327.95 1030.7,-328 1027.3,-328 1023.9,-327.95 1020.5,-327.85 1017.11,-327.7 1013.73,-327.51 1010.35,-327.26 1007,-326.97 1003.66,-326.64 1000.34,-326.25 997.04,-325.82 993.78,-325.35 990.55,-324.84 987.37,-324.29 984.23,-323.69 981.15,-323.06 978.13,-322.39 975.18,-321.69 972.31,-320.96 969.54,-320.2 966.86,-319.41 964.29,-318.59 961.84,-317.75 959.53,-316.89 957.35,-316.01 955.33,-315.11 953.48,-314.2 951.8,-313.28 950.3,-312.35 949.01,-311.41 947.92,-310.47 947.05,-309.53 946.42,-308.59 946.01,-307.65 945.86,-306.72 945.95,-305.8 946.3,-304.89 946.92,-303.99 947.81,-303.11 948.96,-302.25 950.39,-301.41 952.09,-300.59 954.06,-299.8 956.31,-299.04 958.81,-298.31 961.58,-297.61 964.6,-296.94 967.86,-296.31 971.36,-295.71 975.08,-295.16 979.01,-294.65 983.14,-294.18 987.46,-293.75 991.94,-293.36 996.57,-293.03 1001.33,-292.74 1006.2,-292.49 1011.17,-292.3 1016.21,-292.15 1021.31,-292.05 1026.43,-292 1031.57,-292 1036.69,-292.05"/>
<text xml:space="preserve" text-anchor="middle" x="1029" y="-305.8" font-family="sans-serif" font-size="14.00">LocationsService</text>
</a>
</g>
</g>
<!-- #/domains/commerce/subdomains/sales/boundedcontexts/ordering/services/ordering_app&#45;&gt;#/domains/customer_experience/subdomains/geodata/boundedcontexts/locations/services/locations_service -->
<g id="edge9" class="edge">
<title>#/domains/commerce/subdomains/sales/boundedcontexts/ordering/services/ordering_app&#45;&gt;#/domains/customer_experience/subdomains/geodata/boundedcontexts/locations/services/locations_service</title>
<path fill="none" stroke="black" d="M245.82,-530.1C398.4,-522.65 767.91,-499.69 880,-448 935.18,-422.55 983.8,-368.97 1009.55,-336.88"/>
<polygon fill="black" stroke="black" points="1012.12,-339.26 1015.55,-329.24 1006.62,-334.94 1012.12,-339.26"/>
<text xml:space="preserve" text-anchor="middle" x="883.95" y="-459" font-family="sans-serif" font-size="10.00">ResolveLocation</text>
<g id="a_edge9&#45;headlabel"><a xlink:title="open&#45;host&#45;service">
<text xml:space="preserve" text-anchor="middle" x="1016.49" y="-325.05" font-family="sans-serif" font-size="10.00">OHS</text>
</a>
</g>
<g id="a_edge9&#45;taillabel"><a xlink:title="anti&#45;corruption&#45;layer">
<text xml:space="preserve" text-anchor="middle" x="245.82" y="-527.1" font-family="sans-serif" font-size="10.00">ACL</text>
</a>
</g>
</g>
<!-- #/domains/commerce/subdomains/shopping/boundedcontexts/basket/services/basket_service&#45;&gt;#/domains/commerce/subdomains/sales/boundedcontexts/ordering/services/ordering_app -->
<g id="edge3" class="edge">
<title>#/domains/commerce/subdomains/shopping/boundedcontexts/basket/services/basket_service&#45;&gt;#/domains/commerce/subdomains/sales/boundedcontexts/ordering/services/ordering_app</title>
<path fill="none" stroke="black" d="M167.94,-328.34C169.99,-366.36 174.91,-457.39 177.44,-504.17"/>
<polygon fill="black" stroke="black" points="173.94,-504.27 177.98,-514.07 180.93,-503.89 173.94,-504.27"/>
<text xml:space="preserve" text-anchor="middle" x="201.28" y="-459" font-family="sans-serif" font-size="10.00">OrderStarted</text>
<g id="a_edge3&#45;headlabel"><a xlink:title="published&#45;language">
<text xml:space="preserve" text-anchor="middle" x="178.06" y="-512.58" font-family="sans-serif" font-size="10.00">PL</text>
</a>
</g>
<g id="a_edge3&#45;taillabel"><a xlink:title="conformist">
<text xml:space="preserve" text-anchor="middle" x="167.94" y="-325.34" font-family="sans-serif" font-size="10.00">C</text>
</a>
</g>
</g>
<!-- #/domains/commerce/subdomains/cataloging/boundedcontexts/catalog/services/catalog_service -->
<g id="node4" class="node">
<title>#/domains/commerce/subdomains/cataloging/boundedcontexts/catalog/services/catalog_service</title>
<g id="a_node4"><a xlink:title="Queries, pricing updates, stock">
<polygon fill="white" stroke="black" points="173.9,-88.05 178.47,-88.15 182.99,-88.3 187.45,-88.49 191.82,-88.74 196.09,-89.03 200.24,-89.36 204.26,-89.75 208.13,-90.18 211.84,-90.65 215.37,-91.16 218.7,-91.71 221.84,-92.31 224.77,-92.94 227.48,-93.61 229.96,-94.31 232.2,-95.04 234.21,-95.8 235.98,-96.59 237.51,-97.41 238.79,-98.25 239.83,-99.11 240.62,-99.99 241.17,-100.89 241.49,-101.8 241.58,-102.72 241.44,-103.65 241.08,-104.59 240.5,-105.53 239.72,-106.47 238.75,-107.41 237.59,-108.35 236.25,-109.28 234.74,-110.2 233.08,-111.11 231.27,-112.01 229.32,-112.89 227.24,-113.75 225.04,-114.59 222.74,-115.41 220.34,-116.2 217.84,-116.96 215.27,-117.69 212.63,-118.39 209.92,-119.06 207.16,-119.69 204.34,-120.29 201.49,-120.84 198.59,-121.35 195.66,-121.82 192.71,-122.25 189.73,-122.64 186.74,-122.97 183.72,-123.26 180.7,-123.51 177.66,-123.7 174.62,-123.85 171.58,-123.95 168.53,-124 165.47,-124 162.42,-123.95 159.38,-123.85 156.34,-123.7 153.3,-123.51 150.28,-123.26 147.26,-122.97 144.27,-122.64 141.29,-122.25 138.34,-121.82 135.41,-121.35 132.51,-120.84 129.66,-120.29 126.84,-119.69 124.08,-119.06 121.37,-118.39 118.73,-117.69 116.16,-116.96 113.66,-116.2 111.26,-115.41 108.96,-114.59 106.76,-113.75 104.68,-112.89 102.73,-112.01 100.92,-111.11 99.26,-110.2 97.75,-109.28 96.41,-108.35 95.25,-107.41 94.28,-106.47 93.5,-105.53 92.92,-104.59 92.56,-103.65 92.42,-102.72 92.51,-101.8 92.83,-100.89 93.38,-99.99 94.17,-99.11 95.21,-98.25 96.49,-97.41 98.02,-96.59 99.79,-95.8 101.8,-95.04 104.04,-94.31 106.52,-93.61 109.23,-92.94 112.16,-92.31 115.3,-91.71 118.63,-91.16 122.16,-90.65 125.87,-90.18 129.74,-89.75 133.76,-89.36 137.91,-89.03 142.18,-88.74 146.55,-88.49 151.01,-88.3 155.53,-88.15 160.1,-88.05 164.7,-88 169.3,-88 173.9,-88.05"/>
<text xml:space="preserve" text-anchor="middle" x="167" y="-101.8" font-family="sans-serif" font-size="14.00">CatalogService</text>
</a>
</g>
</g>
<!-- #/domains/commerce/subdomains/shopping/boundedcontexts/basket/services/basket_service&#45;&gt;#/domains/commerce/subdomains/cataloging/boundedcontexts/catalog/services/catalog_service -->
<g id="edge6" class="edge">
<title>#/domains/commerce/subdomains/shopping/boundedcontexts/basket/services/basket_service&#45;&gt;#/domains/commerce/subdomains/cataloging/boundedcontexts/catalog/services/catalog_service</title>
<path fill="none" stroke="black" d="M167,-291.78C167,-257.06 167,-178.34 167,-135.71"/>
<polygon fill="black" stroke="black" points="170.5,-135.98 167,-125.98 163.5,-135.98 170.5,-135.98"/>
<text xml:space="preserve" text-anchor="middle" x="210.6" y="-215" font-family="sans-serif" font-size="10.00">ProductPriceChanged</text>
<g id="a_edge6&#45;headlabel"><a xlink:title="published&#45;language">
<text xml:space="preserve" text-anchor="middle" x="167" y="-121.47" font-family="sans-serif" font-size="10.00">PL</text>
</a>
</g>
<g id="a_edge6&#45;taillabel"><a xlink:title="conformist">
<text xml:space="preserve" text-anchor="middle" x="167" y="-288.78" font-family="sans-serif" font-size="10.00">C</text>
</a>
</g>
</g>
<!-- #/domains/commerce/subdomains/payments/boundedcontexts/payment/services/payment_service -->
<g id="node3" class="node">
<title>#/domains/commerce/subdomains/payments/boundedcontexts/payment/services/payment_service</title>
<g id="a_node3"><a xlink:title="Payment.API (sample)">
<polygon fill="white" stroke="black" points="174.27,-720.05 179.09,-720.15 183.85,-720.3 188.55,-720.49 193.15,-720.74 197.65,-721.03 202.03,-721.36 206.26,-721.75 210.34,-722.18 214.24,-722.65 217.96,-723.16 221.48,-723.71 224.78,-724.31 227.87,-724.94 230.72,-725.61 233.33,-726.31 235.7,-727.04 237.82,-727.8 239.69,-728.59 241.29,-729.41 242.64,-730.25 243.73,-731.11 244.57,-731.99 245.16,-732.89 245.49,-733.8 245.58,-734.72 245.43,-735.65 245.05,-736.59 244.45,-737.53 243.63,-738.47 242.6,-739.41 241.38,-740.35 239.97,-741.28 238.38,-742.2 236.62,-743.11 234.71,-744.01 232.66,-744.89 230.47,-745.75 228.16,-746.59 225.73,-747.41 223.2,-748.2 220.57,-748.96 217.86,-749.69 215.08,-750.39 212.23,-751.06 209.31,-751.69 206.35,-752.29 203.34,-752.84 200.29,-753.35 197.2,-753.82 194.09,-754.25 190.95,-754.64 187.8,-754.97 184.62,-755.26 181.43,-755.51 178.24,-755.7 175.03,-755.85 171.82,-755.95 168.61,-756 165.39,-756 162.18,-755.95 158.97,-755.85 155.76,-755.7 152.57,-755.51 149.38,-755.26 146.2,-754.97 143.05,-754.64 139.91,-754.25 136.8,-753.82 133.71,-753.35 130.66,-752.84 127.65,-752.29 124.69,-751.69 121.77,-751.06 118.92,-750.39 116.14,-749.69 113.43,-748.96 110.8,-748.2 108.27,-747.41 105.84,-746.59 103.53,-745.75 101.34,-744.89 99.29,-744.01 97.38,-743.11 95.62,-742.2 94.03,-741.28 92.62,-740.35 91.4,-739.41 90.37,-738.47 89.55,-737.53 88.95,-736.59 88.57,-735.65 88.42,-734.72 88.51,-733.8 88.84,-732.89 89.43,-731.99 90.27,-731.11 91.36,-730.25 92.71,-729.41 94.31,-728.59 96.18,-727.8 98.3,-727.04 100.67,-726.31 103.28,-725.61 106.13,-724.94 109.22,-724.31 112.52,-723.71 116.04,-723.16 119.76,-722.65 123.66,-722.18 127.74,-721.75 131.97,-721.36 136.35,-721.03 140.85,-720.74 145.45,-720.49 150.15,-720.3 154.91,-720.15 159.73,-720.05 164.57,-720 169.43,-720 174.27,-720.05"/>
<text xml:space="preserve" text-anchor="middle" x="167" y="-733.8" font-family="sans-serif" font-size="14.00">PaymentService</text>
</a>
</g>
</g>
<!-- #/domains/commerce/subdomains/payments/boundedcontexts/payment/services/payment_service&#45;&gt;#/domains/commerce/subdomains/sales/boundedcontexts/ordering/services/ordering_app -->
<g id="edge4" class="edge">
<title>#/domains/commerce/subdomains/payments/boundedcontexts/payment/services/payment_service&#45;&gt;#/domains/commerce/subdomains/sales/boundedcontexts/ordering/services/ordering_app</title>
<path fill="none" stroke="black" d="M168.02,-719.78C170.09,-685.06 174.76,-606.34 177.29,-563.71"/>
<polygon fill="black" stroke="black" points="180.77,-564.17 177.87,-553.98 173.79,-563.75 180.77,-564.17"/>
<text xml:space="preserve" text-anchor="middle" x="198.46" y="-643" font-family="sans-serif" font-size="10.00">OrderStarted</text>
<g id="a_edge4&#45;headlabel"><a xlink:title="published&#45;language">
<text xml:space="preserve" text-anchor="middle" x="177.96" y="-549.47" font-family="sans-serif" font-size="10.00">PL</text>
</a>
</g>
<g id="a_edge4&#45;taillabel"><a xlink:title="conformist">
<text xml:space="preserve" text-anchor="middle" x="168.02" y="-716.78" font-family="sans-serif" font-size="10.00">C</text>
</a>
</g>
</g>
<!-- #/domains/integration/subdomains/edge/boundedcontexts/api_gateway/services/web_shopping_aggregator -->
<g id="node5" class="node">
<title>#/domains/integration/subdomains/edge/boundedcontexts/api_gateway/services/web_shopping_aggregator</title>
<g id="a_node5"><a xlink:title="Ocelot + Aggregators (Web &amp; Mobile Shopping)">
<polygon fill="white" stroke="black" points="513.87,-720.05 521.06,-720.15 528.18,-720.3 535.2,-720.49 542.08,-720.74 548.81,-721.03 555.35,-721.36 561.67,-721.75 567.76,-722.18 573.6,-722.65 579.15,-723.16 584.41,-723.71 589.35,-724.31 593.96,-724.94 598.22,-725.61 602.13,-726.31 605.67,-727.04 608.83,-727.8 611.62,-728.59 614.02,-729.41 616.04,-730.25 617.67,-731.11 618.92,-731.99 619.79,-732.89 620.29,-733.8 620.43,-734.72 620.2,-735.65 619.64,-736.59 618.73,-737.53 617.51,-738.47 615.97,-739.41 614.15,-740.35 612.04,-741.28 609.66,-742.2 607.04,-743.11 604.19,-744.01 601.12,-744.89 597.85,-745.75 594.39,-746.59 590.76,-747.41 586.98,-748.2 583.06,-748.96 579.01,-749.69 574.85,-750.39 570.58,-751.06 566.23,-751.69 561.8,-752.29 557.3,-752.84 552.74,-753.35 548.13,-753.82 543.48,-754.25 538.79,-754.64 534.08,-754.97 529.33,-755.26 524.57,-755.51 519.79,-755.7 515,-755.85 510.2,-755.95 505.4,-756 500.6,-756 495.8,-755.95 491,-755.85 486.21,-755.7 481.43,-755.51 476.67,-755.26 471.92,-754.97 467.21,-754.64 462.52,-754.25 457.87,-753.82 453.26,-753.35 448.7,-752.84 444.2,-752.29 439.77,-751.69 435.42,-751.06 431.15,-750.39 426.99,-749.69 422.94,-748.96 419.02,-748.2 415.24,-747.41 411.61,-746.59 408.15,-745.75 404.88,-744.89 401.81,-744.01 398.96,-743.11 396.34,-742.2 393.96,-741.28 391.85,-740.35 390.03,-739.41 388.49,-738.47 387.27,-737.53 386.36,-736.59 385.8,-735.65 385.57,-734.72 385.71,-733.8 386.21,-732.89 387.08,-731.99 388.33,-731.11 389.96,-730.25 391.98,-729.41 394.38,-728.59 397.17,-727.8 400.33,-727.04 403.87,-726.31 407.78,-725.61 412.04,-724.94 416.65,-724.31 421.59,-723.71 426.85,-723.16 432.4,-722.65 438.24,-722.18 444.33,-721.75 450.65,-721.36 457.19,-721.03 463.92,-720.74 470.8,-720.49 477.82,-720.3 484.94,-720.15 492.13,-720.05 499.37,-720 506.63,-720 513.87,-720.05"/>
<text xml:space="preserve" text-anchor="middle" x="503" y="-733.8" font-family="sans-serif" font-size="14.00">WebShoppingAggregator</text>
</a>
</g>
</g>
<!-- #/domains/integration/subdomains/edge/boundedcontexts/api_gateway/services/web_shopping_aggregator&#45;&gt;#/domains/commerce/subdomains/sales/boundedcontexts/ordering/services/ordering_app -->
<g id="edge1" class="edge">
<title>#/domains/integration/subdomains/edge/boundedcontexts/api_gateway/services/web_shopping_aggregator&#45;&gt;#/domains/commerce/subdomains/sales/boundedcontexts/ordering/services/ordering_app</title>
<path fill="none" stroke="black" d="M475.66,-719.95C416.72,-683.21 277.82,-596.61 213.19,-556.32"/>
<polygon fill="black" stroke="black" points="215.1,-553.38 204.76,-551.06 211.4,-559.32 215.1,-553.38"/>
<text xml:space="preserve" text-anchor="middle" x="382.89" y="-643" font-family="sans-serif" font-size="10.00">PlaceOrder</text>
<g id="a_edge1&#45;headlabel"><a xlink:title="open&#45;host&#45;service">
<text xml:space="preserve" text-anchor="middle" x="203.48" y="-547.26" font-family="sans-serif" font-size="10.00">OHS</text>
</a>
</g>
<g id="a_edge1&#45;taillabel"><a xlink:title="conformist">
<text xml:space="preserve" text-anchor="middle" x="475.66" y="-716.95" font-family="sans-serif" font-size="10.00">C</text>
</a>
</g>
</g>
<!-- #/domains/integration/subdomains/edge/boundedcontexts/api_gateway/services/ocelot_gateway -->
<g id="node6" class="node">
<title>#/domains/integration/subdomains/edge/boundedcontexts/api_gateway/services/ocelot_gateway</title>
<g id="a_node6"><a xlink:title="Ocelot + Aggregators (Web &amp; Mobile Shopping)">
<polygon fill="white" stroke="black" points="761.01,-720.05 765.64,-720.15 770.24,-720.3 774.76,-720.49 779.2,-720.74 783.53,-721.03 787.75,-721.36 791.83,-721.75 795.76,-722.18 799.52,-722.65 803.1,-723.16 806.49,-723.71 809.68,-724.31 812.65,-724.94 815.4,-725.61 817.91,-726.31 820.2,-727.04 822.24,-727.8 824.03,-728.59 825.58,-729.41 826.88,-730.25 827.93,-731.11 828.74,-731.99 829.3,-732.89 829.63,-733.8 829.71,-734.72 829.57,-735.65 829.2,-736.59 828.62,-737.53 827.83,-738.47 826.84,-739.41 825.66,-740.35 824.3,-741.28 822.77,-742.2 821.08,-743.11 819.24,-744.01 817.26,-744.89 815.15,-745.75 812.92,-746.59 810.59,-747.41 808.15,-748.2 805.62,-748.96 803.01,-749.69 800.32,-750.39 797.58,-751.06 794.77,-751.69 791.91,-752.29 789.01,-752.84 786.07,-753.35 783.1,-753.82 780.1,-754.25 777.08,-754.64 774.04,-754.97 770.98,-755.26 767.91,-755.51 764.83,-755.7 761.74,-755.85 758.65,-755.95 755.55,-756 752.45,-756 749.35,-755.95 746.26,-755.85 743.17,-755.7 740.09,-755.51 737.02,-755.26 733.96,-754.97 730.92,-754.64 727.9,-754.25 724.9,-753.82 721.93,-753.35 718.99,-752.84 716.09,-752.29 713.23,-751.69 710.42,-751.06 707.68,-750.39 704.99,-749.69 702.38,-748.96 699.85,-748.2 697.41,-747.41 695.08,-746.59 692.85,-745.75 690.74,-744.89 688.76,-744.01 686.92,-743.11 685.23,-742.2 683.7,-741.28 682.34,-740.35 681.16,-739.41 680.17,-738.47 679.38,-737.53 678.8,-736.59 678.43,-735.65 678.29,-734.72 678.37,-733.8 678.7,-732.89 679.26,-731.99 680.07,-731.11 681.12,-730.25 682.42,-729.41 683.97,-728.59 685.76,-727.8 687.8,-727.04 690.09,-726.31 692.6,-725.61 695.35,-724.94 698.32,-724.31 701.51,-723.71 704.9,-723.16 708.48,-722.65 712.24,-722.18 716.17,-721.75 720.25,-721.36 724.47,-721.03 728.8,-720.74 733.24,-720.49 737.76,-720.3 742.36,-720.15 746.99,-720.05 751.66,-720 756.34,-720 761.01,-720.05"/>
<text xml:space="preserve" text-anchor="middle" x="754" y="-733.8" font-family="sans-serif" font-size="14.00">OcelotGateway</text>
</a>
</g>
</g>
<!-- #/domains/integration/subdomains/edge/boundedcontexts/api_gateway/services/ocelot_gateway&#45;&gt;#/domains/commerce/subdomains/sales/boundedcontexts/ordering/services/ordering_app -->
<g id="edge2" class="edge">
<title>#/domains/integration/subdomains/edge/boundedcontexts/api_gateway/services/ocelot_gateway&#45;&gt;#/domains/commerce/subdomains/sales/boundedcontexts/ordering/services/ordering_app</title>
<path fill="none" stroke="black" d="M735.66,-720.19C715.72,-702.77 682.24,-675.91 649,-660 512.28,-594.57 336.2,-559.44 243.18,-544.29"/>
<polygon fill="black" stroke="black" points="243.91,-540.86 233.48,-542.73 242.8,-547.77 243.91,-540.86"/>
<text xml:space="preserve" text-anchor="middle" x="647.73" y="-643" font-family="sans-serif" font-size="10.00">PlaceOrder</text>
<g id="a_edge2&#45;headlabel"><a xlink:title="open&#45;host&#45;service">
<text xml:space="preserve" text-anchor="middle" x="231.99" y="-539.49" font-family="sans-serif" font-size="10.00">OHS</text>
</a>
</g>
<g id="a_edge2&#45;taillabel"><a xlink:title="conformist">
<text xml:space="preserve" text-anchor="middle" x="735.66" y="-717.19" font-family="sans-serif" font-size="10.00">C</text>
</a>
</g>
</g>
</g>
</svg>
