<?xml version="1.0" encoding="UTF-8" standalone="no"?>
<?xml-stylesheet href="data:text/css,.graph%20text%20%7B%0A%09font-family%3A%20sans-serif%3B%0A%09stroke%3A%20white%3B%0A%09paint-order%3A%20stroke%3B%0A%09stroke-width%3A%203%3B%0A%09stroke-linecap%3A%20square%3B%0A%7D%0A%0A.namespace%20polygon%20%7B%0A%09fill-opacity%3A%200.2%3B%0A%09stroke%3A%20none%3B%0A%7D%0A" type="text/css"?>
<!DOCTYPE svg PUBLIC "-//W3C//DTD SVG 1.1//EN"
 "http://www.w3.org/Graphics/SVG/1.1/DTD/svg11.dtd">
<!-- Generated by graphviz version 13.1.2 (0)
 -->
<!-- Pages: 1 -->
<svg width="375pt" height="544pt"
 viewBox="0.00 0.00 375.00 544.00" xmlns="http://www.w3.org/2000/svg" xmlns:xlink="http://www.w3.org/1999/xlink">
<g id="graph0" class="graph" transform="scale(1 1) rotate(0) translate(4 540)">
<polygon fill="white" stroke="none" points="-4,4 -4,-540 371,-540 371,4 -4,4"/>
<g id="clust1" class="cluster namespace">
<title>e_shop</title>
<polygon fill="lightgrey" stroke="lightgrey" points="8,-8 8,-528 359,-528 359,-8 8,-8"/>
<text xml:space="preserve" text-anchor="middle" x="183.5" y="-515" font-family="sans-serif" font-size="10.00">eShop</text>
</g>
<g id="clust2" class="cluster namespace">
<title>#/domains/commerce</title>
<polygon fill="lightgrey" stroke="lightgrey" points="60,-28 60,-244 322,-244 322,-28 60,-28"/>
<text xml:space="preserve" text-anchor="middle" x="191" y="-231" font-family="sans-serif" font-size="10.00">Commerce</text>
</g>
<g id="clust3" class="cluster namespace">
<title>#/domains/commerce/subdomains/basket</title>
<polygon fill="lightgrey" stroke="lightgrey" points="80,-48 80,-204 302,-204 302,-48 80,-48"/>
<text xml:space="preserve" text-anchor="middle" x="191" y="-191" font-family="sans-serif" font-size="10.00">Basket</text>
</g>
<g id="clust4" class="cluster namespace">
<title>#/domains/commerce/subdomains/basket/boundedcontexts/basket.api</title>
<polygon fill="lightgrey" stroke="lightgrey" points="100,-68 100,-164 282,-164 282,-68 100,-68"/>
<text xml:space="preserve" text-anchor="middle" x="191" y="-151" font-family="sans-serif" font-size="10.00">Basket.API</text>
</g>
<g id="clust5" class="cluster namespace">
<title>#/domains/edge_&amp;_experience</title>
<polygon fill="lightgrey" stroke="lightgrey" points="66,-272 66,-488 316,-488 316,-272 66,-272"/>
<text xml:space="preserve" text-anchor="middle" x="191" y="-475" font-family="sans-serif" font-size="10.00">Edge &amp; Experience</text>
</g>
<g id="clust6" class="cluster namespace">
<title>#/domains/edge_&amp;_experience/subdomains/mobile</title>
<polygon fill="lightgrey" stroke="lightgrey" points="86,-292 86,-448 296,-448 296,-292 86,-292"/>
<text xml:space="preserve" text-anchor="middle" x="191" y="-435" font-family="sans-serif" font-size="10.00">Mobile</text>
</g>
<g id="clust7" class="cluster namespace">
<title>#/domains/edge_&amp;_experience/subdomains/mobile/boundedcontexts/experience_bff</title>
<polygon fill="lightgrey" stroke="lightgrey" points="106,-312 106,-408 276,-408 276,-312 106,-312"/>
<text xml:space="preserve" text-anchor="middle" x="191" y="-395" font-family="sans-serif" font-size="10.00">Experience BFF</text>
</g>
<!-- #/domains/commerce/subdomains/basket/boundedcontexts/basket.api/services/basket_service -->
<g id="node1" class="node">
<title>#/domains/commerce/subdomains/basket/boundedcontexts/basket.api/services/basket_service</title>
<g id="a_node1"><a xlink:title="Basket application service.">
<polygon fill="white" stroke="black" points="197.53,-88.05 201.86,-88.15 206.13,-88.3 210.35,-88.49 214.49,-88.74 218.53,-89.03 222.46,-89.36 226.27,-89.75 229.93,-90.18 233.43,-90.65 236.77,-91.16 239.93,-91.71 242.9,-92.31 245.67,-92.94 248.23,-93.61 250.58,-94.31 252.71,-95.04 254.61,-95.8 256.29,-96.59 257.73,-97.41 258.94,-98.25 259.92,-99.11 260.67,-99.99 261.2,-100.89 261.5,-101.8 261.58,-102.72 261.45,-103.65 261.11,-104.59 260.56,-105.53 259.83,-106.47 258.9,-107.41 257.81,-108.35 256.54,-109.28 255.11,-110.2 253.54,-111.11 251.82,-112.01 249.98,-112.89 248.01,-113.75 245.93,-114.59 243.75,-115.41 241.48,-116.2 239.12,-116.96 236.69,-117.69 234.18,-118.39 231.62,-119.06 229.01,-119.69 226.34,-120.29 223.64,-120.84 220.9,-121.35 218.13,-121.82 215.33,-122.25 212.51,-122.64 209.68,-122.97 206.83,-123.26 203.97,-123.51 201.09,-123.7 198.21,-123.85 195.33,-123.95 192.44,-124 189.56,-124 186.67,-123.95 183.79,-123.85 180.91,-123.7 178.03,-123.51 175.17,-123.26 172.32,-122.97 169.49,-122.64 166.67,-122.25 163.87,-121.82 161.1,-121.35 158.36,-120.84 155.66,-120.29 152.99,-119.69 150.38,-119.06 147.82,-118.39 145.31,-117.69 142.88,-116.96 140.52,-116.2 138.25,-115.41 136.07,-114.59 133.99,-113.75 132.02,-112.89 130.18,-112.01 128.46,-111.11 126.89,-110.2 125.46,-109.28 124.19,-108.35 123.1,-107.41 122.17,-106.47 121.44,-105.53 120.89,-104.59 120.55,-103.65 120.42,-102.72 120.5,-101.8 120.8,-100.89 121.33,-99.99 122.08,-99.11 123.06,-98.25 124.27,-97.41 125.71,-96.59 127.39,-95.8 129.29,-95.04 131.42,-94.31 133.77,-93.61 136.33,-92.94 139.1,-92.31 142.07,-91.71 145.23,-91.16 148.57,-90.65 152.07,-90.18 155.73,-89.75 159.54,-89.36 163.47,-89.03 167.51,-88.74 171.65,-88.49 175.87,-88.3 180.14,-88.15 184.47,-88.05 188.82,-88 193.18,-88 197.53,-88.05"/>
<text xml:space="preserve" text-anchor="middle" x="191" y="-101.8" font-family="sans-serif" font-size="14.00">BasketService</text>
</a>
</g>
</g>
<!-- #/domains/edge_&amp;_experience/subdomains/mobile/boundedcontexts/experience_bff/services/shopping_bff -->
<g id="node2" class="node">
<title>#/domains/edge_&amp;_experience/subdomains/mobile/boundedcontexts/experience_bff/services/shopping_bff</title>
<g id="a_node2"><a xlink:title="BFF that aggregates catalog/basket/ordering.">
<polygon fill="white" stroke="black" points="197,-332.05 200.98,-332.15 204.91,-332.3 208.79,-332.49 212.6,-332.74 216.31,-333.03 219.93,-333.36 223.42,-333.75 226.79,-334.18 230.01,-334.65 233.08,-335.16 235.99,-335.71 238.72,-336.31 241.26,-336.94 243.62,-337.61 245.78,-338.31 247.73,-339.04 249.48,-339.8 251.02,-340.59 252.35,-341.41 253.47,-342.25 254.37,-343.11 255.06,-343.99 255.54,-344.89 255.82,-345.8 255.89,-346.72 255.77,-347.65 255.45,-348.59 254.96,-349.53 254.28,-350.47 253.43,-351.41 252.42,-352.35 251.26,-353.28 249.94,-354.2 248.5,-355.11 246.92,-356.01 245.22,-356.89 243.41,-357.75 241.5,-358.59 239.5,-359.41 237.41,-360.2 235.24,-360.96 233,-361.69 230.7,-362.39 228.35,-363.06 225.94,-363.69 223.49,-364.29 221.01,-364.84 218.49,-365.35 215.94,-365.82 213.37,-366.25 210.78,-366.64 208.17,-366.97 205.55,-367.26 202.92,-367.51 200.28,-367.7 197.63,-367.85 194.98,-367.95 192.33,-368 189.67,-368 187.02,-367.95 184.37,-367.85 181.72,-367.7 179.08,-367.51 176.45,-367.26 173.83,-366.97 171.22,-366.64 168.63,-366.25 166.06,-365.82 163.51,-365.35 160.99,-364.84 158.51,-364.29 156.06,-363.69 153.65,-363.06 151.3,-362.39 149,-361.69 146.76,-360.96 144.59,-360.2 142.5,-359.41 140.5,-358.59 138.59,-357.75 136.78,-356.89 135.08,-356.01 133.5,-355.11 132.06,-354.2 130.74,-353.28 129.58,-352.35 128.57,-351.41 127.72,-350.47 127.04,-349.53 126.55,-348.59 126.23,-347.65 126.11,-346.72 126.18,-345.8 126.46,-344.89 126.94,-343.99 127.63,-343.11 128.53,-342.25 129.65,-341.41 130.98,-340.59 132.52,-339.8 134.27,-339.04 136.22,-338.31 138.38,-337.61 140.74,-336.94 143.28,-336.31 146.01,-335.71 148.92,-335.16 151.99,-334.65 155.21,-334.18 158.58,-333.75 162.07,-333.36 165.69,-333.03 169.4,-332.74 173.21,-332.49 177.09,-332.3 181.02,-332.15 185,-332.05 189,-332 193,-332 197,-332.05"/>
<text xml:space="preserve" text-anchor="middle" x="191" y="-345.8" font-family="sans-serif" font-size="14.00">ShoppingBff</text>
</a>
</g>
</g>
<!-- #/domains/edge_&amp;_experience/subdomains/mobile/boundedcontexts/experience_bff/services/shopping_bff&#45;&gt;#/domains/commerce/subdomains/basket/boundedcontexts/basket.api/services/basket_service -->
<g id="edge1" class="edge">
<title>#/domains/edge_&amp;_experience/subdomains/mobile/boundedcontexts/experience_bff/services/shopping_bff&#45;&gt;#/domains/commerce/subdomains/basket/boundedcontexts/basket.api/services/basket_service</title>
<path fill="none" stroke="black" d="M148.97,-334.71C111.29,-319.14 63.84,-291.11 77.34,-252 94.37,-202.68 135.85,-157.34 163.7,-130.93"/>
<polygon fill="black" stroke="black" points="165.8,-133.76 170.75,-124.39 161.04,-128.62 165.8,-133.76"/>
<text xml:space="preserve" text-anchor="middle" x="98.17" y="-255" font-family="sans-serif" font-size="10.00">GetBasket</text>
<g id="a_edge1&#45;headlabel"><a xlink:title="open&#45;host&#45;service">
<text xml:space="preserve" text-anchor="middle" x="171.86" y="-120.36" font-family="sans-serif" font-size="10.00">OHS</text>
</a>
</g>
<g id="a_edge1&#45;taillabel"><a xlink:title="anti&#45;corruption&#45;layer">
<text xml:space="preserve" text-anchor="middle" x="148.97" y="-331.71" font-family="sans-serif" font-size="10.00">ACL</text>
</a>
</g>
</g>
<!-- #/domains/edge_&amp;_experience/subdomains/mobile/boundedcontexts/experience_bff/services/shopping_bff&#45;&gt;#/domains/commerce/subdomains/basket/boundedcontexts/basket.api/services/basket_service -->
<g id="edge2" class="edge">
<title>#/domains/edge_&amp;_experience/subdomains/mobile/boundedcontexts/experience_bff/services/shopping_bff&#45;&gt;#/domains/commerce/subdomains/basket/boundedcontexts/basket.api/services/basket_service</title>
<path fill="none" stroke="black" d="M188.76,-331.78C186.65,-314.64 183.63,-287.55 182.45,-264 180.21,-219.23 184.36,-167.3 187.63,-135.82"/>
<polygon fill="black" stroke="black" points="191.1,-136.25 188.7,-125.93 184.14,-135.49 191.1,-136.25"/>
<text xml:space="preserve" text-anchor="middle" x="200.23" y="-255" font-family="sans-serif" font-size="10.00">AddItem</text>
<g id="a_edge2&#45;headlabel"><a xlink:title="open&#45;host&#45;service">
<text xml:space="preserve" text-anchor="middle" x="188.86" y="-121.42" font-family="sans-serif" font-size="10.00">OHS</text>
</a>
</g>
<g id="a_edge2&#45;taillabel"><a xlink:title="anti&#45;corruption&#45;layer">
<text xml:space="preserve" text-anchor="middle" x="188.76" y="-328.78" font-family="sans-serif" font-size="10.00">ACL</text>
</a>
</g>
</g>
<!-- #/domains/edge_&amp;_experience/subdomains/mobile/boundedcontexts/experience_bff/services/shopping_bff&#45;&gt;#/domains/commerce/subdomains/basket/boundedcontexts/basket.api/services/basket_service -->
<g id="edge3" class="edge">
<title>#/domains/edge_&amp;_experience/subdomains/mobile/boundedcontexts/experience_bff/services/shopping_bff&#45;&gt;#/domains/commerce/subdomains/basket/boundedcontexts/basket.api/services/basket_service</title>
<path fill="none" stroke="black" d="M201.01,-331.79C210.1,-315.1 222.85,-288.74 228,-264 237.55,-218.14 218.82,-165.18 204.69,-133.98"/>
<polygon fill="black" stroke="black" points="208.02,-132.82 200.59,-125.26 201.68,-135.8 208.02,-132.82"/>
<text xml:space="preserve" text-anchor="middle" x="253.88" y="-255" font-family="sans-serif" font-size="10.00">ClearBasket</text>
<g id="a_edge3&#45;headlabel"><a xlink:title="open&#45;host&#45;service">
<text xml:space="preserve" text-anchor="middle" x="199.94" y="-120.9" font-family="sans-serif" font-size="10.00">OHS</text>
</a>
</g>
<g id="a_edge3&#45;taillabel"><a xlink:title="anti&#45;corruption&#45;layer">
<text xml:space="preserve" text-anchor="middle" x="201.01" y="-328.79" font-family="sans-serif" font-size="10.00">ACL</text>
</a>
</g>
</g>
</g>
</svg>
