<?xml version="1.0" encoding="UTF-8" standalone="no"?>
<?xml-stylesheet href="data:text/css,.graph%20text%20%7B%0A%09font-family%3A%20sans-serif%3B%0A%09stroke%3A%20white%3B%0A%09paint-order%3A%20stroke%3B%0A%09stroke-width%3A%203%3B%0A%09stroke-linecap%3A%20square%3B%0A%7D%0A%0A.namespace%20polygon%20%7B%0A%09fill-opacity%3A%200.2%3B%0A%09stroke%3A%20none%3B%0A%7D%0A" type="text/css"?>
<!DOCTYPE svg PUBLIC "-//W3C//DTD SVG 1.1//EN"
 "http://www.w3.org/Graphics/SVG/1.1/DTD/svg11.dtd">
<!-- Generated by graphviz version 13.1.2 (0)
 -->
<!-- Pages: 1 -->
<svg width="642pt" height="508pt"
 viewBox="0.00 0.00 642.00 508.00" xmlns="http://www.w3.org/2000/svg" xmlns:xlink="http://www.w3.org/1999/xlink">
<g id="graph0" class="graph" transform="scale(1 1) rotate(0) translate(4 504)">
<polygon fill="white" stroke="none" points="-4,4 -4,-504 638,-504 638,4 -4,4"/>
<g id="clust1" class="cluster namespace">
<title>e_shop</title>
<polygon fill="lightgrey" stroke="lightgrey" points="8,-8 8,-492 626,-492 626,-8 8,-8"/>
<text xml:space="preserve" text-anchor="middle" x="317" y="-479" font-family="sans-serif" font-size="10.00">eShop</text>
</g>
<g id="clust2" class="cluster namespace">
<title>#/domains/identity_&amp;_access</title>
<polygon fill="lightgrey" stroke="lightgrey" points="16,-168 16,-312 162,-312 162,-168 16,-168"/>
<text xml:space="preserve" text-anchor="middle" x="89" y="-299" font-family="sans-serif" font-size="10.00">Identity &amp; Access</text>
</g>
<g id="clust3" class="cluster namespace">
<title>#/domains/identity_&amp;_access/subdomains/auth_n_and_auth_z</title>
<polygon fill="lightgrey" stroke="lightgrey" points="24,-176 24,-284 154,-284 154,-176 24,-176"/>
<text xml:space="preserve" text-anchor="middle" x="89" y="-271" font-family="sans-serif" font-size="10.00">AuthN and AuthZ</text>
</g>
<g id="clust4" class="cluster namespace">
<title>#/domains/edge_&amp;_experience</title>
<polygon fill="lightgrey" stroke="lightgrey" points="245,-320 245,-464 391,-464 391,-320 245,-320"/>
<text xml:space="preserve" text-anchor="middle" x="318" y="-451" font-family="sans-serif" font-size="10.00">Edge &amp; Experience</text>
</g>
<g id="clust5" class="cluster namespace">
<title>#/domains/edge_&amp;_experience/subdomains/mobile</title>
<polygon fill="lightgrey" stroke="lightgrey" points="253,-328 253,-436 383,-436 383,-328 253,-328"/>
<text xml:space="preserve" text-anchor="middle" x="318" y="-423" font-family="sans-serif" font-size="10.00">Mobile</text>
</g>
<g id="clust6" class="cluster namespace">
<title>#/domains/commerce</title>
<polygon fill="lightgrey" stroke="lightgrey" points="170,-168 170,-312 618,-312 618,-168 170,-168"/>
<text xml:space="preserve" text-anchor="middle" x="394" y="-299" font-family="sans-serif" font-size="10.00">Commerce</text>
</g>
<g id="clust7" class="cluster namespace">
<title>#/domains/commerce/subdomains/catalog</title>
<polygon fill="lightgrey" stroke="lightgrey" points="178,-176 178,-284 308,-284 308,-176 178,-176"/>
<text xml:space="preserve" text-anchor="middle" x="243" y="-271" font-family="sans-serif" font-size="10.00">Catalog</text>
</g>
<g id="clust8" class="cluster namespace">
<title>#/domains/commerce/subdomains/basket</title>
<polygon fill="lightgrey" stroke="lightgrey" points="329,-176 329,-284 459,-284 459,-176 329,-176"/>
<text xml:space="preserve" text-anchor="middle" x="394" y="-271" font-family="sans-serif" font-size="10.00">Basket</text>
</g>
<g id="clust9" class="cluster namespace">
<title>#/domains/commerce/subdomains/ordering</title>
<polygon fill="lightgrey" stroke="lightgrey" points="480,-176 480,-284 610,-284 610,-176 480,-176"/>
<text xml:space="preserve" text-anchor="middle" x="545" y="-271" font-family="sans-serif" font-size="10.00">Ordering</text>
</g>
<g id="clust10" class="cluster namespace">
<title>#/domains/payment_processing</title>
<polygon fill="lightgrey" stroke="lightgrey" points="466,-16 466,-160 618,-160 618,-16 466,-16"/>
<text xml:space="preserve" text-anchor="middle" x="542" y="-147" font-family="sans-serif" font-size="10.00">Payment Processing</text>
</g>
<g id="clust11" class="cluster namespace">
<title>#/domains/payment_processing/subdomains/payment_processors</title>
<polygon fill="lightgrey" stroke="lightgrey" points="474,-24 474,-132 610,-132 610,-24 474,-24"/>
<text xml:space="preserve" text-anchor="middle" x="542" y="-119" font-family="sans-serif" font-size="10.00">Payment Processors</text>
</g>
<!-- #/domains/identity_&amp;_access/subdomains/auth_n_and_auth_z/boundedcontexts/identity -->
<g id="node1" class="node">
<title>#/domains/identity_&amp;_access/subdomains/auth_n_and_auth_z/boundedcontexts/identity</title>
<g id="a_node1"><a xlink:title="Identity provider (Duende IdentityServer / OIDC).">
<polygon fill="white" stroke="black" points="94.32,-184.1 97.84,-184.3 101.33,-184.59 104.76,-184.98 108.13,-185.47 111.42,-186.05 114.63,-186.73 117.72,-187.5 120.71,-188.35 123.56,-189.29 126.28,-190.32 128.85,-191.43 131.27,-192.62 133.53,-193.88 135.62,-195.21 137.53,-196.61 139.26,-198.08 140.81,-199.6 142.17,-201.18 143.35,-202.82 144.34,-204.5 145.14,-206.22 145.75,-207.98 146.18,-209.77 146.42,-211.59 146.49,-213.44 146.38,-215.3 146.1,-217.17 145.66,-219.06 145.06,-220.94 144.31,-222.83 143.41,-224.7 142.38,-226.56 141.22,-228.41 139.94,-230.23 138.54,-232.02 137.03,-233.78 135.43,-235.5 133.74,-237.18 131.96,-238.82 130.11,-240.4 128.19,-241.92 126.21,-243.39 124.17,-244.79 122.09,-246.12 119.96,-247.38 117.79,-248.57 115.58,-249.68 113.35,-250.71 111.1,-251.65 108.82,-252.5 106.52,-253.27 104.21,-253.95 101.89,-254.53 99.56,-255.02 97.22,-255.41 94.88,-255.7 92.53,-255.9 90.18,-256 87.82,-256 85.47,-255.9 83.12,-255.7 80.78,-255.41 78.44,-255.02 76.11,-254.53 73.79,-253.95 71.48,-253.27 69.18,-252.5 66.9,-251.65 64.65,-250.71 62.42,-249.68 60.21,-248.57 58.04,-247.38 55.91,-246.12 53.83,-244.79 51.79,-243.39 49.81,-241.92 47.89,-240.4 46.04,-238.82 44.26,-237.18 42.57,-235.5 40.97,-233.78 39.46,-232.02 38.06,-230.23 36.78,-228.41 35.62,-226.56 34.59,-224.7 33.69,-222.83 32.94,-220.94 32.34,-219.06 31.9,-217.17 31.62,-215.3 31.51,-213.44 31.58,-211.59 31.82,-209.77 32.25,-207.98 32.86,-206.22 33.66,-204.5 34.65,-202.82 35.83,-201.18 37.19,-199.6 38.74,-198.08 40.47,-196.61 42.38,-195.21 44.47,-193.88 46.73,-192.62 49.15,-191.43 51.72,-190.32 54.44,-189.29 57.29,-188.35 60.28,-187.5 63.37,-186.73 66.58,-186.05 69.87,-185.47 73.24,-184.98 76.67,-184.59 80.16,-184.3 83.68,-184.1 87.22,-184 90.78,-184 94.32,-184.1"/>
<text xml:space="preserve" text-anchor="middle" x="89" y="-215.8" font-family="sans-serif" font-size="14.00">Identity</text>
</a>
</g>
</g>
<!-- #/domains/edge_&amp;_experience/subdomains/mobile/boundedcontexts/experience_bff -->
<g id="node2" class="node">
<title>#/domains/edge_&amp;_experience/subdomains/mobile/boundedcontexts/experience_bff</title>
<g id="a_node2"><a xlink:title="BFF that aggregates catalog/basket/ordering.">
<polygon fill="white" stroke="black" points="323.32,-336.1 326.84,-336.3 330.33,-336.59 333.76,-336.98 337.13,-337.47 340.42,-338.05 343.63,-338.73 346.72,-339.5 349.71,-340.35 352.56,-341.29 355.28,-342.32 357.85,-343.43 360.27,-344.62 362.53,-345.88 364.62,-347.21 366.53,-348.61 368.26,-350.08 369.81,-351.6 371.17,-353.18 372.35,-354.82 373.34,-356.5 374.14,-358.22 374.75,-359.98 375.18,-361.77 375.42,-363.59 375.49,-365.44 375.38,-367.3 375.1,-369.17 374.66,-371.06 374.06,-372.94 373.31,-374.83 372.41,-376.7 371.38,-378.56 370.22,-380.41 368.94,-382.23 367.54,-384.02 366.03,-385.78 364.43,-387.5 362.74,-389.18 360.96,-390.82 359.11,-392.4 357.19,-393.92 355.21,-395.39 353.17,-396.79 351.09,-398.12 348.96,-399.38 346.79,-400.57 344.58,-401.68 342.35,-402.71 340.1,-403.65 337.82,-404.5 335.52,-405.27 333.21,-405.95 330.89,-406.53 328.56,-407.02 326.22,-407.41 323.88,-407.7 321.53,-407.9 319.18,-408 316.82,-408 314.47,-407.9 312.12,-407.7 309.78,-407.41 307.44,-407.02 305.11,-406.53 302.79,-405.95 300.48,-405.27 298.18,-404.5 295.9,-403.65 293.65,-402.71 291.42,-401.68 289.21,-400.57 287.04,-399.38 284.91,-398.12 282.83,-396.79 280.79,-395.39 278.81,-393.92 276.89,-392.4 275.04,-390.82 273.26,-389.18 271.57,-387.5 269.97,-385.78 268.46,-384.02 267.06,-382.23 265.78,-380.41 264.62,-378.56 263.59,-376.7 262.69,-374.83 261.94,-372.94 261.34,-371.06 260.9,-369.17 260.62,-367.3 260.51,-365.44 260.58,-363.59 260.82,-361.77 261.25,-359.98 261.86,-358.22 262.66,-356.5 263.65,-354.82 264.83,-353.18 266.19,-351.6 267.74,-350.08 269.47,-348.61 271.38,-347.21 273.47,-345.88 275.73,-344.62 278.15,-343.43 280.72,-342.32 283.44,-341.29 286.29,-340.35 289.28,-339.5 292.37,-338.73 295.58,-338.05 298.87,-337.47 302.24,-336.98 305.67,-336.59 309.16,-336.3 312.68,-336.1 316.22,-336 319.78,-336 323.32,-336.1"/>
<text xml:space="preserve" text-anchor="middle" x="318" y="-367.8" font-family="sans-serif" font-size="14.00">Experience BFF</text>
</a>
</g>
</g>
<!-- #/domains/edge_&amp;_experience/subdomains/mobile/boundedcontexts/experience_bff&#45;&gt;#/domains/identity_&amp;_access/subdomains/auth_n_and_auth_z/boundedcontexts/identity -->
<g id="edge1" class="edge">
<title>#/domains/edge_&amp;_experience/subdomains/mobile/boundedcontexts/experience_bff&#45;&gt;#/domains/identity_&amp;_access/subdomains/auth_n_and_auth_z/boundedcontexts/identity</title>
<path fill="none" stroke="black" d="M262.51,-355.96C233.05,-346.32 197.21,-331.86 169,-312 149.37,-298.18 131.35,-278.6 117.4,-261.14"/>
<polygon fill="black" stroke="black" points="120.31,-259.19 111.41,-253.44 114.78,-263.49 120.31,-259.19"/>
<g id="a_edge1&#45;headlabel"><a xlink:title="open&#45;host&#45;service">
<text xml:space="preserve" text-anchor="middle" x="110.48" y="-249.25" font-family="sans-serif" font-size="10.00">OHS</text>
</a>
</g>
<g id="a_edge1&#45;taillabel"><a xlink:title="customer&#45;supplier">
<text xml:space="preserve" text-anchor="middle" x="262.51" y="-352.96" font-family="sans-serif" font-size="10.00">C/s</text>
</a>
</g>
</g>
<!-- #/domains/commerce/subdomains/catalog/boundedcontexts/catalog -->
<g id="node3" class="node">
<title>#/domains/commerce/subdomains/catalog/boundedcontexts/catalog</title>
<g id="a_node3"><a xlink:title="Minimal API for catalog queries and management.">
<polygon fill="white" stroke="black" points="248.32,-184.1 251.84,-184.3 255.33,-184.59 258.76,-184.98 262.13,-185.47 265.42,-186.05 268.63,-186.73 271.72,-187.5 274.71,-188.35 277.56,-189.29 280.28,-190.32 282.85,-191.43 285.27,-192.62 287.53,-193.88 289.62,-195.21 291.53,-196.61 293.26,-198.08 294.81,-199.6 296.17,-201.18 297.35,-202.82 298.34,-204.5 299.14,-206.22 299.75,-207.98 300.18,-209.77 300.42,-211.59 300.49,-213.44 300.38,-215.3 300.1,-217.17 299.66,-219.06 299.06,-220.94 298.31,-222.83 297.41,-224.7 296.38,-226.56 295.22,-228.41 293.94,-230.23 292.54,-232.02 291.03,-233.78 289.43,-235.5 287.74,-237.18 285.96,-238.82 284.11,-240.4 282.19,-241.92 280.21,-243.39 278.17,-244.79 276.09,-246.12 273.96,-247.38 271.79,-248.57 269.58,-249.68 267.35,-250.71 265.1,-251.65 262.82,-252.5 260.52,-253.27 258.21,-253.95 255.89,-254.53 253.56,-255.02 251.22,-255.41 248.88,-255.7 246.53,-255.9 244.18,-256 241.82,-256 239.47,-255.9 237.12,-255.7 234.78,-255.41 232.44,-255.02 230.11,-254.53 227.79,-253.95 225.48,-253.27 223.18,-252.5 220.9,-251.65 218.65,-250.71 216.42,-249.68 214.21,-248.57 212.04,-247.38 209.91,-246.12 207.83,-244.79 205.79,-243.39 203.81,-241.92 201.89,-240.4 200.04,-238.82 198.26,-237.18 196.57,-235.5 194.97,-233.78 193.46,-232.02 192.06,-230.23 190.78,-228.41 189.62,-226.56 188.59,-224.7 187.69,-222.83 186.94,-220.94 186.34,-219.06 185.9,-217.17 185.62,-215.3 185.51,-213.44 185.58,-211.59 185.82,-209.77 186.25,-207.98 186.86,-206.22 187.66,-204.5 188.65,-202.82 189.83,-201.18 191.19,-199.6 192.74,-198.08 194.47,-196.61 196.38,-195.21 198.47,-193.88 200.73,-192.62 203.15,-191.43 205.72,-190.32 208.44,-189.29 211.29,-188.35 214.28,-187.5 217.37,-186.73 220.58,-186.05 223.87,-185.47 227.24,-184.98 230.67,-184.59 234.16,-184.3 237.68,-184.1 241.22,-184 244.78,-184 248.32,-184.1"/>
<text xml:space="preserve" text-anchor="middle" x="243" y="-215.8" font-family="sans-serif" font-size="14.00">Catalog</text>
</a>
</g>
</g>
<!-- #/domains/edge_&amp;_experience/subdomains/mobile/boundedcontexts/experience_bff&#45;&gt;#/domains/commerce/subdomains/catalog/boundedcontexts/catalog -->
<g id="edge2" class="edge">
<title>#/domains/edge_&amp;_experience/subdomains/mobile/boundedcontexts/experience_bff&#45;&gt;#/domains/commerce/subdomains/catalog/boundedcontexts/catalog</title>
<path fill="none" stroke="black" d="M300.98,-336.96C290.19,-315.37 276.13,-287.26 264.56,-264.11"/>
<polygon fill="black" stroke="black" points="267.72,-262.6 260.11,-255.23 261.45,-265.74 267.72,-262.6"/>
<g id="a_edge2&#45;headlabel"><a xlink:title="open&#45;host&#45;service">
<text xml:space="preserve" text-anchor="middle" x="259.44" y="-250.87" font-family="sans-serif" font-size="10.00">OHS</text>
</a>
</g>
<g id="a_edge2&#45;taillabel"><a xlink:title="anti&#45;corruption&#45;layer">
<text xml:space="preserve" text-anchor="middle" x="300.98" y="-333.96" font-family="sans-serif" font-size="10.00">ACL</text>
</a>
</g>
</g>
<!-- #/domains/commerce/subdomains/basket/boundedcontexts/basket -->
<g id="node4" class="node">
<title>#/domains/commerce/subdomains/basket/boundedcontexts/basket</title>
<g id="a_node4"><a xlink:title="Basket service (gRPC/HTTP) to manage user baskets.">
<polygon fill="white" stroke="black" points="399.32,-184.1 402.84,-184.3 406.33,-184.59 409.76,-184.98 413.13,-185.47 416.42,-186.05 419.63,-186.73 422.72,-187.5 425.71,-188.35 428.56,-189.29 431.28,-190.32 433.85,-191.43 436.27,-192.62 438.53,-193.88 440.62,-195.21 442.53,-196.61 444.26,-198.08 445.81,-199.6 447.17,-201.18 448.35,-202.82 449.34,-204.5 450.14,-206.22 450.75,-207.98 451.18,-209.77 451.42,-211.59 451.49,-213.44 451.38,-215.3 451.1,-217.17 450.66,-219.06 450.06,-220.94 449.31,-222.83 448.41,-224.7 447.38,-226.56 446.22,-228.41 444.94,-230.23 443.54,-232.02 442.03,-233.78 440.43,-235.5 438.74,-237.18 436.96,-238.82 435.11,-240.4 433.19,-241.92 431.21,-243.39 429.17,-244.79 427.09,-246.12 424.96,-247.38 422.79,-248.57 420.58,-249.68 418.35,-250.71 416.1,-251.65 413.82,-252.5 411.52,-253.27 409.21,-253.95 406.89,-254.53 404.56,-255.02 402.22,-255.41 399.88,-255.7 397.53,-255.9 395.18,-256 392.82,-256 390.47,-255.9 388.12,-255.7 385.78,-255.41 383.44,-255.02 381.11,-254.53 378.79,-253.95 376.48,-253.27 374.18,-252.5 371.9,-251.65 369.65,-250.71 367.42,-249.68 365.21,-248.57 363.04,-247.38 360.91,-246.12 358.83,-244.79 356.79,-243.39 354.81,-241.92 352.89,-240.4 351.04,-238.82 349.26,-237.18 347.57,-235.5 345.97,-233.78 344.46,-232.02 343.06,-230.23 341.78,-228.41 340.62,-226.56 339.59,-224.7 338.69,-222.83 337.94,-220.94 337.34,-219.06 336.9,-217.17 336.62,-215.3 336.51,-213.44 336.58,-211.59 336.82,-209.77 337.25,-207.98 337.86,-206.22 338.66,-204.5 339.65,-202.82 340.83,-201.18 342.19,-199.6 343.74,-198.08 345.47,-196.61 347.38,-195.21 349.47,-193.88 351.73,-192.62 354.15,-191.43 356.72,-190.32 359.44,-189.29 362.29,-188.35 365.28,-187.5 368.37,-186.73 371.58,-186.05 374.87,-185.47 378.24,-184.98 381.67,-184.59 385.16,-184.3 388.68,-184.1 392.22,-184 395.78,-184 399.32,-184.1"/>
<text xml:space="preserve" text-anchor="middle" x="394" y="-215.8" font-family="sans-serif" font-size="14.00">Basket</text>
</a>
</g>
</g>
<!-- #/domains/edge_&amp;_experience/subdomains/mobile/boundedcontexts/experience_bff&#45;&gt;#/domains/commerce/subdomains/basket/boundedcontexts/basket -->
<g id="edge3" class="edge">
<title>#/domains/edge_&amp;_experience/subdomains/mobile/boundedcontexts/experience_bff&#45;&gt;#/domains/commerce/subdomains/basket/boundedcontexts/basket</title>
<path fill="none" stroke="black" d="M335.25,-336.96C346.18,-315.37 360.43,-287.26 372.16,-264.11"/>
<polygon fill="black" stroke="black" points="375.26,-265.72 376.66,-255.22 369.02,-262.56 375.26,-265.72"/>
<g id="a_edge3&#45;headlabel"><a xlink:title="open&#45;host&#45;service">
<text xml:space="preserve" text-anchor="middle" x="377.34" y="-250.87" font-family="sans-serif" font-size="10.00">OHS</text>
</a>
</g>
<g id="a_edge3&#45;taillabel"><a xlink:title="anti&#45;corruption&#45;layer">
<text xml:space="preserve" text-anchor="middle" x="335.25" y="-333.96" font-family="sans-serif" font-size="10.00">ACL</text>
</a>
</g>
</g>
<!-- #/domains/commerce/subdomains/ordering/boundedcontexts/ordering -->
<g id="node5" class="node">
<title>#/domains/commerce/subdomains/ordering/boundedcontexts/ordering</title>
<g id="a_node5"><a xlink:title="Order lifecycle, status and events.">
<polygon fill="white" stroke="black" points="550.32,-184.1 553.84,-184.3 557.33,-184.59 560.76,-184.98 564.13,-185.47 567.42,-186.05 570.63,-186.73 573.72,-187.5 576.71,-188.35 579.56,-189.29 582.28,-190.32 584.85,-191.43 587.27,-192.62 589.53,-193.88 591.62,-195.21 593.53,-196.61 595.26,-198.08 596.81,-199.6 598.17,-201.18 599.35,-202.82 600.34,-204.5 601.14,-206.22 601.75,-207.98 602.18,-209.77 602.42,-211.59 602.49,-213.44 602.38,-215.3 602.1,-217.17 601.66,-219.06 601.06,-220.94 600.31,-222.83 599.41,-224.7 598.38,-226.56 597.22,-228.41 595.94,-230.23 594.54,-232.02 593.03,-233.78 591.43,-235.5 589.74,-237.18 587.96,-238.82 586.11,-240.4 584.19,-241.92 582.21,-243.39 580.17,-244.79 578.09,-246.12 575.96,-247.38 573.79,-248.57 571.58,-249.68 569.35,-250.71 567.1,-251.65 564.82,-252.5 562.52,-253.27 560.21,-253.95 557.89,-254.53 555.56,-255.02 553.22,-255.41 550.88,-255.7 548.53,-255.9 546.18,-256 543.82,-256 541.47,-255.9 539.12,-255.7 536.78,-255.41 534.44,-255.02 532.11,-254.53 529.79,-253.95 527.48,-253.27 525.18,-252.5 522.9,-251.65 520.65,-250.71 518.42,-249.68 516.21,-248.57 514.04,-247.38 511.91,-246.12 509.83,-244.79 507.79,-243.39 505.81,-241.92 503.89,-240.4 502.04,-238.82 500.26,-237.18 498.57,-235.5 496.97,-233.78 495.46,-232.02 494.06,-230.23 492.78,-228.41 491.62,-226.56 490.59,-224.7 489.69,-222.83 488.94,-220.94 488.34,-219.06 487.9,-217.17 487.62,-215.3 487.51,-213.44 487.58,-211.59 487.82,-209.77 488.25,-207.98 488.86,-206.22 489.66,-204.5 490.65,-202.82 491.83,-201.18 493.19,-199.6 494.74,-198.08 496.47,-196.61 498.38,-195.21 500.47,-193.88 502.73,-192.62 505.15,-191.43 507.72,-190.32 510.44,-189.29 513.29,-188.35 516.28,-187.5 519.37,-186.73 522.58,-186.05 525.87,-185.47 529.24,-184.98 532.67,-184.59 536.16,-184.3 539.68,-184.1 543.22,-184 546.78,-184 550.32,-184.1"/>
<text xml:space="preserve" text-anchor="middle" x="545" y="-215.8" font-family="sans-serif" font-size="14.00">Ordering</text>
</a>
</g>
</g>
<!-- #/domains/edge_&amp;_experience/subdomains/mobile/boundedcontexts/experience_bff&#45;&gt;#/domains/commerce/subdomains/ordering/boundedcontexts/ordering -->
<g id="edge4" class="edge">
<title>#/domains/edge_&amp;_experience/subdomains/mobile/boundedcontexts/experience_bff&#45;&gt;#/domains/commerce/subdomains/ordering/boundedcontexts/ordering</title>
<path fill="none" stroke="black" d="M373.66,-356.35C403.43,-346.8 439.68,-332.29 468,-312 487.2,-298.25 504.58,-278.67 517.95,-261.2"/>
<polygon fill="black" stroke="black" points="520.51,-263.63 523.66,-253.51 514.89,-259.45 520.51,-263.63"/>
<g id="a_edge4&#45;headlabel"><a xlink:title="open&#45;host&#45;service">
<text xml:space="preserve" text-anchor="middle" x="524.56" y="-249.3" font-family="sans-serif" font-size="10.00">OHS</text>
</a>
</g>
<g id="a_edge4&#45;taillabel"><a xlink:title="anti&#45;corruption&#45;layer">
<text xml:space="preserve" text-anchor="middle" x="373.66" y="-353.35" font-family="sans-serif" font-size="10.00">ACL</text>
</a>
</g>
</g>
<!-- #/domains/payment_processing/subdomains/payment_processors/boundedcontexts/payment_processor -->
<g id="node6" class="node">
<title>#/domains/payment_processing/subdomains/payment_processors/boundedcontexts/payment_processor</title>
<g id="a_node6"><a xlink:title="Simulated external payment processor.">
<polygon fill="white" stroke="black" points="547.32,-32.1 550.84,-32.3 554.33,-32.59 557.76,-32.98 561.13,-33.47 564.42,-34.05 567.63,-34.73 570.72,-35.5 573.71,-36.35 576.56,-37.29 579.28,-38.32 581.85,-39.43 584.27,-40.62 586.53,-41.88 588.62,-43.21 590.53,-44.61 592.26,-46.08 593.81,-47.6 595.17,-49.18 596.35,-50.82 597.34,-52.5 598.14,-54.22 598.75,-55.98 599.18,-57.77 599.42,-59.59 599.49,-61.44 599.38,-63.3 599.1,-65.17 598.66,-67.06 598.06,-68.94 597.31,-70.83 596.41,-72.7 595.38,-74.56 594.22,-76.41 592.94,-78.23 591.54,-80.02 590.03,-81.78 588.43,-83.5 586.74,-85.18 584.96,-86.82 583.11,-88.4 581.19,-89.92 579.21,-91.39 577.17,-92.79 575.09,-94.12 572.96,-95.38 570.79,-96.57 568.58,-97.68 566.35,-98.71 564.1,-99.65 561.82,-100.5 559.52,-101.27 557.21,-101.95 554.89,-102.53 552.56,-103.02 550.22,-103.41 547.88,-103.7 545.53,-103.9 543.18,-104 540.82,-104 538.47,-103.9 536.12,-103.7 533.78,-103.41 531.44,-103.02 529.11,-102.53 526.79,-101.95 524.48,-101.27 522.18,-100.5 519.9,-99.65 517.65,-98.71 515.42,-97.68 513.21,-96.57 511.04,-95.38 508.91,-94.12 506.83,-92.79 504.79,-91.39 502.81,-89.92 500.89,-88.4 499.04,-86.82 497.26,-85.18 495.57,-83.5 493.97,-81.78 492.46,-80.02 491.06,-78.23 489.78,-76.41 488.62,-74.56 487.59,-72.7 486.69,-70.83 485.94,-68.94 485.34,-67.06 484.9,-65.17 484.62,-63.3 484.51,-61.44 484.58,-59.59 484.82,-57.77 485.25,-55.98 485.86,-54.22 486.66,-52.5 487.65,-50.82 488.83,-49.18 490.19,-47.6 491.74,-46.08 493.47,-44.61 495.38,-43.21 497.47,-41.88 499.73,-40.62 502.15,-39.43 504.72,-38.32 507.44,-37.29 510.29,-36.35 513.28,-35.5 516.37,-34.73 519.58,-34.05 522.87,-33.47 526.24,-32.98 529.67,-32.59 533.16,-32.3 536.68,-32.1 540.22,-32 543.78,-32 547.32,-32.1"/>
<text xml:space="preserve" text-anchor="middle" x="542" y="-63.8" font-family="sans-serif" font-size="14.00">PaymentProcessor</text>
</a>
</g>
</g>
<!-- #/domains/commerce/subdomains/ordering/boundedcontexts/ordering&#45;&gt;#/domains/payment_processing/subdomains/payment_processors/boundedcontexts/payment_processor -->
<g id="edge5" class="edge">
<title>#/domains/commerce/subdomains/ordering/boundedcontexts/ordering&#45;&gt;#/domains/payment_processing/subdomains/payment_processors/boundedcontexts/payment_processor</title>
<path fill="none" stroke="black" d="M532.7,-184.21C530.12,-163.5 529.28,-136.98 530.38,-114.61"/>
<polygon fill="black" stroke="black" points="533.86,-115.06 531.03,-104.85 526.87,-114.6 533.86,-115.06"/>
<g id="a_edge5&#45;headlabel"><a xlink:title="open&#45;host&#45;service">
<text xml:space="preserve" text-anchor="middle" x="531.13" y="-100.34" font-family="sans-serif" font-size="10.00">OHS</text>
</a>
</g>
<g id="a_edge5&#45;taillabel"><a xlink:title="customer&#45;supplier">
<text xml:space="preserve" text-anchor="middle" x="532.7" y="-181.21" font-family="sans-serif" font-size="10.00">C/s</text>
</a>
</g>
</g>
<!-- #/domains/commerce/subdomains/ordering/boundedcontexts/ordering&#45;&gt;#/domains/payment_processing/subdomains/payment_processors/boundedcontexts/payment_processor -->
<g id="edge6" class="edge">
<title>#/domains/commerce/subdomains/ordering/boundedcontexts/ordering&#45;&gt;#/domains/payment_processing/subdomains/payment_processors/boundedcontexts/payment_processor</title>
<path fill="none" stroke="black" d="M555.91,-184.21C557.67,-163.43 557.44,-136.79 555.42,-114.37"/>
<polygon fill="black" stroke="black" points="558.92,-114.16 554.37,-104.59 551.96,-114.91 558.92,-114.16"/>
<g id="a_edge6&#45;headlabel"><a xlink:title="published&#45;language">
<text xml:space="preserve" text-anchor="middle" x="554.21" y="-100.08" font-family="sans-serif" font-size="10.00">PL</text>
</a>
</g>
<g id="a_edge6&#45;taillabel"><a xlink:title="conformist">
<text xml:space="preserve" text-anchor="middle" x="555.91" y="-181.21" font-family="sans-serif" font-size="10.00">C</text>
</a>
</g>
</g>
</g>
</svg>
