<?xml version="1.0" encoding="UTF-8" standalone="no"?>
<?xml-stylesheet href="data:text/css,.graph%20text%20%7B%0A%09font-family%3A%20sans-serif%3B%0A%09stroke%3A%20white%3B%0A%09paint-order%3A%20stroke%3B%0A%09stroke-width%3A%203%3B%0A%09stroke-linecap%3A%20square%3B%0A%7D%0A%0A.namespace%20polygon%20%7B%0A%09fill-opacity%3A%200.2%3B%0A%09stroke%3A%20none%3B%0A%7D%0A" type="text/css"?>
<!DOCTYPE svg PUBLIC "-//W3C//DTD SVG 1.1//EN"
 "http://www.w3.org/Graphics/SVG/1.1/DTD/svg11.dtd">
<!-- Generated by graphviz version 13.1.2 (0)
 -->
<!-- Pages: 1 -->
<svg width="337pt" height="320pt"
 viewBox="0.00 0.00 337.00 320.00" xmlns="http://www.w3.org/2000/svg" xmlns:xlink="http://www.w3.org/1999/xlink">
<g id="graph0" class="graph" transform="scale(1 1) rotate(0) translate(4 316)">
<polygon fill="white" stroke="none" points="-4,4 -4,-316 333,-316 333,4 -4,4"/>
<g id="clust1" class="cluster namespace">
<title>swagger_petstore_(v3)</title>
<polygon fill="lightgrey" stroke="lightgrey" points="8,-8 8,-304 321,-304 321,-8 8,-8"/>
<text xml:space="preserve" text-anchor="middle" x="164.5" y="-291" font-family="sans-serif" font-size="10.00">Swagger Petstore (v3)</text>
</g>
<g id="clust2" class="cluster namespace">
<title>#/domains/petstore_commerce</title>
<polygon fill="lightgrey" stroke="lightgrey" points="16,-16 16,-276 313,-276 313,-16 16,-16"/>
<text xml:space="preserve" text-anchor="middle" x="164.5" y="-263" font-family="sans-serif" font-size="10.00">Petstore Commerce</text>
</g>
<g id="clust3" class="cluster namespace">
<title>#/domains/petstore_commerce/subdomains/inventory</title>
<polygon fill="lightgrey" stroke="lightgrey" points="90,-140 90,-248 238,-248 238,-140 90,-140"/>
<text xml:space="preserve" text-anchor="middle" x="164" y="-235" font-family="sans-serif" font-size="10.00">Inventory</text>
</g>
<g id="clust4" class="cluster namespace">
<title>#/domains/petstore_commerce/subdomains/catalog</title>
<polygon fill="lightgrey" stroke="lightgrey" points="24,-24 24,-132 154,-132 154,-24 24,-24"/>
<text xml:space="preserve" text-anchor="middle" x="89" y="-119" font-family="sans-serif" font-size="10.00">Catalog</text>
</g>
<g id="clust5" class="cluster namespace">
<title>#/domains/petstore_commerce/subdomains/sales</title>
<polygon fill="lightgrey" stroke="lightgrey" points="175,-24 175,-132 305,-132 305,-24 175,-24"/>
<text xml:space="preserve" text-anchor="middle" x="240" y="-119" font-family="sans-serif" font-size="10.00">Sales</text>
</g>
<!-- #/domains/petstore_commerce/subdomains/inventory/boundedcontexts/inventory_bc -->
<g id="node1" class="node">
<title>#/domains/petstore_commerce/subdomains/inventory/boundedcontexts/inventory_bc</title>
<g id="a_node1"><a xlink:title="Projection for /store/inventory (status→count)">
<polygon fill="white" stroke="black" points="160.32,-148.1 163.84,-148.3 167.33,-148.59 170.76,-148.98 174.13,-149.47 177.42,-150.05 180.63,-150.73 183.72,-151.5 186.71,-152.35 189.56,-153.29 192.28,-154.32 194.85,-155.43 197.27,-156.62 199.53,-157.88 201.62,-159.21 203.53,-160.61 205.26,-162.08 206.81,-163.6 208.17,-165.18 209.35,-166.82 210.34,-168.5 211.14,-170.22 211.75,-171.98 212.18,-173.77 212.42,-175.59 212.49,-177.44 212.38,-179.3 212.1,-181.17 211.66,-183.06 211.06,-184.94 210.31,-186.83 209.41,-188.7 208.38,-190.56 207.22,-192.41 205.94,-194.23 204.54,-196.02 203.03,-197.78 201.43,-199.5 199.74,-201.18 197.96,-202.82 196.11,-204.4 194.19,-205.92 192.21,-207.39 190.17,-208.79 188.09,-210.12 185.96,-211.38 183.79,-212.57 181.58,-213.68 179.35,-214.71 177.1,-215.65 174.82,-216.5 172.52,-217.27 170.21,-217.95 167.89,-218.53 165.56,-219.02 163.22,-219.41 160.88,-219.7 158.53,-219.9 156.18,-220 153.82,-220 151.47,-219.9 149.12,-219.7 146.78,-219.41 144.44,-219.02 142.11,-218.53 139.79,-217.95 137.48,-217.27 135.18,-216.5 132.9,-215.65 130.65,-214.71 128.42,-213.68 126.21,-212.57 124.04,-211.38 121.91,-210.12 119.83,-208.79 117.79,-207.39 115.81,-205.92 113.89,-204.4 112.04,-202.82 110.26,-201.18 108.57,-199.5 106.97,-197.78 105.46,-196.02 104.06,-194.23 102.78,-192.41 101.62,-190.56 100.59,-188.7 99.69,-186.83 98.94,-184.94 98.34,-183.06 97.9,-181.17 97.62,-179.3 97.51,-177.44 97.58,-175.59 97.82,-173.77 98.25,-171.98 98.86,-170.22 99.66,-168.5 100.65,-166.82 101.83,-165.18 103.19,-163.6 104.74,-162.08 106.47,-160.61 108.38,-159.21 110.47,-157.88 112.73,-156.62 115.15,-155.43 117.72,-154.32 120.44,-153.29 123.29,-152.35 126.28,-151.5 129.37,-150.73 132.58,-150.05 135.87,-149.47 139.24,-148.98 142.67,-148.59 146.16,-148.3 149.68,-148.1 153.22,-148 156.78,-148 160.32,-148.1"/>
<text xml:space="preserve" text-anchor="middle" x="155" y="-179.8" font-family="sans-serif" font-size="14.00">Inventory BC</text>
</a>
</g>
</g>
<!-- #/domains/petstore_commerce/subdomains/inventory/boundedcontexts/inventory_bc&#45;&gt;#/domains/petstore_commerce/subdomains/inventory/boundedcontexts/inventory_bc -->
<g id="edge1" class="edge">
<title>#/domains/petstore_commerce/subdomains/inventory/boundedcontexts/inventory_bc&#45;&gt;#/domains/petstore_commerce/subdomains/inventory/boundedcontexts/inventory_bc</title>
<path fill="none" stroke="black" d="M196.82,-204.12C223.22,-209.17 248.49,-202.46 248.49,-184 248.49,-170.59 235.15,-163.38 217.73,-162.37"/>
<polygon fill="black" stroke="black" points="217.9,-158.87 207.95,-162.52 218.01,-165.87 217.9,-158.87"/>
<g id="a_edge1&#45;headlabel"><a xlink:title="published&#45;language">
<text xml:space="preserve" text-anchor="middle" x="206.44" y="-159.55" font-family="sans-serif" font-size="10.00">PL</text>
</a>
</g>
<g id="a_edge1&#45;taillabel"><a xlink:title="conformist">
<text xml:space="preserve" text-anchor="middle" x="196.82" y="-201.12" font-family="sans-serif" font-size="10.00">C</text>
</a>
</g>
</g>
<!-- #/domains/petstore_commerce/subdomains/catalog/boundedcontexts/catalog_bc -->
<g id="node2" class="node">
<title>#/domains/petstore_commerce/subdomains/catalog/boundedcontexts/catalog_bc</title>
<g id="a_node2"><a xlink:title="Owns Pet aggregate &amp; pet&#45;facing operations">
<polygon fill="white" stroke="black" points="94.32,-32.1 97.84,-32.3 101.33,-32.59 104.76,-32.98 108.13,-33.47 111.42,-34.05 114.63,-34.73 117.72,-35.5 120.71,-36.35 123.56,-37.29 126.28,-38.32 128.85,-39.43 131.27,-40.62 133.53,-41.88 135.62,-43.21 137.53,-44.61 139.26,-46.08 140.81,-47.6 142.17,-49.18 143.35,-50.82 144.34,-52.5 145.14,-54.22 145.75,-55.98 146.18,-57.77 146.42,-59.59 146.49,-61.44 146.38,-63.3 146.1,-65.17 145.66,-67.06 145.06,-68.94 144.31,-70.83 143.41,-72.7 142.38,-74.56 141.22,-76.41 139.94,-78.23 138.54,-80.02 137.03,-81.78 135.43,-83.5 133.74,-85.18 131.96,-86.82 130.11,-88.4 128.19,-89.92 126.21,-91.39 124.17,-92.79 122.09,-94.12 119.96,-95.38 117.79,-96.57 115.58,-97.68 113.35,-98.71 111.1,-99.65 108.82,-100.5 106.52,-101.27 104.21,-101.95 101.89,-102.53 99.56,-103.02 97.22,-103.41 94.88,-103.7 92.53,-103.9 90.18,-104 87.82,-104 85.47,-103.9 83.12,-103.7 80.78,-103.41 78.44,-103.02 76.11,-102.53 73.79,-101.95 71.48,-101.27 69.18,-100.5 66.9,-99.65 64.65,-98.71 62.42,-97.68 60.21,-96.57 58.04,-95.38 55.91,-94.12 53.83,-92.79 51.79,-91.39 49.81,-89.92 47.89,-88.4 46.04,-86.82 44.26,-85.18 42.57,-83.5 40.97,-81.78 39.46,-80.02 38.06,-78.23 36.78,-76.41 35.62,-74.56 34.59,-72.7 33.69,-70.83 32.94,-68.94 32.34,-67.06 31.9,-65.17 31.62,-63.3 31.51,-61.44 31.58,-59.59 31.82,-57.77 32.25,-55.98 32.86,-54.22 33.66,-52.5 34.65,-50.82 35.83,-49.18 37.19,-47.6 38.74,-46.08 40.47,-44.61 42.38,-43.21 44.47,-41.88 46.73,-40.62 49.15,-39.43 51.72,-38.32 54.44,-37.29 57.29,-36.35 60.28,-35.5 63.37,-34.73 66.58,-34.05 69.87,-33.47 73.24,-32.98 76.67,-32.59 80.16,-32.3 83.68,-32.1 87.22,-32 90.78,-32 94.32,-32.1"/>
<text xml:space="preserve" text-anchor="middle" x="89" y="-63.8" font-family="sans-serif" font-size="14.00">Catalog BC</text>
</a>
</g>
</g>
<!-- #/domains/petstore_commerce/subdomains/inventory/boundedcontexts/inventory_bc&#45;&gt;#/domains/petstore_commerce/subdomains/catalog/boundedcontexts/catalog_bc -->
<g id="edge2" class="edge">
<title>#/domains/petstore_commerce/subdomains/inventory/boundedcontexts/inventory_bc&#45;&gt;#/domains/petstore_commerce/subdomains/catalog/boundedcontexts/catalog_bc</title>
<path fill="none" stroke="black" d="M135.38,-149.1C128.42,-137.09 120.51,-123.43 113.22,-110.83"/>
<polygon fill="black" stroke="black" points="116.33,-109.22 108.29,-102.32 110.27,-112.72 116.33,-109.22"/>
<g id="a_edge2&#45;headlabel"><a xlink:title="published&#45;language">
<text xml:space="preserve" text-anchor="middle" x="107.53" y="-98.01" font-family="sans-serif" font-size="10.00">PL</text>
</a>
</g>
<g id="a_edge2&#45;taillabel"><a xlink:title="conformist">
<text xml:space="preserve" text-anchor="middle" x="135.38" y="-146.1" font-family="sans-serif" font-size="10.00">C</text>
</a>
</g>
</g>
<!-- #/domains/petstore_commerce/subdomains/sales/boundedcontexts/sales_bc -->
<g id="node3" class="node">
<title>#/domains/petstore_commerce/subdomains/sales/boundedcontexts/sales_bc</title>
<g id="a_node3"><a xlink:title="Owns Order aggregate &amp; order&#45;facing operations">
<polygon fill="white" stroke="black" points="245.32,-32.1 248.84,-32.3 252.33,-32.59 255.76,-32.98 259.13,-33.47 262.42,-34.05 265.63,-34.73 268.72,-35.5 271.71,-36.35 274.56,-37.29 277.28,-38.32 279.85,-39.43 282.27,-40.62 284.53,-41.88 286.62,-43.21 288.53,-44.61 290.26,-46.08 291.81,-47.6 293.17,-49.18 294.35,-50.82 295.34,-52.5 296.14,-54.22 296.75,-55.98 297.18,-57.77 297.42,-59.59 297.49,-61.44 297.38,-63.3 297.1,-65.17 296.66,-67.06 296.06,-68.94 295.31,-70.83 294.41,-72.7 293.38,-74.56 292.22,-76.41 290.94,-78.23 289.54,-80.02 288.03,-81.78 286.43,-83.5 284.74,-85.18 282.96,-86.82 281.11,-88.4 279.19,-89.92 277.21,-91.39 275.17,-92.79 273.09,-94.12 270.96,-95.38 268.79,-96.57 266.58,-97.68 264.35,-98.71 262.1,-99.65 259.82,-100.5 257.52,-101.27 255.21,-101.95 252.89,-102.53 250.56,-103.02 248.22,-103.41 245.88,-103.7 243.53,-103.9 241.18,-104 238.82,-104 236.47,-103.9 234.12,-103.7 231.78,-103.41 229.44,-103.02 227.11,-102.53 224.79,-101.95 222.48,-101.27 220.18,-100.5 217.9,-99.65 215.65,-98.71 213.42,-97.68 211.21,-96.57 209.04,-95.38 206.91,-94.12 204.83,-92.79 202.79,-91.39 200.81,-89.92 198.89,-88.4 197.04,-86.82 195.26,-85.18 193.57,-83.5 191.97,-81.78 190.46,-80.02 189.06,-78.23 187.78,-76.41 186.62,-74.56 185.59,-72.7 184.69,-70.83 183.94,-68.94 183.34,-67.06 182.9,-65.17 182.62,-63.3 182.51,-61.44 182.58,-59.59 182.82,-57.77 183.25,-55.98 183.86,-54.22 184.66,-52.5 185.65,-50.82 186.83,-49.18 188.19,-47.6 189.74,-46.08 191.47,-44.61 193.38,-43.21 195.47,-41.88 197.73,-40.62 200.15,-39.43 202.72,-38.32 205.44,-37.29 208.29,-36.35 211.28,-35.5 214.37,-34.73 217.58,-34.05 220.87,-33.47 224.24,-32.98 227.67,-32.59 231.16,-32.3 234.68,-32.1 238.22,-32 241.78,-32 245.32,-32.1"/>
<text xml:space="preserve" text-anchor="middle" x="240" y="-63.8" font-family="sans-serif" font-size="14.00">Sales BC</text>
</a>
</g>
</g>
<!-- #/domains/petstore_commerce/subdomains/inventory/boundedcontexts/inventory_bc&#45;&gt;#/domains/petstore_commerce/subdomains/sales/boundedcontexts/sales_bc -->
<g id="edge3" class="edge">
<title>#/domains/petstore_commerce/subdomains/inventory/boundedcontexts/inventory_bc&#45;&gt;#/domains/petstore_commerce/subdomains/sales/boundedcontexts/sales_bc</title>
<path fill="none" stroke="black" d="M179.59,-150.03C189.23,-137.1 200.37,-122.15 210.45,-108.64"/>
<polygon fill="black" stroke="black" points="213.14,-110.88 216.31,-100.77 207.53,-106.7 213.14,-110.88"/>
<g id="a_edge3&#45;headlabel"><a xlink:title="published&#45;language">
<text xml:space="preserve" text-anchor="middle" x="217.22" y="-96.56" font-family="sans-serif" font-size="10.00">PL</text>
</a>
</g>
<g id="a_edge3&#45;taillabel"><a xlink:title="conformist">
<text xml:space="preserve" text-anchor="middle" x="179.59" y="-147.03" font-family="sans-serif" font-size="10.00">C</text>
</a>
</g>
</g>
</g>
</svg>
