<?xml version="1.0" encoding="UTF-8" standalone="no"?>
<?xml-stylesheet href="data:text/css,.graph%20text%20%7B%0A%09font-family%3A%20sans-serif%3B%0A%09stroke%3A%20white%3B%0A%09paint-order%3A%20stroke%3B%0A%09stroke-width%3A%203%3B%0A%09stroke-linecap%3A%20square%3B%0A%7D%0A%0A.namespace%20polygon%20%7B%0A%09fill-opacity%3A%200.2%3B%0A%09stroke%3A%20none%3B%0A%7D%0A" type="text/css"?>
<!DOCTYPE svg PUBLIC "-//W3C//DTD SVG 1.1//EN"
 "http://www.w3.org/Graphics/SVG/1.1/DTD/svg11.dtd">
<!-- Generated by graphviz version 13.1.2 (0)
 -->
<!-- Pages: 1 -->
<svg width="987pt" height="624pt"
 viewBox="0.00 0.00 987.00 624.00" xmlns="http://www.w3.org/2000/svg" xmlns:xlink="http://www.w3.org/1999/xlink">
<g id="graph0" class="graph" transform="scale(1 1) rotate(0) translate(4 620)">
<polygon fill="white" stroke="none" points="-4,4 -4,-620 983,-620 983,4 -4,4"/>
<g id="clust1" class="cluster namespace">
<title>e_shop_on_containers</title>
<polygon fill="lightgrey" stroke="lightgrey" points="8,-8 8,-608 971,-608 971,-8 8,-8"/>
<text xml:space="preserve" text-anchor="middle" x="489.5" y="-595" font-family="sans-serif" font-size="10.00">eShopOnContainers</text>
</g>
<g id="clust2" class="cluster namespace">
<title>#/domains/commerce</title>
<polygon fill="lightgrey" stroke="lightgrey" points="16,-16 16,-428 313,-428 313,-16 16,-16"/>
<text xml:space="preserve" text-anchor="middle" x="164.5" y="-415" font-family="sans-serif" font-size="10.00">Commerce</text>
</g>
<g id="clust3" class="cluster namespace">
<title>#/domains/commerce/subdomains/cataloging</title>
<polygon fill="lightgrey" stroke="lightgrey" points="24,-168 24,-276 154,-276 154,-168 24,-168"/>
<text xml:space="preserve" text-anchor="middle" x="89" y="-263" font-family="sans-serif" font-size="10.00">Cataloging</text>
</g>
<g id="clust4" class="cluster namespace">
<title>#/domains/commerce/subdomains/shopping</title>
<polygon fill="lightgrey" stroke="lightgrey" points="141,-292 141,-400 271,-400 271,-292 141,-292"/>
<text xml:space="preserve" text-anchor="middle" x="206" y="-387" font-family="sans-serif" font-size="10.00">Shopping</text>
</g>
<g id="clust5" class="cluster namespace">
<title>#/domains/commerce/subdomains/sales</title>
<polygon fill="lightgrey" stroke="lightgrey" points="175,-168 175,-276 305,-276 305,-168 175,-168"/>
<text xml:space="preserve" text-anchor="middle" x="240" y="-263" font-family="sans-serif" font-size="10.00">Sales</text>
</g>
<g id="clust6" class="cluster namespace">
<title>#/domains/commerce/subdomains/payments</title>
<polygon fill="lightgrey" stroke="lightgrey" points="175,-24 175,-132 305,-132 305,-24 175,-24"/>
<text xml:space="preserve" text-anchor="middle" x="240" y="-119" font-family="sans-serif" font-size="10.00">Payments</text>
</g>
<g id="clust7" class="cluster namespace">
<title>#/domains/integration</title>
<polygon fill="lightgrey" stroke="lightgrey" points="274,-436 274,-580 420,-580 420,-436 274,-436"/>
<text xml:space="preserve" text-anchor="middle" x="347" y="-567" font-family="sans-serif" font-size="10.00">Integration</text>
</g>
<g id="clust8" class="cluster namespace">
<title>#/domains/integration/subdomains/edge</title>
<polygon fill="lightgrey" stroke="lightgrey" points="282,-444 282,-552 412,-552 412,-444 282,-444"/>
<text xml:space="preserve" text-anchor="middle" x="347" y="-539" font-family="sans-serif" font-size="10.00">Edge</text>
</g>
<g id="clust9" class="cluster namespace">
<title>#/domains/identity&amp;access</title>
<polygon fill="lightgrey" stroke="lightgrey" points="569,-16 569,-160 715,-160 715,-16 569,-16"/>
<text xml:space="preserve" text-anchor="middle" x="642" y="-147" font-family="sans-serif" font-size="10.00">Identity&amp;Access</text>
</g>
<g id="clust10" class="cluster namespace">
<title>#/domains/identity&amp;access/subdomains/auth</title>
<polygon fill="lightgrey" stroke="lightgrey" points="577,-24 577,-132 707,-132 707,-24 577,-24"/>
<text xml:space="preserve" text-anchor="middle" x="642" y="-119" font-family="sans-serif" font-size="10.00">Auth</text>
</g>
<g id="clust11" class="cluster namespace">
<title>#/domains/customer_experience</title>
<polygon fill="lightgrey" stroke="lightgrey" points="321,-284 321,-428 941,-428 941,-284 321,-284"/>
<text xml:space="preserve" text-anchor="middle" x="631" y="-415" font-family="sans-serif" font-size="10.00">CustomerExperience</text>
</g>
<g id="clust12" class="cluster namespace">
<title>#/domains/customer_experience/subdomains/promotions</title>
<polygon fill="lightgrey" stroke="lightgrey" points="329,-292 329,-400 459,-400 459,-292 329,-292"/>
<text xml:space="preserve" text-anchor="middle" x="394" y="-387" font-family="sans-serif" font-size="10.00">Promotions</text>
</g>
<g id="clust13" class="cluster namespace">
<title>#/domains/customer_experience/subdomains/geodata</title>
<polygon fill="lightgrey" stroke="lightgrey" points="480,-292 480,-400 610,-400 610,-292 480,-292"/>
<text xml:space="preserve" text-anchor="middle" x="545" y="-387" font-family="sans-serif" font-size="10.00">Geodata</text>
</g>
<g id="clust14" class="cluster namespace">
<title>#/domains/customer_experience/subdomains/webhooks</title>
<polygon fill="lightgrey" stroke="lightgrey" points="631,-292 631,-400 761,-400 761,-292 631,-292"/>
<text xml:space="preserve" text-anchor="middle" x="696" y="-387" font-family="sans-serif" font-size="10.00">Webhooks</text>
</g>
<g id="clust15" class="cluster namespace">
<title>#/domains/customer_experience/subdomains/realtime</title>
<polygon fill="lightgrey" stroke="lightgrey" points="781,-292 781,-400 933,-400 933,-292 781,-292"/>
<text xml:space="preserve" text-anchor="middle" x="857" y="-387" font-family="sans-serif" font-size="10.00">Realtime</text>
</g>
<!-- #/domains/commerce/subdomains/cataloging/boundedcontexts/catalog -->
<g id="node1" class="node">
<title>#/domains/commerce/subdomains/cataloging/boundedcontexts/catalog</title>
<g id="a_node1"><a xlink:title="Catalog.API">
<polygon fill="white" stroke="black" points="94.32,-176.1 97.84,-176.3 101.33,-176.59 104.76,-176.98 108.13,-177.47 111.42,-178.05 114.63,-178.73 117.72,-179.5 120.71,-180.35 123.56,-181.29 126.28,-182.32 128.85,-183.43 131.27,-184.62 133.53,-185.88 135.62,-187.21 137.53,-188.61 139.26,-190.08 140.81,-191.6 142.17,-193.18 143.35,-194.82 144.34,-196.5 145.14,-198.22 145.75,-199.98 146.18,-201.77 146.42,-203.59 146.49,-205.44 146.38,-207.3 146.1,-209.17 145.66,-211.06 145.06,-212.94 144.31,-214.83 143.41,-216.7 142.38,-218.56 141.22,-220.41 139.94,-222.23 138.54,-224.02 137.03,-225.78 135.43,-227.5 133.74,-229.18 131.96,-230.82 130.11,-232.4 128.19,-233.92 126.21,-235.39 124.17,-236.79 122.09,-238.12 119.96,-239.38 117.79,-240.57 115.58,-241.68 113.35,-242.71 111.1,-243.65 108.82,-244.5 106.52,-245.27 104.21,-245.95 101.89,-246.53 99.56,-247.02 97.22,-247.41 94.88,-247.7 92.53,-247.9 90.18,-248 87.82,-248 85.47,-247.9 83.12,-247.7 80.78,-247.41 78.44,-247.02 76.11,-246.53 73.79,-245.95 71.48,-245.27 69.18,-244.5 66.9,-243.65 64.65,-242.71 62.42,-241.68 60.21,-240.57 58.04,-239.38 55.91,-238.12 53.83,-236.79 51.79,-235.39 49.81,-233.92 47.89,-232.4 46.04,-230.82 44.26,-229.18 42.57,-227.5 40.97,-225.78 39.46,-224.02 38.06,-222.23 36.78,-220.41 35.62,-218.56 34.59,-216.7 33.69,-214.83 32.94,-212.94 32.34,-211.06 31.9,-209.17 31.62,-207.3 31.51,-205.44 31.58,-203.59 31.82,-201.77 32.25,-199.98 32.86,-198.22 33.66,-196.5 34.65,-194.82 35.83,-193.18 37.19,-191.6 38.74,-190.08 40.47,-188.61 42.38,-187.21 44.47,-185.88 46.73,-184.62 49.15,-183.43 51.72,-182.32 54.44,-181.29 57.29,-180.35 60.28,-179.5 63.37,-178.73 66.58,-178.05 69.87,-177.47 73.24,-176.98 76.67,-176.59 80.16,-176.3 83.68,-176.1 87.22,-176 90.78,-176 94.32,-176.1"/>
<text xml:space="preserve" text-anchor="middle" x="89" y="-207.8" font-family="sans-serif" font-size="14.00">Catalog</text>
</a>
</g>
</g>
<!-- #/domains/commerce/subdomains/shopping/boundedcontexts/basket -->
<g id="node2" class="node">
<title>#/domains/commerce/subdomains/shopping/boundedcontexts/basket</title>
<g id="a_node2"><a xlink:title="Basket.API (Redis)">
<polygon fill="white" stroke="black" points="211.32,-300.1 214.84,-300.3 218.33,-300.59 221.76,-300.98 225.13,-301.47 228.42,-302.05 231.63,-302.73 234.72,-303.5 237.71,-304.35 240.56,-305.29 243.28,-306.32 245.85,-307.43 248.27,-308.62 250.53,-309.88 252.62,-311.21 254.53,-312.61 256.26,-314.08 257.81,-315.6 259.17,-317.18 260.35,-318.82 261.34,-320.5 262.14,-322.22 262.75,-323.98 263.18,-325.77 263.42,-327.59 263.49,-329.44 263.38,-331.3 263.1,-333.17 262.66,-335.06 262.06,-336.94 261.31,-338.83 260.41,-340.7 259.38,-342.56 258.22,-344.41 256.94,-346.23 255.54,-348.02 254.03,-349.78 252.43,-351.5 250.74,-353.18 248.96,-354.82 247.11,-356.4 245.19,-357.92 243.21,-359.39 241.17,-360.79 239.09,-362.12 236.96,-363.38 234.79,-364.57 232.58,-365.68 230.35,-366.71 228.1,-367.65 225.82,-368.5 223.52,-369.27 221.21,-369.95 218.89,-370.53 216.56,-371.02 214.22,-371.41 211.88,-371.7 209.53,-371.9 207.18,-372 204.82,-372 202.47,-371.9 200.12,-371.7 197.78,-371.41 195.44,-371.02 193.11,-370.53 190.79,-369.95 188.48,-369.27 186.18,-368.5 183.9,-367.65 181.65,-366.71 179.42,-365.68 177.21,-364.57 175.04,-363.38 172.91,-362.12 170.83,-360.79 168.79,-359.39 166.81,-357.92 164.89,-356.4 163.04,-354.82 161.26,-353.18 159.57,-351.5 157.97,-349.78 156.46,-348.02 155.06,-346.23 153.78,-344.41 152.62,-342.56 151.59,-340.7 150.69,-338.83 149.94,-336.94 149.34,-335.06 148.9,-333.17 148.62,-331.3 148.51,-329.44 148.58,-327.59 148.82,-325.77 149.25,-323.98 149.86,-322.22 150.66,-320.5 151.65,-318.82 152.83,-317.18 154.19,-315.6 155.74,-314.08 157.47,-312.61 159.38,-311.21 161.47,-309.88 163.73,-308.62 166.15,-307.43 168.72,-306.32 171.44,-305.29 174.29,-304.35 177.28,-303.5 180.37,-302.73 183.58,-302.05 186.87,-301.47 190.24,-300.98 193.67,-300.59 197.16,-300.3 200.68,-300.1 204.22,-300 207.78,-300 211.32,-300.1"/>
<text xml:space="preserve" text-anchor="middle" x="206" y="-331.8" font-family="sans-serif" font-size="14.00">Basket</text>
</a>
</g>
</g>
<!-- #/domains/commerce/subdomains/shopping/boundedcontexts/basket&#45;&gt;#/domains/commerce/subdomains/cataloging/boundedcontexts/catalog -->
<g id="edge2" class="edge">
<title>#/domains/commerce/subdomains/shopping/boundedcontexts/basket&#45;&gt;#/domains/commerce/subdomains/cataloging/boundedcontexts/catalog</title>
<path fill="none" stroke="black" d="M175.87,-303.58C160.04,-287.08 140.56,-266.76 124.06,-249.56"/>
<polygon fill="black" stroke="black" points="126.72,-247.28 117.28,-242.48 121.67,-252.12 126.72,-247.28"/>
<g id="a_edge2&#45;headlabel"><a xlink:title="published&#45;language">
<text xml:space="preserve" text-anchor="middle" x="116.23" y="-238.39" font-family="sans-serif" font-size="10.00">PL</text>
</a>
</g>
<g id="a_edge2&#45;taillabel"><a xlink:title="conformist">
<text xml:space="preserve" text-anchor="middle" x="175.87" y="-300.58" font-family="sans-serif" font-size="10.00">C</text>
</a>
</g>
</g>
<!-- #/domains/commerce/subdomains/sales/boundedcontexts/ordering -->
<g id="node3" class="node">
<title>#/domains/commerce/subdomains/sales/boundedcontexts/ordering</title>
<g id="a_node3"><a xlink:title="Ordering.API (rich DDD + domain events)">
<polygon fill="white" stroke="black" points="245.32,-176.1 248.84,-176.3 252.33,-176.59 255.76,-176.98 259.13,-177.47 262.42,-178.05 265.63,-178.73 268.72,-179.5 271.71,-180.35 274.56,-181.29 277.28,-182.32 279.85,-183.43 282.27,-184.62 284.53,-185.88 286.62,-187.21 288.53,-188.61 290.26,-190.08 291.81,-191.6 293.17,-193.18 294.35,-194.82 295.34,-196.5 296.14,-198.22 296.75,-199.98 297.18,-201.77 297.42,-203.59 297.49,-205.44 297.38,-207.3 297.1,-209.17 296.66,-211.06 296.06,-212.94 295.31,-214.83 294.41,-216.7 293.38,-218.56 292.22,-220.41 290.94,-222.23 289.54,-224.02 288.03,-225.78 286.43,-227.5 284.74,-229.18 282.96,-230.82 281.11,-232.4 279.19,-233.92 277.21,-235.39 275.17,-236.79 273.09,-238.12 270.96,-239.38 268.79,-240.57 266.58,-241.68 264.35,-242.71 262.1,-243.65 259.82,-244.5 257.52,-245.27 255.21,-245.95 252.89,-246.53 250.56,-247.02 248.22,-247.41 245.88,-247.7 243.53,-247.9 241.18,-248 238.82,-248 236.47,-247.9 234.12,-247.7 231.78,-247.41 229.44,-247.02 227.11,-246.53 224.79,-245.95 222.48,-245.27 220.18,-244.5 217.9,-243.65 215.65,-242.71 213.42,-241.68 211.21,-240.57 209.04,-239.38 206.91,-238.12 204.83,-236.79 202.79,-235.39 200.81,-233.92 198.89,-232.4 197.04,-230.82 195.26,-229.18 193.57,-227.5 191.97,-225.78 190.46,-224.02 189.06,-222.23 187.78,-220.41 186.62,-218.56 185.59,-216.7 184.69,-214.83 183.94,-212.94 183.34,-211.06 182.9,-209.17 182.62,-207.3 182.51,-205.44 182.58,-203.59 182.82,-201.77 183.25,-199.98 183.86,-198.22 184.66,-196.5 185.65,-194.82 186.83,-193.18 188.19,-191.6 189.74,-190.08 191.47,-188.61 193.38,-187.21 195.47,-185.88 197.73,-184.62 200.15,-183.43 202.72,-182.32 205.44,-181.29 208.29,-180.35 211.28,-179.5 214.37,-178.73 217.58,-178.05 220.87,-177.47 224.24,-176.98 227.67,-176.59 231.16,-176.3 234.68,-176.1 238.22,-176 241.78,-176 245.32,-176.1"/>
<text xml:space="preserve" text-anchor="middle" x="240" y="-207.8" font-family="sans-serif" font-size="14.00">Ordering</text>
</a>
</g>
</g>
<!-- #/domains/commerce/subdomains/shopping/boundedcontexts/basket&#45;&gt;#/domains/commerce/subdomains/sales/boundedcontexts/ordering -->
<g id="edge5" class="edge">
<title>#/domains/commerce/subdomains/shopping/boundedcontexts/basket&#45;&gt;#/domains/commerce/subdomains/sales/boundedcontexts/ordering</title>
<path fill="none" stroke="black" d="M227.47,-301.66C232.52,-288.41 237.14,-272.96 240.38,-258.69"/>
<polygon fill="black" stroke="black" points="243.78,-259.56 242.36,-249.06 236.92,-258.14 243.78,-259.56"/>
<g id="a_edge5&#45;headlabel"><a xlink:title="published&#45;language">
<text xml:space="preserve" text-anchor="middle" x="242.67" y="-244.57" font-family="sans-serif" font-size="10.00">PL</text>
</a>
</g>
<g id="a_edge5&#45;taillabel"><a xlink:title="conformist">
<text xml:space="preserve" text-anchor="middle" x="227.47" y="-298.66" font-family="sans-serif" font-size="10.00">C</text>
</a>
</g>
</g>
<!-- #/domains/commerce/subdomains/sales/boundedcontexts/ordering&#45;&gt;#/domains/commerce/subdomains/shopping/boundedcontexts/basket -->
<g id="edge4" class="edge">
<title>#/domains/commerce/subdomains/sales/boundedcontexts/ordering&#45;&gt;#/domains/commerce/subdomains/shopping/boundedcontexts/basket</title>
<path fill="none" stroke="black" d="M219.18,-244.63C213.92,-258.16 209.06,-274.22 205.68,-289.03"/>
<polygon fill="black" stroke="black" points="202.31,-288.06 203.71,-298.56 209.16,-289.48 202.31,-288.06"/>
<g id="a_edge4&#45;headlabel"><a xlink:title="open&#45;host&#45;service">
<text xml:space="preserve" text-anchor="middle" x="203.4" y="-297.04" font-family="sans-serif" font-size="10.00">OHS</text>
</a>
</g>
<g id="a_edge4&#45;taillabel"><a xlink:title="anti&#45;corruption&#45;layer">
<text xml:space="preserve" text-anchor="middle" x="219.18" y="-241.63" font-family="sans-serif" font-size="10.00">ACL</text>
</a>
</g>
</g>
<!-- #/domains/commerce/subdomains/payments/boundedcontexts/payment -->
<g id="node4" class="node">
<title>#/domains/commerce/subdomains/payments/boundedcontexts/payment</title>
<g id="a_node4"><a xlink:title="Payment.API (sample)">
<polygon fill="white" stroke="black" points="245.32,-32.1 248.84,-32.3 252.33,-32.59 255.76,-32.98 259.13,-33.47 262.42,-34.05 265.63,-34.73 268.72,-35.5 271.71,-36.35 274.56,-37.29 277.28,-38.32 279.85,-39.43 282.27,-40.62 284.53,-41.88 286.62,-43.21 288.53,-44.61 290.26,-46.08 291.81,-47.6 293.17,-49.18 294.35,-50.82 295.34,-52.5 296.14,-54.22 296.75,-55.98 297.18,-57.77 297.42,-59.59 297.49,-61.44 297.38,-63.3 297.1,-65.17 296.66,-67.06 296.06,-68.94 295.31,-70.83 294.41,-72.7 293.38,-74.56 292.22,-76.41 290.94,-78.23 289.54,-80.02 288.03,-81.78 286.43,-83.5 284.74,-85.18 282.96,-86.82 281.11,-88.4 279.19,-89.92 277.21,-91.39 275.17,-92.79 273.09,-94.12 270.96,-95.38 268.79,-96.57 266.58,-97.68 264.35,-98.71 262.1,-99.65 259.82,-100.5 257.52,-101.27 255.21,-101.95 252.89,-102.53 250.56,-103.02 248.22,-103.41 245.88,-103.7 243.53,-103.9 241.18,-104 238.82,-104 236.47,-103.9 234.12,-103.7 231.78,-103.41 229.44,-103.02 227.11,-102.53 224.79,-101.95 222.48,-101.27 220.18,-100.5 217.9,-99.65 215.65,-98.71 213.42,-97.68 211.21,-96.57 209.04,-95.38 206.91,-94.12 204.83,-92.79 202.79,-91.39 200.81,-89.92 198.89,-88.4 197.04,-86.82 195.26,-85.18 193.57,-83.5 191.97,-81.78 190.46,-80.02 189.06,-78.23 187.78,-76.41 186.62,-74.56 185.59,-72.7 184.69,-70.83 183.94,-68.94 183.34,-67.06 182.9,-65.17 182.62,-63.3 182.51,-61.44 182.58,-59.59 182.82,-57.77 183.25,-55.98 183.86,-54.22 184.66,-52.5 185.65,-50.82 186.83,-49.18 188.19,-47.6 189.74,-46.08 191.47,-44.61 193.38,-43.21 195.47,-41.88 197.73,-40.62 200.15,-39.43 202.72,-38.32 205.44,-37.29 208.29,-36.35 211.28,-35.5 214.37,-34.73 217.58,-34.05 220.87,-33.47 224.24,-32.98 227.67,-32.59 231.16,-32.3 234.68,-32.1 238.22,-32 241.78,-32 245.32,-32.1"/>
<text xml:space="preserve" text-anchor="middle" x="240" y="-63.8" font-family="sans-serif" font-size="14.00">Payment</text>
</a>
</g>
</g>
<!-- #/domains/commerce/subdomains/sales/boundedcontexts/ordering&#45;&gt;#/domains/commerce/subdomains/payments/boundedcontexts/payment -->
<g id="edge16" class="edge">
<title>#/domains/commerce/subdomains/sales/boundedcontexts/ordering&#45;&gt;#/domains/commerce/subdomains/payments/boundedcontexts/payment</title>
<path fill="none" stroke="black" d="M240,-176.26C240,-157.87 240,-135.03 240,-115.17"/>
<polygon fill="black" stroke="black" points="243.5,-115.38 240,-105.38 236.5,-115.38 243.5,-115.38"/>
<g id="a_edge16&#45;headlabel"><a xlink:title="open&#45;host&#45;service">
<text xml:space="preserve" text-anchor="middle" x="240" y="-100.87" font-family="sans-serif" font-size="10.00">OHS</text>
</a>
</g>
<g id="a_edge16&#45;taillabel"><a xlink:title="customer&#45;supplier">
<text xml:space="preserve" text-anchor="middle" x="240" y="-173.26" font-family="sans-serif" font-size="10.00">C/s</text>
</a>
</g>
</g>
<!-- #/domains/commerce/subdomains/sales/boundedcontexts/ordering&#45;&gt;#/domains/commerce/subdomains/payments/boundedcontexts/payment -->
<g id="edge17" class="edge">
<title>#/domains/commerce/subdomains/sales/boundedcontexts/ordering&#45;&gt;#/domains/commerce/subdomains/payments/boundedcontexts/payment</title>
<path fill="none" stroke="black" d="M263.2,-178.07C267.63,-158.06 268.19,-132.34 264.87,-110.9"/>
<polygon fill="black" stroke="black" points="268.35,-110.44 263,-101.3 261.48,-111.78 268.35,-110.44"/>
<g id="a_edge17&#45;headlabel"><a xlink:title="published&#45;language">
<text xml:space="preserve" text-anchor="middle" x="262.71" y="-96.81" font-family="sans-serif" font-size="10.00">PL</text>
</a>
</g>
<g id="a_edge17&#45;taillabel"><a xlink:title="conformist">
<text xml:space="preserve" text-anchor="middle" x="263.2" y="-175.07" font-family="sans-serif" font-size="10.00">C</text>
</a>
</g>
</g>
<!-- #/domains/identity&amp;access/subdomains/auth/boundedcontexts/identity -->
<g id="node6" class="node">
<title>#/domains/identity&amp;access/subdomains/auth/boundedcontexts/identity</title>
<g id="a_node6"><a xlink:title="Identity.API">
<polygon fill="white" stroke="black" points="647.32,-32.1 650.84,-32.3 654.33,-32.59 657.76,-32.98 661.13,-33.47 664.42,-34.05 667.63,-34.73 670.72,-35.5 673.71,-36.35 676.56,-37.29 679.28,-38.32 681.85,-39.43 684.27,-40.62 686.53,-41.88 688.62,-43.21 690.53,-44.61 692.26,-46.08 693.81,-47.6 695.17,-49.18 696.35,-50.82 697.34,-52.5 698.14,-54.22 698.75,-55.98 699.18,-57.77 699.42,-59.59 699.49,-61.44 699.38,-63.3 699.1,-65.17 698.66,-67.06 698.06,-68.94 697.31,-70.83 696.41,-72.7 695.38,-74.56 694.22,-76.41 692.94,-78.23 691.54,-80.02 690.03,-81.78 688.43,-83.5 686.74,-85.18 684.96,-86.82 683.11,-88.4 681.19,-89.92 679.21,-91.39 677.17,-92.79 675.09,-94.12 672.96,-95.38 670.79,-96.57 668.58,-97.68 666.35,-98.71 664.1,-99.65 661.82,-100.5 659.52,-101.27 657.21,-101.95 654.89,-102.53 652.56,-103.02 650.22,-103.41 647.88,-103.7 645.53,-103.9 643.18,-104 640.82,-104 638.47,-103.9 636.12,-103.7 633.78,-103.41 631.44,-103.02 629.11,-102.53 626.79,-101.95 624.48,-101.27 622.18,-100.5 619.9,-99.65 617.65,-98.71 615.42,-97.68 613.21,-96.57 611.04,-95.38 608.91,-94.12 606.83,-92.79 604.79,-91.39 602.81,-89.92 600.89,-88.4 599.04,-86.82 597.26,-85.18 595.57,-83.5 593.97,-81.78 592.46,-80.02 591.06,-78.23 589.78,-76.41 588.62,-74.56 587.59,-72.7 586.69,-70.83 585.94,-68.94 585.34,-67.06 584.9,-65.17 584.62,-63.3 584.51,-61.44 584.58,-59.59 584.82,-57.77 585.25,-55.98 585.86,-54.22 586.66,-52.5 587.65,-50.82 588.83,-49.18 590.19,-47.6 591.74,-46.08 593.47,-44.61 595.38,-43.21 597.47,-41.88 599.73,-40.62 602.15,-39.43 604.72,-38.32 607.44,-37.29 610.29,-36.35 613.28,-35.5 616.37,-34.73 619.58,-34.05 622.87,-33.47 626.24,-32.98 629.67,-32.59 633.16,-32.3 636.68,-32.1 640.22,-32 643.78,-32 647.32,-32.1"/>
<text xml:space="preserve" text-anchor="middle" x="642" y="-63.8" font-family="sans-serif" font-size="14.00">Identity</text>
</a>
</g>
</g>
<!-- #/domains/commerce/subdomains/sales/boundedcontexts/ordering&#45;&gt;#/domains/identity&amp;access/subdomains/auth/boundedcontexts/identity -->
<g id="edge8" class="edge">
<title>#/domains/commerce/subdomains/sales/boundedcontexts/ordering&#45;&gt;#/domains/identity&amp;access/subdomains/auth/boundedcontexts/identity</title>
<path fill="none" stroke="black" d="M292.97,-192.29C369.02,-165.42 508.53,-116.15 586.15,-88.73"/>
<polygon fill="black" stroke="black" points="586.99,-92.14 595.25,-85.51 584.66,-85.54 586.99,-92.14"/>
<g id="a_edge8&#45;headlabel"><a xlink:title="open&#45;host&#45;service">
<text xml:space="preserve" text-anchor="middle" x="596.68" y="-82.01" font-family="sans-serif" font-size="10.00">OHS</text>
</a>
</g>
<g id="a_edge8&#45;taillabel"><a xlink:title="anti&#45;corruption&#45;layer">
<text xml:space="preserve" text-anchor="middle" x="292.97" y="-189.29" font-family="sans-serif" font-size="10.00">ACL</text>
</a>
</g>
</g>
<!-- #/domains/customer_experience/subdomains/promotions/boundedcontexts/marketing -->
<g id="node7" class="node">
<title>#/domains/customer_experience/subdomains/promotions/boundedcontexts/marketing</title>
<g id="a_node7"><a xlink:title="Marketing.API">
<polygon fill="white" stroke="black" points="399.32,-300.1 402.84,-300.3 406.33,-300.59 409.76,-300.98 413.13,-301.47 416.42,-302.05 419.63,-302.73 422.72,-303.5 425.71,-304.35 428.56,-305.29 431.28,-306.32 433.85,-307.43 436.27,-308.62 438.53,-309.88 440.62,-311.21 442.53,-312.61 444.26,-314.08 445.81,-315.6 447.17,-317.18 448.35,-318.82 449.34,-320.5 450.14,-322.22 450.75,-323.98 451.18,-325.77 451.42,-327.59 451.49,-329.44 451.38,-331.3 451.1,-333.17 450.66,-335.06 450.06,-336.94 449.31,-338.83 448.41,-340.7 447.38,-342.56 446.22,-344.41 444.94,-346.23 443.54,-348.02 442.03,-349.78 440.43,-351.5 438.74,-353.18 436.96,-354.82 435.11,-356.4 433.19,-357.92 431.21,-359.39 429.17,-360.79 427.09,-362.12 424.96,-363.38 422.79,-364.57 420.58,-365.68 418.35,-366.71 416.1,-367.65 413.82,-368.5 411.52,-369.27 409.21,-369.95 406.89,-370.53 404.56,-371.02 402.22,-371.41 399.88,-371.7 397.53,-371.9 395.18,-372 392.82,-372 390.47,-371.9 388.12,-371.7 385.78,-371.41 383.44,-371.02 381.11,-370.53 378.79,-369.95 376.48,-369.27 374.18,-368.5 371.9,-367.65 369.65,-366.71 367.42,-365.68 365.21,-364.57 363.04,-363.38 360.91,-362.12 358.83,-360.79 356.79,-359.39 354.81,-357.92 352.89,-356.4 351.04,-354.82 349.26,-353.18 347.57,-351.5 345.97,-349.78 344.46,-348.02 343.06,-346.23 341.78,-344.41 340.62,-342.56 339.59,-340.7 338.69,-338.83 337.94,-336.94 337.34,-335.06 336.9,-333.17 336.62,-331.3 336.51,-329.44 336.58,-327.59 336.82,-325.77 337.25,-323.98 337.86,-322.22 338.66,-320.5 339.65,-318.82 340.83,-317.18 342.19,-315.6 343.74,-314.08 345.47,-312.61 347.38,-311.21 349.47,-309.88 351.73,-308.62 354.15,-307.43 356.72,-306.32 359.44,-305.29 362.29,-304.35 365.28,-303.5 368.37,-302.73 371.58,-302.05 374.87,-301.47 378.24,-300.98 381.67,-300.59 385.16,-300.3 388.68,-300.1 392.22,-300 395.78,-300 399.32,-300.1"/>
<text xml:space="preserve" text-anchor="middle" x="394" y="-331.8" font-family="sans-serif" font-size="14.00">Marketing</text>
</a>
</g>
</g>
<!-- #/domains/commerce/subdomains/sales/boundedcontexts/ordering&#45;&gt;#/domains/customer_experience/subdomains/promotions/boundedcontexts/marketing -->
<g id="edge10" class="edge">
<title>#/domains/commerce/subdomains/sales/boundedcontexts/ordering&#45;&gt;#/domains/customer_experience/subdomains/promotions/boundedcontexts/marketing</title>
<path fill="none" stroke="black" d="M272.66,-238.87C294.69,-256.33 324.07,-279.6 348.4,-298.88"/>
<polygon fill="black" stroke="black" points="345.91,-301.37 355.93,-304.84 350.26,-295.88 345.91,-301.37"/>
<g id="a_edge10&#45;headlabel"><a xlink:title="open&#45;host&#45;service">
<text xml:space="preserve" text-anchor="middle" x="357.11" y="-302.78" font-family="sans-serif" font-size="10.00">OHS</text>
</a>
</g>
<g id="a_edge10&#45;taillabel"><a xlink:title="anti&#45;corruption&#45;layer">
<text xml:space="preserve" text-anchor="middle" x="272.66" y="-235.87" font-family="sans-serif" font-size="10.00">ACL</text>
</a>
</g>
</g>
<!-- #/domains/customer_experience/subdomains/geodata/boundedcontexts/locations -->
<g id="node8" class="node">
<title>#/domains/customer_experience/subdomains/geodata/boundedcontexts/locations</title>
<g id="a_node8"><a xlink:title="Locations.API">
<polygon fill="white" stroke="black" points="550.32,-300.1 553.84,-300.3 557.33,-300.59 560.76,-300.98 564.13,-301.47 567.42,-302.05 570.63,-302.73 573.72,-303.5 576.71,-304.35 579.56,-305.29 582.28,-306.32 584.85,-307.43 587.27,-308.62 589.53,-309.88 591.62,-311.21 593.53,-312.61 595.26,-314.08 596.81,-315.6 598.17,-317.18 599.35,-318.82 600.34,-320.5 601.14,-322.22 601.75,-323.98 602.18,-325.77 602.42,-327.59 602.49,-329.44 602.38,-331.3 602.1,-333.17 601.66,-335.06 601.06,-336.94 600.31,-338.83 599.41,-340.7 598.38,-342.56 597.22,-344.41 595.94,-346.23 594.54,-348.02 593.03,-349.78 591.43,-351.5 589.74,-353.18 587.96,-354.82 586.11,-356.4 584.19,-357.92 582.21,-359.39 580.17,-360.79 578.09,-362.12 575.96,-363.38 573.79,-364.57 571.58,-365.68 569.35,-366.71 567.1,-367.65 564.82,-368.5 562.52,-369.27 560.21,-369.95 557.89,-370.53 555.56,-371.02 553.22,-371.41 550.88,-371.7 548.53,-371.9 546.18,-372 543.82,-372 541.47,-371.9 539.12,-371.7 536.78,-371.41 534.44,-371.02 532.11,-370.53 529.79,-369.95 527.48,-369.27 525.18,-368.5 522.9,-367.65 520.65,-366.71 518.42,-365.68 516.21,-364.57 514.04,-363.38 511.91,-362.12 509.83,-360.79 507.79,-359.39 505.81,-357.92 503.89,-356.4 502.04,-354.82 500.26,-353.18 498.57,-351.5 496.97,-349.78 495.46,-348.02 494.06,-346.23 492.78,-344.41 491.62,-342.56 490.59,-340.7 489.69,-338.83 488.94,-336.94 488.34,-335.06 487.9,-333.17 487.62,-331.3 487.51,-329.44 487.58,-327.59 487.82,-325.77 488.25,-323.98 488.86,-322.22 489.66,-320.5 490.65,-318.82 491.83,-317.18 493.19,-315.6 494.74,-314.08 496.47,-312.61 498.38,-311.21 500.47,-309.88 502.73,-308.62 505.15,-307.43 507.72,-306.32 510.44,-305.29 513.29,-304.35 516.28,-303.5 519.37,-302.73 522.58,-302.05 525.87,-301.47 529.24,-300.98 532.67,-300.59 536.16,-300.3 539.68,-300.1 543.22,-300 546.78,-300 550.32,-300.1"/>
<text xml:space="preserve" text-anchor="middle" x="545" y="-331.8" font-family="sans-serif" font-size="14.00">Locations</text>
</a>
</g>
</g>
<!-- #/domains/commerce/subdomains/sales/boundedcontexts/ordering&#45;&gt;#/domains/customer_experience/subdomains/geodata/boundedcontexts/locations -->
<g id="edge12" class="edge">
<title>#/domains/commerce/subdomains/sales/boundedcontexts/ordering&#45;&gt;#/domains/customer_experience/subdomains/geodata/boundedcontexts/locations</title>
<path fill="none" stroke="black" d="M289.99,-224.22C337.23,-235.83 409.39,-256.16 468,-284 477.78,-288.65 487.76,-294.39 497.15,-300.33"/>
<polygon fill="black" stroke="black" points="495.14,-303.2 505.43,-305.73 498.96,-297.33 495.14,-303.2"/>
<g id="a_edge12&#45;headlabel"><a xlink:title="open&#45;host&#45;service">
<text xml:space="preserve" text-anchor="middle" x="506.7" y="-303.55" font-family="sans-serif" font-size="10.00">OHS</text>
</a>
</g>
<g id="a_edge12&#45;taillabel"><a xlink:title="anti&#45;corruption&#45;layer">
<text xml:space="preserve" text-anchor="middle" x="289.99" y="-221.22" font-family="sans-serif" font-size="10.00">ACL</text>
</a>
</g>
</g>
<!-- #/domains/commerce/subdomains/payments/boundedcontexts/payment&#45;&gt;#/domains/commerce/subdomains/sales/boundedcontexts/ordering -->
<g id="edge6" class="edge">
<title>#/domains/commerce/subdomains/payments/boundedcontexts/payment&#45;&gt;#/domains/commerce/subdomains/sales/boundedcontexts/ordering</title>
<path fill="none" stroke="black" d="M217.29,-99.81C212.58,-119.39 211.75,-145.05 214.79,-166.78"/>
<polygon fill="black" stroke="black" points="211.33,-167.34 216.53,-176.58 218.22,-166.12 211.33,-167.34"/>
<g id="a_edge6&#45;headlabel"><a xlink:title="published&#45;language">
<text xml:space="preserve" text-anchor="middle" x="216.8" y="-175.07" font-family="sans-serif" font-size="10.00">PL</text>
</a>
</g>
<g id="a_edge6&#45;taillabel"><a xlink:title="conformist">
<text xml:space="preserve" text-anchor="middle" x="217.29" y="-96.81" font-family="sans-serif" font-size="10.00">C</text>
</a>
</g>
</g>
<!-- #/domains/integration/subdomains/edge/boundedcontexts/api_gateway -->
<g id="node5" class="node">
<title>#/domains/integration/subdomains/edge/boundedcontexts/api_gateway</title>
<g id="a_node5"><a xlink:title="Ocelot + Aggregators (Web &amp; Mobile Shopping)">
<polygon fill="white" stroke="black" points="352.32,-452.1 355.84,-452.3 359.33,-452.59 362.76,-452.98 366.13,-453.47 369.42,-454.05 372.63,-454.73 375.72,-455.5 378.71,-456.35 381.56,-457.29 384.28,-458.32 386.85,-459.43 389.27,-460.62 391.53,-461.88 393.62,-463.21 395.53,-464.61 397.26,-466.08 398.81,-467.6 400.17,-469.18 401.35,-470.82 402.34,-472.5 403.14,-474.22 403.75,-475.98 404.18,-477.77 404.42,-479.59 404.49,-481.44 404.38,-483.3 404.1,-485.17 403.66,-487.06 403.06,-488.94 402.31,-490.83 401.41,-492.7 400.38,-494.56 399.22,-496.41 397.94,-498.23 396.54,-500.02 395.03,-501.78 393.43,-503.5 391.74,-505.18 389.96,-506.82 388.11,-508.4 386.19,-509.92 384.21,-511.39 382.17,-512.79 380.09,-514.12 377.96,-515.38 375.79,-516.57 373.58,-517.68 371.35,-518.71 369.1,-519.65 366.82,-520.5 364.52,-521.27 362.21,-521.95 359.89,-522.53 357.56,-523.02 355.22,-523.41 352.88,-523.7 350.53,-523.9 348.18,-524 345.82,-524 343.47,-523.9 341.12,-523.7 338.78,-523.41 336.44,-523.02 334.11,-522.53 331.79,-521.95 329.48,-521.27 327.18,-520.5 324.9,-519.65 322.65,-518.71 320.42,-517.68 318.21,-516.57 316.04,-515.38 313.91,-514.12 311.83,-512.79 309.79,-511.39 307.81,-509.92 305.89,-508.4 304.04,-506.82 302.26,-505.18 300.57,-503.5 298.97,-501.78 297.46,-500.02 296.06,-498.23 294.78,-496.41 293.62,-494.56 292.59,-492.7 291.69,-490.83 290.94,-488.94 290.34,-487.06 289.9,-485.17 289.62,-483.3 289.51,-481.44 289.58,-479.59 289.82,-477.77 290.25,-475.98 290.86,-474.22 291.66,-472.5 292.65,-470.82 293.83,-469.18 295.19,-467.6 296.74,-466.08 298.47,-464.61 300.38,-463.21 302.47,-461.88 304.73,-460.62 307.15,-459.43 309.72,-458.32 312.44,-457.29 315.29,-456.35 318.28,-455.5 321.37,-454.73 324.58,-454.05 327.87,-453.47 331.24,-452.98 334.67,-452.59 338.16,-452.3 341.68,-452.1 345.22,-452 348.78,-452 352.32,-452.1"/>
<text xml:space="preserve" text-anchor="middle" x="347" y="-483.8" font-family="sans-serif" font-size="14.00">ApiGateway</text>
</a>
</g>
</g>
<!-- #/domains/integration/subdomains/edge/boundedcontexts/api_gateway&#45;&gt;#/domains/commerce/subdomains/cataloging/boundedcontexts/catalog -->
<g id="edge1" class="edge">
<title>#/domains/integration/subdomains/edge/boundedcontexts/api_gateway&#45;&gt;#/domains/commerce/subdomains/cataloging/boundedcontexts/catalog</title>
<path fill="none" stroke="black" d="M290.2,-487.07C241.29,-483.94 172.38,-471.32 132,-428 89.56,-382.46 83.8,-307.38 85.17,-259.08"/>
<polygon fill="black" stroke="black" points="88.66,-259.35 85.57,-249.22 81.66,-259.06 88.66,-259.35"/>
<g id="a_edge1&#45;headlabel"><a xlink:title="open&#45;host&#45;service">
<text xml:space="preserve" text-anchor="middle" x="85.63" y="-244.71" font-family="sans-serif" font-size="10.00">OHS</text>
</a>
</g>
<g id="a_edge1&#45;taillabel"><a xlink:title="conformist">
<text xml:space="preserve" text-anchor="middle" x="290.2" y="-484.07" font-family="sans-serif" font-size="10.00">C</text>
</a>
</g>
</g>
<!-- #/domains/integration/subdomains/edge/boundedcontexts/api_gateway&#45;&gt;#/domains/commerce/subdomains/shopping/boundedcontexts/basket -->
<g id="edge3" class="edge">
<title>#/domains/integration/subdomains/edge/boundedcontexts/api_gateway&#45;&gt;#/domains/commerce/subdomains/shopping/boundedcontexts/basket</title>
<path fill="none" stroke="black" d="M316.4,-455.59C307.82,-446.71 298.51,-437.01 290,-428 273.41,-410.43 255.19,-390.74 239.98,-374.19"/>
<polygon fill="black" stroke="black" points="242.68,-371.96 233.34,-366.96 237.52,-376.69 242.68,-371.96"/>
<g id="a_edge3&#45;headlabel"><a xlink:title="open&#45;host&#45;service">
<text xml:space="preserve" text-anchor="middle" x="232.32" y="-362.84" font-family="sans-serif" font-size="10.00">OHS</text>
</a>
</g>
<g id="a_edge3&#45;taillabel"><a xlink:title="conformist">
<text xml:space="preserve" text-anchor="middle" x="316.4" y="-452.59" font-family="sans-serif" font-size="10.00">C</text>
</a>
</g>
</g>
<!-- #/domains/integration/subdomains/edge/boundedcontexts/api_gateway&#45;&gt;#/domains/commerce/subdomains/sales/boundedcontexts/ordering -->
<g id="edge7" class="edge">
<title>#/domains/integration/subdomains/edge/boundedcontexts/api_gateway&#45;&gt;#/domains/commerce/subdomains/sales/boundedcontexts/ordering</title>
<path fill="none" stroke="black" d="M330.22,-452.75C326.6,-444.73 322.97,-436.15 320,-428 297.22,-365.61 305.38,-345.38 280,-284 275.95,-274.21 270.85,-264.06 265.65,-254.62"/>
<polygon fill="black" stroke="black" points="268.75,-252.98 260.77,-246.01 262.66,-256.43 268.75,-252.98"/>
<g id="a_edge7&#45;headlabel"><a xlink:title="open&#45;host&#45;service">
<text xml:space="preserve" text-anchor="middle" x="260.02" y="-241.69" font-family="sans-serif" font-size="10.00">OHS</text>
</a>
</g>
<g id="a_edge7&#45;taillabel"><a xlink:title="conformist">
<text xml:space="preserve" text-anchor="middle" x="330.22" y="-449.75" font-family="sans-serif" font-size="10.00">C</text>
</a>
</g>
</g>
<!-- #/domains/integration/subdomains/edge/boundedcontexts/api_gateway&#45;&gt;#/domains/identity&amp;access/subdomains/auth/boundedcontexts/identity -->
<g id="edge9" class="edge">
<title>#/domains/integration/subdomains/edge/boundedcontexts/api_gateway&#45;&gt;#/domains/identity&amp;access/subdomains/auth/boundedcontexts/identity</title>
<path fill="none" stroke="black" d="M404.44,-485.6C546.67,-481.53 906.31,-467.41 942,-428 984.96,-380.56 971.24,-340.93 942,-284 890.76,-184.24 769.37,-120.4 697.69,-89.99"/>
<polygon fill="black" stroke="black" points="699.03,-86.75 688.46,-86.15 696.35,-93.22 699.03,-86.75"/>
<g id="a_edge9&#45;headlabel"><a xlink:title="open&#45;host&#45;service">
<text xml:space="preserve" text-anchor="middle" x="687.06" y="-82.57" font-family="sans-serif" font-size="10.00">OHS</text>
</a>
</g>
<g id="a_edge9&#45;taillabel"><a xlink:title="conformist">
<text xml:space="preserve" text-anchor="middle" x="404.44" y="-482.6" font-family="sans-serif" font-size="10.00">C</text>
</a>
</g>
</g>
<!-- #/domains/integration/subdomains/edge/boundedcontexts/api_gateway&#45;&gt;#/domains/customer_experience/subdomains/promotions/boundedcontexts/marketing -->
<g id="edge11" class="edge">
<title>#/domains/integration/subdomains/edge/boundedcontexts/api_gateway&#45;&gt;#/domains/customer_experience/subdomains/promotions/boundedcontexts/marketing</title>
<path fill="none" stroke="black" d="M357.9,-452.21C364.42,-431.41 372.77,-404.74 379.8,-382.3"/>
<polygon fill="black" stroke="black" points="383.14,-383.38 382.79,-372.79 376.46,-381.28 383.14,-383.38"/>
<g id="a_edge11&#45;headlabel"><a xlink:title="open&#45;host&#45;service">
<text xml:space="preserve" text-anchor="middle" x="383.24" y="-368.34" font-family="sans-serif" font-size="10.00">OHS</text>
</a>
</g>
<g id="a_edge11&#45;taillabel"><a xlink:title="conformist">
<text xml:space="preserve" text-anchor="middle" x="357.9" y="-449.21" font-family="sans-serif" font-size="10.00">C</text>
</a>
</g>
</g>
<!-- #/domains/integration/subdomains/edge/boundedcontexts/api_gateway&#45;&gt;#/domains/customer_experience/subdomains/geodata/boundedcontexts/locations -->
<g id="edge13" class="edge">
<title>#/domains/integration/subdomains/edge/boundedcontexts/api_gateway&#45;&gt;#/domains/customer_experience/subdomains/geodata/boundedcontexts/locations</title>
<path fill="none" stroke="black" d="M398.87,-467.39C421.37,-457.49 447.25,-444.14 468,-428 486.5,-413.61 503.7,-394.14 517.13,-376.9"/>
<polygon fill="black" stroke="black" points="519.62,-379.42 522.89,-369.34 514.05,-375.18 519.62,-379.42"/>
<g id="a_edge13&#45;headlabel"><a xlink:title="open&#45;host&#45;service">
<text xml:space="preserve" text-anchor="middle" x="523.8" y="-365.13" font-family="sans-serif" font-size="10.00">OHS</text>
</a>
</g>
<g id="a_edge13&#45;taillabel"><a xlink:title="conformist">
<text xml:space="preserve" text-anchor="middle" x="398.87" y="-464.39" font-family="sans-serif" font-size="10.00">C</text>
</a>
</g>
</g>
<!-- #/domains/customer_experience/subdomains/webhooks/boundedcontexts/webhooks -->
<g id="node9" class="node">
<title>#/domains/customer_experience/subdomains/webhooks/boundedcontexts/webhooks</title>
<g id="a_node9"><a xlink:title="Webhooks.API">
<polygon fill="white" stroke="black" points="701.32,-300.1 704.84,-300.3 708.33,-300.59 711.76,-300.98 715.13,-301.47 718.42,-302.05 721.63,-302.73 724.72,-303.5 727.71,-304.35 730.56,-305.29 733.28,-306.32 735.85,-307.43 738.27,-308.62 740.53,-309.88 742.62,-311.21 744.53,-312.61 746.26,-314.08 747.81,-315.6 749.17,-317.18 750.35,-318.82 751.34,-320.5 752.14,-322.22 752.75,-323.98 753.18,-325.77 753.42,-327.59 753.49,-329.44 753.38,-331.3 753.1,-333.17 752.66,-335.06 752.06,-336.94 751.31,-338.83 750.41,-340.7 749.38,-342.56 748.22,-344.41 746.94,-346.23 745.54,-348.02 744.03,-349.78 742.43,-351.5 740.74,-353.18 738.96,-354.82 737.11,-356.4 735.19,-357.92 733.21,-359.39 731.17,-360.79 729.09,-362.12 726.96,-363.38 724.79,-364.57 722.58,-365.68 720.35,-366.71 718.1,-367.65 715.82,-368.5 713.52,-369.27 711.21,-369.95 708.89,-370.53 706.56,-371.02 704.22,-371.41 701.88,-371.7 699.53,-371.9 697.18,-372 694.82,-372 692.47,-371.9 690.12,-371.7 687.78,-371.41 685.44,-371.02 683.11,-370.53 680.79,-369.95 678.48,-369.27 676.18,-368.5 673.9,-367.65 671.65,-366.71 669.42,-365.68 667.21,-364.57 665.04,-363.38 662.91,-362.12 660.83,-360.79 658.79,-359.39 656.81,-357.92 654.89,-356.4 653.04,-354.82 651.26,-353.18 649.57,-351.5 647.97,-349.78 646.46,-348.02 645.06,-346.23 643.78,-344.41 642.62,-342.56 641.59,-340.7 640.69,-338.83 639.94,-336.94 639.34,-335.06 638.9,-333.17 638.62,-331.3 638.51,-329.44 638.58,-327.59 638.82,-325.77 639.25,-323.98 639.86,-322.22 640.66,-320.5 641.65,-318.82 642.83,-317.18 644.19,-315.6 645.74,-314.08 647.47,-312.61 649.38,-311.21 651.47,-309.88 653.73,-308.62 656.15,-307.43 658.72,-306.32 661.44,-305.29 664.29,-304.35 667.28,-303.5 670.37,-302.73 673.58,-302.05 676.87,-301.47 680.24,-300.98 683.67,-300.59 687.16,-300.3 690.68,-300.1 694.22,-300 697.78,-300 701.32,-300.1"/>
<text xml:space="preserve" text-anchor="middle" x="696" y="-331.8" font-family="sans-serif" font-size="14.00">Webhooks</text>
</a>
</g>
</g>
<!-- #/domains/customer_experience/subdomains/webhooks/boundedcontexts/webhooks&#45;&gt;#/domains/commerce/subdomains/sales/boundedcontexts/ordering -->
<g id="edge14" class="edge">
<title>#/domains/customer_experience/subdomains/webhooks/boundedcontexts/webhooks&#45;&gt;#/domains/commerce/subdomains/sales/boundedcontexts/ordering</title>
<path fill="none" stroke="black" d="M658.91,-306.11C646.76,-297.86 632.82,-289.6 619,-284 514.48,-241.64 383.4,-224.28 305.97,-217.37"/>
<polygon fill="black" stroke="black" points="306.72,-213.92 296.46,-216.55 306.12,-220.89 306.72,-213.92"/>
<g id="a_edge14&#45;headlabel"><a xlink:title="published&#45;language">
<text xml:space="preserve" text-anchor="middle" x="294.95" y="-213.42" font-family="sans-serif" font-size="10.00">PL</text>
</a>
</g>
<g id="a_edge14&#45;taillabel"><a xlink:title="conformist">
<text xml:space="preserve" text-anchor="middle" x="658.91" y="-303.11" font-family="sans-serif" font-size="10.00">C</text>
</a>
</g>
</g>
<!-- #/domains/customer_experience/subdomains/realtime/boundedcontexts/ordering_signal_rhub -->
<g id="node10" class="node">
<title>#/domains/customer_experience/subdomains/realtime/boundedcontexts/ordering_signal_rhub</title>
<g id="a_node10"><a xlink:title="Ordering.SignalRHub">
<polygon fill="white" stroke="black" points="862.32,-300.1 865.84,-300.3 869.33,-300.59 872.76,-300.98 876.13,-301.47 879.42,-302.05 882.63,-302.73 885.72,-303.5 888.71,-304.35 891.56,-305.29 894.28,-306.32 896.85,-307.43 899.27,-308.62 901.53,-309.88 903.62,-311.21 905.53,-312.61 907.26,-314.08 908.81,-315.6 910.17,-317.18 911.35,-318.82 912.34,-320.5 913.14,-322.22 913.75,-323.98 914.18,-325.77 914.42,-327.59 914.49,-329.44 914.38,-331.3 914.1,-333.17 913.66,-335.06 913.06,-336.94 912.31,-338.83 911.41,-340.7 910.38,-342.56 909.22,-344.41 907.94,-346.23 906.54,-348.02 905.03,-349.78 903.43,-351.5 901.74,-353.18 899.96,-354.82 898.11,-356.4 896.19,-357.92 894.21,-359.39 892.17,-360.79 890.09,-362.12 887.96,-363.38 885.79,-364.57 883.58,-365.68 881.35,-366.71 879.1,-367.65 876.82,-368.5 874.52,-369.27 872.21,-369.95 869.89,-370.53 867.56,-371.02 865.22,-371.41 862.88,-371.7 860.53,-371.9 858.18,-372 855.82,-372 853.47,-371.9 851.12,-371.7 848.78,-371.41 846.44,-371.02 844.11,-370.53 841.79,-369.95 839.48,-369.27 837.18,-368.5 834.9,-367.65 832.65,-366.71 830.42,-365.68 828.21,-364.57 826.04,-363.38 823.91,-362.12 821.83,-360.79 819.79,-359.39 817.81,-357.92 815.89,-356.4 814.04,-354.82 812.26,-353.18 810.57,-351.5 808.97,-349.78 807.46,-348.02 806.06,-346.23 804.78,-344.41 803.62,-342.56 802.59,-340.7 801.69,-338.83 800.94,-336.94 800.34,-335.06 799.9,-333.17 799.62,-331.3 799.51,-329.44 799.58,-327.59 799.82,-325.77 800.25,-323.98 800.86,-322.22 801.66,-320.5 802.65,-318.82 803.83,-317.18 805.19,-315.6 806.74,-314.08 808.47,-312.61 810.38,-311.21 812.47,-309.88 814.73,-308.62 817.15,-307.43 819.72,-306.32 822.44,-305.29 825.29,-304.35 828.28,-303.5 831.37,-302.73 834.58,-302.05 837.87,-301.47 841.24,-300.98 844.67,-300.59 848.16,-300.3 851.68,-300.1 855.22,-300 858.78,-300 862.32,-300.1"/>
<text xml:space="preserve" text-anchor="middle" x="857" y="-331.8" font-family="sans-serif" font-size="14.00">OrderingSignalRHub</text>
</a>
</g>
</g>
<!-- #/domains/customer_experience/subdomains/realtime/boundedcontexts/ordering_signal_rhub&#45;&gt;#/domains/commerce/subdomains/sales/boundedcontexts/ordering -->
<g id="edge15" class="edge">
<title>#/domains/customer_experience/subdomains/realtime/boundedcontexts/ordering_signal_rhub&#45;&gt;#/domains/commerce/subdomains/sales/boundedcontexts/ordering</title>
<path fill="none" stroke="black" d="M817.03,-307.08C802.77,-298.37 786.22,-289.59 770,-284 610.47,-229.06 410.32,-216.34 307.64,-213.59"/>
<polygon fill="black" stroke="black" points="307.8,-210.09 297.72,-213.35 307.63,-217.09 307.8,-210.09"/>
<g id="a_edge15&#45;headlabel"><a xlink:title="published&#45;language">
<text xml:space="preserve" text-anchor="middle" x="296.21" y="-210.31" font-family="sans-serif" font-size="10.00">PL</text>
</a>
</g>
<g id="a_edge15&#45;taillabel"><a xlink:title="conformist">
<text xml:space="preserve" text-anchor="middle" x="817.03" y="-304.08" font-family="sans-serif" font-size="10.00">C</text>
</a>
</g>
</g>
</g>
</svg>
