<?xml version="1.0" encoding="UTF-8" standalone="no"?>
<?xml-stylesheet href="data:text/css,.graph%20text%20%7B%0A%09font-family%3A%20sans-serif%3B%0A%09stroke%3A%20white%3B%0A%09paint-order%3A%20stroke%3B%0A%09stroke-width%3A%203%3B%0A%09stroke-linecap%3A%20square%3B%0A%7D%0A%0A.namespace%20polygon%20%7B%0A%09fill-opacity%3A%200.2%3B%0A%09stroke%3A%20none%3B%0A%7D%0A" type="text/css"?>
<!DOCTYPE svg PUBLIC "-//W3C//DTD SVG 1.1//EN"
 "http://www.w3.org/Graphics/SVG/1.1/DTD/svg11.dtd">
<!-- Generated by graphviz version 13.1.2 (0)
 -->
<!-- Pages: 1 -->
<svg width="344pt" height="544pt"
 viewBox="0.00 0.00 344.00 544.00" xmlns="http://www.w3.org/2000/svg" xmlns:xlink="http://www.w3.org/1999/xlink">
<g id="graph0" class="graph" transform="scale(1 1) rotate(0) translate(4 540)">
<polygon fill="white" stroke="none" points="-4,4 -4,-540 340,-540 340,4 -4,4"/>
<g id="clust1" class="cluster namespace">
<title>e_shop</title>
<polygon fill="lightgrey" stroke="lightgrey" points="8,-8 8,-528 328,-528 328,-8 8,-8"/>
<text xml:space="preserve" text-anchor="middle" x="168" y="-515" font-family="sans-serif" font-size="10.00">eShop</text>
</g>
<g id="clust2" class="cluster namespace">
<title>#/domains/integration</title>
<polygon fill="lightgrey" stroke="lightgrey" points="29,-28 29,-244 307,-244 307,-28 29,-28"/>
<text xml:space="preserve" text-anchor="middle" x="168" y="-231" font-family="sans-serif" font-size="10.00">Integration</text>
</g>
<g id="clust3" class="cluster namespace">
<title>#/domains/integration/subdomains/processors</title>
<polygon fill="lightgrey" stroke="lightgrey" points="49,-48 49,-204 287,-204 287,-48 49,-48"/>
<text xml:space="preserve" text-anchor="middle" x="168" y="-191" font-family="sans-serif" font-size="10.00">Processors</text>
</g>
<g id="clust4" class="cluster namespace">
<title>#/domains/integration/subdomains/processors/boundedcontexts/payment_processor</title>
<polygon fill="lightgrey" stroke="lightgrey" points="69,-68 69,-164 267,-164 267,-68 69,-68"/>
<text xml:space="preserve" text-anchor="middle" x="168" y="-151" font-family="sans-serif" font-size="10.00">PaymentProcessor</text>
</g>
<g id="clust5" class="cluster namespace">
<title>#/domains/commerce</title>
<polygon fill="lightgrey" stroke="lightgrey" points="28,-272 28,-488 308,-488 308,-272 28,-272"/>
<text xml:space="preserve" text-anchor="middle" x="168" y="-475" font-family="sans-serif" font-size="10.00">Commerce</text>
</g>
<g id="clust6" class="cluster namespace">
<title>#/domains/commerce/subdomains/ordering</title>
<polygon fill="lightgrey" stroke="lightgrey" points="48,-292 48,-448 288,-448 288,-292 48,-292"/>
<text xml:space="preserve" text-anchor="middle" x="168" y="-435" font-family="sans-serif" font-size="10.00">Ordering</text>
</g>
<g id="clust7" class="cluster namespace">
<title>#/domains/commerce/subdomains/ordering/boundedcontexts/ordering.api</title>
<polygon fill="lightgrey" stroke="lightgrey" points="68,-312 68,-408 268,-408 268,-312 68,-312"/>
<text xml:space="preserve" text-anchor="middle" x="168" y="-395" font-family="sans-serif" font-size="10.00">Ordering.API</text>
</g>
<!-- #/domains/integration/subdomains/processors/boundedcontexts/payment_processor/services/payment_service -->
<g id="node1" class="node">
<title>#/domains/integration/subdomains/processors/boundedcontexts/payment_processor/services/payment_service</title>
<g id="a_node1"><a xlink:title="Application boundary that receives payment requests and emits success/failure outcomes based on simple rules.">
<polygon fill="white" stroke="black" points="175.27,-88.05 180.09,-88.15 184.85,-88.3 189.55,-88.49 194.15,-88.74 198.65,-89.03 203.03,-89.36 207.26,-89.75 211.34,-90.18 215.24,-90.65 218.96,-91.16 222.48,-91.71 225.78,-92.31 228.87,-92.94 231.72,-93.61 234.33,-94.31 236.7,-95.04 238.82,-95.8 240.69,-96.59 242.29,-97.41 243.64,-98.25 244.73,-99.11 245.57,-99.99 246.16,-100.89 246.49,-101.8 246.58,-102.72 246.43,-103.65 246.05,-104.59 245.45,-105.53 244.63,-106.47 243.6,-107.41 242.38,-108.35 240.97,-109.28 239.38,-110.2 237.62,-111.11 235.71,-112.01 233.66,-112.89 231.47,-113.75 229.16,-114.59 226.73,-115.41 224.2,-116.2 221.57,-116.96 218.86,-117.69 216.08,-118.39 213.23,-119.06 210.31,-119.69 207.35,-120.29 204.34,-120.84 201.29,-121.35 198.2,-121.82 195.09,-122.25 191.95,-122.64 188.8,-122.97 185.62,-123.26 182.43,-123.51 179.24,-123.7 176.03,-123.85 172.82,-123.95 169.61,-124 166.39,-124 163.18,-123.95 159.97,-123.85 156.76,-123.7 153.57,-123.51 150.38,-123.26 147.2,-122.97 144.05,-122.64 140.91,-122.25 137.8,-121.82 134.71,-121.35 131.66,-120.84 128.65,-120.29 125.69,-119.69 122.77,-119.06 119.92,-118.39 117.14,-117.69 114.43,-116.96 111.8,-116.2 109.27,-115.41 106.84,-114.59 104.53,-113.75 102.34,-112.89 100.29,-112.01 98.38,-111.11 96.62,-110.2 95.03,-109.28 93.62,-108.35 92.4,-107.41 91.37,-106.47 90.55,-105.53 89.95,-104.59 89.57,-103.65 89.42,-102.72 89.51,-101.8 89.84,-100.89 90.43,-99.99 91.27,-99.11 92.36,-98.25 93.71,-97.41 95.31,-96.59 97.18,-95.8 99.3,-95.04 101.67,-94.31 104.28,-93.61 107.13,-92.94 110.22,-92.31 113.52,-91.71 117.04,-91.16 120.76,-90.65 124.66,-90.18 128.74,-89.75 132.97,-89.36 137.35,-89.03 141.85,-88.74 146.45,-88.49 151.15,-88.3 155.91,-88.15 160.73,-88.05 165.57,-88 170.43,-88 175.27,-88.05"/>
<text xml:space="preserve" text-anchor="middle" x="168" y="-101.8" font-family="sans-serif" font-size="14.00">PaymentService</text>
</a>
</g>
</g>
<!-- #/domains/commerce/subdomains/ordering/boundedcontexts/ordering.api/services/ordering_service -->
<g id="node2" class="node">
<title>#/domains/commerce/subdomains/ordering/boundedcontexts/ordering.api/services/ordering_service</title>
<g id="a_node2"><a xlink:title="Owns the order lifecycle: creation from a validated basket, status transitions (Submitted → Paid), and emitting integration events that others react to.">
<polygon fill="white" stroke="black" points="175.38,-332.05 180.26,-332.15 185.09,-332.3 189.86,-332.49 194.53,-332.74 199.1,-333.03 203.53,-333.36 207.83,-333.75 211.97,-334.18 215.93,-334.65 219.7,-335.16 223.26,-335.71 226.62,-336.31 229.75,-336.94 232.64,-337.61 235.29,-338.31 237.7,-339.04 239.84,-339.8 241.73,-340.59 243.37,-341.41 244.73,-342.25 245.84,-343.11 246.69,-343.99 247.28,-344.89 247.62,-345.8 247.71,-346.72 247.56,-347.65 247.18,-348.59 246.57,-349.53 245.73,-350.47 244.69,-351.41 243.45,-352.35 242.02,-353.28 240.41,-354.2 238.63,-355.11 236.69,-356.01 234.61,-356.89 232.39,-357.75 230.04,-358.59 227.58,-359.41 225.01,-360.2 222.35,-360.96 219.6,-361.69 216.77,-362.39 213.88,-363.06 210.92,-363.69 207.92,-364.29 204.86,-364.84 201.77,-365.35 198.64,-365.82 195.48,-366.25 192.3,-366.64 189.1,-366.97 185.88,-367.26 182.64,-367.51 179.4,-367.7 176.15,-367.85 172.89,-367.95 169.63,-368 166.37,-368 163.11,-367.95 159.85,-367.85 156.6,-367.7 153.36,-367.51 150.12,-367.26 146.9,-366.97 143.7,-366.64 140.52,-366.25 137.36,-365.82 134.23,-365.35 131.14,-364.84 128.08,-364.29 125.08,-363.69 122.12,-363.06 119.23,-362.39 116.4,-361.69 113.65,-360.96 110.99,-360.2 108.42,-359.41 105.96,-358.59 103.61,-357.75 101.39,-356.89 99.31,-356.01 97.37,-355.11 95.59,-354.2 93.98,-353.28 92.55,-352.35 91.31,-351.41 90.27,-350.47 89.43,-349.53 88.82,-348.59 88.44,-347.65 88.29,-346.72 88.38,-345.8 88.72,-344.89 89.31,-343.99 90.16,-343.11 91.27,-342.25 92.63,-341.41 94.27,-340.59 96.16,-339.8 98.3,-339.04 100.71,-338.31 103.36,-337.61 106.25,-336.94 109.38,-336.31 112.74,-335.71 116.3,-335.16 120.07,-334.65 124.03,-334.18 128.17,-333.75 132.47,-333.36 136.9,-333.03 141.47,-332.74 146.14,-332.49 150.91,-332.3 155.74,-332.15 160.62,-332.05 165.54,-332 170.46,-332 175.38,-332.05"/>
<text xml:space="preserve" text-anchor="middle" x="168" y="-345.8" font-family="sans-serif" font-size="14.00">OrderingService</text>
</a>
</g>
</g>
<!-- #/domains/commerce/subdomains/ordering/boundedcontexts/ordering.api/services/ordering_service&#45;&gt;#/domains/integration/subdomains/processors/boundedcontexts/payment_processor/services/payment_service -->
<g id="edge1" class="edge">
<title>#/domains/commerce/subdomains/ordering/boundedcontexts/ordering.api/services/ordering_service&#45;&gt;#/domains/integration/subdomains/processors/boundedcontexts/payment_processor/services/payment_service</title>
<path fill="none" stroke="black" d="M137.43,-332.64C109.98,-315.47 75.29,-286.25 84.45,-252 96.61,-206.56 126.81,-160.59 147.36,-132.95"/>
<polygon fill="black" stroke="black" points="150.01,-135.25 153.27,-125.17 144.44,-131.02 150.01,-135.25"/>
<text xml:space="preserve" text-anchor="middle" x="117.23" y="-255" font-family="sans-serif" font-size="10.00">ProcessPayment</text>
<g id="a_edge1&#45;headlabel"><a xlink:title="open&#45;host&#45;service">
<text xml:space="preserve" text-anchor="middle" x="154.19" y="-120.96" font-family="sans-serif" font-size="10.00">OHS</text>
</a>
</g>
<g id="a_edge1&#45;taillabel"><a xlink:title="customer&#45;supplier">
<text xml:space="preserve" text-anchor="middle" x="137.43" y="-329.64" font-family="sans-serif" font-size="10.00">C/s</text>
</a>
</g>
</g>
<!-- #/domains/commerce/subdomains/ordering/boundedcontexts/ordering.api/services/ordering_service&#45;&gt;#/domains/integration/subdomains/processors/boundedcontexts/payment_processor/services/payment_service -->
<g id="edge2" class="edge">
<title>#/domains/commerce/subdomains/ordering/boundedcontexts/ordering.api/services/ordering_service&#45;&gt;#/domains/integration/subdomains/processors/boundedcontexts/payment_processor/services/payment_service</title>
<path fill="none" stroke="black" d="M168,-331.6C168,-290.35 168,-186.31 168,-135.63"/>
<polygon fill="black" stroke="black" points="171.5,-135.76 168,-125.76 164.5,-135.76 171.5,-135.76"/>
<text xml:space="preserve" text-anchor="middle" x="206.87" y="-255" font-family="sans-serif" font-size="10.00">PaymentSucceeded</text>
<g id="a_edge2&#45;headlabel"><a xlink:title="published&#45;language">
<text xml:space="preserve" text-anchor="middle" x="168" y="-121.25" font-family="sans-serif" font-size="10.00">PL</text>
</a>
</g>
<g id="a_edge2&#45;taillabel"><a xlink:title="conformist">
<text xml:space="preserve" text-anchor="middle" x="168" y="-328.6" font-family="sans-serif" font-size="10.00">C</text>
</a>
</g>
</g>
</g>
</svg>
