<?xml version="1.0" encoding="UTF-8" standalone="no"?>
<?xml-stylesheet href="data:text/css,.graph%20text%20%7B%0A%09font-family%3A%20sans-serif%3B%0A%09stroke%3A%20white%3B%0A%09paint-order%3A%20stroke%3B%0A%09stroke-width%3A%203%3B%0A%09stroke-linecap%3A%20square%3B%0A%7D%0A%0A.namespace%20polygon%20%7B%0A%09fill-opacity%3A%200.2%3B%0A%09stroke%3A%20none%3B%0A%7D%0A" type="text/css"?>
<!DOCTYPE svg PUBLIC "-//W3C//DTD SVG 1.1//EN"
 "http://www.w3.org/Graphics/SVG/1.1/DTD/svg11.dtd">
<!-- Generated by graphviz version 13.1.2 (0)
 -->
<!-- Pages: 1 -->
<svg width="2000pt" height="728pt"
 viewBox="0.00 0.00 2000.00 728.00" xmlns="http://www.w3.org/2000/svg" xmlns:xlink="http://www.w3.org/1999/xlink">
<g id="graph0" class="graph" transform="scale(1 1) rotate(0) translate(4 724)">
<polygon fill="white" stroke="none" points="-4,4 -4,-724 1996,-724 1996,4 -4,4"/>
<g id="clust1" class="cluster namespace">
<title>e_shop_on_containers</title>
<polygon fill="lightgrey" stroke="lightgrey" points="8,-8 8,-712 1984,-712 1984,-8 8,-8"/>
<text xml:space="preserve" text-anchor="middle" x="996" y="-699" font-family="sans-serif" font-size="10.00">eShopOnContainers</text>
</g>
<g id="clust2" class="cluster namespace">
<title>#/domains/commerce</title>
<polygon fill="lightgrey" stroke="lightgrey" points="28,-28 28,-672 824,-672 824,-28 28,-28"/>
<text xml:space="preserve" text-anchor="middle" x="426" y="-659" font-family="sans-serif" font-size="10.00">Commerce</text>
</g>
<g id="clust3" class="cluster namespace">
<title>#/domains/commerce/subdomains/sales</title>
<polygon fill="lightgrey" stroke="lightgrey" points="325,-476 325,-632 779,-632 779,-476 325,-476"/>
<text xml:space="preserve" text-anchor="middle" x="552" y="-619" font-family="sans-serif" font-size="10.00">Sales</text>
</g>
<g id="clust4" class="cluster namespace">
<title>#/domains/commerce/subdomains/sales/boundedcontexts/ordering</title>
<polygon fill="lightgrey" stroke="lightgrey" points="345,-496 345,-592 759,-592 759,-496 345,-496"/>
<text xml:space="preserve" text-anchor="middle" x="552" y="-579" font-family="sans-serif" font-size="10.00">Ordering</text>
</g>
<g id="clust5" class="cluster namespace">
<title>#/domains/commerce/subdomains/payments</title>
<polygon fill="lightgrey" stroke="lightgrey" points="190,-252 190,-408 428,-408 428,-252 190,-252"/>
<text xml:space="preserve" text-anchor="middle" x="309" y="-395" font-family="sans-serif" font-size="10.00">Payments</text>
</g>
<g id="clust6" class="cluster namespace">
<title>#/domains/commerce/subdomains/payments/boundedcontexts/payment</title>
<polygon fill="lightgrey" stroke="lightgrey" points="210,-272 210,-368 408,-368 408,-272 210,-272"/>
<text xml:space="preserve" text-anchor="middle" x="309" y="-355" font-family="sans-serif" font-size="10.00">Payment</text>
</g>
<g id="clust7" class="cluster namespace">
<title>#/domains/commerce/subdomains/shopping</title>
<polygon fill="lightgrey" stroke="lightgrey" points="557,-252 557,-408 779,-408 779,-252 557,-252"/>
<text xml:space="preserve" text-anchor="middle" x="668" y="-395" font-family="sans-serif" font-size="10.00">Shopping</text>
</g>
<g id="clust8" class="cluster namespace">
<title>#/domains/commerce/subdomains/shopping/boundedcontexts/basket</title>
<polygon fill="lightgrey" stroke="lightgrey" points="577,-272 577,-368 759,-368 759,-272 577,-272"/>
<text xml:space="preserve" text-anchor="middle" x="668" y="-355" font-family="sans-serif" font-size="10.00">Basket</text>
</g>
<g id="clust9" class="cluster namespace">
<title>#/domains/commerce/subdomains/cataloging</title>
<polygon fill="lightgrey" stroke="lightgrey" points="553,-48 553,-204 783,-204 783,-48 553,-48"/>
<text xml:space="preserve" text-anchor="middle" x="668" y="-191" font-family="sans-serif" font-size="10.00">Cataloging</text>
</g>
<g id="clust10" class="cluster namespace">
<title>#/domains/commerce/subdomains/cataloging/boundedcontexts/catalog</title>
<polygon fill="lightgrey" stroke="lightgrey" points="573,-68 573,-164 763,-164 763,-68 573,-68"/>
<text xml:space="preserve" text-anchor="middle" x="668" y="-151" font-family="sans-serif" font-size="10.00">Catalog</text>
</g>
<g id="clust11" class="cluster namespace">
<title>#/domains/customer_experience</title>
<polygon fill="lightgrey" stroke="lightgrey" points="844,-232 844,-448 1674,-448 1674,-232 844,-232"/>
<text xml:space="preserve" text-anchor="middle" x="1259" y="-435" font-family="sans-serif" font-size="10.00">CustomerExperience</text>
</g>
<g id="clust12" class="cluster namespace">
<title>#/domains/customer_experience/subdomains/webhooks</title>
<polygon fill="lightgrey" stroke="lightgrey" points="1400,-252 1400,-408 1654,-408 1654,-252 1400,-252"/>
<text xml:space="preserve" text-anchor="middle" x="1527" y="-395" font-family="sans-serif" font-size="10.00">Webhooks</text>
</g>
<g id="clust13" class="cluster namespace">
<title>#/domains/customer_experience/subdomains/webhooks/boundedcontexts/webhooks</title>
<polygon fill="lightgrey" stroke="lightgrey" points="1420,-272 1420,-368 1634,-368 1634,-272 1420,-272"/>
<text xml:space="preserve" text-anchor="middle" x="1527" y="-355" font-family="sans-serif" font-size="10.00">Webhooks</text>
</g>
<g id="clust14" class="cluster namespace">
<title>#/domains/customer_experience/subdomains/promotions</title>
<polygon fill="lightgrey" stroke="lightgrey" points="864,-252 864,-408 1114,-408 1114,-252 864,-252"/>
<text xml:space="preserve" text-anchor="middle" x="989" y="-395" font-family="sans-serif" font-size="10.00">Promotions</text>
</g>
<g id="clust15" class="cluster namespace">
<title>#/domains/customer_experience/subdomains/promotions/boundedcontexts/marketing</title>
<polygon fill="lightgrey" stroke="lightgrey" points="884,-272 884,-368 1094,-368 1094,-272 884,-272"/>
<text xml:space="preserve" text-anchor="middle" x="989" y="-355" font-family="sans-serif" font-size="10.00">Marketing</text>
</g>
<g id="clust16" class="cluster namespace">
<title>#/domains/customer_experience/subdomains/geodata</title>
<polygon fill="lightgrey" stroke="lightgrey" points="1134,-252 1134,-408 1380,-408 1380,-252 1134,-252"/>
<text xml:space="preserve" text-anchor="middle" x="1257" y="-395" font-family="sans-serif" font-size="10.00">Geodata</text>
</g>
<g id="clust17" class="cluster namespace">
<title>#/domains/customer_experience/subdomains/geodata/boundedcontexts/locations</title>
<polygon fill="lightgrey" stroke="lightgrey" points="1154,-272 1154,-368 1360,-368 1360,-272 1154,-272"/>
<text xml:space="preserve" text-anchor="middle" x="1257" y="-355" font-family="sans-serif" font-size="10.00">Locations</text>
</g>
<g id="clust18" class="cluster namespace">
<title>#/domains/identity&amp;access</title>
<polygon fill="lightgrey" stroke="lightgrey" points="1694,-232 1694,-448 1964,-448 1964,-232 1694,-232"/>
<text xml:space="preserve" text-anchor="middle" x="1829" y="-435" font-family="sans-serif" font-size="10.00">Identity&amp;Access</text>
</g>
<g id="clust19" class="cluster namespace">
<title>#/domains/identity&amp;access/subdomains/auth</title>
<polygon fill="lightgrey" stroke="lightgrey" points="1714,-252 1714,-408 1944,-408 1944,-252 1714,-252"/>
<text xml:space="preserve" text-anchor="middle" x="1829" y="-395" font-family="sans-serif" font-size="10.00">Auth</text>
</g>
<g id="clust20" class="cluster namespace">
<title>#/domains/identity&amp;access/subdomains/auth/boundedcontexts/identity</title>
<polygon fill="lightgrey" stroke="lightgrey" points="1734,-272 1734,-368 1924,-368 1924,-272 1734,-272"/>
<text xml:space="preserve" text-anchor="middle" x="1829" y="-355" font-family="sans-serif" font-size="10.00">Identity</text>
</g>
<!-- #/domains/commerce/subdomains/sales/boundedcontexts/ordering/services/ordering_workflow -->
<g id="node1" class="node">
<title>#/domains/commerce/subdomains/sales/boundedcontexts/ordering/services/ordering_workflow</title>
<g id="a_node1"><a xlink:title="Policies, coordination">
<polygon fill="white" stroke="black" points="464.43,-516.05 470.02,-516.15 475.54,-516.3 480.99,-516.49 486.33,-516.74 491.55,-517.03 496.63,-517.36 501.54,-517.75 506.27,-518.18 510.8,-518.65 515.11,-519.16 519.19,-519.71 523.02,-520.31 526.6,-520.94 529.91,-521.61 532.94,-522.31 535.69,-523.04 538.14,-523.8 540.31,-524.59 542.17,-525.41 543.74,-526.25 545,-527.11 545.97,-527.99 546.65,-528.89 547.04,-529.8 547.14,-530.72 546.97,-531.65 546.53,-532.59 545.83,-533.53 544.88,-534.47 543.69,-535.41 542.27,-536.35 540.63,-537.28 538.79,-538.2 536.76,-539.11 534.54,-540.01 532.16,-540.89 529.62,-541.75 526.93,-542.59 524.12,-543.41 521.18,-544.2 518.14,-544.96 515,-545.69 511.77,-546.39 508.46,-547.06 505.08,-547.69 501.64,-548.29 498.15,-548.84 494.61,-549.35 491.03,-549.82 487.42,-550.25 483.78,-550.64 480.12,-550.97 476.44,-551.26 472.74,-551.51 469.03,-551.7 465.32,-551.85 461.59,-551.95 457.86,-552 454.14,-552 450.41,-551.95 446.68,-551.85 442.97,-551.7 439.26,-551.51 435.56,-551.26 431.88,-550.97 428.22,-550.64 424.58,-550.25 420.97,-549.82 417.39,-549.35 413.85,-548.84 410.36,-548.29 406.92,-547.69 403.54,-547.06 400.23,-546.39 397,-545.69 393.86,-544.96 390.82,-544.2 387.88,-543.41 385.07,-542.59 382.38,-541.75 379.84,-540.89 377.46,-540.01 375.24,-539.11 373.21,-538.2 371.37,-537.28 369.73,-536.35 368.31,-535.41 367.12,-534.47 366.17,-533.53 365.47,-532.59 365.03,-531.65 364.86,-530.72 364.96,-529.8 365.35,-528.89 366.03,-527.99 367,-527.11 368.26,-526.25 369.83,-525.41 371.69,-524.59 373.86,-523.8 376.31,-523.04 379.06,-522.31 382.09,-521.61 385.4,-520.94 388.98,-520.31 392.81,-519.71 396.89,-519.16 401.2,-518.65 405.73,-518.18 410.46,-517.75 415.37,-517.36 420.45,-517.03 425.67,-516.74 431.01,-516.49 436.46,-516.3 441.98,-516.15 447.57,-516.05 453.18,-516 458.82,-516 464.43,-516.05"/>
<text xml:space="preserve" text-anchor="middle" x="456" y="-529.8" font-family="sans-serif" font-size="14.00">OrderingWorkflow</text>
</a>
</g>
</g>
<!-- #/domains/commerce/subdomains/payments/boundedcontexts/payment/services/payment_service -->
<g id="node3" class="node">
<title>#/domains/commerce/subdomains/payments/boundedcontexts/payment/services/payment_service</title>
<g id="a_node3"><a xlink:title="Authorize/Capture (sample)">
<polygon fill="white" stroke="black" points="316.27,-292.05 321.09,-292.15 325.85,-292.3 330.55,-292.49 335.15,-292.74 339.65,-293.03 344.03,-293.36 348.26,-293.75 352.34,-294.18 356.24,-294.65 359.96,-295.16 363.48,-295.71 366.78,-296.31 369.87,-296.94 372.72,-297.61 375.33,-298.31 377.7,-299.04 379.82,-299.8 381.69,-300.59 383.29,-301.41 384.64,-302.25 385.73,-303.11 386.57,-303.99 387.16,-304.89 387.49,-305.8 387.58,-306.72 387.43,-307.65 387.05,-308.59 386.45,-309.53 385.63,-310.47 384.6,-311.41 383.38,-312.35 381.97,-313.28 380.38,-314.2 378.62,-315.11 376.71,-316.01 374.66,-316.89 372.47,-317.75 370.16,-318.59 367.73,-319.41 365.2,-320.2 362.57,-320.96 359.86,-321.69 357.08,-322.39 354.23,-323.06 351.31,-323.69 348.35,-324.29 345.34,-324.84 342.29,-325.35 339.2,-325.82 336.09,-326.25 332.95,-326.64 329.8,-326.97 326.62,-327.26 323.43,-327.51 320.24,-327.7 317.03,-327.85 313.82,-327.95 310.61,-328 307.39,-328 304.18,-327.95 300.97,-327.85 297.76,-327.7 294.57,-327.51 291.38,-327.26 288.2,-326.97 285.05,-326.64 281.91,-326.25 278.8,-325.82 275.71,-325.35 272.66,-324.84 269.65,-324.29 266.69,-323.69 263.77,-323.06 260.92,-322.39 258.14,-321.69 255.43,-320.96 252.8,-320.2 250.27,-319.41 247.84,-318.59 245.53,-317.75 243.34,-316.89 241.29,-316.01 239.38,-315.11 237.62,-314.2 236.03,-313.28 234.62,-312.35 233.4,-311.41 232.37,-310.47 231.55,-309.53 230.95,-308.59 230.57,-307.65 230.42,-306.72 230.51,-305.8 230.84,-304.89 231.43,-303.99 232.27,-303.11 233.36,-302.25 234.71,-301.41 236.31,-300.59 238.18,-299.8 240.3,-299.04 242.67,-298.31 245.28,-297.61 248.13,-296.94 251.22,-296.31 254.52,-295.71 258.04,-295.16 261.76,-294.65 265.66,-294.18 269.74,-293.75 273.97,-293.36 278.35,-293.03 282.85,-292.74 287.45,-292.49 292.15,-292.3 296.91,-292.15 301.73,-292.05 306.57,-292 311.43,-292 316.27,-292.05"/>
<text xml:space="preserve" text-anchor="middle" x="309" y="-305.8" font-family="sans-serif" font-size="14.00">PaymentService</text>
</a>
</g>
</g>
<!-- #/domains/commerce/subdomains/sales/boundedcontexts/ordering/services/ordering_workflow&#45;&gt;#/domains/commerce/subdomains/payments/boundedcontexts/payment/services/payment_service -->
<g id="edge2" class="edge">
<title>#/domains/commerce/subdomains/sales/boundedcontexts/ordering/services/ordering_workflow&#45;&gt;#/domains/commerce/subdomains/payments/boundedcontexts/payment/services/payment_service</title>
<path fill="none" stroke="black" d="M364.87,-529.4C269.96,-523.51 130.51,-508.1 97.02,-468 43.61,-404.05 173.19,-351.7 252.63,-326.76"/>
<polygon fill="black" stroke="black" points="253.51,-330.15 262.04,-323.87 251.45,-323.46 253.51,-330.15"/>
<text xml:space="preserve" text-anchor="middle" x="134.51" y="-459" font-family="sans-serif" font-size="10.00">AuthorizePayment</text>
<g id="a_edge2&#45;headlabel"><a xlink:title="open&#45;host&#45;service">
<text xml:space="preserve" text-anchor="middle" x="263.49" y="-320.42" font-family="sans-serif" font-size="10.00">OHS</text>
</a>
</g>
<g id="a_edge2&#45;taillabel"><a xlink:title="customer&#45;supplier">
<text xml:space="preserve" text-anchor="middle" x="364.87" y="-526.4" font-family="sans-serif" font-size="10.00">C/s</text>
</a>
</g>
</g>
<!-- #/domains/commerce/subdomains/sales/boundedcontexts/ordering/services/ordering_workflow&#45;&gt;#/domains/commerce/subdomains/payments/boundedcontexts/payment/services/payment_service -->
<g id="edge10" class="edge">
<title>#/domains/commerce/subdomains/sales/boundedcontexts/ordering/services/ordering_workflow&#45;&gt;#/domains/commerce/subdomains/payments/boundedcontexts/payment/services/payment_service</title>
<path fill="none" stroke="black" d="M382.49,-521.02C325.48,-510.06 253.23,-491.91 235.35,-468 203.6,-425.55 250.37,-367.22 282.66,-334.94"/>
<polygon fill="black" stroke="black" points="284.69,-337.85 289.42,-328.37 279.81,-332.83 284.69,-337.85"/>
<text xml:space="preserve" text-anchor="middle" x="268.67" y="-459" font-family="sans-serif" font-size="10.00">CapturePayment</text>
<g id="a_edge10&#45;headlabel"><a xlink:title="open&#45;host&#45;service">
<text xml:space="preserve" text-anchor="middle" x="290.51" y="-324.32" font-family="sans-serif" font-size="10.00">OHS</text>
</a>
</g>
<g id="a_edge10&#45;taillabel"><a xlink:title="customer&#45;supplier">
<text xml:space="preserve" text-anchor="middle" x="382.49" y="-518.02" font-family="sans-serif" font-size="10.00">C/s</text>
</a>
</g>
</g>
<!-- #/domains/commerce/subdomains/sales/boundedcontexts/ordering/services/ordering_workflow&#45;&gt;#/domains/commerce/subdomains/payments/boundedcontexts/payment/services/payment_service -->
<g id="edge11" class="edge">
<title>#/domains/commerce/subdomains/sales/boundedcontexts/ordering/services/ordering_workflow&#45;&gt;#/domains/commerce/subdomains/payments/boundedcontexts/payment/services/payment_service</title>
<path fill="none" stroke="black" d="M423.5,-516.42C404.16,-505.1 380.45,-488.45 365.01,-468 335.51,-428.91 320.53,-372.9 313.77,-339.42"/>
<polygon fill="black" stroke="black" points="317.23,-338.83 311.93,-329.66 310.35,-340.14 317.23,-338.83"/>
<text xml:space="preserve" text-anchor="middle" x="412.5" y="-459" font-family="sans-serif" font-size="10.00">PaymentStatusChanged</text>
<g id="a_edge11&#45;headlabel"><a xlink:title="published&#45;language">
<text xml:space="preserve" text-anchor="middle" x="311.64" y="-325.17" font-family="sans-serif" font-size="10.00">PL</text>
</a>
</g>
<g id="a_edge11&#45;taillabel"><a xlink:title="conformist">
<text xml:space="preserve" text-anchor="middle" x="423.5" y="-513.42" font-family="sans-serif" font-size="10.00">C</text>
</a>
</g>
</g>
<!-- #/domains/commerce/subdomains/sales/boundedcontexts/ordering/services/ordering_app -->
<g id="node2" class="node">
<title>#/domains/commerce/subdomains/sales/boundedcontexts/ordering/services/ordering_app</title>
<g id="a_node2"><a xlink:title="Start/Place orders">
<polygon fill="white" stroke="black" points="678.16,-516.05 682.24,-516.15 686.28,-516.3 690.26,-516.49 694.16,-516.74 697.98,-517.03 701.68,-517.36 705.27,-517.75 708.73,-518.18 712.03,-518.65 715.18,-519.16 718.16,-519.71 720.97,-520.31 723.58,-520.94 726,-521.61 728.21,-522.31 730.22,-523.04 732.01,-523.8 733.59,-524.59 734.96,-525.41 736.1,-526.25 737.03,-527.11 737.73,-527.99 738.23,-528.89 738.51,-529.8 738.59,-530.72 738.46,-531.65 738.14,-532.59 737.63,-533.53 736.93,-534.47 736.06,-535.41 735.03,-536.35 733.83,-537.28 732.49,-538.2 731,-539.11 729.38,-540.01 727.64,-540.89 725.78,-541.75 723.82,-542.59 721.77,-543.41 719.62,-544.2 717.4,-544.96 715.1,-545.69 712.74,-546.39 710.32,-547.06 707.86,-547.69 705.34,-548.29 702.79,-548.84 700.21,-549.35 697.59,-549.82 694.96,-550.25 692.3,-550.64 689.62,-550.97 686.93,-551.26 684.23,-551.51 681.52,-551.7 678.81,-551.85 676.09,-551.95 673.36,-552 670.64,-552 667.91,-551.95 665.19,-551.85 662.48,-551.7 659.77,-551.51 657.07,-551.26 654.38,-550.97 651.7,-550.64 649.04,-550.25 646.41,-549.82 643.79,-549.35 641.21,-548.84 638.66,-548.29 636.14,-547.69 633.68,-547.06 631.26,-546.39 628.9,-545.69 626.6,-544.96 624.38,-544.2 622.23,-543.41 620.18,-542.59 618.22,-541.75 616.36,-540.89 614.62,-540.01 613,-539.11 611.51,-538.2 610.17,-537.28 608.97,-536.35 607.94,-535.41 607.07,-534.47 606.37,-533.53 605.86,-532.59 605.54,-531.65 605.41,-530.72 605.49,-529.8 605.77,-528.89 606.27,-527.99 606.97,-527.11 607.9,-526.25 609.04,-525.41 610.41,-524.59 611.99,-523.8 613.78,-523.04 615.79,-522.31 618,-521.61 620.42,-520.94 623.03,-520.31 625.84,-519.71 628.82,-519.16 631.97,-518.65 635.27,-518.18 638.73,-517.75 642.32,-517.36 646.02,-517.03 649.84,-516.74 653.74,-516.49 657.72,-516.3 661.76,-516.15 665.84,-516.05 669.94,-516 674.06,-516 678.16,-516.05"/>
<text xml:space="preserve" text-anchor="middle" x="672" y="-529.8" font-family="sans-serif" font-size="14.00">OrderingApp</text>
</a>
</g>
</g>
<!-- #/domains/commerce/subdomains/shopping/boundedcontexts/basket/services/basket_service -->
<g id="node4" class="node">
<title>#/domains/commerce/subdomains/shopping/boundedcontexts/basket/services/basket_service</title>
<g id="a_node4"><a xlink:title="Basket CRUD, pricing snapshot">
<polygon fill="white" stroke="black" points="674.53,-292.05 678.86,-292.15 683.13,-292.3 687.35,-292.49 691.49,-292.74 695.53,-293.03 699.46,-293.36 703.27,-293.75 706.93,-294.18 710.43,-294.65 713.77,-295.16 716.93,-295.71 719.9,-296.31 722.67,-296.94 725.23,-297.61 727.58,-298.31 729.71,-299.04 731.61,-299.8 733.29,-300.59 734.73,-301.41 735.94,-302.25 736.92,-303.11 737.67,-303.99 738.2,-304.89 738.5,-305.8 738.58,-306.72 738.45,-307.65 738.11,-308.59 737.56,-309.53 736.83,-310.47 735.9,-311.41 734.81,-312.35 733.54,-313.28 732.11,-314.2 730.54,-315.11 728.82,-316.01 726.98,-316.89 725.01,-317.75 722.93,-318.59 720.75,-319.41 718.48,-320.2 716.12,-320.96 713.69,-321.69 711.18,-322.39 708.62,-323.06 706.01,-323.69 703.34,-324.29 700.64,-324.84 697.9,-325.35 695.13,-325.82 692.33,-326.25 689.51,-326.64 686.68,-326.97 683.83,-327.26 680.97,-327.51 678.09,-327.7 675.21,-327.85 672.33,-327.95 669.44,-328 666.56,-328 663.67,-327.95 660.79,-327.85 657.91,-327.7 655.03,-327.51 652.17,-327.26 649.32,-326.97 646.49,-326.64 643.67,-326.25 640.87,-325.82 638.1,-325.35 635.36,-324.84 632.66,-324.29 629.99,-323.69 627.38,-323.06 624.82,-322.39 622.31,-321.69 619.88,-320.96 617.52,-320.2 615.25,-319.41 613.07,-318.59 610.99,-317.75 609.02,-316.89 607.18,-316.01 605.46,-315.11 603.89,-314.2 602.46,-313.28 601.19,-312.35 600.1,-311.41 599.17,-310.47 598.44,-309.53 597.89,-308.59 597.55,-307.65 597.42,-306.72 597.5,-305.8 597.8,-304.89 598.33,-303.99 599.08,-303.11 600.06,-302.25 601.27,-301.41 602.71,-300.59 604.39,-299.8 606.29,-299.04 608.42,-298.31 610.77,-297.61 613.33,-296.94 616.1,-296.31 619.07,-295.71 622.23,-295.16 625.57,-294.65 629.07,-294.18 632.73,-293.75 636.54,-293.36 640.47,-293.03 644.51,-292.74 648.65,-292.49 652.87,-292.3 657.14,-292.15 661.47,-292.05 665.82,-292 670.18,-292 674.53,-292.05"/>
<text xml:space="preserve" text-anchor="middle" x="668" y="-305.8" font-family="sans-serif" font-size="14.00">BasketService</text>
</a>
</g>
</g>
<!-- #/domains/commerce/subdomains/sales/boundedcontexts/ordering/services/ordering_app&#45;&gt;#/domains/commerce/subdomains/shopping/boundedcontexts/basket/services/basket_service -->
<g id="edge4" class="edge">
<title>#/domains/commerce/subdomains/sales/boundedcontexts/ordering/services/ordering_app&#45;&gt;#/domains/commerce/subdomains/shopping/boundedcontexts/basket/services/basket_service</title>
<path fill="none" stroke="black" d="M660.29,-515.97C652.36,-503.36 642.58,-485.41 638.34,-468 627.41,-423.11 643.26,-370.18 655.66,-338.67"/>
<polygon fill="black" stroke="black" points="658.88,-340.06 659.45,-329.48 652.4,-337.4 658.88,-340.06"/>
<text xml:space="preserve" text-anchor="middle" x="659.17" y="-459" font-family="sans-serif" font-size="10.00">GetBasket</text>
<g id="a_edge4&#45;headlabel"><a xlink:title="open&#45;host&#45;service">
<text xml:space="preserve" text-anchor="middle" x="660.02" y="-325.08" font-family="sans-serif" font-size="10.00">OHS</text>
</a>
</g>
<g id="a_edge4&#45;taillabel"><a xlink:title="anti&#45;corruption&#45;layer">
<text xml:space="preserve" text-anchor="middle" x="660.29" y="-512.97" font-family="sans-serif" font-size="10.00">ACL</text>
</a>
</g>
</g>
<!-- #/domains/customer_experience/subdomains/promotions/boundedcontexts/marketing/services/marketing_service -->
<g id="node7" class="node">
<title>#/domains/customer_experience/subdomains/promotions/boundedcontexts/marketing/services/marketing_service</title>
<g id="a_node7"><a xlink:title="Apply campaigns/discounts">
<polygon fill="white" stroke="black" points="996.91,-292.05 1002.14,-292.15 1007.32,-292.3 1012.42,-292.49 1017.43,-292.74 1022.32,-293.03 1027.08,-293.36 1031.69,-293.75 1036.12,-294.18 1040.36,-294.65 1044.4,-295.16 1048.23,-295.71 1051.82,-296.31 1055.17,-296.94 1058.27,-297.61 1061.12,-298.31 1063.69,-299.04 1065.99,-299.8 1068.02,-300.59 1069.77,-301.41 1071.24,-302.25 1072.42,-303.11 1073.33,-303.99 1073.97,-304.89 1074.33,-305.8 1074.43,-306.72 1074.27,-307.65 1073.85,-308.59 1073.2,-309.53 1072.31,-310.47 1071.19,-311.41 1069.86,-312.35 1068.33,-313.28 1066.6,-314.2 1064.69,-315.11 1062.62,-316.01 1060.38,-316.89 1058,-317.75 1055.49,-318.59 1052.85,-319.41 1050.1,-320.2 1047.24,-320.96 1044.3,-321.69 1041.27,-322.39 1038.17,-323.06 1035,-323.69 1031.78,-324.29 1028.5,-324.84 1025.19,-325.35 1021.84,-325.82 1018.45,-326.25 1015.04,-326.64 1011.61,-326.97 1008.16,-327.26 1004.69,-327.51 1001.22,-327.7 997.73,-327.85 994.24,-327.95 990.75,-328 987.25,-328 983.76,-327.95 980.27,-327.85 976.78,-327.7 973.31,-327.51 969.84,-327.26 966.39,-326.97 962.96,-326.64 959.55,-326.25 956.16,-325.82 952.81,-325.35 949.5,-324.84 946.22,-324.29 943,-323.69 939.83,-323.06 936.73,-322.39 933.7,-321.69 930.76,-320.96 927.9,-320.2 925.15,-319.41 922.51,-318.59 920,-317.75 917.62,-316.89 915.38,-316.01 913.31,-315.11 911.4,-314.2 909.67,-313.28 908.14,-312.35 906.81,-311.41 905.69,-310.47 904.8,-309.53 904.15,-308.59 903.73,-307.65 903.57,-306.72 903.67,-305.8 904.03,-304.89 904.67,-303.99 905.58,-303.11 906.76,-302.25 908.23,-301.41 909.98,-300.59 912.01,-299.8 914.31,-299.04 916.88,-298.31 919.73,-297.61 922.83,-296.94 926.18,-296.31 929.77,-295.71 933.6,-295.16 937.64,-294.65 941.88,-294.18 946.31,-293.75 950.92,-293.36 955.68,-293.03 960.57,-292.74 965.58,-292.49 970.68,-292.3 975.86,-292.15 981.09,-292.05 986.36,-292 991.64,-292 996.91,-292.05"/>
<text xml:space="preserve" text-anchor="middle" x="989" y="-305.8" font-family="sans-serif" font-size="14.00">MarketingService</text>
</a>
</g>
</g>
<!-- #/domains/commerce/subdomains/sales/boundedcontexts/ordering/services/ordering_app&#45;&gt;#/domains/customer_experience/subdomains/promotions/boundedcontexts/marketing/services/marketing_service -->
<g id="edge8" class="edge">
<title>#/domains/commerce/subdomains/sales/boundedcontexts/ordering/services/ordering_app&#45;&gt;#/domains/customer_experience/subdomains/promotions/boundedcontexts/marketing/services/marketing_service</title>
<path fill="none" stroke="black" d="M695.57,-516.5C751.52,-477.31 892.48,-378.6 956.48,-333.77"/>
<polygon fill="black" stroke="black" points="958.28,-336.78 964.47,-328.18 954.27,-331.05 958.28,-336.78"/>
<text xml:space="preserve" text-anchor="middle" x="809.53" y="-459" font-family="sans-serif" font-size="10.00">ApplyCampaigns</text>
<g id="a_edge8&#45;headlabel"><a xlink:title="open&#45;host&#45;service">
<text xml:space="preserve" text-anchor="middle" x="965.71" y="-324.31" font-family="sans-serif" font-size="10.00">OHS</text>
</a>
</g>
<g id="a_edge8&#45;taillabel"><a xlink:title="anti&#45;corruption&#45;layer">
<text xml:space="preserve" text-anchor="middle" x="695.57" y="-513.5" font-family="sans-serif" font-size="10.00">ACL</text>
</a>
</g>
</g>
<!-- #/domains/customer_experience/subdomains/geodata/boundedcontexts/locations/services/locations_service -->
<g id="node8" class="node">
<title>#/domains/customer_experience/subdomains/geodata/boundedcontexts/locations/services/locations_service</title>
<g id="a_node8"><a xlink:title="Resolve/validate location data">
<polygon fill="white" stroke="black" points="1264.69,-292.05 1269.79,-292.15 1274.83,-292.3 1279.8,-292.49 1284.67,-292.74 1289.43,-293.03 1294.06,-293.36 1298.54,-293.75 1302.86,-294.18 1306.99,-294.65 1310.92,-295.16 1314.64,-295.71 1318.14,-296.31 1321.4,-296.94 1324.42,-297.61 1327.19,-298.31 1329.69,-299.04 1331.94,-299.8 1333.91,-300.59 1335.61,-301.41 1337.04,-302.25 1338.19,-303.11 1339.08,-303.99 1339.7,-304.89 1340.05,-305.8 1340.14,-306.72 1339.99,-307.65 1339.58,-308.59 1338.95,-309.53 1338.08,-310.47 1336.99,-311.41 1335.7,-312.35 1334.2,-313.28 1332.52,-314.2 1330.67,-315.11 1328.65,-316.01 1326.47,-316.89 1324.16,-317.75 1321.71,-318.59 1319.14,-319.41 1316.46,-320.2 1313.69,-320.96 1310.82,-321.69 1307.87,-322.39 1304.85,-323.06 1301.77,-323.69 1298.63,-324.29 1295.45,-324.84 1292.22,-325.35 1288.96,-325.82 1285.66,-326.25 1282.34,-326.64 1279,-326.97 1275.65,-327.26 1272.27,-327.51 1268.89,-327.7 1265.5,-327.85 1262.1,-327.95 1258.7,-328 1255.3,-328 1251.9,-327.95 1248.5,-327.85 1245.11,-327.7 1241.73,-327.51 1238.35,-327.26 1235,-326.97 1231.66,-326.64 1228.34,-326.25 1225.04,-325.82 1221.78,-325.35 1218.55,-324.84 1215.37,-324.29 1212.23,-323.69 1209.15,-323.06 1206.13,-322.39 1203.18,-321.69 1200.31,-320.96 1197.54,-320.2 1194.86,-319.41 1192.29,-318.59 1189.84,-317.75 1187.53,-316.89 1185.35,-316.01 1183.33,-315.11 1181.48,-314.2 1179.8,-313.28 1178.3,-312.35 1177.01,-311.41 1175.92,-310.47 1175.05,-309.53 1174.42,-308.59 1174.01,-307.65 1173.86,-306.72 1173.95,-305.8 1174.3,-304.89 1174.92,-303.99 1175.81,-303.11 1176.96,-302.25 1178.39,-301.41 1180.09,-300.59 1182.06,-299.8 1184.31,-299.04 1186.81,-298.31 1189.58,-297.61 1192.6,-296.94 1195.86,-296.31 1199.36,-295.71 1203.08,-295.16 1207.01,-294.65 1211.14,-294.18 1215.46,-293.75 1219.94,-293.36 1224.57,-293.03 1229.33,-292.74 1234.2,-292.49 1239.17,-292.3 1244.21,-292.15 1249.31,-292.05 1254.43,-292 1259.57,-292 1264.69,-292.05"/>
<text xml:space="preserve" text-anchor="middle" x="1257" y="-305.8" font-family="sans-serif" font-size="14.00">LocationsService</text>
</a>
</g>
</g>
<!-- #/domains/commerce/subdomains/sales/boundedcontexts/ordering/services/ordering_app&#45;&gt;#/domains/customer_experience/subdomains/geodata/boundedcontexts/locations/services/locations_service -->
<g id="edge9" class="edge">
<title>#/domains/commerce/subdomains/sales/boundedcontexts/ordering/services/ordering_app&#45;&gt;#/domains/customer_experience/subdomains/geodata/boundedcontexts/locations/services/locations_service</title>
<path fill="none" stroke="black" d="M738.36,-532.16C859.54,-529.4 1110.58,-517.67 1180,-468 1222.92,-437.29 1243.06,-375.89 1251.56,-339.64"/>
<polygon fill="black" stroke="black" points="1254.98,-340.39 1253.69,-329.87 1248.14,-338.9 1254.98,-340.39"/>
<text xml:space="preserve" text-anchor="middle" x="1224.73" y="-459" font-family="sans-serif" font-size="10.00">ResolveLocation</text>
<g id="a_edge9&#45;headlabel"><a xlink:title="open&#45;host&#45;service">
<text xml:space="preserve" text-anchor="middle" x="1254.02" y="-325.39" font-family="sans-serif" font-size="10.00">OHS</text>
</a>
</g>
<g id="a_edge9&#45;taillabel"><a xlink:title="anti&#45;corruption&#45;layer">
<text xml:space="preserve" text-anchor="middle" x="738.36" y="-529.16" font-family="sans-serif" font-size="10.00">ACL</text>
</a>
</g>
</g>
<!-- #/domains/identity&amp;access/subdomains/auth/boundedcontexts/identity/services/identity_service -->
<g id="node9" class="node">
<title>#/domains/identity&amp;access/subdomains/auth/boundedcontexts/identity/services/identity_service</title>
<g id="a_node9"><a xlink:title="Token issuance, user claims">
<polygon fill="white" stroke="black" points="1835.9,-292.05 1840.47,-292.15 1844.99,-292.3 1849.45,-292.49 1853.82,-292.74 1858.09,-293.03 1862.24,-293.36 1866.26,-293.75 1870.13,-294.18 1873.84,-294.65 1877.37,-295.16 1880.7,-295.71 1883.84,-296.31 1886.77,-296.94 1889.48,-297.61 1891.96,-298.31 1894.2,-299.04 1896.21,-299.8 1897.98,-300.59 1899.51,-301.41 1900.79,-302.25 1901.83,-303.11 1902.62,-303.99 1903.17,-304.89 1903.49,-305.8 1903.58,-306.72 1903.44,-307.65 1903.08,-308.59 1902.5,-309.53 1901.72,-310.47 1900.75,-311.41 1899.59,-312.35 1898.25,-313.28 1896.74,-314.2 1895.08,-315.11 1893.27,-316.01 1891.32,-316.89 1889.24,-317.75 1887.04,-318.59 1884.74,-319.41 1882.34,-320.2 1879.84,-320.96 1877.27,-321.69 1874.63,-322.39 1871.92,-323.06 1869.16,-323.69 1866.34,-324.29 1863.49,-324.84 1860.59,-325.35 1857.66,-325.82 1854.71,-326.25 1851.73,-326.64 1848.74,-326.97 1845.72,-327.26 1842.7,-327.51 1839.66,-327.7 1836.62,-327.85 1833.58,-327.95 1830.53,-328 1827.47,-328 1824.42,-327.95 1821.38,-327.85 1818.34,-327.7 1815.3,-327.51 1812.28,-327.26 1809.26,-326.97 1806.27,-326.64 1803.29,-326.25 1800.34,-325.82 1797.41,-325.35 1794.51,-324.84 1791.66,-324.29 1788.84,-323.69 1786.08,-323.06 1783.37,-322.39 1780.73,-321.69 1778.16,-320.96 1775.66,-320.2 1773.26,-319.41 1770.96,-318.59 1768.76,-317.75 1766.68,-316.89 1764.73,-316.01 1762.92,-315.11 1761.26,-314.2 1759.75,-313.28 1758.41,-312.35 1757.25,-311.41 1756.28,-310.47 1755.5,-309.53 1754.92,-308.59 1754.56,-307.65 1754.42,-306.72 1754.51,-305.8 1754.83,-304.89 1755.38,-303.99 1756.17,-303.11 1757.21,-302.25 1758.49,-301.41 1760.02,-300.59 1761.79,-299.8 1763.8,-299.04 1766.04,-298.31 1768.52,-297.61 1771.23,-296.94 1774.16,-296.31 1777.3,-295.71 1780.63,-295.16 1784.16,-294.65 1787.87,-294.18 1791.74,-293.75 1795.76,-293.36 1799.91,-293.03 1804.18,-292.74 1808.55,-292.49 1813.01,-292.3 1817.53,-292.15 1822.1,-292.05 1826.7,-292 1831.3,-292 1835.9,-292.05"/>
<text xml:space="preserve" text-anchor="middle" x="1829" y="-305.8" font-family="sans-serif" font-size="14.00">IdentityService</text>
</a>
</g>
</g>
<!-- #/domains/commerce/subdomains/sales/boundedcontexts/ordering/services/ordering_app&#45;&gt;#/domains/identity&amp;access/subdomains/auth/boundedcontexts/identity/services/identity_service -->
<g id="edge7" class="edge">
<title>#/domains/commerce/subdomains/sales/boundedcontexts/ordering/services/ordering_app&#45;&gt;#/domains/identity&amp;access/subdomains/auth/boundedcontexts/identity/services/identity_service</title>
<path fill="none" stroke="black" d="M738.73,-531.97C930.68,-528.27 1481.23,-512.18 1648,-448 1712.49,-423.18 1773.54,-368.1 1805.62,-335.84"/>
<polygon fill="black" stroke="black" points="1807.96,-338.46 1812.45,-328.86 1802.95,-333.56 1807.96,-338.46"/>
<text xml:space="preserve" text-anchor="middle" x="1644.02" y="-459" font-family="sans-serif" font-size="10.00">IssueToken</text>
<g id="a_edge7&#45;headlabel"><a xlink:title="open&#45;host&#45;service">
<text xml:space="preserve" text-anchor="middle" x="1813.51" y="-324.78" font-family="sans-serif" font-size="10.00">OHS</text>
</a>
</g>
<g id="a_edge7&#45;taillabel"><a xlink:title="anti&#45;corruption&#45;layer">
<text xml:space="preserve" text-anchor="middle" x="738.73" y="-528.97" font-family="sans-serif" font-size="10.00">ACL</text>
</a>
</g>
</g>
<!-- #/domains/commerce/subdomains/payments/boundedcontexts/payment/services/payment_service&#45;&gt;#/domains/commerce/subdomains/sales/boundedcontexts/ordering/services/ordering_app -->
<g id="edge3" class="edge">
<title>#/domains/commerce/subdomains/payments/boundedcontexts/payment/services/payment_service&#45;&gt;#/domains/commerce/subdomains/sales/boundedcontexts/ordering/services/ordering_app</title>
<path fill="none" stroke="black" d="M334.76,-326.75C398.21,-365.56 562.2,-465.85 635.58,-510.72"/>
<polygon fill="black" stroke="black" points="633.66,-513.65 644.02,-515.89 637.31,-507.68 633.66,-513.65"/>
<text xml:space="preserve" text-anchor="middle" x="590.56" y="-459" font-family="sans-serif" font-size="10.00">OrderStarted</text>
<g id="a_edge3&#45;headlabel"><a xlink:title="published&#45;language">
<text xml:space="preserve" text-anchor="middle" x="645.31" y="-513.68" font-family="sans-serif" font-size="10.00">PL</text>
</a>
</g>
<g id="a_edge3&#45;taillabel"><a xlink:title="conformist">
<text xml:space="preserve" text-anchor="middle" x="334.76" y="-323.75" font-family="sans-serif" font-size="10.00">C</text>
</a>
</g>
</g>
<!-- #/domains/commerce/subdomains/shopping/boundedcontexts/basket/services/basket_service&#45;&gt;#/domains/commerce/subdomains/sales/boundedcontexts/ordering/services/ordering_app -->
<g id="edge6" class="edge">
<title>#/domains/commerce/subdomains/shopping/boundedcontexts/basket/services/basket_service&#45;&gt;#/domains/commerce/subdomains/sales/boundedcontexts/ordering/services/ordering_app</title>
<path fill="none" stroke="black" d="M673.44,-327.95C682,-356.74 696.93,-417 690,-468 688.34,-480.23 684.99,-493.4 681.63,-504.68"/>
<polygon fill="black" stroke="black" points="678.31,-503.58 678.65,-514.17 684.99,-505.68 678.31,-503.58"/>
<text xml:space="preserve" text-anchor="middle" x="716.77" y="-459" font-family="sans-serif" font-size="10.00">OrderStarted</text>
<g id="a_edge6&#45;headlabel"><a xlink:title="published&#45;language">
<text xml:space="preserve" text-anchor="middle" x="678.2" y="-512.61" font-family="sans-serif" font-size="10.00">PL</text>
</a>
</g>
<g id="a_edge6&#45;taillabel"><a xlink:title="conformist">
<text xml:space="preserve" text-anchor="middle" x="673.44" y="-324.95" font-family="sans-serif" font-size="10.00">C</text>
</a>
</g>
</g>
<!-- #/domains/commerce/subdomains/cataloging/boundedcontexts/catalog/services/catalog_service -->
<g id="node5" class="node">
<title>#/domains/commerce/subdomains/cataloging/boundedcontexts/catalog/services/catalog_service</title>
<g id="a_node5"><a xlink:title="Queries, pricing updates, stock">
<polygon fill="white" stroke="black" points="674.9,-88.05 679.47,-88.15 683.99,-88.3 688.45,-88.49 692.82,-88.74 697.09,-89.03 701.24,-89.36 705.26,-89.75 709.13,-90.18 712.84,-90.65 716.37,-91.16 719.7,-91.71 722.84,-92.31 725.77,-92.94 728.48,-93.61 730.96,-94.31 733.2,-95.04 735.21,-95.8 736.98,-96.59 738.51,-97.41 739.79,-98.25 740.83,-99.11 741.62,-99.99 742.17,-100.89 742.49,-101.8 742.58,-102.72 742.44,-103.65 742.08,-104.59 741.5,-105.53 740.72,-106.47 739.75,-107.41 738.59,-108.35 737.25,-109.28 735.74,-110.2 734.08,-111.11 732.27,-112.01 730.32,-112.89 728.24,-113.75 726.04,-114.59 723.74,-115.41 721.34,-116.2 718.84,-116.96 716.27,-117.69 713.63,-118.39 710.92,-119.06 708.16,-119.69 705.34,-120.29 702.49,-120.84 699.59,-121.35 696.66,-121.82 693.71,-122.25 690.73,-122.64 687.74,-122.97 684.72,-123.26 681.7,-123.51 678.66,-123.7 675.62,-123.85 672.58,-123.95 669.53,-124 666.47,-124 663.42,-123.95 660.38,-123.85 657.34,-123.7 654.3,-123.51 651.28,-123.26 648.26,-122.97 645.27,-122.64 642.29,-122.25 639.34,-121.82 636.41,-121.35 633.51,-120.84 630.66,-120.29 627.84,-119.69 625.08,-119.06 622.37,-118.39 619.73,-117.69 617.16,-116.96 614.66,-116.2 612.26,-115.41 609.96,-114.59 607.76,-113.75 605.68,-112.89 603.73,-112.01 601.92,-111.11 600.26,-110.2 598.75,-109.28 597.41,-108.35 596.25,-107.41 595.28,-106.47 594.5,-105.53 593.92,-104.59 593.56,-103.65 593.42,-102.72 593.51,-101.8 593.83,-100.89 594.38,-99.99 595.17,-99.11 596.21,-98.25 597.49,-97.41 599.02,-96.59 600.79,-95.8 602.8,-95.04 605.04,-94.31 607.52,-93.61 610.23,-92.94 613.16,-92.31 616.3,-91.71 619.63,-91.16 623.16,-90.65 626.87,-90.18 630.74,-89.75 634.76,-89.36 638.91,-89.03 643.18,-88.74 647.55,-88.49 652.01,-88.3 656.53,-88.15 661.1,-88.05 665.7,-88 670.3,-88 674.9,-88.05"/>
<text xml:space="preserve" text-anchor="middle" x="668" y="-101.8" font-family="sans-serif" font-size="14.00">CatalogService</text>
</a>
</g>
</g>
<!-- #/domains/commerce/subdomains/shopping/boundedcontexts/basket/services/basket_service&#45;&gt;#/domains/commerce/subdomains/cataloging/boundedcontexts/catalog/services/catalog_service -->
<g id="edge5" class="edge">
<title>#/domains/commerce/subdomains/shopping/boundedcontexts/basket/services/basket_service&#45;&gt;#/domains/commerce/subdomains/cataloging/boundedcontexts/catalog/services/catalog_service</title>
<path fill="none" stroke="black" d="M668,-291.78C668,-257.06 668,-178.34 668,-135.71"/>
<polygon fill="black" stroke="black" points="671.5,-135.98 668,-125.98 664.5,-135.98 671.5,-135.98"/>
<text xml:space="preserve" text-anchor="middle" x="711.6" y="-215" font-family="sans-serif" font-size="10.00">ProductPriceChanged</text>
<g id="a_edge5&#45;headlabel"><a xlink:title="published&#45;language">
<text xml:space="preserve" text-anchor="middle" x="668" y="-121.47" font-family="sans-serif" font-size="10.00">PL</text>
</a>
</g>
<g id="a_edge5&#45;taillabel"><a xlink:title="conformist">
<text xml:space="preserve" text-anchor="middle" x="668" y="-288.78" font-family="sans-serif" font-size="10.00">C</text>
</a>
</g>
</g>
<!-- #/domains/customer_experience/subdomains/webhooks/boundedcontexts/webhooks/services/webhooks_service -->
<g id="node6" class="node">
<title>#/domains/customer_experience/subdomains/webhooks/boundedcontexts/webhooks/services/webhooks_service</title>
<g id="a_node6"><a xlink:title="Webhooks.API">
<polygon fill="white" stroke="black" points="1535.01,-292.05 1540.32,-292.15 1545.56,-292.3 1550.74,-292.49 1555.81,-292.74 1560.77,-293.03 1565.59,-293.36 1570.26,-293.75 1574.75,-294.18 1579.05,-294.65 1583.15,-295.16 1587.02,-295.71 1590.66,-296.31 1594.06,-296.94 1597.2,-297.61 1600.08,-298.31 1602.69,-299.04 1605.03,-299.8 1607.08,-300.59 1608.85,-301.41 1610.34,-302.25 1611.54,-303.11 1612.46,-303.99 1613.11,-304.89 1613.47,-305.8 1613.57,-306.72 1613.41,-307.65 1612.99,-308.59 1612.33,-309.53 1611.42,-310.47 1610.29,-311.41 1608.94,-312.35 1607.39,-313.28 1605.64,-314.2 1603.71,-315.11 1601.6,-316.01 1599.34,-316.89 1596.93,-317.75 1594.38,-318.59 1591.7,-319.41 1588.92,-320.2 1586.02,-320.96 1583.04,-321.69 1579.97,-322.39 1576.83,-323.06 1573.62,-323.69 1570.35,-324.29 1567.03,-324.84 1563.67,-325.35 1560.28,-325.82 1556.85,-326.25 1553.39,-326.64 1549.91,-326.97 1546.41,-327.26 1542.9,-327.51 1539.38,-327.7 1535.85,-327.85 1532.31,-327.95 1528.77,-328 1525.23,-328 1521.69,-327.95 1518.15,-327.85 1514.62,-327.7 1511.1,-327.51 1507.59,-327.26 1504.09,-326.97 1500.61,-326.64 1497.15,-326.25 1493.72,-325.82 1490.33,-325.35 1486.97,-324.84 1483.65,-324.29 1480.38,-323.69 1477.17,-323.06 1474.03,-322.39 1470.96,-321.69 1467.98,-320.96 1465.08,-320.2 1462.3,-319.41 1459.62,-318.59 1457.07,-317.75 1454.66,-316.89 1452.4,-316.01 1450.29,-315.11 1448.36,-314.2 1446.61,-313.28 1445.06,-312.35 1443.71,-311.41 1442.58,-310.47 1441.67,-309.53 1441.01,-308.59 1440.59,-307.65 1440.43,-306.72 1440.53,-305.8 1440.89,-304.89 1441.54,-303.99 1442.46,-303.11 1443.66,-302.25 1445.15,-301.41 1446.92,-300.59 1448.97,-299.8 1451.31,-299.04 1453.92,-298.31 1456.8,-297.61 1459.94,-296.94 1463.34,-296.31 1466.98,-295.71 1470.85,-295.16 1474.95,-294.65 1479.25,-294.18 1483.74,-293.75 1488.41,-293.36 1493.23,-293.03 1498.19,-292.74 1503.26,-292.49 1508.44,-292.3 1513.68,-292.15 1518.99,-292.05 1524.33,-292 1529.67,-292 1535.01,-292.05"/>
<text xml:space="preserve" text-anchor="middle" x="1527" y="-305.8" font-family="sans-serif" font-size="14.00">WebhooksService</text>
</a>
</g>
</g>
<!-- #/domains/customer_experience/subdomains/webhooks/boundedcontexts/webhooks/services/webhooks_service&#45;&gt;#/domains/commerce/subdomains/sales/boundedcontexts/ordering/services/ordering_workflow -->
<g id="edge1" class="edge">
<title>#/domains/customer_experience/subdomains/webhooks/boundedcontexts/webhooks/services/webhooks_service&#45;&gt;#/domains/commerce/subdomains/sales/boundedcontexts/ordering/services/ordering_workflow</title>
<path fill="none" stroke="black" d="M1514.65,-328.14C1491.3,-358.95 1437.27,-422.81 1374,-448 1358.96,-453.99 1098.86,-455.34 1082.68,-456 983.21,-460.03 958.47,-463.93 859,-468 827.57,-469.29 606.59,-468.65 576,-476 546.63,-483.06 515.91,-497.81 492.91,-510.54"/>
<polygon fill="black" stroke="black" points="491.2,-507.48 484.23,-515.46 494.65,-513.57 491.2,-507.48"/>
<text xml:space="preserve" text-anchor="middle" x="1124.34" y="-459" font-family="sans-serif" font-size="10.00">OrderStatusChanged</text>
<g id="a_edge1&#45;headlabel"><a xlink:title="published&#45;language">
<text xml:space="preserve" text-anchor="middle" x="482.91" y="-513.21" font-family="sans-serif" font-size="10.00">PL</text>
</a>
</g>
<g id="a_edge1&#45;taillabel"><a xlink:title="conformist">
<text xml:space="preserve" text-anchor="middle" x="1514.65" y="-325.14" font-family="sans-serif" font-size="10.00">C</text>
</a>
</g>
</g>
</g>
</svg>
