<?xml version="1.0" encoding="UTF-8" standalone="no"?>
<?xml-stylesheet href="data:text/css,.graph%20text%20%7B%0A%09font-family%3A%20sans-serif%3B%0A%09stroke%3A%20white%3B%0A%09paint-order%3A%20stroke%3B%0A%09stroke-width%3A%203%3B%0A%09stroke-linecap%3A%20square%3B%0A%7D%0A%0A.namespace%20polygon%20%7B%0A%09fill-opacity%3A%200.2%3B%0A%09stroke%3A%20none%3B%0A%7D%0A" type="text/css"?>
<!DOCTYPE svg PUBLIC "-//W3C//DTD SVG 1.1//EN"
 "http://www.w3.org/Graphics/SVG/1.1/DTD/svg11.dtd">
<!-- Generated by graphviz version 13.1.2 (0)
 -->
<!-- Pages: 1 -->
<svg width="1126pt" height="972pt"
 viewBox="0.00 0.00 1126.00 972.00" xmlns="http://www.w3.org/2000/svg" xmlns:xlink="http://www.w3.org/1999/xlink">
<g id="graph0" class="graph" transform="scale(1 1) rotate(0) translate(4 968)">
<polygon fill="white" stroke="none" points="-4,4 -4,-968 1122,-968 1122,4 -4,4"/>
<g id="clust1" class="cluster namespace">
<title>e_shop</title>
<polygon fill="lightgrey" stroke="lightgrey" points="8,-8 8,-956 1110,-956 1110,-8 8,-8"/>
<text xml:space="preserve" text-anchor="middle" x="559" y="-943" font-family="sans-serif" font-size="10.00">eShop</text>
</g>
<g id="clust2" class="cluster namespace">
<title>#/domains/identity_&amp;_access</title>
<polygon fill="lightgrey" stroke="lightgrey" points="820,-272 820,-488 1090,-488 1090,-272 820,-272"/>
<text xml:space="preserve" text-anchor="middle" x="955" y="-475" font-family="sans-serif" font-size="10.00">Identity &amp; Access</text>
</g>
<g id="clust3" class="cluster namespace">
<title>#/domains/identity_&amp;_access/subdomains/auth_n_and_auth_z</title>
<polygon fill="lightgrey" stroke="lightgrey" points="840,-292 840,-448 1070,-448 1070,-292 840,-292"/>
<text xml:space="preserve" text-anchor="middle" x="955" y="-435" font-family="sans-serif" font-size="10.00">AuthN and AuthZ</text>
</g>
<g id="clust4" class="cluster namespace">
<title>#/domains/identity_&amp;_access/subdomains/auth_n_and_auth_z/boundedcontexts/identity</title>
<polygon fill="lightgrey" stroke="lightgrey" points="860,-312 860,-408 1050,-408 1050,-312 860,-312"/>
<text xml:space="preserve" text-anchor="middle" x="955" y="-395" font-family="sans-serif" font-size="10.00">Identity</text>
</g>
<g id="clust5" class="cluster namespace">
<title>#/domains/edge_&amp;_experience</title>
<polygon fill="lightgrey" stroke="lightgrey" points="422,-516 422,-916 678,-916 678,-516 422,-516"/>
<text xml:space="preserve" text-anchor="middle" x="550" y="-903" font-family="sans-serif" font-size="10.00">Edge &amp; Experience</text>
</g>
<g id="clust6" class="cluster namespace">
<title>#/domains/edge_&amp;_experience/subdomains/web</title>
<polygon fill="lightgrey" stroke="lightgrey" points="442,-720 442,-876 658,-876 658,-720 442,-720"/>
<text xml:space="preserve" text-anchor="middle" x="550" y="-863" font-family="sans-serif" font-size="10.00">Web</text>
</g>
<g id="clust7" class="cluster namespace">
<title>#/domains/edge_&amp;_experience/subdomains/web/boundedcontexts/web_app</title>
<polygon fill="lightgrey" stroke="lightgrey" points="462,-740 462,-836 638,-836 638,-740 462,-740"/>
<text xml:space="preserve" text-anchor="middle" x="550" y="-823" font-family="sans-serif" font-size="10.00">WebApp</text>
</g>
<g id="clust8" class="cluster namespace">
<title>#/domains/edge_&amp;_experience/subdomains/mobile</title>
<polygon fill="lightgrey" stroke="lightgrey" points="443,-536 443,-692 653,-692 653,-536 443,-536"/>
<text xml:space="preserve" text-anchor="middle" x="548" y="-679" font-family="sans-serif" font-size="10.00">Mobile</text>
</g>
<g id="clust9" class="cluster namespace">
<title>#/domains/edge_&amp;_experience/subdomains/mobile/boundedcontexts/experience_bff</title>
<polygon fill="lightgrey" stroke="lightgrey" points="463,-556 463,-652 633,-652 633,-556 463,-556"/>
<text xml:space="preserve" text-anchor="middle" x="548" y="-639" font-family="sans-serif" font-size="10.00">Experience BFF</text>
</g>
<g id="clust10" class="cluster namespace">
<title>#/domains/commerce</title>
<polygon fill="lightgrey" stroke="lightgrey" points="28,-272 28,-488 800,-488 800,-272 28,-272"/>
<text xml:space="preserve" text-anchor="middle" x="414" y="-475" font-family="sans-serif" font-size="10.00">Commerce</text>
</g>
<g id="clust11" class="cluster namespace">
<title>#/domains/commerce/subdomains/catalog</title>
<polygon fill="lightgrey" stroke="lightgrey" points="48,-292 48,-448 278,-448 278,-292 48,-292"/>
<text xml:space="preserve" text-anchor="middle" x="163" y="-435" font-family="sans-serif" font-size="10.00">Catalog</text>
</g>
<g id="clust12" class="cluster namespace">
<title>#/domains/commerce/subdomains/catalog/boundedcontexts/catalog</title>
<polygon fill="lightgrey" stroke="lightgrey" points="68,-312 68,-408 258,-408 258,-312 68,-312"/>
<text xml:space="preserve" text-anchor="middle" x="163" y="-395" font-family="sans-serif" font-size="10.00">Catalog</text>
</g>
<g id="clust13" class="cluster namespace">
<title>#/domains/commerce/subdomains/basket</title>
<polygon fill="lightgrey" stroke="lightgrey" points="298,-292 298,-448 520,-448 520,-292 298,-292"/>
<text xml:space="preserve" text-anchor="middle" x="409" y="-435" font-family="sans-serif" font-size="10.00">Basket</text>
</g>
<g id="clust14" class="cluster namespace">
<title>#/domains/commerce/subdomains/basket/boundedcontexts/basket</title>
<polygon fill="lightgrey" stroke="lightgrey" points="318,-312 318,-408 500,-408 500,-312 318,-312"/>
<text xml:space="preserve" text-anchor="middle" x="409" y="-395" font-family="sans-serif" font-size="10.00">Basket</text>
</g>
<g id="clust15" class="cluster namespace">
<title>#/domains/commerce/subdomains/ordering</title>
<polygon fill="lightgrey" stroke="lightgrey" points="540,-292 540,-448 780,-448 780,-292 540,-292"/>
<text xml:space="preserve" text-anchor="middle" x="660" y="-435" font-family="sans-serif" font-size="10.00">Ordering</text>
</g>
<g id="clust16" class="cluster namespace">
<title>#/domains/commerce/subdomains/ordering/boundedcontexts/ordering</title>
<polygon fill="lightgrey" stroke="lightgrey" points="560,-312 560,-408 760,-408 760,-312 560,-312"/>
<text xml:space="preserve" text-anchor="middle" x="660" y="-395" font-family="sans-serif" font-size="10.00">Ordering</text>
</g>
<g id="clust17" class="cluster namespace">
<title>#/domains/payment_processing</title>
<polygon fill="lightgrey" stroke="lightgrey" points="520,-28 520,-244 798,-244 798,-28 520,-28"/>
<text xml:space="preserve" text-anchor="middle" x="659" y="-231" font-family="sans-serif" font-size="10.00">Payment Processing</text>
</g>
<g id="clust18" class="cluster namespace">
<title>#/domains/payment_processing/subdomains/payment_processors</title>
<polygon fill="lightgrey" stroke="lightgrey" points="540,-48 540,-204 778,-204 778,-48 540,-48"/>
<text xml:space="preserve" text-anchor="middle" x="659" y="-191" font-family="sans-serif" font-size="10.00">Payment Processors</text>
</g>
<g id="clust19" class="cluster namespace">
<title>#/domains/payment_processing/subdomains/payment_processors/boundedcontexts/payment_processor</title>
<polygon fill="lightgrey" stroke="lightgrey" points="560,-68 560,-164 758,-164 758,-68 560,-68"/>
<text xml:space="preserve" text-anchor="middle" x="659" y="-151" font-family="sans-serif" font-size="10.00">PaymentProcessor</text>
</g>
<!-- #/domains/identity_&amp;_access/subdomains/auth_n_and_auth_z/boundedcontexts/identity/services/identity_service -->
<g id="node1" class="node">
<title>#/domains/identity_&amp;_access/subdomains/auth_n_and_auth_z/boundedcontexts/identity/services/identity_service</title>
<g id="a_node1"><a xlink:title="Token service for authN/authZ.">
<polygon fill="white" stroke="black" points="961.9,-332.05 966.47,-332.15 970.99,-332.3 975.45,-332.49 979.82,-332.74 984.09,-333.03 988.24,-333.36 992.26,-333.75 996.13,-334.18 999.84,-334.65 1003.37,-335.16 1006.7,-335.71 1009.84,-336.31 1012.77,-336.94 1015.48,-337.61 1017.96,-338.31 1020.2,-339.04 1022.21,-339.8 1023.98,-340.59 1025.51,-341.41 1026.79,-342.25 1027.83,-343.11 1028.62,-343.99 1029.17,-344.89 1029.49,-345.8 1029.58,-346.72 1029.44,-347.65 1029.08,-348.59 1028.5,-349.53 1027.72,-350.47 1026.75,-351.41 1025.59,-352.35 1024.25,-353.28 1022.74,-354.2 1021.08,-355.11 1019.27,-356.01 1017.32,-356.89 1015.24,-357.75 1013.04,-358.59 1010.74,-359.41 1008.34,-360.2 1005.84,-360.96 1003.27,-361.69 1000.63,-362.39 997.92,-363.06 995.16,-363.69 992.34,-364.29 989.49,-364.84 986.59,-365.35 983.66,-365.82 980.71,-366.25 977.73,-366.64 974.74,-366.97 971.72,-367.26 968.7,-367.51 965.66,-367.7 962.62,-367.85 959.58,-367.95 956.53,-368 953.47,-368 950.42,-367.95 947.38,-367.85 944.34,-367.7 941.3,-367.51 938.28,-367.26 935.26,-366.97 932.27,-366.64 929.29,-366.25 926.34,-365.82 923.41,-365.35 920.51,-364.84 917.66,-364.29 914.84,-363.69 912.08,-363.06 909.37,-362.39 906.73,-361.69 904.16,-360.96 901.66,-360.2 899.26,-359.41 896.96,-358.59 894.76,-357.75 892.68,-356.89 890.73,-356.01 888.92,-355.11 887.26,-354.2 885.75,-353.28 884.41,-352.35 883.25,-351.41 882.28,-350.47 881.5,-349.53 880.92,-348.59 880.56,-347.65 880.42,-346.72 880.51,-345.8 880.83,-344.89 881.38,-343.99 882.17,-343.11 883.21,-342.25 884.49,-341.41 886.02,-340.59 887.79,-339.8 889.8,-339.04 892.04,-338.31 894.52,-337.61 897.23,-336.94 900.16,-336.31 903.3,-335.71 906.63,-335.16 910.16,-334.65 913.87,-334.18 917.74,-333.75 921.76,-333.36 925.91,-333.03 930.18,-332.74 934.55,-332.49 939.01,-332.3 943.53,-332.15 948.1,-332.05 952.7,-332 957.3,-332 961.9,-332.05"/>
<text xml:space="preserve" text-anchor="middle" x="955" y="-345.8" font-family="sans-serif" font-size="14.00">IdentityService</text>
</a>
</g>
</g>
<!-- #/domains/edge_&amp;_experience/subdomains/web/boundedcontexts/web_app/services/web_frontend -->
<g id="node2" class="node">
<title>#/domains/edge_&amp;_experience/subdomains/web/boundedcontexts/web_app/services/web_frontend</title>
<g id="a_node2"><a xlink:title="Blazor Server web app for customers.">
<polygon fill="white" stroke="black" points="556.32,-760.05 560.5,-760.15 564.65,-760.3 568.73,-760.49 572.73,-760.74 576.64,-761.03 580.45,-761.36 584.13,-761.75 587.67,-762.18 591.06,-762.65 594.29,-763.16 597.35,-763.71 600.23,-764.31 602.91,-764.94 605.39,-765.61 607.66,-766.31 609.72,-767.04 611.56,-767.8 613.18,-768.59 614.57,-769.41 615.75,-770.25 616.7,-771.11 617.42,-771.99 617.93,-772.89 618.22,-773.8 618.3,-774.72 618.17,-775.65 617.84,-776.59 617.32,-777.53 616.6,-778.47 615.71,-779.41 614.65,-780.35 613.42,-781.28 612.04,-782.2 610.52,-783.11 608.86,-784.01 607.07,-784.89 605.17,-785.75 603.16,-786.59 601.05,-787.41 598.85,-788.2 596.57,-788.96 594.21,-789.69 591.79,-790.39 589.31,-791.06 586.78,-791.69 584.2,-792.29 581.58,-792.84 578.93,-793.35 576.25,-793.82 573.55,-794.25 570.82,-794.64 568.08,-794.97 565.32,-795.26 562.55,-795.51 559.77,-795.7 556.98,-795.85 554.19,-795.95 551.4,-796 548.6,-796 545.81,-795.95 543.02,-795.85 540.23,-795.7 537.45,-795.51 534.68,-795.26 531.92,-794.97 529.18,-794.64 526.45,-794.25 523.75,-793.82 521.07,-793.35 518.42,-792.84 515.8,-792.29 513.22,-791.69 510.69,-791.06 508.21,-790.39 505.79,-789.69 503.43,-788.96 501.15,-788.2 498.95,-787.41 496.84,-786.59 494.83,-785.75 492.93,-784.89 491.14,-784.01 489.48,-783.11 487.96,-782.2 486.58,-781.28 485.35,-780.35 484.29,-779.41 483.4,-778.47 482.68,-777.53 482.16,-776.59 481.83,-775.65 481.7,-774.72 481.78,-773.8 482.07,-772.89 482.58,-771.99 483.3,-771.11 484.25,-770.25 485.43,-769.41 486.82,-768.59 488.44,-767.8 490.28,-767.04 492.34,-766.31 494.61,-765.61 497.09,-764.94 499.77,-764.31 502.65,-763.71 505.71,-763.16 508.94,-762.65 512.33,-762.18 515.87,-761.75 519.55,-761.36 523.36,-761.03 527.27,-760.74 531.27,-760.49 535.35,-760.3 539.5,-760.15 543.68,-760.05 547.89,-760 552.11,-760 556.32,-760.05"/>
<text xml:space="preserve" text-anchor="middle" x="550" y="-773.8" font-family="sans-serif" font-size="14.00">WebFrontend</text>
</a>
</g>
</g>
<!-- #/domains/edge_&amp;_experience/subdomains/web/boundedcontexts/web_app/services/web_frontend&#45;&gt;#/domains/identity_&amp;_access/subdomains/auth_n_and_auth_z/boundedcontexts/identity/services/identity_service -->
<g id="edge1" class="edge">
<title>#/domains/edge_&amp;_experience/subdomains/web/boundedcontexts/web_app/services/web_frontend&#45;&gt;#/domains/identity_&amp;_access/subdomains/auth_n_and_auth_z/boundedcontexts/identity/services/identity_service</title>
<path fill="none" stroke="black" d="M570.24,-760.34C590.25,-743.61 621.5,-716.84 647,-692 761.73,-580.25 885.93,-434.06 934.19,-376.17"/>
<polygon fill="black" stroke="black" points="936.6,-378.75 940.3,-368.82 931.22,-374.27 936.6,-378.75"/>
<text xml:space="preserve" text-anchor="middle" x="832.9" y="-591" font-family="sans-serif" font-size="10.00">IssueToken</text>
<g id="a_edge1&#45;headlabel"><a xlink:title="open&#45;host&#45;service">
<text xml:space="preserve" text-anchor="middle" x="941.27" y="-364.66" font-family="sans-serif" font-size="10.00">OHS</text>
</a>
</g>
<g id="a_edge1&#45;taillabel"><a xlink:title="customer&#45;supplier">
<text xml:space="preserve" text-anchor="middle" x="570.24" y="-757.34" font-family="sans-serif" font-size="10.00">C/s</text>
</a>
</g>
</g>
<!-- #/domains/edge_&amp;_experience/subdomains/mobile/boundedcontexts/experience_bff/services/shopping_bff -->
<g id="node3" class="node">
<title>#/domains/edge_&amp;_experience/subdomains/mobile/boundedcontexts/experience_bff/services/shopping_bff</title>
<g id="a_node3"><a xlink:title="Aggregation endpoints for shopping journeys.">
<polygon fill="white" stroke="black" points="554,-576.05 557.98,-576.15 561.91,-576.3 565.79,-576.49 569.6,-576.74 573.31,-577.03 576.93,-577.36 580.42,-577.75 583.79,-578.18 587.01,-578.65 590.08,-579.16 592.99,-579.71 595.72,-580.31 598.26,-580.94 600.62,-581.61 602.78,-582.31 604.73,-583.04 606.48,-583.8 608.02,-584.59 609.35,-585.41 610.47,-586.25 611.37,-587.11 612.06,-587.99 612.54,-588.89 612.82,-589.8 612.89,-590.72 612.77,-591.65 612.45,-592.59 611.96,-593.53 611.28,-594.47 610.43,-595.41 609.42,-596.35 608.26,-597.28 606.94,-598.2 605.5,-599.11 603.92,-600.01 602.22,-600.89 600.41,-601.75 598.5,-602.59 596.5,-603.41 594.41,-604.2 592.24,-604.96 590,-605.69 587.7,-606.39 585.35,-607.06 582.94,-607.69 580.49,-608.29 578.01,-608.84 575.49,-609.35 572.94,-609.82 570.37,-610.25 567.78,-610.64 565.17,-610.97 562.55,-611.26 559.92,-611.51 557.28,-611.7 554.63,-611.85 551.98,-611.95 549.33,-612 546.67,-612 544.02,-611.95 541.37,-611.85 538.72,-611.7 536.08,-611.51 533.45,-611.26 530.83,-610.97 528.22,-610.64 525.63,-610.25 523.06,-609.82 520.51,-609.35 517.99,-608.84 515.51,-608.29 513.06,-607.69 510.65,-607.06 508.3,-606.39 506,-605.69 503.76,-604.96 501.59,-604.2 499.5,-603.41 497.5,-602.59 495.59,-601.75 493.78,-600.89 492.08,-600.01 490.5,-599.11 489.06,-598.2 487.74,-597.28 486.58,-596.35 485.57,-595.41 484.72,-594.47 484.04,-593.53 483.55,-592.59 483.23,-591.65 483.11,-590.72 483.18,-589.8 483.46,-588.89 483.94,-587.99 484.63,-587.11 485.53,-586.25 486.65,-585.41 487.98,-584.59 489.52,-583.8 491.27,-583.04 493.22,-582.31 495.38,-581.61 497.74,-580.94 500.28,-580.31 503.01,-579.71 505.92,-579.16 508.99,-578.65 512.21,-578.18 515.58,-577.75 519.07,-577.36 522.69,-577.03 526.4,-576.74 530.21,-576.49 534.09,-576.3 538.02,-576.15 542,-576.05 546,-576 550,-576 554,-576.05"/>
<text xml:space="preserve" text-anchor="middle" x="548" y="-589.8" font-family="sans-serif" font-size="14.00">ShoppingBff</text>
</a>
</g>
</g>
<!-- #/domains/edge_&amp;_experience/subdomains/web/boundedcontexts/web_app/services/web_frontend&#45;&gt;#/domains/edge_&amp;_experience/subdomains/mobile/boundedcontexts/experience_bff/services/shopping_bff -->
<g id="edge2" class="edge">
<title>#/domains/edge_&amp;_experience/subdomains/web/boundedcontexts/web_app/services/web_frontend&#45;&gt;#/domains/edge_&amp;_experience/subdomains/mobile/boundedcontexts/experience_bff/services/shopping_bff</title>
<path fill="none" stroke="black" d="M549.81,-759.55C549.46,-728.16 548.74,-661.89 548.32,-623.72"/>
<polygon fill="black" stroke="black" points="551.82,-623.87 548.21,-613.91 544.82,-623.95 551.82,-623.87"/>
<text xml:space="preserve" text-anchor="middle" x="578.11" y="-703" font-family="sans-serif" font-size="10.00">GetHomeData</text>
<g id="a_edge2&#45;headlabel"><a xlink:title="open&#45;host&#45;service">
<text xml:space="preserve" text-anchor="middle" x="548.19" y="-609.4" font-family="sans-serif" font-size="10.00">OHS</text>
</a>
</g>
<g id="a_edge2&#45;taillabel"><a xlink:title="conformist">
<text xml:space="preserve" text-anchor="middle" x="549.81" y="-756.55" font-family="sans-serif" font-size="10.00">C</text>
</a>
</g>
</g>
<!-- #/domains/edge_&amp;_experience/subdomains/mobile/boundedcontexts/experience_bff/services/shopping_bff&#45;&gt;#/domains/identity_&amp;_access/subdomains/auth_n_and_auth_z/boundedcontexts/identity/services/identity_service -->
<g id="edge3" class="edge">
<title>#/domains/edge_&amp;_experience/subdomains/mobile/boundedcontexts/experience_bff/services/shopping_bff&#45;&gt;#/domains/identity_&amp;_access/subdomains/auth_n_and_auth_z/boundedcontexts/identity/services/identity_service</title>
<path fill="none" stroke="black" d="M586.45,-578.08C632.46,-559.57 711.16,-525.79 774,-488 831.82,-453.23 893.25,-403.69 927.61,-374.69"/>
<polygon fill="black" stroke="black" points="929.64,-377.56 935,-368.41 925.11,-372.22 929.64,-377.56"/>
<text xml:space="preserve" text-anchor="middle" x="779.61" y="-499" font-family="sans-serif" font-size="10.00">IssueToken</text>
<g id="a_edge3&#45;headlabel"><a xlink:title="open&#45;host&#45;service">
<text xml:space="preserve" text-anchor="middle" x="936.15" y="-364.43" font-family="sans-serif" font-size="10.00">OHS</text>
</a>
</g>
<g id="a_edge3&#45;taillabel"><a xlink:title="customer&#45;supplier">
<text xml:space="preserve" text-anchor="middle" x="586.45" y="-575.08" font-family="sans-serif" font-size="10.00">C/s</text>
</a>
</g>
</g>
<!-- #/domains/commerce/subdomains/catalog/boundedcontexts/catalog/services/catalog_service -->
<g id="node4" class="node">
<title>#/domains/commerce/subdomains/catalog/boundedcontexts/catalog/services/catalog_service</title>
<g id="a_node4"><a xlink:title="Catalog application service (HTTP).">
<polygon fill="white" stroke="black" points="169.9,-332.05 174.47,-332.15 178.99,-332.3 183.45,-332.49 187.82,-332.74 192.09,-333.03 196.24,-333.36 200.26,-333.75 204.13,-334.18 207.84,-334.65 211.37,-335.16 214.7,-335.71 217.84,-336.31 220.77,-336.94 223.48,-337.61 225.96,-338.31 228.2,-339.04 230.21,-339.8 231.98,-340.59 233.51,-341.41 234.79,-342.25 235.83,-343.11 236.62,-343.99 237.17,-344.89 237.49,-345.8 237.58,-346.72 237.44,-347.65 237.08,-348.59 236.5,-349.53 235.72,-350.47 234.75,-351.41 233.59,-352.35 232.25,-353.28 230.74,-354.2 229.08,-355.11 227.27,-356.01 225.32,-356.89 223.24,-357.75 221.04,-358.59 218.74,-359.41 216.34,-360.2 213.84,-360.96 211.27,-361.69 208.63,-362.39 205.92,-363.06 203.16,-363.69 200.34,-364.29 197.49,-364.84 194.59,-365.35 191.66,-365.82 188.71,-366.25 185.73,-366.64 182.74,-366.97 179.72,-367.26 176.7,-367.51 173.66,-367.7 170.62,-367.85 167.58,-367.95 164.53,-368 161.47,-368 158.42,-367.95 155.38,-367.85 152.34,-367.7 149.3,-367.51 146.28,-367.26 143.26,-366.97 140.27,-366.64 137.29,-366.25 134.34,-365.82 131.41,-365.35 128.51,-364.84 125.66,-364.29 122.84,-363.69 120.08,-363.06 117.37,-362.39 114.73,-361.69 112.16,-360.96 109.66,-360.2 107.26,-359.41 104.96,-358.59 102.76,-357.75 100.68,-356.89 98.73,-356.01 96.92,-355.11 95.26,-354.2 93.75,-353.28 92.41,-352.35 91.25,-351.41 90.28,-350.47 89.5,-349.53 88.92,-348.59 88.56,-347.65 88.42,-346.72 88.51,-345.8 88.83,-344.89 89.38,-343.99 90.17,-343.11 91.21,-342.25 92.49,-341.41 94.02,-340.59 95.79,-339.8 97.8,-339.04 100.04,-338.31 102.52,-337.61 105.23,-336.94 108.16,-336.31 111.3,-335.71 114.63,-335.16 118.16,-334.65 121.87,-334.18 125.74,-333.75 129.76,-333.36 133.91,-333.03 138.18,-332.74 142.55,-332.49 147.01,-332.3 151.53,-332.15 156.1,-332.05 160.7,-332 165.3,-332 169.9,-332.05"/>
<text xml:space="preserve" text-anchor="middle" x="163" y="-345.8" font-family="sans-serif" font-size="14.00">CatalogService</text>
</a>
</g>
</g>
<!-- #/domains/edge_&amp;_experience/subdomains/mobile/boundedcontexts/experience_bff/services/shopping_bff&#45;&gt;#/domains/commerce/subdomains/catalog/boundedcontexts/catalog/services/catalog_service -->
<g id="edge4" class="edge">
<title>#/domains/edge_&amp;_experience/subdomains/mobile/boundedcontexts/experience_bff/services/shopping_bff&#45;&gt;#/domains/commerce/subdomains/catalog/boundedcontexts/catalog/services/catalog_service</title>
<path fill="none" stroke="black" d="M482.93,-589.21C417.06,-582.29 315.45,-562.8 247.24,-508 205.43,-474.4 181.61,-414.29 170.59,-378.99"/>
<polygon fill="black" stroke="black" points="173.97,-378.09 167.77,-369.5 167.26,-380.08 173.97,-378.09"/>
<text xml:space="preserve" text-anchor="middle" x="281.12" y="-499" font-family="sans-serif" font-size="10.00">GetCatalogItems</text>
<g id="a_edge4&#45;headlabel"><a xlink:title="open&#45;host&#45;service">
<text xml:space="preserve" text-anchor="middle" x="167.34" y="-365.05" font-family="sans-serif" font-size="10.00">OHS</text>
</a>
</g>
<g id="a_edge4&#45;taillabel"><a xlink:title="anti&#45;corruption&#45;layer">
<text xml:space="preserve" text-anchor="middle" x="482.93" y="-586.21" font-family="sans-serif" font-size="10.00">ACL</text>
</a>
</g>
</g>
<!-- #/domains/commerce/subdomains/basket/boundedcontexts/basket/services/basket_service -->
<g id="node5" class="node">
<title>#/domains/commerce/subdomains/basket/boundedcontexts/basket/services/basket_service</title>
<g id="a_node5"><a xlink:title="Basket application service.">
<polygon fill="white" stroke="black" points="415.53,-332.05 419.86,-332.15 424.13,-332.3 428.35,-332.49 432.49,-332.74 436.53,-333.03 440.46,-333.36 444.27,-333.75 447.93,-334.18 451.43,-334.65 454.77,-335.16 457.93,-335.71 460.9,-336.31 463.67,-336.94 466.23,-337.61 468.58,-338.31 470.71,-339.04 472.61,-339.8 474.29,-340.59 475.73,-341.41 476.94,-342.25 477.92,-343.11 478.67,-343.99 479.2,-344.89 479.5,-345.8 479.58,-346.72 479.45,-347.65 479.11,-348.59 478.56,-349.53 477.83,-350.47 476.9,-351.41 475.81,-352.35 474.54,-353.28 473.11,-354.2 471.54,-355.11 469.82,-356.01 467.98,-356.89 466.01,-357.75 463.93,-358.59 461.75,-359.41 459.48,-360.2 457.12,-360.96 454.69,-361.69 452.18,-362.39 449.62,-363.06 447.01,-363.69 444.34,-364.29 441.64,-364.84 438.9,-365.35 436.13,-365.82 433.33,-366.25 430.51,-366.64 427.68,-366.97 424.83,-367.26 421.97,-367.51 419.09,-367.7 416.21,-367.85 413.33,-367.95 410.44,-368 407.56,-368 404.67,-367.95 401.79,-367.85 398.91,-367.7 396.03,-367.51 393.17,-367.26 390.32,-366.97 387.49,-366.64 384.67,-366.25 381.87,-365.82 379.1,-365.35 376.36,-364.84 373.66,-364.29 370.99,-363.69 368.38,-363.06 365.82,-362.39 363.31,-361.69 360.88,-360.96 358.52,-360.2 356.25,-359.41 354.07,-358.59 351.99,-357.75 350.02,-356.89 348.18,-356.01 346.46,-355.11 344.89,-354.2 343.46,-353.28 342.19,-352.35 341.1,-351.41 340.17,-350.47 339.44,-349.53 338.89,-348.59 338.55,-347.65 338.42,-346.72 338.5,-345.8 338.8,-344.89 339.33,-343.99 340.08,-343.11 341.06,-342.25 342.27,-341.41 343.71,-340.59 345.39,-339.8 347.29,-339.04 349.42,-338.31 351.77,-337.61 354.33,-336.94 357.1,-336.31 360.07,-335.71 363.23,-335.16 366.57,-334.65 370.07,-334.18 373.73,-333.75 377.54,-333.36 381.47,-333.03 385.51,-332.74 389.65,-332.49 393.87,-332.3 398.14,-332.15 402.47,-332.05 406.82,-332 411.18,-332 415.53,-332.05"/>
<text xml:space="preserve" text-anchor="middle" x="409" y="-345.8" font-family="sans-serif" font-size="14.00">BasketService</text>
</a>
</g>
</g>
<!-- #/domains/edge_&amp;_experience/subdomains/mobile/boundedcontexts/experience_bff/services/shopping_bff&#45;&gt;#/domains/commerce/subdomains/basket/boundedcontexts/basket/services/basket_service -->
<g id="edge5" class="edge">
<title>#/domains/edge_&amp;_experience/subdomains/mobile/boundedcontexts/experience_bff/services/shopping_bff&#45;&gt;#/domains/commerce/subdomains/basket/boundedcontexts/basket/services/basket_service</title>
<path fill="none" stroke="black" d="M484.76,-586.53C434.93,-577.73 368.51,-556.97 335.34,-508 305.9,-464.52 350.77,-407.41 382.35,-375.43"/>
<polygon fill="black" stroke="black" points="384.68,-378.05 389.36,-368.54 379.78,-373.05 384.68,-378.05"/>
<text xml:space="preserve" text-anchor="middle" x="356.17" y="-499" font-family="sans-serif" font-size="10.00">GetBasket</text>
<g id="a_edge5&#45;headlabel"><a xlink:title="open&#45;host&#45;service">
<text xml:space="preserve" text-anchor="middle" x="390.44" y="-364.48" font-family="sans-serif" font-size="10.00">OHS</text>
</a>
</g>
<g id="a_edge5&#45;taillabel"><a xlink:title="anti&#45;corruption&#45;layer">
<text xml:space="preserve" text-anchor="middle" x="484.76" y="-583.53" font-family="sans-serif" font-size="10.00">ACL</text>
</a>
</g>
</g>
<!-- #/domains/edge_&amp;_experience/subdomains/mobile/boundedcontexts/experience_bff/services/shopping_bff&#45;&gt;#/domains/commerce/subdomains/basket/boundedcontexts/basket/services/basket_service -->
<g id="edge6" class="edge">
<title>#/domains/edge_&amp;_experience/subdomains/mobile/boundedcontexts/experience_bff/services/shopping_bff&#45;&gt;#/domains/commerce/subdomains/basket/boundedcontexts/basket/services/basket_service</title>
<path fill="none" stroke="black" d="M518.04,-577.3C493.27,-562.71 459.23,-538.64 440.45,-508 416,-468.1 410.11,-412.8 408.94,-379.59"/>
<polygon fill="black" stroke="black" points="412.44,-379.86 408.73,-369.94 405.45,-380.01 412.44,-379.86"/>
<text xml:space="preserve" text-anchor="middle" x="458.23" y="-499" font-family="sans-serif" font-size="10.00">AddItem</text>
<g id="a_edge6&#45;headlabel"><a xlink:title="open&#45;host&#45;service">
<text xml:space="preserve" text-anchor="middle" x="408.69" y="-365.43" font-family="sans-serif" font-size="10.00">OHS</text>
</a>
</g>
<g id="a_edge6&#45;taillabel"><a xlink:title="anti&#45;corruption&#45;layer">
<text xml:space="preserve" text-anchor="middle" x="518.04" y="-574.3" font-family="sans-serif" font-size="10.00">ACL</text>
</a>
</g>
</g>
<!-- #/domains/edge_&amp;_experience/subdomains/mobile/boundedcontexts/experience_bff/services/shopping_bff&#45;&gt;#/domains/commerce/subdomains/basket/boundedcontexts/basket/services/basket_service -->
<g id="edge7" class="edge">
<title>#/domains/edge_&amp;_experience/subdomains/mobile/boundedcontexts/experience_bff/services/shopping_bff&#45;&gt;#/domains/commerce/subdomains/basket/boundedcontexts/basket/services/basket_service</title>
<path fill="none" stroke="black" d="M538.23,-575.98C514.4,-534.5 453.17,-427.9 424.39,-377.79"/>
<polygon fill="black" stroke="black" points="427.53,-376.24 419.52,-369.31 421.46,-379.73 427.53,-376.24"/>
<text xml:space="preserve" text-anchor="middle" x="523.51" y="-499" font-family="sans-serif" font-size="10.00">ClearBasket</text>
<g id="a_edge7&#45;headlabel"><a xlink:title="open&#45;host&#45;service">
<text xml:space="preserve" text-anchor="middle" x="418.76" y="-365" font-family="sans-serif" font-size="10.00">OHS</text>
</a>
</g>
<g id="a_edge7&#45;taillabel"><a xlink:title="anti&#45;corruption&#45;layer">
<text xml:space="preserve" text-anchor="middle" x="538.23" y="-572.98" font-family="sans-serif" font-size="10.00">ACL</text>
</a>
</g>
</g>
<!-- #/domains/commerce/subdomains/ordering/boundedcontexts/ordering/services/ordering_service -->
<g id="node6" class="node">
<title>#/domains/commerce/subdomains/ordering/boundedcontexts/ordering/services/ordering_service</title>
<g id="a_node6"><a xlink:title="Ordering application service.">
<polygon fill="white" stroke="black" points="667.38,-332.05 672.26,-332.15 677.09,-332.3 681.86,-332.49 686.53,-332.74 691.1,-333.03 695.53,-333.36 699.83,-333.75 703.97,-334.18 707.93,-334.65 711.7,-335.16 715.26,-335.71 718.62,-336.31 721.75,-336.94 724.64,-337.61 727.29,-338.31 729.7,-339.04 731.84,-339.8 733.73,-340.59 735.37,-341.41 736.73,-342.25 737.84,-343.11 738.69,-343.99 739.28,-344.89 739.62,-345.8 739.71,-346.72 739.56,-347.65 739.18,-348.59 738.57,-349.53 737.73,-350.47 736.69,-351.41 735.45,-352.35 734.02,-353.28 732.41,-354.2 730.63,-355.11 728.69,-356.01 726.61,-356.89 724.39,-357.75 722.04,-358.59 719.58,-359.41 717.01,-360.2 714.35,-360.96 711.6,-361.69 708.77,-362.39 705.88,-363.06 702.92,-363.69 699.92,-364.29 696.86,-364.84 693.77,-365.35 690.64,-365.82 687.48,-366.25 684.3,-366.64 681.1,-366.97 677.88,-367.26 674.64,-367.51 671.4,-367.7 668.15,-367.85 664.89,-367.95 661.63,-368 658.37,-368 655.11,-367.95 651.85,-367.85 648.6,-367.7 645.36,-367.51 642.12,-367.26 638.9,-366.97 635.7,-366.64 632.52,-366.25 629.36,-365.82 626.23,-365.35 623.14,-364.84 620.08,-364.29 617.08,-363.69 614.12,-363.06 611.23,-362.39 608.4,-361.69 605.65,-360.96 602.99,-360.2 600.42,-359.41 597.96,-358.59 595.61,-357.75 593.39,-356.89 591.31,-356.01 589.37,-355.11 587.59,-354.2 585.98,-353.28 584.55,-352.35 583.31,-351.41 582.27,-350.47 581.43,-349.53 580.82,-348.59 580.44,-347.65 580.29,-346.72 580.38,-345.8 580.72,-344.89 581.31,-343.99 582.16,-343.11 583.27,-342.25 584.63,-341.41 586.27,-340.59 588.16,-339.8 590.3,-339.04 592.71,-338.31 595.36,-337.61 598.25,-336.94 601.38,-336.31 604.74,-335.71 608.3,-335.16 612.07,-334.65 616.03,-334.18 620.17,-333.75 624.47,-333.36 628.9,-333.03 633.47,-332.74 638.14,-332.49 642.91,-332.3 647.74,-332.15 652.62,-332.05 657.54,-332 662.46,-332 667.38,-332.05"/>
<text xml:space="preserve" text-anchor="middle" x="660" y="-345.8" font-family="sans-serif" font-size="14.00">OrderingService</text>
</a>
</g>
</g>
<!-- #/domains/edge_&amp;_experience/subdomains/mobile/boundedcontexts/experience_bff/services/shopping_bff&#45;&gt;#/domains/commerce/subdomains/ordering/boundedcontexts/ordering/services/ordering_service -->
<g id="edge8" class="edge">
<title>#/domains/edge_&amp;_experience/subdomains/mobile/boundedcontexts/experience_bff/services/shopping_bff&#45;&gt;#/domains/commerce/subdomains/ordering/boundedcontexts/ordering/services/ordering_service</title>
<path fill="none" stroke="black" d="M559.16,-575.86C569.87,-558.99 586.14,-532.31 598,-508 619.4,-464.14 639.2,-410.9 650.42,-379.04"/>
<polygon fill="black" stroke="black" points="653.67,-380.36 653.65,-369.76 647.06,-378.05 653.67,-380.36"/>
<text xml:space="preserve" text-anchor="middle" x="624.42" y="-499" font-family="sans-serif" font-size="10.00">PlaceOrder</text>
<g id="a_edge8&#45;headlabel"><a xlink:title="open&#45;host&#45;service">
<text xml:space="preserve" text-anchor="middle" x="654.15" y="-365.33" font-family="sans-serif" font-size="10.00">OHS</text>
</a>
</g>
<g id="a_edge8&#45;taillabel"><a xlink:title="anti&#45;corruption&#45;layer">
<text xml:space="preserve" text-anchor="middle" x="559.16" y="-572.86" font-family="sans-serif" font-size="10.00">ACL</text>
</a>
</g>
</g>
<!-- #/domains/payment_processing/subdomains/payment_processors/boundedcontexts/payment_processor/services/payment_service -->
<g id="node7" class="node">
<title>#/domains/payment_processing/subdomains/payment_processors/boundedcontexts/payment_processor/services/payment_service</title>
<g id="a_node7"><a xlink:title="Takes payments and emits status changes.">
<polygon fill="white" stroke="black" points="666.27,-88.05 671.09,-88.15 675.85,-88.3 680.55,-88.49 685.15,-88.74 689.65,-89.03 694.03,-89.36 698.26,-89.75 702.34,-90.18 706.24,-90.65 709.96,-91.16 713.48,-91.71 716.78,-92.31 719.87,-92.94 722.72,-93.61 725.33,-94.31 727.7,-95.04 729.82,-95.8 731.69,-96.59 733.29,-97.41 734.64,-98.25 735.73,-99.11 736.57,-99.99 737.16,-100.89 737.49,-101.8 737.58,-102.72 737.43,-103.65 737.05,-104.59 736.45,-105.53 735.63,-106.47 734.6,-107.41 733.38,-108.35 731.97,-109.28 730.38,-110.2 728.62,-111.11 726.71,-112.01 724.66,-112.89 722.47,-113.75 720.16,-114.59 717.73,-115.41 715.2,-116.2 712.57,-116.96 709.86,-117.69 707.08,-118.39 704.23,-119.06 701.31,-119.69 698.35,-120.29 695.34,-120.84 692.29,-121.35 689.2,-121.82 686.09,-122.25 682.95,-122.64 679.8,-122.97 676.62,-123.26 673.43,-123.51 670.24,-123.7 667.03,-123.85 663.82,-123.95 660.61,-124 657.39,-124 654.18,-123.95 650.97,-123.85 647.76,-123.7 644.57,-123.51 641.38,-123.26 638.2,-122.97 635.05,-122.64 631.91,-122.25 628.8,-121.82 625.71,-121.35 622.66,-120.84 619.65,-120.29 616.69,-119.69 613.77,-119.06 610.92,-118.39 608.14,-117.69 605.43,-116.96 602.8,-116.2 600.27,-115.41 597.84,-114.59 595.53,-113.75 593.34,-112.89 591.29,-112.01 589.38,-111.11 587.62,-110.2 586.03,-109.28 584.62,-108.35 583.4,-107.41 582.37,-106.47 581.55,-105.53 580.95,-104.59 580.57,-103.65 580.42,-102.72 580.51,-101.8 580.84,-100.89 581.43,-99.99 582.27,-99.11 583.36,-98.25 584.71,-97.41 586.31,-96.59 588.18,-95.8 590.3,-95.04 592.67,-94.31 595.28,-93.61 598.13,-92.94 601.22,-92.31 604.52,-91.71 608.04,-91.16 611.76,-90.65 615.66,-90.18 619.74,-89.75 623.97,-89.36 628.35,-89.03 632.85,-88.74 637.45,-88.49 642.15,-88.3 646.91,-88.15 651.73,-88.05 656.57,-88 661.43,-88 666.27,-88.05"/>
<text xml:space="preserve" text-anchor="middle" x="659" y="-101.8" font-family="sans-serif" font-size="14.00">PaymentService</text>
</a>
</g>
</g>
<!-- #/domains/commerce/subdomains/ordering/boundedcontexts/ordering/services/ordering_service&#45;&gt;#/domains/payment_processing/subdomains/payment_processors/boundedcontexts/payment_processor/services/payment_service -->
<g id="edge9" class="edge">
<title>#/domains/commerce/subdomains/ordering/boundedcontexts/ordering/services/ordering_service&#45;&gt;#/domains/payment_processing/subdomains/payment_processors/boundedcontexts/payment_processor/services/payment_service</title>
<path fill="none" stroke="black" d="M638.58,-332.07C620.8,-316.55 596.81,-291.8 586.45,-264 568.61,-216.11 606.56,-162.5 634,-131.95"/>
<polygon fill="black" stroke="black" points="636.48,-134.42 640.73,-124.71 631.36,-129.65 636.48,-134.42"/>
<text xml:space="preserve" text-anchor="middle" x="619.23" y="-255" font-family="sans-serif" font-size="10.00">ProcessPayment</text>
<g id="a_edge9&#45;headlabel"><a xlink:title="open&#45;host&#45;service">
<text xml:space="preserve" text-anchor="middle" x="641.76" y="-120.6" font-family="sans-serif" font-size="10.00">OHS</text>
</a>
</g>
<g id="a_edge9&#45;taillabel"><a xlink:title="customer&#45;supplier">
<text xml:space="preserve" text-anchor="middle" x="638.58" y="-329.07" font-family="sans-serif" font-size="10.00">C/s</text>
</a>
</g>
</g>
<!-- #/domains/commerce/subdomains/ordering/boundedcontexts/ordering/services/ordering_service&#45;&gt;#/domains/payment_processing/subdomains/payment_processors/boundedcontexts/payment_processor/services/payment_service -->
<g id="edge10" class="edge">
<title>#/domains/commerce/subdomains/ordering/boundedcontexts/ordering/services/ordering_service&#45;&gt;#/domains/payment_processing/subdomains/payment_processors/boundedcontexts/payment_processor/services/payment_service</title>
<path fill="none" stroke="black" d="M660.52,-331.75C661.02,-314.57 661.72,-287.47 662,-264 662.53,-219.24 661.14,-167.31 660.08,-135.82"/>
<polygon fill="black" stroke="black" points="663.59,-135.81 659.74,-125.94 656.59,-136.05 663.59,-135.81"/>
<text xml:space="preserve" text-anchor="middle" x="700.95" y="-255" font-family="sans-serif" font-size="10.00">PaymentSucceeded</text>
<g id="a_edge10&#45;headlabel"><a xlink:title="published&#45;language">
<text xml:space="preserve" text-anchor="middle" x="659.68" y="-121.42" font-family="sans-serif" font-size="10.00">PL</text>
</a>
</g>
<g id="a_edge10&#45;taillabel"><a xlink:title="conformist">
<text xml:space="preserve" text-anchor="middle" x="660.52" y="-328.75" font-family="sans-serif" font-size="10.00">C</text>
</a>
</g>
</g>
</g>
</svg>
