<?xml version="1.0" encoding="UTF-8" standalone="no"?>
<?xml-stylesheet href="data:text/css,.graph%20text%20%7B%0A%09font-family%3A%20sans-serif%3B%0A%09stroke%3A%20white%3B%0A%09paint-order%3A%20stroke%3B%0A%09stroke-width%3A%203%3B%0A%09stroke-linecap%3A%20square%3B%0A%7D%0A%0A.namespace%20polygon%20%7B%0A%09fill-opacity%3A%200.2%3B%0A%09stroke%3A%20none%3B%0A%7D%0A" type="text/css"?>
<!DOCTYPE svg PUBLIC "-//W3C//DTD SVG 1.1//EN"
 "http://www.w3.org/Graphics/SVG/1.1/DTD/svg11.dtd">
<!-- Generated by graphviz version 13.1.2 (0)
 -->
<!-- Pages: 1 -->
<svg width="491pt" height="624pt"
 viewBox="0.00 0.00 491.00 624.00" xmlns="http://www.w3.org/2000/svg" xmlns:xlink="http://www.w3.org/1999/xlink">
<g id="graph0" class="graph" transform="scale(1 1) rotate(0) translate(4 620)">
<polygon fill="white" stroke="none" points="-4,4 -4,-620 487,-620 487,4 -4,4"/>
<g id="clust1" class="cluster namespace">
<title>e_shop_on_containers</title>
<polygon fill="lightgrey" stroke="lightgrey" points="8,-8 8,-608 475,-608 475,-8 8,-8"/>
<text xml:space="preserve" text-anchor="middle" x="241.5" y="-595" font-family="sans-serif" font-size="10.00">eShopOnContainers</text>
</g>
<g id="clust2" class="cluster namespace">
<title>#/domains/commerce</title>
<polygon fill="lightgrey" stroke="lightgrey" points="170,-168 170,-428 467,-428 467,-168 170,-168"/>
<text xml:space="preserve" text-anchor="middle" x="318.5" y="-415" font-family="sans-serif" font-size="10.00">Commerce</text>
</g>
<g id="clust3" class="cluster namespace">
<title>#/domains/commerce/subdomains/shopping</title>
<polygon fill="lightgrey" stroke="lightgrey" points="253,-292 253,-400 383,-400 383,-292 253,-292"/>
<text xml:space="preserve" text-anchor="middle" x="318" y="-387" font-family="sans-serif" font-size="10.00">Shopping</text>
</g>
<g id="clust4" class="cluster namespace">
<title>#/domains/commerce/subdomains/sales</title>
<polygon fill="lightgrey" stroke="lightgrey" points="178,-176 178,-284 308,-284 308,-176 178,-176"/>
<text xml:space="preserve" text-anchor="middle" x="243" y="-271" font-family="sans-serif" font-size="10.00">Sales</text>
</g>
<g id="clust5" class="cluster namespace">
<title>#/domains/commerce/subdomains/cataloging</title>
<polygon fill="lightgrey" stroke="lightgrey" points="329,-176 329,-284 459,-284 459,-176 329,-176"/>
<text xml:space="preserve" text-anchor="middle" x="394" y="-271" font-family="sans-serif" font-size="10.00">Cataloging</text>
</g>
<g id="clust6" class="cluster namespace">
<title>#/domains/integration</title>
<polygon fill="lightgrey" stroke="lightgrey" points="245,-436 245,-580 391,-580 391,-436 245,-436"/>
<text xml:space="preserve" text-anchor="middle" x="318" y="-567" font-family="sans-serif" font-size="10.00">Integration</text>
</g>
<g id="clust7" class="cluster namespace">
<title>#/domains/integration/subdomains/edge</title>
<polygon fill="lightgrey" stroke="lightgrey" points="253,-444 253,-552 383,-552 383,-444 253,-444"/>
<text xml:space="preserve" text-anchor="middle" x="318" y="-539" font-family="sans-serif" font-size="10.00">Edge</text>
</g>
<g id="clust8" class="cluster namespace">
<title>#/domains/identity&amp;access</title>
<polygon fill="lightgrey" stroke="lightgrey" points="16,-16 16,-160 162,-160 162,-16 16,-16"/>
<text xml:space="preserve" text-anchor="middle" x="89" y="-147" font-family="sans-serif" font-size="10.00">Identity&amp;Access</text>
</g>
<g id="clust9" class="cluster namespace">
<title>#/domains/identity&amp;access/subdomains/auth</title>
<polygon fill="lightgrey" stroke="lightgrey" points="24,-24 24,-132 154,-132 154,-24 24,-24"/>
<text xml:space="preserve" text-anchor="middle" x="89" y="-119" font-family="sans-serif" font-size="10.00">Auth</text>
</g>
<g id="clust10" class="cluster namespace">
<title>#/domains/customer_experience</title>
<polygon fill="lightgrey" stroke="lightgrey" points="170,-16 170,-160 467,-160 467,-16 170,-16"/>
<text xml:space="preserve" text-anchor="middle" x="318.5" y="-147" font-family="sans-serif" font-size="10.00">CustomerExperience</text>
</g>
<g id="clust11" class="cluster namespace">
<title>#/domains/customer_experience/subdomains/promotions</title>
<polygon fill="lightgrey" stroke="lightgrey" points="178,-24 178,-132 308,-132 308,-24 178,-24"/>
<text xml:space="preserve" text-anchor="middle" x="243" y="-119" font-family="sans-serif" font-size="10.00">Promotions</text>
</g>
<g id="clust12" class="cluster namespace">
<title>#/domains/customer_experience/subdomains/geodata</title>
<polygon fill="lightgrey" stroke="lightgrey" points="329,-24 329,-132 459,-132 459,-24 329,-24"/>
<text xml:space="preserve" text-anchor="middle" x="394" y="-119" font-family="sans-serif" font-size="10.00">Geodata</text>
</g>
<!-- #/domains/commerce/subdomains/shopping/boundedcontexts/basket -->
<g id="node1" class="node">
<title>#/domains/commerce/subdomains/shopping/boundedcontexts/basket</title>
<g id="a_node1"><a xlink:title="Basket.API (Redis)">
<polygon fill="white" stroke="black" points="323.32,-300.1 326.84,-300.3 330.33,-300.59 333.76,-300.98 337.13,-301.47 340.42,-302.05 343.63,-302.73 346.72,-303.5 349.71,-304.35 352.56,-305.29 355.28,-306.32 357.85,-307.43 360.27,-308.62 362.53,-309.88 364.62,-311.21 366.53,-312.61 368.26,-314.08 369.81,-315.6 371.17,-317.18 372.35,-318.82 373.34,-320.5 374.14,-322.22 374.75,-323.98 375.18,-325.77 375.42,-327.59 375.49,-329.44 375.38,-331.3 375.1,-333.17 374.66,-335.06 374.06,-336.94 373.31,-338.83 372.41,-340.7 371.38,-342.56 370.22,-344.41 368.94,-346.23 367.54,-348.02 366.03,-349.78 364.43,-351.5 362.74,-353.18 360.96,-354.82 359.11,-356.4 357.19,-357.92 355.21,-359.39 353.17,-360.79 351.09,-362.12 348.96,-363.38 346.79,-364.57 344.58,-365.68 342.35,-366.71 340.1,-367.65 337.82,-368.5 335.52,-369.27 333.21,-369.95 330.89,-370.53 328.56,-371.02 326.22,-371.41 323.88,-371.7 321.53,-371.9 319.18,-372 316.82,-372 314.47,-371.9 312.12,-371.7 309.78,-371.41 307.44,-371.02 305.11,-370.53 302.79,-369.95 300.48,-369.27 298.18,-368.5 295.9,-367.65 293.65,-366.71 291.42,-365.68 289.21,-364.57 287.04,-363.38 284.91,-362.12 282.83,-360.79 280.79,-359.39 278.81,-357.92 276.89,-356.4 275.04,-354.82 273.26,-353.18 271.57,-351.5 269.97,-349.78 268.46,-348.02 267.06,-346.23 265.78,-344.41 264.62,-342.56 263.59,-340.7 262.69,-338.83 261.94,-336.94 261.34,-335.06 260.9,-333.17 260.62,-331.3 260.51,-329.44 260.58,-327.59 260.82,-325.77 261.25,-323.98 261.86,-322.22 262.66,-320.5 263.65,-318.82 264.83,-317.18 266.19,-315.6 267.74,-314.08 269.47,-312.61 271.38,-311.21 273.47,-309.88 275.73,-308.62 278.15,-307.43 280.72,-306.32 283.44,-305.29 286.29,-304.35 289.28,-303.5 292.37,-302.73 295.58,-302.05 298.87,-301.47 302.24,-300.98 305.67,-300.59 309.16,-300.3 312.68,-300.1 316.22,-300 319.78,-300 323.32,-300.1"/>
<text xml:space="preserve" text-anchor="middle" x="318" y="-331.8" font-family="sans-serif" font-size="14.00">Basket</text>
</a>
</g>
</g>
<!-- #/domains/commerce/subdomains/sales/boundedcontexts/ordering -->
<g id="node2" class="node">
<title>#/domains/commerce/subdomains/sales/boundedcontexts/ordering</title>
<g id="a_node2"><a xlink:title="Ordering.API (rich DDD + domain events)">
<polygon fill="white" stroke="black" points="248.32,-184.1 251.84,-184.3 255.33,-184.59 258.76,-184.98 262.13,-185.47 265.42,-186.05 268.63,-186.73 271.72,-187.5 274.71,-188.35 277.56,-189.29 280.28,-190.32 282.85,-191.43 285.27,-192.62 287.53,-193.88 289.62,-195.21 291.53,-196.61 293.26,-198.08 294.81,-199.6 296.17,-201.18 297.35,-202.82 298.34,-204.5 299.14,-206.22 299.75,-207.98 300.18,-209.77 300.42,-211.59 300.49,-213.44 300.38,-215.3 300.1,-217.17 299.66,-219.06 299.06,-220.94 298.31,-222.83 297.41,-224.7 296.38,-226.56 295.22,-228.41 293.94,-230.23 292.54,-232.02 291.03,-233.78 289.43,-235.5 287.74,-237.18 285.96,-238.82 284.11,-240.4 282.19,-241.92 280.21,-243.39 278.17,-244.79 276.09,-246.12 273.96,-247.38 271.79,-248.57 269.58,-249.68 267.35,-250.71 265.1,-251.65 262.82,-252.5 260.52,-253.27 258.21,-253.95 255.89,-254.53 253.56,-255.02 251.22,-255.41 248.88,-255.7 246.53,-255.9 244.18,-256 241.82,-256 239.47,-255.9 237.12,-255.7 234.78,-255.41 232.44,-255.02 230.11,-254.53 227.79,-253.95 225.48,-253.27 223.18,-252.5 220.9,-251.65 218.65,-250.71 216.42,-249.68 214.21,-248.57 212.04,-247.38 209.91,-246.12 207.83,-244.79 205.79,-243.39 203.81,-241.92 201.89,-240.4 200.04,-238.82 198.26,-237.18 196.57,-235.5 194.97,-233.78 193.46,-232.02 192.06,-230.23 190.78,-228.41 189.62,-226.56 188.59,-224.7 187.69,-222.83 186.94,-220.94 186.34,-219.06 185.9,-217.17 185.62,-215.3 185.51,-213.44 185.58,-211.59 185.82,-209.77 186.25,-207.98 186.86,-206.22 187.66,-204.5 188.65,-202.82 189.83,-201.18 191.19,-199.6 192.74,-198.08 194.47,-196.61 196.38,-195.21 198.47,-193.88 200.73,-192.62 203.15,-191.43 205.72,-190.32 208.44,-189.29 211.29,-188.35 214.28,-187.5 217.37,-186.73 220.58,-186.05 223.87,-185.47 227.24,-184.98 230.67,-184.59 234.16,-184.3 237.68,-184.1 241.22,-184 244.78,-184 248.32,-184.1"/>
<text xml:space="preserve" text-anchor="middle" x="243" y="-215.8" font-family="sans-serif" font-size="14.00">Ordering</text>
</a>
</g>
</g>
<!-- #/domains/commerce/subdomains/shopping/boundedcontexts/basket&#45;&gt;#/domains/commerce/subdomains/sales/boundedcontexts/ordering -->
<g id="edge4" class="edge">
<title>#/domains/commerce/subdomains/shopping/boundedcontexts/basket&#45;&gt;#/domains/commerce/subdomains/sales/boundedcontexts/ordering</title>
<path fill="none" stroke="black" d="M307.64,-300.18C299.97,-286.66 289.83,-271.18 279.71,-257.51"/>
<polygon fill="black" stroke="black" points="282.51,-255.41 273.66,-249.59 276.95,-259.66 282.51,-255.41"/>
<g id="a_edge4&#45;headlabel"><a xlink:title="published&#45;language">
<text xml:space="preserve" text-anchor="middle" x="272.74" y="-245.38" font-family="sans-serif" font-size="10.00">PL</text>
</a>
</g>
<g id="a_edge4&#45;taillabel"><a xlink:title="conformist">
<text xml:space="preserve" text-anchor="middle" x="307.64" y="-297.18" font-family="sans-serif" font-size="10.00">C</text>
</a>
</g>
</g>
<!-- #/domains/commerce/subdomains/cataloging/boundedcontexts/catalog -->
<g id="node3" class="node">
<title>#/domains/commerce/subdomains/cataloging/boundedcontexts/catalog</title>
<g id="a_node3"><a xlink:title="Catalog.API">
<polygon fill="white" stroke="black" points="399.32,-184.1 402.84,-184.3 406.33,-184.59 409.76,-184.98 413.13,-185.47 416.42,-186.05 419.63,-186.73 422.72,-187.5 425.71,-188.35 428.56,-189.29 431.28,-190.32 433.85,-191.43 436.27,-192.62 438.53,-193.88 440.62,-195.21 442.53,-196.61 444.26,-198.08 445.81,-199.6 447.17,-201.18 448.35,-202.82 449.34,-204.5 450.14,-206.22 450.75,-207.98 451.18,-209.77 451.42,-211.59 451.49,-213.44 451.38,-215.3 451.1,-217.17 450.66,-219.06 450.06,-220.94 449.31,-222.83 448.41,-224.7 447.38,-226.56 446.22,-228.41 444.94,-230.23 443.54,-232.02 442.03,-233.78 440.43,-235.5 438.74,-237.18 436.96,-238.82 435.11,-240.4 433.19,-241.92 431.21,-243.39 429.17,-244.79 427.09,-246.12 424.96,-247.38 422.79,-248.57 420.58,-249.68 418.35,-250.71 416.1,-251.65 413.82,-252.5 411.52,-253.27 409.21,-253.95 406.89,-254.53 404.56,-255.02 402.22,-255.41 399.88,-255.7 397.53,-255.9 395.18,-256 392.82,-256 390.47,-255.9 388.12,-255.7 385.78,-255.41 383.44,-255.02 381.11,-254.53 378.79,-253.95 376.48,-253.27 374.18,-252.5 371.9,-251.65 369.65,-250.71 367.42,-249.68 365.21,-248.57 363.04,-247.38 360.91,-246.12 358.83,-244.79 356.79,-243.39 354.81,-241.92 352.89,-240.4 351.04,-238.82 349.26,-237.18 347.57,-235.5 345.97,-233.78 344.46,-232.02 343.06,-230.23 341.78,-228.41 340.62,-226.56 339.59,-224.7 338.69,-222.83 337.94,-220.94 337.34,-219.06 336.9,-217.17 336.62,-215.3 336.51,-213.44 336.58,-211.59 336.82,-209.77 337.25,-207.98 337.86,-206.22 338.66,-204.5 339.65,-202.82 340.83,-201.18 342.19,-199.6 343.74,-198.08 345.47,-196.61 347.38,-195.21 349.47,-193.88 351.73,-192.62 354.15,-191.43 356.72,-190.32 359.44,-189.29 362.29,-188.35 365.28,-187.5 368.37,-186.73 371.58,-186.05 374.87,-185.47 378.24,-184.98 381.67,-184.59 385.16,-184.3 388.68,-184.1 392.22,-184 395.78,-184 399.32,-184.1"/>
<text xml:space="preserve" text-anchor="middle" x="394" y="-215.8" font-family="sans-serif" font-size="14.00">Catalog</text>
</a>
</g>
</g>
<!-- #/domains/commerce/subdomains/shopping/boundedcontexts/basket&#45;&gt;#/domains/commerce/subdomains/cataloging/boundedcontexts/catalog -->
<g id="edge3" class="edge">
<title>#/domains/commerce/subdomains/shopping/boundedcontexts/basket&#45;&gt;#/domains/commerce/subdomains/cataloging/boundedcontexts/catalog</title>
<path fill="none" stroke="black" d="M340.19,-301.72C348.51,-289.24 358.06,-274.91 366.78,-261.83"/>
<polygon fill="black" stroke="black" points="369.49,-264.08 372.12,-253.82 363.66,-260.2 369.49,-264.08"/>
<g id="a_edge3&#45;headlabel"><a xlink:title="published&#45;language">
<text xml:space="preserve" text-anchor="middle" x="372.96" y="-249.56" font-family="sans-serif" font-size="10.00">PL</text>
</a>
</g>
<g id="a_edge3&#45;taillabel"><a xlink:title="conformist">
<text xml:space="preserve" text-anchor="middle" x="340.19" y="-298.72" font-family="sans-serif" font-size="10.00">C</text>
</a>
</g>
</g>
<!-- #/domains/commerce/subdomains/sales/boundedcontexts/ordering&#45;&gt;#/domains/commerce/subdomains/shopping/boundedcontexts/basket -->
<g id="edge2" class="edge">
<title>#/domains/commerce/subdomains/sales/boundedcontexts/ordering&#45;&gt;#/domains/commerce/subdomains/shopping/boundedcontexts/basket</title>
<path fill="none" stroke="black" d="M253.17,-255.49C260.23,-267.96 269.41,-282.13 278.75,-295.03"/>
<polygon fill="black" stroke="black" points="275.87,-297.01 284.65,-302.94 281.48,-292.83 275.87,-297.01"/>
<g id="a_edge2&#45;headlabel"><a xlink:title="open&#45;host&#45;service">
<text xml:space="preserve" text-anchor="middle" x="285.56" y="-301.15" font-family="sans-serif" font-size="10.00">OHS</text>
</a>
</g>
<g id="a_edge2&#45;taillabel"><a xlink:title="anti&#45;corruption&#45;layer">
<text xml:space="preserve" text-anchor="middle" x="253.17" y="-252.49" font-family="sans-serif" font-size="10.00">ACL</text>
</a>
</g>
</g>
<!-- #/domains/identity&amp;access/subdomains/auth/boundedcontexts/identity -->
<g id="node5" class="node">
<title>#/domains/identity&amp;access/subdomains/auth/boundedcontexts/identity</title>
<g id="a_node5"><a xlink:title="Identity.API">
<polygon fill="white" stroke="black" points="94.32,-32.1 97.84,-32.3 101.33,-32.59 104.76,-32.98 108.13,-33.47 111.42,-34.05 114.63,-34.73 117.72,-35.5 120.71,-36.35 123.56,-37.29 126.28,-38.32 128.85,-39.43 131.27,-40.62 133.53,-41.88 135.62,-43.21 137.53,-44.61 139.26,-46.08 140.81,-47.6 142.17,-49.18 143.35,-50.82 144.34,-52.5 145.14,-54.22 145.75,-55.98 146.18,-57.77 146.42,-59.59 146.49,-61.44 146.38,-63.3 146.1,-65.17 145.66,-67.06 145.06,-68.94 144.31,-70.83 143.41,-72.7 142.38,-74.56 141.22,-76.41 139.94,-78.23 138.54,-80.02 137.03,-81.78 135.43,-83.5 133.74,-85.18 131.96,-86.82 130.11,-88.4 128.19,-89.92 126.21,-91.39 124.17,-92.79 122.09,-94.12 119.96,-95.38 117.79,-96.57 115.58,-97.68 113.35,-98.71 111.1,-99.65 108.82,-100.5 106.52,-101.27 104.21,-101.95 101.89,-102.53 99.56,-103.02 97.22,-103.41 94.88,-103.7 92.53,-103.9 90.18,-104 87.82,-104 85.47,-103.9 83.12,-103.7 80.78,-103.41 78.44,-103.02 76.11,-102.53 73.79,-101.95 71.48,-101.27 69.18,-100.5 66.9,-99.65 64.65,-98.71 62.42,-97.68 60.21,-96.57 58.04,-95.38 55.91,-94.12 53.83,-92.79 51.79,-91.39 49.81,-89.92 47.89,-88.4 46.04,-86.82 44.26,-85.18 42.57,-83.5 40.97,-81.78 39.46,-80.02 38.06,-78.23 36.78,-76.41 35.62,-74.56 34.59,-72.7 33.69,-70.83 32.94,-68.94 32.34,-67.06 31.9,-65.17 31.62,-63.3 31.51,-61.44 31.58,-59.59 31.82,-57.77 32.25,-55.98 32.86,-54.22 33.66,-52.5 34.65,-50.82 35.83,-49.18 37.19,-47.6 38.74,-46.08 40.47,-44.61 42.38,-43.21 44.47,-41.88 46.73,-40.62 49.15,-39.43 51.72,-38.32 54.44,-37.29 57.29,-36.35 60.28,-35.5 63.37,-34.73 66.58,-34.05 69.87,-33.47 73.24,-32.98 76.67,-32.59 80.16,-32.3 83.68,-32.1 87.22,-32 90.78,-32 94.32,-32.1"/>
<text xml:space="preserve" text-anchor="middle" x="89" y="-63.8" font-family="sans-serif" font-size="14.00">Identity</text>
</a>
</g>
</g>
<!-- #/domains/commerce/subdomains/sales/boundedcontexts/ordering&#45;&gt;#/domains/identity&amp;access/subdomains/auth/boundedcontexts/identity -->
<g id="edge5" class="edge">
<title>#/domains/commerce/subdomains/sales/boundedcontexts/ordering&#45;&gt;#/domains/identity&amp;access/subdomains/auth/boundedcontexts/identity</title>
<path fill="none" stroke="black" d="M204.66,-190.52C192.85,-181.21 180.06,-170.54 169,-160 151.88,-143.69 134.37,-124.15 120.12,-107.38"/>
<polygon fill="black" stroke="black" points="123.07,-105.44 113.95,-100.04 117.71,-109.95 123.07,-105.44"/>
<g id="a_edge5&#45;headlabel"><a xlink:title="open&#45;host&#45;service">
<text xml:space="preserve" text-anchor="middle" x="112.98" y="-95.88" font-family="sans-serif" font-size="10.00">OHS</text>
</a>
</g>
<g id="a_edge5&#45;taillabel"><a xlink:title="anti&#45;corruption&#45;layer">
<text xml:space="preserve" text-anchor="middle" x="204.66" y="-187.52" font-family="sans-serif" font-size="10.00">ACL</text>
</a>
</g>
</g>
<!-- #/domains/customer_experience/subdomains/promotions/boundedcontexts/marketing -->
<g id="node6" class="node">
<title>#/domains/customer_experience/subdomains/promotions/boundedcontexts/marketing</title>
<g id="a_node6"><a xlink:title="Marketing.API">
<polygon fill="white" stroke="black" points="248.32,-32.1 251.84,-32.3 255.33,-32.59 258.76,-32.98 262.13,-33.47 265.42,-34.05 268.63,-34.73 271.72,-35.5 274.71,-36.35 277.56,-37.29 280.28,-38.32 282.85,-39.43 285.27,-40.62 287.53,-41.88 289.62,-43.21 291.53,-44.61 293.26,-46.08 294.81,-47.6 296.17,-49.18 297.35,-50.82 298.34,-52.5 299.14,-54.22 299.75,-55.98 300.18,-57.77 300.42,-59.59 300.49,-61.44 300.38,-63.3 300.1,-65.17 299.66,-67.06 299.06,-68.94 298.31,-70.83 297.41,-72.7 296.38,-74.56 295.22,-76.41 293.94,-78.23 292.54,-80.02 291.03,-81.78 289.43,-83.5 287.74,-85.18 285.96,-86.82 284.11,-88.4 282.19,-89.92 280.21,-91.39 278.17,-92.79 276.09,-94.12 273.96,-95.38 271.79,-96.57 269.58,-97.68 267.35,-98.71 265.1,-99.65 262.82,-100.5 260.52,-101.27 258.21,-101.95 255.89,-102.53 253.56,-103.02 251.22,-103.41 248.88,-103.7 246.53,-103.9 244.18,-104 241.82,-104 239.47,-103.9 237.12,-103.7 234.78,-103.41 232.44,-103.02 230.11,-102.53 227.79,-101.95 225.48,-101.27 223.18,-100.5 220.9,-99.65 218.65,-98.71 216.42,-97.68 214.21,-96.57 212.04,-95.38 209.91,-94.12 207.83,-92.79 205.79,-91.39 203.81,-89.92 201.89,-88.4 200.04,-86.82 198.26,-85.18 196.57,-83.5 194.97,-81.78 193.46,-80.02 192.06,-78.23 190.78,-76.41 189.62,-74.56 188.59,-72.7 187.69,-70.83 186.94,-68.94 186.34,-67.06 185.9,-65.17 185.62,-63.3 185.51,-61.44 185.58,-59.59 185.82,-57.77 186.25,-55.98 186.86,-54.22 187.66,-52.5 188.65,-50.82 189.83,-49.18 191.19,-47.6 192.74,-46.08 194.47,-44.61 196.38,-43.21 198.47,-41.88 200.73,-40.62 203.15,-39.43 205.72,-38.32 208.44,-37.29 211.29,-36.35 214.28,-35.5 217.37,-34.73 220.58,-34.05 223.87,-33.47 227.24,-32.98 230.67,-32.59 234.16,-32.3 237.68,-32.1 241.22,-32 244.78,-32 248.32,-32.1"/>
<text xml:space="preserve" text-anchor="middle" x="243" y="-63.8" font-family="sans-serif" font-size="14.00">Marketing</text>
</a>
</g>
</g>
<!-- #/domains/commerce/subdomains/sales/boundedcontexts/ordering&#45;&gt;#/domains/customer_experience/subdomains/promotions/boundedcontexts/marketing -->
<g id="edge6" class="edge">
<title>#/domains/commerce/subdomains/sales/boundedcontexts/ordering&#45;&gt;#/domains/customer_experience/subdomains/promotions/boundedcontexts/marketing</title>
<path fill="none" stroke="black" d="M243,-184.21C243,-163.65 243,-137.36 243,-115.09"/>
<polygon fill="black" stroke="black" points="246.5,-115.37 243,-105.37 239.5,-115.37 246.5,-115.37"/>
<g id="a_edge6&#45;headlabel"><a xlink:title="open&#45;host&#45;service">
<text xml:space="preserve" text-anchor="middle" x="243" y="-100.86" font-family="sans-serif" font-size="10.00">OHS</text>
</a>
</g>
<g id="a_edge6&#45;taillabel"><a xlink:title="anti&#45;corruption&#45;layer">
<text xml:space="preserve" text-anchor="middle" x="243" y="-181.21" font-family="sans-serif" font-size="10.00">ACL</text>
</a>
</g>
</g>
<!-- #/domains/customer_experience/subdomains/geodata/boundedcontexts/locations -->
<g id="node7" class="node">
<title>#/domains/customer_experience/subdomains/geodata/boundedcontexts/locations</title>
<g id="a_node7"><a xlink:title="Locations.API">
<polygon fill="white" stroke="black" points="399.32,-32.1 402.84,-32.3 406.33,-32.59 409.76,-32.98 413.13,-33.47 416.42,-34.05 419.63,-34.73 422.72,-35.5 425.71,-36.35 428.56,-37.29 431.28,-38.32 433.85,-39.43 436.27,-40.62 438.53,-41.88 440.62,-43.21 442.53,-44.61 444.26,-46.08 445.81,-47.6 447.17,-49.18 448.35,-50.82 449.34,-52.5 450.14,-54.22 450.75,-55.98 451.18,-57.77 451.42,-59.59 451.49,-61.44 451.38,-63.3 451.1,-65.17 450.66,-67.06 450.06,-68.94 449.31,-70.83 448.41,-72.7 447.38,-74.56 446.22,-76.41 444.94,-78.23 443.54,-80.02 442.03,-81.78 440.43,-83.5 438.74,-85.18 436.96,-86.82 435.11,-88.4 433.19,-89.92 431.21,-91.39 429.17,-92.79 427.09,-94.12 424.96,-95.38 422.79,-96.57 420.58,-97.68 418.35,-98.71 416.1,-99.65 413.82,-100.5 411.52,-101.27 409.21,-101.95 406.89,-102.53 404.56,-103.02 402.22,-103.41 399.88,-103.7 397.53,-103.9 395.18,-104 392.82,-104 390.47,-103.9 388.12,-103.7 385.78,-103.41 383.44,-103.02 381.11,-102.53 378.79,-101.95 376.48,-101.27 374.18,-100.5 371.9,-99.65 369.65,-98.71 367.42,-97.68 365.21,-96.57 363.04,-95.38 360.91,-94.12 358.83,-92.79 356.79,-91.39 354.81,-89.92 352.89,-88.4 351.04,-86.82 349.26,-85.18 347.57,-83.5 345.97,-81.78 344.46,-80.02 343.06,-78.23 341.78,-76.41 340.62,-74.56 339.59,-72.7 338.69,-70.83 337.94,-68.94 337.34,-67.06 336.9,-65.17 336.62,-63.3 336.51,-61.44 336.58,-59.59 336.82,-57.77 337.25,-55.98 337.86,-54.22 338.66,-52.5 339.65,-50.82 340.83,-49.18 342.19,-47.6 343.74,-46.08 345.47,-44.61 347.38,-43.21 349.47,-41.88 351.73,-40.62 354.15,-39.43 356.72,-38.32 359.44,-37.29 362.29,-36.35 365.28,-35.5 368.37,-34.73 371.58,-34.05 374.87,-33.47 378.24,-32.98 381.67,-32.59 385.16,-32.3 388.68,-32.1 392.22,-32 395.78,-32 399.32,-32.1"/>
<text xml:space="preserve" text-anchor="middle" x="394" y="-63.8" font-family="sans-serif" font-size="14.00">Locations</text>
</a>
</g>
</g>
<!-- #/domains/commerce/subdomains/sales/boundedcontexts/ordering&#45;&gt;#/domains/customer_experience/subdomains/geodata/boundedcontexts/locations -->
<g id="edge7" class="edge">
<title>#/domains/commerce/subdomains/sales/boundedcontexts/ordering&#45;&gt;#/domains/customer_experience/subdomains/geodata/boundedcontexts/locations</title>
<path fill="none" stroke="black" d="M281.47,-190.65C293.28,-181.34 306.04,-170.65 317,-160 333.41,-144.06 350,-124.92 363.56,-108.32"/>
<polygon fill="black" stroke="black" points="366.26,-110.55 369.81,-100.57 360.81,-106.16 366.26,-110.55"/>
<g id="a_edge7&#45;headlabel"><a xlink:title="open&#45;host&#45;service">
<text xml:space="preserve" text-anchor="middle" x="370.76" y="-96.39" font-family="sans-serif" font-size="10.00">OHS</text>
</a>
</g>
<g id="a_edge7&#45;taillabel"><a xlink:title="anti&#45;corruption&#45;layer">
<text xml:space="preserve" text-anchor="middle" x="281.47" y="-187.65" font-family="sans-serif" font-size="10.00">ACL</text>
</a>
</g>
</g>
<!-- #/domains/integration/subdomains/edge/boundedcontexts/api_gateway -->
<g id="node4" class="node">
<title>#/domains/integration/subdomains/edge/boundedcontexts/api_gateway</title>
<g id="a_node4"><a xlink:title="Ocelot + Aggregators (Web &amp; Mobile Shopping)">
<polygon fill="white" stroke="black" points="323.32,-452.1 326.84,-452.3 330.33,-452.59 333.76,-452.98 337.13,-453.47 340.42,-454.05 343.63,-454.73 346.72,-455.5 349.71,-456.35 352.56,-457.29 355.28,-458.32 357.85,-459.43 360.27,-460.62 362.53,-461.88 364.62,-463.21 366.53,-464.61 368.26,-466.08 369.81,-467.6 371.17,-469.18 372.35,-470.82 373.34,-472.5 374.14,-474.22 374.75,-475.98 375.18,-477.77 375.42,-479.59 375.49,-481.44 375.38,-483.3 375.1,-485.17 374.66,-487.06 374.06,-488.94 373.31,-490.83 372.41,-492.7 371.38,-494.56 370.22,-496.41 368.94,-498.23 367.54,-500.02 366.03,-501.78 364.43,-503.5 362.74,-505.18 360.96,-506.82 359.11,-508.4 357.19,-509.92 355.21,-511.39 353.17,-512.79 351.09,-514.12 348.96,-515.38 346.79,-516.57 344.58,-517.68 342.35,-518.71 340.1,-519.65 337.82,-520.5 335.52,-521.27 333.21,-521.95 330.89,-522.53 328.56,-523.02 326.22,-523.41 323.88,-523.7 321.53,-523.9 319.18,-524 316.82,-524 314.47,-523.9 312.12,-523.7 309.78,-523.41 307.44,-523.02 305.11,-522.53 302.79,-521.95 300.48,-521.27 298.18,-520.5 295.9,-519.65 293.65,-518.71 291.42,-517.68 289.21,-516.57 287.04,-515.38 284.91,-514.12 282.83,-512.79 280.79,-511.39 278.81,-509.92 276.89,-508.4 275.04,-506.82 273.26,-505.18 271.57,-503.5 269.97,-501.78 268.46,-500.02 267.06,-498.23 265.78,-496.41 264.62,-494.56 263.59,-492.7 262.69,-490.83 261.94,-488.94 261.34,-487.06 260.9,-485.17 260.62,-483.3 260.51,-481.44 260.58,-479.59 260.82,-477.77 261.25,-475.98 261.86,-474.22 262.66,-472.5 263.65,-470.82 264.83,-469.18 266.19,-467.6 267.74,-466.08 269.47,-464.61 271.38,-463.21 273.47,-461.88 275.73,-460.62 278.15,-459.43 280.72,-458.32 283.44,-457.29 286.29,-456.35 289.28,-455.5 292.37,-454.73 295.58,-454.05 298.87,-453.47 302.24,-452.98 305.67,-452.59 309.16,-452.3 312.68,-452.1 316.22,-452 319.78,-452 323.32,-452.1"/>
<text xml:space="preserve" text-anchor="middle" x="318" y="-483.8" font-family="sans-serif" font-size="14.00">ApiGateway</text>
</a>
</g>
</g>
<!-- #/domains/integration/subdomains/edge/boundedcontexts/api_gateway&#45;&gt;#/domains/commerce/subdomains/shopping/boundedcontexts/basket -->
<g id="edge1" class="edge">
<title>#/domains/integration/subdomains/edge/boundedcontexts/api_gateway&#45;&gt;#/domains/commerce/subdomains/shopping/boundedcontexts/basket</title>
<path fill="none" stroke="black" d="M318,-452.21C318,-431.65 318,-405.36 318,-383.09"/>
<polygon fill="black" stroke="black" points="321.5,-383.37 318,-373.37 314.5,-383.37 321.5,-383.37"/>
<g id="a_edge1&#45;headlabel"><a xlink:title="open&#45;host&#45;service">
<text xml:space="preserve" text-anchor="middle" x="318" y="-368.86" font-family="sans-serif" font-size="10.00">OHS</text>
</a>
</g>
<g id="a_edge1&#45;taillabel"><a xlink:title="conformist">
<text xml:space="preserve" text-anchor="middle" x="318" y="-449.21" font-family="sans-serif" font-size="10.00">C</text>
</a>
</g>
</g>
</g>
</svg>
