<?xml version="1.0" encoding="UTF-8" standalone="no"?>
<?xml-stylesheet href="data:text/css,.graph%20text%20%7B%0A%09font-family%3A%20sans-serif%3B%0A%09stroke%3A%20white%3B%0A%09paint-order%3A%20stroke%3B%0A%09stroke-width%3A%203%3B%0A%09stroke-linecap%3A%20square%3B%0A%7D%0A%0A.namespace%20polygon%20%7B%0A%09fill-opacity%3A%200.2%3B%0A%09stroke%3A%20none%3B%0A%7D%0A" type="text/css"?>
<!DOCTYPE svg PUBLIC "-//W3C//DTD SVG 1.1//EN"
 "http://www.w3.org/Graphics/SVG/1.1/DTD/svg11.dtd">
<!-- Generated by graphviz version 13.1.2 (0)
 -->
<!-- Pages: 1 -->
<svg width="620pt" height="544pt"
 viewBox="0.00 0.00 620.00 544.00" xmlns="http://www.w3.org/2000/svg" xmlns:xlink="http://www.w3.org/1999/xlink">
<g id="graph0" class="graph" transform="scale(1 1) rotate(0) translate(4 540)">
<polygon fill="white" stroke="none" points="-4,4 -4,-540 616,-540 616,4 -4,4"/>
<g id="clust1" class="cluster namespace">
<title>e_shop_on_containers</title>
<polygon fill="lightgrey" stroke="lightgrey" points="8,-8 8,-528 604,-528 604,-8 8,-8"/>
<text xml:space="preserve" text-anchor="middle" x="306" y="-515" font-family="sans-serif" font-size="10.00">eShopOnContainers</text>
</g>
<g id="clust2" class="cluster namespace">
<title>#/domains/customer_experience</title>
<polygon fill="lightgrey" stroke="lightgrey" points="28,-28 28,-244 584,-244 584,-28 28,-28"/>
<text xml:space="preserve" text-anchor="middle" x="306" y="-231" font-family="sans-serif" font-size="10.00">CustomerExperience</text>
</g>
<g id="clust3" class="cluster namespace">
<title>#/domains/customer_experience/subdomains/promotions</title>
<polygon fill="lightgrey" stroke="lightgrey" points="48,-48 48,-204 298,-204 298,-48 48,-48"/>
<text xml:space="preserve" text-anchor="middle" x="173" y="-191" font-family="sans-serif" font-size="10.00">Promotions</text>
</g>
<g id="clust4" class="cluster namespace">
<title>#/domains/customer_experience/subdomains/promotions/boundedcontexts/marketing</title>
<polygon fill="lightgrey" stroke="lightgrey" points="68,-68 68,-164 278,-164 278,-68 68,-68"/>
<text xml:space="preserve" text-anchor="middle" x="173" y="-151" font-family="sans-serif" font-size="10.00">Marketing</text>
</g>
<g id="clust5" class="cluster namespace">
<title>#/domains/customer_experience/subdomains/geodata</title>
<polygon fill="lightgrey" stroke="lightgrey" points="318,-48 318,-204 564,-204 564,-48 318,-48"/>
<text xml:space="preserve" text-anchor="middle" x="441" y="-191" font-family="sans-serif" font-size="10.00">Geodata</text>
</g>
<g id="clust6" class="cluster namespace">
<title>#/domains/customer_experience/subdomains/geodata/boundedcontexts/locations</title>
<polygon fill="lightgrey" stroke="lightgrey" points="338,-68 338,-164 544,-164 544,-68 338,-68"/>
<text xml:space="preserve" text-anchor="middle" x="441" y="-151" font-family="sans-serif" font-size="10.00">Locations</text>
</g>
<g id="clust7" class="cluster namespace">
<title>#/domains/integration</title>
<polygon fill="lightgrey" stroke="lightgrey" points="106,-272 106,-488 482,-488 482,-272 106,-272"/>
<text xml:space="preserve" text-anchor="middle" x="294" y="-475" font-family="sans-serif" font-size="10.00">Integration</text>
</g>
<g id="clust8" class="cluster namespace">
<title>#/domains/integration/subdomains/edge</title>
<polygon fill="lightgrey" stroke="lightgrey" points="126,-292 126,-448 462,-448 462,-292 126,-292"/>
<text xml:space="preserve" text-anchor="middle" x="294" y="-435" font-family="sans-serif" font-size="10.00">Edge</text>
</g>
<g id="clust9" class="cluster namespace">
<title>#/domains/integration/subdomains/edge/boundedcontexts/api_gateway</title>
<polygon fill="lightgrey" stroke="lightgrey" points="146,-312 146,-408 442,-408 442,-312 146,-312"/>
<text xml:space="preserve" text-anchor="middle" x="294" y="-395" font-family="sans-serif" font-size="10.00">ApiGateway</text>
</g>
<!-- #/domains/customer_experience/subdomains/promotions/boundedcontexts/marketing/services/marketing_service -->
<g id="node1" class="node">
<title>#/domains/customer_experience/subdomains/promotions/boundedcontexts/marketing/services/marketing_service</title>
<g id="a_node1"><a xlink:title="Apply campaigns/discounts">
<polygon fill="white" stroke="black" points="180.91,-88.05 186.14,-88.15 191.32,-88.3 196.42,-88.49 201.43,-88.74 206.32,-89.03 211.08,-89.36 215.69,-89.75 220.12,-90.18 224.36,-90.65 228.4,-91.16 232.23,-91.71 235.82,-92.31 239.17,-92.94 242.27,-93.61 245.12,-94.31 247.69,-95.04 249.99,-95.8 252.02,-96.59 253.77,-97.41 255.24,-98.25 256.42,-99.11 257.33,-99.99 257.97,-100.89 258.33,-101.8 258.43,-102.72 258.27,-103.65 257.85,-104.59 257.2,-105.53 256.31,-106.47 255.19,-107.41 253.86,-108.35 252.33,-109.28 250.6,-110.2 248.69,-111.11 246.62,-112.01 244.38,-112.89 242,-113.75 239.49,-114.59 236.85,-115.41 234.1,-116.2 231.24,-116.96 228.3,-117.69 225.27,-118.39 222.17,-119.06 219,-119.69 215.78,-120.29 212.5,-120.84 209.19,-121.35 205.84,-121.82 202.45,-122.25 199.04,-122.64 195.61,-122.97 192.16,-123.26 188.69,-123.51 185.22,-123.7 181.73,-123.85 178.24,-123.95 174.75,-124 171.25,-124 167.76,-123.95 164.27,-123.85 160.78,-123.7 157.31,-123.51 153.84,-123.26 150.39,-122.97 146.96,-122.64 143.55,-122.25 140.16,-121.82 136.81,-121.35 133.5,-120.84 130.22,-120.29 127,-119.69 123.83,-119.06 120.73,-118.39 117.7,-117.69 114.76,-116.96 111.9,-116.2 109.15,-115.41 106.51,-114.59 104,-113.75 101.62,-112.89 99.38,-112.01 97.31,-111.11 95.4,-110.2 93.67,-109.28 92.14,-108.35 90.81,-107.41 89.69,-106.47 88.8,-105.53 88.15,-104.59 87.73,-103.65 87.57,-102.72 87.67,-101.8 88.03,-100.89 88.67,-99.99 89.58,-99.11 90.76,-98.25 92.23,-97.41 93.98,-96.59 96.01,-95.8 98.31,-95.04 100.88,-94.31 103.73,-93.61 106.83,-92.94 110.18,-92.31 113.77,-91.71 117.6,-91.16 121.64,-90.65 125.88,-90.18 130.31,-89.75 134.92,-89.36 139.68,-89.03 144.57,-88.74 149.58,-88.49 154.68,-88.3 159.86,-88.15 165.09,-88.05 170.36,-88 175.64,-88 180.91,-88.05"/>
<text xml:space="preserve" text-anchor="middle" x="173" y="-101.8" font-family="sans-serif" font-size="14.00">MarketingService</text>
</a>
</g>
</g>
<!-- #/domains/customer_experience/subdomains/geodata/boundedcontexts/locations/services/locations_service -->
<g id="node2" class="node">
<title>#/domains/customer_experience/subdomains/geodata/boundedcontexts/locations/services/locations_service</title>
<g id="a_node2"><a xlink:title="Resolve/validate location data">
<polygon fill="white" stroke="black" points="448.69,-88.05 453.79,-88.15 458.83,-88.3 463.8,-88.49 468.67,-88.74 473.43,-89.03 478.06,-89.36 482.54,-89.75 486.86,-90.18 490.99,-90.65 494.92,-91.16 498.64,-91.71 502.14,-92.31 505.4,-92.94 508.42,-93.61 511.19,-94.31 513.69,-95.04 515.94,-95.8 517.91,-96.59 519.61,-97.41 521.04,-98.25 522.19,-99.11 523.08,-99.99 523.7,-100.89 524.05,-101.8 524.14,-102.72 523.99,-103.65 523.58,-104.59 522.95,-105.53 522.08,-106.47 520.99,-107.41 519.7,-108.35 518.2,-109.28 516.52,-110.2 514.67,-111.11 512.65,-112.01 510.47,-112.89 508.16,-113.75 505.71,-114.59 503.14,-115.41 500.46,-116.2 497.69,-116.96 494.82,-117.69 491.87,-118.39 488.85,-119.06 485.77,-119.69 482.63,-120.29 479.45,-120.84 476.22,-121.35 472.96,-121.82 469.66,-122.25 466.34,-122.64 463,-122.97 459.65,-123.26 456.27,-123.51 452.89,-123.7 449.5,-123.85 446.1,-123.95 442.7,-124 439.3,-124 435.9,-123.95 432.5,-123.85 429.11,-123.7 425.73,-123.51 422.35,-123.26 419,-122.97 415.66,-122.64 412.34,-122.25 409.04,-121.82 405.78,-121.35 402.55,-120.84 399.37,-120.29 396.23,-119.69 393.15,-119.06 390.13,-118.39 387.18,-117.69 384.31,-116.96 381.54,-116.2 378.86,-115.41 376.29,-114.59 373.84,-113.75 371.53,-112.89 369.35,-112.01 367.33,-111.11 365.48,-110.2 363.8,-109.28 362.3,-108.35 361.01,-107.41 359.92,-106.47 359.05,-105.53 358.42,-104.59 358.01,-103.65 357.86,-102.72 357.95,-101.8 358.3,-100.89 358.92,-99.99 359.81,-99.11 360.96,-98.25 362.39,-97.41 364.09,-96.59 366.06,-95.8 368.31,-95.04 370.81,-94.31 373.58,-93.61 376.6,-92.94 379.86,-92.31 383.36,-91.71 387.08,-91.16 391.01,-90.65 395.14,-90.18 399.46,-89.75 403.94,-89.36 408.57,-89.03 413.33,-88.74 418.2,-88.49 423.17,-88.3 428.21,-88.15 433.31,-88.05 438.43,-88 443.57,-88 448.69,-88.05"/>
<text xml:space="preserve" text-anchor="middle" x="441" y="-101.8" font-family="sans-serif" font-size="14.00">LocationsService</text>
</a>
</g>
</g>
<!-- #/domains/integration/subdomains/edge/boundedcontexts/api_gateway/services/mobile_shopping_aggregator -->
<g id="node3" class="node">
<title>#/domains/integration/subdomains/edge/boundedcontexts/api_gateway/services/mobile_shopping_aggregator</title>
<g id="a_node3"><a xlink:title="Ocelot + Aggregators (Web &amp; Mobile Shopping)">
<polygon fill="white" stroke="black" points="305.82,-332.05 313.64,-332.15 321.39,-332.3 329.02,-332.49 336.51,-332.74 343.82,-333.03 350.93,-333.36 357.82,-333.75 364.44,-334.18 370.79,-334.65 376.83,-335.16 382.55,-335.71 387.92,-336.31 392.93,-336.94 397.57,-337.61 401.82,-338.31 405.67,-339.04 409.11,-339.8 412.14,-340.59 414.75,-341.41 416.95,-342.25 418.72,-343.11 420.08,-343.99 421.03,-344.89 421.57,-345.8 421.72,-346.72 421.48,-347.65 420.86,-348.59 419.88,-349.53 418.55,-350.47 416.88,-351.41 414.89,-352.35 412.6,-353.28 410.02,-354.2 407.16,-355.11 404.06,-356.01 400.72,-356.89 397.16,-357.75 393.4,-358.59 389.46,-359.41 385.34,-360.2 381.08,-360.96 376.67,-361.69 372.15,-362.39 367.51,-363.06 362.77,-363.69 357.95,-364.29 353.06,-364.84 348.1,-365.35 343.09,-365.82 338.03,-366.25 332.93,-366.64 327.8,-366.97 322.64,-367.26 317.46,-367.51 312.26,-367.7 307.05,-367.85 301.84,-367.95 296.61,-368 291.39,-368 286.16,-367.95 280.95,-367.85 275.74,-367.7 270.54,-367.51 265.36,-367.26 260.2,-366.97 255.07,-366.64 249.97,-366.25 244.91,-365.82 239.9,-365.35 234.94,-364.84 230.05,-364.29 225.23,-363.69 220.49,-363.06 215.85,-362.39 211.33,-361.69 206.92,-360.96 202.66,-360.2 198.54,-359.41 194.6,-358.59 190.84,-357.75 187.28,-356.89 183.94,-356.01 180.84,-355.11 177.98,-354.2 175.4,-353.28 173.11,-352.35 171.12,-351.41 169.45,-350.47 168.12,-349.53 167.14,-348.59 166.52,-347.65 166.28,-346.72 166.43,-345.8 166.97,-344.89 167.92,-343.99 169.28,-343.11 171.05,-342.25 173.25,-341.41 175.86,-340.59 178.89,-339.8 182.33,-339.04 186.18,-338.31 190.43,-337.61 195.07,-336.94 200.08,-336.31 205.45,-335.71 211.17,-335.16 217.21,-334.65 223.56,-334.18 230.18,-333.75 237.07,-333.36 244.18,-333.03 251.49,-332.74 258.98,-332.49 266.61,-332.3 274.36,-332.15 282.18,-332.05 290.05,-332 297.95,-332 305.82,-332.05"/>
<text xml:space="preserve" text-anchor="middle" x="294" y="-345.8" font-family="sans-serif" font-size="14.00">MobileShoppingAggregator</text>
</a>
</g>
</g>
<!-- #/domains/integration/subdomains/edge/boundedcontexts/api_gateway/services/mobile_shopping_aggregator&#45;&gt;#/domains/customer_experience/subdomains/promotions/boundedcontexts/marketing/services/marketing_service -->
<g id="edge1" class="edge">
<title>#/domains/integration/subdomains/edge/boundedcontexts/api_gateway/services/mobile_shopping_aggregator&#45;&gt;#/domains/customer_experience/subdomains/promotions/boundedcontexts/marketing/services/marketing_service</title>
<path fill="none" stroke="black" d="M285.3,-331.6C264.5,-290 211.77,-184.54 186.68,-134.35"/>
<polygon fill="black" stroke="black" points="189.9,-132.98 182.3,-125.6 183.64,-136.11 189.9,-132.98"/>
<text xml:space="preserve" text-anchor="middle" x="286.41" y="-255" font-family="sans-serif" font-size="10.00">ApplyCampaigns</text>
<g id="a_edge1&#45;headlabel"><a xlink:title="open&#45;host&#45;service">
<text xml:space="preserve" text-anchor="middle" x="181.62" y="-121.25" font-family="sans-serif" font-size="10.00">OHS</text>
</a>
</g>
<g id="a_edge1&#45;taillabel"><a xlink:title="conformist">
<text xml:space="preserve" text-anchor="middle" x="285.3" y="-328.6" font-family="sans-serif" font-size="10.00">C</text>
</a>
</g>
</g>
<!-- #/domains/integration/subdomains/edge/boundedcontexts/api_gateway/services/mobile_shopping_aggregator&#45;&gt;#/domains/customer_experience/subdomains/geodata/boundedcontexts/locations/services/locations_service -->
<g id="edge2" class="edge">
<title>#/domains/integration/subdomains/edge/boundedcontexts/api_gateway/services/mobile_shopping_aggregator&#45;&gt;#/domains/customer_experience/subdomains/geodata/boundedcontexts/locations/services/locations_service</title>
<path fill="none" stroke="black" d="M304.57,-331.6C329.89,-289.91 394.17,-184.1 424.58,-134.04"/>
<polygon fill="black" stroke="black" points="427.54,-135.9 429.74,-125.54 421.56,-132.27 427.54,-135.9"/>
<text xml:space="preserve" text-anchor="middle" x="383.89" y="-255" font-family="sans-serif" font-size="10.00">ResolveLocation</text>
<g id="a_edge2&#45;headlabel"><a xlink:title="open&#45;host&#45;service">
<text xml:space="preserve" text-anchor="middle" x="430.52" y="-121.25" font-family="sans-serif" font-size="10.00">OHS</text>
</a>
</g>
<g id="a_edge2&#45;taillabel"><a xlink:title="conformist">
<text xml:space="preserve" text-anchor="middle" x="304.57" y="-328.6" font-family="sans-serif" font-size="10.00">C</text>
</a>
</g>
</g>
</g>
</svg>
