<?xml version="1.0" encoding="UTF-8" standalone="no"?>
<?xml-stylesheet href="data:text/css,.graph%20text%20%7B%0A%09font-family%3A%20sans-serif%3B%0A%09stroke%3A%20white%3B%0A%09paint-order%3A%20stroke%3B%0A%09stroke-width%3A%203%3B%0A%09stroke-linecap%3A%20square%3B%0A%7D%0A%0A.namespace%20polygon%20%7B%0A%09fill-opacity%3A%200.2%3B%0A%09stroke%3A%20none%3B%0A%7D%0A" type="text/css"?>
<!DOCTYPE svg PUBLIC "-//W3C//DTD SVG 1.1//EN"
 "http://www.w3.org/Graphics/SVG/1.1/DTD/svg11.dtd">
<!-- Generated by graphviz version 13.1.2 (0)
 -->
<!-- Pages: 1 -->
<svg width="461pt" height="556pt"
 viewBox="0.00 0.00 461.00 556.00" xmlns="http://www.w3.org/2000/svg" xmlns:xlink="http://www.w3.org/1999/xlink">
<g id="graph0" class="graph" transform="scale(1 1) rotate(0) translate(4 552)">
<polygon fill="white" stroke="none" points="-4,4 -4,-552 457,-552 457,4 -4,4"/>
<g id="clust1" class="cluster namespace">
<title>swagger_petstore_(v3)</title>
<polygon fill="lightgrey" stroke="lightgrey" points="8,-8 8,-540 445,-540 445,-8 8,-8"/>
<text xml:space="preserve" text-anchor="middle" x="226.5" y="-527" font-family="sans-serif" font-size="10.00">Swagger Petstore (v3)</text>
</g>
<g id="clust2" class="cluster namespace">
<title>#/domains/petstore_commerce</title>
<polygon fill="lightgrey" stroke="lightgrey" points="28,-28 28,-500 425,-500 425,-28 28,-28"/>
<text xml:space="preserve" text-anchor="middle" x="226.5" y="-487" font-family="sans-serif" font-size="10.00">Petstore Commerce</text>
</g>
<g id="clust3" class="cluster namespace">
<title>#/domains/petstore_commerce/subdomains/catalog</title>
<polygon fill="lightgrey" stroke="lightgrey" points="128,-48 128,-240 322,-240 322,-48 128,-48"/>
<text xml:space="preserve" text-anchor="middle" x="225" y="-227" font-family="sans-serif" font-size="10.00">Catalog</text>
</g>
<g id="clust4" class="cluster namespace">
<title>#/domains/petstore_commerce/subdomains/catalog/boundedcontexts/catalog_bc</title>
<polygon fill="lightgrey" stroke="lightgrey" points="148,-68 148,-200 302,-200 302,-68 148,-68"/>
<text xml:space="preserve" text-anchor="middle" x="225" y="-187" font-family="sans-serif" font-size="10.00">Catalog BC</text>
</g>
<g id="clust5" class="cluster namespace">
<title>#/domains/petstore_commerce/subdomains/inventory</title>
<polygon fill="lightgrey" stroke="lightgrey" points="112,-268 112,-460 338,-460 338,-268 112,-268"/>
<text xml:space="preserve" text-anchor="middle" x="225" y="-447" font-family="sans-serif" font-size="10.00">Inventory</text>
</g>
<g id="clust6" class="cluster namespace">
<title>#/domains/petstore_commerce/subdomains/inventory/boundedcontexts/inventory_bc</title>
<polygon fill="lightgrey" stroke="lightgrey" points="132,-288 132,-420 318,-420 318,-288 132,-288"/>
<text xml:space="preserve" text-anchor="middle" x="225" y="-407" font-family="sans-serif" font-size="10.00">Inventory BC</text>
</g>
<!-- #/domains/petstore_commerce/subdomains/catalog/boundedcontexts/catalog_bc/aggregates/pet -->
<g id="node1" class="node">
<title>#/domains/petstore_commerce/subdomains/catalog/boundedcontexts/catalog_bc/aggregates/pet</title>
<g id="a_node1"><a xlink:title="A pet listed in the store">
<polygon fill="white" stroke="black" points="230.32,-88.1 233.84,-88.3 237.33,-88.59 240.76,-88.98 244.13,-89.47 247.42,-90.05 250.63,-90.73 253.72,-91.5 256.71,-92.35 259.56,-93.29 262.28,-94.32 264.85,-95.43 267.27,-96.62 269.53,-97.88 271.62,-99.21 273.53,-100.61 275.26,-102.08 276.81,-103.6 278.17,-105.18 279.35,-106.82 280.34,-108.5 281.14,-110.22 281.75,-111.98 282.18,-113.77 282.42,-115.59 282.49,-117.44 282.38,-119.3 282.1,-121.17 281.66,-123.06 281.06,-124.94 280.31,-126.83 279.41,-128.7 278.38,-130.56 277.22,-132.41 275.94,-134.23 274.54,-136.02 273.03,-137.78 271.43,-139.5 269.74,-141.18 267.96,-142.82 266.11,-144.4 264.19,-145.92 262.21,-147.39 260.17,-148.79 258.09,-150.12 255.96,-151.38 253.79,-152.57 251.58,-153.68 249.35,-154.71 247.1,-155.65 244.82,-156.5 242.52,-157.27 240.21,-157.95 237.89,-158.53 235.56,-159.02 233.22,-159.41 230.88,-159.7 228.53,-159.9 226.18,-160 223.82,-160 221.47,-159.9 219.12,-159.7 216.78,-159.41 214.44,-159.02 212.11,-158.53 209.79,-157.95 207.48,-157.27 205.18,-156.5 202.9,-155.65 200.65,-154.71 198.42,-153.68 196.21,-152.57 194.04,-151.38 191.91,-150.12 189.83,-148.79 187.79,-147.39 185.81,-145.92 183.89,-144.4 182.04,-142.82 180.26,-141.18 178.57,-139.5 176.97,-137.78 175.46,-136.02 174.06,-134.23 172.78,-132.41 171.62,-130.56 170.59,-128.7 169.69,-126.83 168.94,-124.94 168.34,-123.06 167.9,-121.17 167.62,-119.3 167.51,-117.44 167.58,-115.59 167.82,-113.77 168.25,-111.98 168.86,-110.22 169.66,-108.5 170.65,-106.82 171.83,-105.18 173.19,-103.6 174.74,-102.08 176.47,-100.61 178.38,-99.21 180.47,-97.88 182.73,-96.62 185.15,-95.43 187.72,-94.32 190.44,-93.29 193.29,-92.35 196.28,-91.5 199.37,-90.73 202.58,-90.05 205.87,-89.47 209.24,-88.98 212.67,-88.59 216.16,-88.3 219.68,-88.1 223.22,-88 226.78,-88 230.32,-88.1"/>
<text xml:space="preserve" text-anchor="middle" x="225" y="-119.8" font-family="sans-serif" font-size="14.00">Pet</text>
</a>
</g>
</g>
<!-- #/domains/petstore_commerce/subdomains/inventory/boundedcontexts/inventory_bc/aggregates/inventory_projection -->
<g id="node2" class="node">
<title>#/domains/petstore_commerce/subdomains/inventory/boundedcontexts/inventory_bc/aggregates/inventory_projection</title>
<g id="a_node2"><a xlink:title="Projection for /store/inventory (status→count)">
<polygon fill="white" stroke="black" points="231.72,-308.1 236.16,-308.3 240.56,-308.59 244.9,-308.98 249.16,-309.47 253.31,-310.05 257.36,-310.73 261.27,-311.5 265.03,-312.35 268.64,-313.29 272.07,-314.32 275.32,-315.43 278.37,-316.62 281.22,-317.88 283.86,-319.21 286.27,-320.61 288.46,-322.08 290.42,-323.6 292.14,-325.18 293.62,-326.82 294.87,-328.5 295.88,-330.22 296.65,-331.98 297.19,-333.77 297.5,-335.59 297.58,-337.44 297.45,-339.3 297.09,-341.17 296.54,-343.06 295.78,-344.94 294.83,-346.83 293.7,-348.7 292.4,-350.56 290.93,-352.41 289.31,-354.23 287.55,-356.02 285.65,-357.78 283.63,-359.5 281.49,-361.18 279.25,-362.82 276.91,-364.4 274.49,-365.92 271.98,-367.39 269.41,-368.79 266.77,-370.12 264.08,-371.38 261.35,-372.57 258.56,-373.68 255.75,-374.71 252.9,-375.65 250.02,-376.5 247.13,-377.27 244.21,-377.95 241.28,-378.53 238.33,-379.02 235.38,-379.41 232.42,-379.7 229.45,-379.9 226.48,-380 223.52,-380 220.55,-379.9 217.58,-379.7 214.62,-379.41 211.67,-379.02 208.72,-378.53 205.79,-377.95 202.87,-377.27 199.98,-376.5 197.1,-375.65 194.25,-374.71 191.44,-373.68 188.65,-372.57 185.92,-371.38 183.23,-370.12 180.59,-368.79 178.02,-367.39 175.51,-365.92 173.09,-364.4 170.75,-362.82 168.51,-361.18 166.37,-359.5 164.35,-357.78 162.45,-356.02 160.69,-354.23 159.07,-352.41 157.6,-350.56 156.3,-348.7 155.17,-346.83 154.22,-344.94 153.46,-343.06 152.91,-341.17 152.55,-339.3 152.42,-337.44 152.5,-335.59 152.81,-333.77 153.35,-331.98 154.12,-330.22 155.13,-328.5 156.38,-326.82 157.86,-325.18 159.58,-323.6 161.54,-322.08 163.73,-320.61 166.14,-319.21 168.78,-317.88 171.63,-316.62 174.68,-315.43 177.93,-314.32 181.36,-313.29 184.97,-312.35 188.73,-311.5 192.64,-310.73 196.69,-310.05 200.84,-309.47 205.1,-308.98 209.44,-308.59 213.84,-308.3 218.28,-308.1 222.76,-308 227.24,-308 231.72,-308.1"/>
<text xml:space="preserve" text-anchor="middle" x="225" y="-339.8" font-family="sans-serif" font-size="14.00">InventoryProjection</text>
</a>
</g>
</g>
<!-- #/domains/petstore_commerce/subdomains/inventory/boundedcontexts/inventory_bc/aggregates/inventory_projection&#45;&gt;#/domains/petstore_commerce/subdomains/catalog/boundedcontexts/catalog_bc/aggregates/pet -->
<g id="edge1" class="edge">
<title>#/domains/petstore_commerce/subdomains/inventory/boundedcontexts/inventory_bc/aggregates/inventory_projection&#45;&gt;#/domains/petstore_commerce/subdomains/catalog/boundedcontexts/catalog_bc/aggregates/pet</title>
<path fill="none" stroke="black" d="M164.73,-319.5C139.15,-306.17 111.94,-286.71 97.46,-260 73.09,-215.07 127.8,-174.02 173,-149.28"/>
<polygon fill="black" stroke="black" points="174.52,-152.43 181.72,-144.65 171.24,-146.25 174.52,-152.43"/>
<text xml:space="preserve" text-anchor="middle" x="125.23" y="-251" font-family="sans-serif" font-size="10.00">PetRegistered</text>
<g id="a_edge1&#45;headlabel"><a xlink:title="published&#45;language">
<text xml:space="preserve" text-anchor="middle" x="183.05" y="-140.95" font-family="sans-serif" font-size="10.00">PL</text>
</a>
</g>
<g id="a_edge1&#45;taillabel"><a xlink:title="conformist">
<text xml:space="preserve" text-anchor="middle" x="164.73" y="-316.5" font-family="sans-serif" font-size="10.00">C</text>
</a>
</g>
</g>
<!-- #/domains/petstore_commerce/subdomains/inventory/boundedcontexts/inventory_bc/aggregates/inventory_projection&#45;&gt;#/domains/petstore_commerce/subdomains/catalog/boundedcontexts/catalog_bc/aggregates/pet -->
<g id="edge2" class="edge">
<title>#/domains/petstore_commerce/subdomains/inventory/boundedcontexts/inventory_bc/aggregates/inventory_projection&#45;&gt;#/domains/petstore_commerce/subdomains/catalog/boundedcontexts/catalog_bc/aggregates/pet</title>
<path fill="none" stroke="black" d="M220.47,-307.93C218.77,-293.16 217.06,-275.77 216.23,-260 214.68,-230.61 216.75,-197.65 219.26,-171.65"/>
<polygon fill="black" stroke="black" points="222.74,-172.04 220.29,-161.74 215.78,-171.33 222.74,-172.04"/>
<text xml:space="preserve" text-anchor="middle" x="252.61" y="-251" font-family="sans-serif" font-size="10.00">PetStatusChanged</text>
<g id="a_edge2&#45;headlabel"><a xlink:title="published&#45;language">
<text xml:space="preserve" text-anchor="middle" x="220.44" y="-157.23" font-family="sans-serif" font-size="10.00">PL</text>
</a>
</g>
<g id="a_edge2&#45;taillabel"><a xlink:title="conformist">
<text xml:space="preserve" text-anchor="middle" x="220.47" y="-304.93" font-family="sans-serif" font-size="10.00">C</text>
</a>
</g>
</g>
<!-- #/domains/petstore_commerce/subdomains/inventory/boundedcontexts/inventory_bc/aggregates/inventory_projection&#45;&gt;#/domains/petstore_commerce/subdomains/catalog/boundedcontexts/catalog_bc/aggregates/pet -->
<g id="edge3" class="edge">
<title>#/domains/petstore_commerce/subdomains/inventory/boundedcontexts/inventory_bc/aggregates/inventory_projection&#45;&gt;#/domains/petstore_commerce/subdomains/catalog/boundedcontexts/catalog_bc/aggregates/pet</title>
<path fill="none" stroke="black" d="M269.27,-313.2C288.79,-296.05 305.93,-272.98 299,-248 290.5,-217.4 272.13,-186.78 255.81,-163.75"/>
<polygon fill="black" stroke="black" points="258.82,-161.94 250.11,-155.91 253.16,-166.05 258.82,-161.94"/>
<text xml:space="preserve" text-anchor="middle" x="322.45" y="-251" font-family="sans-serif" font-size="10.00">PetDeleted</text>
<g id="a_edge3&#45;headlabel"><a xlink:title="published&#45;language">
<text xml:space="preserve" text-anchor="middle" x="249.22" y="-151.68" font-family="sans-serif" font-size="10.00">PL</text>
</a>
</g>
<g id="a_edge3&#45;taillabel"><a xlink:title="conformist">
<text xml:space="preserve" text-anchor="middle" x="269.27" y="-310.2" font-family="sans-serif" font-size="10.00">C</text>
</a>
</g>
</g>
</g>
</svg>
