<?xml version="1.0" encoding="UTF-8" standalone="no"?>
<?xml-stylesheet href="data:text/css,.graph%20text%20%7B%0A%09font-family%3A%20sans-serif%3B%0A%09stroke%3A%20white%3B%0A%09paint-order%3A%20stroke%3B%0A%09stroke-width%3A%203%3B%0A%09stroke-linecap%3A%20square%3B%0A%7D%0A%0A.namespace%20polygon%20%7B%0A%09fill-opacity%3A%200.2%3B%0A%09stroke%3A%20none%3B%0A%7D%0A" type="text/css"?>
<!DOCTYPE svg PUBLIC "-//W3C//DTD SVG 1.1//EN"
 "http://www.w3.org/Graphics/SVG/1.1/DTD/svg11.dtd">
<!-- Generated by graphviz version 13.1.2 (0)
 -->
<!-- Pages: 1 -->
<svg width="910pt" height="972pt"
 viewBox="0.00 0.00 910.00 972.00" xmlns="http://www.w3.org/2000/svg" xmlns:xlink="http://www.w3.org/1999/xlink">
<g id="graph0" class="graph" transform="scale(1 1) rotate(0) translate(4 968)">
<polygon fill="white" stroke="none" points="-4,4 -4,-968 906,-968 906,4 -4,4"/>
<g id="clust1" class="cluster namespace">
<title>e_shop_on_containers</title>
<polygon fill="lightgrey" stroke="lightgrey" points="8,-8 8,-956 894,-956 894,-8 8,-8"/>
<text xml:space="preserve" text-anchor="middle" x="451" y="-943" font-family="sans-serif" font-size="10.00">eShopOnContainers</text>
</g>
<g id="clust2" class="cluster namespace">
<title>#/domains/commerce</title>
<polygon fill="lightgrey" stroke="lightgrey" points="86,-272 86,-672 590,-672 590,-272 86,-272"/>
<text xml:space="preserve" text-anchor="middle" x="338" y="-659" font-family="sans-serif" font-size="10.00">Commerce</text>
</g>
<g id="clust3" class="cluster namespace">
<title>#/domains/commerce/subdomains/shopping</title>
<polygon fill="lightgrey" stroke="lightgrey" points="211,-476 211,-632 433,-632 433,-476 211,-476"/>
<text xml:space="preserve" text-anchor="middle" x="322" y="-619" font-family="sans-serif" font-size="10.00">Shopping</text>
</g>
<g id="clust4" class="cluster namespace">
<title>#/domains/commerce/subdomains/shopping/boundedcontexts/basket</title>
<polygon fill="lightgrey" stroke="lightgrey" points="231,-496 231,-592 413,-592 413,-496 231,-496"/>
<text xml:space="preserve" text-anchor="middle" x="322" y="-579" font-family="sans-serif" font-size="10.00">Basket</text>
</g>
<g id="clust5" class="cluster namespace">
<title>#/domains/commerce/subdomains/cataloging</title>
<polygon fill="lightgrey" stroke="lightgrey" points="106,-292 106,-448 336,-448 336,-292 106,-292"/>
<text xml:space="preserve" text-anchor="middle" x="221" y="-435" font-family="sans-serif" font-size="10.00">Cataloging</text>
</g>
<g id="clust6" class="cluster namespace">
<title>#/domains/commerce/subdomains/cataloging/boundedcontexts/catalog</title>
<polygon fill="lightgrey" stroke="lightgrey" points="126,-312 126,-408 316,-408 316,-312 126,-312"/>
<text xml:space="preserve" text-anchor="middle" x="221" y="-395" font-family="sans-serif" font-size="10.00">Catalog</text>
</g>
<g id="clust7" class="cluster namespace">
<title>#/domains/commerce/subdomains/sales</title>
<polygon fill="lightgrey" stroke="lightgrey" points="356,-292 356,-448 570,-448 570,-292 356,-292"/>
<text xml:space="preserve" text-anchor="middle" x="463" y="-435" font-family="sans-serif" font-size="10.00">Sales</text>
</g>
<g id="clust8" class="cluster namespace">
<title>#/domains/commerce/subdomains/sales/boundedcontexts/ordering</title>
<polygon fill="lightgrey" stroke="lightgrey" points="376,-312 376,-408 550,-408 550,-312 376,-312"/>
<text xml:space="preserve" text-anchor="middle" x="463" y="-395" font-family="sans-serif" font-size="10.00">Ordering</text>
</g>
<g id="clust9" class="cluster namespace">
<title>#/domains/integration</title>
<polygon fill="lightgrey" stroke="lightgrey" points="334,-700 334,-916 688,-916 688,-700 334,-700"/>
<text xml:space="preserve" text-anchor="middle" x="511" y="-903" font-family="sans-serif" font-size="10.00">Integration</text>
</g>
<g id="clust10" class="cluster namespace">
<title>#/domains/integration/subdomains/edge</title>
<polygon fill="lightgrey" stroke="lightgrey" points="354,-720 354,-876 668,-876 668,-720 354,-720"/>
<text xml:space="preserve" text-anchor="middle" x="511" y="-863" font-family="sans-serif" font-size="10.00">Edge</text>
</g>
<g id="clust11" class="cluster namespace">
<title>#/domains/integration/subdomains/edge/boundedcontexts/api_gateway</title>
<polygon fill="lightgrey" stroke="lightgrey" points="374,-740 374,-836 648,-836 648,-740 374,-740"/>
<text xml:space="preserve" text-anchor="middle" x="511" y="-823" font-family="sans-serif" font-size="10.00">ApiGateway</text>
</g>
<g id="clust12" class="cluster namespace">
<title>#/domains/identity&amp;access</title>
<polygon fill="lightgrey" stroke="lightgrey" points="28,-28 28,-244 298,-244 298,-28 28,-28"/>
<text xml:space="preserve" text-anchor="middle" x="163" y="-231" font-family="sans-serif" font-size="10.00">Identity&amp;Access</text>
</g>
<g id="clust13" class="cluster namespace">
<title>#/domains/identity&amp;access/subdomains/auth</title>
<polygon fill="lightgrey" stroke="lightgrey" points="48,-48 48,-204 278,-204 278,-48 48,-48"/>
<text xml:space="preserve" text-anchor="middle" x="163" y="-191" font-family="sans-serif" font-size="10.00">Auth</text>
</g>
<g id="clust14" class="cluster namespace">
<title>#/domains/identity&amp;access/subdomains/auth/boundedcontexts/identity</title>
<polygon fill="lightgrey" stroke="lightgrey" points="68,-68 68,-164 258,-164 258,-68 68,-68"/>
<text xml:space="preserve" text-anchor="middle" x="163" y="-151" font-family="sans-serif" font-size="10.00">Identity</text>
</g>
<g id="clust15" class="cluster namespace">
<title>#/domains/customer_experience</title>
<polygon fill="lightgrey" stroke="lightgrey" points="318,-28 318,-244 874,-244 874,-28 318,-28"/>
<text xml:space="preserve" text-anchor="middle" x="596" y="-231" font-family="sans-serif" font-size="10.00">CustomerExperience</text>
</g>
<g id="clust16" class="cluster namespace">
<title>#/domains/customer_experience/subdomains/promotions</title>
<polygon fill="lightgrey" stroke="lightgrey" points="338,-48 338,-204 588,-204 588,-48 338,-48"/>
<text xml:space="preserve" text-anchor="middle" x="463" y="-191" font-family="sans-serif" font-size="10.00">Promotions</text>
</g>
<g id="clust17" class="cluster namespace">
<title>#/domains/customer_experience/subdomains/promotions/boundedcontexts/marketing</title>
<polygon fill="lightgrey" stroke="lightgrey" points="358,-68 358,-164 568,-164 568,-68 358,-68"/>
<text xml:space="preserve" text-anchor="middle" x="463" y="-151" font-family="sans-serif" font-size="10.00">Marketing</text>
</g>
<g id="clust18" class="cluster namespace">
<title>#/domains/customer_experience/subdomains/geodata</title>
<polygon fill="lightgrey" stroke="lightgrey" points="608,-48 608,-204 854,-204 854,-48 608,-48"/>
<text xml:space="preserve" text-anchor="middle" x="731" y="-191" font-family="sans-serif" font-size="10.00">Geodata</text>
</g>
<g id="clust19" class="cluster namespace">
<title>#/domains/customer_experience/subdomains/geodata/boundedcontexts/locations</title>
<polygon fill="lightgrey" stroke="lightgrey" points="628,-68 628,-164 834,-164 834,-68 628,-68"/>
<text xml:space="preserve" text-anchor="middle" x="731" y="-151" font-family="sans-serif" font-size="10.00">Locations</text>
</g>
<!-- #/domains/commerce/subdomains/shopping/boundedcontexts/basket/services/basket_service -->
<g id="node1" class="node">
<title>#/domains/commerce/subdomains/shopping/boundedcontexts/basket/services/basket_service</title>
<g id="a_node1"><a xlink:title="Basket CRUD, pricing snapshot">
<polygon fill="white" stroke="black" points="328.53,-516.05 332.86,-516.15 337.13,-516.3 341.35,-516.49 345.49,-516.74 349.53,-517.03 353.46,-517.36 357.27,-517.75 360.93,-518.18 364.43,-518.65 367.77,-519.16 370.93,-519.71 373.9,-520.31 376.67,-520.94 379.23,-521.61 381.58,-522.31 383.71,-523.04 385.61,-523.8 387.29,-524.59 388.73,-525.41 389.94,-526.25 390.92,-527.11 391.67,-527.99 392.2,-528.89 392.5,-529.8 392.58,-530.72 392.45,-531.65 392.11,-532.59 391.56,-533.53 390.83,-534.47 389.9,-535.41 388.81,-536.35 387.54,-537.28 386.11,-538.2 384.54,-539.11 382.82,-540.01 380.98,-540.89 379.01,-541.75 376.93,-542.59 374.75,-543.41 372.48,-544.2 370.12,-544.96 367.69,-545.69 365.18,-546.39 362.62,-547.06 360.01,-547.69 357.34,-548.29 354.64,-548.84 351.9,-549.35 349.13,-549.82 346.33,-550.25 343.51,-550.64 340.68,-550.97 337.83,-551.26 334.97,-551.51 332.09,-551.7 329.21,-551.85 326.33,-551.95 323.44,-552 320.56,-552 317.67,-551.95 314.79,-551.85 311.91,-551.7 309.03,-551.51 306.17,-551.26 303.32,-550.97 300.49,-550.64 297.67,-550.25 294.87,-549.82 292.1,-549.35 289.36,-548.84 286.66,-548.29 283.99,-547.69 281.38,-547.06 278.82,-546.39 276.31,-545.69 273.88,-544.96 271.52,-544.2 269.25,-543.41 267.07,-542.59 264.99,-541.75 263.02,-540.89 261.18,-540.01 259.46,-539.11 257.89,-538.2 256.46,-537.28 255.19,-536.35 254.1,-535.41 253.17,-534.47 252.44,-533.53 251.89,-532.59 251.55,-531.65 251.42,-530.72 251.5,-529.8 251.8,-528.89 252.33,-527.99 253.08,-527.11 254.06,-526.25 255.27,-525.41 256.71,-524.59 258.39,-523.8 260.29,-523.04 262.42,-522.31 264.77,-521.61 267.33,-520.94 270.1,-520.31 273.07,-519.71 276.23,-519.16 279.57,-518.65 283.07,-518.18 286.73,-517.75 290.54,-517.36 294.47,-517.03 298.51,-516.74 302.65,-516.49 306.87,-516.3 311.14,-516.15 315.47,-516.05 319.82,-516 324.18,-516 328.53,-516.05"/>
<text xml:space="preserve" text-anchor="middle" x="322" y="-529.8" font-family="sans-serif" font-size="14.00">BasketService</text>
</a>
</g>
</g>
<!-- #/domains/commerce/subdomains/cataloging/boundedcontexts/catalog/services/catalog_service -->
<g id="node2" class="node">
<title>#/domains/commerce/subdomains/cataloging/boundedcontexts/catalog/services/catalog_service</title>
<g id="a_node2"><a xlink:title="Queries, pricing updates, stock">
<polygon fill="white" stroke="black" points="227.9,-332.05 232.47,-332.15 236.99,-332.3 241.45,-332.49 245.82,-332.74 250.09,-333.03 254.24,-333.36 258.26,-333.75 262.13,-334.18 265.84,-334.65 269.37,-335.16 272.7,-335.71 275.84,-336.31 278.77,-336.94 281.48,-337.61 283.96,-338.31 286.2,-339.04 288.21,-339.8 289.98,-340.59 291.51,-341.41 292.79,-342.25 293.83,-343.11 294.62,-343.99 295.17,-344.89 295.49,-345.8 295.58,-346.72 295.44,-347.65 295.08,-348.59 294.5,-349.53 293.72,-350.47 292.75,-351.41 291.59,-352.35 290.25,-353.28 288.74,-354.2 287.08,-355.11 285.27,-356.01 283.32,-356.89 281.24,-357.75 279.04,-358.59 276.74,-359.41 274.34,-360.2 271.84,-360.96 269.27,-361.69 266.63,-362.39 263.92,-363.06 261.16,-363.69 258.34,-364.29 255.49,-364.84 252.59,-365.35 249.66,-365.82 246.71,-366.25 243.73,-366.64 240.74,-366.97 237.72,-367.26 234.7,-367.51 231.66,-367.7 228.62,-367.85 225.58,-367.95 222.53,-368 219.47,-368 216.42,-367.95 213.38,-367.85 210.34,-367.7 207.3,-367.51 204.28,-367.26 201.26,-366.97 198.27,-366.64 195.29,-366.25 192.34,-365.82 189.41,-365.35 186.51,-364.84 183.66,-364.29 180.84,-363.69 178.08,-363.06 175.37,-362.39 172.73,-361.69 170.16,-360.96 167.66,-360.2 165.26,-359.41 162.96,-358.59 160.76,-357.75 158.68,-356.89 156.73,-356.01 154.92,-355.11 153.26,-354.2 151.75,-353.28 150.41,-352.35 149.25,-351.41 148.28,-350.47 147.5,-349.53 146.92,-348.59 146.56,-347.65 146.42,-346.72 146.51,-345.8 146.83,-344.89 147.38,-343.99 148.17,-343.11 149.21,-342.25 150.49,-341.41 152.02,-340.59 153.79,-339.8 155.8,-339.04 158.04,-338.31 160.52,-337.61 163.23,-336.94 166.16,-336.31 169.3,-335.71 172.63,-335.16 176.16,-334.65 179.87,-334.18 183.74,-333.75 187.76,-333.36 191.91,-333.03 196.18,-332.74 200.55,-332.49 205.01,-332.3 209.53,-332.15 214.1,-332.05 218.7,-332 223.3,-332 227.9,-332.05"/>
<text xml:space="preserve" text-anchor="middle" x="221" y="-345.8" font-family="sans-serif" font-size="14.00">CatalogService</text>
</a>
</g>
</g>
<!-- #/domains/commerce/subdomains/shopping/boundedcontexts/basket/services/basket_service&#45;&gt;#/domains/commerce/subdomains/cataloging/boundedcontexts/catalog/services/catalog_service -->
<g id="edge2" class="edge">
<title>#/domains/commerce/subdomains/shopping/boundedcontexts/basket/services/basket_service&#45;&gt;#/domains/commerce/subdomains/cataloging/boundedcontexts/catalog/services/catalog_service</title>
<path fill="none" stroke="black" d="M266.45,-520.79C238,-511.42 205.84,-495.28 188.8,-468 171.24,-439.89 187.42,-402.14 202.51,-377.22"/>
<polygon fill="black" stroke="black" points="205.34,-379.29 207.77,-368.98 199.44,-375.52 205.34,-379.29"/>
<text xml:space="preserve" text-anchor="middle" x="232.4" y="-459" font-family="sans-serif" font-size="10.00">ProductPriceChanged</text>
<g id="a_edge2&#45;headlabel"><a xlink:title="published&#45;language">
<text xml:space="preserve" text-anchor="middle" x="208.59" y="-364.71" font-family="sans-serif" font-size="10.00">PL</text>
</a>
</g>
<g id="a_edge2&#45;taillabel"><a xlink:title="conformist">
<text xml:space="preserve" text-anchor="middle" x="266.45" y="-517.79" font-family="sans-serif" font-size="10.00">C</text>
</a>
</g>
</g>
<!-- #/domains/commerce/subdomains/sales/boundedcontexts/ordering/services/ordering_app -->
<g id="node3" class="node">
<title>#/domains/commerce/subdomains/sales/boundedcontexts/ordering/services/ordering_app</title>
<g id="a_node3"><a xlink:title="Start/Place orders">
<polygon fill="white" stroke="black" points="469.16,-332.05 473.24,-332.15 477.28,-332.3 481.26,-332.49 485.16,-332.74 488.98,-333.03 492.68,-333.36 496.27,-333.75 499.73,-334.18 503.03,-334.65 506.18,-335.16 509.16,-335.71 511.97,-336.31 514.58,-336.94 517,-337.61 519.21,-338.31 521.22,-339.04 523.01,-339.8 524.59,-340.59 525.96,-341.41 527.1,-342.25 528.03,-343.11 528.73,-343.99 529.23,-344.89 529.51,-345.8 529.59,-346.72 529.46,-347.65 529.14,-348.59 528.63,-349.53 527.93,-350.47 527.06,-351.41 526.03,-352.35 524.83,-353.28 523.49,-354.2 522,-355.11 520.38,-356.01 518.64,-356.89 516.78,-357.75 514.82,-358.59 512.77,-359.41 510.62,-360.2 508.4,-360.96 506.1,-361.69 503.74,-362.39 501.32,-363.06 498.86,-363.69 496.34,-364.29 493.79,-364.84 491.21,-365.35 488.59,-365.82 485.96,-366.25 483.3,-366.64 480.62,-366.97 477.93,-367.26 475.23,-367.51 472.52,-367.7 469.81,-367.85 467.09,-367.95 464.36,-368 461.64,-368 458.91,-367.95 456.19,-367.85 453.48,-367.7 450.77,-367.51 448.07,-367.26 445.38,-366.97 442.7,-366.64 440.04,-366.25 437.41,-365.82 434.79,-365.35 432.21,-364.84 429.66,-364.29 427.14,-363.69 424.68,-363.06 422.26,-362.39 419.9,-361.69 417.6,-360.96 415.38,-360.2 413.23,-359.41 411.18,-358.59 409.22,-357.75 407.36,-356.89 405.62,-356.01 404,-355.11 402.51,-354.2 401.17,-353.28 399.97,-352.35 398.94,-351.41 398.07,-350.47 397.37,-349.53 396.86,-348.59 396.54,-347.65 396.41,-346.72 396.49,-345.8 396.77,-344.89 397.27,-343.99 397.97,-343.11 398.9,-342.25 400.04,-341.41 401.41,-340.59 402.99,-339.8 404.78,-339.04 406.79,-338.31 409,-337.61 411.42,-336.94 414.03,-336.31 416.84,-335.71 419.82,-335.16 422.97,-334.65 426.27,-334.18 429.73,-333.75 433.32,-333.36 437.02,-333.03 440.84,-332.74 444.74,-332.49 448.72,-332.3 452.76,-332.15 456.84,-332.05 460.94,-332 465.06,-332 469.16,-332.05"/>
<text xml:space="preserve" text-anchor="middle" x="463" y="-345.8" font-family="sans-serif" font-size="14.00">OrderingApp</text>
</a>
</g>
</g>
<!-- #/domains/commerce/subdomains/shopping/boundedcontexts/basket/services/basket_service&#45;&gt;#/domains/commerce/subdomains/sales/boundedcontexts/ordering/services/ordering_app -->
<g id="edge3" class="edge">
<title>#/domains/commerce/subdomains/shopping/boundedcontexts/basket/services/basket_service&#45;&gt;#/domains/commerce/subdomains/sales/boundedcontexts/ordering/services/ordering_app</title>
<path fill="none" stroke="black" d="M322.78,-515.62C324.21,-499.2 328.22,-474.41 339.35,-456 360.94,-420.33 398.91,-390.8 427.1,-372.24"/>
<polygon fill="black" stroke="black" points="428.81,-375.3 435.34,-366.96 425.03,-369.4 428.81,-375.3"/>
<text xml:space="preserve" text-anchor="middle" x="365.18" y="-459" font-family="sans-serif" font-size="10.00">OrderStarted</text>
<g id="a_edge3&#45;headlabel"><a xlink:title="published&#45;language">
<text xml:space="preserve" text-anchor="middle" x="436.62" y="-363.14" font-family="sans-serif" font-size="10.00">PL</text>
</a>
</g>
<g id="a_edge3&#45;taillabel"><a xlink:title="conformist">
<text xml:space="preserve" text-anchor="middle" x="322.78" y="-512.62" font-family="sans-serif" font-size="10.00">C</text>
</a>
</g>
</g>
<!-- #/domains/commerce/subdomains/sales/boundedcontexts/ordering/services/ordering_app&#45;&gt;#/domains/commerce/subdomains/shopping/boundedcontexts/basket/services/basket_service -->
<g id="edge4" class="edge">
<title>#/domains/commerce/subdomains/sales/boundedcontexts/ordering/services/ordering_app&#45;&gt;#/domains/commerce/subdomains/shopping/boundedcontexts/basket/services/basket_service</title>
<path fill="none" stroke="black" d="M456.45,-368.14C446.75,-392.12 426.88,-436.31 401,-468 388.16,-483.72 371.04,-498.36 356.02,-509.75"/>
<polygon fill="black" stroke="black" points="354.19,-506.75 348.22,-515.5 358.34,-512.39 354.19,-506.75"/>
<text xml:space="preserve" text-anchor="middle" x="430.52" y="-459" font-family="sans-serif" font-size="10.00">GetBasket</text>
<g id="a_edge4&#45;headlabel"><a xlink:title="open&#45;host&#45;service">
<text xml:space="preserve" text-anchor="middle" x="347" y="-513.4" font-family="sans-serif" font-size="10.00">OHS</text>
</a>
</g>
<g id="a_edge4&#45;taillabel"><a xlink:title="anti&#45;corruption&#45;layer">
<text xml:space="preserve" text-anchor="middle" x="456.45" y="-365.14" font-family="sans-serif" font-size="10.00">ACL</text>
</a>
</g>
</g>
<!-- #/domains/identity&amp;access/subdomains/auth/boundedcontexts/identity/services/identity_service -->
<g id="node5" class="node">
<title>#/domains/identity&amp;access/subdomains/auth/boundedcontexts/identity/services/identity_service</title>
<g id="a_node5"><a xlink:title="Token issuance, user claims">
<polygon fill="white" stroke="black" points="169.9,-88.05 174.47,-88.15 178.99,-88.3 183.45,-88.49 187.82,-88.74 192.09,-89.03 196.24,-89.36 200.26,-89.75 204.13,-90.18 207.84,-90.65 211.37,-91.16 214.7,-91.71 217.84,-92.31 220.77,-92.94 223.48,-93.61 225.96,-94.31 228.2,-95.04 230.21,-95.8 231.98,-96.59 233.51,-97.41 234.79,-98.25 235.83,-99.11 236.62,-99.99 237.17,-100.89 237.49,-101.8 237.58,-102.72 237.44,-103.65 237.08,-104.59 236.5,-105.53 235.72,-106.47 234.75,-107.41 233.59,-108.35 232.25,-109.28 230.74,-110.2 229.08,-111.11 227.27,-112.01 225.32,-112.89 223.24,-113.75 221.04,-114.59 218.74,-115.41 216.34,-116.2 213.84,-116.96 211.27,-117.69 208.63,-118.39 205.92,-119.06 203.16,-119.69 200.34,-120.29 197.49,-120.84 194.59,-121.35 191.66,-121.82 188.71,-122.25 185.73,-122.64 182.74,-122.97 179.72,-123.26 176.7,-123.51 173.66,-123.7 170.62,-123.85 167.58,-123.95 164.53,-124 161.47,-124 158.42,-123.95 155.38,-123.85 152.34,-123.7 149.3,-123.51 146.28,-123.26 143.26,-122.97 140.27,-122.64 137.29,-122.25 134.34,-121.82 131.41,-121.35 128.51,-120.84 125.66,-120.29 122.84,-119.69 120.08,-119.06 117.37,-118.39 114.73,-117.69 112.16,-116.96 109.66,-116.2 107.26,-115.41 104.96,-114.59 102.76,-113.75 100.68,-112.89 98.73,-112.01 96.92,-111.11 95.26,-110.2 93.75,-109.28 92.41,-108.35 91.25,-107.41 90.28,-106.47 89.5,-105.53 88.92,-104.59 88.56,-103.65 88.42,-102.72 88.51,-101.8 88.83,-100.89 89.38,-99.99 90.17,-99.11 91.21,-98.25 92.49,-97.41 94.02,-96.59 95.79,-95.8 97.8,-95.04 100.04,-94.31 102.52,-93.61 105.23,-92.94 108.16,-92.31 111.3,-91.71 114.63,-91.16 118.16,-90.65 121.87,-90.18 125.74,-89.75 129.76,-89.36 133.91,-89.03 138.18,-88.74 142.55,-88.49 147.01,-88.3 151.53,-88.15 156.1,-88.05 160.7,-88 165.3,-88 169.9,-88.05"/>
<text xml:space="preserve" text-anchor="middle" x="163" y="-101.8" font-family="sans-serif" font-size="14.00">IdentityService</text>
</a>
</g>
</g>
<!-- #/domains/commerce/subdomains/sales/boundedcontexts/ordering/services/ordering_app&#45;&gt;#/domains/identity&amp;access/subdomains/auth/boundedcontexts/identity/services/identity_service -->
<g id="edge5" class="edge">
<title>#/domains/commerce/subdomains/sales/boundedcontexts/ordering/services/ordering_app&#45;&gt;#/domains/identity&amp;access/subdomains/auth/boundedcontexts/identity/services/identity_service</title>
<path fill="none" stroke="black" d="M442.38,-332.37C390,-290.11 251.72,-178.57 191.59,-130.07"/>
<polygon fill="black" stroke="black" points="194.13,-127.62 184.15,-124.06 189.74,-133.07 194.13,-127.62"/>
<text xml:space="preserve" text-anchor="middle" x="380.45" y="-255" font-family="sans-serif" font-size="10.00">IssueToken</text>
<g id="a_edge5&#45;headlabel"><a xlink:title="open&#45;host&#45;service">
<text xml:space="preserve" text-anchor="middle" x="182.97" y="-120.11" font-family="sans-serif" font-size="10.00">OHS</text>
</a>
</g>
<g id="a_edge5&#45;taillabel"><a xlink:title="anti&#45;corruption&#45;layer">
<text xml:space="preserve" text-anchor="middle" x="442.38" y="-329.37" font-family="sans-serif" font-size="10.00">ACL</text>
</a>
</g>
</g>
<!-- #/domains/customer_experience/subdomains/promotions/boundedcontexts/marketing/services/marketing_service -->
<g id="node6" class="node">
<title>#/domains/customer_experience/subdomains/promotions/boundedcontexts/marketing/services/marketing_service</title>
<g id="a_node6"><a xlink:title="Apply campaigns/discounts">
<polygon fill="white" stroke="black" points="470.91,-88.05 476.14,-88.15 481.32,-88.3 486.42,-88.49 491.43,-88.74 496.32,-89.03 501.08,-89.36 505.69,-89.75 510.12,-90.18 514.36,-90.65 518.4,-91.16 522.23,-91.71 525.82,-92.31 529.17,-92.94 532.27,-93.61 535.12,-94.31 537.69,-95.04 539.99,-95.8 542.02,-96.59 543.77,-97.41 545.24,-98.25 546.42,-99.11 547.33,-99.99 547.97,-100.89 548.33,-101.8 548.43,-102.72 548.27,-103.65 547.85,-104.59 547.2,-105.53 546.31,-106.47 545.19,-107.41 543.86,-108.35 542.33,-109.28 540.6,-110.2 538.69,-111.11 536.62,-112.01 534.38,-112.89 532,-113.75 529.49,-114.59 526.85,-115.41 524.1,-116.2 521.24,-116.96 518.3,-117.69 515.27,-118.39 512.17,-119.06 509,-119.69 505.78,-120.29 502.5,-120.84 499.19,-121.35 495.84,-121.82 492.45,-122.25 489.04,-122.64 485.61,-122.97 482.16,-123.26 478.69,-123.51 475.22,-123.7 471.73,-123.85 468.24,-123.95 464.75,-124 461.25,-124 457.76,-123.95 454.27,-123.85 450.78,-123.7 447.31,-123.51 443.84,-123.26 440.39,-122.97 436.96,-122.64 433.55,-122.25 430.16,-121.82 426.81,-121.35 423.5,-120.84 420.22,-120.29 417,-119.69 413.83,-119.06 410.73,-118.39 407.7,-117.69 404.76,-116.96 401.9,-116.2 399.15,-115.41 396.51,-114.59 394,-113.75 391.62,-112.89 389.38,-112.01 387.31,-111.11 385.4,-110.2 383.67,-109.28 382.14,-108.35 380.81,-107.41 379.69,-106.47 378.8,-105.53 378.15,-104.59 377.73,-103.65 377.57,-102.72 377.67,-101.8 378.03,-100.89 378.67,-99.99 379.58,-99.11 380.76,-98.25 382.23,-97.41 383.98,-96.59 386.01,-95.8 388.31,-95.04 390.88,-94.31 393.73,-93.61 396.83,-92.94 400.18,-92.31 403.77,-91.71 407.6,-91.16 411.64,-90.65 415.88,-90.18 420.31,-89.75 424.92,-89.36 429.68,-89.03 434.57,-88.74 439.58,-88.49 444.68,-88.3 449.86,-88.15 455.09,-88.05 460.36,-88 465.64,-88 470.91,-88.05"/>
<text xml:space="preserve" text-anchor="middle" x="463" y="-101.8" font-family="sans-serif" font-size="14.00">MarketingService</text>
</a>
</g>
</g>
<!-- #/domains/commerce/subdomains/sales/boundedcontexts/ordering/services/ordering_app&#45;&gt;#/domains/customer_experience/subdomains/promotions/boundedcontexts/marketing/services/marketing_service -->
<g id="edge6" class="edge">
<title>#/domains/commerce/subdomains/sales/boundedcontexts/ordering/services/ordering_app&#45;&gt;#/domains/customer_experience/subdomains/promotions/boundedcontexts/marketing/services/marketing_service</title>
<path fill="none" stroke="black" d="M463,-331.6C463,-290.35 463,-186.31 463,-135.63"/>
<polygon fill="black" stroke="black" points="466.5,-135.76 463,-125.76 459.5,-135.76 466.5,-135.76"/>
<text xml:space="preserve" text-anchor="middle" x="498" y="-255" font-family="sans-serif" font-size="10.00">ApplyCampaigns</text>
<g id="a_edge6&#45;headlabel"><a xlink:title="open&#45;host&#45;service">
<text xml:space="preserve" text-anchor="middle" x="463" y="-121.25" font-family="sans-serif" font-size="10.00">OHS</text>
</a>
</g>
<g id="a_edge6&#45;taillabel"><a xlink:title="anti&#45;corruption&#45;layer">
<text xml:space="preserve" text-anchor="middle" x="463" y="-328.6" font-family="sans-serif" font-size="10.00">ACL</text>
</a>
</g>
</g>
<!-- #/domains/customer_experience/subdomains/geodata/boundedcontexts/locations/services/locations_service -->
<g id="node7" class="node">
<title>#/domains/customer_experience/subdomains/geodata/boundedcontexts/locations/services/locations_service</title>
<g id="a_node7"><a xlink:title="Resolve/validate location data">
<polygon fill="white" stroke="black" points="738.69,-88.05 743.79,-88.15 748.83,-88.3 753.8,-88.49 758.67,-88.74 763.43,-89.03 768.06,-89.36 772.54,-89.75 776.86,-90.18 780.99,-90.65 784.92,-91.16 788.64,-91.71 792.14,-92.31 795.4,-92.94 798.42,-93.61 801.19,-94.31 803.69,-95.04 805.94,-95.8 807.91,-96.59 809.61,-97.41 811.04,-98.25 812.19,-99.11 813.08,-99.99 813.7,-100.89 814.05,-101.8 814.14,-102.72 813.99,-103.65 813.58,-104.59 812.95,-105.53 812.08,-106.47 810.99,-107.41 809.7,-108.35 808.2,-109.28 806.52,-110.2 804.67,-111.11 802.65,-112.01 800.47,-112.89 798.16,-113.75 795.71,-114.59 793.14,-115.41 790.46,-116.2 787.69,-116.96 784.82,-117.69 781.87,-118.39 778.85,-119.06 775.77,-119.69 772.63,-120.29 769.45,-120.84 766.22,-121.35 762.96,-121.82 759.66,-122.25 756.34,-122.64 753,-122.97 749.65,-123.26 746.27,-123.51 742.89,-123.7 739.5,-123.85 736.1,-123.95 732.7,-124 729.3,-124 725.9,-123.95 722.5,-123.85 719.11,-123.7 715.73,-123.51 712.35,-123.26 709,-122.97 705.66,-122.64 702.34,-122.25 699.04,-121.82 695.78,-121.35 692.55,-120.84 689.37,-120.29 686.23,-119.69 683.15,-119.06 680.13,-118.39 677.18,-117.69 674.31,-116.96 671.54,-116.2 668.86,-115.41 666.29,-114.59 663.84,-113.75 661.53,-112.89 659.35,-112.01 657.33,-111.11 655.48,-110.2 653.8,-109.28 652.3,-108.35 651.01,-107.41 649.92,-106.47 649.05,-105.53 648.42,-104.59 648.01,-103.65 647.86,-102.72 647.95,-101.8 648.3,-100.89 648.92,-99.99 649.81,-99.11 650.96,-98.25 652.39,-97.41 654.09,-96.59 656.06,-95.8 658.31,-95.04 660.81,-94.31 663.58,-93.61 666.6,-92.94 669.86,-92.31 673.36,-91.71 677.08,-91.16 681.01,-90.65 685.14,-90.18 689.46,-89.75 693.94,-89.36 698.57,-89.03 703.33,-88.74 708.2,-88.49 713.17,-88.3 718.21,-88.15 723.31,-88.05 728.43,-88 733.57,-88 738.69,-88.05"/>
<text xml:space="preserve" text-anchor="middle" x="731" y="-101.8" font-family="sans-serif" font-size="14.00">LocationsService</text>
</a>
</g>
</g>
<!-- #/domains/commerce/subdomains/sales/boundedcontexts/ordering/services/ordering_app&#45;&gt;#/domains/customer_experience/subdomains/geodata/boundedcontexts/locations/services/locations_service -->
<g id="edge7" class="edge">
<title>#/domains/commerce/subdomains/sales/boundedcontexts/ordering/services/ordering_app&#45;&gt;#/domains/customer_experience/subdomains/geodata/boundedcontexts/locations/services/locations_service</title>
<path fill="none" stroke="black" d="M482.07,-332.39C505.66,-311.79 546.99,-275.53 582,-244 625.49,-204.83 675.46,-158.64 705.07,-131.14"/>
<polygon fill="black" stroke="black" points="707.17,-133.97 712.11,-124.6 702.4,-128.84 707.17,-133.97"/>
<text xml:space="preserve" text-anchor="middle" x="606.31" y="-255" font-family="sans-serif" font-size="10.00">ResolveLocation</text>
<g id="a_edge7&#45;headlabel"><a xlink:title="open&#45;host&#45;service">
<text xml:space="preserve" text-anchor="middle" x="713.22" y="-120.57" font-family="sans-serif" font-size="10.00">OHS</text>
</a>
</g>
<g id="a_edge7&#45;taillabel"><a xlink:title="anti&#45;corruption&#45;layer">
<text xml:space="preserve" text-anchor="middle" x="482.07" y="-329.39" font-family="sans-serif" font-size="10.00">ACL</text>
</a>
</g>
</g>
<!-- #/domains/integration/subdomains/edge/boundedcontexts/api_gateway/services/web_shopping_aggregator -->
<g id="node4" class="node">
<title>#/domains/integration/subdomains/edge/boundedcontexts/api_gateway/services/web_shopping_aggregator</title>
<g id="a_node4"><a xlink:title="Ocelot + Aggregators (Web &amp; Mobile Shopping)">
<polygon fill="white" stroke="black" points="521.87,-760.05 529.06,-760.15 536.18,-760.3 543.2,-760.49 550.08,-760.74 556.81,-761.03 563.35,-761.36 569.67,-761.75 575.76,-762.18 581.6,-762.65 587.15,-763.16 592.41,-763.71 597.35,-764.31 601.96,-764.94 606.22,-765.61 610.13,-766.31 613.67,-767.04 616.83,-767.8 619.62,-768.59 622.02,-769.41 624.04,-770.25 625.67,-771.11 626.92,-771.99 627.79,-772.89 628.29,-773.8 628.43,-774.72 628.2,-775.65 627.64,-776.59 626.73,-777.53 625.51,-778.47 623.97,-779.41 622.15,-780.35 620.04,-781.28 617.66,-782.2 615.04,-783.11 612.19,-784.01 609.12,-784.89 605.85,-785.75 602.39,-786.59 598.76,-787.41 594.98,-788.2 591.06,-788.96 587.01,-789.69 582.85,-790.39 578.58,-791.06 574.23,-791.69 569.8,-792.29 565.3,-792.84 560.74,-793.35 556.13,-793.82 551.48,-794.25 546.79,-794.64 542.08,-794.97 537.33,-795.26 532.57,-795.51 527.79,-795.7 523,-795.85 518.2,-795.95 513.4,-796 508.6,-796 503.8,-795.95 499,-795.85 494.21,-795.7 489.43,-795.51 484.67,-795.26 479.92,-794.97 475.21,-794.64 470.52,-794.25 465.87,-793.82 461.26,-793.35 456.7,-792.84 452.2,-792.29 447.77,-791.69 443.42,-791.06 439.15,-790.39 434.99,-789.69 430.94,-788.96 427.02,-788.2 423.24,-787.41 419.61,-786.59 416.15,-785.75 412.88,-784.89 409.81,-784.01 406.96,-783.11 404.34,-782.2 401.96,-781.28 399.85,-780.35 398.03,-779.41 396.49,-778.47 395.27,-777.53 394.36,-776.59 393.8,-775.65 393.57,-774.72 393.71,-773.8 394.21,-772.89 395.08,-771.99 396.33,-771.11 397.96,-770.25 399.98,-769.41 402.38,-768.59 405.17,-767.8 408.33,-767.04 411.87,-766.31 415.78,-765.61 420.04,-764.94 424.65,-764.31 429.59,-763.71 434.85,-763.16 440.4,-762.65 446.24,-762.18 452.33,-761.75 458.65,-761.36 465.19,-761.03 471.92,-760.74 478.8,-760.49 485.82,-760.3 492.94,-760.15 500.13,-760.05 507.37,-760 514.63,-760 521.87,-760.05"/>
<text xml:space="preserve" text-anchor="middle" x="511" y="-773.8" font-family="sans-serif" font-size="14.00">WebShoppingAggregator</text>
</a>
</g>
</g>
<!-- #/domains/integration/subdomains/edge/boundedcontexts/api_gateway/services/web_shopping_aggregator&#45;&gt;#/domains/commerce/subdomains/shopping/boundedcontexts/basket/services/basket_service -->
<g id="edge1" class="edge">
<title>#/domains/integration/subdomains/edge/boundedcontexts/api_gateway/services/web_shopping_aggregator&#45;&gt;#/domains/commerce/subdomains/shopping/boundedcontexts/basket/services/basket_service</title>
<path fill="none" stroke="black" d="M497.41,-759.6C464.57,-717.55 380.77,-610.25 342.1,-560.74"/>
<polygon fill="black" stroke="black" points="345.06,-558.84 336.15,-553.12 339.55,-563.15 345.06,-558.84"/>
<text xml:space="preserve" text-anchor="middle" x="465.3" y="-683" font-family="sans-serif" font-size="10.00">GetBasket</text>
<g id="a_edge1&#45;headlabel"><a xlink:title="open&#45;host&#45;service">
<text xml:space="preserve" text-anchor="middle" x="335.22" y="-548.92" font-family="sans-serif" font-size="10.00">OHS</text>
</a>
</g>
<g id="a_edge1&#45;taillabel"><a xlink:title="conformist">
<text xml:space="preserve" text-anchor="middle" x="497.41" y="-756.6" font-family="sans-serif" font-size="10.00">C</text>
</a>
</g>
</g>
<!-- #/domains/integration/subdomains/edge/boundedcontexts/api_gateway/services/web_shopping_aggregator&#45;&gt;#/domains/commerce/subdomains/cataloging/boundedcontexts/catalog/services/catalog_service -->
<g id="edge8" class="edge">
<title>#/domains/integration/subdomains/edge/boundedcontexts/api_gateway/services/web_shopping_aggregator&#45;&gt;#/domains/commerce/subdomains/cataloging/boundedcontexts/catalog/services/catalog_service</title>
<path fill="none" stroke="black" d="M511.24,-759.81C511.71,-699.29 509.83,-497.49 465,-456 448.15,-440.41 383.64,-455.66 362,-448 317.2,-432.15 273.35,-398.25 246.74,-375.04"/>
<polygon fill="black" stroke="black" points="249.33,-372.65 239.54,-368.62 244.68,-377.88 249.33,-372.65"/>
<text xml:space="preserve" text-anchor="middle" x="540.77" y="-531" font-family="sans-serif" font-size="10.00">SearchProducts</text>
<g id="a_edge8&#45;headlabel"><a xlink:title="open&#45;host&#45;service">
<text xml:space="preserve" text-anchor="middle" x="238.41" y="-364.61" font-family="sans-serif" font-size="10.00">OHS</text>
</a>
</g>
<g id="a_edge8&#45;taillabel"><a xlink:title="conformist">
<text xml:space="preserve" text-anchor="middle" x="511.24" y="-756.81" font-family="sans-serif" font-size="10.00">C</text>
</a>
</g>
</g>
<!-- #/domains/integration/subdomains/edge/boundedcontexts/api_gateway/services/web_shopping_aggregator&#45;&gt;#/domains/commerce/subdomains/sales/boundedcontexts/ordering/services/ordering_app -->
<g id="edge9" class="edge">
<title>#/domains/integration/subdomains/edge/boundedcontexts/api_gateway/services/web_shopping_aggregator&#45;&gt;#/domains/commerce/subdomains/sales/boundedcontexts/ordering/services/ordering_app</title>
<path fill="none" stroke="black" d="M528.98,-759.67C547.64,-740.33 575.63,-707.11 587,-672 613.84,-589.13 620.17,-556.55 587,-476 568.83,-431.88 526.71,-395.09 496.61,-373.09"/>
<polygon fill="black" stroke="black" points="498.71,-370.29 488.53,-367.36 494.66,-376 498.71,-370.29"/>
<text xml:space="preserve" text-anchor="middle" x="632.06" y="-531" font-family="sans-serif" font-size="10.00">PlaceOrder</text>
<g id="a_edge9&#45;headlabel"><a xlink:title="open&#45;host&#45;service">
<text xml:space="preserve" text-anchor="middle" x="487.3" y="-363.48" font-family="sans-serif" font-size="10.00">OHS</text>
</a>
</g>
<g id="a_edge9&#45;taillabel"><a xlink:title="conformist">
<text xml:space="preserve" text-anchor="middle" x="528.98" y="-756.67" font-family="sans-serif" font-size="10.00">C</text>
</a>
</g>
</g>
</g>
</svg>
