<?xml version="1.0" encoding="UTF-8" standalone="no"?>
<?xml-stylesheet href="data:text/css,.graph%20text%20%7B%0A%09font-family%3A%20sans-serif%3B%0A%09stroke%3A%20white%3B%0A%09paint-order%3A%20stroke%3B%0A%09stroke-width%3A%203%3B%0A%09stroke-linecap%3A%20square%3B%0A%7D%0A%0A.namespace%20polygon%20%7B%0A%09fill-opacity%3A%200.2%3B%0A%09stroke%3A%20none%3B%0A%7D%0A" type="text/css"?>
<!DOCTYPE svg PUBLIC "-//W3C//DTD SVG 1.1//EN"
 "http://www.w3.org/Graphics/SVG/1.1/DTD/svg11.dtd">
<!-- Generated by graphviz version 13.1.2 (0)
 -->
<!-- Pages: 1 -->
<svg width="800pt" height="508pt"
 viewBox="0.00 0.00 800.00 508.00" xmlns="http://www.w3.org/2000/svg" xmlns:xlink="http://www.w3.org/1999/xlink">
<g id="graph0" class="graph" transform="scale(1 1) rotate(0) translate(4 504)">
<polygon fill="white" stroke="none" points="-4,4 -4,-504 796,-504 796,4 -4,4"/>
<g id="clust1" class="cluster namespace">
<title>e_shop</title>
<polygon fill="lightgrey" stroke="lightgrey" points="8,-8 8,-492 784,-492 784,-8 8,-8"/>
<text xml:space="preserve" text-anchor="middle" x="396" y="-479" font-family="sans-serif" font-size="10.00">eShop</text>
</g>
<g id="clust2" class="cluster namespace">
<title>#/domains/commerce</title>
<polygon fill="lightgrey" stroke="lightgrey" points="170,-168 170,-312 618,-312 618,-168 170,-168"/>
<text xml:space="preserve" text-anchor="middle" x="394" y="-299" font-family="sans-serif" font-size="10.00">Commerce</text>
</g>
<g id="clust3" class="cluster namespace">
<title>#/domains/commerce/subdomains/catalog</title>
<polygon fill="lightgrey" stroke="lightgrey" points="329,-176 329,-284 459,-284 459,-176 329,-176"/>
<text xml:space="preserve" text-anchor="middle" x="394" y="-271" font-family="sans-serif" font-size="10.00">Catalog</text>
</g>
<g id="clust4" class="cluster namespace">
<title>#/domains/commerce/subdomains/basket</title>
<polygon fill="lightgrey" stroke="lightgrey" points="178,-176 178,-284 308,-284 308,-176 178,-176"/>
<text xml:space="preserve" text-anchor="middle" x="243" y="-271" font-family="sans-serif" font-size="10.00">Basket</text>
</g>
<g id="clust5" class="cluster namespace">
<title>#/domains/commerce/subdomains/ordering</title>
<polygon fill="lightgrey" stroke="lightgrey" points="480,-176 480,-284 610,-284 610,-176 480,-176"/>
<text xml:space="preserve" text-anchor="middle" x="545" y="-271" font-family="sans-serif" font-size="10.00">Ordering</text>
</g>
<g id="clust6" class="cluster namespace">
<title>#/domains/edge_&amp;_experience</title>
<polygon fill="lightgrey" stroke="lightgrey" points="165,-320 165,-464 462,-464 462,-320 165,-320"/>
<text xml:space="preserve" text-anchor="middle" x="313.5" y="-451" font-family="sans-serif" font-size="10.00">Edge &amp; Experience</text>
</g>
<g id="clust7" class="cluster namespace">
<title>#/domains/edge_&amp;_experience/subdomains/web</title>
<polygon fill="lightgrey" stroke="lightgrey" points="173,-328 173,-436 303,-436 303,-328 173,-328"/>
<text xml:space="preserve" text-anchor="middle" x="238" y="-423" font-family="sans-serif" font-size="10.00">Web</text>
</g>
<g id="clust8" class="cluster namespace">
<title>#/domains/edge_&amp;_experience/subdomains/mobile</title>
<polygon fill="lightgrey" stroke="lightgrey" points="324,-328 324,-436 454,-436 454,-328 324,-328"/>
<text xml:space="preserve" text-anchor="middle" x="389" y="-423" font-family="sans-serif" font-size="10.00">Mobile</text>
</g>
<g id="clust9" class="cluster namespace">
<title>#/domains/operations</title>
<polygon fill="lightgrey" stroke="lightgrey" points="470,-320 470,-464 618,-464 618,-320 470,-320"/>
<text xml:space="preserve" text-anchor="middle" x="544" y="-451" font-family="sans-serif" font-size="10.00">Operations</text>
</g>
<g id="clust10" class="cluster namespace">
<title>#/domains/operations/subdomains/backoffice</title>
<polygon fill="lightgrey" stroke="lightgrey" points="478,-328 478,-436 610,-436 610,-328 478,-328"/>
<text xml:space="preserve" text-anchor="middle" x="544" y="-423" font-family="sans-serif" font-size="10.00">Backoffice</text>
</g>
<g id="clust11" class="cluster namespace">
<title>#/domains/api_integration</title>
<polygon fill="lightgrey" stroke="lightgrey" points="626,-168 626,-464 776,-464 776,-168 626,-168"/>
<text xml:space="preserve" text-anchor="middle" x="701" y="-451" font-family="sans-serif" font-size="10.00">API Integration</text>
</g>
<g id="clust12" class="cluster namespace">
<title>#/domains/api_integration/subdomains/webhooks</title>
<polygon fill="lightgrey" stroke="lightgrey" points="634,-176 634,-436 768,-436 768,-176 634,-176"/>
<text xml:space="preserve" text-anchor="middle" x="701" y="-423" font-family="sans-serif" font-size="10.00">Webhooks</text>
</g>
<g id="clust13" class="cluster namespace">
<title>#/domains/payment_processing</title>
<polygon fill="lightgrey" stroke="lightgrey" points="461,-16 461,-160 629,-160 629,-16 461,-16"/>
<text xml:space="preserve" text-anchor="middle" x="545" y="-147" font-family="sans-serif" font-size="10.00">Payment Processing</text>
</g>
<g id="clust14" class="cluster namespace">
<title>#/domains/payment_processing/subdomains/payment_processors</title>
<polygon fill="lightgrey" stroke="lightgrey" points="469,-24 469,-132 621,-132 621,-24 469,-24"/>
<text xml:space="preserve" text-anchor="middle" x="545" y="-119" font-family="sans-serif" font-size="10.00">Payment Processors</text>
</g>
<g id="clust15" class="cluster namespace">
<title>#/domains/identity_&amp;_access</title>
<polygon fill="lightgrey" stroke="lightgrey" points="16,-168 16,-312 162,-312 162,-168 16,-168"/>
<text xml:space="preserve" text-anchor="middle" x="89" y="-299" font-family="sans-serif" font-size="10.00">Identity &amp; Access</text>
</g>
<g id="clust16" class="cluster namespace">
<title>#/domains/identity_&amp;_access/subdomains/auth_n_and_auth_z</title>
<polygon fill="lightgrey" stroke="lightgrey" points="24,-176 24,-284 154,-284 154,-176 24,-176"/>
<text xml:space="preserve" text-anchor="middle" x="89" y="-271" font-family="sans-serif" font-size="10.00">AuthN and AuthZ</text>
</g>
<!-- #/domains/commerce/subdomains/catalog/boundedcontexts/catalog -->
<g id="node1" class="node">
<title>#/domains/commerce/subdomains/catalog/boundedcontexts/catalog</title>
<g id="a_node1"><a xlink:title="Minimal API for catalog queries and management.">
<polygon fill="white" stroke="black" points="399.32,-184.1 402.84,-184.3 406.33,-184.59 409.76,-184.98 413.13,-185.47 416.42,-186.05 419.63,-186.73 422.72,-187.5 425.71,-188.35 428.56,-189.29 431.28,-190.32 433.85,-191.43 436.27,-192.62 438.53,-193.88 440.62,-195.21 442.53,-196.61 444.26,-198.08 445.81,-199.6 447.17,-201.18 448.35,-202.82 449.34,-204.5 450.14,-206.22 450.75,-207.98 451.18,-209.77 451.42,-211.59 451.49,-213.44 451.38,-215.3 451.1,-217.17 450.66,-219.06 450.06,-220.94 449.31,-222.83 448.41,-224.7 447.38,-226.56 446.22,-228.41 444.94,-230.23 443.54,-232.02 442.03,-233.78 440.43,-235.5 438.74,-237.18 436.96,-238.82 435.11,-240.4 433.19,-241.92 431.21,-243.39 429.17,-244.79 427.09,-246.12 424.96,-247.38 422.79,-248.57 420.58,-249.68 418.35,-250.71 416.1,-251.65 413.82,-252.5 411.52,-253.27 409.21,-253.95 406.89,-254.53 404.56,-255.02 402.22,-255.41 399.88,-255.7 397.53,-255.9 395.18,-256 392.82,-256 390.47,-255.9 388.12,-255.7 385.78,-255.41 383.44,-255.02 381.11,-254.53 378.79,-253.95 376.48,-253.27 374.18,-252.5 371.9,-251.65 369.65,-250.71 367.42,-249.68 365.21,-248.57 363.04,-247.38 360.91,-246.12 358.83,-244.79 356.79,-243.39 354.81,-241.92 352.89,-240.4 351.04,-238.82 349.26,-237.18 347.57,-235.5 345.97,-233.78 344.46,-232.02 343.06,-230.23 341.78,-228.41 340.62,-226.56 339.59,-224.7 338.69,-222.83 337.94,-220.94 337.34,-219.06 336.9,-217.17 336.62,-215.3 336.51,-213.44 336.58,-211.59 336.82,-209.77 337.25,-207.98 337.86,-206.22 338.66,-204.5 339.65,-202.82 340.83,-201.18 342.19,-199.6 343.74,-198.08 345.47,-196.61 347.38,-195.21 349.47,-193.88 351.73,-192.62 354.15,-191.43 356.72,-190.32 359.44,-189.29 362.29,-188.35 365.28,-187.5 368.37,-186.73 371.58,-186.05 374.87,-185.47 378.24,-184.98 381.67,-184.59 385.16,-184.3 388.68,-184.1 392.22,-184 395.78,-184 399.32,-184.1"/>
<text xml:space="preserve" text-anchor="middle" x="394" y="-215.8" font-family="sans-serif" font-size="14.00">Catalog</text>
</a>
</g>
</g>
<!-- #/domains/commerce/subdomains/basket/boundedcontexts/basket -->
<g id="node2" class="node">
<title>#/domains/commerce/subdomains/basket/boundedcontexts/basket</title>
<g id="a_node2"><a xlink:title="Basket service (gRPC/HTTP) to manage user baskets.">
<polygon fill="white" stroke="black" points="248.32,-184.1 251.84,-184.3 255.33,-184.59 258.76,-184.98 262.13,-185.47 265.42,-186.05 268.63,-186.73 271.72,-187.5 274.71,-188.35 277.56,-189.29 280.28,-190.32 282.85,-191.43 285.27,-192.62 287.53,-193.88 289.62,-195.21 291.53,-196.61 293.26,-198.08 294.81,-199.6 296.17,-201.18 297.35,-202.82 298.34,-204.5 299.14,-206.22 299.75,-207.98 300.18,-209.77 300.42,-211.59 300.49,-213.44 300.38,-215.3 300.1,-217.17 299.66,-219.06 299.06,-220.94 298.31,-222.83 297.41,-224.7 296.38,-226.56 295.22,-228.41 293.94,-230.23 292.54,-232.02 291.03,-233.78 289.43,-235.5 287.74,-237.18 285.96,-238.82 284.11,-240.4 282.19,-241.92 280.21,-243.39 278.17,-244.79 276.09,-246.12 273.96,-247.38 271.79,-248.57 269.58,-249.68 267.35,-250.71 265.1,-251.65 262.82,-252.5 260.52,-253.27 258.21,-253.95 255.89,-254.53 253.56,-255.02 251.22,-255.41 248.88,-255.7 246.53,-255.9 244.18,-256 241.82,-256 239.47,-255.9 237.12,-255.7 234.78,-255.41 232.44,-255.02 230.11,-254.53 227.79,-253.95 225.48,-253.27 223.18,-252.5 220.9,-251.65 218.65,-250.71 216.42,-249.68 214.21,-248.57 212.04,-247.38 209.91,-246.12 207.83,-244.79 205.79,-243.39 203.81,-241.92 201.89,-240.4 200.04,-238.82 198.26,-237.18 196.57,-235.5 194.97,-233.78 193.46,-232.02 192.06,-230.23 190.78,-228.41 189.62,-226.56 188.59,-224.7 187.69,-222.83 186.94,-220.94 186.34,-219.06 185.9,-217.17 185.62,-215.3 185.51,-213.44 185.58,-211.59 185.82,-209.77 186.25,-207.98 186.86,-206.22 187.66,-204.5 188.65,-202.82 189.83,-201.18 191.19,-199.6 192.74,-198.08 194.47,-196.61 196.38,-195.21 198.47,-193.88 200.73,-192.62 203.15,-191.43 205.72,-190.32 208.44,-189.29 211.29,-188.35 214.28,-187.5 217.37,-186.73 220.58,-186.05 223.87,-185.47 227.24,-184.98 230.67,-184.59 234.16,-184.3 237.68,-184.1 241.22,-184 244.78,-184 248.32,-184.1"/>
<text xml:space="preserve" text-anchor="middle" x="243" y="-215.8" font-family="sans-serif" font-size="14.00">Basket</text>
</a>
</g>
</g>
<!-- #/domains/commerce/subdomains/ordering/boundedcontexts/ordering -->
<g id="node3" class="node">
<title>#/domains/commerce/subdomains/ordering/boundedcontexts/ordering</title>
<g id="a_node3"><a xlink:title="Order lifecycle, status and events.">
<polygon fill="white" stroke="black" points="550.32,-184.1 553.84,-184.3 557.33,-184.59 560.76,-184.98 564.13,-185.47 567.42,-186.05 570.63,-186.73 573.72,-187.5 576.71,-188.35 579.56,-189.29 582.28,-190.32 584.85,-191.43 587.27,-192.62 589.53,-193.88 591.62,-195.21 593.53,-196.61 595.26,-198.08 596.81,-199.6 598.17,-201.18 599.35,-202.82 600.34,-204.5 601.14,-206.22 601.75,-207.98 602.18,-209.77 602.42,-211.59 602.49,-213.44 602.38,-215.3 602.1,-217.17 601.66,-219.06 601.06,-220.94 600.31,-222.83 599.41,-224.7 598.38,-226.56 597.22,-228.41 595.94,-230.23 594.54,-232.02 593.03,-233.78 591.43,-235.5 589.74,-237.18 587.96,-238.82 586.11,-240.4 584.19,-241.92 582.21,-243.39 580.17,-244.79 578.09,-246.12 575.96,-247.38 573.79,-248.57 571.58,-249.68 569.35,-250.71 567.1,-251.65 564.82,-252.5 562.52,-253.27 560.21,-253.95 557.89,-254.53 555.56,-255.02 553.22,-255.41 550.88,-255.7 548.53,-255.9 546.18,-256 543.82,-256 541.47,-255.9 539.12,-255.7 536.78,-255.41 534.44,-255.02 532.11,-254.53 529.79,-253.95 527.48,-253.27 525.18,-252.5 522.9,-251.65 520.65,-250.71 518.42,-249.68 516.21,-248.57 514.04,-247.38 511.91,-246.12 509.83,-244.79 507.79,-243.39 505.81,-241.92 503.89,-240.4 502.04,-238.82 500.26,-237.18 498.57,-235.5 496.97,-233.78 495.46,-232.02 494.06,-230.23 492.78,-228.41 491.62,-226.56 490.59,-224.7 489.69,-222.83 488.94,-220.94 488.34,-219.06 487.9,-217.17 487.62,-215.3 487.51,-213.44 487.58,-211.59 487.82,-209.77 488.25,-207.98 488.86,-206.22 489.66,-204.5 490.65,-202.82 491.83,-201.18 493.19,-199.6 494.74,-198.08 496.47,-196.61 498.38,-195.21 500.47,-193.88 502.73,-192.62 505.15,-191.43 507.72,-190.32 510.44,-189.29 513.29,-188.35 516.28,-187.5 519.37,-186.73 522.58,-186.05 525.87,-185.47 529.24,-184.98 532.67,-184.59 536.16,-184.3 539.68,-184.1 543.22,-184 546.78,-184 550.32,-184.1"/>
<text xml:space="preserve" text-anchor="middle" x="545" y="-215.8" font-family="sans-serif" font-size="14.00">Ordering</text>
</a>
</g>
</g>
<!-- #/domains/payment_processing/subdomains/payment_processors/boundedcontexts/payment_processor -->
<g id="node9" class="node">
<title>#/domains/payment_processing/subdomains/payment_processors/boundedcontexts/payment_processor</title>
<g id="a_node9"><a xlink:title="Simulated external payment processor.">
<polygon fill="white" stroke="black" points="551.27,-32.1 555.42,-32.3 559.53,-32.59 563.57,-32.98 567.54,-33.47 571.42,-34.05 575.2,-34.73 578.85,-35.5 582.36,-36.35 585.72,-37.29 588.93,-38.32 591.96,-39.43 594.81,-40.62 597.47,-41.88 599.93,-43.21 602.18,-44.61 604.22,-46.08 606.05,-47.6 607.66,-49.18 609.04,-50.82 610.2,-52.5 611.15,-54.22 611.87,-55.98 612.37,-57.77 612.66,-59.59 612.74,-61.44 612.61,-63.3 612.28,-65.17 611.76,-67.06 611.05,-68.94 610.17,-70.83 609.11,-72.7 607.9,-74.56 606.53,-76.41 605.02,-78.23 603.37,-80.02 601.6,-81.78 599.71,-83.5 597.72,-85.18 595.63,-86.82 593.44,-88.4 591.18,-89.92 588.85,-91.39 586.44,-92.79 583.99,-94.12 581.47,-95.38 578.92,-96.57 576.32,-97.68 573.69,-98.71 571.04,-99.65 568.35,-100.5 565.65,-101.27 562.93,-101.95 560.19,-102.53 557.44,-103.02 554.69,-103.41 551.92,-103.7 549.16,-103.9 546.39,-104 543.61,-104 540.84,-103.9 538.08,-103.7 535.31,-103.41 532.56,-103.02 529.81,-102.53 527.07,-101.95 524.35,-101.27 521.65,-100.5 518.96,-99.65 516.31,-98.71 513.68,-97.68 511.08,-96.57 508.53,-95.38 506.01,-94.12 503.56,-92.79 501.15,-91.39 498.82,-89.92 496.56,-88.4 494.37,-86.82 492.28,-85.18 490.29,-83.5 488.4,-81.78 486.63,-80.02 484.98,-78.23 483.47,-76.41 482.1,-74.56 480.89,-72.7 479.83,-70.83 478.95,-68.94 478.24,-67.06 477.72,-65.17 477.39,-63.3 477.26,-61.44 477.34,-59.59 477.63,-57.77 478.13,-55.98 478.85,-54.22 479.8,-52.5 480.96,-50.82 482.34,-49.18 483.95,-47.6 485.78,-46.08 487.82,-44.61 490.07,-43.21 492.53,-41.88 495.19,-40.62 498.04,-39.43 501.07,-38.32 504.28,-37.29 507.64,-36.35 511.15,-35.5 514.8,-34.73 518.58,-34.05 522.46,-33.47 526.43,-32.98 530.47,-32.59 534.58,-32.3 538.73,-32.1 542.91,-32 547.09,-32 551.27,-32.1"/>
<text xml:space="preserve" text-anchor="middle" x="545" y="-63.8" font-family="sans-serif" font-size="14.00">PaymentProcessor</text>
</a>
</g>
</g>
<!-- #/domains/commerce/subdomains/ordering/boundedcontexts/ordering&#45;&gt;#/domains/payment_processing/subdomains/payment_processors/boundedcontexts/payment_processor -->
<g id="edge9" class="edge">
<title>#/domains/commerce/subdomains/ordering/boundedcontexts/ordering&#45;&gt;#/domains/payment_processing/subdomains/payment_processors/boundedcontexts/payment_processor</title>
<path fill="none" stroke="black" d="M533.4,-184.21C531.24,-163.57 530.92,-137.17 532.45,-114.85"/>
<polygon fill="black" stroke="black" points="535.92,-115.37 533.29,-105.11 528.94,-114.77 535.92,-115.37"/>
<g id="a_edge9&#45;headlabel"><a xlink:title="open&#45;host&#45;service">
<text xml:space="preserve" text-anchor="middle" x="533.42" y="-100.6" font-family="sans-serif" font-size="10.00">OHS</text>
</a>
</g>
<g id="a_edge9&#45;taillabel"><a xlink:title="customer&#45;supplier">
<text xml:space="preserve" text-anchor="middle" x="533.4" y="-181.21" font-family="sans-serif" font-size="10.00">C/s</text>
</a>
</g>
</g>
<!-- #/domains/commerce/subdomains/ordering/boundedcontexts/ordering&#45;&gt;#/domains/payment_processing/subdomains/payment_processors/boundedcontexts/payment_processor -->
<g id="edge10" class="edge">
<title>#/domains/commerce/subdomains/ordering/boundedcontexts/ordering&#45;&gt;#/domains/payment_processing/subdomains/payment_processors/boundedcontexts/payment_processor</title>
<path fill="none" stroke="black" d="M556.6,-184.21C558.76,-163.57 559.08,-137.17 557.55,-114.85"/>
<polygon fill="black" stroke="black" points="561.06,-114.77 556.71,-105.11 554.08,-115.37 561.06,-114.77"/>
<g id="a_edge10&#45;headlabel"><a xlink:title="published&#45;language">
<text xml:space="preserve" text-anchor="middle" x="556.58" y="-100.6" font-family="sans-serif" font-size="10.00">PL</text>
</a>
</g>
<g id="a_edge10&#45;taillabel"><a xlink:title="conformist">
<text xml:space="preserve" text-anchor="middle" x="556.6" y="-181.21" font-family="sans-serif" font-size="10.00">C</text>
</a>
</g>
</g>
<!-- #/domains/edge_&amp;_experience/subdomains/web/boundedcontexts/web -->
<g id="node4" class="node">
<title>#/domains/edge_&amp;_experience/subdomains/web/boundedcontexts/web</title>
<g id="a_node4"><a xlink:title="Blazor Server web app for customers.">
<polygon fill="white" stroke="black" points="243.32,-336.1 246.84,-336.3 250.33,-336.59 253.76,-336.98 257.13,-337.47 260.42,-338.05 263.63,-338.73 266.72,-339.5 269.71,-340.35 272.56,-341.29 275.28,-342.32 277.85,-343.43 280.27,-344.62 282.53,-345.88 284.62,-347.21 286.53,-348.61 288.26,-350.08 289.81,-351.6 291.17,-353.18 292.35,-354.82 293.34,-356.5 294.14,-358.22 294.75,-359.98 295.18,-361.77 295.42,-363.59 295.49,-365.44 295.38,-367.3 295.1,-369.17 294.66,-371.06 294.06,-372.94 293.31,-374.83 292.41,-376.7 291.38,-378.56 290.22,-380.41 288.94,-382.23 287.54,-384.02 286.03,-385.78 284.43,-387.5 282.74,-389.18 280.96,-390.82 279.11,-392.4 277.19,-393.92 275.21,-395.39 273.17,-396.79 271.09,-398.12 268.96,-399.38 266.79,-400.57 264.58,-401.68 262.35,-402.71 260.1,-403.65 257.82,-404.5 255.52,-405.27 253.21,-405.95 250.89,-406.53 248.56,-407.02 246.22,-407.41 243.88,-407.7 241.53,-407.9 239.18,-408 236.82,-408 234.47,-407.9 232.12,-407.7 229.78,-407.41 227.44,-407.02 225.11,-406.53 222.79,-405.95 220.48,-405.27 218.18,-404.5 215.9,-403.65 213.65,-402.71 211.42,-401.68 209.21,-400.57 207.04,-399.38 204.91,-398.12 202.83,-396.79 200.79,-395.39 198.81,-393.92 196.89,-392.4 195.04,-390.82 193.26,-389.18 191.57,-387.5 189.97,-385.78 188.46,-384.02 187.06,-382.23 185.78,-380.41 184.62,-378.56 183.59,-376.7 182.69,-374.83 181.94,-372.94 181.34,-371.06 180.9,-369.17 180.62,-367.3 180.51,-365.44 180.58,-363.59 180.82,-361.77 181.25,-359.98 181.86,-358.22 182.66,-356.5 183.65,-354.82 184.83,-353.18 186.19,-351.6 187.74,-350.08 189.47,-348.61 191.38,-347.21 193.47,-345.88 195.73,-344.62 198.15,-343.43 200.72,-342.32 203.44,-341.29 206.29,-340.35 209.28,-339.5 212.37,-338.73 215.58,-338.05 218.87,-337.47 222.24,-336.98 225.67,-336.59 229.16,-336.3 232.68,-336.1 236.22,-336 239.78,-336 243.32,-336.1"/>
<text xml:space="preserve" text-anchor="middle" x="238" y="-367.8" font-family="sans-serif" font-size="14.00">Web</text>
</a>
</g>
</g>
<!-- #/domains/edge_&amp;_experience/subdomains/web/boundedcontexts/web&#45;&gt;#/domains/commerce/subdomains/catalog/boundedcontexts/catalog -->
<g id="edge1" class="edge">
<title>#/domains/edge_&amp;_experience/subdomains/web/boundedcontexts/web&#45;&gt;#/domains/commerce/subdomains/catalog/boundedcontexts/catalog</title>
<path fill="none" stroke="black" d="M278.38,-343.57C291.22,-334.14 305.16,-323.14 317,-312 333.66,-296.32 350.29,-277.22 363.8,-260.57"/>
<polygon fill="black" stroke="black" points="366.51,-262.79 370.03,-252.79 361.05,-258.41 366.51,-262.79"/>
<g id="a_edge1&#45;headlabel"><a xlink:title="open&#45;host&#45;service">
<text xml:space="preserve" text-anchor="middle" x="370.98" y="-248.61" font-family="sans-serif" font-size="10.00">OHS</text>
</a>
</g>
<g id="a_edge1&#45;taillabel"><a xlink:title="anti&#45;corruption&#45;layer">
<text xml:space="preserve" text-anchor="middle" x="278.38" y="-340.57" font-family="sans-serif" font-size="10.00">ACL</text>
</a>
</g>
</g>
<!-- #/domains/edge_&amp;_experience/subdomains/web/boundedcontexts/web&#45;&gt;#/domains/commerce/subdomains/basket/boundedcontexts/basket -->
<g id="edge4" class="edge">
<title>#/domains/edge_&amp;_experience/subdomains/web/boundedcontexts/web&#45;&gt;#/domains/commerce/subdomains/basket/boundedcontexts/basket</title>
<path fill="none" stroke="black" d="M239.17,-335.83C239.85,-315.57 240.7,-289.85 241.44,-267.89"/>
<polygon fill="black" stroke="black" points="244.93,-268.09 241.77,-257.98 237.94,-267.86 244.93,-268.09"/>
<g id="a_edge4&#45;headlabel"><a xlink:title="open&#45;host&#45;service">
<text xml:space="preserve" text-anchor="middle" x="241.82" y="-253.47" font-family="sans-serif" font-size="10.00">OHS</text>
</a>
</g>
<g id="a_edge4&#45;taillabel"><a xlink:title="anti&#45;corruption&#45;layer">
<text xml:space="preserve" text-anchor="middle" x="239.17" y="-332.83" font-family="sans-serif" font-size="10.00">ACL</text>
</a>
</g>
</g>
<!-- #/domains/edge_&amp;_experience/subdomains/web/boundedcontexts/web&#45;&gt;#/domains/commerce/subdomains/ordering/boundedcontexts/ordering -->
<g id="edge6" class="edge">
<title>#/domains/edge_&amp;_experience/subdomains/web/boundedcontexts/web&#45;&gt;#/domains/commerce/subdomains/ordering/boundedcontexts/ordering</title>
<path fill="none" stroke="black" d="M273.89,-341.52C286.2,-333.03 300.53,-324.77 315,-320 347.33,-309.33 437.5,-327.13 468,-312 489.63,-301.27 507.54,-281.42 520.62,-263"/>
<polygon fill="black" stroke="black" points="523.46,-265.04 526.17,-254.8 517.67,-261.12 523.46,-265.04"/>
<g id="a_edge6&#45;headlabel"><a xlink:title="open&#45;host&#45;service">
<text xml:space="preserve" text-anchor="middle" x="527.02" y="-250.54" font-family="sans-serif" font-size="10.00">OHS</text>
</a>
</g>
<g id="a_edge6&#45;taillabel"><a xlink:title="anti&#45;corruption&#45;layer">
<text xml:space="preserve" text-anchor="middle" x="273.89" y="-338.52" font-family="sans-serif" font-size="10.00">ACL</text>
</a>
</g>
</g>
<!-- #/domains/identity_&amp;_access/subdomains/auth_n_and_auth_z/boundedcontexts/identity -->
<g id="node10" class="node">
<title>#/domains/identity_&amp;_access/subdomains/auth_n_and_auth_z/boundedcontexts/identity</title>
<g id="a_node10"><a xlink:title="Identity provider (Duende IdentityServer / OIDC).">
<polygon fill="white" stroke="black" points="94.32,-184.1 97.84,-184.3 101.33,-184.59 104.76,-184.98 108.13,-185.47 111.42,-186.05 114.63,-186.73 117.72,-187.5 120.71,-188.35 123.56,-189.29 126.28,-190.32 128.85,-191.43 131.27,-192.62 133.53,-193.88 135.62,-195.21 137.53,-196.61 139.26,-198.08 140.81,-199.6 142.17,-201.18 143.35,-202.82 144.34,-204.5 145.14,-206.22 145.75,-207.98 146.18,-209.77 146.42,-211.59 146.49,-213.44 146.38,-215.3 146.1,-217.17 145.66,-219.06 145.06,-220.94 144.31,-222.83 143.41,-224.7 142.38,-226.56 141.22,-228.41 139.94,-230.23 138.54,-232.02 137.03,-233.78 135.43,-235.5 133.74,-237.18 131.96,-238.82 130.11,-240.4 128.19,-241.92 126.21,-243.39 124.17,-244.79 122.09,-246.12 119.96,-247.38 117.79,-248.57 115.58,-249.68 113.35,-250.71 111.1,-251.65 108.82,-252.5 106.52,-253.27 104.21,-253.95 101.89,-254.53 99.56,-255.02 97.22,-255.41 94.88,-255.7 92.53,-255.9 90.18,-256 87.82,-256 85.47,-255.9 83.12,-255.7 80.78,-255.41 78.44,-255.02 76.11,-254.53 73.79,-253.95 71.48,-253.27 69.18,-252.5 66.9,-251.65 64.65,-250.71 62.42,-249.68 60.21,-248.57 58.04,-247.38 55.91,-246.12 53.83,-244.79 51.79,-243.39 49.81,-241.92 47.89,-240.4 46.04,-238.82 44.26,-237.18 42.57,-235.5 40.97,-233.78 39.46,-232.02 38.06,-230.23 36.78,-228.41 35.62,-226.56 34.59,-224.7 33.69,-222.83 32.94,-220.94 32.34,-219.06 31.9,-217.17 31.62,-215.3 31.51,-213.44 31.58,-211.59 31.82,-209.77 32.25,-207.98 32.86,-206.22 33.66,-204.5 34.65,-202.82 35.83,-201.18 37.19,-199.6 38.74,-198.08 40.47,-196.61 42.38,-195.21 44.47,-193.88 46.73,-192.62 49.15,-191.43 51.72,-190.32 54.44,-189.29 57.29,-188.35 60.28,-187.5 63.37,-186.73 66.58,-186.05 69.87,-185.47 73.24,-184.98 76.67,-184.59 80.16,-184.3 83.68,-184.1 87.22,-184 90.78,-184 94.32,-184.1"/>
<text xml:space="preserve" text-anchor="middle" x="89" y="-215.8" font-family="sans-serif" font-size="14.00">Identity</text>
</a>
</g>
</g>
<!-- #/domains/edge_&amp;_experience/subdomains/web/boundedcontexts/web&#45;&gt;#/domains/identity_&amp;_access/subdomains/auth_n_and_auth_z/boundedcontexts/identity -->
<g id="edge11" class="edge">
<title>#/domains/edge_&amp;_experience/subdomains/web/boundedcontexts/web&#45;&gt;#/domains/identity_&amp;_access/subdomains/auth_n_and_auth_z/boundedcontexts/identity</title>
<path fill="none" stroke="black" d="M201.68,-341.62C190.88,-332.44 179.21,-322.07 169,-312 152.29,-295.52 134.96,-276.12 120.71,-259.48"/>
<polygon fill="black" stroke="black" points="123.68,-257.57 114.54,-252.21 118.34,-262.1 123.68,-257.57"/>
<g id="a_edge11&#45;headlabel"><a xlink:title="open&#45;host&#45;service">
<text xml:space="preserve" text-anchor="middle" x="113.56" y="-248.06" font-family="sans-serif" font-size="10.00">OHS</text>
</a>
</g>
<g id="a_edge11&#45;taillabel"><a xlink:title="customer&#45;supplier">
<text xml:space="preserve" text-anchor="middle" x="201.68" y="-338.62" font-family="sans-serif" font-size="10.00">C/s</text>
</a>
</g>
</g>
<!-- #/domains/edge_&amp;_experience/subdomains/mobile/boundedcontexts/mobile_bff -->
<g id="node5" class="node">
<title>#/domains/edge_&amp;_experience/subdomains/mobile/boundedcontexts/mobile_bff</title>
<g id="a_node5"><a xlink:title="BFF that aggregates catalog/basket/ordering.">
<polygon fill="white" stroke="black" points="394.32,-336.1 397.84,-336.3 401.33,-336.59 404.76,-336.98 408.13,-337.47 411.42,-338.05 414.63,-338.73 417.72,-339.5 420.71,-340.35 423.56,-341.29 426.28,-342.32 428.85,-343.43 431.27,-344.62 433.53,-345.88 435.62,-347.21 437.53,-348.61 439.26,-350.08 440.81,-351.6 442.17,-353.18 443.35,-354.82 444.34,-356.5 445.14,-358.22 445.75,-359.98 446.18,-361.77 446.42,-363.59 446.49,-365.44 446.38,-367.3 446.1,-369.17 445.66,-371.06 445.06,-372.94 444.31,-374.83 443.41,-376.7 442.38,-378.56 441.22,-380.41 439.94,-382.23 438.54,-384.02 437.03,-385.78 435.43,-387.5 433.74,-389.18 431.96,-390.82 430.11,-392.4 428.19,-393.92 426.21,-395.39 424.17,-396.79 422.09,-398.12 419.96,-399.38 417.79,-400.57 415.58,-401.68 413.35,-402.71 411.1,-403.65 408.82,-404.5 406.52,-405.27 404.21,-405.95 401.89,-406.53 399.56,-407.02 397.22,-407.41 394.88,-407.7 392.53,-407.9 390.18,-408 387.82,-408 385.47,-407.9 383.12,-407.7 380.78,-407.41 378.44,-407.02 376.11,-406.53 373.79,-405.95 371.48,-405.27 369.18,-404.5 366.9,-403.65 364.65,-402.71 362.42,-401.68 360.21,-400.57 358.04,-399.38 355.91,-398.12 353.83,-396.79 351.79,-395.39 349.81,-393.92 347.89,-392.4 346.04,-390.82 344.26,-389.18 342.57,-387.5 340.97,-385.78 339.46,-384.02 338.06,-382.23 336.78,-380.41 335.62,-378.56 334.59,-376.7 333.69,-374.83 332.94,-372.94 332.34,-371.06 331.9,-369.17 331.62,-367.3 331.51,-365.44 331.58,-363.59 331.82,-361.77 332.25,-359.98 332.86,-358.22 333.66,-356.5 334.65,-354.82 335.83,-353.18 337.19,-351.6 338.74,-350.08 340.47,-348.61 342.38,-347.21 344.47,-345.88 346.73,-344.62 349.15,-343.43 351.72,-342.32 354.44,-341.29 357.29,-340.35 360.28,-339.5 363.37,-338.73 366.58,-338.05 369.87,-337.47 373.24,-336.98 376.67,-336.59 380.16,-336.3 383.68,-336.1 387.22,-336 390.78,-336 394.32,-336.1"/>
<text xml:space="preserve" text-anchor="middle" x="389" y="-367.8" font-family="sans-serif" font-size="14.00">Mobile BFF</text>
</a>
</g>
</g>
<!-- #/domains/edge_&amp;_experience/subdomains/mobile/boundedcontexts/mobile_bff&#45;&gt;#/domains/commerce/subdomains/catalog/boundedcontexts/catalog -->
<g id="edge2" class="edge">
<title>#/domains/edge_&amp;_experience/subdomains/mobile/boundedcontexts/mobile_bff&#45;&gt;#/domains/commerce/subdomains/catalog/boundedcontexts/catalog</title>
<path fill="none" stroke="black" d="M390.17,-335.83C390.85,-315.57 391.7,-289.85 392.44,-267.89"/>
<polygon fill="black" stroke="black" points="395.93,-268.09 392.77,-257.98 388.94,-267.86 395.93,-268.09"/>
<g id="a_edge2&#45;headlabel"><a xlink:title="open&#45;host&#45;service">
<text xml:space="preserve" text-anchor="middle" x="392.82" y="-253.47" font-family="sans-serif" font-size="10.00">OHS</text>
</a>
</g>
<g id="a_edge2&#45;taillabel"><a xlink:title="anti&#45;corruption&#45;layer">
<text xml:space="preserve" text-anchor="middle" x="390.17" y="-332.83" font-family="sans-serif" font-size="10.00">ACL</text>
</a>
</g>
</g>
<!-- #/domains/edge_&amp;_experience/subdomains/mobile/boundedcontexts/mobile_bff&#45;&gt;#/domains/commerce/subdomains/basket/boundedcontexts/basket -->
<g id="edge5" class="edge">
<title>#/domains/edge_&amp;_experience/subdomains/mobile/boundedcontexts/mobile_bff&#45;&gt;#/domains/commerce/subdomains/basket/boundedcontexts/basket</title>
<path fill="none" stroke="black" d="M352.56,-341.74C341.76,-332.56 330.12,-322.17 320,-312 303.87,-295.78 287.31,-276.61 273.7,-260.05"/>
<polygon fill="black" stroke="black" points="276.45,-257.88 267.43,-252.33 271.02,-262.29 276.45,-257.88"/>
<g id="a_edge5&#45;headlabel"><a xlink:title="open&#45;host&#45;service">
<text xml:space="preserve" text-anchor="middle" x="266.47" y="-248.15" font-family="sans-serif" font-size="10.00">OHS</text>
</a>
</g>
<g id="a_edge5&#45;taillabel"><a xlink:title="anti&#45;corruption&#45;layer">
<text xml:space="preserve" text-anchor="middle" x="352.56" y="-338.74" font-family="sans-serif" font-size="10.00">ACL</text>
</a>
</g>
</g>
<!-- #/domains/edge_&amp;_experience/subdomains/mobile/boundedcontexts/mobile_bff&#45;&gt;#/domains/commerce/subdomains/ordering/boundedcontexts/ordering -->
<g id="edge7" class="edge">
<title>#/domains/edge_&amp;_experience/subdomains/mobile/boundedcontexts/mobile_bff&#45;&gt;#/domains/commerce/subdomains/ordering/boundedcontexts/ordering</title>
<path fill="none" stroke="black" d="M429.38,-343.57C442.22,-334.14 456.16,-323.14 468,-312 484.66,-296.32 501.29,-277.22 514.8,-260.57"/>
<polygon fill="black" stroke="black" points="517.51,-262.79 521.03,-252.79 512.05,-258.41 517.51,-262.79"/>
<g id="a_edge7&#45;headlabel"><a xlink:title="open&#45;host&#45;service">
<text xml:space="preserve" text-anchor="middle" x="521.98" y="-248.61" font-family="sans-serif" font-size="10.00">OHS</text>
</a>
</g>
<g id="a_edge7&#45;taillabel"><a xlink:title="anti&#45;corruption&#45;layer">
<text xml:space="preserve" text-anchor="middle" x="429.38" y="-340.57" font-family="sans-serif" font-size="10.00">ACL</text>
</a>
</g>
</g>
<!-- #/domains/edge_&amp;_experience/subdomains/mobile/boundedcontexts/mobile_bff&#45;&gt;#/domains/identity_&amp;_access/subdomains/auth_n_and_auth_z/boundedcontexts/identity -->
<g id="edge12" class="edge">
<title>#/domains/edge_&amp;_experience/subdomains/mobile/boundedcontexts/mobile_bff&#45;&gt;#/domains/identity_&amp;_access/subdomains/auth_n_and_auth_z/boundedcontexts/identity</title>
<path fill="none" stroke="black" d="M353.1,-341.55C340.79,-333.06 326.46,-324.8 312,-320 281.79,-309.97 197.62,-325.92 169,-312 146.67,-301.14 127.92,-280.94 114.2,-262.33"/>
<polygon fill="black" stroke="black" points="117.18,-260.48 108.56,-254.32 111.46,-264.51 117.18,-260.48"/>
<g id="a_edge12&#45;headlabel"><a xlink:title="open&#45;host&#45;service">
<text xml:space="preserve" text-anchor="middle" x="107.68" y="-250.08" font-family="sans-serif" font-size="10.00">OHS</text>
</a>
</g>
<g id="a_edge12&#45;taillabel"><a xlink:title="customer&#45;supplier">
<text xml:space="preserve" text-anchor="middle" x="353.1" y="-338.55" font-family="sans-serif" font-size="10.00">C/s</text>
</a>
</g>
</g>
<!-- #/domains/operations/subdomains/backoffice/boundedcontexts/backoffice_app -->
<g id="node6" class="node">
<title>#/domains/operations/subdomains/backoffice/boundedcontexts/backoffice_app</title>
<g id="a_node6"><a xlink:title="Admin/demo app for price updates.">
<polygon fill="white" stroke="black" points="549.33,-336.1 552.86,-336.3 556.35,-336.59 559.79,-336.98 563.16,-337.47 566.46,-338.05 569.67,-338.73 572.77,-339.5 575.76,-340.35 578.62,-341.29 581.34,-342.32 583.92,-343.43 586.34,-344.62 588.6,-345.88 590.69,-347.21 592.61,-348.61 594.34,-350.08 595.89,-351.6 597.26,-353.18 598.44,-354.82 599.43,-356.5 600.23,-358.22 600.84,-359.98 601.27,-361.77 601.51,-363.59 601.58,-365.44 601.47,-367.3 601.19,-369.17 600.75,-371.06 600.15,-372.94 599.4,-374.83 598.5,-376.7 597.47,-378.56 596.3,-380.41 595.02,-382.23 593.62,-384.02 592.11,-385.78 590.51,-387.5 588.81,-389.18 587.03,-390.82 585.18,-392.4 583.26,-393.92 581.27,-395.39 579.23,-396.79 577.14,-398.12 575,-399.38 572.83,-400.57 570.63,-401.68 568.39,-402.71 566.13,-403.65 563.85,-404.5 561.55,-405.27 559.24,-405.95 556.91,-406.53 554.58,-407.02 552.23,-407.41 549.89,-407.7 547.53,-407.9 545.18,-408 542.82,-408 540.47,-407.9 538.11,-407.7 535.77,-407.41 533.42,-407.02 531.09,-406.53 528.76,-405.95 526.45,-405.27 524.15,-404.5 521.87,-403.65 519.61,-402.71 517.37,-401.68 515.17,-400.57 513,-399.38 510.86,-398.12 508.77,-396.79 506.73,-395.39 504.74,-393.92 502.82,-392.4 500.97,-390.82 499.19,-389.18 497.49,-387.5 495.89,-385.78 494.38,-384.02 492.98,-382.23 491.7,-380.41 490.53,-378.56 489.5,-376.7 488.6,-374.83 487.85,-372.94 487.25,-371.06 486.81,-369.17 486.53,-367.3 486.42,-365.44 486.49,-363.59 486.73,-361.77 487.16,-359.98 487.77,-358.22 488.57,-356.5 489.56,-354.82 490.74,-353.18 492.11,-351.6 493.66,-350.08 495.39,-348.61 497.31,-347.21 499.4,-345.88 501.66,-344.62 504.08,-343.43 506.66,-342.32 509.38,-341.29 512.24,-340.35 515.23,-339.5 518.33,-338.73 521.54,-338.05 524.84,-337.47 528.21,-336.98 531.65,-336.59 535.14,-336.3 538.67,-336.1 542.22,-336 545.78,-336 549.33,-336.1"/>
<text xml:space="preserve" text-anchor="middle" x="544" y="-367.8" font-family="sans-serif" font-size="14.00">BackofficeApp</text>
</a>
</g>
</g>
<!-- #/domains/operations/subdomains/backoffice/boundedcontexts/backoffice_app&#45;&gt;#/domains/commerce/subdomains/catalog/boundedcontexts/catalog -->
<g id="edge3" class="edge">
<title>#/domains/operations/subdomains/backoffice/boundedcontexts/backoffice_app&#45;&gt;#/domains/commerce/subdomains/catalog/boundedcontexts/catalog</title>
<path fill="none" stroke="black" d="M505.71,-342.29C494.16,-333.05 481.72,-322.48 471,-312 454.64,-296.01 438.06,-276.86 424.49,-260.27"/>
<polygon fill="black" stroke="black" points="427.24,-258.1 418.23,-252.52 421.79,-262.5 427.24,-258.1"/>
<g id="a_edge3&#45;headlabel"><a xlink:title="open&#45;host&#45;service">
<text xml:space="preserve" text-anchor="middle" x="417.28" y="-248.34" font-family="sans-serif" font-size="10.00">OHS</text>
</a>
</g>
<g id="a_edge3&#45;taillabel"><a xlink:title="customer&#45;supplier">
<text xml:space="preserve" text-anchor="middle" x="505.71" y="-339.29" font-family="sans-serif" font-size="10.00">C/s</text>
</a>
</g>
</g>
<!-- #/domains/api_integration/subdomains/webhooks/boundedcontexts/webhooks -->
<g id="node7" class="node">
<title>#/domains/api_integration/subdomains/webhooks/boundedcontexts/webhooks</title>
<g id="a_node7"><a xlink:title="Register webhooks and deliver order events to subscribers.">
<polygon fill="white" stroke="black" points="706.32,-336.1 709.84,-336.3 713.33,-336.59 716.76,-336.98 720.13,-337.47 723.42,-338.05 726.63,-338.73 729.72,-339.5 732.71,-340.35 735.56,-341.29 738.28,-342.32 740.85,-343.43 743.27,-344.62 745.53,-345.88 747.62,-347.21 749.53,-348.61 751.26,-350.08 752.81,-351.6 754.17,-353.18 755.35,-354.82 756.34,-356.5 757.14,-358.22 757.75,-359.98 758.18,-361.77 758.42,-363.59 758.49,-365.44 758.38,-367.3 758.1,-369.17 757.66,-371.06 757.06,-372.94 756.31,-374.83 755.41,-376.7 754.38,-378.56 753.22,-380.41 751.94,-382.23 750.54,-384.02 749.03,-385.78 747.43,-387.5 745.74,-389.18 743.96,-390.82 742.11,-392.4 740.19,-393.92 738.21,-395.39 736.17,-396.79 734.09,-398.12 731.96,-399.38 729.79,-400.57 727.58,-401.68 725.35,-402.71 723.1,-403.65 720.82,-404.5 718.52,-405.27 716.21,-405.95 713.89,-406.53 711.56,-407.02 709.22,-407.41 706.88,-407.7 704.53,-407.9 702.18,-408 699.82,-408 697.47,-407.9 695.12,-407.7 692.78,-407.41 690.44,-407.02 688.11,-406.53 685.79,-405.95 683.48,-405.27 681.18,-404.5 678.9,-403.65 676.65,-402.71 674.42,-401.68 672.21,-400.57 670.04,-399.38 667.91,-398.12 665.83,-396.79 663.79,-395.39 661.81,-393.92 659.89,-392.4 658.04,-390.82 656.26,-389.18 654.57,-387.5 652.97,-385.78 651.46,-384.02 650.06,-382.23 648.78,-380.41 647.62,-378.56 646.59,-376.7 645.69,-374.83 644.94,-372.94 644.34,-371.06 643.9,-369.17 643.62,-367.3 643.51,-365.44 643.58,-363.59 643.82,-361.77 644.25,-359.98 644.86,-358.22 645.66,-356.5 646.65,-354.82 647.83,-353.18 649.19,-351.6 650.74,-350.08 652.47,-348.61 654.38,-347.21 656.47,-345.88 658.73,-344.62 661.15,-343.43 663.72,-342.32 666.44,-341.29 669.29,-340.35 672.28,-339.5 675.37,-338.73 678.58,-338.05 681.87,-337.47 685.24,-336.98 688.67,-336.59 692.16,-336.3 695.68,-336.1 699.22,-336 702.78,-336 706.32,-336.1"/>
<text xml:space="preserve" text-anchor="middle" x="701" y="-367.8" font-family="sans-serif" font-size="14.00">Webhooks</text>
</a>
</g>
</g>
<!-- #/domains/api_integration/subdomains/webhooks/boundedcontexts/webhooks&#45;&gt;#/domains/commerce/subdomains/ordering/boundedcontexts/ordering -->
<g id="edge8" class="edge">
<title>#/domains/api_integration/subdomains/webhooks/boundedcontexts/webhooks&#45;&gt;#/domains/commerce/subdomains/ordering/boundedcontexts/ordering</title>
<path fill="none" stroke="black" d="M661.95,-342.95C649.72,-333.57 636.44,-322.76 625,-312 607.78,-295.8 590.26,-276.28 576.02,-259.48"/>
<polygon fill="black" stroke="black" points="578.97,-257.55 569.86,-252.14 573.6,-262.05 578.97,-257.55"/>
<g id="a_edge8&#45;headlabel"><a xlink:title="published&#45;language">
<text xml:space="preserve" text-anchor="middle" x="568.89" y="-247.98" font-family="sans-serif" font-size="10.00">PL</text>
</a>
</g>
<g id="a_edge8&#45;taillabel"><a xlink:title="conformist">
<text xml:space="preserve" text-anchor="middle" x="661.95" y="-339.95" font-family="sans-serif" font-size="10.00">C</text>
</a>
</g>
</g>
<!-- #/domains/api_integration/subdomains/webhooks/boundedcontexts/webhook_client -->
<g id="node8" class="node">
<title>#/domains/api_integration/subdomains/webhooks/boundedcontexts/webhook_client</title>
<g id="a_node8"><a xlink:title="Sample receiver app for incoming webhook deliveries.">
<polygon fill="white" stroke="black" points="706.49,-184.1 710.13,-184.3 713.73,-184.59 717.27,-184.98 720.75,-185.47 724.15,-186.05 727.46,-186.73 730.66,-187.5 733.74,-188.35 736.68,-189.29 739.49,-190.32 742.15,-191.43 744.65,-192.62 746.98,-193.88 749.13,-195.21 751.11,-196.61 752.89,-198.08 754.49,-199.6 755.9,-201.18 757.12,-202.82 758.14,-204.5 758.96,-206.22 759.59,-207.98 760.03,-209.77 760.29,-211.59 760.35,-213.44 760.24,-215.3 759.95,-217.17 759.5,-219.06 758.88,-220.94 758.1,-222.83 757.18,-224.7 756.11,-226.56 754.91,-228.41 753.59,-230.23 752.15,-232.02 750.59,-233.78 748.94,-235.5 747.19,-237.18 745.36,-238.82 743.45,-240.4 741.47,-241.92 739.42,-243.39 737.32,-244.79 735.16,-246.12 732.96,-247.38 730.72,-248.57 728.45,-249.68 726.14,-250.71 723.81,-251.65 721.46,-252.5 719.09,-253.27 716.71,-253.95 714.31,-254.53 711.9,-255.02 709.49,-255.41 707.07,-255.7 704.64,-255.9 702.21,-256 699.79,-256 697.36,-255.9 694.93,-255.7 692.51,-255.41 690.1,-255.02 687.69,-254.53 685.29,-253.95 682.91,-253.27 680.54,-252.5 678.19,-251.65 675.86,-250.71 673.55,-249.68 671.28,-248.57 669.04,-247.38 666.84,-246.12 664.68,-244.79 662.58,-243.39 660.53,-241.92 658.55,-240.4 656.64,-238.82 654.81,-237.18 653.06,-235.5 651.41,-233.78 649.85,-232.02 648.41,-230.23 647.09,-228.41 645.89,-226.56 644.82,-224.7 643.9,-222.83 643.12,-220.94 642.5,-219.06 642.05,-217.17 641.76,-215.3 641.65,-213.44 641.71,-211.59 641.97,-209.77 642.41,-207.98 643.04,-206.22 643.86,-204.5 644.88,-202.82 646.1,-201.18 647.51,-199.6 649.11,-198.08 650.89,-196.61 652.87,-195.21 655.02,-193.88 657.35,-192.62 659.85,-191.43 662.51,-190.32 665.32,-189.29 668.26,-188.35 671.34,-187.5 674.54,-186.73 677.85,-186.05 681.25,-185.47 684.73,-184.98 688.27,-184.59 691.87,-184.3 695.51,-184.1 699.17,-184 702.83,-184 706.49,-184.1"/>
<text xml:space="preserve" text-anchor="middle" x="701" y="-215.8" font-family="sans-serif" font-size="14.00">WebhookClient</text>
</a>
</g>
</g>
<!-- #/domains/api_integration/subdomains/webhooks/boundedcontexts/webhooks&#45;&gt;#/domains/api_integration/subdomains/webhooks/boundedcontexts/webhook_client -->
<g id="edge14" class="edge">
<title>#/domains/api_integration/subdomains/webhooks/boundedcontexts/webhooks&#45;&gt;#/domains/api_integration/subdomains/webhooks/boundedcontexts/webhook_client</title>
<path fill="none" stroke="black" d="M689.4,-336.21C687.23,-315.5 686.92,-288.98 688.47,-266.61"/>
<polygon fill="black" stroke="black" points="691.94,-267.12 689.31,-256.85 684.96,-266.51 691.94,-267.12"/>
<g id="a_edge14&#45;headlabel"><a xlink:title="open&#45;host&#45;service">
<text xml:space="preserve" text-anchor="middle" x="689.45" y="-252.34" font-family="sans-serif" font-size="10.00">OHS</text>
</a>
</g>
<g id="a_edge14&#45;taillabel"><a xlink:title="customer&#45;supplier">
<text xml:space="preserve" text-anchor="middle" x="689.4" y="-333.21" font-family="sans-serif" font-size="10.00">C/s</text>
</a>
</g>
</g>
<!-- #/domains/api_integration/subdomains/webhooks/boundedcontexts/webhook_client&#45;&gt;#/domains/api_integration/subdomains/webhooks/boundedcontexts/webhooks -->
<g id="edge13" class="edge">
<title>#/domains/api_integration/subdomains/webhooks/boundedcontexts/webhook_client&#45;&gt;#/domains/api_integration/subdomains/webhooks/boundedcontexts/webhooks</title>
<path fill="none" stroke="black" d="M712.55,-255.34C714.75,-275.97 715.09,-302.47 713.57,-324.9"/>
<polygon fill="black" stroke="black" points="710.09,-324.44 712.73,-334.7 717.07,-325.04 710.09,-324.44"/>
<g id="a_edge13&#45;headlabel"><a xlink:title="open&#45;host&#45;service">
<text xml:space="preserve" text-anchor="middle" x="712.6" y="-333.21" font-family="sans-serif" font-size="10.00">OHS</text>
</a>
</g>
<g id="a_edge13&#45;taillabel"><a xlink:title="customer&#45;supplier">
<text xml:space="preserve" text-anchor="middle" x="712.55" y="-252.34" font-family="sans-serif" font-size="10.00">C/s</text>
</a>
</g>
</g>
</g>
</svg>
