<?xml version="1.0" encoding="UTF-8" standalone="no"?>
<?xml-stylesheet href="data:text/css,.graph%20text%20%7B%0A%09font-family%3A%20sans-serif%3B%0A%09stroke%3A%20white%3B%0A%09paint-order%3A%20stroke%3B%0A%09stroke-width%3A%203%3B%0A%09stroke-linecap%3A%20square%3B%0A%7D%0A%0A.namespace%20polygon%20%7B%0A%09fill-opacity%3A%200.2%3B%0A%09stroke%3A%20none%3B%0A%7D%0A" type="text/css"?>
<!DOCTYPE svg PUBLIC "-//W3C//DTD SVG 1.1//EN"
 "http://www.w3.org/Graphics/SVG/1.1/DTD/svg11.dtd">
<!-- Generated by graphviz version 13.1.2 (0)
 -->
<!-- Pages: 1 -->
<svg width="186pt" height="436pt"
 viewBox="0.00 0.00 186.00 436.00" xmlns="http://www.w3.org/2000/svg" xmlns:xlink="http://www.w3.org/1999/xlink">
<g id="graph0" class="graph" transform="scale(1 1) rotate(0) translate(4 432)">
<polygon fill="white" stroke="none" points="-4,4 -4,-432 182,-432 182,4 -4,4"/>
<g id="clust1" class="cluster namespace">
<title>swagger_petstore_(v3)</title>
<polygon fill="lightgrey" stroke="lightgrey" points="8,-8 8,-420 170,-420 170,-8 8,-8"/>
<text xml:space="preserve" text-anchor="middle" x="89" y="-407" font-family="sans-serif" font-size="10.00">Swagger Petstore (v3)</text>
</g>
<g id="clust2" class="cluster namespace">
<title>#/domains/petstore_commerce</title>
<polygon fill="lightgrey" stroke="lightgrey" points="16,-16 16,-392 162,-392 162,-16 16,-16"/>
<text xml:space="preserve" text-anchor="middle" x="89" y="-379" font-family="sans-serif" font-size="10.00">Petstore Commerce</text>
</g>
<g id="clust3" class="cluster namespace">
<title>#/domains/petstore_commerce/subdomains/catalog</title>
<polygon fill="lightgrey" stroke="lightgrey" points="24,-24 24,-132 154,-132 154,-24 24,-24"/>
<text xml:space="preserve" text-anchor="middle" x="89" y="-119" font-family="sans-serif" font-size="10.00">Catalog</text>
</g>
<g id="clust4" class="cluster namespace">
<title>#/domains/petstore_commerce/subdomains/sales</title>
<polygon fill="lightgrey" stroke="lightgrey" points="24,-140 24,-248 154,-248 154,-140 24,-140"/>
<text xml:space="preserve" text-anchor="middle" x="89" y="-235" font-family="sans-serif" font-size="10.00">Sales</text>
</g>
<g id="clust5" class="cluster namespace">
<title>#/domains/petstore_commerce/subdomains/inventory</title>
<polygon fill="lightgrey" stroke="lightgrey" points="24,-256 24,-364 154,-364 154,-256 24,-256"/>
<text xml:space="preserve" text-anchor="middle" x="89" y="-351" font-family="sans-serif" font-size="10.00">Inventory</text>
</g>
<!-- #/domains/petstore_commerce/subdomains/catalog/boundedcontexts/catalog_bc -->
<g id="node1" class="node">
<title>#/domains/petstore_commerce/subdomains/catalog/boundedcontexts/catalog_bc</title>
<g id="a_node1"><a xlink:title="Owns Pet aggregate &amp; pet&#45;facing operations">
<polygon fill="white" stroke="black" points="94.32,-32.1 97.84,-32.3 101.33,-32.59 104.76,-32.98 108.13,-33.47 111.42,-34.05 114.63,-34.73 117.72,-35.5 120.71,-36.35 123.56,-37.29 126.28,-38.32 128.85,-39.43 131.27,-40.62 133.53,-41.88 135.62,-43.21 137.53,-44.61 139.26,-46.08 140.81,-47.6 142.17,-49.18 143.35,-50.82 144.34,-52.5 145.14,-54.22 145.75,-55.98 146.18,-57.77 146.42,-59.59 146.49,-61.44 146.38,-63.3 146.1,-65.17 145.66,-67.06 145.06,-68.94 144.31,-70.83 143.41,-72.7 142.38,-74.56 141.22,-76.41 139.94,-78.23 138.54,-80.02 137.03,-81.78 135.43,-83.5 133.74,-85.18 131.96,-86.82 130.11,-88.4 128.19,-89.92 126.21,-91.39 124.17,-92.79 122.09,-94.12 119.96,-95.38 117.79,-96.57 115.58,-97.68 113.35,-98.71 111.1,-99.65 108.82,-100.5 106.52,-101.27 104.21,-101.95 101.89,-102.53 99.56,-103.02 97.22,-103.41 94.88,-103.7 92.53,-103.9 90.18,-104 87.82,-104 85.47,-103.9 83.12,-103.7 80.78,-103.41 78.44,-103.02 76.11,-102.53 73.79,-101.95 71.48,-101.27 69.18,-100.5 66.9,-99.65 64.65,-98.71 62.42,-97.68 60.21,-96.57 58.04,-95.38 55.91,-94.12 53.83,-92.79 51.79,-91.39 49.81,-89.92 47.89,-88.4 46.04,-86.82 44.26,-85.18 42.57,-83.5 40.97,-81.78 39.46,-80.02 38.06,-78.23 36.78,-76.41 35.62,-74.56 34.59,-72.7 33.69,-70.83 32.94,-68.94 32.34,-67.06 31.9,-65.17 31.62,-63.3 31.51,-61.44 31.58,-59.59 31.82,-57.77 32.25,-55.98 32.86,-54.22 33.66,-52.5 34.65,-50.82 35.83,-49.18 37.19,-47.6 38.74,-46.08 40.47,-44.61 42.38,-43.21 44.47,-41.88 46.73,-40.62 49.15,-39.43 51.72,-38.32 54.44,-37.29 57.29,-36.35 60.28,-35.5 63.37,-34.73 66.58,-34.05 69.87,-33.47 73.24,-32.98 76.67,-32.59 80.16,-32.3 83.68,-32.1 87.22,-32 90.78,-32 94.32,-32.1"/>
<text xml:space="preserve" text-anchor="middle" x="89" y="-63.8" font-family="sans-serif" font-size="14.00">Catalog BC</text>
</a>
</g>
</g>
<!-- #/domains/petstore_commerce/subdomains/sales/boundedcontexts/sales_bc -->
<g id="node2" class="node">
<title>#/domains/petstore_commerce/subdomains/sales/boundedcontexts/sales_bc</title>
<g id="a_node2"><a xlink:title="Owns Order aggregate &amp; order&#45;facing operations">
<polygon fill="white" stroke="black" points="94.32,-148.1 97.84,-148.3 101.33,-148.59 104.76,-148.98 108.13,-149.47 111.42,-150.05 114.63,-150.73 117.72,-151.5 120.71,-152.35 123.56,-153.29 126.28,-154.32 128.85,-155.43 131.27,-156.62 133.53,-157.88 135.62,-159.21 137.53,-160.61 139.26,-162.08 140.81,-163.6 142.17,-165.18 143.35,-166.82 144.34,-168.5 145.14,-170.22 145.75,-171.98 146.18,-173.77 146.42,-175.59 146.49,-177.44 146.38,-179.3 146.1,-181.17 145.66,-183.06 145.06,-184.94 144.31,-186.83 143.41,-188.7 142.38,-190.56 141.22,-192.41 139.94,-194.23 138.54,-196.02 137.03,-197.78 135.43,-199.5 133.74,-201.18 131.96,-202.82 130.11,-204.4 128.19,-205.92 126.21,-207.39 124.17,-208.79 122.09,-210.12 119.96,-211.38 117.79,-212.57 115.58,-213.68 113.35,-214.71 111.1,-215.65 108.82,-216.5 106.52,-217.27 104.21,-217.95 101.89,-218.53 99.56,-219.02 97.22,-219.41 94.88,-219.7 92.53,-219.9 90.18,-220 87.82,-220 85.47,-219.9 83.12,-219.7 80.78,-219.41 78.44,-219.02 76.11,-218.53 73.79,-217.95 71.48,-217.27 69.18,-216.5 66.9,-215.65 64.65,-214.71 62.42,-213.68 60.21,-212.57 58.04,-211.38 55.91,-210.12 53.83,-208.79 51.79,-207.39 49.81,-205.92 47.89,-204.4 46.04,-202.82 44.26,-201.18 42.57,-199.5 40.97,-197.78 39.46,-196.02 38.06,-194.23 36.78,-192.41 35.62,-190.56 34.59,-188.7 33.69,-186.83 32.94,-184.94 32.34,-183.06 31.9,-181.17 31.62,-179.3 31.51,-177.44 31.58,-175.59 31.82,-173.77 32.25,-171.98 32.86,-170.22 33.66,-168.5 34.65,-166.82 35.83,-165.18 37.19,-163.6 38.74,-162.08 40.47,-160.61 42.38,-159.21 44.47,-157.88 46.73,-156.62 49.15,-155.43 51.72,-154.32 54.44,-153.29 57.29,-152.35 60.28,-151.5 63.37,-150.73 66.58,-150.05 69.87,-149.47 73.24,-148.98 76.67,-148.59 80.16,-148.3 83.68,-148.1 87.22,-148 90.78,-148 94.32,-148.1"/>
<text xml:space="preserve" text-anchor="middle" x="89" y="-179.8" font-family="sans-serif" font-size="14.00">Sales BC</text>
</a>
</g>
</g>
<!-- #/domains/petstore_commerce/subdomains/sales/boundedcontexts/sales_bc&#45;&gt;#/domains/petstore_commerce/subdomains/catalog/boundedcontexts/catalog_bc -->
<g id="edge1" class="edge">
<title>#/domains/petstore_commerce/subdomains/sales/boundedcontexts/sales_bc&#45;&gt;#/domains/petstore_commerce/subdomains/catalog/boundedcontexts/catalog_bc</title>
<path fill="none" stroke="black" d="M89,-147.55C89,-137.47 89,-126.34 89,-115.7"/>
<polygon fill="black" stroke="black" points="92.5,-115.94 89,-105.94 85.5,-115.94 92.5,-115.94"/>
<g id="a_edge1&#45;headlabel"><a xlink:title="open&#45;host&#45;service">
<text xml:space="preserve" text-anchor="middle" x="89" y="-101.42" font-family="sans-serif" font-size="10.00">OHS</text>
</a>
</g>
<g id="a_edge1&#45;taillabel"><a xlink:title="anti&#45;corruption&#45;layer">
<text xml:space="preserve" text-anchor="middle" x="89" y="-144.55" font-family="sans-serif" font-size="10.00">ACL</text>
</a>
</g>
</g>
<!-- #/domains/petstore_commerce/subdomains/inventory/boundedcontexts/inventory_bc -->
<g id="node3" class="node">
<title>#/domains/petstore_commerce/subdomains/inventory/boundedcontexts/inventory_bc</title>
<g id="a_node3"><a xlink:title="Projection for /store/inventory (status→count)">
<polygon fill="white" stroke="black" points="94.32,-264.1 97.84,-264.3 101.33,-264.59 104.76,-264.98 108.13,-265.47 111.42,-266.05 114.63,-266.73 117.72,-267.5 120.71,-268.35 123.56,-269.29 126.28,-270.32 128.85,-271.43 131.27,-272.62 133.53,-273.88 135.62,-275.21 137.53,-276.61 139.26,-278.08 140.81,-279.6 142.17,-281.18 143.35,-282.82 144.34,-284.5 145.14,-286.22 145.75,-287.98 146.18,-289.77 146.42,-291.59 146.49,-293.44 146.38,-295.3 146.1,-297.17 145.66,-299.06 145.06,-300.94 144.31,-302.83 143.41,-304.7 142.38,-306.56 141.22,-308.41 139.94,-310.23 138.54,-312.02 137.03,-313.78 135.43,-315.5 133.74,-317.18 131.96,-318.82 130.11,-320.4 128.19,-321.92 126.21,-323.39 124.17,-324.79 122.09,-326.12 119.96,-327.38 117.79,-328.57 115.58,-329.68 113.35,-330.71 111.1,-331.65 108.82,-332.5 106.52,-333.27 104.21,-333.95 101.89,-334.53 99.56,-335.02 97.22,-335.41 94.88,-335.7 92.53,-335.9 90.18,-336 87.82,-336 85.47,-335.9 83.12,-335.7 80.78,-335.41 78.44,-335.02 76.11,-334.53 73.79,-333.95 71.48,-333.27 69.18,-332.5 66.9,-331.65 64.65,-330.71 62.42,-329.68 60.21,-328.57 58.04,-327.38 55.91,-326.12 53.83,-324.79 51.79,-323.39 49.81,-321.92 47.89,-320.4 46.04,-318.82 44.26,-317.18 42.57,-315.5 40.97,-313.78 39.46,-312.02 38.06,-310.23 36.78,-308.41 35.62,-306.56 34.59,-304.7 33.69,-302.83 32.94,-300.94 32.34,-299.06 31.9,-297.17 31.62,-295.3 31.51,-293.44 31.58,-291.59 31.82,-289.77 32.25,-287.98 32.86,-286.22 33.66,-284.5 34.65,-282.82 35.83,-281.18 37.19,-279.6 38.74,-278.08 40.47,-276.61 42.38,-275.21 44.47,-273.88 46.73,-272.62 49.15,-271.43 51.72,-270.32 54.44,-269.29 57.29,-268.35 60.28,-267.5 63.37,-266.73 66.58,-266.05 69.87,-265.47 73.24,-264.98 76.67,-264.59 80.16,-264.3 83.68,-264.1 87.22,-264 90.78,-264 94.32,-264.1"/>
<text xml:space="preserve" text-anchor="middle" x="89" y="-295.8" font-family="sans-serif" font-size="14.00">Inventory BC</text>
</a>
</g>
</g>
<!-- #/domains/petstore_commerce/subdomains/inventory/boundedcontexts/inventory_bc&#45;&gt;#/domains/petstore_commerce/subdomains/sales/boundedcontexts/sales_bc -->
<g id="edge2" class="edge">
<title>#/domains/petstore_commerce/subdomains/inventory/boundedcontexts/inventory_bc&#45;&gt;#/domains/petstore_commerce/subdomains/sales/boundedcontexts/sales_bc</title>
<path fill="none" stroke="black" d="M89,-263.55C89,-253.47 89,-242.34 89,-231.7"/>
<polygon fill="black" stroke="black" points="92.5,-231.94 89,-221.94 85.5,-231.94 92.5,-231.94"/>
<g id="a_edge2&#45;headlabel"><a xlink:title="published&#45;language">
<text xml:space="preserve" text-anchor="middle" x="89" y="-217.42" font-family="sans-serif" font-size="10.00">PL</text>
</a>
</g>
<g id="a_edge2&#45;taillabel"><a xlink:title="conformist">
<text xml:space="preserve" text-anchor="middle" x="89" y="-260.55" font-family="sans-serif" font-size="10.00">C</text>
</a>
</g>
</g>
</g>
</svg>
