<?xml version="1.0" encoding="UTF-8" standalone="no"?>
<?xml-stylesheet href="data:text/css,.graph%20text%20%7B%0A%09font-family%3A%20sans-serif%3B%0A%09stroke%3A%20white%3B%0A%09paint-order%3A%20stroke%3B%0A%09stroke-width%3A%203%3B%0A%09stroke-linecap%3A%20square%3B%0A%7D%0A%0A.namespace%20polygon%20%7B%0A%09fill-opacity%3A%200.2%3B%0A%09stroke%3A%20none%3B%0A%7D%0A" type="text/css"?>
<!DOCTYPE svg PUBLIC "-//W3C//DTD SVG 1.1//EN"
 "http://www.w3.org/Graphics/SVG/1.1/DTD/svg11.dtd">
<!-- Generated by graphviz version 13.1.2 (0)
 -->
<!-- Pages: 1 -->
<svg width="642pt" height="624pt"
 viewBox="0.00 0.00 642.00 624.00" xmlns="http://www.w3.org/2000/svg" xmlns:xlink="http://www.w3.org/1999/xlink">
<g id="graph0" class="graph" transform="scale(1 1) rotate(0) translate(4 620)">
<polygon fill="white" stroke="none" points="-4,4 -4,-620 638,-620 638,4 -4,4"/>
<g id="clust1" class="cluster namespace">
<title>e_shop</title>
<polygon fill="lightgrey" stroke="lightgrey" points="8,-8 8,-608 626,-608 626,-8 8,-8"/>
<text xml:space="preserve" text-anchor="middle" x="317" y="-595" font-family="sans-serif" font-size="10.00">eShop</text>
</g>
<g id="clust2" class="cluster namespace">
<title>#/domains/identity_&amp;_access</title>
<polygon fill="lightgrey" stroke="lightgrey" points="472,-168 472,-312 618,-312 618,-168 472,-168"/>
<text xml:space="preserve" text-anchor="middle" x="545" y="-299" font-family="sans-serif" font-size="10.00">Identity &amp; Access</text>
</g>
<g id="clust3" class="cluster namespace">
<title>#/domains/identity_&amp;_access/subdomains/auth_n_and_auth_z</title>
<polygon fill="lightgrey" stroke="lightgrey" points="480,-176 480,-284 610,-284 610,-176 480,-176"/>
<text xml:space="preserve" text-anchor="middle" x="545" y="-271" font-family="sans-serif" font-size="10.00">AuthN and AuthZ</text>
</g>
<g id="clust4" class="cluster namespace">
<title>#/domains/edge_&amp;_experience</title>
<polygon fill="lightgrey" stroke="lightgrey" points="318,-320 318,-580 464,-580 464,-320 318,-320"/>
<text xml:space="preserve" text-anchor="middle" x="391" y="-567" font-family="sans-serif" font-size="10.00">Edge &amp; Experience</text>
</g>
<g id="clust5" class="cluster namespace">
<title>#/domains/edge_&amp;_experience/subdomains/web</title>
<polygon fill="lightgrey" stroke="lightgrey" points="326,-444 326,-552 456,-552 456,-444 326,-444"/>
<text xml:space="preserve" text-anchor="middle" x="391" y="-539" font-family="sans-serif" font-size="10.00">Web</text>
</g>
<g id="clust6" class="cluster namespace">
<title>#/domains/edge_&amp;_experience/subdomains/mobile</title>
<polygon fill="lightgrey" stroke="lightgrey" points="326,-328 326,-436 456,-436 456,-328 326,-328"/>
<text xml:space="preserve" text-anchor="middle" x="391" y="-423" font-family="sans-serif" font-size="10.00">Mobile</text>
</g>
<g id="clust7" class="cluster namespace">
<title>#/domains/commerce</title>
<polygon fill="lightgrey" stroke="lightgrey" points="16,-168 16,-312 464,-312 464,-168 16,-168"/>
<text xml:space="preserve" text-anchor="middle" x="240" y="-299" font-family="sans-serif" font-size="10.00">Commerce</text>
</g>
<g id="clust8" class="cluster namespace">
<title>#/domains/commerce/subdomains/catalog</title>
<polygon fill="lightgrey" stroke="lightgrey" points="24,-176 24,-284 154,-284 154,-176 24,-176"/>
<text xml:space="preserve" text-anchor="middle" x="89" y="-271" font-family="sans-serif" font-size="10.00">Catalog</text>
</g>
<g id="clust9" class="cluster namespace">
<title>#/domains/commerce/subdomains/basket</title>
<polygon fill="lightgrey" stroke="lightgrey" points="175,-176 175,-284 305,-284 305,-176 175,-176"/>
<text xml:space="preserve" text-anchor="middle" x="240" y="-271" font-family="sans-serif" font-size="10.00">Basket</text>
</g>
<g id="clust10" class="cluster namespace">
<title>#/domains/commerce/subdomains/ordering</title>
<polygon fill="lightgrey" stroke="lightgrey" points="326,-176 326,-284 456,-284 456,-176 326,-176"/>
<text xml:space="preserve" text-anchor="middle" x="391" y="-271" font-family="sans-serif" font-size="10.00">Ordering</text>
</g>
<g id="clust11" class="cluster namespace">
<title>#/domains/payment_processing</title>
<polygon fill="lightgrey" stroke="lightgrey" points="315,-16 315,-160 467,-160 467,-16 315,-16"/>
<text xml:space="preserve" text-anchor="middle" x="391" y="-147" font-family="sans-serif" font-size="10.00">Payment Processing</text>
</g>
<g id="clust12" class="cluster namespace">
<title>#/domains/payment_processing/subdomains/payment_processors</title>
<polygon fill="lightgrey" stroke="lightgrey" points="323,-24 323,-132 459,-132 459,-24 323,-24"/>
<text xml:space="preserve" text-anchor="middle" x="391" y="-119" font-family="sans-serif" font-size="10.00">Payment Processors</text>
</g>
<!-- #/domains/identity_&amp;_access/subdomains/auth_n_and_auth_z/boundedcontexts/identity -->
<g id="node1" class="node">
<title>#/domains/identity_&amp;_access/subdomains/auth_n_and_auth_z/boundedcontexts/identity</title>
<g id="a_node1"><a xlink:title="Identity provider (Duende IdentityServer / OIDC).">
<polygon fill="white" stroke="black" points="550.32,-184.1 553.84,-184.3 557.33,-184.59 560.76,-184.98 564.13,-185.47 567.42,-186.05 570.63,-186.73 573.72,-187.5 576.71,-188.35 579.56,-189.29 582.28,-190.32 584.85,-191.43 587.27,-192.62 589.53,-193.88 591.62,-195.21 593.53,-196.61 595.26,-198.08 596.81,-199.6 598.17,-201.18 599.35,-202.82 600.34,-204.5 601.14,-206.22 601.75,-207.98 602.18,-209.77 602.42,-211.59 602.49,-213.44 602.38,-215.3 602.1,-217.17 601.66,-219.06 601.06,-220.94 600.31,-222.83 599.41,-224.7 598.38,-226.56 597.22,-228.41 595.94,-230.23 594.54,-232.02 593.03,-233.78 591.43,-235.5 589.74,-237.18 587.96,-238.82 586.11,-240.4 584.19,-241.92 582.21,-243.39 580.17,-244.79 578.09,-246.12 575.96,-247.38 573.79,-248.57 571.58,-249.68 569.35,-250.71 567.1,-251.65 564.82,-252.5 562.52,-253.27 560.21,-253.95 557.89,-254.53 555.56,-255.02 553.22,-255.41 550.88,-255.7 548.53,-255.9 546.18,-256 543.82,-256 541.47,-255.9 539.12,-255.7 536.78,-255.41 534.44,-255.02 532.11,-254.53 529.79,-253.95 527.48,-253.27 525.18,-252.5 522.9,-251.65 520.65,-250.71 518.42,-249.68 516.21,-248.57 514.04,-247.38 511.91,-246.12 509.83,-244.79 507.79,-243.39 505.81,-241.92 503.89,-240.4 502.04,-238.82 500.26,-237.18 498.57,-235.5 496.97,-233.78 495.46,-232.02 494.06,-230.23 492.78,-228.41 491.62,-226.56 490.59,-224.7 489.69,-222.83 488.94,-220.94 488.34,-219.06 487.9,-217.17 487.62,-215.3 487.51,-213.44 487.58,-211.59 487.82,-209.77 488.25,-207.98 488.86,-206.22 489.66,-204.5 490.65,-202.82 491.83,-201.18 493.19,-199.6 494.74,-198.08 496.47,-196.61 498.38,-195.21 500.47,-193.88 502.73,-192.62 505.15,-191.43 507.72,-190.32 510.44,-189.29 513.29,-188.35 516.28,-187.5 519.37,-186.73 522.58,-186.05 525.87,-185.47 529.24,-184.98 532.67,-184.59 536.16,-184.3 539.68,-184.1 543.22,-184 546.78,-184 550.32,-184.1"/>
<text xml:space="preserve" text-anchor="middle" x="545" y="-215.8" font-family="sans-serif" font-size="14.00">Identity</text>
</a>
</g>
</g>
<!-- #/domains/edge_&amp;_experience/subdomains/web/boundedcontexts/web_app -->
<g id="node2" class="node">
<title>#/domains/edge_&amp;_experience/subdomains/web/boundedcontexts/web_app</title>
<g id="a_node2"><a xlink:title="Blazor Server web app for customers.">
<polygon fill="white" stroke="black" points="396.32,-452.1 399.84,-452.3 403.33,-452.59 406.76,-452.98 410.13,-453.47 413.42,-454.05 416.63,-454.73 419.72,-455.5 422.71,-456.35 425.56,-457.29 428.28,-458.32 430.85,-459.43 433.27,-460.62 435.53,-461.88 437.62,-463.21 439.53,-464.61 441.26,-466.08 442.81,-467.6 444.17,-469.18 445.35,-470.82 446.34,-472.5 447.14,-474.22 447.75,-475.98 448.18,-477.77 448.42,-479.59 448.49,-481.44 448.38,-483.3 448.1,-485.17 447.66,-487.06 447.06,-488.94 446.31,-490.83 445.41,-492.7 444.38,-494.56 443.22,-496.41 441.94,-498.23 440.54,-500.02 439.03,-501.78 437.43,-503.5 435.74,-505.18 433.96,-506.82 432.11,-508.4 430.19,-509.92 428.21,-511.39 426.17,-512.79 424.09,-514.12 421.96,-515.38 419.79,-516.57 417.58,-517.68 415.35,-518.71 413.1,-519.65 410.82,-520.5 408.52,-521.27 406.21,-521.95 403.89,-522.53 401.56,-523.02 399.22,-523.41 396.88,-523.7 394.53,-523.9 392.18,-524 389.82,-524 387.47,-523.9 385.12,-523.7 382.78,-523.41 380.44,-523.02 378.11,-522.53 375.79,-521.95 373.48,-521.27 371.18,-520.5 368.9,-519.65 366.65,-518.71 364.42,-517.68 362.21,-516.57 360.04,-515.38 357.91,-514.12 355.83,-512.79 353.79,-511.39 351.81,-509.92 349.89,-508.4 348.04,-506.82 346.26,-505.18 344.57,-503.5 342.97,-501.78 341.46,-500.02 340.06,-498.23 338.78,-496.41 337.62,-494.56 336.59,-492.7 335.69,-490.83 334.94,-488.94 334.34,-487.06 333.9,-485.17 333.62,-483.3 333.51,-481.44 333.58,-479.59 333.82,-477.77 334.25,-475.98 334.86,-474.22 335.66,-472.5 336.65,-470.82 337.83,-469.18 339.19,-467.6 340.74,-466.08 342.47,-464.61 344.38,-463.21 346.47,-461.88 348.73,-460.62 351.15,-459.43 353.72,-458.32 356.44,-457.29 359.29,-456.35 362.28,-455.5 365.37,-454.73 368.58,-454.05 371.87,-453.47 375.24,-452.98 378.67,-452.59 382.16,-452.3 385.68,-452.1 389.22,-452 392.78,-452 396.32,-452.1"/>
<text xml:space="preserve" text-anchor="middle" x="391" y="-483.8" font-family="sans-serif" font-size="14.00">WebApp</text>
</a>
</g>
</g>
<!-- #/domains/edge_&amp;_experience/subdomains/web/boundedcontexts/web_app&#45;&gt;#/domains/identity_&amp;_access/subdomains/auth_n_and_auth_z/boundedcontexts/identity -->
<g id="edge1" class="edge">
<title>#/domains/edge_&amp;_experience/subdomains/web/boundedcontexts/web_app&#45;&gt;#/domains/identity_&amp;_access/subdomains/auth_n_and_auth_z/boundedcontexts/identity</title>
<path fill="none" stroke="black" d="M436.58,-462.06C446.97,-454.74 457.23,-445.97 465,-436 504.37,-385.46 525.85,-313.54 536.38,-267.07"/>
<polygon fill="black" stroke="black" points="539.8,-267.82 538.5,-257.31 532.96,-266.33 539.8,-267.82"/>
<g id="a_edge1&#45;headlabel"><a xlink:title="open&#45;host&#45;service">
<text xml:space="preserve" text-anchor="middle" x="538.82" y="-252.83" font-family="sans-serif" font-size="10.00">OHS</text>
</a>
</g>
<g id="a_edge1&#45;taillabel"><a xlink:title="customer&#45;supplier">
<text xml:space="preserve" text-anchor="middle" x="436.58" y="-459.06" font-family="sans-serif" font-size="10.00">C/s</text>
</a>
</g>
</g>
<!-- #/domains/edge_&amp;_experience/subdomains/mobile/boundedcontexts/experience_bff -->
<g id="node3" class="node">
<title>#/domains/edge_&amp;_experience/subdomains/mobile/boundedcontexts/experience_bff</title>
<g id="a_node3"><a xlink:title="BFF that aggregates catalog/basket/ordering.">
<polygon fill="white" stroke="black" points="396.32,-336.1 399.84,-336.3 403.33,-336.59 406.76,-336.98 410.13,-337.47 413.42,-338.05 416.63,-338.73 419.72,-339.5 422.71,-340.35 425.56,-341.29 428.28,-342.32 430.85,-343.43 433.27,-344.62 435.53,-345.88 437.62,-347.21 439.53,-348.61 441.26,-350.08 442.81,-351.6 444.17,-353.18 445.35,-354.82 446.34,-356.5 447.14,-358.22 447.75,-359.98 448.18,-361.77 448.42,-363.59 448.49,-365.44 448.38,-367.3 448.1,-369.17 447.66,-371.06 447.06,-372.94 446.31,-374.83 445.41,-376.7 444.38,-378.56 443.22,-380.41 441.94,-382.23 440.54,-384.02 439.03,-385.78 437.43,-387.5 435.74,-389.18 433.96,-390.82 432.11,-392.4 430.19,-393.92 428.21,-395.39 426.17,-396.79 424.09,-398.12 421.96,-399.38 419.79,-400.57 417.58,-401.68 415.35,-402.71 413.1,-403.65 410.82,-404.5 408.52,-405.27 406.21,-405.95 403.89,-406.53 401.56,-407.02 399.22,-407.41 396.88,-407.7 394.53,-407.9 392.18,-408 389.82,-408 387.47,-407.9 385.12,-407.7 382.78,-407.41 380.44,-407.02 378.11,-406.53 375.79,-405.95 373.48,-405.27 371.18,-404.5 368.9,-403.65 366.65,-402.71 364.42,-401.68 362.21,-400.57 360.04,-399.38 357.91,-398.12 355.83,-396.79 353.79,-395.39 351.81,-393.92 349.89,-392.4 348.04,-390.82 346.26,-389.18 344.57,-387.5 342.97,-385.78 341.46,-384.02 340.06,-382.23 338.78,-380.41 337.62,-378.56 336.59,-376.7 335.69,-374.83 334.94,-372.94 334.34,-371.06 333.9,-369.17 333.62,-367.3 333.51,-365.44 333.58,-363.59 333.82,-361.77 334.25,-359.98 334.86,-358.22 335.66,-356.5 336.65,-354.82 337.83,-353.18 339.19,-351.6 340.74,-350.08 342.47,-348.61 344.38,-347.21 346.47,-345.88 348.73,-344.62 351.15,-343.43 353.72,-342.32 356.44,-341.29 359.29,-340.35 362.28,-339.5 365.37,-338.73 368.58,-338.05 371.87,-337.47 375.24,-336.98 378.67,-336.59 382.16,-336.3 385.68,-336.1 389.22,-336 392.78,-336 396.32,-336.1"/>
<text xml:space="preserve" text-anchor="middle" x="391" y="-367.8" font-family="sans-serif" font-size="14.00">Experience BFF</text>
</a>
</g>
</g>
<!-- #/domains/edge_&amp;_experience/subdomains/web/boundedcontexts/web_app&#45;&gt;#/domains/edge_&amp;_experience/subdomains/mobile/boundedcontexts/experience_bff -->
<g id="edge2" class="edge">
<title>#/domains/edge_&amp;_experience/subdomains/web/boundedcontexts/web_app&#45;&gt;#/domains/edge_&amp;_experience/subdomains/mobile/boundedcontexts/experience_bff</title>
<path fill="none" stroke="black" d="M391,-452.18C391,-441.68 391,-429.99 391,-418.89"/>
<polygon fill="black" stroke="black" points="394.5,-419.12 391,-409.12 387.5,-419.12 394.5,-419.12"/>
<g id="a_edge2&#45;headlabel"><a xlink:title="open&#45;host&#45;service">
<text xml:space="preserve" text-anchor="middle" x="391" y="-404.61" font-family="sans-serif" font-size="10.00">OHS</text>
</a>
</g>
<g id="a_edge2&#45;taillabel"><a xlink:title="conformist">
<text xml:space="preserve" text-anchor="middle" x="391" y="-449.18" font-family="sans-serif" font-size="10.00">C</text>
</a>
</g>
</g>
<!-- #/domains/edge_&amp;_experience/subdomains/mobile/boundedcontexts/experience_bff&#45;&gt;#/domains/identity_&amp;_access/subdomains/auth_n_and_auth_z/boundedcontexts/identity -->
<g id="edge3" class="edge">
<title>#/domains/edge_&amp;_experience/subdomains/mobile/boundedcontexts/experience_bff&#45;&gt;#/domains/identity_&amp;_access/subdomains/auth_n_and_auth_z/boundedcontexts/identity</title>
<path fill="none" stroke="black" d="M429.34,-342.52C441.15,-333.21 453.94,-322.54 465,-312 482.12,-295.69 499.63,-276.15 513.88,-259.38"/>
<polygon fill="black" stroke="black" points="516.29,-261.95 520.05,-252.04 510.93,-257.44 516.29,-261.95"/>
<g id="a_edge3&#45;headlabel"><a xlink:title="open&#45;host&#45;service">
<text xml:space="preserve" text-anchor="middle" x="521.02" y="-247.88" font-family="sans-serif" font-size="10.00">OHS</text>
</a>
</g>
<g id="a_edge3&#45;taillabel"><a xlink:title="customer&#45;supplier">
<text xml:space="preserve" text-anchor="middle" x="429.34" y="-339.52" font-family="sans-serif" font-size="10.00">C/s</text>
</a>
</g>
</g>
<!-- #/domains/commerce/subdomains/catalog/boundedcontexts/catalog -->
<g id="node4" class="node">
<title>#/domains/commerce/subdomains/catalog/boundedcontexts/catalog</title>
<g id="a_node4"><a xlink:title="Minimal API for catalog queries and management.">
<polygon fill="white" stroke="black" points="94.32,-184.1 97.84,-184.3 101.33,-184.59 104.76,-184.98 108.13,-185.47 111.42,-186.05 114.63,-186.73 117.72,-187.5 120.71,-188.35 123.56,-189.29 126.28,-190.32 128.85,-191.43 131.27,-192.62 133.53,-193.88 135.62,-195.21 137.53,-196.61 139.26,-198.08 140.81,-199.6 142.17,-201.18 143.35,-202.82 144.34,-204.5 145.14,-206.22 145.75,-207.98 146.18,-209.77 146.42,-211.59 146.49,-213.44 146.38,-215.3 146.1,-217.17 145.66,-219.06 145.06,-220.94 144.31,-222.83 143.41,-224.7 142.38,-226.56 141.22,-228.41 139.94,-230.23 138.54,-232.02 137.03,-233.78 135.43,-235.5 133.74,-237.18 131.96,-238.82 130.11,-240.4 128.19,-241.92 126.21,-243.39 124.17,-244.79 122.09,-246.12 119.96,-247.38 117.79,-248.57 115.58,-249.68 113.35,-250.71 111.1,-251.65 108.82,-252.5 106.52,-253.27 104.21,-253.95 101.89,-254.53 99.56,-255.02 97.22,-255.41 94.88,-255.7 92.53,-255.9 90.18,-256 87.82,-256 85.47,-255.9 83.12,-255.7 80.78,-255.41 78.44,-255.02 76.11,-254.53 73.79,-253.95 71.48,-253.27 69.18,-252.5 66.9,-251.65 64.65,-250.71 62.42,-249.68 60.21,-248.57 58.04,-247.38 55.91,-246.12 53.83,-244.79 51.79,-243.39 49.81,-241.92 47.89,-240.4 46.04,-238.82 44.26,-237.18 42.57,-235.5 40.97,-233.78 39.46,-232.02 38.06,-230.23 36.78,-228.41 35.62,-226.56 34.59,-224.7 33.69,-222.83 32.94,-220.94 32.34,-219.06 31.9,-217.17 31.62,-215.3 31.51,-213.44 31.58,-211.59 31.82,-209.77 32.25,-207.98 32.86,-206.22 33.66,-204.5 34.65,-202.82 35.83,-201.18 37.19,-199.6 38.74,-198.08 40.47,-196.61 42.38,-195.21 44.47,-193.88 46.73,-192.62 49.15,-191.43 51.72,-190.32 54.44,-189.29 57.29,-188.35 60.28,-187.5 63.37,-186.73 66.58,-186.05 69.87,-185.47 73.24,-184.98 76.67,-184.59 80.16,-184.3 83.68,-184.1 87.22,-184 90.78,-184 94.32,-184.1"/>
<text xml:space="preserve" text-anchor="middle" x="89" y="-215.8" font-family="sans-serif" font-size="14.00">Catalog</text>
</a>
</g>
</g>
<!-- #/domains/edge_&amp;_experience/subdomains/mobile/boundedcontexts/experience_bff&#45;&gt;#/domains/commerce/subdomains/catalog/boundedcontexts/catalog -->
<g id="edge4" class="edge">
<title>#/domains/edge_&amp;_experience/subdomains/mobile/boundedcontexts/experience_bff&#45;&gt;#/domains/commerce/subdomains/catalog/boundedcontexts/catalog</title>
<path fill="none" stroke="black" d="M333.57,-365.65C285.68,-359.01 217.24,-344.3 166,-312 145.87,-299.31 128.3,-279.67 115.04,-261.87"/>
<polygon fill="black" stroke="black" points="118.07,-260.09 109.39,-254.01 112.38,-264.18 118.07,-260.09"/>
<g id="a_edge4&#45;headlabel"><a xlink:title="open&#45;host&#45;service">
<text xml:space="preserve" text-anchor="middle" x="108.51" y="-249.79" font-family="sans-serif" font-size="10.00">OHS</text>
</a>
</g>
<g id="a_edge4&#45;taillabel"><a xlink:title="anti&#45;corruption&#45;layer">
<text xml:space="preserve" text-anchor="middle" x="333.57" y="-362.65" font-family="sans-serif" font-size="10.00">ACL</text>
</a>
</g>
</g>
<!-- #/domains/commerce/subdomains/basket/boundedcontexts/basket -->
<g id="node5" class="node">
<title>#/domains/commerce/subdomains/basket/boundedcontexts/basket</title>
<g id="a_node5"><a xlink:title="Basket service (gRPC/HTTP) to manage user baskets.">
<polygon fill="white" stroke="black" points="245.32,-184.1 248.84,-184.3 252.33,-184.59 255.76,-184.98 259.13,-185.47 262.42,-186.05 265.63,-186.73 268.72,-187.5 271.71,-188.35 274.56,-189.29 277.28,-190.32 279.85,-191.43 282.27,-192.62 284.53,-193.88 286.62,-195.21 288.53,-196.61 290.26,-198.08 291.81,-199.6 293.17,-201.18 294.35,-202.82 295.34,-204.5 296.14,-206.22 296.75,-207.98 297.18,-209.77 297.42,-211.59 297.49,-213.44 297.38,-215.3 297.1,-217.17 296.66,-219.06 296.06,-220.94 295.31,-222.83 294.41,-224.7 293.38,-226.56 292.22,-228.41 290.94,-230.23 289.54,-232.02 288.03,-233.78 286.43,-235.5 284.74,-237.18 282.96,-238.82 281.11,-240.4 279.19,-241.92 277.21,-243.39 275.17,-244.79 273.09,-246.12 270.96,-247.38 268.79,-248.57 266.58,-249.68 264.35,-250.71 262.1,-251.65 259.82,-252.5 257.52,-253.27 255.21,-253.95 252.89,-254.53 250.56,-255.02 248.22,-255.41 245.88,-255.7 243.53,-255.9 241.18,-256 238.82,-256 236.47,-255.9 234.12,-255.7 231.78,-255.41 229.44,-255.02 227.11,-254.53 224.79,-253.95 222.48,-253.27 220.18,-252.5 217.9,-251.65 215.65,-250.71 213.42,-249.68 211.21,-248.57 209.04,-247.38 206.91,-246.12 204.83,-244.79 202.79,-243.39 200.81,-241.92 198.89,-240.4 197.04,-238.82 195.26,-237.18 193.57,-235.5 191.97,-233.78 190.46,-232.02 189.06,-230.23 187.78,-228.41 186.62,-226.56 185.59,-224.7 184.69,-222.83 183.94,-220.94 183.34,-219.06 182.9,-217.17 182.62,-215.3 182.51,-213.44 182.58,-211.59 182.82,-209.77 183.25,-207.98 183.86,-206.22 184.66,-204.5 185.65,-202.82 186.83,-201.18 188.19,-199.6 189.74,-198.08 191.47,-196.61 193.38,-195.21 195.47,-193.88 197.73,-192.62 200.15,-191.43 202.72,-190.32 205.44,-189.29 208.29,-188.35 211.28,-187.5 214.37,-186.73 217.58,-186.05 220.87,-185.47 224.24,-184.98 227.67,-184.59 231.16,-184.3 234.68,-184.1 238.22,-184 241.78,-184 245.32,-184.1"/>
<text xml:space="preserve" text-anchor="middle" x="240" y="-215.8" font-family="sans-serif" font-size="14.00">Basket</text>
</a>
</g>
</g>
<!-- #/domains/edge_&amp;_experience/subdomains/mobile/boundedcontexts/experience_bff&#45;&gt;#/domains/commerce/subdomains/basket/boundedcontexts/basket -->
<g id="edge5" class="edge">
<title>#/domains/edge_&amp;_experience/subdomains/mobile/boundedcontexts/experience_bff&#45;&gt;#/domains/commerce/subdomains/basket/boundedcontexts/basket</title>
<path fill="none" stroke="black" d="M352.53,-342.65C340.72,-333.34 327.96,-322.65 317,-312 300.59,-296.06 284,-276.92 270.44,-260.32"/>
<polygon fill="black" stroke="black" points="273.19,-258.16 264.19,-252.57 267.74,-262.55 273.19,-258.16"/>
<g id="a_edge5&#45;headlabel"><a xlink:title="open&#45;host&#45;service">
<text xml:space="preserve" text-anchor="middle" x="263.24" y="-248.39" font-family="sans-serif" font-size="10.00">OHS</text>
</a>
</g>
<g id="a_edge5&#45;taillabel"><a xlink:title="anti&#45;corruption&#45;layer">
<text xml:space="preserve" text-anchor="middle" x="352.53" y="-339.65" font-family="sans-serif" font-size="10.00">ACL</text>
</a>
</g>
</g>
<!-- #/domains/commerce/subdomains/ordering/boundedcontexts/ordering -->
<g id="node6" class="node">
<title>#/domains/commerce/subdomains/ordering/boundedcontexts/ordering</title>
<g id="a_node6"><a xlink:title="Order lifecycle, status and events.">
<polygon fill="white" stroke="black" points="396.32,-184.1 399.84,-184.3 403.33,-184.59 406.76,-184.98 410.13,-185.47 413.42,-186.05 416.63,-186.73 419.72,-187.5 422.71,-188.35 425.56,-189.29 428.28,-190.32 430.85,-191.43 433.27,-192.62 435.53,-193.88 437.62,-195.21 439.53,-196.61 441.26,-198.08 442.81,-199.6 444.17,-201.18 445.35,-202.82 446.34,-204.5 447.14,-206.22 447.75,-207.98 448.18,-209.77 448.42,-211.59 448.49,-213.44 448.38,-215.3 448.1,-217.17 447.66,-219.06 447.06,-220.94 446.31,-222.83 445.41,-224.7 444.38,-226.56 443.22,-228.41 441.94,-230.23 440.54,-232.02 439.03,-233.78 437.43,-235.5 435.74,-237.18 433.96,-238.82 432.11,-240.4 430.19,-241.92 428.21,-243.39 426.17,-244.79 424.09,-246.12 421.96,-247.38 419.79,-248.57 417.58,-249.68 415.35,-250.71 413.1,-251.65 410.82,-252.5 408.52,-253.27 406.21,-253.95 403.89,-254.53 401.56,-255.02 399.22,-255.41 396.88,-255.7 394.53,-255.9 392.18,-256 389.82,-256 387.47,-255.9 385.12,-255.7 382.78,-255.41 380.44,-255.02 378.11,-254.53 375.79,-253.95 373.48,-253.27 371.18,-252.5 368.9,-251.65 366.65,-250.71 364.42,-249.68 362.21,-248.57 360.04,-247.38 357.91,-246.12 355.83,-244.79 353.79,-243.39 351.81,-241.92 349.89,-240.4 348.04,-238.82 346.26,-237.18 344.57,-235.5 342.97,-233.78 341.46,-232.02 340.06,-230.23 338.78,-228.41 337.62,-226.56 336.59,-224.7 335.69,-222.83 334.94,-220.94 334.34,-219.06 333.9,-217.17 333.62,-215.3 333.51,-213.44 333.58,-211.59 333.82,-209.77 334.25,-207.98 334.86,-206.22 335.66,-204.5 336.65,-202.82 337.83,-201.18 339.19,-199.6 340.74,-198.08 342.47,-196.61 344.38,-195.21 346.47,-193.88 348.73,-192.62 351.15,-191.43 353.72,-190.32 356.44,-189.29 359.29,-188.35 362.28,-187.5 365.37,-186.73 368.58,-186.05 371.87,-185.47 375.24,-184.98 378.67,-184.59 382.16,-184.3 385.68,-184.1 389.22,-184 392.78,-184 396.32,-184.1"/>
<text xml:space="preserve" text-anchor="middle" x="391" y="-215.8" font-family="sans-serif" font-size="14.00">Ordering</text>
</a>
</g>
</g>
<!-- #/domains/edge_&amp;_experience/subdomains/mobile/boundedcontexts/experience_bff&#45;&gt;#/domains/commerce/subdomains/ordering/boundedcontexts/ordering -->
<g id="edge6" class="edge">
<title>#/domains/edge_&amp;_experience/subdomains/mobile/boundedcontexts/experience_bff&#45;&gt;#/domains/commerce/subdomains/ordering/boundedcontexts/ordering</title>
<path fill="none" stroke="black" d="M391,-336.21C391,-315.65 391,-289.36 391,-267.09"/>
<polygon fill="black" stroke="black" points="394.5,-267.37 391,-257.37 387.5,-267.37 394.5,-267.37"/>
<g id="a_edge6&#45;headlabel"><a xlink:title="open&#45;host&#45;service">
<text xml:space="preserve" text-anchor="middle" x="391" y="-252.86" font-family="sans-serif" font-size="10.00">OHS</text>
</a>
</g>
<g id="a_edge6&#45;taillabel"><a xlink:title="anti&#45;corruption&#45;layer">
<text xml:space="preserve" text-anchor="middle" x="391" y="-333.21" font-family="sans-serif" font-size="10.00">ACL</text>
</a>
</g>
</g>
<!-- #/domains/payment_processing/subdomains/payment_processors/boundedcontexts/payment_processor -->
<g id="node7" class="node">
<title>#/domains/payment_processing/subdomains/payment_processors/boundedcontexts/payment_processor</title>
<g id="a_node7"><a xlink:title="Simulated external payment processor.">
<polygon fill="white" stroke="black" points="396.32,-32.1 399.84,-32.3 403.33,-32.59 406.76,-32.98 410.13,-33.47 413.42,-34.05 416.63,-34.73 419.72,-35.5 422.71,-36.35 425.56,-37.29 428.28,-38.32 430.85,-39.43 433.27,-40.62 435.53,-41.88 437.62,-43.21 439.53,-44.61 441.26,-46.08 442.81,-47.6 444.17,-49.18 445.35,-50.82 446.34,-52.5 447.14,-54.22 447.75,-55.98 448.18,-57.77 448.42,-59.59 448.49,-61.44 448.38,-63.3 448.1,-65.17 447.66,-67.06 447.06,-68.94 446.31,-70.83 445.41,-72.7 444.38,-74.56 443.22,-76.41 441.94,-78.23 440.54,-80.02 439.03,-81.78 437.43,-83.5 435.74,-85.18 433.96,-86.82 432.11,-88.4 430.19,-89.92 428.21,-91.39 426.17,-92.79 424.09,-94.12 421.96,-95.38 419.79,-96.57 417.58,-97.68 415.35,-98.71 413.1,-99.65 410.82,-100.5 408.52,-101.27 406.21,-101.95 403.89,-102.53 401.56,-103.02 399.22,-103.41 396.88,-103.7 394.53,-103.9 392.18,-104 389.82,-104 387.47,-103.9 385.12,-103.7 382.78,-103.41 380.44,-103.02 378.11,-102.53 375.79,-101.95 373.48,-101.27 371.18,-100.5 368.9,-99.65 366.65,-98.71 364.42,-97.68 362.21,-96.57 360.04,-95.38 357.91,-94.12 355.83,-92.79 353.79,-91.39 351.81,-89.92 349.89,-88.4 348.04,-86.82 346.26,-85.18 344.57,-83.5 342.97,-81.78 341.46,-80.02 340.06,-78.23 338.78,-76.41 337.62,-74.56 336.59,-72.7 335.69,-70.83 334.94,-68.94 334.34,-67.06 333.9,-65.17 333.62,-63.3 333.51,-61.44 333.58,-59.59 333.82,-57.77 334.25,-55.98 334.86,-54.22 335.66,-52.5 336.65,-50.82 337.83,-49.18 339.19,-47.6 340.74,-46.08 342.47,-44.61 344.38,-43.21 346.47,-41.88 348.73,-40.62 351.15,-39.43 353.72,-38.32 356.44,-37.29 359.29,-36.35 362.28,-35.5 365.37,-34.73 368.58,-34.05 371.87,-33.47 375.24,-32.98 378.67,-32.59 382.16,-32.3 385.68,-32.1 389.22,-32 392.78,-32 396.32,-32.1"/>
<text xml:space="preserve" text-anchor="middle" x="391" y="-63.8" font-family="sans-serif" font-size="14.00">PaymentProcessor</text>
</a>
</g>
</g>
<!-- #/domains/commerce/subdomains/ordering/boundedcontexts/ordering&#45;&gt;#/domains/payment_processing/subdomains/payment_processors/boundedcontexts/payment_processor -->
<g id="edge7" class="edge">
<title>#/domains/commerce/subdomains/ordering/boundedcontexts/ordering&#45;&gt;#/domains/payment_processing/subdomains/payment_processors/boundedcontexts/payment_processor</title>
<path fill="none" stroke="black" d="M379.4,-184.21C377.22,-163.43 376.92,-136.79 378.48,-114.37"/>
<polygon fill="black" stroke="black" points="381.95,-114.86 379.34,-104.59 374.98,-114.25 381.95,-114.86"/>
<g id="a_edge7&#45;headlabel"><a xlink:title="open&#45;host&#45;service">
<text xml:space="preserve" text-anchor="middle" x="379.47" y="-100.08" font-family="sans-serif" font-size="10.00">OHS</text>
</a>
</g>
<g id="a_edge7&#45;taillabel"><a xlink:title="customer&#45;supplier">
<text xml:space="preserve" text-anchor="middle" x="379.4" y="-181.21" font-family="sans-serif" font-size="10.00">C/s</text>
</a>
</g>
</g>
<!-- #/domains/commerce/subdomains/ordering/boundedcontexts/ordering&#45;&gt;#/domains/payment_processing/subdomains/payment_processors/boundedcontexts/payment_processor -->
<g id="edge8" class="edge">
<title>#/domains/commerce/subdomains/ordering/boundedcontexts/ordering&#45;&gt;#/domains/payment_processing/subdomains/payment_processors/boundedcontexts/payment_processor</title>
<path fill="none" stroke="black" d="M402.6,-184.21C404.78,-163.43 405.08,-136.79 403.52,-114.37"/>
<polygon fill="black" stroke="black" points="407.02,-114.25 402.66,-104.59 400.05,-114.86 407.02,-114.25"/>
<g id="a_edge8&#45;headlabel"><a xlink:title="published&#45;language">
<text xml:space="preserve" text-anchor="middle" x="402.53" y="-100.08" font-family="sans-serif" font-size="10.00">PL</text>
</a>
</g>
<g id="a_edge8&#45;taillabel"><a xlink:title="conformist">
<text xml:space="preserve" text-anchor="middle" x="402.6" y="-181.21" font-family="sans-serif" font-size="10.00">C</text>
</a>
</g>
</g>
</g>
</svg>
