<?xml version="1.0" encoding="UTF-8" standalone="no"?>
<?xml-stylesheet href="data:text/css,.graph%20text%20%7B%0A%09font-family%3A%20sans-serif%3B%0A%09stroke%3A%20white%3B%0A%09paint-order%3A%20stroke%3B%0A%09stroke-width%3A%203%3B%0A%09stroke-linecap%3A%20square%3B%0A%7D%0A%0A.namespace%20polygon%20%7B%0A%09fill-opacity%3A%200.2%3B%0A%09stroke%3A%20none%3B%0A%7D%0A" type="text/css"?>
<!DOCTYPE svg PUBLIC "-//W3C//DTD SVG 1.1//EN"
 "http://www.w3.org/Graphics/SVG/1.1/DTD/svg11.dtd">
<!-- Generated by graphviz version 13.1.2 (0)
 -->
<!-- Pages: 1 -->
<svg width="2226pt" height="728pt"
 viewBox="0.00 0.00 2226.00 728.00" xmlns="http://www.w3.org/2000/svg" xmlns:xlink="http://www.w3.org/1999/xlink">
<g id="graph0" class="graph" transform="scale(1 1) rotate(0) translate(4 724)">
<polygon fill="white" stroke="none" points="-4,4 -4,-724 2222,-724 2222,4 -4,4"/>
<g id="clust1" class="cluster namespace">
<title>e_shop_on_containers</title>
<polygon fill="lightgrey" stroke="lightgrey" points="8,-8 8,-712 2210,-712 2210,-8 8,-8"/>
<text xml:space="preserve" text-anchor="middle" x="1109" y="-699" font-family="sans-serif" font-size="10.00">eShopOnContainers</text>
</g>
<g id="clust2" class="cluster namespace">
<title>#/domains/commerce</title>
<polygon fill="lightgrey" stroke="lightgrey" points="28,-28 28,-672 824,-672 824,-28 28,-28"/>
<text xml:space="preserve" text-anchor="middle" x="426" y="-659" font-family="sans-serif" font-size="10.00">Commerce</text>
</g>
<g id="clust3" class="cluster namespace">
<title>#/domains/commerce/subdomains/sales</title>
<polygon fill="lightgrey" stroke="lightgrey" points="350,-476 350,-632 804,-632 804,-476 350,-476"/>
<text xml:space="preserve" text-anchor="middle" x="577" y="-619" font-family="sans-serif" font-size="10.00">Sales</text>
</g>
<g id="clust4" class="cluster namespace">
<title>#/domains/commerce/subdomains/sales/boundedcontexts/ordering</title>
<polygon fill="lightgrey" stroke="lightgrey" points="370,-496 370,-592 784,-592 784,-496 370,-496"/>
<text xml:space="preserve" text-anchor="middle" x="577" y="-579" font-family="sans-serif" font-size="10.00">Ordering</text>
</g>
<g id="clust5" class="cluster namespace">
<title>#/domains/commerce/subdomains/payments</title>
<polygon fill="lightgrey" stroke="lightgrey" points="196,-252 196,-408 434,-408 434,-252 196,-252"/>
<text xml:space="preserve" text-anchor="middle" x="315" y="-395" font-family="sans-serif" font-size="10.00">Payments</text>
</g>
<g id="clust6" class="cluster namespace">
<title>#/domains/commerce/subdomains/payments/boundedcontexts/payment</title>
<polygon fill="lightgrey" stroke="lightgrey" points="216,-272 216,-368 414,-368 414,-272 216,-272"/>
<text xml:space="preserve" text-anchor="middle" x="315" y="-355" font-family="sans-serif" font-size="10.00">Payment</text>
</g>
<g id="clust7" class="cluster namespace">
<title>#/domains/commerce/subdomains/shopping</title>
<polygon fill="lightgrey" stroke="lightgrey" points="557,-252 557,-408 779,-408 779,-252 557,-252"/>
<text xml:space="preserve" text-anchor="middle" x="668" y="-395" font-family="sans-serif" font-size="10.00">Shopping</text>
</g>
<g id="clust8" class="cluster namespace">
<title>#/domains/commerce/subdomains/shopping/boundedcontexts/basket</title>
<polygon fill="lightgrey" stroke="lightgrey" points="577,-272 577,-368 759,-368 759,-272 577,-272"/>
<text xml:space="preserve" text-anchor="middle" x="668" y="-355" font-family="sans-serif" font-size="10.00">Basket</text>
</g>
<g id="clust9" class="cluster namespace">
<title>#/domains/commerce/subdomains/cataloging</title>
<polygon fill="lightgrey" stroke="lightgrey" points="553,-48 553,-204 783,-204 783,-48 553,-48"/>
<text xml:space="preserve" text-anchor="middle" x="668" y="-191" font-family="sans-serif" font-size="10.00">Cataloging</text>
</g>
<g id="clust10" class="cluster namespace">
<title>#/domains/commerce/subdomains/cataloging/boundedcontexts/catalog</title>
<polygon fill="lightgrey" stroke="lightgrey" points="573,-68 573,-164 763,-164 763,-68 573,-68"/>
<text xml:space="preserve" text-anchor="middle" x="668" y="-151" font-family="sans-serif" font-size="10.00">Catalog</text>
</g>
<g id="clust11" class="cluster namespace">
<title>#/domains/customer_experience</title>
<polygon fill="lightgrey" stroke="lightgrey" points="1134,-232 1134,-448 2190,-448 2190,-232 1134,-232"/>
<text xml:space="preserve" text-anchor="middle" x="1662" y="-435" font-family="sans-serif" font-size="10.00">CustomerExperience</text>
</g>
<g id="clust12" class="cluster namespace">
<title>#/domains/customer_experience/subdomains/webhooks</title>
<polygon fill="lightgrey" stroke="lightgrey" points="1690,-252 1690,-408 1944,-408 1944,-252 1690,-252"/>
<text xml:space="preserve" text-anchor="middle" x="1817" y="-395" font-family="sans-serif" font-size="10.00">Webhooks</text>
</g>
<g id="clust13" class="cluster namespace">
<title>#/domains/customer_experience/subdomains/webhooks/boundedcontexts/webhooks</title>
<polygon fill="lightgrey" stroke="lightgrey" points="1710,-272 1710,-368 1924,-368 1924,-272 1710,-272"/>
<text xml:space="preserve" text-anchor="middle" x="1817" y="-355" font-family="sans-serif" font-size="10.00">Webhooks</text>
</g>
<g id="clust14" class="cluster namespace">
<title>#/domains/customer_experience/subdomains/realtime</title>
<polygon fill="lightgrey" stroke="lightgrey" points="1964,-252 1964,-408 2170,-408 2170,-252 1964,-252"/>
<text xml:space="preserve" text-anchor="middle" x="2067" y="-395" font-family="sans-serif" font-size="10.00">Realtime</text>
</g>
<g id="clust15" class="cluster namespace">
<title>#/domains/customer_experience/subdomains/realtime/boundedcontexts/ordering_signal_rhub</title>
<polygon fill="lightgrey" stroke="lightgrey" points="1984,-272 1984,-368 2150,-368 2150,-272 1984,-272"/>
<text xml:space="preserve" text-anchor="middle" x="2067" y="-355" font-family="sans-serif" font-size="10.00">OrderingSignalRHub</text>
</g>
<g id="clust16" class="cluster namespace">
<title>#/domains/customer_experience/subdomains/promotions</title>
<polygon fill="lightgrey" stroke="lightgrey" points="1154,-252 1154,-408 1404,-408 1404,-252 1154,-252"/>
<text xml:space="preserve" text-anchor="middle" x="1279" y="-395" font-family="sans-serif" font-size="10.00">Promotions</text>
</g>
<g id="clust17" class="cluster namespace">
<title>#/domains/customer_experience/subdomains/promotions/boundedcontexts/marketing</title>
<polygon fill="lightgrey" stroke="lightgrey" points="1174,-272 1174,-368 1384,-368 1384,-272 1174,-272"/>
<text xml:space="preserve" text-anchor="middle" x="1279" y="-355" font-family="sans-serif" font-size="10.00">Marketing</text>
</g>
<g id="clust18" class="cluster namespace">
<title>#/domains/customer_experience/subdomains/geodata</title>
<polygon fill="lightgrey" stroke="lightgrey" points="1424,-252 1424,-408 1670,-408 1670,-252 1424,-252"/>
<text xml:space="preserve" text-anchor="middle" x="1547" y="-395" font-family="sans-serif" font-size="10.00">Geodata</text>
</g>
<g id="clust19" class="cluster namespace">
<title>#/domains/customer_experience/subdomains/geodata/boundedcontexts/locations</title>
<polygon fill="lightgrey" stroke="lightgrey" points="1444,-272 1444,-368 1650,-368 1650,-272 1444,-272"/>
<text xml:space="preserve" text-anchor="middle" x="1547" y="-355" font-family="sans-serif" font-size="10.00">Locations</text>
</g>
<g id="clust20" class="cluster namespace">
<title>#/domains/identity&amp;access</title>
<polygon fill="lightgrey" stroke="lightgrey" points="844,-232 844,-448 1114,-448 1114,-232 844,-232"/>
<text xml:space="preserve" text-anchor="middle" x="979" y="-435" font-family="sans-serif" font-size="10.00">Identity&amp;Access</text>
</g>
<g id="clust21" class="cluster namespace">
<title>#/domains/identity&amp;access/subdomains/auth</title>
<polygon fill="lightgrey" stroke="lightgrey" points="864,-252 864,-408 1094,-408 1094,-252 864,-252"/>
<text xml:space="preserve" text-anchor="middle" x="979" y="-395" font-family="sans-serif" font-size="10.00">Auth</text>
</g>
<g id="clust22" class="cluster namespace">
<title>#/domains/identity&amp;access/subdomains/auth/boundedcontexts/identity</title>
<polygon fill="lightgrey" stroke="lightgrey" points="884,-272 884,-368 1074,-368 1074,-272 884,-272"/>
<text xml:space="preserve" text-anchor="middle" x="979" y="-355" font-family="sans-serif" font-size="10.00">Identity</text>
</g>
<!-- #/domains/commerce/subdomains/sales/boundedcontexts/ordering/services/ordering_workflow -->
<g id="node1" class="node">
<title>#/domains/commerce/subdomains/sales/boundedcontexts/ordering/services/ordering_workflow</title>
<g id="a_node1"><a xlink:title="Policies, coordination">
<polygon fill="white" stroke="black" points="489.43,-516.05 495.02,-516.15 500.54,-516.3 505.99,-516.49 511.33,-516.74 516.55,-517.03 521.63,-517.36 526.54,-517.75 531.27,-518.18 535.8,-518.65 540.11,-519.16 544.19,-519.71 548.02,-520.31 551.6,-520.94 554.91,-521.61 557.94,-522.31 560.69,-523.04 563.14,-523.8 565.31,-524.59 567.17,-525.41 568.74,-526.25 570,-527.11 570.97,-527.99 571.65,-528.89 572.04,-529.8 572.14,-530.72 571.97,-531.65 571.53,-532.59 570.83,-533.53 569.88,-534.47 568.69,-535.41 567.27,-536.35 565.63,-537.28 563.79,-538.2 561.76,-539.11 559.54,-540.01 557.16,-540.89 554.62,-541.75 551.93,-542.59 549.12,-543.41 546.18,-544.2 543.14,-544.96 540,-545.69 536.77,-546.39 533.46,-547.06 530.08,-547.69 526.64,-548.29 523.15,-548.84 519.61,-549.35 516.03,-549.82 512.42,-550.25 508.78,-550.64 505.12,-550.97 501.44,-551.26 497.74,-551.51 494.03,-551.7 490.32,-551.85 486.59,-551.95 482.86,-552 479.14,-552 475.41,-551.95 471.68,-551.85 467.97,-551.7 464.26,-551.51 460.56,-551.26 456.88,-550.97 453.22,-550.64 449.58,-550.25 445.97,-549.82 442.39,-549.35 438.85,-548.84 435.36,-548.29 431.92,-547.69 428.54,-547.06 425.23,-546.39 422,-545.69 418.86,-544.96 415.82,-544.2 412.88,-543.41 410.07,-542.59 407.38,-541.75 404.84,-540.89 402.46,-540.01 400.24,-539.11 398.21,-538.2 396.37,-537.28 394.73,-536.35 393.31,-535.41 392.12,-534.47 391.17,-533.53 390.47,-532.59 390.03,-531.65 389.86,-530.72 389.96,-529.8 390.35,-528.89 391.03,-527.99 392,-527.11 393.26,-526.25 394.83,-525.41 396.69,-524.59 398.86,-523.8 401.31,-523.04 404.06,-522.31 407.09,-521.61 410.4,-520.94 413.98,-520.31 417.81,-519.71 421.89,-519.16 426.2,-518.65 430.73,-518.18 435.46,-517.75 440.37,-517.36 445.45,-517.03 450.67,-516.74 456.01,-516.49 461.46,-516.3 466.98,-516.15 472.57,-516.05 478.18,-516 483.82,-516 489.43,-516.05"/>
<text xml:space="preserve" text-anchor="middle" x="481" y="-529.8" font-family="sans-serif" font-size="14.00">OrderingWorkflow</text>
</a>
</g>
</g>
<!-- #/domains/commerce/subdomains/payments/boundedcontexts/payment/services/payment_service -->
<g id="node3" class="node">
<title>#/domains/commerce/subdomains/payments/boundedcontexts/payment/services/payment_service</title>
<g id="a_node3"><a xlink:title="Authorize/Capture (sample)">
<polygon fill="white" stroke="black" points="322.27,-292.05 327.09,-292.15 331.85,-292.3 336.55,-292.49 341.15,-292.74 345.65,-293.03 350.03,-293.36 354.26,-293.75 358.34,-294.18 362.24,-294.65 365.96,-295.16 369.48,-295.71 372.78,-296.31 375.87,-296.94 378.72,-297.61 381.33,-298.31 383.7,-299.04 385.82,-299.8 387.69,-300.59 389.29,-301.41 390.64,-302.25 391.73,-303.11 392.57,-303.99 393.16,-304.89 393.49,-305.8 393.58,-306.72 393.43,-307.65 393.05,-308.59 392.45,-309.53 391.63,-310.47 390.6,-311.41 389.38,-312.35 387.97,-313.28 386.38,-314.2 384.62,-315.11 382.71,-316.01 380.66,-316.89 378.47,-317.75 376.16,-318.59 373.73,-319.41 371.2,-320.2 368.57,-320.96 365.86,-321.69 363.08,-322.39 360.23,-323.06 357.31,-323.69 354.35,-324.29 351.34,-324.84 348.29,-325.35 345.2,-325.82 342.09,-326.25 338.95,-326.64 335.8,-326.97 332.62,-327.26 329.43,-327.51 326.24,-327.7 323.03,-327.85 319.82,-327.95 316.61,-328 313.39,-328 310.18,-327.95 306.97,-327.85 303.76,-327.7 300.57,-327.51 297.38,-327.26 294.2,-326.97 291.05,-326.64 287.91,-326.25 284.8,-325.82 281.71,-325.35 278.66,-324.84 275.65,-324.29 272.69,-323.69 269.77,-323.06 266.92,-322.39 264.14,-321.69 261.43,-320.96 258.8,-320.2 256.27,-319.41 253.84,-318.59 251.53,-317.75 249.34,-316.89 247.29,-316.01 245.38,-315.11 243.62,-314.2 242.03,-313.28 240.62,-312.35 239.4,-311.41 238.37,-310.47 237.55,-309.53 236.95,-308.59 236.57,-307.65 236.42,-306.72 236.51,-305.8 236.84,-304.89 237.43,-303.99 238.27,-303.11 239.36,-302.25 240.71,-301.41 242.31,-300.59 244.18,-299.8 246.3,-299.04 248.67,-298.31 251.28,-297.61 254.13,-296.94 257.22,-296.31 260.52,-295.71 264.04,-295.16 267.76,-294.65 271.66,-294.18 275.74,-293.75 279.97,-293.36 284.35,-293.03 288.85,-292.74 293.45,-292.49 298.15,-292.3 302.91,-292.15 307.73,-292.05 312.57,-292 317.43,-292 322.27,-292.05"/>
<text xml:space="preserve" text-anchor="middle" x="315" y="-305.8" font-family="sans-serif" font-size="14.00">PaymentService</text>
</a>
</g>
</g>
<!-- #/domains/commerce/subdomains/sales/boundedcontexts/ordering/services/ordering_workflow&#45;&gt;#/domains/commerce/subdomains/payments/boundedcontexts/payment/services/payment_service -->
<g id="edge3" class="edge">
<title>#/domains/commerce/subdomains/sales/boundedcontexts/ordering/services/ordering_workflow&#45;&gt;#/domains/commerce/subdomains/payments/boundedcontexts/payment/services/payment_service</title>
<path fill="none" stroke="black" d="M447.73,-516.61C427.45,-505.26 402.21,-488.51 385.02,-468 352.44,-429.12 332.26,-372.67 322.37,-339.11"/>
<polygon fill="black" stroke="black" points="325.8,-338.38 319.71,-329.72 319.07,-340.29 325.8,-338.38"/>
<text xml:space="preserve" text-anchor="middle" x="422.51" y="-459" font-family="sans-serif" font-size="10.00">AuthorizePayment</text>
<g id="a_edge3&#45;headlabel"><a xlink:title="open&#45;host&#45;service">
<text xml:space="preserve" text-anchor="middle" x="319.3" y="-325.26" font-family="sans-serif" font-size="10.00">OHS</text>
</a>
</g>
<g id="a_edge3&#45;taillabel"><a xlink:title="customer&#45;supplier">
<text xml:space="preserve" text-anchor="middle" x="447.73" y="-513.61" font-family="sans-serif" font-size="10.00">C/s</text>
</a>
</g>
</g>
<!-- #/domains/commerce/subdomains/sales/boundedcontexts/ordering/services/ordering_workflow&#45;&gt;#/domains/commerce/subdomains/payments/boundedcontexts/payment/services/payment_service -->
<g id="edge11" class="edge">
<title>#/domains/commerce/subdomains/sales/boundedcontexts/ordering/services/ordering_workflow&#45;&gt;#/domains/commerce/subdomains/payments/boundedcontexts/payment/services/payment_service</title>
<path fill="none" stroke="black" d="M389.6,-530.63C288.21,-525.84 134.03,-511.41 97.35,-468 42.46,-403.03 176.53,-350.88 257.98,-326.31"/>
<polygon fill="black" stroke="black" points="258.56,-329.79 267.16,-323.6 256.58,-323.07 258.56,-329.79"/>
<text xml:space="preserve" text-anchor="middle" x="130.67" y="-459" font-family="sans-serif" font-size="10.00">CapturePayment</text>
<g id="a_edge11&#45;headlabel"><a xlink:title="open&#45;host&#45;service">
<text xml:space="preserve" text-anchor="middle" x="268.61" y="-320.17" font-family="sans-serif" font-size="10.00">OHS</text>
</a>
</g>
<g id="a_edge11&#45;taillabel"><a xlink:title="customer&#45;supplier">
<text xml:space="preserve" text-anchor="middle" x="389.6" y="-527.63" font-family="sans-serif" font-size="10.00">C/s</text>
</a>
</g>
</g>
<!-- #/domains/commerce/subdomains/sales/boundedcontexts/ordering/services/ordering_workflow&#45;&gt;#/domains/commerce/subdomains/payments/boundedcontexts/payment/services/payment_service -->
<g id="edge12" class="edge">
<title>#/domains/commerce/subdomains/sales/boundedcontexts/ordering/services/ordering_workflow&#45;&gt;#/domains/commerce/subdomains/payments/boundedcontexts/payment/services/payment_service</title>
<path fill="none" stroke="black" d="M409.41,-520.66C354.14,-509.51 284.27,-491.28 267.01,-468 237.5,-428.2 270.2,-370.06 294.23,-336.83"/>
<polygon fill="black" stroke="black" points="296.92,-339.08 300.11,-328.98 291.31,-334.88 296.92,-339.08"/>
<text xml:space="preserve" text-anchor="middle" x="314.5" y="-459" font-family="sans-serif" font-size="10.00">PaymentStatusChanged</text>
<g id="a_edge12&#45;headlabel"><a xlink:title="published&#45;language">
<text xml:space="preserve" text-anchor="middle" x="301.02" y="-324.77" font-family="sans-serif" font-size="10.00">PL</text>
</a>
</g>
<g id="a_edge12&#45;taillabel"><a xlink:title="conformist">
<text xml:space="preserve" text-anchor="middle" x="409.41" y="-517.66" font-family="sans-serif" font-size="10.00">C</text>
</a>
</g>
</g>
<!-- #/domains/commerce/subdomains/sales/boundedcontexts/ordering/services/ordering_app -->
<g id="node2" class="node">
<title>#/domains/commerce/subdomains/sales/boundedcontexts/ordering/services/ordering_app</title>
<g id="a_node2"><a xlink:title="Start/Place orders">
<polygon fill="white" stroke="black" points="703.16,-516.05 707.24,-516.15 711.28,-516.3 715.26,-516.49 719.16,-516.74 722.98,-517.03 726.68,-517.36 730.27,-517.75 733.73,-518.18 737.03,-518.65 740.18,-519.16 743.16,-519.71 745.97,-520.31 748.58,-520.94 751,-521.61 753.21,-522.31 755.22,-523.04 757.01,-523.8 758.59,-524.59 759.96,-525.41 761.1,-526.25 762.03,-527.11 762.73,-527.99 763.23,-528.89 763.51,-529.8 763.59,-530.72 763.46,-531.65 763.14,-532.59 762.63,-533.53 761.93,-534.47 761.06,-535.41 760.03,-536.35 758.83,-537.28 757.49,-538.2 756,-539.11 754.38,-540.01 752.64,-540.89 750.78,-541.75 748.82,-542.59 746.77,-543.41 744.62,-544.2 742.4,-544.96 740.1,-545.69 737.74,-546.39 735.32,-547.06 732.86,-547.69 730.34,-548.29 727.79,-548.84 725.21,-549.35 722.59,-549.82 719.96,-550.25 717.3,-550.64 714.62,-550.97 711.93,-551.26 709.23,-551.51 706.52,-551.7 703.81,-551.85 701.09,-551.95 698.36,-552 695.64,-552 692.91,-551.95 690.19,-551.85 687.48,-551.7 684.77,-551.51 682.07,-551.26 679.38,-550.97 676.7,-550.64 674.04,-550.25 671.41,-549.82 668.79,-549.35 666.21,-548.84 663.66,-548.29 661.14,-547.69 658.68,-547.06 656.26,-546.39 653.9,-545.69 651.6,-544.96 649.38,-544.2 647.23,-543.41 645.18,-542.59 643.22,-541.75 641.36,-540.89 639.62,-540.01 638,-539.11 636.51,-538.2 635.17,-537.28 633.97,-536.35 632.94,-535.41 632.07,-534.47 631.37,-533.53 630.86,-532.59 630.54,-531.65 630.41,-530.72 630.49,-529.8 630.77,-528.89 631.27,-527.99 631.97,-527.11 632.9,-526.25 634.04,-525.41 635.41,-524.59 636.99,-523.8 638.78,-523.04 640.79,-522.31 643,-521.61 645.42,-520.94 648.03,-520.31 650.84,-519.71 653.82,-519.16 656.97,-518.65 660.27,-518.18 663.73,-517.75 667.32,-517.36 671.02,-517.03 674.84,-516.74 678.74,-516.49 682.72,-516.3 686.76,-516.15 690.84,-516.05 694.94,-516 699.06,-516 703.16,-516.05"/>
<text xml:space="preserve" text-anchor="middle" x="697" y="-529.8" font-family="sans-serif" font-size="14.00">OrderingApp</text>
</a>
</g>
</g>
<!-- #/domains/commerce/subdomains/shopping/boundedcontexts/basket/services/basket_service -->
<g id="node4" class="node">
<title>#/domains/commerce/subdomains/shopping/boundedcontexts/basket/services/basket_service</title>
<g id="a_node4"><a xlink:title="Basket CRUD, pricing snapshot">
<polygon fill="white" stroke="black" points="674.53,-292.05 678.86,-292.15 683.13,-292.3 687.35,-292.49 691.49,-292.74 695.53,-293.03 699.46,-293.36 703.27,-293.75 706.93,-294.18 710.43,-294.65 713.77,-295.16 716.93,-295.71 719.9,-296.31 722.67,-296.94 725.23,-297.61 727.58,-298.31 729.71,-299.04 731.61,-299.8 733.29,-300.59 734.73,-301.41 735.94,-302.25 736.92,-303.11 737.67,-303.99 738.2,-304.89 738.5,-305.8 738.58,-306.72 738.45,-307.65 738.11,-308.59 737.56,-309.53 736.83,-310.47 735.9,-311.41 734.81,-312.35 733.54,-313.28 732.11,-314.2 730.54,-315.11 728.82,-316.01 726.98,-316.89 725.01,-317.75 722.93,-318.59 720.75,-319.41 718.48,-320.2 716.12,-320.96 713.69,-321.69 711.18,-322.39 708.62,-323.06 706.01,-323.69 703.34,-324.29 700.64,-324.84 697.9,-325.35 695.13,-325.82 692.33,-326.25 689.51,-326.64 686.68,-326.97 683.83,-327.26 680.97,-327.51 678.09,-327.7 675.21,-327.85 672.33,-327.95 669.44,-328 666.56,-328 663.67,-327.95 660.79,-327.85 657.91,-327.7 655.03,-327.51 652.17,-327.26 649.32,-326.97 646.49,-326.64 643.67,-326.25 640.87,-325.82 638.1,-325.35 635.36,-324.84 632.66,-324.29 629.99,-323.69 627.38,-323.06 624.82,-322.39 622.31,-321.69 619.88,-320.96 617.52,-320.2 615.25,-319.41 613.07,-318.59 610.99,-317.75 609.02,-316.89 607.18,-316.01 605.46,-315.11 603.89,-314.2 602.46,-313.28 601.19,-312.35 600.1,-311.41 599.17,-310.47 598.44,-309.53 597.89,-308.59 597.55,-307.65 597.42,-306.72 597.5,-305.8 597.8,-304.89 598.33,-303.99 599.08,-303.11 600.06,-302.25 601.27,-301.41 602.71,-300.59 604.39,-299.8 606.29,-299.04 608.42,-298.31 610.77,-297.61 613.33,-296.94 616.1,-296.31 619.07,-295.71 622.23,-295.16 625.57,-294.65 629.07,-294.18 632.73,-293.75 636.54,-293.36 640.47,-293.03 644.51,-292.74 648.65,-292.49 652.87,-292.3 657.14,-292.15 661.47,-292.05 665.82,-292 670.18,-292 674.53,-292.05"/>
<text xml:space="preserve" text-anchor="middle" x="668" y="-305.8" font-family="sans-serif" font-size="14.00">BasketService</text>
</a>
</g>
</g>
<!-- #/domains/commerce/subdomains/sales/boundedcontexts/ordering/services/ordering_app&#45;&gt;#/domains/commerce/subdomains/shopping/boundedcontexts/basket/services/basket_service -->
<g id="edge5" class="edge">
<title>#/domains/commerce/subdomains/sales/boundedcontexts/ordering/services/ordering_app&#45;&gt;#/domains/commerce/subdomains/shopping/boundedcontexts/basket/services/basket_service</title>
<path fill="none" stroke="black" d="M675.31,-516.26C661.85,-504.43 645.76,-487.3 638.34,-468 621.6,-424.46 639.66,-370.37 654.01,-338.38"/>
<polygon fill="black" stroke="black" points="657.14,-339.95 658.23,-329.41 650.81,-336.97 657.14,-339.95"/>
<text xml:space="preserve" text-anchor="middle" x="659.17" y="-459" font-family="sans-serif" font-size="10.00">GetBasket</text>
<g id="a_edge5&#45;headlabel"><a xlink:title="open&#45;host&#45;service">
<text xml:space="preserve" text-anchor="middle" x="658.87" y="-325.04" font-family="sans-serif" font-size="10.00">OHS</text>
</a>
</g>
<g id="a_edge5&#45;taillabel"><a xlink:title="anti&#45;corruption&#45;layer">
<text xml:space="preserve" text-anchor="middle" x="675.31" y="-513.26" font-family="sans-serif" font-size="10.00">ACL</text>
</a>
</g>
</g>
<!-- #/domains/customer_experience/subdomains/promotions/boundedcontexts/marketing/services/marketing_service -->
<g id="node8" class="node">
<title>#/domains/customer_experience/subdomains/promotions/boundedcontexts/marketing/services/marketing_service</title>
<g id="a_node8"><a xlink:title="Apply campaigns/discounts">
<polygon fill="white" stroke="black" points="1286.91,-292.05 1292.14,-292.15 1297.32,-292.3 1302.42,-292.49 1307.43,-292.74 1312.32,-293.03 1317.08,-293.36 1321.69,-293.75 1326.12,-294.18 1330.36,-294.65 1334.4,-295.16 1338.23,-295.71 1341.82,-296.31 1345.17,-296.94 1348.27,-297.61 1351.12,-298.31 1353.69,-299.04 1355.99,-299.8 1358.02,-300.59 1359.77,-301.41 1361.24,-302.25 1362.42,-303.11 1363.33,-303.99 1363.97,-304.89 1364.33,-305.8 1364.43,-306.72 1364.27,-307.65 1363.85,-308.59 1363.2,-309.53 1362.31,-310.47 1361.19,-311.41 1359.86,-312.35 1358.33,-313.28 1356.6,-314.2 1354.69,-315.11 1352.62,-316.01 1350.38,-316.89 1348,-317.75 1345.49,-318.59 1342.85,-319.41 1340.1,-320.2 1337.24,-320.96 1334.3,-321.69 1331.27,-322.39 1328.17,-323.06 1325,-323.69 1321.78,-324.29 1318.5,-324.84 1315.19,-325.35 1311.84,-325.82 1308.45,-326.25 1305.04,-326.64 1301.61,-326.97 1298.16,-327.26 1294.69,-327.51 1291.22,-327.7 1287.73,-327.85 1284.24,-327.95 1280.75,-328 1277.25,-328 1273.76,-327.95 1270.27,-327.85 1266.78,-327.7 1263.31,-327.51 1259.84,-327.26 1256.39,-326.97 1252.96,-326.64 1249.55,-326.25 1246.16,-325.82 1242.81,-325.35 1239.5,-324.84 1236.22,-324.29 1233,-323.69 1229.83,-323.06 1226.73,-322.39 1223.7,-321.69 1220.76,-320.96 1217.9,-320.2 1215.15,-319.41 1212.51,-318.59 1210,-317.75 1207.62,-316.89 1205.38,-316.01 1203.31,-315.11 1201.4,-314.2 1199.67,-313.28 1198.14,-312.35 1196.81,-311.41 1195.69,-310.47 1194.8,-309.53 1194.15,-308.59 1193.73,-307.65 1193.57,-306.72 1193.67,-305.8 1194.03,-304.89 1194.67,-303.99 1195.58,-303.11 1196.76,-302.25 1198.23,-301.41 1199.98,-300.59 1202.01,-299.8 1204.31,-299.04 1206.88,-298.31 1209.73,-297.61 1212.83,-296.94 1216.18,-296.31 1219.77,-295.71 1223.6,-295.16 1227.64,-294.65 1231.88,-294.18 1236.31,-293.75 1240.92,-293.36 1245.68,-293.03 1250.57,-292.74 1255.58,-292.49 1260.68,-292.3 1265.86,-292.15 1271.09,-292.05 1276.36,-292 1281.64,-292 1286.91,-292.05"/>
<text xml:space="preserve" text-anchor="middle" x="1279" y="-305.8" font-family="sans-serif" font-size="14.00">MarketingService</text>
</a>
</g>
</g>
<!-- #/domains/commerce/subdomains/sales/boundedcontexts/ordering/services/ordering_app&#45;&gt;#/domains/customer_experience/subdomains/promotions/boundedcontexts/marketing/services/marketing_service -->
<g id="edge9" class="edge">
<title>#/domains/commerce/subdomains/sales/boundedcontexts/ordering/services/ordering_app&#45;&gt;#/domains/customer_experience/subdomains/promotions/boundedcontexts/marketing/services/marketing_service</title>
<path fill="none" stroke="black" d="M762.49,-526.98C842.26,-517.83 979.76,-496.1 1088,-448 1152.98,-419.13 1217.98,-366.1 1252.88,-335.16"/>
<polygon fill="black" stroke="black" points="1254.85,-338.1 1259.96,-328.82 1250.17,-332.89 1254.85,-338.1"/>
<text xml:space="preserve" text-anchor="middle" x="1103.2" y="-459" font-family="sans-serif" font-size="10.00">ApplyCampaigns</text>
<g id="a_edge9&#45;headlabel"><a xlink:title="open&#45;host&#45;service">
<text xml:space="preserve" text-anchor="middle" x="1261.08" y="-324.8" font-family="sans-serif" font-size="10.00">OHS</text>
</a>
</g>
<g id="a_edge9&#45;taillabel"><a xlink:title="anti&#45;corruption&#45;layer">
<text xml:space="preserve" text-anchor="middle" x="762.49" y="-523.98" font-family="sans-serif" font-size="10.00">ACL</text>
</a>
</g>
</g>
<!-- #/domains/customer_experience/subdomains/geodata/boundedcontexts/locations/services/locations_service -->
<g id="node9" class="node">
<title>#/domains/customer_experience/subdomains/geodata/boundedcontexts/locations/services/locations_service</title>
<g id="a_node9"><a xlink:title="Resolve/validate location data">
<polygon fill="white" stroke="black" points="1554.69,-292.05 1559.79,-292.15 1564.83,-292.3 1569.8,-292.49 1574.67,-292.74 1579.43,-293.03 1584.06,-293.36 1588.54,-293.75 1592.86,-294.18 1596.99,-294.65 1600.92,-295.16 1604.64,-295.71 1608.14,-296.31 1611.4,-296.94 1614.42,-297.61 1617.19,-298.31 1619.69,-299.04 1621.94,-299.8 1623.91,-300.59 1625.61,-301.41 1627.04,-302.25 1628.19,-303.11 1629.08,-303.99 1629.7,-304.89 1630.05,-305.8 1630.14,-306.72 1629.99,-307.65 1629.58,-308.59 1628.95,-309.53 1628.08,-310.47 1626.99,-311.41 1625.7,-312.35 1624.2,-313.28 1622.52,-314.2 1620.67,-315.11 1618.65,-316.01 1616.47,-316.89 1614.16,-317.75 1611.71,-318.59 1609.14,-319.41 1606.46,-320.2 1603.69,-320.96 1600.82,-321.69 1597.87,-322.39 1594.85,-323.06 1591.77,-323.69 1588.63,-324.29 1585.45,-324.84 1582.22,-325.35 1578.96,-325.82 1575.66,-326.25 1572.34,-326.64 1569,-326.97 1565.65,-327.26 1562.27,-327.51 1558.89,-327.7 1555.5,-327.85 1552.1,-327.95 1548.7,-328 1545.3,-328 1541.9,-327.95 1538.5,-327.85 1535.11,-327.7 1531.73,-327.51 1528.35,-327.26 1525,-326.97 1521.66,-326.64 1518.34,-326.25 1515.04,-325.82 1511.78,-325.35 1508.55,-324.84 1505.37,-324.29 1502.23,-323.69 1499.15,-323.06 1496.13,-322.39 1493.18,-321.69 1490.31,-320.96 1487.54,-320.2 1484.86,-319.41 1482.29,-318.59 1479.84,-317.75 1477.53,-316.89 1475.35,-316.01 1473.33,-315.11 1471.48,-314.2 1469.8,-313.28 1468.3,-312.35 1467.01,-311.41 1465.92,-310.47 1465.05,-309.53 1464.42,-308.59 1464.01,-307.65 1463.86,-306.72 1463.95,-305.8 1464.3,-304.89 1464.92,-303.99 1465.81,-303.11 1466.96,-302.25 1468.39,-301.41 1470.09,-300.59 1472.06,-299.8 1474.31,-299.04 1476.81,-298.31 1479.58,-297.61 1482.6,-296.94 1485.86,-296.31 1489.36,-295.71 1493.08,-295.16 1497.01,-294.65 1501.14,-294.18 1505.46,-293.75 1509.94,-293.36 1514.57,-293.03 1519.33,-292.74 1524.2,-292.49 1529.17,-292.3 1534.21,-292.15 1539.31,-292.05 1544.43,-292 1549.57,-292 1554.69,-292.05"/>
<text xml:space="preserve" text-anchor="middle" x="1547" y="-305.8" font-family="sans-serif" font-size="14.00">LocationsService</text>
</a>
</g>
</g>
<!-- #/domains/commerce/subdomains/sales/boundedcontexts/ordering/services/ordering_app&#45;&gt;#/domains/customer_experience/subdomains/geodata/boundedcontexts/locations/services/locations_service -->
<g id="edge10" class="edge">
<title>#/domains/commerce/subdomains/sales/boundedcontexts/ordering/services/ordering_app&#45;&gt;#/domains/customer_experience/subdomains/geodata/boundedcontexts/locations/services/locations_service</title>
<path fill="none" stroke="black" d="M763.74,-531.34C942.33,-526.36 1421.52,-509.26 1479,-468 1521.06,-437.81 1537.37,-375.95 1543.49,-339.54"/>
<polygon fill="black" stroke="black" points="1546.94,-340.16 1544.98,-329.75 1540.02,-339.11 1546.94,-340.16"/>
<text xml:space="preserve" text-anchor="middle" x="1526.66" y="-459" font-family="sans-serif" font-size="10.00">ResolveLocation</text>
<g id="a_edge10&#45;headlabel"><a xlink:title="open&#45;host&#45;service">
<text xml:space="preserve" text-anchor="middle" x="1545.2" y="-325.25" font-family="sans-serif" font-size="10.00">OHS</text>
</a>
</g>
<g id="a_edge10&#45;taillabel"><a xlink:title="anti&#45;corruption&#45;layer">
<text xml:space="preserve" text-anchor="middle" x="763.74" y="-528.34" font-family="sans-serif" font-size="10.00">ACL</text>
</a>
</g>
</g>
<!-- #/domains/identity&amp;access/subdomains/auth/boundedcontexts/identity/services/identity_service -->
<g id="node10" class="node">
<title>#/domains/identity&amp;access/subdomains/auth/boundedcontexts/identity/services/identity_service</title>
<g id="a_node10"><a xlink:title="Token issuance, user claims">
<polygon fill="white" stroke="black" points="985.9,-292.05 990.47,-292.15 994.99,-292.3 999.45,-292.49 1003.82,-292.74 1008.09,-293.03 1012.24,-293.36 1016.26,-293.75 1020.13,-294.18 1023.84,-294.65 1027.37,-295.16 1030.7,-295.71 1033.84,-296.31 1036.77,-296.94 1039.48,-297.61 1041.96,-298.31 1044.2,-299.04 1046.21,-299.8 1047.98,-300.59 1049.51,-301.41 1050.79,-302.25 1051.83,-303.11 1052.62,-303.99 1053.17,-304.89 1053.49,-305.8 1053.58,-306.72 1053.44,-307.65 1053.08,-308.59 1052.5,-309.53 1051.72,-310.47 1050.75,-311.41 1049.59,-312.35 1048.25,-313.28 1046.74,-314.2 1045.08,-315.11 1043.27,-316.01 1041.32,-316.89 1039.24,-317.75 1037.04,-318.59 1034.74,-319.41 1032.34,-320.2 1029.84,-320.96 1027.27,-321.69 1024.63,-322.39 1021.92,-323.06 1019.16,-323.69 1016.34,-324.29 1013.49,-324.84 1010.59,-325.35 1007.66,-325.82 1004.71,-326.25 1001.73,-326.64 998.74,-326.97 995.72,-327.26 992.7,-327.51 989.66,-327.7 986.62,-327.85 983.58,-327.95 980.53,-328 977.47,-328 974.42,-327.95 971.38,-327.85 968.34,-327.7 965.3,-327.51 962.28,-327.26 959.26,-326.97 956.27,-326.64 953.29,-326.25 950.34,-325.82 947.41,-325.35 944.51,-324.84 941.66,-324.29 938.84,-323.69 936.08,-323.06 933.37,-322.39 930.73,-321.69 928.16,-320.96 925.66,-320.2 923.26,-319.41 920.96,-318.59 918.76,-317.75 916.68,-316.89 914.73,-316.01 912.92,-315.11 911.26,-314.2 909.75,-313.28 908.41,-312.35 907.25,-311.41 906.28,-310.47 905.5,-309.53 904.92,-308.59 904.56,-307.65 904.42,-306.72 904.51,-305.8 904.83,-304.89 905.38,-303.99 906.17,-303.11 907.21,-302.25 908.49,-301.41 910.02,-300.59 911.79,-299.8 913.8,-299.04 916.04,-298.31 918.52,-297.61 921.23,-296.94 924.16,-296.31 927.3,-295.71 930.63,-295.16 934.16,-294.65 937.87,-294.18 941.74,-293.75 945.76,-293.36 949.91,-293.03 954.18,-292.74 958.55,-292.49 963.01,-292.3 967.53,-292.15 972.1,-292.05 976.7,-292 981.3,-292 985.9,-292.05"/>
<text xml:space="preserve" text-anchor="middle" x="979" y="-305.8" font-family="sans-serif" font-size="14.00">IdentityService</text>
</a>
</g>
</g>
<!-- #/domains/commerce/subdomains/sales/boundedcontexts/ordering/services/ordering_app&#45;&gt;#/domains/identity&amp;access/subdomains/auth/boundedcontexts/identity/services/identity_service -->
<g id="edge8" class="edge">
<title>#/domains/commerce/subdomains/sales/boundedcontexts/ordering/services/ordering_app&#45;&gt;#/domains/identity&amp;access/subdomains/auth/boundedcontexts/identity/services/identity_service</title>
<path fill="none" stroke="black" d="M718.2,-516.31C767.94,-477.15 892.29,-379.26 949.43,-334.28"/>
<polygon fill="black" stroke="black" points="951.44,-337.15 957.14,-328.21 947.11,-331.65 951.44,-337.15"/>
<text xml:space="preserve" text-anchor="middle" x="811.26" y="-459" font-family="sans-serif" font-size="10.00">IssueToken</text>
<g id="a_edge8&#45;headlabel"><a xlink:title="open&#45;host&#45;service">
<text xml:space="preserve" text-anchor="middle" x="958.32" y="-324.28" font-family="sans-serif" font-size="10.00">OHS</text>
</a>
</g>
<g id="a_edge8&#45;taillabel"><a xlink:title="anti&#45;corruption&#45;layer">
<text xml:space="preserve" text-anchor="middle" x="718.2" y="-513.31" font-family="sans-serif" font-size="10.00">ACL</text>
</a>
</g>
</g>
<!-- #/domains/commerce/subdomains/payments/boundedcontexts/payment/services/payment_service&#45;&gt;#/domains/commerce/subdomains/sales/boundedcontexts/ordering/services/ordering_app -->
<g id="edge4" class="edge">
<title>#/domains/commerce/subdomains/payments/boundedcontexts/payment/services/payment_service&#45;&gt;#/domains/commerce/subdomains/sales/boundedcontexts/ordering/services/ordering_app</title>
<path fill="none" stroke="black" d="M336.34,-327.19C378.73,-358.65 477.49,-428.38 570.35,-468 583.3,-473.52 588.01,-470.58 601,-476 623.03,-485.2 646.09,-498.75 664.09,-510.32"/>
<polygon fill="black" stroke="black" points="661.98,-513.12 672.26,-515.68 665.81,-507.27 661.98,-513.12"/>
<text xml:space="preserve" text-anchor="middle" x="596.18" y="-459" font-family="sans-serif" font-size="10.00">OrderStarted</text>
<g id="a_edge4&#45;headlabel"><a xlink:title="published&#45;language">
<text xml:space="preserve" text-anchor="middle" x="673.52" y="-513.51" font-family="sans-serif" font-size="10.00">PL</text>
</a>
</g>
<g id="a_edge4&#45;taillabel"><a xlink:title="conformist">
<text xml:space="preserve" text-anchor="middle" x="336.34" y="-324.19" font-family="sans-serif" font-size="10.00">C</text>
</a>
</g>
</g>
<!-- #/domains/commerce/subdomains/shopping/boundedcontexts/basket/services/basket_service&#45;&gt;#/domains/commerce/subdomains/sales/boundedcontexts/ordering/services/ordering_app -->
<g id="edge7" class="edge">
<title>#/domains/commerce/subdomains/shopping/boundedcontexts/basket/services/basket_service&#45;&gt;#/domains/commerce/subdomains/sales/boundedcontexts/ordering/services/ordering_app</title>
<path fill="none" stroke="black" d="M670.98,-328.36C675.56,-355.52 684.39,-409.74 690,-456 691.93,-471.93 693.58,-489.77 694.8,-504.26"/>
<polygon fill="black" stroke="black" points="691.29,-504.34 695.59,-514.03 698.27,-503.78 691.29,-504.34"/>
<text xml:space="preserve" text-anchor="middle" x="717.02" y="-459" font-family="sans-serif" font-size="10.00">OrderStarted</text>
<g id="a_edge7&#45;headlabel"><a xlink:title="published&#45;language">
<text xml:space="preserve" text-anchor="middle" x="695.71" y="-512.54" font-family="sans-serif" font-size="10.00">PL</text>
</a>
</g>
<g id="a_edge7&#45;taillabel"><a xlink:title="conformist">
<text xml:space="preserve" text-anchor="middle" x="670.98" y="-325.36" font-family="sans-serif" font-size="10.00">C</text>
</a>
</g>
</g>
<!-- #/domains/commerce/subdomains/cataloging/boundedcontexts/catalog/services/catalog_service -->
<g id="node5" class="node">
<title>#/domains/commerce/subdomains/cataloging/boundedcontexts/catalog/services/catalog_service</title>
<g id="a_node5"><a xlink:title="Queries, pricing updates, stock">
<polygon fill="white" stroke="black" points="674.9,-88.05 679.47,-88.15 683.99,-88.3 688.45,-88.49 692.82,-88.74 697.09,-89.03 701.24,-89.36 705.26,-89.75 709.13,-90.18 712.84,-90.65 716.37,-91.16 719.7,-91.71 722.84,-92.31 725.77,-92.94 728.48,-93.61 730.96,-94.31 733.2,-95.04 735.21,-95.8 736.98,-96.59 738.51,-97.41 739.79,-98.25 740.83,-99.11 741.62,-99.99 742.17,-100.89 742.49,-101.8 742.58,-102.72 742.44,-103.65 742.08,-104.59 741.5,-105.53 740.72,-106.47 739.75,-107.41 738.59,-108.35 737.25,-109.28 735.74,-110.2 734.08,-111.11 732.27,-112.01 730.32,-112.89 728.24,-113.75 726.04,-114.59 723.74,-115.41 721.34,-116.2 718.84,-116.96 716.27,-117.69 713.63,-118.39 710.92,-119.06 708.16,-119.69 705.34,-120.29 702.49,-120.84 699.59,-121.35 696.66,-121.82 693.71,-122.25 690.73,-122.64 687.74,-122.97 684.72,-123.26 681.7,-123.51 678.66,-123.7 675.62,-123.85 672.58,-123.95 669.53,-124 666.47,-124 663.42,-123.95 660.38,-123.85 657.34,-123.7 654.3,-123.51 651.28,-123.26 648.26,-122.97 645.27,-122.64 642.29,-122.25 639.34,-121.82 636.41,-121.35 633.51,-120.84 630.66,-120.29 627.84,-119.69 625.08,-119.06 622.37,-118.39 619.73,-117.69 617.16,-116.96 614.66,-116.2 612.26,-115.41 609.96,-114.59 607.76,-113.75 605.68,-112.89 603.73,-112.01 601.92,-111.11 600.26,-110.2 598.75,-109.28 597.41,-108.35 596.25,-107.41 595.28,-106.47 594.5,-105.53 593.92,-104.59 593.56,-103.65 593.42,-102.72 593.51,-101.8 593.83,-100.89 594.38,-99.99 595.17,-99.11 596.21,-98.25 597.49,-97.41 599.02,-96.59 600.79,-95.8 602.8,-95.04 605.04,-94.31 607.52,-93.61 610.23,-92.94 613.16,-92.31 616.3,-91.71 619.63,-91.16 623.16,-90.65 626.87,-90.18 630.74,-89.75 634.76,-89.36 638.91,-89.03 643.18,-88.74 647.55,-88.49 652.01,-88.3 656.53,-88.15 661.1,-88.05 665.7,-88 670.3,-88 674.9,-88.05"/>
<text xml:space="preserve" text-anchor="middle" x="668" y="-101.8" font-family="sans-serif" font-size="14.00">CatalogService</text>
</a>
</g>
</g>
<!-- #/domains/commerce/subdomains/shopping/boundedcontexts/basket/services/basket_service&#45;&gt;#/domains/commerce/subdomains/cataloging/boundedcontexts/catalog/services/catalog_service -->
<g id="edge6" class="edge">
<title>#/domains/commerce/subdomains/shopping/boundedcontexts/basket/services/basket_service&#45;&gt;#/domains/commerce/subdomains/cataloging/boundedcontexts/catalog/services/catalog_service</title>
<path fill="none" stroke="black" d="M668,-291.78C668,-257.06 668,-178.34 668,-135.71"/>
<polygon fill="black" stroke="black" points="671.5,-135.98 668,-125.98 664.5,-135.98 671.5,-135.98"/>
<text xml:space="preserve" text-anchor="middle" x="711.6" y="-215" font-family="sans-serif" font-size="10.00">ProductPriceChanged</text>
<g id="a_edge6&#45;headlabel"><a xlink:title="published&#45;language">
<text xml:space="preserve" text-anchor="middle" x="668" y="-121.47" font-family="sans-serif" font-size="10.00">PL</text>
</a>
</g>
<g id="a_edge6&#45;taillabel"><a xlink:title="conformist">
<text xml:space="preserve" text-anchor="middle" x="668" y="-288.78" font-family="sans-serif" font-size="10.00">C</text>
</a>
</g>
</g>
<!-- #/domains/customer_experience/subdomains/webhooks/boundedcontexts/webhooks/services/webhooks_service -->
<g id="node6" class="node">
<title>#/domains/customer_experience/subdomains/webhooks/boundedcontexts/webhooks/services/webhooks_service</title>
<g id="a_node6"><a xlink:title="Webhooks.API">
<polygon fill="white" stroke="black" points="1825.01,-292.05 1830.32,-292.15 1835.56,-292.3 1840.74,-292.49 1845.81,-292.74 1850.77,-293.03 1855.59,-293.36 1860.26,-293.75 1864.75,-294.18 1869.05,-294.65 1873.15,-295.16 1877.02,-295.71 1880.66,-296.31 1884.06,-296.94 1887.2,-297.61 1890.08,-298.31 1892.69,-299.04 1895.03,-299.8 1897.08,-300.59 1898.85,-301.41 1900.34,-302.25 1901.54,-303.11 1902.46,-303.99 1903.11,-304.89 1903.47,-305.8 1903.57,-306.72 1903.41,-307.65 1902.99,-308.59 1902.33,-309.53 1901.42,-310.47 1900.29,-311.41 1898.94,-312.35 1897.39,-313.28 1895.64,-314.2 1893.71,-315.11 1891.6,-316.01 1889.34,-316.89 1886.93,-317.75 1884.38,-318.59 1881.7,-319.41 1878.92,-320.2 1876.02,-320.96 1873.04,-321.69 1869.97,-322.39 1866.83,-323.06 1863.62,-323.69 1860.35,-324.29 1857.03,-324.84 1853.67,-325.35 1850.28,-325.82 1846.85,-326.25 1843.39,-326.64 1839.91,-326.97 1836.41,-327.26 1832.9,-327.51 1829.38,-327.7 1825.85,-327.85 1822.31,-327.95 1818.77,-328 1815.23,-328 1811.69,-327.95 1808.15,-327.85 1804.62,-327.7 1801.1,-327.51 1797.59,-327.26 1794.09,-326.97 1790.61,-326.64 1787.15,-326.25 1783.72,-325.82 1780.33,-325.35 1776.97,-324.84 1773.65,-324.29 1770.38,-323.69 1767.17,-323.06 1764.03,-322.39 1760.96,-321.69 1757.98,-320.96 1755.08,-320.2 1752.3,-319.41 1749.62,-318.59 1747.07,-317.75 1744.66,-316.89 1742.4,-316.01 1740.29,-315.11 1738.36,-314.2 1736.61,-313.28 1735.06,-312.35 1733.71,-311.41 1732.58,-310.47 1731.67,-309.53 1731.01,-308.59 1730.59,-307.65 1730.43,-306.72 1730.53,-305.8 1730.89,-304.89 1731.54,-303.99 1732.46,-303.11 1733.66,-302.25 1735.15,-301.41 1736.92,-300.59 1738.97,-299.8 1741.31,-299.04 1743.92,-298.31 1746.8,-297.61 1749.94,-296.94 1753.34,-296.31 1756.98,-295.71 1760.85,-295.16 1764.95,-294.65 1769.25,-294.18 1773.74,-293.75 1778.41,-293.36 1783.23,-293.03 1788.19,-292.74 1793.26,-292.49 1798.44,-292.3 1803.68,-292.15 1808.99,-292.05 1814.33,-292 1819.67,-292 1825.01,-292.05"/>
<text xml:space="preserve" text-anchor="middle" x="1817" y="-305.8" font-family="sans-serif" font-size="14.00">WebhooksService</text>
</a>
</g>
</g>
<!-- #/domains/customer_experience/subdomains/webhooks/boundedcontexts/webhooks/services/webhooks_service&#45;&gt;#/domains/commerce/subdomains/sales/boundedcontexts/ordering/services/ordering_workflow -->
<g id="edge1" class="edge">
<title>#/domains/customer_experience/subdomains/webhooks/boundedcontexts/webhooks/services/webhooks_service&#45;&gt;#/domains/commerce/subdomains/sales/boundedcontexts/ordering/services/ordering_workflow</title>
<path fill="none" stroke="black" d="M1804.68,-328.19C1781.35,-359.09 1727.38,-423.09 1664,-448 1641.75,-456.75 1257.51,-454.04 1233.68,-456 1197.11,-459.01 1188.58,-465.06 1152,-468 1090.97,-472.9 660.63,-462.1 601,-476 571.59,-482.86 540.87,-497.61 517.87,-510.39"/>
<polygon fill="black" stroke="black" points="516.15,-507.34 509.2,-515.34 519.62,-513.42 516.15,-507.34"/>
<text xml:space="preserve" text-anchor="middle" x="1275.34" y="-459" font-family="sans-serif" font-size="10.00">OrderStatusChanged</text>
<g id="a_edge1&#45;headlabel"><a xlink:title="published&#45;language">
<text xml:space="preserve" text-anchor="middle" x="507.88" y="-513.09" font-family="sans-serif" font-size="10.00">PL</text>
</a>
</g>
<g id="a_edge1&#45;taillabel"><a xlink:title="conformist">
<text xml:space="preserve" text-anchor="middle" x="1804.68" y="-325.19" font-family="sans-serif" font-size="10.00">C</text>
</a>
</g>
</g>
<!-- #/domains/customer_experience/subdomains/realtime/boundedcontexts/ordering_signal_rhub/services/signal_rhub -->
<g id="node7" class="node">
<title>#/domains/customer_experience/subdomains/realtime/boundedcontexts/ordering_signal_rhub/services/signal_rhub</title>
<g id="a_node7"><a xlink:title="Ordering.SignalRHub">
<polygon fill="white" stroke="black" points="2072.79,-292.05 2076.63,-292.15 2080.43,-292.3 2084.17,-292.49 2087.84,-292.74 2091.42,-293.03 2094.91,-293.36 2098.28,-293.75 2101.53,-294.18 2104.64,-294.65 2107.6,-295.16 2110.4,-295.71 2113.04,-296.31 2115.49,-296.94 2117.77,-297.61 2119.85,-298.31 2121.74,-299.04 2123.42,-299.8 2124.91,-300.59 2126.19,-301.41 2127.27,-302.25 2128.14,-303.11 2128.8,-303.99 2129.27,-304.89 2129.53,-305.8 2129.61,-306.72 2129.49,-307.65 2129.18,-308.59 2128.7,-309.53 2128.05,-310.47 2127.23,-311.41 2126.26,-312.35 2125.13,-313.28 2123.87,-314.2 2122.47,-315.11 2120.95,-316.01 2119.31,-316.89 2117.57,-317.75 2115.72,-318.59 2113.79,-319.41 2111.77,-320.2 2109.68,-320.96 2107.52,-321.69 2105.31,-322.39 2103.03,-323.06 2100.71,-323.69 2098.35,-324.29 2095.95,-324.84 2093.52,-325.35 2091.06,-325.82 2088.58,-326.25 2086.08,-326.64 2083.57,-326.97 2081.04,-327.26 2078.5,-327.51 2075.95,-327.7 2073.4,-327.85 2070.84,-327.95 2068.28,-328 2065.72,-328 2063.16,-327.95 2060.6,-327.85 2058.05,-327.7 2055.5,-327.51 2052.96,-327.26 2050.43,-326.97 2047.92,-326.64 2045.42,-326.25 2042.94,-325.82 2040.48,-325.35 2038.05,-324.84 2035.65,-324.29 2033.29,-323.69 2030.97,-323.06 2028.69,-322.39 2026.48,-321.69 2024.32,-320.96 2022.23,-320.2 2020.21,-319.41 2018.28,-318.59 2016.43,-317.75 2014.69,-316.89 2013.05,-316.01 2011.53,-315.11 2010.13,-314.2 2008.87,-313.28 2007.74,-312.35 2006.77,-311.41 2005.95,-310.47 2005.3,-309.53 2004.82,-308.59 2004.51,-307.65 2004.39,-306.72 2004.47,-305.8 2004.73,-304.89 2005.2,-303.99 2005.86,-303.11 2006.73,-302.25 2007.81,-301.41 2009.09,-300.59 2010.58,-299.8 2012.26,-299.04 2014.15,-298.31 2016.23,-297.61 2018.51,-296.94 2020.96,-296.31 2023.6,-295.71 2026.4,-295.16 2029.36,-294.65 2032.47,-294.18 2035.72,-293.75 2039.09,-293.36 2042.58,-293.03 2046.16,-292.74 2049.83,-292.49 2053.57,-292.3 2057.37,-292.15 2061.21,-292.05 2065.07,-292 2068.93,-292 2072.79,-292.05"/>
<text xml:space="preserve" text-anchor="middle" x="2067" y="-305.8" font-family="sans-serif" font-size="14.00">SignalRHub</text>
</a>
</g>
</g>
<!-- #/domains/customer_experience/subdomains/realtime/boundedcontexts/ordering_signal_rhub/services/signal_rhub&#45;&gt;#/domains/commerce/subdomains/sales/boundedcontexts/ordering/services/ordering_workflow -->
<g id="edge2" class="edge">
<title>#/domains/customer_experience/subdomains/realtime/boundedcontexts/ordering_signal_rhub/services/signal_rhub&#45;&gt;#/domains/commerce/subdomains/sales/boundedcontexts/ordering/services/ordering_workflow</title>
<path fill="none" stroke="black" d="M2057.32,-328.15C2038.81,-358.96 1995.1,-422.85 1938,-448 1909.71,-460.46 1412.39,-452.45 1381.68,-456 1356.97,-458.86 1351.72,-465.18 1327,-468 1286.92,-472.57 640.3,-466.91 601,-476 571.25,-482.88 540.17,-497.89 517.1,-510.78"/>
<polygon fill="black" stroke="black" points="515.66,-507.57 508.72,-515.58 519.14,-513.64 515.66,-507.57"/>
<text xml:space="preserve" text-anchor="middle" x="1423.34" y="-459" font-family="sans-serif" font-size="10.00">OrderStatusChanged</text>
<g id="a_edge2&#45;headlabel"><a xlink:title="published&#45;language">
<text xml:space="preserve" text-anchor="middle" x="507.41" y="-513.33" font-family="sans-serif" font-size="10.00">PL</text>
</a>
</g>
<g id="a_edge2&#45;taillabel"><a xlink:title="conformist">
<text xml:space="preserve" text-anchor="middle" x="2057.32" y="-325.15" font-family="sans-serif" font-size="10.00">C</text>
</a>
</g>
</g>
</g>
</svg>
