<?xml version="1.0" encoding="UTF-8" standalone="no"?>
<?xml-stylesheet href="data:text/css,.graph%20text%20%7B%0A%09font-family%3A%20sans-serif%3B%0A%09stroke%3A%20white%3B%0A%09paint-order%3A%20stroke%3B%0A%09stroke-width%3A%203%3B%0A%09stroke-linecap%3A%20square%3B%0A%7D%0A%0A.namespace%20polygon%20%7B%0A%09fill-opacity%3A%200.2%3B%0A%09stroke%3A%20none%3B%0A%7D%0A" type="text/css"?>
<!DOCTYPE svg PUBLIC "-//W3C//DTD SVG 1.1//EN"
 "http://www.w3.org/Graphics/SVG/1.1/DTD/svg11.dtd">
<!-- Generated by graphviz version 13.1.2 (0)
 -->
<!-- Pages: 1 -->
<svg width="344pt" height="492pt"
 viewBox="0.00 0.00 344.00 492.00" xmlns="http://www.w3.org/2000/svg" xmlns:xlink="http://www.w3.org/1999/xlink">
<g id="graph0" class="graph" transform="scale(1 1) rotate(0) translate(4 488)">
<polygon fill="white" stroke="none" points="-4,4 -4,-488 340,-488 340,4 -4,4"/>
<g id="clust1" class="cluster namespace">
<title>e_shop</title>
<polygon fill="lightgrey" stroke="lightgrey" points="8,-8 8,-476 328,-476 328,-8 8,-8"/>
<text xml:space="preserve" text-anchor="middle" x="168" y="-463" font-family="sans-serif" font-size="10.00">eShop</text>
</g>
<g id="clust2" class="cluster namespace">
<title>#/domains/api_integration</title>
<polygon fill="lightgrey" stroke="lightgrey" points="16,-168 16,-448 166,-448 166,-168 16,-168"/>
<text xml:space="preserve" text-anchor="middle" x="91" y="-435" font-family="sans-serif" font-size="10.00">API Integration</text>
</g>
<g id="clust3" class="cluster namespace">
<title>#/domains/api_integration/subdomains/webhooks</title>
<polygon fill="lightgrey" stroke="lightgrey" points="24,-176 24,-420 158,-420 158,-176 24,-176"/>
<text xml:space="preserve" text-anchor="middle" x="91" y="-407" font-family="sans-serif" font-size="10.00">Webhooks</text>
</g>
<g id="clust4" class="cluster namespace">
<title>#/domains/commerce</title>
<polygon fill="lightgrey" stroke="lightgrey" points="174,-168 174,-312 320,-312 320,-168 174,-168"/>
<text xml:space="preserve" text-anchor="middle" x="247" y="-299" font-family="sans-serif" font-size="10.00">Commerce</text>
</g>
<g id="clust5" class="cluster namespace">
<title>#/domains/commerce/subdomains/ordering</title>
<polygon fill="lightgrey" stroke="lightgrey" points="182,-176 182,-284 312,-284 312,-176 182,-176"/>
<text xml:space="preserve" text-anchor="middle" x="247" y="-271" font-family="sans-serif" font-size="10.00">Ordering</text>
</g>
<g id="clust6" class="cluster namespace">
<title>#/domains/payment_processing</title>
<polygon fill="lightgrey" stroke="lightgrey" points="152,-16 152,-160 320,-160 320,-16 152,-16"/>
<text xml:space="preserve" text-anchor="middle" x="236" y="-147" font-family="sans-serif" font-size="10.00">Payment Processing</text>
</g>
<g id="clust7" class="cluster namespace">
<title>#/domains/payment_processing/subdomains/payment_processors</title>
<polygon fill="lightgrey" stroke="lightgrey" points="160,-24 160,-132 312,-132 312,-24 160,-24"/>
<text xml:space="preserve" text-anchor="middle" x="236" y="-119" font-family="sans-serif" font-size="10.00">Payment Processors</text>
</g>
<!-- #/domains/api_integration/subdomains/webhooks/boundedcontexts/webhooks -->
<g id="node1" class="node">
<title>#/domains/api_integration/subdomains/webhooks/boundedcontexts/webhooks</title>
<g id="a_node1"><a xlink:title="Register webhooks and deliver order events to subscribers.">
<polygon fill="white" stroke="black" points="96.32,-320.1 99.84,-320.3 103.33,-320.59 106.76,-320.98 110.13,-321.47 113.42,-322.05 116.63,-322.73 119.72,-323.5 122.71,-324.35 125.56,-325.29 128.28,-326.32 130.85,-327.43 133.27,-328.62 135.53,-329.88 137.62,-331.21 139.53,-332.61 141.26,-334.08 142.81,-335.6 144.17,-337.18 145.35,-338.82 146.34,-340.5 147.14,-342.22 147.75,-343.98 148.18,-345.77 148.42,-347.59 148.49,-349.44 148.38,-351.3 148.1,-353.17 147.66,-355.06 147.06,-356.94 146.31,-358.83 145.41,-360.7 144.38,-362.56 143.22,-364.41 141.94,-366.23 140.54,-368.02 139.03,-369.78 137.43,-371.5 135.74,-373.18 133.96,-374.82 132.11,-376.4 130.19,-377.92 128.21,-379.39 126.17,-380.79 124.09,-382.12 121.96,-383.38 119.79,-384.57 117.58,-385.68 115.35,-386.71 113.1,-387.65 110.82,-388.5 108.52,-389.27 106.21,-389.95 103.89,-390.53 101.56,-391.02 99.22,-391.41 96.88,-391.7 94.53,-391.9 92.18,-392 89.82,-392 87.47,-391.9 85.12,-391.7 82.78,-391.41 80.44,-391.02 78.11,-390.53 75.79,-389.95 73.48,-389.27 71.18,-388.5 68.9,-387.65 66.65,-386.71 64.42,-385.68 62.21,-384.57 60.04,-383.38 57.91,-382.12 55.83,-380.79 53.79,-379.39 51.81,-377.92 49.89,-376.4 48.04,-374.82 46.26,-373.18 44.57,-371.5 42.97,-369.78 41.46,-368.02 40.06,-366.23 38.78,-364.41 37.62,-362.56 36.59,-360.7 35.69,-358.83 34.94,-356.94 34.34,-355.06 33.9,-353.17 33.62,-351.3 33.51,-349.44 33.58,-347.59 33.82,-345.77 34.25,-343.98 34.86,-342.22 35.66,-340.5 36.65,-338.82 37.83,-337.18 39.19,-335.6 40.74,-334.08 42.47,-332.61 44.38,-331.21 46.47,-329.88 48.73,-328.62 51.15,-327.43 53.72,-326.32 56.44,-325.29 59.29,-324.35 62.28,-323.5 65.37,-322.73 68.58,-322.05 71.87,-321.47 75.24,-320.98 78.67,-320.59 82.16,-320.3 85.68,-320.1 89.22,-320 92.78,-320 96.32,-320.1"/>
<text xml:space="preserve" text-anchor="middle" x="91" y="-351.8" font-family="sans-serif" font-size="14.00">Webhooks</text>
</a>
</g>
</g>
<!-- #/domains/api_integration/subdomains/webhooks/boundedcontexts/webhook_client -->
<g id="node2" class="node">
<title>#/domains/api_integration/subdomains/webhooks/boundedcontexts/webhook_client</title>
<g id="a_node2"><a xlink:title="Sample receiver app for incoming webhook deliveries.">
<polygon fill="white" stroke="black" points="96.49,-184.1 100.13,-184.3 103.73,-184.59 107.27,-184.98 110.75,-185.47 114.15,-186.05 117.46,-186.73 120.66,-187.5 123.74,-188.35 126.68,-189.29 129.49,-190.32 132.15,-191.43 134.65,-192.62 136.98,-193.88 139.13,-195.21 141.11,-196.61 142.89,-198.08 144.49,-199.6 145.9,-201.18 147.12,-202.82 148.14,-204.5 148.96,-206.22 149.59,-207.98 150.03,-209.77 150.29,-211.59 150.35,-213.44 150.24,-215.3 149.95,-217.17 149.5,-219.06 148.88,-220.94 148.1,-222.83 147.18,-224.7 146.11,-226.56 144.91,-228.41 143.59,-230.23 142.15,-232.02 140.59,-233.78 138.94,-235.5 137.19,-237.18 135.36,-238.82 133.45,-240.4 131.47,-241.92 129.42,-243.39 127.32,-244.79 125.16,-246.12 122.96,-247.38 120.72,-248.57 118.45,-249.68 116.14,-250.71 113.81,-251.65 111.46,-252.5 109.09,-253.27 106.71,-253.95 104.31,-254.53 101.9,-255.02 99.49,-255.41 97.07,-255.7 94.64,-255.9 92.21,-256 89.79,-256 87.36,-255.9 84.93,-255.7 82.51,-255.41 80.1,-255.02 77.69,-254.53 75.29,-253.95 72.91,-253.27 70.54,-252.5 68.19,-251.65 65.86,-250.71 63.55,-249.68 61.28,-248.57 59.04,-247.38 56.84,-246.12 54.68,-244.79 52.58,-243.39 50.53,-241.92 48.55,-240.4 46.64,-238.82 44.81,-237.18 43.06,-235.5 41.41,-233.78 39.85,-232.02 38.41,-230.23 37.09,-228.41 35.89,-226.56 34.82,-224.7 33.9,-222.83 33.12,-220.94 32.5,-219.06 32.05,-217.17 31.76,-215.3 31.65,-213.44 31.71,-211.59 31.97,-209.77 32.41,-207.98 33.04,-206.22 33.86,-204.5 34.88,-202.82 36.1,-201.18 37.51,-199.6 39.11,-198.08 40.89,-196.61 42.87,-195.21 45.02,-193.88 47.35,-192.62 49.85,-191.43 52.51,-190.32 55.32,-189.29 58.26,-188.35 61.34,-187.5 64.54,-186.73 67.85,-186.05 71.25,-185.47 74.73,-184.98 78.27,-184.59 81.87,-184.3 85.51,-184.1 89.17,-184 92.83,-184 96.49,-184.1"/>
<text xml:space="preserve" text-anchor="middle" x="91" y="-215.8" font-family="sans-serif" font-size="14.00">WebhookClient</text>
</a>
</g>
</g>
<!-- #/domains/api_integration/subdomains/webhooks/boundedcontexts/webhooks&#45;&gt;#/domains/api_integration/subdomains/webhooks/boundedcontexts/webhook_client -->
<g id="edge5" class="edge">
<title>#/domains/api_integration/subdomains/webhooks/boundedcontexts/webhooks&#45;&gt;#/domains/api_integration/subdomains/webhooks/boundedcontexts/webhook_client</title>
<path fill="none" stroke="black" d="M78.99,-320.14C77.35,-303.81 77.06,-284.14 78.13,-266.63"/>
<polygon fill="black" stroke="black" points="81.61,-266.98 78.93,-256.73 74.64,-266.41 81.61,-266.98"/>
<g id="a_edge5&#45;headlabel"><a xlink:title="open&#45;host&#45;service">
<text xml:space="preserve" text-anchor="middle" x="79.05" y="-252.22" font-family="sans-serif" font-size="10.00">OHS</text>
</a>
</g>
<g id="a_edge5&#45;taillabel"><a xlink:title="customer&#45;supplier">
<text xml:space="preserve" text-anchor="middle" x="78.99" y="-317.14" font-family="sans-serif" font-size="10.00">C/s</text>
</a>
</g>
</g>
<!-- #/domains/commerce/subdomains/ordering/boundedcontexts/ordering -->
<g id="node3" class="node">
<title>#/domains/commerce/subdomains/ordering/boundedcontexts/ordering</title>
<g id="a_node3"><a xlink:title="Order lifecycle, status and events.">
<polygon fill="white" stroke="black" points="252.32,-184.1 255.84,-184.3 259.33,-184.59 262.76,-184.98 266.13,-185.47 269.42,-186.05 272.63,-186.73 275.72,-187.5 278.71,-188.35 281.56,-189.29 284.28,-190.32 286.85,-191.43 289.27,-192.62 291.53,-193.88 293.62,-195.21 295.53,-196.61 297.26,-198.08 298.81,-199.6 300.17,-201.18 301.35,-202.82 302.34,-204.5 303.14,-206.22 303.75,-207.98 304.18,-209.77 304.42,-211.59 304.49,-213.44 304.38,-215.3 304.1,-217.17 303.66,-219.06 303.06,-220.94 302.31,-222.83 301.41,-224.7 300.38,-226.56 299.22,-228.41 297.94,-230.23 296.54,-232.02 295.03,-233.78 293.43,-235.5 291.74,-237.18 289.96,-238.82 288.11,-240.4 286.19,-241.92 284.21,-243.39 282.17,-244.79 280.09,-246.12 277.96,-247.38 275.79,-248.57 273.58,-249.68 271.35,-250.71 269.1,-251.65 266.82,-252.5 264.52,-253.27 262.21,-253.95 259.89,-254.53 257.56,-255.02 255.22,-255.41 252.88,-255.7 250.53,-255.9 248.18,-256 245.82,-256 243.47,-255.9 241.12,-255.7 238.78,-255.41 236.44,-255.02 234.11,-254.53 231.79,-253.95 229.48,-253.27 227.18,-252.5 224.9,-251.65 222.65,-250.71 220.42,-249.68 218.21,-248.57 216.04,-247.38 213.91,-246.12 211.83,-244.79 209.79,-243.39 207.81,-241.92 205.89,-240.4 204.04,-238.82 202.26,-237.18 200.57,-235.5 198.97,-233.78 197.46,-232.02 196.06,-230.23 194.78,-228.41 193.62,-226.56 192.59,-224.7 191.69,-222.83 190.94,-220.94 190.34,-219.06 189.9,-217.17 189.62,-215.3 189.51,-213.44 189.58,-211.59 189.82,-209.77 190.25,-207.98 190.86,-206.22 191.66,-204.5 192.65,-202.82 193.83,-201.18 195.19,-199.6 196.74,-198.08 198.47,-196.61 200.38,-195.21 202.47,-193.88 204.73,-192.62 207.15,-191.43 209.72,-190.32 212.44,-189.29 215.29,-188.35 218.28,-187.5 221.37,-186.73 224.58,-186.05 227.87,-185.47 231.24,-184.98 234.67,-184.59 238.16,-184.3 241.68,-184.1 245.22,-184 248.78,-184 252.32,-184.1"/>
<text xml:space="preserve" text-anchor="middle" x="247" y="-215.8" font-family="sans-serif" font-size="14.00">Ordering</text>
</a>
</g>
</g>
<!-- #/domains/api_integration/subdomains/webhooks/boundedcontexts/webhooks&#45;&gt;#/domains/commerce/subdomains/ordering/boundedcontexts/ordering -->
<g id="edge2" class="edge">
<title>#/domains/api_integration/subdomains/webhooks/boundedcontexts/webhooks&#45;&gt;#/domains/commerce/subdomains/ordering/boundedcontexts/ordering</title>
<path fill="none" stroke="black" d="M138.42,-331.43C148.27,-325.65 158.29,-319.07 167,-312 185.49,-296.98 203.28,-277.44 217.37,-260.31"/>
<polygon fill="black" stroke="black" points="219.88,-262.78 223.43,-252.8 214.43,-258.38 219.88,-262.78"/>
<g id="a_edge2&#45;headlabel"><a xlink:title="published&#45;language">
<text xml:space="preserve" text-anchor="middle" x="224.38" y="-248.62" font-family="sans-serif" font-size="10.00">PL</text>
</a>
</g>
<g id="a_edge2&#45;taillabel"><a xlink:title="conformist">
<text xml:space="preserve" text-anchor="middle" x="138.42" y="-328.43" font-family="sans-serif" font-size="10.00">C</text>
</a>
</g>
</g>
<!-- #/domains/api_integration/subdomains/webhooks/boundedcontexts/webhook_client&#45;&gt;#/domains/api_integration/subdomains/webhooks/boundedcontexts/webhooks -->
<g id="edge1" class="edge">
<title>#/domains/api_integration/subdomains/webhooks/boundedcontexts/webhook_client&#45;&gt;#/domains/api_integration/subdomains/webhooks/boundedcontexts/webhooks</title>
<path fill="none" stroke="black" d="M102.95,-255.22C104.62,-271.46 104.94,-291.12 103.91,-308.68"/>
<polygon fill="black" stroke="black" points="100.42,-308.39 103.13,-318.63 107.4,-308.94 100.42,-308.39"/>
<g id="a_edge1&#45;headlabel"><a xlink:title="open&#45;host&#45;service">
<text xml:space="preserve" text-anchor="middle" x="103.01" y="-317.14" font-family="sans-serif" font-size="10.00">OHS</text>
</a>
</g>
<g id="a_edge1&#45;taillabel"><a xlink:title="customer&#45;supplier">
<text xml:space="preserve" text-anchor="middle" x="102.95" y="-252.22" font-family="sans-serif" font-size="10.00">C/s</text>
</a>
</g>
</g>
<!-- #/domains/payment_processing/subdomains/payment_processors/boundedcontexts/payment_processor -->
<g id="node4" class="node">
<title>#/domains/payment_processing/subdomains/payment_processors/boundedcontexts/payment_processor</title>
<g id="a_node4"><a xlink:title="Simulated external payment processor.">
<polygon fill="white" stroke="black" points="242.27,-32.1 246.42,-32.3 250.53,-32.59 254.57,-32.98 258.54,-33.47 262.42,-34.05 266.2,-34.73 269.85,-35.5 273.36,-36.35 276.72,-37.29 279.93,-38.32 282.96,-39.43 285.81,-40.62 288.47,-41.88 290.93,-43.21 293.18,-44.61 295.22,-46.08 297.05,-47.6 298.66,-49.18 300.04,-50.82 301.2,-52.5 302.15,-54.22 302.87,-55.98 303.37,-57.77 303.66,-59.59 303.74,-61.44 303.61,-63.3 303.28,-65.17 302.76,-67.06 302.05,-68.94 301.17,-70.83 300.11,-72.7 298.9,-74.56 297.53,-76.41 296.02,-78.23 294.37,-80.02 292.6,-81.78 290.71,-83.5 288.72,-85.18 286.63,-86.82 284.44,-88.4 282.18,-89.92 279.85,-91.39 277.44,-92.79 274.99,-94.12 272.47,-95.38 269.92,-96.57 267.32,-97.68 264.69,-98.71 262.04,-99.65 259.35,-100.5 256.65,-101.27 253.93,-101.95 251.19,-102.53 248.44,-103.02 245.69,-103.41 242.92,-103.7 240.16,-103.9 237.39,-104 234.61,-104 231.84,-103.9 229.08,-103.7 226.31,-103.41 223.56,-103.02 220.81,-102.53 218.07,-101.95 215.35,-101.27 212.65,-100.5 209.96,-99.65 207.31,-98.71 204.68,-97.68 202.08,-96.57 199.53,-95.38 197.01,-94.12 194.56,-92.79 192.15,-91.39 189.82,-89.92 187.56,-88.4 185.37,-86.82 183.28,-85.18 181.29,-83.5 179.4,-81.78 177.63,-80.02 175.98,-78.23 174.47,-76.41 173.1,-74.56 171.89,-72.7 170.83,-70.83 169.95,-68.94 169.24,-67.06 168.72,-65.17 168.39,-63.3 168.26,-61.44 168.34,-59.59 168.63,-57.77 169.13,-55.98 169.85,-54.22 170.8,-52.5 171.96,-50.82 173.34,-49.18 174.95,-47.6 176.78,-46.08 178.82,-44.61 181.07,-43.21 183.53,-41.88 186.19,-40.62 189.04,-39.43 192.07,-38.32 195.28,-37.29 198.64,-36.35 202.15,-35.5 205.8,-34.73 209.58,-34.05 213.46,-33.47 217.43,-32.98 221.47,-32.59 225.58,-32.3 229.73,-32.1 233.91,-32 238.09,-32 242.27,-32.1"/>
<text xml:space="preserve" text-anchor="middle" x="236" y="-63.8" font-family="sans-serif" font-size="14.00">PaymentProcessor</text>
</a>
</g>
</g>
<!-- #/domains/commerce/subdomains/ordering/boundedcontexts/ordering&#45;&gt;#/domains/payment_processing/subdomains/payment_processors/boundedcontexts/payment_processor -->
<g id="edge3" class="edge">
<title>#/domains/commerce/subdomains/ordering/boundedcontexts/ordering&#45;&gt;#/domains/payment_processing/subdomains/payment_processors/boundedcontexts/payment_processor</title>
<path fill="none" stroke="black" d="M232.91,-184.59C229.21,-163.96 226.94,-137.48 226.81,-115.07"/>
<polygon fill="black" stroke="black" points="230.31,-115.33 226.93,-105.29 223.31,-115.24 230.31,-115.33"/>
<g id="a_edge3&#45;headlabel"><a xlink:title="open&#45;host&#45;service">
<text xml:space="preserve" text-anchor="middle" x="226.95" y="-100.77" font-family="sans-serif" font-size="10.00">OHS</text>
</a>
</g>
<g id="a_edge3&#45;taillabel"><a xlink:title="customer&#45;supplier">
<text xml:space="preserve" text-anchor="middle" x="232.91" y="-181.59" font-family="sans-serif" font-size="10.00">C/s</text>
</a>
</g>
</g>
<!-- #/domains/commerce/subdomains/ordering/boundedcontexts/ordering&#45;&gt;#/domains/payment_processing/subdomains/payment_processors/boundedcontexts/payment_processor -->
<g id="edge4" class="edge">
<title>#/domains/commerce/subdomains/ordering/boundedcontexts/ordering&#45;&gt;#/domains/payment_processing/subdomains/payment_processors/boundedcontexts/payment_processor</title>
<path fill="none" stroke="black" d="M256.06,-183.83C256.68,-163.11 255.04,-136.68 251.85,-114.39"/>
<polygon fill="black" stroke="black" points="255.33,-113.98 250.28,-104.67 248.41,-115.1 255.33,-113.98"/>
<g id="a_edge4&#45;headlabel"><a xlink:title="published&#45;language">
<text xml:space="preserve" text-anchor="middle" x="250.04" y="-100.17" font-family="sans-serif" font-size="10.00">PL</text>
</a>
</g>
<g id="a_edge4&#45;taillabel"><a xlink:title="conformist">
<text xml:space="preserve" text-anchor="middle" x="256.06" y="-180.83" font-family="sans-serif" font-size="10.00">C</text>
</a>
</g>
</g>
</g>
</svg>
