<?xml version="1.0" encoding="UTF-8" standalone="no"?>
<?xml-stylesheet href="data:text/css,.graph%20text%20%7B%0A%09font-family%3A%20sans-serif%3B%0A%09stroke%3A%20white%3B%0A%09paint-order%3A%20stroke%3B%0A%09stroke-width%3A%203%3B%0A%09stroke-linecap%3A%20square%3B%0A%7D%0A%0A.namespace%20polygon%20%7B%0A%09fill-opacity%3A%200.2%3B%0A%09stroke%3A%20none%3B%0A%7D%0A" type="text/css"?>
<!DOCTYPE svg PUBLIC "-//W3C//DTD SVG 1.1//EN"
 "http://www.w3.org/Graphics/SVG/1.1/DTD/svg11.dtd">
<!-- Generated by graphviz version 13.1.2 (0)
 -->
<!-- Pages: 1 -->
<svg width="786pt" height="896pt"
 viewBox="0.00 0.00 786.00 896.00" xmlns="http://www.w3.org/2000/svg" xmlns:xlink="http://www.w3.org/1999/xlink">
<g id="graph0" class="graph" transform="scale(1 1) rotate(0) translate(4 892)">
<polygon fill="white" stroke="none" points="-4,4 -4,-892 782,-892 782,4 -4,4"/>
<g id="clust1" class="cluster namespace">
<title>e_shop</title>
<polygon fill="lightgrey" stroke="lightgrey" points="8,-8 8,-880 770,-880 770,-8 8,-8"/>
<text xml:space="preserve" text-anchor="middle" x="389" y="-867" font-family="sans-serif" font-size="10.00">eShop</text>
</g>
<g id="clust2" class="cluster namespace">
<title>#/domains/commerce</title>
<polygon fill="lightgrey" stroke="lightgrey" points="237,-308 237,-560 481,-560 481,-308 237,-308"/>
<text xml:space="preserve" text-anchor="middle" x="359" y="-547" font-family="sans-serif" font-size="10.00">Commerce</text>
</g>
<g id="clust3" class="cluster namespace">
<title>#/domains/commerce/subdomains/ordering</title>
<polygon fill="lightgrey" stroke="lightgrey" points="257,-328 257,-520 461,-520 461,-328 257,-328"/>
<text xml:space="preserve" text-anchor="middle" x="359" y="-507" font-family="sans-serif" font-size="10.00">Ordering</text>
</g>
<g id="clust4" class="cluster namespace">
<title>#/domains/commerce/subdomains/ordering/boundedcontexts/ordering</title>
<polygon fill="lightgrey" stroke="lightgrey" points="277,-348 277,-480 441,-480 441,-348 277,-348"/>
<text xml:space="preserve" text-anchor="middle" x="359" y="-467" font-family="sans-serif" font-size="10.00">Ordering</text>
</g>
<g id="clust5" class="cluster namespace">
<title>#/domains/edge_&amp;_experience</title>
<polygon fill="lightgrey" stroke="lightgrey" points="28,-588 28,-840 476,-840 476,-588 28,-588"/>
<text xml:space="preserve" text-anchor="middle" x="252" y="-827" font-family="sans-serif" font-size="10.00">Edge &amp; Experience</text>
</g>
<g id="clust6" class="cluster namespace">
<title>#/domains/edge_&amp;_experience/subdomains/web</title>
<polygon fill="lightgrey" stroke="lightgrey" points="48,-608 48,-800 242,-800 242,-608 48,-608"/>
<text xml:space="preserve" text-anchor="middle" x="145" y="-787" font-family="sans-serif" font-size="10.00">Web</text>
</g>
<g id="clust7" class="cluster namespace">
<title>#/domains/edge_&amp;_experience/subdomains/web/boundedcontexts/web</title>
<polygon fill="lightgrey" stroke="lightgrey" points="68,-628 68,-760 222,-760 222,-628 68,-628"/>
<text xml:space="preserve" text-anchor="middle" x="145" y="-747" font-family="sans-serif" font-size="10.00">Web</text>
</g>
<g id="clust8" class="cluster namespace">
<title>#/domains/edge_&amp;_experience/subdomains/mobile</title>
<polygon fill="lightgrey" stroke="lightgrey" points="262,-608 262,-800 456,-800 456,-608 262,-608"/>
<text xml:space="preserve" text-anchor="middle" x="359" y="-787" font-family="sans-serif" font-size="10.00">Mobile</text>
</g>
<g id="clust9" class="cluster namespace">
<title>#/domains/edge_&amp;_experience/subdomains/mobile/boundedcontexts/mobile_bff</title>
<polygon fill="lightgrey" stroke="lightgrey" points="282,-628 282,-760 436,-760 436,-628 282,-628"/>
<text xml:space="preserve" text-anchor="middle" x="359" y="-747" font-family="sans-serif" font-size="10.00">Mobile BFF</text>
</g>
<g id="clust10" class="cluster namespace">
<title>#/domains/api_integration</title>
<polygon fill="lightgrey" stroke="lightgrey" points="496,-588 496,-840 750,-840 750,-588 496,-588"/>
<text xml:space="preserve" text-anchor="middle" x="623" y="-827" font-family="sans-serif" font-size="10.00">API Integration</text>
</g>
<g id="clust11" class="cluster namespace">
<title>#/domains/api_integration/subdomains/webhooks</title>
<polygon fill="lightgrey" stroke="lightgrey" points="516,-608 516,-800 730,-800 730,-608 516,-608"/>
<text xml:space="preserve" text-anchor="middle" x="623" y="-787" font-family="sans-serif" font-size="10.00">Webhooks</text>
</g>
<g id="clust12" class="cluster namespace">
<title>#/domains/api_integration/subdomains/webhooks/boundedcontexts/webhooks</title>
<polygon fill="lightgrey" stroke="lightgrey" points="536,-628 536,-760 710,-760 710,-628 536,-628"/>
<text xml:space="preserve" text-anchor="middle" x="623" y="-747" font-family="sans-serif" font-size="10.00">Webhooks</text>
</g>
<g id="clust13" class="cluster namespace">
<title>#/domains/payment_processing</title>
<polygon fill="lightgrey" stroke="lightgrey" points="237,-28 237,-280 479,-280 479,-28 237,-28"/>
<text xml:space="preserve" text-anchor="middle" x="358" y="-267" font-family="sans-serif" font-size="10.00">Payment Processing</text>
</g>
<g id="clust14" class="cluster namespace">
<title>#/domains/payment_processing/subdomains/payment_processors</title>
<polygon fill="lightgrey" stroke="lightgrey" points="257,-48 257,-240 459,-240 459,-48 257,-48"/>
<text xml:space="preserve" text-anchor="middle" x="358" y="-227" font-family="sans-serif" font-size="10.00">Payment Processors</text>
</g>
<g id="clust15" class="cluster namespace">
<title>#/domains/payment_processing/subdomains/payment_processors/boundedcontexts/payment_processor</title>
<polygon fill="lightgrey" stroke="lightgrey" points="277,-68 277,-200 439,-200 439,-68 277,-68"/>
<text xml:space="preserve" text-anchor="middle" x="358" y="-187" font-family="sans-serif" font-size="10.00">PaymentProcessor</text>
</g>
<!-- #/domains/commerce/subdomains/ordering/boundedcontexts/ordering/services/ordering_service -->
<g id="node1" class="node">
<title>#/domains/commerce/subdomains/ordering/boundedcontexts/ordering/services/ordering_service</title>
<g id="a_node1"><a xlink:title="Ordering application service.">
<polygon fill="white" stroke="black" points="364.7,-368.1 368.47,-368.3 372.2,-368.59 375.88,-368.98 379.48,-369.47 383.01,-370.05 386.44,-370.73 389.75,-371.5 392.95,-372.35 396,-373.29 398.92,-374.32 401.67,-375.43 404.26,-376.62 406.68,-377.88 408.91,-379.21 410.96,-380.61 412.81,-382.08 414.47,-383.6 415.93,-385.18 417.19,-386.82 418.25,-388.5 419.1,-390.22 419.76,-391.98 420.22,-393.77 420.48,-395.59 420.55,-397.44 420.43,-399.3 420.13,-401.17 419.66,-403.06 419.02,-404.94 418.22,-406.83 417.26,-408.7 416.15,-410.56 414.91,-412.41 413.53,-414.23 412.04,-416.02 410.43,-417.78 408.71,-419.5 406.9,-421.18 405,-422.82 403.02,-424.4 400.96,-425.92 398.84,-427.39 396.66,-428.79 394.42,-430.12 392.14,-431.38 389.82,-432.57 387.46,-433.68 385.07,-434.71 382.66,-435.65 380.22,-436.5 377.76,-437.27 375.29,-437.95 372.8,-438.53 370.31,-439.02 367.8,-439.41 365.29,-439.7 362.78,-439.9 360.26,-440 357.74,-440 355.22,-439.9 352.71,-439.7 350.2,-439.41 347.69,-439.02 345.2,-438.53 342.71,-437.95 340.24,-437.27 337.78,-436.5 335.34,-435.65 332.93,-434.71 330.54,-433.68 328.18,-432.57 325.86,-431.38 323.58,-430.12 321.34,-428.79 319.16,-427.39 317.04,-425.92 314.98,-424.4 313,-422.82 311.1,-421.18 309.29,-419.5 307.57,-417.78 305.96,-416.02 304.47,-414.23 303.09,-412.41 301.85,-410.56 300.74,-408.7 299.78,-406.83 298.98,-404.94 298.34,-403.06 297.87,-401.17 297.57,-399.3 297.45,-397.44 297.52,-395.59 297.78,-393.77 298.24,-391.98 298.9,-390.22 299.75,-388.5 300.81,-386.82 302.07,-385.18 303.53,-383.6 305.19,-382.08 307.04,-380.61 309.09,-379.21 311.32,-377.88 313.74,-376.62 316.33,-375.43 319.08,-374.32 322,-373.29 325.05,-372.35 328.25,-371.5 331.56,-370.73 334.99,-370.05 338.52,-369.47 342.12,-368.98 345.8,-368.59 349.53,-368.3 353.3,-368.1 357.1,-368 360.9,-368 364.7,-368.1"/>
<text xml:space="preserve" text-anchor="middle" x="359" y="-399.8" font-family="sans-serif" font-size="14.00">OrderingService</text>
</a>
</g>
</g>
<!-- #/domains/payment_processing/subdomains/payment_processors/boundedcontexts/payment_processor/services/payment_service -->
<g id="node5" class="node">
<title>#/domains/payment_processing/subdomains/payment_processors/boundedcontexts/payment_processor/services/payment_service</title>
<g id="a_node5"><a xlink:title="Takes payments and emits status changes.">
<polygon fill="white" stroke="black" points="363.61,-88.1 367.33,-88.3 371.01,-88.59 374.64,-88.98 378.19,-89.47 381.67,-90.05 385.05,-90.73 388.32,-91.5 391.46,-92.35 394.48,-93.29 397.35,-94.32 400.06,-95.43 402.62,-96.62 405,-97.88 407.2,-99.21 409.22,-100.61 411.05,-102.08 412.68,-103.6 414.12,-105.18 415.36,-106.82 416.4,-108.5 417.25,-110.22 417.89,-111.98 418.34,-113.77 418.6,-115.59 418.67,-117.44 418.56,-119.3 418.26,-121.17 417.8,-123.06 417.16,-124.94 416.37,-126.83 415.43,-128.7 414.34,-130.56 413.11,-132.41 411.76,-134.23 410.28,-136.02 408.7,-137.78 407.01,-139.5 405.22,-141.18 403.35,-142.82 401.39,-144.4 399.36,-145.92 397.27,-147.39 395.12,-148.79 392.92,-150.12 390.67,-151.38 388.38,-152.57 386.06,-153.68 383.7,-154.71 381.32,-155.65 378.92,-156.5 376.49,-157.27 374.06,-157.95 371.61,-158.53 369.15,-159.02 366.68,-159.41 364.2,-159.7 361.72,-159.9 359.24,-160 356.76,-160 354.28,-159.9 351.8,-159.7 349.32,-159.41 346.85,-159.02 344.39,-158.53 341.94,-157.95 339.51,-157.27 337.08,-156.5 334.68,-155.65 332.3,-154.71 329.94,-153.68 327.62,-152.57 325.33,-151.38 323.08,-150.12 320.88,-148.79 318.73,-147.39 316.64,-145.92 314.61,-144.4 312.65,-142.82 310.78,-141.18 308.99,-139.5 307.3,-137.78 305.72,-136.02 304.24,-134.23 302.89,-132.41 301.66,-130.56 300.57,-128.7 299.63,-126.83 298.84,-124.94 298.2,-123.06 297.74,-121.17 297.44,-119.3 297.33,-117.44 297.4,-115.59 297.66,-113.77 298.11,-111.98 298.75,-110.22 299.6,-108.5 300.64,-106.82 301.88,-105.18 303.32,-103.6 304.95,-102.08 306.78,-100.61 308.8,-99.21 311,-97.88 313.38,-96.62 315.94,-95.43 318.65,-94.32 321.52,-93.29 324.54,-92.35 327.68,-91.5 330.95,-90.73 334.33,-90.05 337.81,-89.47 341.36,-88.98 344.99,-88.59 348.67,-88.3 352.39,-88.1 356.13,-88 359.87,-88 363.61,-88.1"/>
<text xml:space="preserve" text-anchor="middle" x="358" y="-119.8" font-family="sans-serif" font-size="14.00">PaymentService</text>
</a>
</g>
</g>
<!-- #/domains/commerce/subdomains/ordering/boundedcontexts/ordering/services/ordering_service&#45;&gt;#/domains/payment_processing/subdomains/payment_processors/boundedcontexts/payment_processor/services/payment_service -->
<g id="edge4" class="edge">
<title>#/domains/commerce/subdomains/ordering/boundedcontexts/ordering/services/ordering_service&#45;&gt;#/domains/payment_processing/subdomains/payment_processors/boundedcontexts/payment_processor/services/payment_service</title>
<path fill="none" stroke="black" d="M328.28,-371.14C312.13,-352.13 293.97,-326.57 285.45,-300 270.07,-251.98 299.13,-198.72 324.91,-163.71"/>
<polygon fill="black" stroke="black" points="327.52,-166.06 330.8,-155.99 321.96,-161.82 327.52,-166.06"/>
<text xml:space="preserve" text-anchor="middle" x="318.23" y="-291" font-family="sans-serif" font-size="10.00">ProcessPayment</text>
<g id="a_edge4&#45;headlabel"><a xlink:title="open&#45;host&#45;service">
<text xml:space="preserve" text-anchor="middle" x="331.72" y="-151.78" font-family="sans-serif" font-size="10.00">OHS</text>
</a>
</g>
<g id="a_edge4&#45;taillabel"><a xlink:title="customer&#45;supplier">
<text xml:space="preserve" text-anchor="middle" x="328.28" y="-368.14" font-family="sans-serif" font-size="10.00">C/s</text>
</a>
</g>
</g>
<!-- #/domains/commerce/subdomains/ordering/boundedcontexts/ordering/services/ordering_service&#45;&gt;#/domains/payment_processing/subdomains/payment_processors/boundedcontexts/payment_processor/services/payment_service -->
<g id="edge5" class="edge">
<title>#/domains/commerce/subdomains/ordering/boundedcontexts/ordering/services/ordering_service&#45;&gt;#/domains/payment_processing/subdomains/payment_processors/boundedcontexts/payment_processor/services/payment_service</title>
<path fill="none" stroke="black" d="M359.85,-367.73C360.29,-347.84 360.78,-322.53 361,-300 361.42,-256.46 360.43,-206.83 359.48,-171.57"/>
<polygon fill="black" stroke="black" points="362.98,-171.6 359.2,-161.71 355.98,-171.8 362.98,-171.6"/>
<text xml:space="preserve" text-anchor="middle" x="399.94" y="-291" font-family="sans-serif" font-size="10.00">PaymentSucceeded</text>
<g id="a_edge5&#45;headlabel"><a xlink:title="published&#45;language">
<text xml:space="preserve" text-anchor="middle" x="359.16" y="-157.19" font-family="sans-serif" font-size="10.00">PL</text>
</a>
</g>
<g id="a_edge5&#45;taillabel"><a xlink:title="conformist">
<text xml:space="preserve" text-anchor="middle" x="359.85" y="-364.73" font-family="sans-serif" font-size="10.00">C</text>
</a>
</g>
</g>
<!-- #/domains/edge_&amp;_experience/subdomains/web/boundedcontexts/web/services/web_app -->
<g id="node2" class="node">
<title>#/domains/edge_&amp;_experience/subdomains/web/boundedcontexts/web/services/web_app</title>
<g id="a_node2"><a xlink:title="Blazor Server web app for customers.">
<polygon fill="white" stroke="black" points="150.32,-648.1 153.84,-648.3 157.33,-648.59 160.76,-648.98 164.13,-649.47 167.42,-650.05 170.63,-650.73 173.72,-651.5 176.71,-652.35 179.56,-653.29 182.28,-654.32 184.85,-655.43 187.27,-656.62 189.53,-657.88 191.62,-659.21 193.53,-660.61 195.26,-662.08 196.81,-663.6 198.17,-665.18 199.35,-666.82 200.34,-668.5 201.14,-670.22 201.75,-671.98 202.18,-673.77 202.42,-675.59 202.49,-677.44 202.38,-679.3 202.1,-681.17 201.66,-683.06 201.06,-684.94 200.31,-686.83 199.41,-688.7 198.38,-690.56 197.22,-692.41 195.94,-694.23 194.54,-696.02 193.03,-697.78 191.43,-699.5 189.74,-701.18 187.96,-702.82 186.11,-704.4 184.19,-705.92 182.21,-707.39 180.17,-708.79 178.09,-710.12 175.96,-711.38 173.79,-712.57 171.58,-713.68 169.35,-714.71 167.1,-715.65 164.82,-716.5 162.52,-717.27 160.21,-717.95 157.89,-718.53 155.56,-719.02 153.22,-719.41 150.88,-719.7 148.53,-719.9 146.18,-720 143.82,-720 141.47,-719.9 139.12,-719.7 136.78,-719.41 134.44,-719.02 132.11,-718.53 129.79,-717.95 127.48,-717.27 125.18,-716.5 122.9,-715.65 120.65,-714.71 118.42,-713.68 116.21,-712.57 114.04,-711.38 111.91,-710.12 109.83,-708.79 107.79,-707.39 105.81,-705.92 103.89,-704.4 102.04,-702.82 100.26,-701.18 98.57,-699.5 96.97,-697.78 95.46,-696.02 94.06,-694.23 92.78,-692.41 91.62,-690.56 90.59,-688.7 89.69,-686.83 88.94,-684.94 88.34,-683.06 87.9,-681.17 87.62,-679.3 87.51,-677.44 87.58,-675.59 87.82,-673.77 88.25,-671.98 88.86,-670.22 89.66,-668.5 90.65,-666.82 91.83,-665.18 93.19,-663.6 94.74,-662.08 96.47,-660.61 98.38,-659.21 100.47,-657.88 102.73,-656.62 105.15,-655.43 107.72,-654.32 110.44,-653.29 113.29,-652.35 116.28,-651.5 119.37,-650.73 122.58,-650.05 125.87,-649.47 129.24,-648.98 132.67,-648.59 136.16,-648.3 139.68,-648.1 143.22,-648 146.78,-648 150.32,-648.1"/>
<text xml:space="preserve" text-anchor="middle" x="145" y="-679.8" font-family="sans-serif" font-size="14.00">WebApp</text>
</a>
</g>
</g>
<!-- #/domains/edge_&amp;_experience/subdomains/web/boundedcontexts/web/services/web_app&#45;&gt;#/domains/commerce/subdomains/ordering/boundedcontexts/ordering/services/ordering_service -->
<g id="edge1" class="edge">
<title>#/domains/edge_&amp;_experience/subdomains/web/boundedcontexts/web/services/web_app&#45;&gt;#/domains/commerce/subdomains/ordering/boundedcontexts/ordering/services/ordering_service</title>
<path fill="none" stroke="black" d="M170.18,-650.29C209.63,-599.04 285.91,-499.95 328.45,-444.69"/>
<polygon fill="black" stroke="black" points="330.98,-447.14 334.3,-437.08 325.43,-442.87 330.98,-447.14"/>
<text xml:space="preserve" text-anchor="middle" x="255.32" y="-571" font-family="sans-serif" font-size="10.00">PlaceOrder</text>
<g id="a_edge1&#45;headlabel"><a xlink:title="open&#45;host&#45;service">
<text xml:space="preserve" text-anchor="middle" x="335.23" y="-432.88" font-family="sans-serif" font-size="10.00">OHS</text>
</a>
</g>
<g id="a_edge1&#45;taillabel"><a xlink:title="anti&#45;corruption&#45;layer">
<text xml:space="preserve" text-anchor="middle" x="170.18" y="-647.29" font-family="sans-serif" font-size="10.00">ACL</text>
</a>
</g>
</g>
<!-- #/domains/edge_&amp;_experience/subdomains/mobile/boundedcontexts/mobile_bff/services/shopping_bff -->
<g id="node3" class="node">
<title>#/domains/edge_&amp;_experience/subdomains/mobile/boundedcontexts/mobile_bff/services/shopping_bff</title>
<g id="a_node3"><a xlink:title="BFF that aggregates catalog/basket/ordering.">
<polygon fill="white" stroke="black" points="364.32,-648.1 367.84,-648.3 371.33,-648.59 374.76,-648.98 378.13,-649.47 381.42,-650.05 384.63,-650.73 387.72,-651.5 390.71,-652.35 393.56,-653.29 396.28,-654.32 398.85,-655.43 401.27,-656.62 403.53,-657.88 405.62,-659.21 407.53,-660.61 409.26,-662.08 410.81,-663.6 412.17,-665.18 413.35,-666.82 414.34,-668.5 415.14,-670.22 415.75,-671.98 416.18,-673.77 416.42,-675.59 416.49,-677.44 416.38,-679.3 416.1,-681.17 415.66,-683.06 415.06,-684.94 414.31,-686.83 413.41,-688.7 412.38,-690.56 411.22,-692.41 409.94,-694.23 408.54,-696.02 407.03,-697.78 405.43,-699.5 403.74,-701.18 401.96,-702.82 400.11,-704.4 398.19,-705.92 396.21,-707.39 394.17,-708.79 392.09,-710.12 389.96,-711.38 387.79,-712.57 385.58,-713.68 383.35,-714.71 381.1,-715.65 378.82,-716.5 376.52,-717.27 374.21,-717.95 371.89,-718.53 369.56,-719.02 367.22,-719.41 364.88,-719.7 362.53,-719.9 360.18,-720 357.82,-720 355.47,-719.9 353.12,-719.7 350.78,-719.41 348.44,-719.02 346.11,-718.53 343.79,-717.95 341.48,-717.27 339.18,-716.5 336.9,-715.65 334.65,-714.71 332.42,-713.68 330.21,-712.57 328.04,-711.38 325.91,-710.12 323.83,-708.79 321.79,-707.39 319.81,-705.92 317.89,-704.4 316.04,-702.82 314.26,-701.18 312.57,-699.5 310.97,-697.78 309.46,-696.02 308.06,-694.23 306.78,-692.41 305.62,-690.56 304.59,-688.7 303.69,-686.83 302.94,-684.94 302.34,-683.06 301.9,-681.17 301.62,-679.3 301.51,-677.44 301.58,-675.59 301.82,-673.77 302.25,-671.98 302.86,-670.22 303.66,-668.5 304.65,-666.82 305.83,-665.18 307.19,-663.6 308.74,-662.08 310.47,-660.61 312.38,-659.21 314.47,-657.88 316.73,-656.62 319.15,-655.43 321.72,-654.32 324.44,-653.29 327.29,-652.35 330.28,-651.5 333.37,-650.73 336.58,-650.05 339.87,-649.47 343.24,-648.98 346.67,-648.59 350.16,-648.3 353.68,-648.1 357.22,-648 360.78,-648 364.32,-648.1"/>
<text xml:space="preserve" text-anchor="middle" x="359" y="-679.8" font-family="sans-serif" font-size="14.00">ShoppingBff</text>
</a>
</g>
</g>
<!-- #/domains/edge_&amp;_experience/subdomains/mobile/boundedcontexts/mobile_bff/services/shopping_bff&#45;&gt;#/domains/commerce/subdomains/ordering/boundedcontexts/ordering/services/ordering_service -->
<g id="edge2" class="edge">
<title>#/domains/edge_&amp;_experience/subdomains/mobile/boundedcontexts/mobile_bff/services/shopping_bff&#45;&gt;#/domains/commerce/subdomains/ordering/boundedcontexts/ordering/services/ordering_service</title>
<path fill="none" stroke="black" d="M359,-647.51C359,-597.63 359,-506.72 359,-451.5"/>
<polygon fill="black" stroke="black" points="362.5,-451.79 359,-441.79 355.5,-451.79 362.5,-451.79"/>
<text xml:space="preserve" text-anchor="middle" x="381.49" y="-571" font-family="sans-serif" font-size="10.00">PlaceOrder</text>
<g id="a_edge2&#45;headlabel"><a xlink:title="open&#45;host&#45;service">
<text xml:space="preserve" text-anchor="middle" x="359" y="-437.28" font-family="sans-serif" font-size="10.00">OHS</text>
</a>
</g>
<g id="a_edge2&#45;taillabel"><a xlink:title="anti&#45;corruption&#45;layer">
<text xml:space="preserve" text-anchor="middle" x="359" y="-644.51" font-family="sans-serif" font-size="10.00">ACL</text>
</a>
</g>
</g>
<!-- #/domains/api_integration/subdomains/webhooks/boundedcontexts/webhooks/services/webhooks_service -->
<g id="node4" class="node">
<title>#/domains/api_integration/subdomains/webhooks/boundedcontexts/webhooks/services/webhooks_service</title>
<g id="a_node4"><a xlink:title="Register webhooks and deliver order events to subscribers.">
<polygon fill="white" stroke="black" points="629.19,-648.1 633.28,-648.3 637.33,-648.59 641.33,-648.98 645.25,-649.47 649.08,-650.05 652.8,-650.73 656.4,-651.5 659.87,-652.35 663.19,-653.29 666.35,-654.32 669.34,-655.43 672.15,-656.62 674.78,-657.88 677.2,-659.21 679.43,-660.61 681.44,-662.08 683.25,-663.6 684.83,-665.18 686.2,-666.82 687.35,-668.5 688.28,-670.22 688.99,-671.98 689.48,-673.77 689.77,-675.59 689.84,-677.44 689.72,-679.3 689.4,-681.17 688.88,-683.06 688.18,-684.94 687.31,-686.83 686.27,-688.7 685.07,-690.56 683.72,-692.41 682.23,-694.23 680.6,-696.02 678.85,-697.78 676.99,-699.5 675.02,-701.18 672.96,-702.82 670.81,-704.4 668.57,-705.92 666.27,-707.39 663.9,-708.79 661.47,-710.12 658.99,-711.38 656.47,-712.57 653.91,-713.68 651.32,-714.71 648.69,-715.65 646.04,-716.5 643.38,-717.27 640.69,-717.95 637.99,-718.53 635.28,-719.02 632.56,-719.41 629.83,-719.7 627.1,-719.9 624.37,-720 621.63,-720 618.9,-719.9 616.17,-719.7 613.44,-719.41 610.72,-719.02 608.01,-718.53 605.31,-717.95 602.62,-717.27 599.96,-716.5 597.31,-715.65 594.68,-714.71 592.09,-713.68 589.53,-712.57 587.01,-711.38 584.53,-710.12 582.1,-708.79 579.73,-707.39 577.43,-705.92 575.19,-704.4 573.04,-702.82 570.98,-701.18 569.01,-699.5 567.15,-697.78 565.4,-696.02 563.77,-694.23 562.28,-692.41 560.93,-690.56 559.73,-688.7 558.69,-686.83 557.82,-684.94 557.12,-683.06 556.6,-681.17 556.28,-679.3 556.16,-677.44 556.23,-675.59 556.52,-673.77 557.01,-671.98 557.72,-670.22 558.65,-668.5 559.8,-666.82 561.17,-665.18 562.75,-663.6 564.56,-662.08 566.57,-660.61 568.8,-659.21 571.22,-657.88 573.85,-656.62 576.66,-655.43 579.65,-654.32 582.81,-653.29 586.13,-652.35 589.6,-651.5 593.2,-650.73 596.92,-650.05 600.75,-649.47 604.67,-648.98 608.67,-648.59 612.72,-648.3 616.81,-648.1 620.94,-648 625.06,-648 629.19,-648.1"/>
<text xml:space="preserve" text-anchor="middle" x="623" y="-679.8" font-family="sans-serif" font-size="14.00">WebhooksService</text>
</a>
</g>
</g>
<!-- #/domains/api_integration/subdomains/webhooks/boundedcontexts/webhooks/services/webhooks_service&#45;&gt;#/domains/commerce/subdomains/ordering/boundedcontexts/ordering/services/ordering_service -->
<g id="edge3" class="edge">
<title>#/domains/api_integration/subdomains/webhooks/boundedcontexts/webhooks/services/webhooks_service&#45;&gt;#/domains/commerce/subdomains/ordering/boundedcontexts/ordering/services/ordering_service</title>
<path fill="none" stroke="black" d="M592.2,-650.57C542.91,-598.66 446.56,-497.21 394.47,-442.35"/>
<polygon fill="black" stroke="black" points="397.28,-440.22 387.85,-435.38 392.2,-445.04 397.28,-440.22"/>
<text xml:space="preserve" text-anchor="middle" x="542.96" y="-571" font-family="sans-serif" font-size="10.00">OrderPaid</text>
<g id="a_edge3&#45;headlabel"><a xlink:title="published&#45;language">
<text xml:space="preserve" text-anchor="middle" x="386.81" y="-431.28" font-family="sans-serif" font-size="10.00">PL</text>
</a>
</g>
<g id="a_edge3&#45;taillabel"><a xlink:title="conformist">
<text xml:space="preserve" text-anchor="middle" x="592.2" y="-647.57" font-family="sans-serif" font-size="10.00">C</text>
</a>
</g>
</g>
</g>
</svg>
