<?xml version="1.0" encoding="UTF-8" standalone="no"?>
<?xml-stylesheet href="data:text/css,.graph%20text%20%7B%0A%09font-family%3A%20sans-serif%3B%0A%09stroke%3A%20white%3B%0A%09paint-order%3A%20stroke%3B%0A%09stroke-width%3A%203%3B%0A%09stroke-linecap%3A%20square%3B%0A%7D%0A%0A.namespace%20polygon%20%7B%0A%09fill-opacity%3A%200.2%3B%0A%09stroke%3A%20none%3B%0A%7D%0A" type="text/css"?>
<!DOCTYPE svg PUBLIC "-//W3C//DTD SVG 1.1//EN"
 "http://www.w3.org/Graphics/SVG/1.1/DTD/svg11.dtd">
<!-- Generated by graphviz version 13.1.2 (0)
 -->
<!-- Pages: 1 -->
<svg width="660pt" height="776pt"
 viewBox="0.00 0.00 660.00 776.00" xmlns="http://www.w3.org/2000/svg" xmlns:xlink="http://www.w3.org/1999/xlink">
<g id="graph0" class="graph" transform="scale(1 1) rotate(0) translate(4 772)">
<polygon fill="white" stroke="none" points="-4,4 -4,-772 656,-772 656,4 -4,4"/>
<g id="clust1" class="cluster namespace">
<title>e_shop_on_containers</title>
<polygon fill="lightgrey" stroke="lightgrey" points="8,-8 8,-760 644,-760 644,-8 8,-8"/>
<text xml:space="preserve" text-anchor="middle" x="326" y="-747" font-family="sans-serif" font-size="10.00">eShopOnContainers</text>
</g>
<g id="clust2" class="cluster namespace">
<title>#/domains/customer_experience</title>
<polygon fill="lightgrey" stroke="lightgrey" points="16,-436 16,-580 636,-580 636,-436 16,-436"/>
<text xml:space="preserve" text-anchor="middle" x="326" y="-567" font-family="sans-serif" font-size="10.00">CustomerExperience</text>
</g>
<g id="clust3" class="cluster namespace">
<title>#/domains/customer_experience/subdomains/promotions</title>
<polygon fill="lightgrey" stroke="lightgrey" points="24,-444 24,-552 154,-552 154,-444 24,-444"/>
<text xml:space="preserve" text-anchor="middle" x="89" y="-539" font-family="sans-serif" font-size="10.00">Promotions</text>
</g>
<g id="clust4" class="cluster namespace">
<title>#/domains/customer_experience/subdomains/geodata</title>
<polygon fill="lightgrey" stroke="lightgrey" points="175,-444 175,-552 305,-552 305,-444 175,-444"/>
<text xml:space="preserve" text-anchor="middle" x="240" y="-539" font-family="sans-serif" font-size="10.00">Geodata</text>
</g>
<g id="clust5" class="cluster namespace">
<title>#/domains/customer_experience/subdomains/webhooks</title>
<polygon fill="lightgrey" stroke="lightgrey" points="326,-444 326,-552 456,-552 456,-444 326,-444"/>
<text xml:space="preserve" text-anchor="middle" x="391" y="-539" font-family="sans-serif" font-size="10.00">Webhooks</text>
</g>
<g id="clust6" class="cluster namespace">
<title>#/domains/customer_experience/subdomains/realtime</title>
<polygon fill="lightgrey" stroke="lightgrey" points="476,-444 476,-552 628,-552 628,-444 476,-444"/>
<text xml:space="preserve" text-anchor="middle" x="552" y="-539" font-family="sans-serif" font-size="10.00">Realtime</text>
</g>
<g id="clust7" class="cluster namespace">
<title>#/domains/integration</title>
<polygon fill="lightgrey" stroke="lightgrey" points="91,-588 91,-732 237,-732 237,-588 91,-588"/>
<text xml:space="preserve" text-anchor="middle" x="164" y="-719" font-family="sans-serif" font-size="10.00">Integration</text>
</g>
<g id="clust8" class="cluster namespace">
<title>#/domains/integration/subdomains/edge</title>
<polygon fill="lightgrey" stroke="lightgrey" points="99,-596 99,-704 229,-704 229,-596 99,-596"/>
<text xml:space="preserve" text-anchor="middle" x="164" y="-691" font-family="sans-serif" font-size="10.00">Edge</text>
</g>
<g id="clust9" class="cluster namespace">
<title>#/domains/commerce</title>
<polygon fill="lightgrey" stroke="lightgrey" points="138,-16 138,-428 435,-428 435,-16 138,-16"/>
<text xml:space="preserve" text-anchor="middle" x="286.5" y="-415" font-family="sans-serif" font-size="10.00">Commerce</text>
</g>
<g id="clust10" class="cluster namespace">
<title>#/domains/commerce/subdomains/sales</title>
<polygon fill="lightgrey" stroke="lightgrey" points="221,-292 221,-400 351,-400 351,-292 221,-292"/>
<text xml:space="preserve" text-anchor="middle" x="286" y="-387" font-family="sans-serif" font-size="10.00">Sales</text>
</g>
<g id="clust11" class="cluster namespace">
<title>#/domains/commerce/subdomains/payments</title>
<polygon fill="lightgrey" stroke="lightgrey" points="146,-148 146,-256 276,-256 276,-148 146,-148"/>
<text xml:space="preserve" text-anchor="middle" x="211" y="-243" font-family="sans-serif" font-size="10.00">Payments</text>
</g>
<g id="clust12" class="cluster namespace">
<title>#/domains/commerce/subdomains/shopping</title>
<polygon fill="lightgrey" stroke="lightgrey" points="297,-148 297,-256 427,-256 427,-148 297,-148"/>
<text xml:space="preserve" text-anchor="middle" x="362" y="-243" font-family="sans-serif" font-size="10.00">Shopping</text>
</g>
<g id="clust13" class="cluster namespace">
<title>#/domains/commerce/subdomains/cataloging</title>
<polygon fill="lightgrey" stroke="lightgrey" points="297,-24 297,-132 427,-132 427,-24 297,-24"/>
<text xml:space="preserve" text-anchor="middle" x="362" y="-119" font-family="sans-serif" font-size="10.00">Cataloging</text>
</g>
<g id="clust14" class="cluster namespace">
<title>#/domains/identity&amp;access</title>
<polygon fill="lightgrey" stroke="lightgrey" points="443,-140 443,-284 589,-284 589,-140 443,-140"/>
<text xml:space="preserve" text-anchor="middle" x="516" y="-271" font-family="sans-serif" font-size="10.00">Identity&amp;Access</text>
</g>
<g id="clust15" class="cluster namespace">
<title>#/domains/identity&amp;access/subdomains/auth</title>
<polygon fill="lightgrey" stroke="lightgrey" points="451,-148 451,-256 581,-256 581,-148 451,-148"/>
<text xml:space="preserve" text-anchor="middle" x="516" y="-243" font-family="sans-serif" font-size="10.00">Auth</text>
</g>
<!-- #/domains/customer_experience/subdomains/promotions/boundedcontexts/marketing -->
<g id="node1" class="node">
<title>#/domains/customer_experience/subdomains/promotions/boundedcontexts/marketing</title>
<g id="a_node1"><a xlink:title="Marketing.API">
<polygon fill="white" stroke="black" points="94.32,-452.1 97.84,-452.3 101.33,-452.59 104.76,-452.98 108.13,-453.47 111.42,-454.05 114.63,-454.73 117.72,-455.5 120.71,-456.35 123.56,-457.29 126.28,-458.32 128.85,-459.43 131.27,-460.62 133.53,-461.88 135.62,-463.21 137.53,-464.61 139.26,-466.08 140.81,-467.6 142.17,-469.18 143.35,-470.82 144.34,-472.5 145.14,-474.22 145.75,-475.98 146.18,-477.77 146.42,-479.59 146.49,-481.44 146.38,-483.3 146.1,-485.17 145.66,-487.06 145.06,-488.94 144.31,-490.83 143.41,-492.7 142.38,-494.56 141.22,-496.41 139.94,-498.23 138.54,-500.02 137.03,-501.78 135.43,-503.5 133.74,-505.18 131.96,-506.82 130.11,-508.4 128.19,-509.92 126.21,-511.39 124.17,-512.79 122.09,-514.12 119.96,-515.38 117.79,-516.57 115.58,-517.68 113.35,-518.71 111.1,-519.65 108.82,-520.5 106.52,-521.27 104.21,-521.95 101.89,-522.53 99.56,-523.02 97.22,-523.41 94.88,-523.7 92.53,-523.9 90.18,-524 87.82,-524 85.47,-523.9 83.12,-523.7 80.78,-523.41 78.44,-523.02 76.11,-522.53 73.79,-521.95 71.48,-521.27 69.18,-520.5 66.9,-519.65 64.65,-518.71 62.42,-517.68 60.21,-516.57 58.04,-515.38 55.91,-514.12 53.83,-512.79 51.79,-511.39 49.81,-509.92 47.89,-508.4 46.04,-506.82 44.26,-505.18 42.57,-503.5 40.97,-501.78 39.46,-500.02 38.06,-498.23 36.78,-496.41 35.62,-494.56 34.59,-492.7 33.69,-490.83 32.94,-488.94 32.34,-487.06 31.9,-485.17 31.62,-483.3 31.51,-481.44 31.58,-479.59 31.82,-477.77 32.25,-475.98 32.86,-474.22 33.66,-472.5 34.65,-470.82 35.83,-469.18 37.19,-467.6 38.74,-466.08 40.47,-464.61 42.38,-463.21 44.47,-461.88 46.73,-460.62 49.15,-459.43 51.72,-458.32 54.44,-457.29 57.29,-456.35 60.28,-455.5 63.37,-454.73 66.58,-454.05 69.87,-453.47 73.24,-452.98 76.67,-452.59 80.16,-452.3 83.68,-452.1 87.22,-452 90.78,-452 94.32,-452.1"/>
<text xml:space="preserve" text-anchor="middle" x="89" y="-483.8" font-family="sans-serif" font-size="14.00">Marketing</text>
</a>
</g>
</g>
<!-- #/domains/customer_experience/subdomains/geodata/boundedcontexts/locations -->
<g id="node2" class="node">
<title>#/domains/customer_experience/subdomains/geodata/boundedcontexts/locations</title>
<g id="a_node2"><a xlink:title="Locations.API">
<polygon fill="white" stroke="black" points="245.32,-452.1 248.84,-452.3 252.33,-452.59 255.76,-452.98 259.13,-453.47 262.42,-454.05 265.63,-454.73 268.72,-455.5 271.71,-456.35 274.56,-457.29 277.28,-458.32 279.85,-459.43 282.27,-460.62 284.53,-461.88 286.62,-463.21 288.53,-464.61 290.26,-466.08 291.81,-467.6 293.17,-469.18 294.35,-470.82 295.34,-472.5 296.14,-474.22 296.75,-475.98 297.18,-477.77 297.42,-479.59 297.49,-481.44 297.38,-483.3 297.1,-485.17 296.66,-487.06 296.06,-488.94 295.31,-490.83 294.41,-492.7 293.38,-494.56 292.22,-496.41 290.94,-498.23 289.54,-500.02 288.03,-501.78 286.43,-503.5 284.74,-505.18 282.96,-506.82 281.11,-508.4 279.19,-509.92 277.21,-511.39 275.17,-512.79 273.09,-514.12 270.96,-515.38 268.79,-516.57 266.58,-517.68 264.35,-518.71 262.1,-519.65 259.82,-520.5 257.52,-521.27 255.21,-521.95 252.89,-522.53 250.56,-523.02 248.22,-523.41 245.88,-523.7 243.53,-523.9 241.18,-524 238.82,-524 236.47,-523.9 234.12,-523.7 231.78,-523.41 229.44,-523.02 227.11,-522.53 224.79,-521.95 222.48,-521.27 220.18,-520.5 217.9,-519.65 215.65,-518.71 213.42,-517.68 211.21,-516.57 209.04,-515.38 206.91,-514.12 204.83,-512.79 202.79,-511.39 200.81,-509.92 198.89,-508.4 197.04,-506.82 195.26,-505.18 193.57,-503.5 191.97,-501.78 190.46,-500.02 189.06,-498.23 187.78,-496.41 186.62,-494.56 185.59,-492.7 184.69,-490.83 183.94,-488.94 183.34,-487.06 182.9,-485.17 182.62,-483.3 182.51,-481.44 182.58,-479.59 182.82,-477.77 183.25,-475.98 183.86,-474.22 184.66,-472.5 185.65,-470.82 186.83,-469.18 188.19,-467.6 189.74,-466.08 191.47,-464.61 193.38,-463.21 195.47,-461.88 197.73,-460.62 200.15,-459.43 202.72,-458.32 205.44,-457.29 208.29,-456.35 211.28,-455.5 214.37,-454.73 217.58,-454.05 220.87,-453.47 224.24,-452.98 227.67,-452.59 231.16,-452.3 234.68,-452.1 238.22,-452 241.78,-452 245.32,-452.1"/>
<text xml:space="preserve" text-anchor="middle" x="240" y="-483.8" font-family="sans-serif" font-size="14.00">Locations</text>
</a>
</g>
</g>
<!-- #/domains/customer_experience/subdomains/webhooks/boundedcontexts/webhooks -->
<g id="node3" class="node">
<title>#/domains/customer_experience/subdomains/webhooks/boundedcontexts/webhooks</title>
<g id="a_node3"><a xlink:title="Webhooks.API">
<polygon fill="white" stroke="black" points="396.32,-452.1 399.84,-452.3 403.33,-452.59 406.76,-452.98 410.13,-453.47 413.42,-454.05 416.63,-454.73 419.72,-455.5 422.71,-456.35 425.56,-457.29 428.28,-458.32 430.85,-459.43 433.27,-460.62 435.53,-461.88 437.62,-463.21 439.53,-464.61 441.26,-466.08 442.81,-467.6 444.17,-469.18 445.35,-470.82 446.34,-472.5 447.14,-474.22 447.75,-475.98 448.18,-477.77 448.42,-479.59 448.49,-481.44 448.38,-483.3 448.1,-485.17 447.66,-487.06 447.06,-488.94 446.31,-490.83 445.41,-492.7 444.38,-494.56 443.22,-496.41 441.94,-498.23 440.54,-500.02 439.03,-501.78 437.43,-503.5 435.74,-505.18 433.96,-506.82 432.11,-508.4 430.19,-509.92 428.21,-511.39 426.17,-512.79 424.09,-514.12 421.96,-515.38 419.79,-516.57 417.58,-517.68 415.35,-518.71 413.1,-519.65 410.82,-520.5 408.52,-521.27 406.21,-521.95 403.89,-522.53 401.56,-523.02 399.22,-523.41 396.88,-523.7 394.53,-523.9 392.18,-524 389.82,-524 387.47,-523.9 385.12,-523.7 382.78,-523.41 380.44,-523.02 378.11,-522.53 375.79,-521.95 373.48,-521.27 371.18,-520.5 368.9,-519.65 366.65,-518.71 364.42,-517.68 362.21,-516.57 360.04,-515.38 357.91,-514.12 355.83,-512.79 353.79,-511.39 351.81,-509.92 349.89,-508.4 348.04,-506.82 346.26,-505.18 344.57,-503.5 342.97,-501.78 341.46,-500.02 340.06,-498.23 338.78,-496.41 337.62,-494.56 336.59,-492.7 335.69,-490.83 334.94,-488.94 334.34,-487.06 333.9,-485.17 333.62,-483.3 333.51,-481.44 333.58,-479.59 333.82,-477.77 334.25,-475.98 334.86,-474.22 335.66,-472.5 336.65,-470.82 337.83,-469.18 339.19,-467.6 340.74,-466.08 342.47,-464.61 344.38,-463.21 346.47,-461.88 348.73,-460.62 351.15,-459.43 353.72,-458.32 356.44,-457.29 359.29,-456.35 362.28,-455.5 365.37,-454.73 368.58,-454.05 371.87,-453.47 375.24,-452.98 378.67,-452.59 382.16,-452.3 385.68,-452.1 389.22,-452 392.78,-452 396.32,-452.1"/>
<text xml:space="preserve" text-anchor="middle" x="391" y="-483.8" font-family="sans-serif" font-size="14.00">Webhooks</text>
</a>
</g>
</g>
<!-- #/domains/commerce/subdomains/sales/boundedcontexts/ordering -->
<g id="node6" class="node">
<title>#/domains/commerce/subdomains/sales/boundedcontexts/ordering</title>
<g id="a_node6"><a xlink:title="Ordering.API (rich DDD + domain events)">
<polygon fill="white" stroke="black" points="291.32,-300.1 294.84,-300.3 298.33,-300.59 301.76,-300.98 305.13,-301.47 308.42,-302.05 311.63,-302.73 314.72,-303.5 317.71,-304.35 320.56,-305.29 323.28,-306.32 325.85,-307.43 328.27,-308.62 330.53,-309.88 332.62,-311.21 334.53,-312.61 336.26,-314.08 337.81,-315.6 339.17,-317.18 340.35,-318.82 341.34,-320.5 342.14,-322.22 342.75,-323.98 343.18,-325.77 343.42,-327.59 343.49,-329.44 343.38,-331.3 343.1,-333.17 342.66,-335.06 342.06,-336.94 341.31,-338.83 340.41,-340.7 339.38,-342.56 338.22,-344.41 336.94,-346.23 335.54,-348.02 334.03,-349.78 332.43,-351.5 330.74,-353.18 328.96,-354.82 327.11,-356.4 325.19,-357.92 323.21,-359.39 321.17,-360.79 319.09,-362.12 316.96,-363.38 314.79,-364.57 312.58,-365.68 310.35,-366.71 308.1,-367.65 305.82,-368.5 303.52,-369.27 301.21,-369.95 298.89,-370.53 296.56,-371.02 294.22,-371.41 291.88,-371.7 289.53,-371.9 287.18,-372 284.82,-372 282.47,-371.9 280.12,-371.7 277.78,-371.41 275.44,-371.02 273.11,-370.53 270.79,-369.95 268.48,-369.27 266.18,-368.5 263.9,-367.65 261.65,-366.71 259.42,-365.68 257.21,-364.57 255.04,-363.38 252.91,-362.12 250.83,-360.79 248.79,-359.39 246.81,-357.92 244.89,-356.4 243.04,-354.82 241.26,-353.18 239.57,-351.5 237.97,-349.78 236.46,-348.02 235.06,-346.23 233.78,-344.41 232.62,-342.56 231.59,-340.7 230.69,-338.83 229.94,-336.94 229.34,-335.06 228.9,-333.17 228.62,-331.3 228.51,-329.44 228.58,-327.59 228.82,-325.77 229.25,-323.98 229.86,-322.22 230.66,-320.5 231.65,-318.82 232.83,-317.18 234.19,-315.6 235.74,-314.08 237.47,-312.61 239.38,-311.21 241.47,-309.88 243.73,-308.62 246.15,-307.43 248.72,-306.32 251.44,-305.29 254.29,-304.35 257.28,-303.5 260.37,-302.73 263.58,-302.05 266.87,-301.47 270.24,-300.98 273.67,-300.59 277.16,-300.3 280.68,-300.1 284.22,-300 287.78,-300 291.32,-300.1"/>
<text xml:space="preserve" text-anchor="middle" x="286" y="-331.8" font-family="sans-serif" font-size="14.00">Ordering</text>
</a>
</g>
</g>
<!-- #/domains/customer_experience/subdomains/webhooks/boundedcontexts/webhooks&#45;&gt;#/domains/commerce/subdomains/sales/boundedcontexts/ordering -->
<g id="edge5" class="edge">
<title>#/domains/customer_experience/subdomains/webhooks/boundedcontexts/webhooks&#45;&gt;#/domains/commerce/subdomains/sales/boundedcontexts/ordering</title>
<path fill="none" stroke="black" d="M367.96,-454.08C352.13,-431.47 331.02,-401.31 314.19,-377.27"/>
<polygon fill="black" stroke="black" points="317.2,-375.47 308.6,-369.29 311.47,-379.49 317.2,-375.47"/>
<g id="a_edge5&#45;headlabel"><a xlink:title="published&#45;language">
<text xml:space="preserve" text-anchor="middle" x="307.73" y="-365.05" font-family="sans-serif" font-size="10.00">PL</text>
</a>
</g>
<g id="a_edge5&#45;taillabel"><a xlink:title="conformist">
<text xml:space="preserve" text-anchor="middle" x="367.96" y="-451.08" font-family="sans-serif" font-size="10.00">C</text>
</a>
</g>
</g>
<!-- #/domains/customer_experience/subdomains/realtime/boundedcontexts/ordering_signal_rhub -->
<g id="node4" class="node">
<title>#/domains/customer_experience/subdomains/realtime/boundedcontexts/ordering_signal_rhub</title>
<g id="a_node4"><a xlink:title="Ordering.SignalRHub">
<polygon fill="white" stroke="black" points="557.32,-452.1 560.84,-452.3 564.33,-452.59 567.76,-452.98 571.13,-453.47 574.42,-454.05 577.63,-454.73 580.72,-455.5 583.71,-456.35 586.56,-457.29 589.28,-458.32 591.85,-459.43 594.27,-460.62 596.53,-461.88 598.62,-463.21 600.53,-464.61 602.26,-466.08 603.81,-467.6 605.17,-469.18 606.35,-470.82 607.34,-472.5 608.14,-474.22 608.75,-475.98 609.18,-477.77 609.42,-479.59 609.49,-481.44 609.38,-483.3 609.1,-485.17 608.66,-487.06 608.06,-488.94 607.31,-490.83 606.41,-492.7 605.38,-494.56 604.22,-496.41 602.94,-498.23 601.54,-500.02 600.03,-501.78 598.43,-503.5 596.74,-505.18 594.96,-506.82 593.11,-508.4 591.19,-509.92 589.21,-511.39 587.17,-512.79 585.09,-514.12 582.96,-515.38 580.79,-516.57 578.58,-517.68 576.35,-518.71 574.1,-519.65 571.82,-520.5 569.52,-521.27 567.21,-521.95 564.89,-522.53 562.56,-523.02 560.22,-523.41 557.88,-523.7 555.53,-523.9 553.18,-524 550.82,-524 548.47,-523.9 546.12,-523.7 543.78,-523.41 541.44,-523.02 539.11,-522.53 536.79,-521.95 534.48,-521.27 532.18,-520.5 529.9,-519.65 527.65,-518.71 525.42,-517.68 523.21,-516.57 521.04,-515.38 518.91,-514.12 516.83,-512.79 514.79,-511.39 512.81,-509.92 510.89,-508.4 509.04,-506.82 507.26,-505.18 505.57,-503.5 503.97,-501.78 502.46,-500.02 501.06,-498.23 499.78,-496.41 498.62,-494.56 497.59,-492.7 496.69,-490.83 495.94,-488.94 495.34,-487.06 494.9,-485.17 494.62,-483.3 494.51,-481.44 494.58,-479.59 494.82,-477.77 495.25,-475.98 495.86,-474.22 496.66,-472.5 497.65,-470.82 498.83,-469.18 500.19,-467.6 501.74,-466.08 503.47,-464.61 505.38,-463.21 507.47,-461.88 509.73,-460.62 512.15,-459.43 514.72,-458.32 517.44,-457.29 520.29,-456.35 523.28,-455.5 526.37,-454.73 529.58,-454.05 532.87,-453.47 536.24,-452.98 539.67,-452.59 543.16,-452.3 546.68,-452.1 550.22,-452 553.78,-452 557.32,-452.1"/>
<text xml:space="preserve" text-anchor="middle" x="552" y="-483.8" font-family="sans-serif" font-size="14.00">OrderingSignalRHub</text>
</a>
</g>
</g>
<!-- #/domains/customer_experience/subdomains/realtime/boundedcontexts/ordering_signal_rhub&#45;&gt;#/domains/commerce/subdomains/sales/boundedcontexts/ordering -->
<g id="edge13" class="edge">
<title>#/domains/customer_experience/subdomains/realtime/boundedcontexts/ordering_signal_rhub&#45;&gt;#/domains/commerce/subdomains/sales/boundedcontexts/ordering</title>
<path fill="none" stroke="black" d="M508.31,-461.1C494.5,-452.99 479.15,-444.06 465,-436 421.28,-411.1 371.13,-383.44 335.05,-363.7"/>
<polygon fill="black" stroke="black" points="337.05,-360.8 326.59,-359.08 333.69,-366.94 337.05,-360.8"/>
<g id="a_edge13&#45;headlabel"><a xlink:title="published&#45;language">
<text xml:space="preserve" text-anchor="middle" x="325.27" y="-355.35" font-family="sans-serif" font-size="10.00">PL</text>
</a>
</g>
<g id="a_edge13&#45;taillabel"><a xlink:title="conformist">
<text xml:space="preserve" text-anchor="middle" x="508.31" y="-458.1" font-family="sans-serif" font-size="10.00">C</text>
</a>
</g>
</g>
<!-- #/domains/integration/subdomains/edge/boundedcontexts/api_gateway -->
<g id="node5" class="node">
<title>#/domains/integration/subdomains/edge/boundedcontexts/api_gateway</title>
<g id="a_node5"><a xlink:title="Ocelot + Aggregators (Web &amp; Mobile Shopping)">
<polygon fill="white" stroke="black" points="169.32,-604.1 172.84,-604.3 176.33,-604.59 179.76,-604.98 183.13,-605.47 186.42,-606.05 189.63,-606.73 192.72,-607.5 195.71,-608.35 198.56,-609.29 201.28,-610.32 203.85,-611.43 206.27,-612.62 208.53,-613.88 210.62,-615.21 212.53,-616.61 214.26,-618.08 215.81,-619.6 217.17,-621.18 218.35,-622.82 219.34,-624.5 220.14,-626.22 220.75,-627.98 221.18,-629.77 221.42,-631.59 221.49,-633.44 221.38,-635.3 221.1,-637.17 220.66,-639.06 220.06,-640.94 219.31,-642.83 218.41,-644.7 217.38,-646.56 216.22,-648.41 214.94,-650.23 213.54,-652.02 212.03,-653.78 210.43,-655.5 208.74,-657.18 206.96,-658.82 205.11,-660.4 203.19,-661.92 201.21,-663.39 199.17,-664.79 197.09,-666.12 194.96,-667.38 192.79,-668.57 190.58,-669.68 188.35,-670.71 186.1,-671.65 183.82,-672.5 181.52,-673.27 179.21,-673.95 176.89,-674.53 174.56,-675.02 172.22,-675.41 169.88,-675.7 167.53,-675.9 165.18,-676 162.82,-676 160.47,-675.9 158.12,-675.7 155.78,-675.41 153.44,-675.02 151.11,-674.53 148.79,-673.95 146.48,-673.27 144.18,-672.5 141.9,-671.65 139.65,-670.71 137.42,-669.68 135.21,-668.57 133.04,-667.38 130.91,-666.12 128.83,-664.79 126.79,-663.39 124.81,-661.92 122.89,-660.4 121.04,-658.82 119.26,-657.18 117.57,-655.5 115.97,-653.78 114.46,-652.02 113.06,-650.23 111.78,-648.41 110.62,-646.56 109.59,-644.7 108.69,-642.83 107.94,-640.94 107.34,-639.06 106.9,-637.17 106.62,-635.3 106.51,-633.44 106.58,-631.59 106.82,-629.77 107.25,-627.98 107.86,-626.22 108.66,-624.5 109.65,-622.82 110.83,-621.18 112.19,-619.6 113.74,-618.08 115.47,-616.61 117.38,-615.21 119.47,-613.88 121.73,-612.62 124.15,-611.43 126.72,-610.32 129.44,-609.29 132.29,-608.35 135.28,-607.5 138.37,-606.73 141.58,-606.05 144.87,-605.47 148.24,-604.98 151.67,-604.59 155.16,-604.3 158.68,-604.1 162.22,-604 165.78,-604 169.32,-604.1"/>
<text xml:space="preserve" text-anchor="middle" x="164" y="-635.8" font-family="sans-serif" font-size="14.00">ApiGateway</text>
</a>
</g>
</g>
<!-- #/domains/integration/subdomains/edge/boundedcontexts/api_gateway&#45;&gt;#/domains/customer_experience/subdomains/promotions/boundedcontexts/marketing -->
<g id="edge1" class="edge">
<title>#/domains/integration/subdomains/edge/boundedcontexts/api_gateway&#45;&gt;#/domains/customer_experience/subdomains/promotions/boundedcontexts/marketing</title>
<path fill="none" stroke="black" d="M146.98,-604.96C136.19,-583.37 122.13,-555.26 110.56,-532.11"/>
<polygon fill="black" stroke="black" points="113.72,-530.6 106.11,-523.23 107.45,-533.74 113.72,-530.6"/>
<g id="a_edge1&#45;headlabel"><a xlink:title="open&#45;host&#45;service">
<text xml:space="preserve" text-anchor="middle" x="105.44" y="-518.87" font-family="sans-serif" font-size="10.00">OHS</text>
</a>
</g>
<g id="a_edge1&#45;taillabel"><a xlink:title="conformist">
<text xml:space="preserve" text-anchor="middle" x="146.98" y="-601.96" font-family="sans-serif" font-size="10.00">C</text>
</a>
</g>
</g>
<!-- #/domains/integration/subdomains/edge/boundedcontexts/api_gateway&#45;&gt;#/domains/customer_experience/subdomains/geodata/boundedcontexts/locations -->
<g id="edge3" class="edge">
<title>#/domains/integration/subdomains/edge/boundedcontexts/api_gateway&#45;&gt;#/domains/customer_experience/subdomains/geodata/boundedcontexts/locations</title>
<path fill="none" stroke="black" d="M181.25,-604.96C192.18,-583.37 206.43,-555.26 218.16,-532.11"/>
<polygon fill="black" stroke="black" points="221.26,-533.72 222.66,-523.22 215.02,-530.56 221.26,-533.72"/>
<g id="a_edge3&#45;headlabel"><a xlink:title="open&#45;host&#45;service">
<text xml:space="preserve" text-anchor="middle" x="223.34" y="-518.87" font-family="sans-serif" font-size="10.00">OHS</text>
</a>
</g>
<g id="a_edge3&#45;taillabel"><a xlink:title="conformist">
<text xml:space="preserve" text-anchor="middle" x="181.25" y="-601.96" font-family="sans-serif" font-size="10.00">C</text>
</a>
</g>
</g>
<!-- #/domains/commerce/subdomains/sales/boundedcontexts/ordering&#45;&gt;#/domains/customer_experience/subdomains/promotions/boundedcontexts/marketing -->
<g id="edge2" class="edge">
<title>#/domains/commerce/subdomains/sales/boundedcontexts/ordering&#45;&gt;#/domains/customer_experience/subdomains/promotions/boundedcontexts/marketing</title>
<path fill="none" stroke="black" d="M252.56,-362.46C220.35,-386.99 171.34,-424.31 135.36,-451.7"/>
<polygon fill="black" stroke="black" points="133.56,-448.67 127.72,-457.52 137.8,-454.24 133.56,-448.67"/>
<g id="a_edge2&#45;headlabel"><a xlink:title="open&#45;host&#45;service">
<text xml:space="preserve" text-anchor="middle" x="126.52" y="-455.43" font-family="sans-serif" font-size="10.00">OHS</text>
</a>
</g>
<g id="a_edge2&#45;taillabel"><a xlink:title="anti&#45;corruption&#45;layer">
<text xml:space="preserve" text-anchor="middle" x="252.56" y="-359.46" font-family="sans-serif" font-size="10.00">ACL</text>
</a>
</g>
</g>
<!-- #/domains/commerce/subdomains/sales/boundedcontexts/ordering&#45;&gt;#/domains/customer_experience/subdomains/geodata/boundedcontexts/locations -->
<g id="edge4" class="edge">
<title>#/domains/commerce/subdomains/sales/boundedcontexts/ordering&#45;&gt;#/domains/customer_experience/subdomains/geodata/boundedcontexts/locations</title>
<path fill="none" stroke="black" d="M275.47,-371.34C269.11,-392.06 260.94,-418.72 254.04,-441.21"/>
<polygon fill="black" stroke="black" points="250.7,-440.18 251.11,-450.76 257.39,-442.23 250.7,-440.18"/>
<g id="a_edge4&#45;headlabel"><a xlink:title="open&#45;host&#45;service">
<text xml:space="preserve" text-anchor="middle" x="250.67" y="-449.21" font-family="sans-serif" font-size="10.00">OHS</text>
</a>
</g>
<g id="a_edge4&#45;taillabel"><a xlink:title="anti&#45;corruption&#45;layer">
<text xml:space="preserve" text-anchor="middle" x="275.47" y="-368.34" font-family="sans-serif" font-size="10.00">ACL</text>
</a>
</g>
</g>
<!-- #/domains/commerce/subdomains/payments/boundedcontexts/payment -->
<g id="node7" class="node">
<title>#/domains/commerce/subdomains/payments/boundedcontexts/payment</title>
<g id="a_node7"><a xlink:title="Payment.API (sample)">
<polygon fill="white" stroke="black" points="216.32,-156.1 219.84,-156.3 223.33,-156.59 226.76,-156.98 230.13,-157.47 233.42,-158.05 236.63,-158.73 239.72,-159.5 242.71,-160.35 245.56,-161.29 248.28,-162.32 250.85,-163.43 253.27,-164.62 255.53,-165.88 257.62,-167.21 259.53,-168.61 261.26,-170.08 262.81,-171.6 264.17,-173.18 265.35,-174.82 266.34,-176.5 267.14,-178.22 267.75,-179.98 268.18,-181.77 268.42,-183.59 268.49,-185.44 268.38,-187.3 268.1,-189.17 267.66,-191.06 267.06,-192.94 266.31,-194.83 265.41,-196.7 264.38,-198.56 263.22,-200.41 261.94,-202.23 260.54,-204.02 259.03,-205.78 257.43,-207.5 255.74,-209.18 253.96,-210.82 252.11,-212.4 250.19,-213.92 248.21,-215.39 246.17,-216.79 244.09,-218.12 241.96,-219.38 239.79,-220.57 237.58,-221.68 235.35,-222.71 233.1,-223.65 230.82,-224.5 228.52,-225.27 226.21,-225.95 223.89,-226.53 221.56,-227.02 219.22,-227.41 216.88,-227.7 214.53,-227.9 212.18,-228 209.82,-228 207.47,-227.9 205.12,-227.7 202.78,-227.41 200.44,-227.02 198.11,-226.53 195.79,-225.95 193.48,-225.27 191.18,-224.5 188.9,-223.65 186.65,-222.71 184.42,-221.68 182.21,-220.57 180.04,-219.38 177.91,-218.12 175.83,-216.79 173.79,-215.39 171.81,-213.92 169.89,-212.4 168.04,-210.82 166.26,-209.18 164.57,-207.5 162.97,-205.78 161.46,-204.02 160.06,-202.23 158.78,-200.41 157.62,-198.56 156.59,-196.7 155.69,-194.83 154.94,-192.94 154.34,-191.06 153.9,-189.17 153.62,-187.3 153.51,-185.44 153.58,-183.59 153.82,-181.77 154.25,-179.98 154.86,-178.22 155.66,-176.5 156.65,-174.82 157.83,-173.18 159.19,-171.6 160.74,-170.08 162.47,-168.61 164.38,-167.21 166.47,-165.88 168.73,-164.62 171.15,-163.43 173.72,-162.32 176.44,-161.29 179.29,-160.35 182.28,-159.5 185.37,-158.73 188.58,-158.05 191.87,-157.47 195.24,-156.98 198.67,-156.59 202.16,-156.3 205.68,-156.1 209.22,-156 212.78,-156 216.32,-156.1"/>
<text xml:space="preserve" text-anchor="middle" x="211" y="-187.8" font-family="sans-serif" font-size="14.00">Payment</text>
</a>
</g>
</g>
<!-- #/domains/commerce/subdomains/sales/boundedcontexts/ordering&#45;&gt;#/domains/commerce/subdomains/payments/boundedcontexts/payment -->
<g id="edge6" class="edge">
<title>#/domains/commerce/subdomains/sales/boundedcontexts/ordering&#45;&gt;#/domains/commerce/subdomains/payments/boundedcontexts/payment</title>
<path fill="none" stroke="black" d="M268.04,-300.99C257.68,-281.39 244.57,-256.56 233.53,-235.66"/>
<polygon fill="black" stroke="black" points="236.77,-234.3 229.01,-227.1 230.58,-237.57 236.77,-234.3"/>
<g id="a_edge6&#45;headlabel"><a xlink:title="open&#45;host&#45;service">
<text xml:space="preserve" text-anchor="middle" x="228.3" y="-222.76" font-family="sans-serif" font-size="10.00">OHS</text>
</a>
</g>
<g id="a_edge6&#45;taillabel"><a xlink:title="customer&#45;supplier">
<text xml:space="preserve" text-anchor="middle" x="268.04" y="-297.99" font-family="sans-serif" font-size="10.00">C/s</text>
</a>
</g>
</g>
<!-- #/domains/commerce/subdomains/sales/boundedcontexts/ordering&#45;&gt;#/domains/commerce/subdomains/payments/boundedcontexts/payment -->
<g id="edge12" class="edge">
<title>#/domains/commerce/subdomains/sales/boundedcontexts/ordering&#45;&gt;#/domains/commerce/subdomains/payments/boundedcontexts/payment</title>
<path fill="none" stroke="black" d="M291.24,-300.26C283.99,-277.75 268.49,-248.58 251.91,-226.35"/>
<polygon fill="black" stroke="black" points="254.88,-224.47 245.95,-218.78 249.38,-228.8 254.88,-224.47"/>
<g id="a_edge12&#45;headlabel"><a xlink:title="published&#45;language">
<text xml:space="preserve" text-anchor="middle" x="245.01" y="-214.59" font-family="sans-serif" font-size="10.00">PL</text>
</a>
</g>
<g id="a_edge12&#45;taillabel"><a xlink:title="conformist">
<text xml:space="preserve" text-anchor="middle" x="291.24" y="-297.26" font-family="sans-serif" font-size="10.00">C</text>
</a>
</g>
</g>
<!-- #/domains/commerce/subdomains/shopping/boundedcontexts/basket -->
<g id="node8" class="node">
<title>#/domains/commerce/subdomains/shopping/boundedcontexts/basket</title>
<g id="a_node8"><a xlink:title="Basket.API (Redis)">
<polygon fill="white" stroke="black" points="367.32,-156.1 370.84,-156.3 374.33,-156.59 377.76,-156.98 381.13,-157.47 384.42,-158.05 387.63,-158.73 390.72,-159.5 393.71,-160.35 396.56,-161.29 399.28,-162.32 401.85,-163.43 404.27,-164.62 406.53,-165.88 408.62,-167.21 410.53,-168.61 412.26,-170.08 413.81,-171.6 415.17,-173.18 416.35,-174.82 417.34,-176.5 418.14,-178.22 418.75,-179.98 419.18,-181.77 419.42,-183.59 419.49,-185.44 419.38,-187.3 419.1,-189.17 418.66,-191.06 418.06,-192.94 417.31,-194.83 416.41,-196.7 415.38,-198.56 414.22,-200.41 412.94,-202.23 411.54,-204.02 410.03,-205.78 408.43,-207.5 406.74,-209.18 404.96,-210.82 403.11,-212.4 401.19,-213.92 399.21,-215.39 397.17,-216.79 395.09,-218.12 392.96,-219.38 390.79,-220.57 388.58,-221.68 386.35,-222.71 384.1,-223.65 381.82,-224.5 379.52,-225.27 377.21,-225.95 374.89,-226.53 372.56,-227.02 370.22,-227.41 367.88,-227.7 365.53,-227.9 363.18,-228 360.82,-228 358.47,-227.9 356.12,-227.7 353.78,-227.41 351.44,-227.02 349.11,-226.53 346.79,-225.95 344.48,-225.27 342.18,-224.5 339.9,-223.65 337.65,-222.71 335.42,-221.68 333.21,-220.57 331.04,-219.38 328.91,-218.12 326.83,-216.79 324.79,-215.39 322.81,-213.92 320.89,-212.4 319.04,-210.82 317.26,-209.18 315.57,-207.5 313.97,-205.78 312.46,-204.02 311.06,-202.23 309.78,-200.41 308.62,-198.56 307.59,-196.7 306.69,-194.83 305.94,-192.94 305.34,-191.06 304.9,-189.17 304.62,-187.3 304.51,-185.44 304.58,-183.59 304.82,-181.77 305.25,-179.98 305.86,-178.22 306.66,-176.5 307.65,-174.82 308.83,-173.18 310.19,-171.6 311.74,-170.08 313.47,-168.61 315.38,-167.21 317.47,-165.88 319.73,-164.62 322.15,-163.43 324.72,-162.32 327.44,-161.29 330.29,-160.35 333.28,-159.5 336.37,-158.73 339.58,-158.05 342.87,-157.47 346.24,-156.98 349.67,-156.59 353.16,-156.3 356.68,-156.1 360.22,-156 363.78,-156 367.32,-156.1"/>
<text xml:space="preserve" text-anchor="middle" x="362" y="-187.8" font-family="sans-serif" font-size="14.00">Basket</text>
</a>
</g>
</g>
<!-- #/domains/commerce/subdomains/sales/boundedcontexts/ordering&#45;&gt;#/domains/commerce/subdomains/shopping/boundedcontexts/basket -->
<g id="edge8" class="edge">
<title>#/domains/commerce/subdomains/sales/boundedcontexts/ordering&#45;&gt;#/domains/commerce/subdomains/shopping/boundedcontexts/basket</title>
<path fill="none" stroke="black" d="M314.54,-303.13C326.96,-284.04 340.52,-259.45 350.41,-238.35"/>
<polygon fill="black" stroke="black" points="353.54,-239.93 354.47,-229.38 347.16,-237.05 353.54,-239.93"/>
<g id="a_edge8&#45;headlabel"><a xlink:title="open&#45;host&#45;service">
<text xml:space="preserve" text-anchor="middle" x="355.09" y="-225" font-family="sans-serif" font-size="10.00">OHS</text>
</a>
</g>
<g id="a_edge8&#45;taillabel"><a xlink:title="anti&#45;corruption&#45;layer">
<text xml:space="preserve" text-anchor="middle" x="314.54" y="-300.13" font-family="sans-serif" font-size="10.00">ACL</text>
</a>
</g>
</g>
<!-- #/domains/identity&amp;access/subdomains/auth/boundedcontexts/identity -->
<g id="node10" class="node">
<title>#/domains/identity&amp;access/subdomains/auth/boundedcontexts/identity</title>
<g id="a_node10"><a xlink:title="Identity.API">
<polygon fill="white" stroke="black" points="521.32,-156.1 524.84,-156.3 528.33,-156.59 531.76,-156.98 535.13,-157.47 538.42,-158.05 541.63,-158.73 544.72,-159.5 547.71,-160.35 550.56,-161.29 553.28,-162.32 555.85,-163.43 558.27,-164.62 560.53,-165.88 562.62,-167.21 564.53,-168.61 566.26,-170.08 567.81,-171.6 569.17,-173.18 570.35,-174.82 571.34,-176.5 572.14,-178.22 572.75,-179.98 573.18,-181.77 573.42,-183.59 573.49,-185.44 573.38,-187.3 573.1,-189.17 572.66,-191.06 572.06,-192.94 571.31,-194.83 570.41,-196.7 569.38,-198.56 568.22,-200.41 566.94,-202.23 565.54,-204.02 564.03,-205.78 562.43,-207.5 560.74,-209.18 558.96,-210.82 557.11,-212.4 555.19,-213.92 553.21,-215.39 551.17,-216.79 549.09,-218.12 546.96,-219.38 544.79,-220.57 542.58,-221.68 540.35,-222.71 538.1,-223.65 535.82,-224.5 533.52,-225.27 531.21,-225.95 528.89,-226.53 526.56,-227.02 524.22,-227.41 521.88,-227.7 519.53,-227.9 517.18,-228 514.82,-228 512.47,-227.9 510.12,-227.7 507.78,-227.41 505.44,-227.02 503.11,-226.53 500.79,-225.95 498.48,-225.27 496.18,-224.5 493.9,-223.65 491.65,-222.71 489.42,-221.68 487.21,-220.57 485.04,-219.38 482.91,-218.12 480.83,-216.79 478.79,-215.39 476.81,-213.92 474.89,-212.4 473.04,-210.82 471.26,-209.18 469.57,-207.5 467.97,-205.78 466.46,-204.02 465.06,-202.23 463.78,-200.41 462.62,-198.56 461.59,-196.7 460.69,-194.83 459.94,-192.94 459.34,-191.06 458.9,-189.17 458.62,-187.3 458.51,-185.44 458.58,-183.59 458.82,-181.77 459.25,-179.98 459.86,-178.22 460.66,-176.5 461.65,-174.82 462.83,-173.18 464.19,-171.6 465.74,-170.08 467.47,-168.61 469.38,-167.21 471.47,-165.88 473.73,-164.62 476.15,-163.43 478.72,-162.32 481.44,-161.29 484.29,-160.35 487.28,-159.5 490.37,-158.73 493.58,-158.05 496.87,-157.47 500.24,-156.98 503.67,-156.59 507.16,-156.3 510.68,-156.1 514.22,-156 517.78,-156 521.32,-156.1"/>
<text xml:space="preserve" text-anchor="middle" x="516" y="-187.8" font-family="sans-serif" font-size="14.00">Identity</text>
</a>
</g>
</g>
<!-- #/domains/commerce/subdomains/sales/boundedcontexts/ordering&#45;&gt;#/domains/identity&amp;access/subdomains/auth/boundedcontexts/identity -->
<g id="edge11" class="edge">
<title>#/domains/commerce/subdomains/sales/boundedcontexts/ordering&#45;&gt;#/domains/identity&amp;access/subdomains/auth/boundedcontexts/identity</title>
<path fill="none" stroke="black" d="M342.97,-323.12C372.43,-315.19 407.98,-302.71 436,-284 456.11,-270.57 474.29,-250.85 488.22,-233.2"/>
<polygon fill="black" stroke="black" points="490.89,-235.47 494.19,-225.41 485.33,-231.22 490.89,-235.47"/>
<g id="a_edge11&#45;headlabel"><a xlink:title="open&#45;host&#45;service">
<text xml:space="preserve" text-anchor="middle" x="495.11" y="-221.2" font-family="sans-serif" font-size="10.00">OHS</text>
</a>
</g>
<g id="a_edge11&#45;taillabel"><a xlink:title="anti&#45;corruption&#45;layer">
<text xml:space="preserve" text-anchor="middle" x="342.97" y="-320.12" font-family="sans-serif" font-size="10.00">ACL</text>
</a>
</g>
</g>
<!-- #/domains/commerce/subdomains/payments/boundedcontexts/payment&#45;&gt;#/domains/commerce/subdomains/sales/boundedcontexts/ordering -->
<g id="edge7" class="edge">
<title>#/domains/commerce/subdomains/payments/boundedcontexts/payment&#45;&gt;#/domains/commerce/subdomains/sales/boundedcontexts/ordering</title>
<path fill="none" stroke="black" d="M205.83,-227.97C212.63,-248.95 226.53,-275.63 241.79,-297.11"/>
<polygon fill="black" stroke="black" points="238.93,-299.14 247.72,-305.05 244.54,-294.95 238.93,-299.14"/>
<g id="a_edge7&#45;headlabel"><a xlink:title="published&#45;language">
<text xml:space="preserve" text-anchor="middle" x="248.63" y="-303.26" font-family="sans-serif" font-size="10.00">PL</text>
</a>
</g>
<g id="a_edge7&#45;taillabel"><a xlink:title="conformist">
<text xml:space="preserve" text-anchor="middle" x="205.83" y="-224.97" font-family="sans-serif" font-size="10.00">C</text>
</a>
</g>
</g>
<!-- #/domains/commerce/subdomains/shopping/boundedcontexts/basket&#45;&gt;#/domains/commerce/subdomains/sales/boundedcontexts/ordering -->
<g id="edge10" class="edge">
<title>#/domains/commerce/subdomains/shopping/boundedcontexts/basket&#45;&gt;#/domains/commerce/subdomains/sales/boundedcontexts/ordering</title>
<path fill="none" stroke="black" d="M335.27,-222.11C322.3,-241.67 307.79,-267.84 297.4,-290.05"/>
<polygon fill="black" stroke="black" points="294.34,-288.33 293.42,-298.88 300.72,-291.2 294.34,-288.33"/>
<g id="a_edge10&#45;headlabel"><a xlink:title="published&#45;language">
<text xml:space="preserve" text-anchor="middle" x="292.8" y="-297.26" font-family="sans-serif" font-size="10.00">PL</text>
</a>
</g>
<g id="a_edge10&#45;taillabel"><a xlink:title="conformist">
<text xml:space="preserve" text-anchor="middle" x="335.27" y="-219.11" font-family="sans-serif" font-size="10.00">C</text>
</a>
</g>
</g>
<!-- #/domains/commerce/subdomains/cataloging/boundedcontexts/catalog -->
<g id="node9" class="node">
<title>#/domains/commerce/subdomains/cataloging/boundedcontexts/catalog</title>
<g id="a_node9"><a xlink:title="Catalog.API">
<polygon fill="white" stroke="black" points="367.32,-32.1 370.84,-32.3 374.33,-32.59 377.76,-32.98 381.13,-33.47 384.42,-34.05 387.63,-34.73 390.72,-35.5 393.71,-36.35 396.56,-37.29 399.28,-38.32 401.85,-39.43 404.27,-40.62 406.53,-41.88 408.62,-43.21 410.53,-44.61 412.26,-46.08 413.81,-47.6 415.17,-49.18 416.35,-50.82 417.34,-52.5 418.14,-54.22 418.75,-55.98 419.18,-57.77 419.42,-59.59 419.49,-61.44 419.38,-63.3 419.1,-65.17 418.66,-67.06 418.06,-68.94 417.31,-70.83 416.41,-72.7 415.38,-74.56 414.22,-76.41 412.94,-78.23 411.54,-80.02 410.03,-81.78 408.43,-83.5 406.74,-85.18 404.96,-86.82 403.11,-88.4 401.19,-89.92 399.21,-91.39 397.17,-92.79 395.09,-94.12 392.96,-95.38 390.79,-96.57 388.58,-97.68 386.35,-98.71 384.1,-99.65 381.82,-100.5 379.52,-101.27 377.21,-101.95 374.89,-102.53 372.56,-103.02 370.22,-103.41 367.88,-103.7 365.53,-103.9 363.18,-104 360.82,-104 358.47,-103.9 356.12,-103.7 353.78,-103.41 351.44,-103.02 349.11,-102.53 346.79,-101.95 344.48,-101.27 342.18,-100.5 339.9,-99.65 337.65,-98.71 335.42,-97.68 333.21,-96.57 331.04,-95.38 328.91,-94.12 326.83,-92.79 324.79,-91.39 322.81,-89.92 320.89,-88.4 319.04,-86.82 317.26,-85.18 315.57,-83.5 313.97,-81.78 312.46,-80.02 311.06,-78.23 309.78,-76.41 308.62,-74.56 307.59,-72.7 306.69,-70.83 305.94,-68.94 305.34,-67.06 304.9,-65.17 304.62,-63.3 304.51,-61.44 304.58,-59.59 304.82,-57.77 305.25,-55.98 305.86,-54.22 306.66,-52.5 307.65,-50.82 308.83,-49.18 310.19,-47.6 311.74,-46.08 313.47,-44.61 315.38,-43.21 317.47,-41.88 319.73,-40.62 322.15,-39.43 324.72,-38.32 327.44,-37.29 330.29,-36.35 333.28,-35.5 336.37,-34.73 339.58,-34.05 342.87,-33.47 346.24,-32.98 349.67,-32.59 353.16,-32.3 356.68,-32.1 360.22,-32 363.78,-32 367.32,-32.1"/>
<text xml:space="preserve" text-anchor="middle" x="362" y="-63.8" font-family="sans-serif" font-size="14.00">Catalog</text>
</a>
</g>
</g>
<!-- #/domains/commerce/subdomains/shopping/boundedcontexts/basket&#45;&gt;#/domains/commerce/subdomains/cataloging/boundedcontexts/catalog -->
<g id="edge9" class="edge">
<title>#/domains/commerce/subdomains/shopping/boundedcontexts/basket&#45;&gt;#/domains/commerce/subdomains/cataloging/boundedcontexts/catalog</title>
<path fill="none" stroke="black" d="M362,-156.04C362,-143.41 362,-128.94 362,-115.47"/>
<polygon fill="black" stroke="black" points="365.5,-115.48 362,-105.48 358.5,-115.48 365.5,-115.48"/>
<g id="a_edge9&#45;headlabel"><a xlink:title="published&#45;language">
<text xml:space="preserve" text-anchor="middle" x="362" y="-100.97" font-family="sans-serif" font-size="10.00">PL</text>
</a>
</g>
<g id="a_edge9&#45;taillabel"><a xlink:title="conformist">
<text xml:space="preserve" text-anchor="middle" x="362" y="-153.04" font-family="sans-serif" font-size="10.00">C</text>
</a>
</g>
</g>
</g>
</svg>
