<?xml version="1.0" encoding="UTF-8" standalone="no"?>
<?xml-stylesheet href="data:text/css,.graph%20text%20%7B%0A%09font-family%3A%20sans-serif%3B%0A%09stroke%3A%20white%3B%0A%09paint-order%3A%20stroke%3B%0A%09stroke-width%3A%203%3B%0A%09stroke-linecap%3A%20square%3B%0A%7D%0A%0A.namespace%20polygon%20%7B%0A%09fill-opacity%3A%200.2%3B%0A%09stroke%3A%20none%3B%0A%7D%0A" type="text/css"?>
<!DOCTYPE svg PUBLIC "-//W3C//DTD SVG 1.1//EN"
 "http://www.w3.org/Graphics/SVG/1.1/DTD/svg11.dtd">
<!-- Generated by graphviz version 13.1.2 (0)
 -->
<!-- Pages: 1 -->
<svg width="910pt" height="972pt"
 viewBox="0.00 0.00 910.00 972.00" xmlns="http://www.w3.org/2000/svg" xmlns:xlink="http://www.w3.org/1999/xlink">
<g id="graph0" class="graph" transform="scale(1 1) rotate(0) translate(4 968)">
<polygon fill="white" stroke="none" points="-4,4 -4,-968 906,-968 906,4 -4,4"/>
<g id="clust1" class="cluster namespace">
<title>e_shop_on_containers</title>
<polygon fill="lightgrey" stroke="lightgrey" points="8,-8 8,-956 894,-956 894,-8 8,-8"/>
<text xml:space="preserve" text-anchor="middle" x="451" y="-943" font-family="sans-serif" font-size="10.00">eShopOnContainers</text>
</g>
<g id="clust2" class="cluster namespace">
<title>#/domains/commerce</title>
<polygon fill="lightgrey" stroke="lightgrey" points="336,-272 336,-672 840,-672 840,-272 336,-272"/>
<text xml:space="preserve" text-anchor="middle" x="588" y="-659" font-family="sans-serif" font-size="10.00">Commerce</text>
</g>
<g id="clust3" class="cluster namespace">
<title>#/domains/commerce/subdomains/shopping</title>
<polygon fill="lightgrey" stroke="lightgrey" points="467,-476 467,-632 689,-632 689,-476 467,-476"/>
<text xml:space="preserve" text-anchor="middle" x="578" y="-619" font-family="sans-serif" font-size="10.00">Shopping</text>
</g>
<g id="clust4" class="cluster namespace">
<title>#/domains/commerce/subdomains/shopping/boundedcontexts/basket</title>
<polygon fill="lightgrey" stroke="lightgrey" points="487,-496 487,-592 669,-592 669,-496 487,-496"/>
<text xml:space="preserve" text-anchor="middle" x="578" y="-579" font-family="sans-serif" font-size="10.00">Basket</text>
</g>
<g id="clust5" class="cluster namespace">
<title>#/domains/commerce/subdomains/sales</title>
<polygon fill="lightgrey" stroke="lightgrey" points="356,-292 356,-448 570,-448 570,-292 356,-292"/>
<text xml:space="preserve" text-anchor="middle" x="463" y="-435" font-family="sans-serif" font-size="10.00">Sales</text>
</g>
<g id="clust6" class="cluster namespace">
<title>#/domains/commerce/subdomains/sales/boundedcontexts/ordering</title>
<polygon fill="lightgrey" stroke="lightgrey" points="376,-312 376,-408 550,-408 550,-312 376,-312"/>
<text xml:space="preserve" text-anchor="middle" x="463" y="-395" font-family="sans-serif" font-size="10.00">Ordering</text>
</g>
<g id="clust7" class="cluster namespace">
<title>#/domains/commerce/subdomains/cataloging</title>
<polygon fill="lightgrey" stroke="lightgrey" points="590,-292 590,-448 820,-448 820,-292 590,-292"/>
<text xml:space="preserve" text-anchor="middle" x="705" y="-435" font-family="sans-serif" font-size="10.00">Cataloging</text>
</g>
<g id="clust8" class="cluster namespace">
<title>#/domains/commerce/subdomains/cataloging/boundedcontexts/catalog</title>
<polygon fill="lightgrey" stroke="lightgrey" points="610,-312 610,-408 800,-408 800,-312 610,-312"/>
<text xml:space="preserve" text-anchor="middle" x="705" y="-395" font-family="sans-serif" font-size="10.00">Catalog</text>
</g>
<g id="clust9" class="cluster namespace">
<title>#/domains/integration</title>
<polygon fill="lightgrey" stroke="lightgrey" points="266,-700 266,-916 830,-916 830,-700 266,-700"/>
<text xml:space="preserve" text-anchor="middle" x="548" y="-903" font-family="sans-serif" font-size="10.00">Integration</text>
</g>
<g id="clust10" class="cluster namespace">
<title>#/domains/integration/subdomains/edge</title>
<polygon fill="lightgrey" stroke="lightgrey" points="286,-720 286,-876 810,-876 810,-720 286,-720"/>
<text xml:space="preserve" text-anchor="middle" x="548" y="-863" font-family="sans-serif" font-size="10.00">Edge</text>
</g>
<g id="clust11" class="cluster namespace">
<title>#/domains/integration/subdomains/edge/boundedcontexts/api_gateway</title>
<polygon fill="lightgrey" stroke="lightgrey" points="306,-740 306,-836 790,-836 790,-740 306,-740"/>
<text xml:space="preserve" text-anchor="middle" x="548" y="-823" font-family="sans-serif" font-size="10.00">ApiGateway</text>
</g>
<g id="clust12" class="cluster namespace">
<title>#/domains/identity&amp;access</title>
<polygon fill="lightgrey" stroke="lightgrey" points="28,-28 28,-244 298,-244 298,-28 28,-28"/>
<text xml:space="preserve" text-anchor="middle" x="163" y="-231" font-family="sans-serif" font-size="10.00">Identity&amp;Access</text>
</g>
<g id="clust13" class="cluster namespace">
<title>#/domains/identity&amp;access/subdomains/auth</title>
<polygon fill="lightgrey" stroke="lightgrey" points="48,-48 48,-204 278,-204 278,-48 48,-48"/>
<text xml:space="preserve" text-anchor="middle" x="163" y="-191" font-family="sans-serif" font-size="10.00">Auth</text>
</g>
<g id="clust14" class="cluster namespace">
<title>#/domains/identity&amp;access/subdomains/auth/boundedcontexts/identity</title>
<polygon fill="lightgrey" stroke="lightgrey" points="68,-68 68,-164 258,-164 258,-68 68,-68"/>
<text xml:space="preserve" text-anchor="middle" x="163" y="-151" font-family="sans-serif" font-size="10.00">Identity</text>
</g>
<g id="clust15" class="cluster namespace">
<title>#/domains/customer_experience</title>
<polygon fill="lightgrey" stroke="lightgrey" points="318,-28 318,-244 874,-244 874,-28 318,-28"/>
<text xml:space="preserve" text-anchor="middle" x="596" y="-231" font-family="sans-serif" font-size="10.00">CustomerExperience</text>
</g>
<g id="clust16" class="cluster namespace">
<title>#/domains/customer_experience/subdomains/promotions</title>
<polygon fill="lightgrey" stroke="lightgrey" points="338,-48 338,-204 588,-204 588,-48 338,-48"/>
<text xml:space="preserve" text-anchor="middle" x="463" y="-191" font-family="sans-serif" font-size="10.00">Promotions</text>
</g>
<g id="clust17" class="cluster namespace">
<title>#/domains/customer_experience/subdomains/promotions/boundedcontexts/marketing</title>
<polygon fill="lightgrey" stroke="lightgrey" points="358,-68 358,-164 568,-164 568,-68 358,-68"/>
<text xml:space="preserve" text-anchor="middle" x="463" y="-151" font-family="sans-serif" font-size="10.00">Marketing</text>
</g>
<g id="clust18" class="cluster namespace">
<title>#/domains/customer_experience/subdomains/geodata</title>
<polygon fill="lightgrey" stroke="lightgrey" points="608,-48 608,-204 854,-204 854,-48 608,-48"/>
<text xml:space="preserve" text-anchor="middle" x="731" y="-191" font-family="sans-serif" font-size="10.00">Geodata</text>
</g>
<g id="clust19" class="cluster namespace">
<title>#/domains/customer_experience/subdomains/geodata/boundedcontexts/locations</title>
<polygon fill="lightgrey" stroke="lightgrey" points="628,-68 628,-164 834,-164 834,-68 628,-68"/>
<text xml:space="preserve" text-anchor="middle" x="731" y="-151" font-family="sans-serif" font-size="10.00">Locations</text>
</g>
<!-- #/domains/commerce/subdomains/shopping/boundedcontexts/basket/services/basket_service -->
<g id="node1" class="node">
<title>#/domains/commerce/subdomains/shopping/boundedcontexts/basket/services/basket_service</title>
<g id="a_node1"><a xlink:title="Basket CRUD, pricing snapshot">
<polygon fill="white" stroke="black" points="584.53,-516.05 588.86,-516.15 593.13,-516.3 597.35,-516.49 601.49,-516.74 605.53,-517.03 609.46,-517.36 613.27,-517.75 616.93,-518.18 620.43,-518.65 623.77,-519.16 626.93,-519.71 629.9,-520.31 632.67,-520.94 635.23,-521.61 637.58,-522.31 639.71,-523.04 641.61,-523.8 643.29,-524.59 644.73,-525.41 645.94,-526.25 646.92,-527.11 647.67,-527.99 648.2,-528.89 648.5,-529.8 648.58,-530.72 648.45,-531.65 648.11,-532.59 647.56,-533.53 646.83,-534.47 645.9,-535.41 644.81,-536.35 643.54,-537.28 642.11,-538.2 640.54,-539.11 638.82,-540.01 636.98,-540.89 635.01,-541.75 632.93,-542.59 630.75,-543.41 628.48,-544.2 626.12,-544.96 623.69,-545.69 621.18,-546.39 618.62,-547.06 616.01,-547.69 613.34,-548.29 610.64,-548.84 607.9,-549.35 605.13,-549.82 602.33,-550.25 599.51,-550.64 596.68,-550.97 593.83,-551.26 590.97,-551.51 588.09,-551.7 585.21,-551.85 582.33,-551.95 579.44,-552 576.56,-552 573.67,-551.95 570.79,-551.85 567.91,-551.7 565.03,-551.51 562.17,-551.26 559.32,-550.97 556.49,-550.64 553.67,-550.25 550.87,-549.82 548.1,-549.35 545.36,-548.84 542.66,-548.29 539.99,-547.69 537.38,-547.06 534.82,-546.39 532.31,-545.69 529.88,-544.96 527.52,-544.2 525.25,-543.41 523.07,-542.59 520.99,-541.75 519.02,-540.89 517.18,-540.01 515.46,-539.11 513.89,-538.2 512.46,-537.28 511.19,-536.35 510.1,-535.41 509.17,-534.47 508.44,-533.53 507.89,-532.59 507.55,-531.65 507.42,-530.72 507.5,-529.8 507.8,-528.89 508.33,-527.99 509.08,-527.11 510.06,-526.25 511.27,-525.41 512.71,-524.59 514.39,-523.8 516.29,-523.04 518.42,-522.31 520.77,-521.61 523.33,-520.94 526.1,-520.31 529.07,-519.71 532.23,-519.16 535.57,-518.65 539.07,-518.18 542.73,-517.75 546.54,-517.36 550.47,-517.03 554.51,-516.74 558.65,-516.49 562.87,-516.3 567.14,-516.15 571.47,-516.05 575.82,-516 580.18,-516 584.53,-516.05"/>
<text xml:space="preserve" text-anchor="middle" x="578" y="-529.8" font-family="sans-serif" font-size="14.00">BasketService</text>
</a>
</g>
</g>
<!-- #/domains/commerce/subdomains/sales/boundedcontexts/ordering/services/ordering_app -->
<g id="node2" class="node">
<title>#/domains/commerce/subdomains/sales/boundedcontexts/ordering/services/ordering_app</title>
<g id="a_node2"><a xlink:title="Ordering.API (rich DDD + domain events)">
<polygon fill="white" stroke="black" points="469.16,-332.05 473.24,-332.15 477.28,-332.3 481.26,-332.49 485.16,-332.74 488.98,-333.03 492.68,-333.36 496.27,-333.75 499.73,-334.18 503.03,-334.65 506.18,-335.16 509.16,-335.71 511.97,-336.31 514.58,-336.94 517,-337.61 519.21,-338.31 521.22,-339.04 523.01,-339.8 524.59,-340.59 525.96,-341.41 527.1,-342.25 528.03,-343.11 528.73,-343.99 529.23,-344.89 529.51,-345.8 529.59,-346.72 529.46,-347.65 529.14,-348.59 528.63,-349.53 527.93,-350.47 527.06,-351.41 526.03,-352.35 524.83,-353.28 523.49,-354.2 522,-355.11 520.38,-356.01 518.64,-356.89 516.78,-357.75 514.82,-358.59 512.77,-359.41 510.62,-360.2 508.4,-360.96 506.1,-361.69 503.74,-362.39 501.32,-363.06 498.86,-363.69 496.34,-364.29 493.79,-364.84 491.21,-365.35 488.59,-365.82 485.96,-366.25 483.3,-366.64 480.62,-366.97 477.93,-367.26 475.23,-367.51 472.52,-367.7 469.81,-367.85 467.09,-367.95 464.36,-368 461.64,-368 458.91,-367.95 456.19,-367.85 453.48,-367.7 450.77,-367.51 448.07,-367.26 445.38,-366.97 442.7,-366.64 440.04,-366.25 437.41,-365.82 434.79,-365.35 432.21,-364.84 429.66,-364.29 427.14,-363.69 424.68,-363.06 422.26,-362.39 419.9,-361.69 417.6,-360.96 415.38,-360.2 413.23,-359.41 411.18,-358.59 409.22,-357.75 407.36,-356.89 405.62,-356.01 404,-355.11 402.51,-354.2 401.17,-353.28 399.97,-352.35 398.94,-351.41 398.07,-350.47 397.37,-349.53 396.86,-348.59 396.54,-347.65 396.41,-346.72 396.49,-345.8 396.77,-344.89 397.27,-343.99 397.97,-343.11 398.9,-342.25 400.04,-341.41 401.41,-340.59 402.99,-339.8 404.78,-339.04 406.79,-338.31 409,-337.61 411.42,-336.94 414.03,-336.31 416.84,-335.71 419.82,-335.16 422.97,-334.65 426.27,-334.18 429.73,-333.75 433.32,-333.36 437.02,-333.03 440.84,-332.74 444.74,-332.49 448.72,-332.3 452.76,-332.15 456.84,-332.05 460.94,-332 465.06,-332 469.16,-332.05"/>
<text xml:space="preserve" text-anchor="middle" x="463" y="-345.8" font-family="sans-serif" font-size="14.00">OrderingApp</text>
</a>
</g>
</g>
<!-- #/domains/commerce/subdomains/shopping/boundedcontexts/basket/services/basket_service&#45;&gt;#/domains/commerce/subdomains/sales/boundedcontexts/ordering/services/ordering_app -->
<g id="edge5" class="edge">
<title>#/domains/commerce/subdomains/shopping/boundedcontexts/basket/services/basket_service&#45;&gt;#/domains/commerce/subdomains/sales/boundedcontexts/ordering/services/ordering_app</title>
<path fill="none" stroke="black" d="M531.84,-518.81C507.56,-508.75 479.89,-492.59 465.35,-468 449.47,-441.12 451.81,-404.36 456.21,-379.26"/>
<polygon fill="black" stroke="black" points="459.58,-380.27 458.1,-369.78 452.71,-378.9 459.58,-380.27"/>
<text xml:space="preserve" text-anchor="middle" x="491.18" y="-459" font-family="sans-serif" font-size="10.00">OrderStarted</text>
<g id="a_edge5&#45;headlabel"><a xlink:title="published&#45;language">
<text xml:space="preserve" text-anchor="middle" x="458.4" y="-365.3" font-family="sans-serif" font-size="10.00">PL</text>
</a>
</g>
<g id="a_edge5&#45;taillabel"><a xlink:title="conformist">
<text xml:space="preserve" text-anchor="middle" x="531.84" y="-515.81" font-family="sans-serif" font-size="10.00">C</text>
</a>
</g>
</g>
<!-- #/domains/commerce/subdomains/cataloging/boundedcontexts/catalog/services/catalog_service -->
<g id="node3" class="node">
<title>#/domains/commerce/subdomains/cataloging/boundedcontexts/catalog/services/catalog_service</title>
<g id="a_node3"><a xlink:title="Queries, pricing updates, stock">
<polygon fill="white" stroke="black" points="711.9,-332.05 716.47,-332.15 720.99,-332.3 725.45,-332.49 729.82,-332.74 734.09,-333.03 738.24,-333.36 742.26,-333.75 746.13,-334.18 749.84,-334.65 753.37,-335.16 756.7,-335.71 759.84,-336.31 762.77,-336.94 765.48,-337.61 767.96,-338.31 770.2,-339.04 772.21,-339.8 773.98,-340.59 775.51,-341.41 776.79,-342.25 777.83,-343.11 778.62,-343.99 779.17,-344.89 779.49,-345.8 779.58,-346.72 779.44,-347.65 779.08,-348.59 778.5,-349.53 777.72,-350.47 776.75,-351.41 775.59,-352.35 774.25,-353.28 772.74,-354.2 771.08,-355.11 769.27,-356.01 767.32,-356.89 765.24,-357.75 763.04,-358.59 760.74,-359.41 758.34,-360.2 755.84,-360.96 753.27,-361.69 750.63,-362.39 747.92,-363.06 745.16,-363.69 742.34,-364.29 739.49,-364.84 736.59,-365.35 733.66,-365.82 730.71,-366.25 727.73,-366.64 724.74,-366.97 721.72,-367.26 718.7,-367.51 715.66,-367.7 712.62,-367.85 709.58,-367.95 706.53,-368 703.47,-368 700.42,-367.95 697.38,-367.85 694.34,-367.7 691.3,-367.51 688.28,-367.26 685.26,-366.97 682.27,-366.64 679.29,-366.25 676.34,-365.82 673.41,-365.35 670.51,-364.84 667.66,-364.29 664.84,-363.69 662.08,-363.06 659.37,-362.39 656.73,-361.69 654.16,-360.96 651.66,-360.2 649.26,-359.41 646.96,-358.59 644.76,-357.75 642.68,-356.89 640.73,-356.01 638.92,-355.11 637.26,-354.2 635.75,-353.28 634.41,-352.35 633.25,-351.41 632.28,-350.47 631.5,-349.53 630.92,-348.59 630.56,-347.65 630.42,-346.72 630.51,-345.8 630.83,-344.89 631.38,-343.99 632.17,-343.11 633.21,-342.25 634.49,-341.41 636.02,-340.59 637.79,-339.8 639.8,-339.04 642.04,-338.31 644.52,-337.61 647.23,-336.94 650.16,-336.31 653.3,-335.71 656.63,-335.16 660.16,-334.65 663.87,-334.18 667.74,-333.75 671.76,-333.36 675.91,-333.03 680.18,-332.74 684.55,-332.49 689.01,-332.3 693.53,-332.15 698.1,-332.05 702.7,-332 707.3,-332 711.9,-332.05"/>
<text xml:space="preserve" text-anchor="middle" x="705" y="-345.8" font-family="sans-serif" font-size="14.00">CatalogService</text>
</a>
</g>
</g>
<!-- #/domains/commerce/subdomains/shopping/boundedcontexts/basket/services/basket_service&#45;&gt;#/domains/commerce/subdomains/cataloging/boundedcontexts/catalog/services/catalog_service -->
<g id="edge4" class="edge">
<title>#/domains/commerce/subdomains/shopping/boundedcontexts/basket/services/basket_service&#45;&gt;#/domains/commerce/subdomains/cataloging/boundedcontexts/catalog/services/catalog_service</title>
<path fill="none" stroke="black" d="M589.95,-515.88C612.22,-483.95 660.23,-415.16 686.65,-377.3"/>
<polygon fill="black" stroke="black" points="689.46,-379.39 692.31,-369.19 683.72,-375.38 689.46,-379.39"/>
<text xml:space="preserve" text-anchor="middle" x="673.73" y="-459" font-family="sans-serif" font-size="10.00">ProductPriceChanged</text>
<g id="a_edge4&#45;headlabel"><a xlink:title="published&#45;language">
<text xml:space="preserve" text-anchor="middle" x="693.18" y="-364.94" font-family="sans-serif" font-size="10.00">PL</text>
</a>
</g>
<g id="a_edge4&#45;taillabel"><a xlink:title="conformist">
<text xml:space="preserve" text-anchor="middle" x="589.95" y="-512.88" font-family="sans-serif" font-size="10.00">C</text>
</a>
</g>
</g>
<!-- #/domains/commerce/subdomains/sales/boundedcontexts/ordering/services/ordering_app&#45;&gt;#/domains/commerce/subdomains/shopping/boundedcontexts/basket/services/basket_service -->
<g id="edge3" class="edge">
<title>#/domains/commerce/subdomains/sales/boundedcontexts/ordering/services/ordering_app&#45;&gt;#/domains/commerce/subdomains/shopping/boundedcontexts/basket/services/basket_service</title>
<path fill="none" stroke="black" d="M473.71,-367.94C493.79,-399.73 537.25,-468.51 561.25,-506.48"/>
<polygon fill="black" stroke="black" points="558.07,-508.01 566.37,-514.6 563.99,-504.27 558.07,-508.01"/>
<text xml:space="preserve" text-anchor="middle" x="555.01" y="-459" font-family="sans-serif" font-size="10.00">GetBasket</text>
<g id="a_edge3&#45;headlabel"><a xlink:title="open&#45;host&#45;service">
<text xml:space="preserve" text-anchor="middle" x="567.18" y="-512.88" font-family="sans-serif" font-size="10.00">OHS</text>
</a>
</g>
<g id="a_edge3&#45;taillabel"><a xlink:title="anti&#45;corruption&#45;layer">
<text xml:space="preserve" text-anchor="middle" x="473.71" y="-364.94" font-family="sans-serif" font-size="10.00">ACL</text>
</a>
</g>
</g>
<!-- #/domains/identity&amp;access/subdomains/auth/boundedcontexts/identity/services/identity_service -->
<g id="node6" class="node">
<title>#/domains/identity&amp;access/subdomains/auth/boundedcontexts/identity/services/identity_service</title>
<g id="a_node6"><a xlink:title="Token issuance, user claims">
<polygon fill="white" stroke="black" points="169.9,-88.05 174.47,-88.15 178.99,-88.3 183.45,-88.49 187.82,-88.74 192.09,-89.03 196.24,-89.36 200.26,-89.75 204.13,-90.18 207.84,-90.65 211.37,-91.16 214.7,-91.71 217.84,-92.31 220.77,-92.94 223.48,-93.61 225.96,-94.31 228.2,-95.04 230.21,-95.8 231.98,-96.59 233.51,-97.41 234.79,-98.25 235.83,-99.11 236.62,-99.99 237.17,-100.89 237.49,-101.8 237.58,-102.72 237.44,-103.65 237.08,-104.59 236.5,-105.53 235.72,-106.47 234.75,-107.41 233.59,-108.35 232.25,-109.28 230.74,-110.2 229.08,-111.11 227.27,-112.01 225.32,-112.89 223.24,-113.75 221.04,-114.59 218.74,-115.41 216.34,-116.2 213.84,-116.96 211.27,-117.69 208.63,-118.39 205.92,-119.06 203.16,-119.69 200.34,-120.29 197.49,-120.84 194.59,-121.35 191.66,-121.82 188.71,-122.25 185.73,-122.64 182.74,-122.97 179.72,-123.26 176.7,-123.51 173.66,-123.7 170.62,-123.85 167.58,-123.95 164.53,-124 161.47,-124 158.42,-123.95 155.38,-123.85 152.34,-123.7 149.3,-123.51 146.28,-123.26 143.26,-122.97 140.27,-122.64 137.29,-122.25 134.34,-121.82 131.41,-121.35 128.51,-120.84 125.66,-120.29 122.84,-119.69 120.08,-119.06 117.37,-118.39 114.73,-117.69 112.16,-116.96 109.66,-116.2 107.26,-115.41 104.96,-114.59 102.76,-113.75 100.68,-112.89 98.73,-112.01 96.92,-111.11 95.26,-110.2 93.75,-109.28 92.41,-108.35 91.25,-107.41 90.28,-106.47 89.5,-105.53 88.92,-104.59 88.56,-103.65 88.42,-102.72 88.51,-101.8 88.83,-100.89 89.38,-99.99 90.17,-99.11 91.21,-98.25 92.49,-97.41 94.02,-96.59 95.79,-95.8 97.8,-95.04 100.04,-94.31 102.52,-93.61 105.23,-92.94 108.16,-92.31 111.3,-91.71 114.63,-91.16 118.16,-90.65 121.87,-90.18 125.74,-89.75 129.76,-89.36 133.91,-89.03 138.18,-88.74 142.55,-88.49 147.01,-88.3 151.53,-88.15 156.1,-88.05 160.7,-88 165.3,-88 169.9,-88.05"/>
<text xml:space="preserve" text-anchor="middle" x="163" y="-101.8" font-family="sans-serif" font-size="14.00">IdentityService</text>
</a>
</g>
</g>
<!-- #/domains/commerce/subdomains/sales/boundedcontexts/ordering/services/ordering_app&#45;&gt;#/domains/identity&amp;access/subdomains/auth/boundedcontexts/identity/services/identity_service -->
<g id="edge6" class="edge">
<title>#/domains/commerce/subdomains/sales/boundedcontexts/ordering/services/ordering_app&#45;&gt;#/domains/identity&amp;access/subdomains/auth/boundedcontexts/identity/services/identity_service</title>
<path fill="none" stroke="black" d="M442.38,-332.37C390,-290.11 251.72,-178.57 191.59,-130.07"/>
<polygon fill="black" stroke="black" points="194.13,-127.62 184.15,-124.06 189.74,-133.07 194.13,-127.62"/>
<text xml:space="preserve" text-anchor="middle" x="380.45" y="-255" font-family="sans-serif" font-size="10.00">IssueToken</text>
<g id="a_edge6&#45;headlabel"><a xlink:title="open&#45;host&#45;service">
<text xml:space="preserve" text-anchor="middle" x="182.97" y="-120.11" font-family="sans-serif" font-size="10.00">OHS</text>
</a>
</g>
<g id="a_edge6&#45;taillabel"><a xlink:title="anti&#45;corruption&#45;layer">
<text xml:space="preserve" text-anchor="middle" x="442.38" y="-329.37" font-family="sans-serif" font-size="10.00">ACL</text>
</a>
</g>
</g>
<!-- #/domains/customer_experience/subdomains/promotions/boundedcontexts/marketing/services/marketing_service -->
<g id="node7" class="node">
<title>#/domains/customer_experience/subdomains/promotions/boundedcontexts/marketing/services/marketing_service</title>
<g id="a_node7"><a xlink:title="Apply campaigns/discounts">
<polygon fill="white" stroke="black" points="470.91,-88.05 476.14,-88.15 481.32,-88.3 486.42,-88.49 491.43,-88.74 496.32,-89.03 501.08,-89.36 505.69,-89.75 510.12,-90.18 514.36,-90.65 518.4,-91.16 522.23,-91.71 525.82,-92.31 529.17,-92.94 532.27,-93.61 535.12,-94.31 537.69,-95.04 539.99,-95.8 542.02,-96.59 543.77,-97.41 545.24,-98.25 546.42,-99.11 547.33,-99.99 547.97,-100.89 548.33,-101.8 548.43,-102.72 548.27,-103.65 547.85,-104.59 547.2,-105.53 546.31,-106.47 545.19,-107.41 543.86,-108.35 542.33,-109.28 540.6,-110.2 538.69,-111.11 536.62,-112.01 534.38,-112.89 532,-113.75 529.49,-114.59 526.85,-115.41 524.1,-116.2 521.24,-116.96 518.3,-117.69 515.27,-118.39 512.17,-119.06 509,-119.69 505.78,-120.29 502.5,-120.84 499.19,-121.35 495.84,-121.82 492.45,-122.25 489.04,-122.64 485.61,-122.97 482.16,-123.26 478.69,-123.51 475.22,-123.7 471.73,-123.85 468.24,-123.95 464.75,-124 461.25,-124 457.76,-123.95 454.27,-123.85 450.78,-123.7 447.31,-123.51 443.84,-123.26 440.39,-122.97 436.96,-122.64 433.55,-122.25 430.16,-121.82 426.81,-121.35 423.5,-120.84 420.22,-120.29 417,-119.69 413.83,-119.06 410.73,-118.39 407.7,-117.69 404.76,-116.96 401.9,-116.2 399.15,-115.41 396.51,-114.59 394,-113.75 391.62,-112.89 389.38,-112.01 387.31,-111.11 385.4,-110.2 383.67,-109.28 382.14,-108.35 380.81,-107.41 379.69,-106.47 378.8,-105.53 378.15,-104.59 377.73,-103.65 377.57,-102.72 377.67,-101.8 378.03,-100.89 378.67,-99.99 379.58,-99.11 380.76,-98.25 382.23,-97.41 383.98,-96.59 386.01,-95.8 388.31,-95.04 390.88,-94.31 393.73,-93.61 396.83,-92.94 400.18,-92.31 403.77,-91.71 407.6,-91.16 411.64,-90.65 415.88,-90.18 420.31,-89.75 424.92,-89.36 429.68,-89.03 434.57,-88.74 439.58,-88.49 444.68,-88.3 449.86,-88.15 455.09,-88.05 460.36,-88 465.64,-88 470.91,-88.05"/>
<text xml:space="preserve" text-anchor="middle" x="463" y="-101.8" font-family="sans-serif" font-size="14.00">MarketingService</text>
</a>
</g>
</g>
<!-- #/domains/commerce/subdomains/sales/boundedcontexts/ordering/services/ordering_app&#45;&gt;#/domains/customer_experience/subdomains/promotions/boundedcontexts/marketing/services/marketing_service -->
<g id="edge7" class="edge">
<title>#/domains/commerce/subdomains/sales/boundedcontexts/ordering/services/ordering_app&#45;&gt;#/domains/customer_experience/subdomains/promotions/boundedcontexts/marketing/services/marketing_service</title>
<path fill="none" stroke="black" d="M463,-331.6C463,-290.35 463,-186.31 463,-135.63"/>
<polygon fill="black" stroke="black" points="466.5,-135.76 463,-125.76 459.5,-135.76 466.5,-135.76"/>
<text xml:space="preserve" text-anchor="middle" x="498" y="-255" font-family="sans-serif" font-size="10.00">ApplyCampaigns</text>
<g id="a_edge7&#45;headlabel"><a xlink:title="open&#45;host&#45;service">
<text xml:space="preserve" text-anchor="middle" x="463" y="-121.25" font-family="sans-serif" font-size="10.00">OHS</text>
</a>
</g>
<g id="a_edge7&#45;taillabel"><a xlink:title="anti&#45;corruption&#45;layer">
<text xml:space="preserve" text-anchor="middle" x="463" y="-328.6" font-family="sans-serif" font-size="10.00">ACL</text>
</a>
</g>
</g>
<!-- #/domains/customer_experience/subdomains/geodata/boundedcontexts/locations/services/locations_service -->
<g id="node8" class="node">
<title>#/domains/customer_experience/subdomains/geodata/boundedcontexts/locations/services/locations_service</title>
<g id="a_node8"><a xlink:title="Resolve/validate location data">
<polygon fill="white" stroke="black" points="738.69,-88.05 743.79,-88.15 748.83,-88.3 753.8,-88.49 758.67,-88.74 763.43,-89.03 768.06,-89.36 772.54,-89.75 776.86,-90.18 780.99,-90.65 784.92,-91.16 788.64,-91.71 792.14,-92.31 795.4,-92.94 798.42,-93.61 801.19,-94.31 803.69,-95.04 805.94,-95.8 807.91,-96.59 809.61,-97.41 811.04,-98.25 812.19,-99.11 813.08,-99.99 813.7,-100.89 814.05,-101.8 814.14,-102.72 813.99,-103.65 813.58,-104.59 812.95,-105.53 812.08,-106.47 810.99,-107.41 809.7,-108.35 808.2,-109.28 806.52,-110.2 804.67,-111.11 802.65,-112.01 800.47,-112.89 798.16,-113.75 795.71,-114.59 793.14,-115.41 790.46,-116.2 787.69,-116.96 784.82,-117.69 781.87,-118.39 778.85,-119.06 775.77,-119.69 772.63,-120.29 769.45,-120.84 766.22,-121.35 762.96,-121.82 759.66,-122.25 756.34,-122.64 753,-122.97 749.65,-123.26 746.27,-123.51 742.89,-123.7 739.5,-123.85 736.1,-123.95 732.7,-124 729.3,-124 725.9,-123.95 722.5,-123.85 719.11,-123.7 715.73,-123.51 712.35,-123.26 709,-122.97 705.66,-122.64 702.34,-122.25 699.04,-121.82 695.78,-121.35 692.55,-120.84 689.37,-120.29 686.23,-119.69 683.15,-119.06 680.13,-118.39 677.18,-117.69 674.31,-116.96 671.54,-116.2 668.86,-115.41 666.29,-114.59 663.84,-113.75 661.53,-112.89 659.35,-112.01 657.33,-111.11 655.48,-110.2 653.8,-109.28 652.3,-108.35 651.01,-107.41 649.92,-106.47 649.05,-105.53 648.42,-104.59 648.01,-103.65 647.86,-102.72 647.95,-101.8 648.3,-100.89 648.92,-99.99 649.81,-99.11 650.96,-98.25 652.39,-97.41 654.09,-96.59 656.06,-95.8 658.31,-95.04 660.81,-94.31 663.58,-93.61 666.6,-92.94 669.86,-92.31 673.36,-91.71 677.08,-91.16 681.01,-90.65 685.14,-90.18 689.46,-89.75 693.94,-89.36 698.57,-89.03 703.33,-88.74 708.2,-88.49 713.17,-88.3 718.21,-88.15 723.31,-88.05 728.43,-88 733.57,-88 738.69,-88.05"/>
<text xml:space="preserve" text-anchor="middle" x="731" y="-101.8" font-family="sans-serif" font-size="14.00">LocationsService</text>
</a>
</g>
</g>
<!-- #/domains/commerce/subdomains/sales/boundedcontexts/ordering/services/ordering_app&#45;&gt;#/domains/customer_experience/subdomains/geodata/boundedcontexts/locations/services/locations_service -->
<g id="edge8" class="edge">
<title>#/domains/commerce/subdomains/sales/boundedcontexts/ordering/services/ordering_app&#45;&gt;#/domains/customer_experience/subdomains/geodata/boundedcontexts/locations/services/locations_service</title>
<path fill="none" stroke="black" d="M482.07,-332.39C505.66,-311.79 546.99,-275.53 582,-244 625.49,-204.83 675.46,-158.64 705.07,-131.14"/>
<polygon fill="black" stroke="black" points="707.17,-133.97 712.11,-124.6 702.4,-128.84 707.17,-133.97"/>
<text xml:space="preserve" text-anchor="middle" x="606.31" y="-255" font-family="sans-serif" font-size="10.00">ResolveLocation</text>
<g id="a_edge8&#45;headlabel"><a xlink:title="open&#45;host&#45;service">
<text xml:space="preserve" text-anchor="middle" x="713.22" y="-120.57" font-family="sans-serif" font-size="10.00">OHS</text>
</a>
</g>
<g id="a_edge8&#45;taillabel"><a xlink:title="anti&#45;corruption&#45;layer">
<text xml:space="preserve" text-anchor="middle" x="482.07" y="-329.39" font-family="sans-serif" font-size="10.00">ACL</text>
</a>
</g>
</g>
<!-- #/domains/integration/subdomains/edge/boundedcontexts/api_gateway/services/web_shopping_aggregator -->
<g id="node4" class="node">
<title>#/domains/integration/subdomains/edge/boundedcontexts/api_gateway/services/web_shopping_aggregator</title>
<g id="a_node4"><a xlink:title="Ocelot + Aggregators (Web &amp; Mobile Shopping)">
<polygon fill="white" stroke="black" points="453.87,-760.05 461.06,-760.15 468.18,-760.3 475.2,-760.49 482.08,-760.74 488.81,-761.03 495.35,-761.36 501.67,-761.75 507.76,-762.18 513.6,-762.65 519.15,-763.16 524.41,-763.71 529.35,-764.31 533.96,-764.94 538.22,-765.61 542.13,-766.31 545.67,-767.04 548.83,-767.8 551.62,-768.59 554.02,-769.41 556.04,-770.25 557.67,-771.11 558.92,-771.99 559.79,-772.89 560.29,-773.8 560.43,-774.72 560.2,-775.65 559.64,-776.59 558.73,-777.53 557.51,-778.47 555.97,-779.41 554.15,-780.35 552.04,-781.28 549.66,-782.2 547.04,-783.11 544.19,-784.01 541.12,-784.89 537.85,-785.75 534.39,-786.59 530.76,-787.41 526.98,-788.2 523.06,-788.96 519.01,-789.69 514.85,-790.39 510.58,-791.06 506.23,-791.69 501.8,-792.29 497.3,-792.84 492.74,-793.35 488.13,-793.82 483.48,-794.25 478.79,-794.64 474.08,-794.97 469.33,-795.26 464.57,-795.51 459.79,-795.7 455,-795.85 450.2,-795.95 445.4,-796 440.6,-796 435.8,-795.95 431,-795.85 426.21,-795.7 421.43,-795.51 416.67,-795.26 411.92,-794.97 407.21,-794.64 402.52,-794.25 397.87,-793.82 393.26,-793.35 388.7,-792.84 384.2,-792.29 379.77,-791.69 375.42,-791.06 371.15,-790.39 366.99,-789.69 362.94,-788.96 359.02,-788.2 355.24,-787.41 351.61,-786.59 348.15,-785.75 344.88,-784.89 341.81,-784.01 338.96,-783.11 336.34,-782.2 333.96,-781.28 331.85,-780.35 330.03,-779.41 328.49,-778.47 327.27,-777.53 326.36,-776.59 325.8,-775.65 325.57,-774.72 325.71,-773.8 326.21,-772.89 327.08,-771.99 328.33,-771.11 329.96,-770.25 331.98,-769.41 334.38,-768.59 337.17,-767.8 340.33,-767.04 343.87,-766.31 347.78,-765.61 352.04,-764.94 356.65,-764.31 361.59,-763.71 366.85,-763.16 372.4,-762.65 378.24,-762.18 384.33,-761.75 390.65,-761.36 397.19,-761.03 403.92,-760.74 410.8,-760.49 417.82,-760.3 424.94,-760.15 432.13,-760.05 439.37,-760 446.63,-760 453.87,-760.05"/>
<text xml:space="preserve" text-anchor="middle" x="443" y="-773.8" font-family="sans-serif" font-size="14.00">WebShoppingAggregator</text>
</a>
</g>
</g>
<!-- #/domains/integration/subdomains/edge/boundedcontexts/api_gateway/services/web_shopping_aggregator&#45;&gt;#/domains/commerce/subdomains/shopping/boundedcontexts/basket/services/basket_service -->
<g id="edge1" class="edge">
<title>#/domains/integration/subdomains/edge/boundedcontexts/api_gateway/services/web_shopping_aggregator&#45;&gt;#/domains/commerce/subdomains/shopping/boundedcontexts/basket/services/basket_service</title>
<path fill="none" stroke="black" d="M452.71,-759.6C476.02,-717.81 535.28,-611.59 563.12,-561.68"/>
<polygon fill="black" stroke="black" points="566.01,-563.68 567.82,-553.25 559.89,-560.27 566.01,-563.68"/>
<text xml:space="preserve" text-anchor="middle" x="515.27" y="-683" font-family="sans-serif" font-size="10.00">GetBasket</text>
<g id="a_edge1&#45;headlabel"><a xlink:title="open&#45;host&#45;service">
<text xml:space="preserve" text-anchor="middle" x="568.56" y="-548.92" font-family="sans-serif" font-size="10.00">OHS</text>
</a>
</g>
<g id="a_edge1&#45;taillabel"><a xlink:title="conformist">
<text xml:space="preserve" text-anchor="middle" x="452.71" y="-756.6" font-family="sans-serif" font-size="10.00">C</text>
</a>
</g>
</g>
<!-- #/domains/integration/subdomains/edge/boundedcontexts/api_gateway/services/ocelot_gateway -->
<g id="node5" class="node">
<title>#/domains/integration/subdomains/edge/boundedcontexts/api_gateway/services/ocelot_gateway</title>
<g id="a_node5"><a xlink:title="Ocelot + Aggregators (Web &amp; Mobile Shopping)">
<polygon fill="white" stroke="black" points="701.01,-760.05 705.64,-760.15 710.24,-760.3 714.76,-760.49 719.2,-760.74 723.53,-761.03 727.75,-761.36 731.83,-761.75 735.76,-762.18 739.52,-762.65 743.1,-763.16 746.49,-763.71 749.68,-764.31 752.65,-764.94 755.4,-765.61 757.91,-766.31 760.2,-767.04 762.24,-767.8 764.03,-768.59 765.58,-769.41 766.88,-770.25 767.93,-771.11 768.74,-771.99 769.3,-772.89 769.63,-773.8 769.71,-774.72 769.57,-775.65 769.2,-776.59 768.62,-777.53 767.83,-778.47 766.84,-779.41 765.66,-780.35 764.3,-781.28 762.77,-782.2 761.08,-783.11 759.24,-784.01 757.26,-784.89 755.15,-785.75 752.92,-786.59 750.59,-787.41 748.15,-788.2 745.62,-788.96 743.01,-789.69 740.32,-790.39 737.58,-791.06 734.77,-791.69 731.91,-792.29 729.01,-792.84 726.07,-793.35 723.1,-793.82 720.1,-794.25 717.08,-794.64 714.04,-794.97 710.98,-795.26 707.91,-795.51 704.83,-795.7 701.74,-795.85 698.65,-795.95 695.55,-796 692.45,-796 689.35,-795.95 686.26,-795.85 683.17,-795.7 680.09,-795.51 677.02,-795.26 673.96,-794.97 670.92,-794.64 667.9,-794.25 664.9,-793.82 661.93,-793.35 658.99,-792.84 656.09,-792.29 653.23,-791.69 650.42,-791.06 647.68,-790.39 644.99,-789.69 642.38,-788.96 639.85,-788.2 637.41,-787.41 635.08,-786.59 632.85,-785.75 630.74,-784.89 628.76,-784.01 626.92,-783.11 625.23,-782.2 623.7,-781.28 622.34,-780.35 621.16,-779.41 620.17,-778.47 619.38,-777.53 618.8,-776.59 618.43,-775.65 618.29,-774.72 618.37,-773.8 618.7,-772.89 619.26,-771.99 620.07,-771.11 621.12,-770.25 622.42,-769.41 623.97,-768.59 625.76,-767.8 627.8,-767.04 630.09,-766.31 632.6,-765.61 635.35,-764.94 638.32,-764.31 641.51,-763.71 644.9,-763.16 648.48,-762.65 652.24,-762.18 656.17,-761.75 660.25,-761.36 664.47,-761.03 668.8,-760.74 673.24,-760.49 677.76,-760.3 682.36,-760.15 686.99,-760.05 691.66,-760 696.34,-760 701.01,-760.05"/>
<text xml:space="preserve" text-anchor="middle" x="694" y="-773.8" font-family="sans-serif" font-size="14.00">OcelotGateway</text>
</a>
</g>
</g>
<!-- #/domains/integration/subdomains/edge/boundedcontexts/api_gateway/services/ocelot_gateway&#45;&gt;#/domains/commerce/subdomains/shopping/boundedcontexts/basket/services/basket_service -->
<g id="edge2" class="edge">
<title>#/domains/integration/subdomains/edge/boundedcontexts/api_gateway/services/ocelot_gateway&#45;&gt;#/domains/commerce/subdomains/shopping/boundedcontexts/basket/services/basket_service</title>
<path fill="none" stroke="black" d="M685.66,-759.6C665.72,-718 615.17,-612.54 591.11,-562.35"/>
<polygon fill="black" stroke="black" points="594.4,-561.12 586.92,-553.61 588.09,-564.14 594.4,-561.12"/>
<text xml:space="preserve" text-anchor="middle" x="674" y="-683" font-family="sans-serif" font-size="10.00">GetBasket</text>
<g id="a_edge2&#45;headlabel"><a xlink:title="open&#45;host&#45;service">
<text xml:space="preserve" text-anchor="middle" x="586.27" y="-549.25" font-family="sans-serif" font-size="10.00">OHS</text>
</a>
</g>
<g id="a_edge2&#45;taillabel"><a xlink:title="conformist">
<text xml:space="preserve" text-anchor="middle" x="685.66" y="-756.6" font-family="sans-serif" font-size="10.00">C</text>
</a>
</g>
</g>
</g>
</svg>
