<?xml version="1.0" encoding="UTF-8" standalone="no"?>
<?xml-stylesheet href="data:text/css,.graph%20text%20%7B%0A%09font-family%3A%20sans-serif%3B%0A%09stroke%3A%20white%3B%0A%09paint-order%3A%20stroke%3B%0A%09stroke-width%3A%203%3B%0A%09stroke-linecap%3A%20square%3B%0A%7D%0A%0A.namespace%20polygon%20%7B%0A%09fill-opacity%3A%200.2%3B%0A%09stroke%3A%20none%3B%0A%7D%0A" type="text/css"?>
<!DOCTYPE svg PUBLIC "-//W3C//DTD SVG 1.1//EN"
 "http://www.w3.org/Graphics/SVG/1.1/DTD/svg11.dtd">
<!-- Generated by graphviz version 13.1.2 (0)
 -->
<!-- Pages: 1 -->
<svg width="358pt" height="356pt"
 viewBox="0.00 0.00 358.00 356.00" xmlns="http://www.w3.org/2000/svg" xmlns:xlink="http://www.w3.org/1999/xlink">
<g id="graph0" class="graph" transform="scale(1 1) rotate(0) translate(4 352)">
<polygon fill="white" stroke="none" points="-4,4 -4,-352 354,-352 354,4 -4,4"/>
<g id="clust1" class="cluster namespace">
<title>e_shop</title>
<polygon fill="lightgrey" stroke="lightgrey" points="8,-8 8,-340 342,-340 342,-8 8,-8"/>
<text xml:space="preserve" text-anchor="middle" x="175" y="-327" font-family="sans-serif" font-size="10.00">eShop</text>
</g>
<g id="clust2" class="cluster namespace">
<title>#/domains/identity_&amp;_access</title>
<polygon fill="lightgrey" stroke="lightgrey" points="96,-16 96,-160 242,-160 242,-16 96,-16"/>
<text xml:space="preserve" text-anchor="middle" x="169" y="-147" font-family="sans-serif" font-size="10.00">Identity &amp; Access</text>
</g>
<g id="clust3" class="cluster namespace">
<title>#/domains/identity_&amp;_access/subdomains/auth_n/auth_z</title>
<polygon fill="lightgrey" stroke="lightgrey" points="104,-24 104,-132 234,-132 234,-24 104,-24"/>
<text xml:space="preserve" text-anchor="middle" x="169" y="-119" font-family="sans-serif" font-size="10.00">AuthN/AuthZ</text>
</g>
<g id="clust4" class="cluster namespace">
<title>#/domains/edge_&amp;_experience</title>
<polygon fill="lightgrey" stroke="lightgrey" points="16,-168 16,-312 334,-312 334,-168 16,-168"/>
<text xml:space="preserve" text-anchor="middle" x="175" y="-299" font-family="sans-serif" font-size="10.00">Edge &amp; Experience</text>
</g>
<g id="clust5" class="cluster namespace">
<title>#/domains/edge_&amp;_experience/subdomains/web</title>
<polygon fill="lightgrey" stroke="lightgrey" points="24,-176 24,-284 154,-284 154,-176 24,-176"/>
<text xml:space="preserve" text-anchor="middle" x="89" y="-271" font-family="sans-serif" font-size="10.00">Web</text>
</g>
<g id="clust6" class="cluster namespace">
<title>#/domains/edge_&amp;_experience/subdomains/mobile</title>
<polygon fill="lightgrey" stroke="lightgrey" points="174,-176 174,-284 326,-284 326,-176 174,-176"/>
<text xml:space="preserve" text-anchor="middle" x="250" y="-271" font-family="sans-serif" font-size="10.00">Mobile</text>
</g>
<!-- #/domains/identity_&amp;_access/subdomains/auth_n/auth_z/boundedcontexts/identity.api -->
<g id="node1" class="node">
<title>#/domains/identity_&amp;_access/subdomains/auth_n/auth_z/boundedcontexts/identity.api</title>
<g id="a_node1"><a xlink:title="Duende IdentityServer&#45;based OIDC provider. Issues tokens that backends validate, enabling claims&#45;based auth across the solution.">
<polygon fill="white" stroke="black" points="174.32,-32.1 177.84,-32.3 181.33,-32.59 184.76,-32.98 188.13,-33.47 191.42,-34.05 194.63,-34.73 197.72,-35.5 200.71,-36.35 203.56,-37.29 206.28,-38.32 208.85,-39.43 211.27,-40.62 213.53,-41.88 215.62,-43.21 217.53,-44.61 219.26,-46.08 220.81,-47.6 222.17,-49.18 223.35,-50.82 224.34,-52.5 225.14,-54.22 225.75,-55.98 226.18,-57.77 226.42,-59.59 226.49,-61.44 226.38,-63.3 226.1,-65.17 225.66,-67.06 225.06,-68.94 224.31,-70.83 223.41,-72.7 222.38,-74.56 221.22,-76.41 219.94,-78.23 218.54,-80.02 217.03,-81.78 215.43,-83.5 213.74,-85.18 211.96,-86.82 210.11,-88.4 208.19,-89.92 206.21,-91.39 204.17,-92.79 202.09,-94.12 199.96,-95.38 197.79,-96.57 195.58,-97.68 193.35,-98.71 191.1,-99.65 188.82,-100.5 186.52,-101.27 184.21,-101.95 181.89,-102.53 179.56,-103.02 177.22,-103.41 174.88,-103.7 172.53,-103.9 170.18,-104 167.82,-104 165.47,-103.9 163.12,-103.7 160.78,-103.41 158.44,-103.02 156.11,-102.53 153.79,-101.95 151.48,-101.27 149.18,-100.5 146.9,-99.65 144.65,-98.71 142.42,-97.68 140.21,-96.57 138.04,-95.38 135.91,-94.12 133.83,-92.79 131.79,-91.39 129.81,-89.92 127.89,-88.4 126.04,-86.82 124.26,-85.18 122.57,-83.5 120.97,-81.78 119.46,-80.02 118.06,-78.23 116.78,-76.41 115.62,-74.56 114.59,-72.7 113.69,-70.83 112.94,-68.94 112.34,-67.06 111.9,-65.17 111.62,-63.3 111.51,-61.44 111.58,-59.59 111.82,-57.77 112.25,-55.98 112.86,-54.22 113.66,-52.5 114.65,-50.82 115.83,-49.18 117.19,-47.6 118.74,-46.08 120.47,-44.61 122.38,-43.21 124.47,-41.88 126.73,-40.62 129.15,-39.43 131.72,-38.32 134.44,-37.29 137.29,-36.35 140.28,-35.5 143.37,-34.73 146.58,-34.05 149.87,-33.47 153.24,-32.98 156.67,-32.59 160.16,-32.3 163.68,-32.1 167.22,-32 170.78,-32 174.32,-32.1"/>
<text xml:space="preserve" text-anchor="middle" x="169" y="-63.8" font-family="sans-serif" font-size="14.00">Identity.API</text>
</a>
</g>
</g>
<!-- #/domains/edge_&amp;_experience/subdomains/web/boundedcontexts/web_app -->
<g id="node2" class="node">
<title>#/domains/edge_&amp;_experience/subdomains/web/boundedcontexts/web_app</title>
<g id="a_node2"><a xlink:title="Blazor Server front&#45;end used by shoppers. It handles interaction, stateful UI, and delegates business logic to the BFF and backends.">
<polygon fill="white" stroke="black" points="94.32,-184.1 97.84,-184.3 101.33,-184.59 104.76,-184.98 108.13,-185.47 111.42,-186.05 114.63,-186.73 117.72,-187.5 120.71,-188.35 123.56,-189.29 126.28,-190.32 128.85,-191.43 131.27,-192.62 133.53,-193.88 135.62,-195.21 137.53,-196.61 139.26,-198.08 140.81,-199.6 142.17,-201.18 143.35,-202.82 144.34,-204.5 145.14,-206.22 145.75,-207.98 146.18,-209.77 146.42,-211.59 146.49,-213.44 146.38,-215.3 146.1,-217.17 145.66,-219.06 145.06,-220.94 144.31,-222.83 143.41,-224.7 142.38,-226.56 141.22,-228.41 139.94,-230.23 138.54,-232.02 137.03,-233.78 135.43,-235.5 133.74,-237.18 131.96,-238.82 130.11,-240.4 128.19,-241.92 126.21,-243.39 124.17,-244.79 122.09,-246.12 119.96,-247.38 117.79,-248.57 115.58,-249.68 113.35,-250.71 111.1,-251.65 108.82,-252.5 106.52,-253.27 104.21,-253.95 101.89,-254.53 99.56,-255.02 97.22,-255.41 94.88,-255.7 92.53,-255.9 90.18,-256 87.82,-256 85.47,-255.9 83.12,-255.7 80.78,-255.41 78.44,-255.02 76.11,-254.53 73.79,-253.95 71.48,-253.27 69.18,-252.5 66.9,-251.65 64.65,-250.71 62.42,-249.68 60.21,-248.57 58.04,-247.38 55.91,-246.12 53.83,-244.79 51.79,-243.39 49.81,-241.92 47.89,-240.4 46.04,-238.82 44.26,-237.18 42.57,-235.5 40.97,-233.78 39.46,-232.02 38.06,-230.23 36.78,-228.41 35.62,-226.56 34.59,-224.7 33.69,-222.83 32.94,-220.94 32.34,-219.06 31.9,-217.17 31.62,-215.3 31.51,-213.44 31.58,-211.59 31.82,-209.77 32.25,-207.98 32.86,-206.22 33.66,-204.5 34.65,-202.82 35.83,-201.18 37.19,-199.6 38.74,-198.08 40.47,-196.61 42.38,-195.21 44.47,-193.88 46.73,-192.62 49.15,-191.43 51.72,-190.32 54.44,-189.29 57.29,-188.35 60.28,-187.5 63.37,-186.73 66.58,-186.05 69.87,-185.47 73.24,-184.98 76.67,-184.59 80.16,-184.3 83.68,-184.1 87.22,-184 90.78,-184 94.32,-184.1"/>
<text xml:space="preserve" text-anchor="middle" x="89" y="-215.8" font-family="sans-serif" font-size="14.00">WebApp</text>
</a>
</g>
</g>
<!-- #/domains/edge_&amp;_experience/subdomains/web/boundedcontexts/web_app&#45;&gt;#/domains/identity_&amp;_access/subdomains/auth_n/auth_z/boundedcontexts/identity.api -->
<g id="edge1" class="edge">
<title>#/domains/edge_&amp;_experience/subdomains/web/boundedcontexts/web_app&#45;&gt;#/domains/identity_&amp;_access/subdomains/auth_n/auth_z/boundedcontexts/identity.api</title>
<path fill="none" stroke="black" d="M107.15,-184.96C118.76,-163.2 133.9,-134.81 146.3,-111.56"/>
<polygon fill="black" stroke="black" points="149.28,-113.42 150.89,-102.95 143.1,-110.13 149.28,-113.42"/>
<g id="a_edge1&#45;headlabel"><a xlink:title="open&#45;host&#45;service">
<text xml:space="preserve" text-anchor="middle" x="151.6" y="-98.62" font-family="sans-serif" font-size="10.00">OHS</text>
</a>
</g>
<g id="a_edge1&#45;taillabel"><a xlink:title="customer&#45;supplier">
<text xml:space="preserve" text-anchor="middle" x="107.15" y="-181.96" font-family="sans-serif" font-size="10.00">C/s</text>
</a>
</g>
</g>
<!-- #/domains/edge_&amp;_experience/subdomains/mobile/boundedcontexts/mobile.bff.shopping -->
<g id="node3" class="node">
<title>#/domains/edge_&amp;_experience/subdomains/mobile/boundedcontexts/mobile.bff.shopping</title>
<g id="a_node3"><a xlink:title="BFF optimized for client needs. It composes data from multiple backends into coarse&#45;grained endpoints to minimize round trips and hide internal details.">
<polygon fill="white" stroke="black" points="255.32,-184.1 258.84,-184.3 262.33,-184.59 265.76,-184.98 269.13,-185.47 272.42,-186.05 275.63,-186.73 278.72,-187.5 281.71,-188.35 284.56,-189.29 287.28,-190.32 289.85,-191.43 292.27,-192.62 294.53,-193.88 296.62,-195.21 298.53,-196.61 300.26,-198.08 301.81,-199.6 303.17,-201.18 304.35,-202.82 305.34,-204.5 306.14,-206.22 306.75,-207.98 307.18,-209.77 307.42,-211.59 307.49,-213.44 307.38,-215.3 307.1,-217.17 306.66,-219.06 306.06,-220.94 305.31,-222.83 304.41,-224.7 303.38,-226.56 302.22,-228.41 300.94,-230.23 299.54,-232.02 298.03,-233.78 296.43,-235.5 294.74,-237.18 292.96,-238.82 291.11,-240.4 289.19,-241.92 287.21,-243.39 285.17,-244.79 283.09,-246.12 280.96,-247.38 278.79,-248.57 276.58,-249.68 274.35,-250.71 272.1,-251.65 269.82,-252.5 267.52,-253.27 265.21,-253.95 262.89,-254.53 260.56,-255.02 258.22,-255.41 255.88,-255.7 253.53,-255.9 251.18,-256 248.82,-256 246.47,-255.9 244.12,-255.7 241.78,-255.41 239.44,-255.02 237.11,-254.53 234.79,-253.95 232.48,-253.27 230.18,-252.5 227.9,-251.65 225.65,-250.71 223.42,-249.68 221.21,-248.57 219.04,-247.38 216.91,-246.12 214.83,-244.79 212.79,-243.39 210.81,-241.92 208.89,-240.4 207.04,-238.82 205.26,-237.18 203.57,-235.5 201.97,-233.78 200.46,-232.02 199.06,-230.23 197.78,-228.41 196.62,-226.56 195.59,-224.7 194.69,-222.83 193.94,-220.94 193.34,-219.06 192.9,-217.17 192.62,-215.3 192.51,-213.44 192.58,-211.59 192.82,-209.77 193.25,-207.98 193.86,-206.22 194.66,-204.5 195.65,-202.82 196.83,-201.18 198.19,-199.6 199.74,-198.08 201.47,-196.61 203.38,-195.21 205.47,-193.88 207.73,-192.62 210.15,-191.43 212.72,-190.32 215.44,-189.29 218.29,-188.35 221.28,-187.5 224.37,-186.73 227.58,-186.05 230.87,-185.47 234.24,-184.98 237.67,-184.59 241.16,-184.3 244.68,-184.1 248.22,-184 251.78,-184 255.32,-184.1"/>
<text xml:space="preserve" text-anchor="middle" x="250" y="-215.8" font-family="sans-serif" font-size="14.00">Mobile.Bff.Shopping</text>
</a>
</g>
</g>
<!-- #/domains/edge_&amp;_experience/subdomains/mobile/boundedcontexts/mobile.bff.shopping&#45;&gt;#/domains/identity_&amp;_access/subdomains/auth_n/auth_z/boundedcontexts/identity.api -->
<g id="edge2" class="edge">
<title>#/domains/edge_&amp;_experience/subdomains/mobile/boundedcontexts/mobile.bff.shopping&#45;&gt;#/domains/identity_&amp;_access/subdomains/auth_n/auth_z/boundedcontexts/identity.api</title>
<path fill="none" stroke="black" d="M231.62,-184.96C219.87,-163.2 204.53,-134.81 191.98,-111.56"/>
<polygon fill="black" stroke="black" points="195.16,-110.08 187.33,-102.95 189,-113.41 195.16,-110.08"/>
<g id="a_edge2&#45;headlabel"><a xlink:title="open&#45;host&#45;service">
<text xml:space="preserve" text-anchor="middle" x="186.61" y="-98.62" font-family="sans-serif" font-size="10.00">OHS</text>
</a>
</g>
<g id="a_edge2&#45;taillabel"><a xlink:title="customer&#45;supplier">
<text xml:space="preserve" text-anchor="middle" x="231.62" y="-181.96" font-family="sans-serif" font-size="10.00">C/s</text>
</a>
</g>
</g>
</g>
</svg>
