<?xml version="1.0" encoding="UTF-8" standalone="no"?>
<?xml-stylesheet href="data:text/css,.graph%20text%20%7B%0A%09font-family%3A%20sans-serif%3B%0A%09stroke%3A%20white%3B%0A%09paint-order%3A%20stroke%3B%0A%09stroke-width%3A%203%3B%0A%09stroke-linecap%3A%20square%3B%0A%7D%0A%0A.namespace%20polygon%20%7B%0A%09fill-opacity%3A%200.2%3B%0A%09stroke%3A%20none%3B%0A%7D%0A" type="text/css"?>
<!DOCTYPE svg PUBLIC "-//W3C//DTD SVG 1.1//EN"
 "http://www.w3.org/Graphics/SVG/1.1/DTD/svg11.dtd">
<!-- Generated by graphviz version 13.1.2 (0)
 -->
<!-- Pages: 1 -->
<svg width="714pt" height="544pt"
 viewBox="0.00 0.00 714.00 544.00" xmlns="http://www.w3.org/2000/svg" xmlns:xlink="http://www.w3.org/1999/xlink">
<g id="graph0" class="graph" transform="scale(1 1) rotate(0) translate(4 540)">
<polygon fill="white" stroke="none" points="-4,4 -4,-540 710,-540 710,4 -4,4"/>
<g id="clust1" class="cluster namespace">
<title>e_shop_on_containers</title>
<polygon fill="lightgrey" stroke="lightgrey" points="8,-8 8,-528 698,-528 698,-8 8,-8"/>
<text xml:space="preserve" text-anchor="middle" x="353" y="-515" font-family="sans-serif" font-size="10.00">eShopOnContainers</text>
</g>
<g id="clust2" class="cluster namespace">
<title>#/domains/customer_experience</title>
<polygon fill="lightgrey" stroke="lightgrey" points="189,-28 189,-244 475,-244 475,-28 189,-28"/>
<text xml:space="preserve" text-anchor="middle" x="332" y="-231" font-family="sans-serif" font-size="10.00">CustomerExperience</text>
</g>
<g id="clust3" class="cluster namespace">
<title>#/domains/customer_experience/subdomains/geodata</title>
<polygon fill="lightgrey" stroke="lightgrey" points="209,-48 209,-204 455,-204 455,-48 209,-48"/>
<text xml:space="preserve" text-anchor="middle" x="332" y="-191" font-family="sans-serif" font-size="10.00">Geodata</text>
</g>
<g id="clust4" class="cluster namespace">
<title>#/domains/customer_experience/subdomains/geodata/boundedcontexts/locations</title>
<polygon fill="lightgrey" stroke="lightgrey" points="229,-68 229,-164 435,-164 435,-68 229,-68"/>
<text xml:space="preserve" text-anchor="middle" x="332" y="-151" font-family="sans-serif" font-size="10.00">Locations</text>
</g>
<g id="clust5" class="cluster namespace">
<title>#/domains/integration</title>
<polygon fill="lightgrey" stroke="lightgrey" points="28,-272 28,-488 404,-488 404,-272 28,-272"/>
<text xml:space="preserve" text-anchor="middle" x="216" y="-475" font-family="sans-serif" font-size="10.00">Integration</text>
</g>
<g id="clust6" class="cluster namespace">
<title>#/domains/integration/subdomains/edge</title>
<polygon fill="lightgrey" stroke="lightgrey" points="48,-292 48,-448 384,-448 384,-292 48,-292"/>
<text xml:space="preserve" text-anchor="middle" x="216" y="-435" font-family="sans-serif" font-size="10.00">Edge</text>
</g>
<g id="clust7" class="cluster namespace">
<title>#/domains/integration/subdomains/edge/boundedcontexts/api_gateway</title>
<polygon fill="lightgrey" stroke="lightgrey" points="68,-312 68,-408 364,-408 364,-312 68,-312"/>
<text xml:space="preserve" text-anchor="middle" x="216" y="-395" font-family="sans-serif" font-size="10.00">ApiGateway</text>
</g>
<g id="clust8" class="cluster namespace">
<title>#/domains/commerce</title>
<polygon fill="lightgrey" stroke="lightgrey" points="424,-272 424,-488 678,-488 678,-272 424,-272"/>
<text xml:space="preserve" text-anchor="middle" x="551" y="-475" font-family="sans-serif" font-size="10.00">Commerce</text>
</g>
<g id="clust9" class="cluster namespace">
<title>#/domains/commerce/subdomains/sales</title>
<polygon fill="lightgrey" stroke="lightgrey" points="444,-292 444,-448 658,-448 658,-292 444,-292"/>
<text xml:space="preserve" text-anchor="middle" x="551" y="-435" font-family="sans-serif" font-size="10.00">Sales</text>
</g>
<g id="clust10" class="cluster namespace">
<title>#/domains/commerce/subdomains/sales/boundedcontexts/ordering</title>
<polygon fill="lightgrey" stroke="lightgrey" points="464,-312 464,-408 638,-408 638,-312 464,-312"/>
<text xml:space="preserve" text-anchor="middle" x="551" y="-395" font-family="sans-serif" font-size="10.00">Ordering</text>
</g>
<!-- #/domains/customer_experience/subdomains/geodata/boundedcontexts/locations/services/locations_service -->
<g id="node1" class="node">
<title>#/domains/customer_experience/subdomains/geodata/boundedcontexts/locations/services/locations_service</title>
<g id="a_node1"><a xlink:title="Resolve/validate location data">
<polygon fill="white" stroke="black" points="339.69,-88.05 344.79,-88.15 349.83,-88.3 354.8,-88.49 359.67,-88.74 364.43,-89.03 369.06,-89.36 373.54,-89.75 377.86,-90.18 381.99,-90.65 385.92,-91.16 389.64,-91.71 393.14,-92.31 396.4,-92.94 399.42,-93.61 402.19,-94.31 404.69,-95.04 406.94,-95.8 408.91,-96.59 410.61,-97.41 412.04,-98.25 413.19,-99.11 414.08,-99.99 414.7,-100.89 415.05,-101.8 415.14,-102.72 414.99,-103.65 414.58,-104.59 413.95,-105.53 413.08,-106.47 411.99,-107.41 410.7,-108.35 409.2,-109.28 407.52,-110.2 405.67,-111.11 403.65,-112.01 401.47,-112.89 399.16,-113.75 396.71,-114.59 394.14,-115.41 391.46,-116.2 388.69,-116.96 385.82,-117.69 382.87,-118.39 379.85,-119.06 376.77,-119.69 373.63,-120.29 370.45,-120.84 367.22,-121.35 363.96,-121.82 360.66,-122.25 357.34,-122.64 354,-122.97 350.65,-123.26 347.27,-123.51 343.89,-123.7 340.5,-123.85 337.1,-123.95 333.7,-124 330.3,-124 326.9,-123.95 323.5,-123.85 320.11,-123.7 316.73,-123.51 313.35,-123.26 310,-122.97 306.66,-122.64 303.34,-122.25 300.04,-121.82 296.78,-121.35 293.55,-120.84 290.37,-120.29 287.23,-119.69 284.15,-119.06 281.13,-118.39 278.18,-117.69 275.31,-116.96 272.54,-116.2 269.86,-115.41 267.29,-114.59 264.84,-113.75 262.53,-112.89 260.35,-112.01 258.33,-111.11 256.48,-110.2 254.8,-109.28 253.3,-108.35 252.01,-107.41 250.92,-106.47 250.05,-105.53 249.42,-104.59 249.01,-103.65 248.86,-102.72 248.95,-101.8 249.3,-100.89 249.92,-99.99 250.81,-99.11 251.96,-98.25 253.39,-97.41 255.09,-96.59 257.06,-95.8 259.31,-95.04 261.81,-94.31 264.58,-93.61 267.6,-92.94 270.86,-92.31 274.36,-91.71 278.08,-91.16 282.01,-90.65 286.14,-90.18 290.46,-89.75 294.94,-89.36 299.57,-89.03 304.33,-88.74 309.2,-88.49 314.17,-88.3 319.21,-88.15 324.31,-88.05 329.43,-88 334.57,-88 339.69,-88.05"/>
<text xml:space="preserve" text-anchor="middle" x="332" y="-101.8" font-family="sans-serif" font-size="14.00">LocationsService</text>
</a>
</g>
</g>
<!-- #/domains/integration/subdomains/edge/boundedcontexts/api_gateway/services/mobile_shopping_aggregator -->
<g id="node2" class="node">
<title>#/domains/integration/subdomains/edge/boundedcontexts/api_gateway/services/mobile_shopping_aggregator</title>
<g id="a_node2"><a xlink:title="Ocelot + Aggregators (Web &amp; Mobile Shopping)">
<polygon fill="white" stroke="black" points="227.82,-332.05 235.64,-332.15 243.39,-332.3 251.02,-332.49 258.51,-332.74 265.82,-333.03 272.93,-333.36 279.82,-333.75 286.44,-334.18 292.79,-334.65 298.83,-335.16 304.55,-335.71 309.92,-336.31 314.93,-336.94 319.57,-337.61 323.82,-338.31 327.67,-339.04 331.11,-339.8 334.14,-340.59 336.75,-341.41 338.95,-342.25 340.72,-343.11 342.08,-343.99 343.03,-344.89 343.57,-345.8 343.72,-346.72 343.48,-347.65 342.86,-348.59 341.88,-349.53 340.55,-350.47 338.88,-351.41 336.89,-352.35 334.6,-353.28 332.02,-354.2 329.16,-355.11 326.06,-356.01 322.72,-356.89 319.16,-357.75 315.4,-358.59 311.46,-359.41 307.34,-360.2 303.08,-360.96 298.67,-361.69 294.15,-362.39 289.51,-363.06 284.77,-363.69 279.95,-364.29 275.06,-364.84 270.1,-365.35 265.09,-365.82 260.03,-366.25 254.93,-366.64 249.8,-366.97 244.64,-367.26 239.46,-367.51 234.26,-367.7 229.05,-367.85 223.84,-367.95 218.61,-368 213.39,-368 208.16,-367.95 202.95,-367.85 197.74,-367.7 192.54,-367.51 187.36,-367.26 182.2,-366.97 177.07,-366.64 171.97,-366.25 166.91,-365.82 161.9,-365.35 156.94,-364.84 152.05,-364.29 147.23,-363.69 142.49,-363.06 137.85,-362.39 133.33,-361.69 128.92,-360.96 124.66,-360.2 120.54,-359.41 116.6,-358.59 112.84,-357.75 109.28,-356.89 105.94,-356.01 102.84,-355.11 99.98,-354.2 97.4,-353.28 95.11,-352.35 93.12,-351.41 91.45,-350.47 90.12,-349.53 89.14,-348.59 88.52,-347.65 88.28,-346.72 88.43,-345.8 88.97,-344.89 89.92,-343.99 91.28,-343.11 93.05,-342.25 95.25,-341.41 97.86,-340.59 100.89,-339.8 104.33,-339.04 108.18,-338.31 112.43,-337.61 117.07,-336.94 122.08,-336.31 127.45,-335.71 133.17,-335.16 139.21,-334.65 145.56,-334.18 152.18,-333.75 159.07,-333.36 166.18,-333.03 173.49,-332.74 180.98,-332.49 188.61,-332.3 196.36,-332.15 204.18,-332.05 212.05,-332 219.95,-332 227.82,-332.05"/>
<text xml:space="preserve" text-anchor="middle" x="216" y="-345.8" font-family="sans-serif" font-size="14.00">MobileShoppingAggregator</text>
</a>
</g>
</g>
<!-- #/domains/integration/subdomains/edge/boundedcontexts/api_gateway/services/mobile_shopping_aggregator&#45;&gt;#/domains/customer_experience/subdomains/geodata/boundedcontexts/locations/services/locations_service -->
<g id="edge1" class="edge">
<title>#/domains/integration/subdomains/edge/boundedcontexts/api_gateway/services/mobile_shopping_aggregator&#45;&gt;#/domains/customer_experience/subdomains/geodata/boundedcontexts/locations/services/locations_service</title>
<path fill="none" stroke="black" d="M224.34,-331.6C244.28,-290 294.83,-184.54 318.89,-134.35"/>
<polygon fill="black" stroke="black" points="321.91,-136.14 323.08,-125.61 315.6,-133.12 321.91,-136.14"/>
<text xml:space="preserve" text-anchor="middle" x="294.08" y="-255" font-family="sans-serif" font-size="10.00">ResolveLocation</text>
<g id="a_edge1&#45;headlabel"><a xlink:title="open&#45;host&#45;service">
<text xml:space="preserve" text-anchor="middle" x="323.73" y="-121.25" font-family="sans-serif" font-size="10.00">OHS</text>
</a>
</g>
<g id="a_edge1&#45;taillabel"><a xlink:title="conformist">
<text xml:space="preserve" text-anchor="middle" x="224.34" y="-328.6" font-family="sans-serif" font-size="10.00">C</text>
</a>
</g>
</g>
<!-- #/domains/commerce/subdomains/sales/boundedcontexts/ordering/services/ordering_app -->
<g id="node3" class="node">
<title>#/domains/commerce/subdomains/sales/boundedcontexts/ordering/services/ordering_app</title>
<g id="a_node3"><a xlink:title="Ordering.API (rich DDD + domain events)">
<polygon fill="white" stroke="black" points="557.16,-332.05 561.24,-332.15 565.28,-332.3 569.26,-332.49 573.16,-332.74 576.98,-333.03 580.68,-333.36 584.27,-333.75 587.73,-334.18 591.03,-334.65 594.18,-335.16 597.16,-335.71 599.97,-336.31 602.58,-336.94 605,-337.61 607.21,-338.31 609.22,-339.04 611.01,-339.8 612.59,-340.59 613.96,-341.41 615.1,-342.25 616.03,-343.11 616.73,-343.99 617.23,-344.89 617.51,-345.8 617.59,-346.72 617.46,-347.65 617.14,-348.59 616.63,-349.53 615.93,-350.47 615.06,-351.41 614.03,-352.35 612.83,-353.28 611.49,-354.2 610,-355.11 608.38,-356.01 606.64,-356.89 604.78,-357.75 602.82,-358.59 600.77,-359.41 598.62,-360.2 596.4,-360.96 594.1,-361.69 591.74,-362.39 589.32,-363.06 586.86,-363.69 584.34,-364.29 581.79,-364.84 579.21,-365.35 576.59,-365.82 573.96,-366.25 571.3,-366.64 568.62,-366.97 565.93,-367.26 563.23,-367.51 560.52,-367.7 557.81,-367.85 555.09,-367.95 552.36,-368 549.64,-368 546.91,-367.95 544.19,-367.85 541.48,-367.7 538.77,-367.51 536.07,-367.26 533.38,-366.97 530.7,-366.64 528.04,-366.25 525.41,-365.82 522.79,-365.35 520.21,-364.84 517.66,-364.29 515.14,-363.69 512.68,-363.06 510.26,-362.39 507.9,-361.69 505.6,-360.96 503.38,-360.2 501.23,-359.41 499.18,-358.59 497.22,-357.75 495.36,-356.89 493.62,-356.01 492,-355.11 490.51,-354.2 489.17,-353.28 487.97,-352.35 486.94,-351.41 486.07,-350.47 485.37,-349.53 484.86,-348.59 484.54,-347.65 484.41,-346.72 484.49,-345.8 484.77,-344.89 485.27,-343.99 485.97,-343.11 486.9,-342.25 488.04,-341.41 489.41,-340.59 490.99,-339.8 492.78,-339.04 494.79,-338.31 497,-337.61 499.42,-336.94 502.03,-336.31 504.84,-335.71 507.82,-335.16 510.97,-334.65 514.27,-334.18 517.73,-333.75 521.32,-333.36 525.02,-333.03 528.84,-332.74 532.74,-332.49 536.72,-332.3 540.76,-332.15 544.84,-332.05 548.94,-332 553.06,-332 557.16,-332.05"/>
<text xml:space="preserve" text-anchor="middle" x="551" y="-345.8" font-family="sans-serif" font-size="14.00">OrderingApp</text>
</a>
</g>
</g>
<!-- #/domains/commerce/subdomains/sales/boundedcontexts/ordering/services/ordering_app&#45;&gt;#/domains/customer_experience/subdomains/geodata/boundedcontexts/locations/services/locations_service -->
<g id="edge2" class="edge">
<title>#/domains/commerce/subdomains/sales/boundedcontexts/ordering/services/ordering_app&#45;&gt;#/domains/customer_experience/subdomains/geodata/boundedcontexts/locations/services/locations_service</title>
<path fill="none" stroke="black" d="M535.6,-331.98C497.67,-290.07 399.57,-181.67 354.84,-132.24"/>
<polygon fill="black" stroke="black" points="357.7,-130.19 348.4,-125.12 352.51,-134.88 357.7,-130.19"/>
<text xml:space="preserve" text-anchor="middle" x="507.79" y="-255" font-family="sans-serif" font-size="10.00">ResolveLocation</text>
<g id="a_edge2&#45;headlabel"><a xlink:title="open&#45;host&#45;service">
<text xml:space="preserve" text-anchor="middle" x="347.38" y="-121" font-family="sans-serif" font-size="10.00">OHS</text>
</a>
</g>
<g id="a_edge2&#45;taillabel"><a xlink:title="anti&#45;corruption&#45;layer">
<text xml:space="preserve" text-anchor="middle" x="535.6" y="-328.98" font-family="sans-serif" font-size="10.00">ACL</text>
</a>
</g>
</g>
</g>
</svg>
