<?xml version="1.0" encoding="UTF-8" standalone="no"?>
<?xml-stylesheet href="data:text/css,.graph%20text%20%7B%0A%09font-family%3A%20sans-serif%3B%0A%09stroke%3A%20white%3B%0A%09paint-order%3A%20stroke%3B%0A%09stroke-width%3A%203%3B%0A%09stroke-linecap%3A%20square%3B%0A%7D%0A%0A.namespace%20polygon%20%7B%0A%09fill-opacity%3A%200.2%3B%0A%09stroke%3A%20none%3B%0A%7D%0A" type="text/css"?>
<!DOCTYPE svg PUBLIC "-//W3C//DTD SVG 1.1//EN"
 "http://www.w3.org/Graphics/SVG/1.1/DTD/svg11.dtd">
<!-- Generated by graphviz version 13.1.2 (0)
 -->
<!-- Pages: 1 -->
<svg width="1674pt" height="708pt"
 viewBox="0.00 0.00 1674.00 708.00" xmlns="http://www.w3.org/2000/svg" xmlns:xlink="http://www.w3.org/1999/xlink">
<g id="graph0" class="graph" transform="scale(1 1) rotate(0) translate(4 704)">
<polygon fill="white" stroke="none" points="-4,4 -4,-704 1670,-704 1670,4 -4,4"/>
<g id="clust1" class="cluster namespace">
<title>e_shop_on_containers</title>
<polygon fill="lightgrey" stroke="lightgrey" points="8,-8 8,-692 1658,-692 1658,-8 8,-8"/>
<text xml:space="preserve" text-anchor="middle" x="833" y="-679" font-family="sans-serif" font-size="10.00">eShopOnContainers</text>
</g>
<g id="clust2" class="cluster namespace">
<title>#/domains/commerce</title>
<polygon fill="lightgrey" stroke="lightgrey" points="28,-28 28,-652 772,-652 772,-28 28,-28"/>
<text xml:space="preserve" text-anchor="middle" x="400" y="-639" font-family="sans-serif" font-size="10.00">Commerce</text>
</g>
<g id="clust3" class="cluster namespace">
<title>#/domains/commerce/subdomains/payments</title>
<polygon fill="lightgrey" stroke="lightgrey" points="190,-48 190,-204 428,-204 428,-48 190,-48"/>
<text xml:space="preserve" text-anchor="middle" x="309" y="-191" font-family="sans-serif" font-size="10.00">Payments</text>
</g>
<g id="clust4" class="cluster namespace">
<title>#/domains/commerce/subdomains/payments/boundedcontexts/payment</title>
<polygon fill="lightgrey" stroke="lightgrey" points="210,-68 210,-164 408,-164 408,-68 210,-68"/>
<text xml:space="preserve" text-anchor="middle" x="309" y="-151" font-family="sans-serif" font-size="10.00">Payment</text>
</g>
<g id="clust5" class="cluster namespace">
<title>#/domains/commerce/subdomains/sales</title>
<polygon fill="lightgrey" stroke="lightgrey" points="48,-272 48,-428 502,-428 502,-272 48,-272"/>
<text xml:space="preserve" text-anchor="middle" x="275" y="-415" font-family="sans-serif" font-size="10.00">Sales</text>
</g>
<g id="clust6" class="cluster namespace">
<title>#/domains/commerce/subdomains/sales/boundedcontexts/ordering</title>
<polygon fill="lightgrey" stroke="lightgrey" points="68,-292 68,-388 482,-388 482,-292 68,-292"/>
<text xml:space="preserve" text-anchor="middle" x="275" y="-375" font-family="sans-serif" font-size="10.00">Ordering</text>
</g>
<g id="clust7" class="cluster namespace">
<title>#/domains/commerce/subdomains/shopping</title>
<polygon fill="lightgrey" stroke="lightgrey" points="389,-456 389,-612 611,-612 611,-456 389,-456"/>
<text xml:space="preserve" text-anchor="middle" x="500" y="-599" font-family="sans-serif" font-size="10.00">Shopping</text>
</g>
<g id="clust8" class="cluster namespace">
<title>#/domains/commerce/subdomains/shopping/boundedcontexts/basket</title>
<polygon fill="lightgrey" stroke="lightgrey" points="409,-476 409,-572 591,-572 591,-476 409,-476"/>
<text xml:space="preserve" text-anchor="middle" x="500" y="-559" font-family="sans-serif" font-size="10.00">Basket</text>
</g>
<g id="clust9" class="cluster namespace">
<title>#/domains/commerce/subdomains/cataloging</title>
<polygon fill="lightgrey" stroke="lightgrey" points="522,-272 522,-428 752,-428 752,-272 522,-272"/>
<text xml:space="preserve" text-anchor="middle" x="637" y="-415" font-family="sans-serif" font-size="10.00">Cataloging</text>
</g>
<g id="clust10" class="cluster namespace">
<title>#/domains/commerce/subdomains/cataloging/boundedcontexts/catalog</title>
<polygon fill="lightgrey" stroke="lightgrey" points="542,-292 542,-388 732,-388 732,-292 542,-292"/>
<text xml:space="preserve" text-anchor="middle" x="637" y="-375" font-family="sans-serif" font-size="10.00">Catalog</text>
</g>
<g id="clust11" class="cluster namespace">
<title>#/domains/identity&amp;access</title>
<polygon fill="lightgrey" stroke="lightgrey" points="792,-28 792,-244 1062,-244 1062,-28 792,-28"/>
<text xml:space="preserve" text-anchor="middle" x="927" y="-231" font-family="sans-serif" font-size="10.00">Identity&amp;Access</text>
</g>
<g id="clust12" class="cluster namespace">
<title>#/domains/identity&amp;access/subdomains/auth</title>
<polygon fill="lightgrey" stroke="lightgrey" points="812,-48 812,-204 1042,-204 1042,-48 812,-48"/>
<text xml:space="preserve" text-anchor="middle" x="927" y="-191" font-family="sans-serif" font-size="10.00">Auth</text>
</g>
<g id="clust13" class="cluster namespace">
<title>#/domains/identity&amp;access/subdomains/auth/boundedcontexts/identity</title>
<polygon fill="lightgrey" stroke="lightgrey" points="832,-68 832,-164 1022,-164 1022,-68 832,-68"/>
<text xml:space="preserve" text-anchor="middle" x="927" y="-151" font-family="sans-serif" font-size="10.00">Identity</text>
</g>
<g id="clust14" class="cluster namespace">
<title>#/domains/customer_experience</title>
<polygon fill="lightgrey" stroke="lightgrey" points="1082,-28 1082,-244 1638,-244 1638,-28 1082,-28"/>
<text xml:space="preserve" text-anchor="middle" x="1360" y="-231" font-family="sans-serif" font-size="10.00">CustomerExperience</text>
</g>
<g id="clust15" class="cluster namespace">
<title>#/domains/customer_experience/subdomains/promotions</title>
<polygon fill="lightgrey" stroke="lightgrey" points="1102,-48 1102,-204 1352,-204 1352,-48 1102,-48"/>
<text xml:space="preserve" text-anchor="middle" x="1227" y="-191" font-family="sans-serif" font-size="10.00">Promotions</text>
</g>
<g id="clust16" class="cluster namespace">
<title>#/domains/customer_experience/subdomains/promotions/boundedcontexts/marketing</title>
<polygon fill="lightgrey" stroke="lightgrey" points="1122,-68 1122,-164 1332,-164 1332,-68 1122,-68"/>
<text xml:space="preserve" text-anchor="middle" x="1227" y="-151" font-family="sans-serif" font-size="10.00">Marketing</text>
</g>
<g id="clust17" class="cluster namespace">
<title>#/domains/customer_experience/subdomains/geodata</title>
<polygon fill="lightgrey" stroke="lightgrey" points="1372,-48 1372,-204 1618,-204 1618,-48 1372,-48"/>
<text xml:space="preserve" text-anchor="middle" x="1495" y="-191" font-family="sans-serif" font-size="10.00">Geodata</text>
</g>
<g id="clust18" class="cluster namespace">
<title>#/domains/customer_experience/subdomains/geodata/boundedcontexts/locations</title>
<polygon fill="lightgrey" stroke="lightgrey" points="1392,-68 1392,-164 1598,-164 1598,-68 1392,-68"/>
<text xml:space="preserve" text-anchor="middle" x="1495" y="-151" font-family="sans-serif" font-size="10.00">Locations</text>
</g>
<!-- #/domains/commerce/subdomains/payments/boundedcontexts/payment/services/payment_service -->
<g id="node1" class="node">
<title>#/domains/commerce/subdomains/payments/boundedcontexts/payment/services/payment_service</title>
<g id="a_node1"><a xlink:title="Authorize/Capture (sample)">
<polygon fill="white" stroke="black" points="316.27,-88.05 321.09,-88.15 325.85,-88.3 330.55,-88.49 335.15,-88.74 339.65,-89.03 344.03,-89.36 348.26,-89.75 352.34,-90.18 356.24,-90.65 359.96,-91.16 363.48,-91.71 366.78,-92.31 369.87,-92.94 372.72,-93.61 375.33,-94.31 377.7,-95.04 379.82,-95.8 381.69,-96.59 383.29,-97.41 384.64,-98.25 385.73,-99.11 386.57,-99.99 387.16,-100.89 387.49,-101.8 387.58,-102.72 387.43,-103.65 387.05,-104.59 386.45,-105.53 385.63,-106.47 384.6,-107.41 383.38,-108.35 381.97,-109.28 380.38,-110.2 378.62,-111.11 376.71,-112.01 374.66,-112.89 372.47,-113.75 370.16,-114.59 367.73,-115.41 365.2,-116.2 362.57,-116.96 359.86,-117.69 357.08,-118.39 354.23,-119.06 351.31,-119.69 348.35,-120.29 345.34,-120.84 342.29,-121.35 339.2,-121.82 336.09,-122.25 332.95,-122.64 329.8,-122.97 326.62,-123.26 323.43,-123.51 320.24,-123.7 317.03,-123.85 313.82,-123.95 310.61,-124 307.39,-124 304.18,-123.95 300.97,-123.85 297.76,-123.7 294.57,-123.51 291.38,-123.26 288.2,-122.97 285.05,-122.64 281.91,-122.25 278.8,-121.82 275.71,-121.35 272.66,-120.84 269.65,-120.29 266.69,-119.69 263.77,-119.06 260.92,-118.39 258.14,-117.69 255.43,-116.96 252.8,-116.2 250.27,-115.41 247.84,-114.59 245.53,-113.75 243.34,-112.89 241.29,-112.01 239.38,-111.11 237.62,-110.2 236.03,-109.28 234.62,-108.35 233.4,-107.41 232.37,-106.47 231.55,-105.53 230.95,-104.59 230.57,-103.65 230.42,-102.72 230.51,-101.8 230.84,-100.89 231.43,-99.99 232.27,-99.11 233.36,-98.25 234.71,-97.41 236.31,-96.59 238.18,-95.8 240.3,-95.04 242.67,-94.31 245.28,-93.61 248.13,-92.94 251.22,-92.31 254.52,-91.71 258.04,-91.16 261.76,-90.65 265.66,-90.18 269.74,-89.75 273.97,-89.36 278.35,-89.03 282.85,-88.74 287.45,-88.49 292.15,-88.3 296.91,-88.15 301.73,-88.05 306.57,-88 311.43,-88 316.27,-88.05"/>
<text xml:space="preserve" text-anchor="middle" x="309" y="-101.8" font-family="sans-serif" font-size="14.00">PaymentService</text>
</a>
</g>
</g>
<!-- #/domains/commerce/subdomains/sales/boundedcontexts/ordering/services/ordering_app -->
<g id="node3" class="node">
<title>#/domains/commerce/subdomains/sales/boundedcontexts/ordering/services/ordering_app</title>
<g id="a_node3"><a xlink:title="Start/Place orders">
<polygon fill="white" stroke="black" points="401.16,-312.05 405.24,-312.15 409.28,-312.3 413.26,-312.49 417.16,-312.74 420.98,-313.03 424.68,-313.36 428.27,-313.75 431.73,-314.18 435.03,-314.65 438.18,-315.16 441.16,-315.71 443.97,-316.31 446.58,-316.94 449,-317.61 451.21,-318.31 453.22,-319.04 455.01,-319.8 456.59,-320.59 457.96,-321.41 459.1,-322.25 460.03,-323.11 460.73,-323.99 461.23,-324.89 461.51,-325.8 461.59,-326.72 461.46,-327.65 461.14,-328.59 460.63,-329.53 459.93,-330.47 459.06,-331.41 458.03,-332.35 456.83,-333.28 455.49,-334.2 454,-335.11 452.38,-336.01 450.64,-336.89 448.78,-337.75 446.82,-338.59 444.77,-339.41 442.62,-340.2 440.4,-340.96 438.1,-341.69 435.74,-342.39 433.32,-343.06 430.86,-343.69 428.34,-344.29 425.79,-344.84 423.21,-345.35 420.59,-345.82 417.96,-346.25 415.3,-346.64 412.62,-346.97 409.93,-347.26 407.23,-347.51 404.52,-347.7 401.81,-347.85 399.09,-347.95 396.36,-348 393.64,-348 390.91,-347.95 388.19,-347.85 385.48,-347.7 382.77,-347.51 380.07,-347.26 377.38,-346.97 374.7,-346.64 372.04,-346.25 369.41,-345.82 366.79,-345.35 364.21,-344.84 361.66,-344.29 359.14,-343.69 356.68,-343.06 354.26,-342.39 351.9,-341.69 349.6,-340.96 347.38,-340.2 345.23,-339.41 343.18,-338.59 341.22,-337.75 339.36,-336.89 337.62,-336.01 336,-335.11 334.51,-334.2 333.17,-333.28 331.97,-332.35 330.94,-331.41 330.07,-330.47 329.37,-329.53 328.86,-328.59 328.54,-327.65 328.41,-326.72 328.49,-325.8 328.77,-324.89 329.27,-323.99 329.97,-323.11 330.9,-322.25 332.04,-321.41 333.41,-320.59 334.99,-319.8 336.78,-319.04 338.79,-318.31 341,-317.61 343.42,-316.94 346.03,-316.31 348.84,-315.71 351.82,-315.16 354.97,-314.65 358.27,-314.18 361.73,-313.75 365.32,-313.36 369.02,-313.03 372.84,-312.74 376.74,-312.49 380.72,-312.3 384.76,-312.15 388.84,-312.05 392.94,-312 397.06,-312 401.16,-312.05"/>
<text xml:space="preserve" text-anchor="middle" x="395" y="-325.8" font-family="sans-serif" font-size="14.00">OrderingApp</text>
</a>
</g>
</g>
<!-- #/domains/commerce/subdomains/payments/boundedcontexts/payment/services/payment_service&#45;&gt;#/domains/commerce/subdomains/sales/boundedcontexts/ordering/services/ordering_app -->
<g id="edge4" class="edge">
<title>#/domains/commerce/subdomains/payments/boundedcontexts/payment/services/payment_service&#45;&gt;#/domains/commerce/subdomains/sales/boundedcontexts/ordering/services/ordering_app</title>
<path fill="none" stroke="black" d="M337.47,-122.33C375.95,-144.88 442.85,-191 470,-252 479.92,-274.28 460.17,-293.87 438.46,-307.72"/>
<polygon fill="black" stroke="black" points="436.89,-304.58 430.08,-312.71 440.47,-310.6 436.89,-304.58"/>
<text xml:space="preserve" text-anchor="middle" x="498.41" y="-255" font-family="sans-serif" font-size="10.00">OrderStarted</text>
<g id="a_edge4&#45;headlabel"><a xlink:title="published&#45;language">
<text xml:space="preserve" text-anchor="middle" x="428.78" y="-310.48" font-family="sans-serif" font-size="10.00">PL</text>
</a>
</g>
<g id="a_edge4&#45;taillabel"><a xlink:title="conformist">
<text xml:space="preserve" text-anchor="middle" x="337.47" y="-119.33" font-family="sans-serif" font-size="10.00">C</text>
</a>
</g>
</g>
<!-- #/domains/commerce/subdomains/sales/boundedcontexts/ordering/services/ordering_workflow -->
<g id="node2" class="node">
<title>#/domains/commerce/subdomains/sales/boundedcontexts/ordering/services/ordering_workflow</title>
<g id="a_node2"><a xlink:title="Ordering.API (rich DDD + domain events)">
<polygon fill="white" stroke="black" points="187.43,-312.05 193.02,-312.15 198.54,-312.3 203.99,-312.49 209.33,-312.74 214.55,-313.03 219.63,-313.36 224.54,-313.75 229.27,-314.18 233.8,-314.65 238.11,-315.16 242.19,-315.71 246.02,-316.31 249.6,-316.94 252.91,-317.61 255.94,-318.31 258.69,-319.04 261.14,-319.8 263.31,-320.59 265.17,-321.41 266.74,-322.25 268,-323.11 268.97,-323.99 269.65,-324.89 270.04,-325.8 270.14,-326.72 269.97,-327.65 269.53,-328.59 268.83,-329.53 267.88,-330.47 266.69,-331.41 265.27,-332.35 263.63,-333.28 261.79,-334.2 259.76,-335.11 257.54,-336.01 255.16,-336.89 252.62,-337.75 249.93,-338.59 247.12,-339.41 244.18,-340.2 241.14,-340.96 238,-341.69 234.77,-342.39 231.46,-343.06 228.08,-343.69 224.64,-344.29 221.15,-344.84 217.61,-345.35 214.03,-345.82 210.42,-346.25 206.78,-346.64 203.12,-346.97 199.44,-347.26 195.74,-347.51 192.03,-347.7 188.32,-347.85 184.59,-347.95 180.86,-348 177.14,-348 173.41,-347.95 169.68,-347.85 165.97,-347.7 162.26,-347.51 158.56,-347.26 154.88,-346.97 151.22,-346.64 147.58,-346.25 143.97,-345.82 140.39,-345.35 136.85,-344.84 133.36,-344.29 129.92,-343.69 126.54,-343.06 123.23,-342.39 120,-341.69 116.86,-340.96 113.82,-340.2 110.88,-339.41 108.07,-338.59 105.38,-337.75 102.84,-336.89 100.46,-336.01 98.24,-335.11 96.21,-334.2 94.37,-333.28 92.73,-332.35 91.31,-331.41 90.12,-330.47 89.17,-329.53 88.47,-328.59 88.03,-327.65 87.86,-326.72 87.96,-325.8 88.35,-324.89 89.03,-323.99 90,-323.11 91.26,-322.25 92.83,-321.41 94.69,-320.59 96.86,-319.8 99.31,-319.04 102.06,-318.31 105.09,-317.61 108.4,-316.94 111.98,-316.31 115.81,-315.71 119.89,-315.16 124.2,-314.65 128.73,-314.18 133.46,-313.75 138.37,-313.36 143.45,-313.03 148.67,-312.74 154.01,-312.49 159.46,-312.3 164.98,-312.15 170.57,-312.05 176.18,-312 181.82,-312 187.43,-312.05"/>
<text xml:space="preserve" text-anchor="middle" x="179" y="-325.8" font-family="sans-serif" font-size="14.00">OrderingWorkflow</text>
</a>
</g>
</g>
<!-- #/domains/commerce/subdomains/sales/boundedcontexts/ordering/services/ordering_workflow&#45;&gt;#/domains/commerce/subdomains/payments/boundedcontexts/payment/services/payment_service -->
<g id="edge1" class="edge">
<title>#/domains/commerce/subdomains/sales/boundedcontexts/ordering/services/ordering_workflow&#45;&gt;#/domains/commerce/subdomains/payments/boundedcontexts/payment/services/payment_service</title>
<path fill="none" stroke="black" d="M139.79,-312.82C112.65,-299.01 83.63,-277.39 97.02,-252 131.01,-187.57 207.95,-146.32 259.18,-124.9"/>
<polygon fill="black" stroke="black" points="260.35,-128.21 268.3,-121.2 257.71,-121.72 260.35,-128.21"/>
<text xml:space="preserve" text-anchor="middle" x="134.51" y="-255" font-family="sans-serif" font-size="10.00">AuthorizePayment</text>
<g id="a_edge1&#45;headlabel"><a xlink:title="open&#45;host&#45;service">
<text xml:space="preserve" text-anchor="middle" x="269.7" y="-117.64" font-family="sans-serif" font-size="10.00">OHS</text>
</a>
</g>
<g id="a_edge1&#45;taillabel"><a xlink:title="customer&#45;supplier">
<text xml:space="preserve" text-anchor="middle" x="139.79" y="-309.82" font-family="sans-serif" font-size="10.00">C/s</text>
</a>
</g>
</g>
<!-- #/domains/commerce/subdomains/sales/boundedcontexts/ordering/services/ordering_workflow&#45;&gt;#/domains/commerce/subdomains/payments/boundedcontexts/payment/services/payment_service -->
<g id="edge2" class="edge">
<title>#/domains/commerce/subdomains/sales/boundedcontexts/ordering/services/ordering_workflow&#45;&gt;#/domains/commerce/subdomains/payments/boundedcontexts/payment/services/payment_service</title>
<path fill="none" stroke="black" d="M188.99,-311.95C211.43,-273.61 266.04,-180.35 293.17,-134.03"/>
<polygon fill="black" stroke="black" points="296.18,-135.81 298.22,-125.42 290.14,-132.28 296.18,-135.81"/>
<text xml:space="preserve" text-anchor="middle" x="254.37" y="-255" font-family="sans-serif" font-size="10.00">CapturePayment</text>
<g id="a_edge2&#45;headlabel"><a xlink:title="open&#45;host&#45;service">
<text xml:space="preserve" text-anchor="middle" x="298.98" y="-121.11" font-family="sans-serif" font-size="10.00">OHS</text>
</a>
</g>
<g id="a_edge2&#45;taillabel"><a xlink:title="customer&#45;supplier">
<text xml:space="preserve" text-anchor="middle" x="188.99" y="-308.95" font-family="sans-serif" font-size="10.00">C/s</text>
</a>
</g>
</g>
<!-- #/domains/commerce/subdomains/sales/boundedcontexts/ordering/services/ordering_workflow&#45;&gt;#/domains/commerce/subdomains/payments/boundedcontexts/payment/services/payment_service -->
<g id="edge3" class="edge">
<title>#/domains/commerce/subdomains/sales/boundedcontexts/ordering/services/ordering_workflow&#45;&gt;#/domains/commerce/subdomains/payments/boundedcontexts/payment/services/payment_service</title>
<path fill="none" stroke="black" d="M233.13,-314.19C258.5,-304.3 286.49,-288.48 302,-264 326.7,-225 321.81,-168.96 315.65,-135.45"/>
<polygon fill="black" stroke="black" points="319.09,-134.79 313.67,-125.68 312.22,-136.17 319.09,-134.79"/>
<text xml:space="preserve" text-anchor="middle" x="355.51" y="-255" font-family="sans-serif" font-size="10.00">PaymentStatusChanged</text>
<g id="a_edge3&#45;headlabel"><a xlink:title="published&#45;language">
<text xml:space="preserve" text-anchor="middle" x="313.38" y="-121.19" font-family="sans-serif" font-size="10.00">PL</text>
</a>
</g>
<g id="a_edge3&#45;taillabel"><a xlink:title="conformist">
<text xml:space="preserve" text-anchor="middle" x="233.13" y="-311.19" font-family="sans-serif" font-size="10.00">C</text>
</a>
</g>
</g>
<!-- #/domains/commerce/subdomains/shopping/boundedcontexts/basket/services/basket_service -->
<g id="node4" class="node">
<title>#/domains/commerce/subdomains/shopping/boundedcontexts/basket/services/basket_service</title>
<g id="a_node4"><a xlink:title="Basket CRUD, pricing snapshot">
<polygon fill="white" stroke="black" points="506.53,-496.05 510.86,-496.15 515.13,-496.3 519.35,-496.49 523.49,-496.74 527.53,-497.03 531.46,-497.36 535.27,-497.75 538.93,-498.18 542.43,-498.65 545.77,-499.16 548.93,-499.71 551.9,-500.31 554.67,-500.94 557.23,-501.61 559.58,-502.31 561.71,-503.04 563.61,-503.8 565.29,-504.59 566.73,-505.41 567.94,-506.25 568.92,-507.11 569.67,-507.99 570.2,-508.89 570.5,-509.8 570.58,-510.72 570.45,-511.65 570.11,-512.59 569.56,-513.53 568.83,-514.47 567.9,-515.41 566.81,-516.35 565.54,-517.28 564.11,-518.2 562.54,-519.11 560.82,-520.01 558.98,-520.89 557.01,-521.75 554.93,-522.59 552.75,-523.41 550.48,-524.2 548.12,-524.96 545.69,-525.69 543.18,-526.39 540.62,-527.06 538.01,-527.69 535.34,-528.29 532.64,-528.84 529.9,-529.35 527.13,-529.82 524.33,-530.25 521.51,-530.64 518.68,-530.97 515.83,-531.26 512.97,-531.51 510.09,-531.7 507.21,-531.85 504.33,-531.95 501.44,-532 498.56,-532 495.67,-531.95 492.79,-531.85 489.91,-531.7 487.03,-531.51 484.17,-531.26 481.32,-530.97 478.49,-530.64 475.67,-530.25 472.87,-529.82 470.1,-529.35 467.36,-528.84 464.66,-528.29 461.99,-527.69 459.38,-527.06 456.82,-526.39 454.31,-525.69 451.88,-524.96 449.52,-524.2 447.25,-523.41 445.07,-522.59 442.99,-521.75 441.02,-520.89 439.18,-520.01 437.46,-519.11 435.89,-518.2 434.46,-517.28 433.19,-516.35 432.1,-515.41 431.17,-514.47 430.44,-513.53 429.89,-512.59 429.55,-511.65 429.42,-510.72 429.5,-509.8 429.8,-508.89 430.33,-507.99 431.08,-507.11 432.06,-506.25 433.27,-505.41 434.71,-504.59 436.39,-503.8 438.29,-503.04 440.42,-502.31 442.77,-501.61 445.33,-500.94 448.1,-500.31 451.07,-499.71 454.23,-499.16 457.57,-498.65 461.07,-498.18 464.73,-497.75 468.54,-497.36 472.47,-497.03 476.51,-496.74 480.65,-496.49 484.87,-496.3 489.14,-496.15 493.47,-496.05 497.82,-496 502.18,-496 506.53,-496.05"/>
<text xml:space="preserve" text-anchor="middle" x="500" y="-509.8" font-family="sans-serif" font-size="14.00">BasketService</text>
</a>
</g>
</g>
<!-- #/domains/commerce/subdomains/sales/boundedcontexts/ordering/services/ordering_app&#45;&gt;#/domains/commerce/subdomains/shopping/boundedcontexts/basket/services/basket_service -->
<g id="edge5" class="edge">
<title>#/domains/commerce/subdomains/sales/boundedcontexts/ordering/services/ordering_app&#45;&gt;#/domains/commerce/subdomains/shopping/boundedcontexts/basket/services/basket_service</title>
<path fill="none" stroke="black" d="M388.01,-348.23C379.44,-372.32 368.15,-416.64 386.34,-448 398.69,-469.29 420.93,-484.2 442.48,-494.32"/>
<polygon fill="black" stroke="black" points="441.01,-497.49 451.57,-498.3 443.82,-491.08 441.01,-497.49"/>
<text xml:space="preserve" text-anchor="middle" x="407.17" y="-439" font-family="sans-serif" font-size="10.00">GetBasket</text>
<g id="a_edge5&#45;headlabel"><a xlink:title="open&#45;host&#45;service">
<text xml:space="preserve" text-anchor="middle" x="452.96" y="-495.9" font-family="sans-serif" font-size="10.00">OHS</text>
</a>
</g>
<g id="a_edge5&#45;taillabel"><a xlink:title="anti&#45;corruption&#45;layer">
<text xml:space="preserve" text-anchor="middle" x="388.01" y="-345.23" font-family="sans-serif" font-size="10.00">ACL</text>
</a>
</g>
</g>
<!-- #/domains/identity&amp;access/subdomains/auth/boundedcontexts/identity/services/identity_service -->
<g id="node6" class="node">
<title>#/domains/identity&amp;access/subdomains/auth/boundedcontexts/identity/services/identity_service</title>
<g id="a_node6"><a xlink:title="Token issuance, user claims">
<polygon fill="white" stroke="black" points="933.9,-88.05 938.47,-88.15 942.99,-88.3 947.45,-88.49 951.82,-88.74 956.09,-89.03 960.24,-89.36 964.26,-89.75 968.13,-90.18 971.84,-90.65 975.37,-91.16 978.7,-91.71 981.84,-92.31 984.77,-92.94 987.48,-93.61 989.96,-94.31 992.2,-95.04 994.21,-95.8 995.98,-96.59 997.51,-97.41 998.79,-98.25 999.83,-99.11 1000.62,-99.99 1001.17,-100.89 1001.49,-101.8 1001.58,-102.72 1001.44,-103.65 1001.08,-104.59 1000.5,-105.53 999.72,-106.47 998.75,-107.41 997.59,-108.35 996.25,-109.28 994.74,-110.2 993.08,-111.11 991.27,-112.01 989.32,-112.89 987.24,-113.75 985.04,-114.59 982.74,-115.41 980.34,-116.2 977.84,-116.96 975.27,-117.69 972.63,-118.39 969.92,-119.06 967.16,-119.69 964.34,-120.29 961.49,-120.84 958.59,-121.35 955.66,-121.82 952.71,-122.25 949.73,-122.64 946.74,-122.97 943.72,-123.26 940.7,-123.51 937.66,-123.7 934.62,-123.85 931.58,-123.95 928.53,-124 925.47,-124 922.42,-123.95 919.38,-123.85 916.34,-123.7 913.3,-123.51 910.28,-123.26 907.26,-122.97 904.27,-122.64 901.29,-122.25 898.34,-121.82 895.41,-121.35 892.51,-120.84 889.66,-120.29 886.84,-119.69 884.08,-119.06 881.37,-118.39 878.73,-117.69 876.16,-116.96 873.66,-116.2 871.26,-115.41 868.96,-114.59 866.76,-113.75 864.68,-112.89 862.73,-112.01 860.92,-111.11 859.26,-110.2 857.75,-109.28 856.41,-108.35 855.25,-107.41 854.28,-106.47 853.5,-105.53 852.92,-104.59 852.56,-103.65 852.42,-102.72 852.51,-101.8 852.83,-100.89 853.38,-99.99 854.17,-99.11 855.21,-98.25 856.49,-97.41 858.02,-96.59 859.79,-95.8 861.8,-95.04 864.04,-94.31 866.52,-93.61 869.23,-92.94 872.16,-92.31 875.3,-91.71 878.63,-91.16 882.16,-90.65 885.87,-90.18 889.74,-89.75 893.76,-89.36 897.91,-89.03 902.18,-88.74 906.55,-88.49 911.01,-88.3 915.53,-88.15 920.1,-88.05 924.7,-88 929.3,-88 933.9,-88.05"/>
<text xml:space="preserve" text-anchor="middle" x="927" y="-101.8" font-family="sans-serif" font-size="14.00">IdentityService</text>
</a>
</g>
</g>
<!-- #/domains/commerce/subdomains/sales/boundedcontexts/ordering/services/ordering_app&#45;&gt;#/domains/identity&amp;access/subdomains/auth/boundedcontexts/identity/services/identity_service -->
<g id="edge8" class="edge">
<title>#/domains/commerce/subdomains/sales/boundedcontexts/ordering/services/ordering_app&#45;&gt;#/domains/identity&amp;access/subdomains/auth/boundedcontexts/identity/services/identity_service</title>
<path fill="none" stroke="black" d="M430.51,-313.63C457.27,-302.09 494.89,-285.94 528,-272 656.07,-218.08 807.89,-155.73 881.9,-125.43"/>
<polygon fill="black" stroke="black" points="882.92,-128.8 890.85,-121.77 880.27,-122.32 882.92,-128.8"/>
<text xml:space="preserve" text-anchor="middle" x="594.23" y="-255" font-family="sans-serif" font-size="10.00">IssueToken</text>
<g id="a_edge8&#45;headlabel"><a xlink:title="open&#45;host&#45;service">
<text xml:space="preserve" text-anchor="middle" x="892.25" y="-118.2" font-family="sans-serif" font-size="10.00">OHS</text>
</a>
</g>
<g id="a_edge8&#45;taillabel"><a xlink:title="anti&#45;corruption&#45;layer">
<text xml:space="preserve" text-anchor="middle" x="430.51" y="-310.63" font-family="sans-serif" font-size="10.00">ACL</text>
</a>
</g>
</g>
<!-- #/domains/customer_experience/subdomains/promotions/boundedcontexts/marketing/services/marketing_service -->
<g id="node7" class="node">
<title>#/domains/customer_experience/subdomains/promotions/boundedcontexts/marketing/services/marketing_service</title>
<g id="a_node7"><a xlink:title="Apply campaigns/discounts">
<polygon fill="white" stroke="black" points="1234.91,-88.05 1240.14,-88.15 1245.32,-88.3 1250.42,-88.49 1255.43,-88.74 1260.32,-89.03 1265.08,-89.36 1269.69,-89.75 1274.12,-90.18 1278.36,-90.65 1282.4,-91.16 1286.23,-91.71 1289.82,-92.31 1293.17,-92.94 1296.27,-93.61 1299.12,-94.31 1301.69,-95.04 1303.99,-95.8 1306.02,-96.59 1307.77,-97.41 1309.24,-98.25 1310.42,-99.11 1311.33,-99.99 1311.97,-100.89 1312.33,-101.8 1312.43,-102.72 1312.27,-103.65 1311.85,-104.59 1311.2,-105.53 1310.31,-106.47 1309.19,-107.41 1307.86,-108.35 1306.33,-109.28 1304.6,-110.2 1302.69,-111.11 1300.62,-112.01 1298.38,-112.89 1296,-113.75 1293.49,-114.59 1290.85,-115.41 1288.1,-116.2 1285.24,-116.96 1282.3,-117.69 1279.27,-118.39 1276.17,-119.06 1273,-119.69 1269.78,-120.29 1266.5,-120.84 1263.19,-121.35 1259.84,-121.82 1256.45,-122.25 1253.04,-122.64 1249.61,-122.97 1246.16,-123.26 1242.69,-123.51 1239.22,-123.7 1235.73,-123.85 1232.24,-123.95 1228.75,-124 1225.25,-124 1221.76,-123.95 1218.27,-123.85 1214.78,-123.7 1211.31,-123.51 1207.84,-123.26 1204.39,-122.97 1200.96,-122.64 1197.55,-122.25 1194.16,-121.82 1190.81,-121.35 1187.5,-120.84 1184.22,-120.29 1181,-119.69 1177.83,-119.06 1174.73,-118.39 1171.7,-117.69 1168.76,-116.96 1165.9,-116.2 1163.15,-115.41 1160.51,-114.59 1158,-113.75 1155.62,-112.89 1153.38,-112.01 1151.31,-111.11 1149.4,-110.2 1147.67,-109.28 1146.14,-108.35 1144.81,-107.41 1143.69,-106.47 1142.8,-105.53 1142.15,-104.59 1141.73,-103.65 1141.57,-102.72 1141.67,-101.8 1142.03,-100.89 1142.67,-99.99 1143.58,-99.11 1144.76,-98.25 1146.23,-97.41 1147.98,-96.59 1150.01,-95.8 1152.31,-95.04 1154.88,-94.31 1157.73,-93.61 1160.83,-92.94 1164.18,-92.31 1167.77,-91.71 1171.6,-91.16 1175.64,-90.65 1179.88,-90.18 1184.31,-89.75 1188.92,-89.36 1193.68,-89.03 1198.57,-88.74 1203.58,-88.49 1208.68,-88.3 1213.86,-88.15 1219.09,-88.05 1224.36,-88 1229.64,-88 1234.91,-88.05"/>
<text xml:space="preserve" text-anchor="middle" x="1227" y="-101.8" font-family="sans-serif" font-size="14.00">MarketingService</text>
</a>
</g>
</g>
<!-- #/domains/commerce/subdomains/sales/boundedcontexts/ordering/services/ordering_app&#45;&gt;#/domains/customer_experience/subdomains/promotions/boundedcontexts/marketing/services/marketing_service -->
<g id="edge9" class="edge">
<title>#/domains/commerce/subdomains/sales/boundedcontexts/ordering/services/ordering_app&#45;&gt;#/domains/customer_experience/subdomains/promotions/boundedcontexts/marketing/services/marketing_service</title>
<path fill="none" stroke="black" d="M424.35,-312.87C450.64,-299.29 490.7,-280.73 528,-272 583.04,-259.11 982.68,-262.78 1036,-244 1104.13,-220 1169.35,-163.7 1203.12,-131.23"/>
<polygon fill="black" stroke="black" points="1205.22,-134.07 1209.93,-124.58 1200.33,-129.07 1205.22,-134.07"/>
<text xml:space="preserve" text-anchor="middle" x="1012.57" y="-255" font-family="sans-serif" font-size="10.00">ApplyCampaigns</text>
<g id="a_edge9&#45;headlabel"><a xlink:title="open&#45;host&#45;service">
<text xml:space="preserve" text-anchor="middle" x="1211.01" y="-120.53" font-family="sans-serif" font-size="10.00">OHS</text>
</a>
</g>
<g id="a_edge9&#45;taillabel"><a xlink:title="anti&#45;corruption&#45;layer">
<text xml:space="preserve" text-anchor="middle" x="424.35" y="-309.87" font-family="sans-serif" font-size="10.00">ACL</text>
</a>
</g>
</g>
<!-- #/domains/customer_experience/subdomains/geodata/boundedcontexts/locations/services/locations_service -->
<g id="node8" class="node">
<title>#/domains/customer_experience/subdomains/geodata/boundedcontexts/locations/services/locations_service</title>
<g id="a_node8"><a xlink:title="Resolve/validate location data">
<polygon fill="white" stroke="black" points="1502.69,-88.05 1507.79,-88.15 1512.83,-88.3 1517.8,-88.49 1522.67,-88.74 1527.43,-89.03 1532.06,-89.36 1536.54,-89.75 1540.86,-90.18 1544.99,-90.65 1548.92,-91.16 1552.64,-91.71 1556.14,-92.31 1559.4,-92.94 1562.42,-93.61 1565.19,-94.31 1567.69,-95.04 1569.94,-95.8 1571.91,-96.59 1573.61,-97.41 1575.04,-98.25 1576.19,-99.11 1577.08,-99.99 1577.7,-100.89 1578.05,-101.8 1578.14,-102.72 1577.99,-103.65 1577.58,-104.59 1576.95,-105.53 1576.08,-106.47 1574.99,-107.41 1573.7,-108.35 1572.2,-109.28 1570.52,-110.2 1568.67,-111.11 1566.65,-112.01 1564.47,-112.89 1562.16,-113.75 1559.71,-114.59 1557.14,-115.41 1554.46,-116.2 1551.69,-116.96 1548.82,-117.69 1545.87,-118.39 1542.85,-119.06 1539.77,-119.69 1536.63,-120.29 1533.45,-120.84 1530.22,-121.35 1526.96,-121.82 1523.66,-122.25 1520.34,-122.64 1517,-122.97 1513.65,-123.26 1510.27,-123.51 1506.89,-123.7 1503.5,-123.85 1500.1,-123.95 1496.7,-124 1493.3,-124 1489.9,-123.95 1486.5,-123.85 1483.11,-123.7 1479.73,-123.51 1476.35,-123.26 1473,-122.97 1469.66,-122.64 1466.34,-122.25 1463.04,-121.82 1459.78,-121.35 1456.55,-120.84 1453.37,-120.29 1450.23,-119.69 1447.15,-119.06 1444.13,-118.39 1441.18,-117.69 1438.31,-116.96 1435.54,-116.2 1432.86,-115.41 1430.29,-114.59 1427.84,-113.75 1425.53,-112.89 1423.35,-112.01 1421.33,-111.11 1419.48,-110.2 1417.8,-109.28 1416.3,-108.35 1415.01,-107.41 1413.92,-106.47 1413.05,-105.53 1412.42,-104.59 1412.01,-103.65 1411.86,-102.72 1411.95,-101.8 1412.3,-100.89 1412.92,-99.99 1413.81,-99.11 1414.96,-98.25 1416.39,-97.41 1418.09,-96.59 1420.06,-95.8 1422.31,-95.04 1424.81,-94.31 1427.58,-93.61 1430.6,-92.94 1433.86,-92.31 1437.36,-91.71 1441.08,-91.16 1445.01,-90.65 1449.14,-90.18 1453.46,-89.75 1457.94,-89.36 1462.57,-89.03 1467.33,-88.74 1472.2,-88.49 1477.17,-88.3 1482.21,-88.15 1487.31,-88.05 1492.43,-88 1497.57,-88 1502.69,-88.05"/>
<text xml:space="preserve" text-anchor="middle" x="1495" y="-101.8" font-family="sans-serif" font-size="14.00">LocationsService</text>
</a>
</g>
</g>
<!-- #/domains/commerce/subdomains/sales/boundedcontexts/ordering/services/ordering_app&#45;&gt;#/domains/customer_experience/subdomains/geodata/boundedcontexts/locations/services/locations_service -->
<g id="edge10" class="edge">
<title>#/domains/commerce/subdomains/sales/boundedcontexts/ordering/services/ordering_app&#45;&gt;#/domains/customer_experience/subdomains/geodata/boundedcontexts/locations/services/locations_service</title>
<path fill="none" stroke="black" d="M423.5,-312.9C449.72,-299.05 490.16,-280.06 528,-272 586.04,-259.63 1002.71,-266.53 1062,-264 1188.42,-258.61 1229.8,-294.08 1346,-244 1402.1,-219.82 1450.72,-165.31 1476.14,-132.81"/>
<polygon fill="black" stroke="black" points="1478.76,-135.14 1482.06,-125.08 1473.2,-130.89 1478.76,-135.14"/>
<text xml:space="preserve" text-anchor="middle" x="1359.74" y="-255" font-family="sans-serif" font-size="10.00">ResolveLocation</text>
<g id="a_edge10&#45;headlabel"><a xlink:title="open&#45;host&#45;service">
<text xml:space="preserve" text-anchor="middle" x="1482.98" y="-120.87" font-family="sans-serif" font-size="10.00">OHS</text>
</a>
</g>
<g id="a_edge10&#45;taillabel"><a xlink:title="anti&#45;corruption&#45;layer">
<text xml:space="preserve" text-anchor="middle" x="423.5" y="-309.9" font-family="sans-serif" font-size="10.00">ACL</text>
</a>
</g>
</g>
<!-- #/domains/commerce/subdomains/shopping/boundedcontexts/basket/services/basket_service&#45;&gt;#/domains/commerce/subdomains/sales/boundedcontexts/ordering/services/ordering_app -->
<g id="edge7" class="edge">
<title>#/domains/commerce/subdomains/shopping/boundedcontexts/basket/services/basket_service&#45;&gt;#/domains/commerce/subdomains/sales/boundedcontexts/ordering/services/ordering_app</title>
<path fill="none" stroke="black" d="M490.12,-495.88C471.78,-464.09 432.35,-395.74 410.45,-357.79"/>
<polygon fill="black" stroke="black" points="413.56,-356.17 405.53,-349.26 407.5,-359.67 413.56,-356.17"/>
<text xml:space="preserve" text-anchor="middle" x="485.82" y="-439" font-family="sans-serif" font-size="10.00">OrderStarted</text>
<g id="a_edge7&#45;headlabel"><a xlink:title="published&#45;language">
<text xml:space="preserve" text-anchor="middle" x="404.78" y="-344.94" font-family="sans-serif" font-size="10.00">PL</text>
</a>
</g>
<g id="a_edge7&#45;taillabel"><a xlink:title="conformist">
<text xml:space="preserve" text-anchor="middle" x="490.12" y="-492.88" font-family="sans-serif" font-size="10.00">C</text>
</a>
</g>
</g>
<!-- #/domains/commerce/subdomains/cataloging/boundedcontexts/catalog/services/catalog_service -->
<g id="node5" class="node">
<title>#/domains/commerce/subdomains/cataloging/boundedcontexts/catalog/services/catalog_service</title>
<g id="a_node5"><a xlink:title="Queries, pricing updates, stock">
<polygon fill="white" stroke="black" points="643.9,-312.05 648.47,-312.15 652.99,-312.3 657.45,-312.49 661.82,-312.74 666.09,-313.03 670.24,-313.36 674.26,-313.75 678.13,-314.18 681.84,-314.65 685.37,-315.16 688.7,-315.71 691.84,-316.31 694.77,-316.94 697.48,-317.61 699.96,-318.31 702.2,-319.04 704.21,-319.8 705.98,-320.59 707.51,-321.41 708.79,-322.25 709.83,-323.11 710.62,-323.99 711.17,-324.89 711.49,-325.8 711.58,-326.72 711.44,-327.65 711.08,-328.59 710.5,-329.53 709.72,-330.47 708.75,-331.41 707.59,-332.35 706.25,-333.28 704.74,-334.2 703.08,-335.11 701.27,-336.01 699.32,-336.89 697.24,-337.75 695.04,-338.59 692.74,-339.41 690.34,-340.2 687.84,-340.96 685.27,-341.69 682.63,-342.39 679.92,-343.06 677.16,-343.69 674.34,-344.29 671.49,-344.84 668.59,-345.35 665.66,-345.82 662.71,-346.25 659.73,-346.64 656.74,-346.97 653.72,-347.26 650.7,-347.51 647.66,-347.7 644.62,-347.85 641.58,-347.95 638.53,-348 635.47,-348 632.42,-347.95 629.38,-347.85 626.34,-347.7 623.3,-347.51 620.28,-347.26 617.26,-346.97 614.27,-346.64 611.29,-346.25 608.34,-345.82 605.41,-345.35 602.51,-344.84 599.66,-344.29 596.84,-343.69 594.08,-343.06 591.37,-342.39 588.73,-341.69 586.16,-340.96 583.66,-340.2 581.26,-339.41 578.96,-338.59 576.76,-337.75 574.68,-336.89 572.73,-336.01 570.92,-335.11 569.26,-334.2 567.75,-333.28 566.41,-332.35 565.25,-331.41 564.28,-330.47 563.5,-329.53 562.92,-328.59 562.56,-327.65 562.42,-326.72 562.51,-325.8 562.83,-324.89 563.38,-323.99 564.17,-323.11 565.21,-322.25 566.49,-321.41 568.02,-320.59 569.79,-319.8 571.8,-319.04 574.04,-318.31 576.52,-317.61 579.23,-316.94 582.16,-316.31 585.3,-315.71 588.63,-315.16 592.16,-314.65 595.87,-314.18 599.74,-313.75 603.76,-313.36 607.91,-313.03 612.18,-312.74 616.55,-312.49 621.01,-312.3 625.53,-312.15 630.1,-312.05 634.7,-312 639.3,-312 643.9,-312.05"/>
<text xml:space="preserve" text-anchor="middle" x="637" y="-325.8" font-family="sans-serif" font-size="14.00">CatalogService</text>
</a>
</g>
</g>
<!-- #/domains/commerce/subdomains/shopping/boundedcontexts/basket/services/basket_service&#45;&gt;#/domains/commerce/subdomains/cataloging/boundedcontexts/catalog/services/catalog_service -->
<g id="edge6" class="edge">
<title>#/domains/commerce/subdomains/shopping/boundedcontexts/basket/services/basket_service&#45;&gt;#/domains/commerce/subdomains/cataloging/boundedcontexts/catalog/services/catalog_service</title>
<path fill="none" stroke="black" d="M512.89,-495.88C537.02,-463.82 589.15,-394.57 617.56,-356.82"/>
<polygon fill="black" stroke="black" points="620.12,-359.25 623.34,-349.15 614.52,-355.04 620.12,-359.25"/>
<text xml:space="preserve" text-anchor="middle" x="599.83" y="-439" font-family="sans-serif" font-size="10.00">ProductPriceChanged</text>
<g id="a_edge6&#45;headlabel"><a xlink:title="published&#45;language">
<text xml:space="preserve" text-anchor="middle" x="624.25" y="-344.94" font-family="sans-serif" font-size="10.00">PL</text>
</a>
</g>
<g id="a_edge6&#45;taillabel"><a xlink:title="conformist">
<text xml:space="preserve" text-anchor="middle" x="512.89" y="-492.88" font-family="sans-serif" font-size="10.00">C</text>
</a>
</g>
</g>
</g>
</svg>
