<?xml version="1.0" encoding="UTF-8" standalone="no"?>
<?xml-stylesheet href="data:text/css,.graph%20text%20%7B%0A%09font-family%3A%20sans-serif%3B%0A%09stroke%3A%20white%3B%0A%09paint-order%3A%20stroke%3B%0A%09stroke-width%3A%203%3B%0A%09stroke-linecap%3A%20square%3B%0A%7D%0A%0A.namespace%20polygon%20%7B%0A%09fill-opacity%3A%200.2%3B%0A%09stroke%3A%20none%3B%0A%7D%0A" type="text/css"?>
<!DOCTYPE svg PUBLIC "-//W3C//DTD SVG 1.1//EN"
 "http://www.w3.org/Graphics/SVG/1.1/DTD/svg11.dtd">
<!-- Generated by graphviz version 13.1.2 (0)
 -->
<!-- Pages: 1 -->
<svg width="830pt" height="676pt"
 viewBox="0.00 0.00 830.00 676.00" xmlns="http://www.w3.org/2000/svg" xmlns:xlink="http://www.w3.org/1999/xlink">
<g id="graph0" class="graph" transform="scale(1 1) rotate(0) translate(4 672)">
<polygon fill="white" stroke="none" points="-4,4 -4,-672 826,-672 826,4 -4,4"/>
<g id="clust1" class="cluster namespace">
<title>swagger_petstore_(v3)</title>
<polygon fill="lightgrey" stroke="lightgrey" points="8,-8 8,-660 814,-660 814,-8 8,-8"/>
<text xml:space="preserve" text-anchor="middle" x="411" y="-647" font-family="sans-serif" font-size="10.00">Swagger Petstore (v3)</text>
</g>
<g id="clust2" class="cluster namespace">
<title>#/domains/petstore_commerce</title>
<polygon fill="lightgrey" stroke="lightgrey" points="28,-28 28,-620 794,-620 794,-28 28,-28"/>
<text xml:space="preserve" text-anchor="middle" x="411" y="-607" font-family="sans-serif" font-size="10.00">Petstore Commerce</text>
</g>
<g id="clust3" class="cluster namespace">
<title>#/domains/petstore_commerce/subdomains/inventory</title>
<polygon fill="lightgrey" stroke="lightgrey" points="287,-268 287,-580 513,-580 513,-268 287,-268"/>
<text xml:space="preserve" text-anchor="middle" x="400" y="-567" font-family="sans-serif" font-size="10.00">Inventory</text>
</g>
<g id="clust4" class="cluster namespace">
<title>#/domains/petstore_commerce/subdomains/inventory/boundedcontexts/inventory_bc</title>
<polygon fill="lightgrey" stroke="lightgrey" points="307,-288 307,-540 493,-540 493,-288 307,-288"/>
<text xml:space="preserve" text-anchor="middle" x="400" y="-527" font-family="sans-serif" font-size="10.00">Inventory BC</text>
</g>
<g id="clust5" class="cluster namespace">
<title>#/domains/petstore_commerce/subdomains/catalog</title>
<polygon fill="lightgrey" stroke="lightgrey" points="128,-48 128,-240 322,-240 322,-48 128,-48"/>
<text xml:space="preserve" text-anchor="middle" x="225" y="-227" font-family="sans-serif" font-size="10.00">Catalog</text>
</g>
<g id="clust6" class="cluster namespace">
<title>#/domains/petstore_commerce/subdomains/catalog/boundedcontexts/catalog_bc</title>
<polygon fill="lightgrey" stroke="lightgrey" points="148,-68 148,-200 302,-200 302,-68 148,-68"/>
<text xml:space="preserve" text-anchor="middle" x="225" y="-187" font-family="sans-serif" font-size="10.00">Catalog BC</text>
</g>
<g id="clust7" class="cluster namespace">
<title>#/domains/petstore_commerce/subdomains/sales</title>
<polygon fill="lightgrey" stroke="lightgrey" points="497,-48 497,-240 691,-240 691,-48 497,-48"/>
<text xml:space="preserve" text-anchor="middle" x="594" y="-227" font-family="sans-serif" font-size="10.00">Sales</text>
</g>
<g id="clust8" class="cluster namespace">
<title>#/domains/petstore_commerce/subdomains/sales/boundedcontexts/sales_bc</title>
<polygon fill="lightgrey" stroke="lightgrey" points="517,-68 517,-200 671,-200 671,-68 517,-68"/>
<text xml:space="preserve" text-anchor="middle" x="594" y="-187" font-family="sans-serif" font-size="10.00">Sales BC</text>
</g>
<!-- #/domains/petstore_commerce/subdomains/inventory/boundedcontexts/inventory_bc/aggregates/inventory_projection -->
<g id="node1" class="node">
<title>#/domains/petstore_commerce/subdomains/inventory/boundedcontexts/inventory_bc/aggregates/inventory_projection</title>
<g id="a_node1"><a xlink:title="Materialized view: { available: number, pending: number, sold: number }">
<polygon fill="white" stroke="black" points="406.72,-308.1 411.16,-308.3 415.56,-308.59 419.9,-308.98 424.16,-309.47 428.31,-310.05 432.36,-310.73 436.27,-311.5 440.03,-312.35 443.64,-313.29 447.07,-314.32 450.32,-315.43 453.37,-316.62 456.22,-317.88 458.86,-319.21 461.27,-320.61 463.46,-322.08 465.42,-323.6 467.14,-325.18 468.62,-326.82 469.87,-328.5 470.88,-330.22 471.65,-331.98 472.19,-333.77 472.5,-335.59 472.58,-337.44 472.45,-339.3 472.09,-341.17 471.54,-343.06 470.78,-344.94 469.83,-346.83 468.7,-348.7 467.4,-350.56 465.93,-352.41 464.31,-354.23 462.55,-356.02 460.65,-357.78 458.63,-359.5 456.49,-361.18 454.25,-362.82 451.91,-364.4 449.49,-365.92 446.98,-367.39 444.41,-368.79 441.77,-370.12 439.08,-371.38 436.35,-372.57 433.56,-373.68 430.75,-374.71 427.9,-375.65 425.02,-376.5 422.13,-377.27 419.21,-377.95 416.28,-378.53 413.33,-379.02 410.38,-379.41 407.42,-379.7 404.45,-379.9 401.48,-380 398.52,-380 395.55,-379.9 392.58,-379.7 389.62,-379.41 386.67,-379.02 383.72,-378.53 380.79,-377.95 377.87,-377.27 374.98,-376.5 372.1,-375.65 369.25,-374.71 366.44,-373.68 363.65,-372.57 360.92,-371.38 358.23,-370.12 355.59,-368.79 353.02,-367.39 350.51,-365.92 348.09,-364.4 345.75,-362.82 343.51,-361.18 341.37,-359.5 339.35,-357.78 337.45,-356.02 335.69,-354.23 334.07,-352.41 332.6,-350.56 331.3,-348.7 330.17,-346.83 329.22,-344.94 328.46,-343.06 327.91,-341.17 327.55,-339.3 327.42,-337.44 327.5,-335.59 327.81,-333.77 328.35,-331.98 329.12,-330.22 330.13,-328.5 331.38,-326.82 332.86,-325.18 334.58,-323.6 336.54,-322.08 338.73,-320.61 341.14,-319.21 343.78,-317.88 346.63,-316.62 349.68,-315.43 352.93,-314.32 356.36,-313.29 359.97,-312.35 363.73,-311.5 367.64,-310.73 371.69,-310.05 375.84,-309.47 380.1,-308.98 384.44,-308.59 388.84,-308.3 393.28,-308.1 397.76,-308 402.24,-308 406.72,-308.1"/>
<text xml:space="preserve" text-anchor="middle" x="400" y="-339.8" font-family="sans-serif" font-size="14.00">InventoryProjection</text>
</a>
</g>
</g>
<!-- #/domains/petstore_commerce/subdomains/catalog/boundedcontexts/catalog_bc/aggregates/pet -->
<g id="node3" class="node">
<title>#/domains/petstore_commerce/subdomains/catalog/boundedcontexts/catalog_bc/aggregates/pet</title>
<g id="a_node3"><a xlink:title="A pet listed in the store">
<polygon fill="white" stroke="black" points="230.32,-88.1 233.84,-88.3 237.33,-88.59 240.76,-88.98 244.13,-89.47 247.42,-90.05 250.63,-90.73 253.72,-91.5 256.71,-92.35 259.56,-93.29 262.28,-94.32 264.85,-95.43 267.27,-96.62 269.53,-97.88 271.62,-99.21 273.53,-100.61 275.26,-102.08 276.81,-103.6 278.17,-105.18 279.35,-106.82 280.34,-108.5 281.14,-110.22 281.75,-111.98 282.18,-113.77 282.42,-115.59 282.49,-117.44 282.38,-119.3 282.1,-121.17 281.66,-123.06 281.06,-124.94 280.31,-126.83 279.41,-128.7 278.38,-130.56 277.22,-132.41 275.94,-134.23 274.54,-136.02 273.03,-137.78 271.43,-139.5 269.74,-141.18 267.96,-142.82 266.11,-144.4 264.19,-145.92 262.21,-147.39 260.17,-148.79 258.09,-150.12 255.96,-151.38 253.79,-152.57 251.58,-153.68 249.35,-154.71 247.1,-155.65 244.82,-156.5 242.52,-157.27 240.21,-157.95 237.89,-158.53 235.56,-159.02 233.22,-159.41 230.88,-159.7 228.53,-159.9 226.18,-160 223.82,-160 221.47,-159.9 219.12,-159.7 216.78,-159.41 214.44,-159.02 212.11,-158.53 209.79,-157.95 207.48,-157.27 205.18,-156.5 202.9,-155.65 200.65,-154.71 198.42,-153.68 196.21,-152.57 194.04,-151.38 191.91,-150.12 189.83,-148.79 187.79,-147.39 185.81,-145.92 183.89,-144.4 182.04,-142.82 180.26,-141.18 178.57,-139.5 176.97,-137.78 175.46,-136.02 174.06,-134.23 172.78,-132.41 171.62,-130.56 170.59,-128.7 169.69,-126.83 168.94,-124.94 168.34,-123.06 167.9,-121.17 167.62,-119.3 167.51,-117.44 167.58,-115.59 167.82,-113.77 168.25,-111.98 168.86,-110.22 169.66,-108.5 170.65,-106.82 171.83,-105.18 173.19,-103.6 174.74,-102.08 176.47,-100.61 178.38,-99.21 180.47,-97.88 182.73,-96.62 185.15,-95.43 187.72,-94.32 190.44,-93.29 193.29,-92.35 196.28,-91.5 199.37,-90.73 202.58,-90.05 205.87,-89.47 209.24,-88.98 212.67,-88.59 216.16,-88.3 219.68,-88.1 223.22,-88 226.78,-88 230.32,-88.1"/>
<text xml:space="preserve" text-anchor="middle" x="225" y="-119.8" font-family="sans-serif" font-size="14.00">Pet</text>
</a>
</g>
</g>
<!-- #/domains/petstore_commerce/subdomains/inventory/boundedcontexts/inventory_bc/aggregates/inventory_projection&#45;&gt;#/domains/petstore_commerce/subdomains/catalog/boundedcontexts/catalog_bc/aggregates/pet -->
<g id="edge2" class="edge">
<title>#/domains/petstore_commerce/subdomains/inventory/boundedcontexts/inventory_bc/aggregates/inventory_projection&#45;&gt;#/domains/petstore_commerce/subdomains/catalog/boundedcontexts/catalog_bc/aggregates/pet</title>
<path fill="none" stroke="black" d="M327.52,-333.27C247.19,-320.83 125.24,-296.43 97.46,-260 65.79,-218.47 125.26,-175.45 173.21,-149.45"/>
<polygon fill="black" stroke="black" points="174.68,-152.63 181.89,-144.87 171.41,-146.44 174.68,-152.63"/>
<text xml:space="preserve" text-anchor="middle" x="125.23" y="-251" font-family="sans-serif" font-size="10.00">PetRegistered</text>
<g id="a_edge2&#45;headlabel"><a xlink:title="published&#45;language">
<text xml:space="preserve" text-anchor="middle" x="183.23" y="-141.17" font-family="sans-serif" font-size="10.00">PL</text>
</a>
</g>
<g id="a_edge2&#45;taillabel"><a xlink:title="conformist">
<text xml:space="preserve" text-anchor="middle" x="327.52" y="-330.27" font-family="sans-serif" font-size="10.00">C</text>
</a>
</g>
</g>
<!-- #/domains/petstore_commerce/subdomains/inventory/boundedcontexts/inventory_bc/aggregates/inventory_projection&#45;&gt;#/domains/petstore_commerce/subdomains/catalog/boundedcontexts/catalog_bc/aggregates/pet -->
<g id="edge3" class="edge">
<title>#/domains/petstore_commerce/subdomains/inventory/boundedcontexts/inventory_bc/aggregates/inventory_projection&#45;&gt;#/domains/petstore_commerce/subdomains/catalog/boundedcontexts/catalog_bc/aggregates/pet</title>
<path fill="none" stroke="black" d="M328.63,-330.4C288.22,-319.21 240.92,-298.4 216.13,-260 199.03,-233.52 202.29,-197.71 209.27,-169.62"/>
<polygon fill="black" stroke="black" points="212.55,-170.92 211.81,-160.35 205.79,-169.07 212.55,-170.92"/>
<text xml:space="preserve" text-anchor="middle" x="238.06" y="-251" font-family="sans-serif" font-size="10.00">PetDeleted</text>
<g id="a_edge3&#45;headlabel"><a xlink:title="published&#45;language">
<text xml:space="preserve" text-anchor="middle" x="212.21" y="-155.89" font-family="sans-serif" font-size="10.00">PL</text>
</a>
</g>
<g id="a_edge3&#45;taillabel"><a xlink:title="conformist">
<text xml:space="preserve" text-anchor="middle" x="328.63" y="-327.4" font-family="sans-serif" font-size="10.00">C</text>
</a>
</g>
</g>
<!-- #/domains/petstore_commerce/subdomains/inventory/boundedcontexts/inventory_bc/aggregates/inventory_projection&#45;&gt;#/domains/petstore_commerce/subdomains/catalog/boundedcontexts/catalog_bc/aggregates/pet -->
<g id="edge4" class="edge">
<title>#/domains/petstore_commerce/subdomains/inventory/boundedcontexts/inventory_bc/aggregates/inventory_projection&#45;&gt;#/domains/petstore_commerce/subdomains/catalog/boundedcontexts/catalog_bc/aggregates/pet</title>
<path fill="none" stroke="black" d="M368.08,-310.28C353.92,-295.32 337.31,-277.14 323.23,-260 298.04,-229.35 271.71,-192.88 252.66,-165.58"/>
<polygon fill="black" stroke="black" points="255.68,-163.8 247.1,-157.58 249.93,-167.79 255.68,-163.8"/>
<text xml:space="preserve" text-anchor="middle" x="359.61" y="-251" font-family="sans-serif" font-size="10.00">PetStatusChanged</text>
<g id="a_edge4&#45;headlabel"><a xlink:title="published&#45;language">
<text xml:space="preserve" text-anchor="middle" x="246.24" y="-153.33" font-family="sans-serif" font-size="10.00">PL</text>
</a>
</g>
<g id="a_edge4&#45;taillabel"><a xlink:title="conformist">
<text xml:space="preserve" text-anchor="middle" x="368.08" y="-307.28" font-family="sans-serif" font-size="10.00">C</text>
</a>
</g>
</g>
<!-- #/domains/petstore_commerce/subdomains/sales/boundedcontexts/sales_bc/aggregates/order -->
<g id="node4" class="node">
<title>#/domains/petstore_commerce/subdomains/sales/boundedcontexts/sales_bc/aggregates/order</title>
<g id="a_node4"><a xlink:title="Order for a single pet">
<polygon fill="white" stroke="black" points="599.32,-88.1 602.84,-88.3 606.33,-88.59 609.76,-88.98 613.13,-89.47 616.42,-90.05 619.63,-90.73 622.72,-91.5 625.71,-92.35 628.56,-93.29 631.28,-94.32 633.85,-95.43 636.27,-96.62 638.53,-97.88 640.62,-99.21 642.53,-100.61 644.26,-102.08 645.81,-103.6 647.17,-105.18 648.35,-106.82 649.34,-108.5 650.14,-110.22 650.75,-111.98 651.18,-113.77 651.42,-115.59 651.49,-117.44 651.38,-119.3 651.1,-121.17 650.66,-123.06 650.06,-124.94 649.31,-126.83 648.41,-128.7 647.38,-130.56 646.22,-132.41 644.94,-134.23 643.54,-136.02 642.03,-137.78 640.43,-139.5 638.74,-141.18 636.96,-142.82 635.11,-144.4 633.19,-145.92 631.21,-147.39 629.17,-148.79 627.09,-150.12 624.96,-151.38 622.79,-152.57 620.58,-153.68 618.35,-154.71 616.1,-155.65 613.82,-156.5 611.52,-157.27 609.21,-157.95 606.89,-158.53 604.56,-159.02 602.22,-159.41 599.88,-159.7 597.53,-159.9 595.18,-160 592.82,-160 590.47,-159.9 588.12,-159.7 585.78,-159.41 583.44,-159.02 581.11,-158.53 578.79,-157.95 576.48,-157.27 574.18,-156.5 571.9,-155.65 569.65,-154.71 567.42,-153.68 565.21,-152.57 563.04,-151.38 560.91,-150.12 558.83,-148.79 556.79,-147.39 554.81,-145.92 552.89,-144.4 551.04,-142.82 549.26,-141.18 547.57,-139.5 545.97,-137.78 544.46,-136.02 543.06,-134.23 541.78,-132.41 540.62,-130.56 539.59,-128.7 538.69,-126.83 537.94,-124.94 537.34,-123.06 536.9,-121.17 536.62,-119.3 536.51,-117.44 536.58,-115.59 536.82,-113.77 537.25,-111.98 537.86,-110.22 538.66,-108.5 539.65,-106.82 540.83,-105.18 542.19,-103.6 543.74,-102.08 545.47,-100.61 547.38,-99.21 549.47,-97.88 551.73,-96.62 554.15,-95.43 556.72,-94.32 559.44,-93.29 562.29,-92.35 565.28,-91.5 568.37,-90.73 571.58,-90.05 574.87,-89.47 578.24,-88.98 581.67,-88.59 585.16,-88.3 588.68,-88.1 592.22,-88 595.78,-88 599.32,-88.1"/>
<text xml:space="preserve" text-anchor="middle" x="594" y="-119.8" font-family="sans-serif" font-size="14.00">Order</text>
</a>
</g>
</g>
<!-- #/domains/petstore_commerce/subdomains/inventory/boundedcontexts/inventory_bc/aggregates/inventory_projection&#45;&gt;#/domains/petstore_commerce/subdomains/sales/boundedcontexts/sales_bc/aggregates/order -->
<g id="edge5" class="edge">
<title>#/domains/petstore_commerce/subdomains/inventory/boundedcontexts/inventory_bc/aggregates/inventory_projection&#45;&gt;#/domains/petstore_commerce/subdomains/sales/boundedcontexts/sales_bc/aggregates/order</title>
<path fill="none" stroke="black" d="M418.21,-308.47C428.85,-289.73 443.2,-266.64 458.69,-248 486.7,-214.29 523.85,-181.16 552.14,-157.8"/>
<polygon fill="black" stroke="black" points="554.29,-160.56 559.81,-151.52 549.86,-155.14 554.29,-160.56"/>
<text xml:space="preserve" text-anchor="middle" x="490.34" y="-251" font-family="sans-serif" font-size="10.00">OrderApproved</text>
<g id="a_edge5&#45;headlabel"><a xlink:title="published&#45;language">
<text xml:space="preserve" text-anchor="middle" x="560.99" y="-147.57" font-family="sans-serif" font-size="10.00">PL</text>
</a>
</g>
<g id="a_edge5&#45;taillabel"><a xlink:title="conformist">
<text xml:space="preserve" text-anchor="middle" x="418.21" y="-305.47" font-family="sans-serif" font-size="10.00">C</text>
</a>
</g>
</g>
<!-- #/domains/petstore_commerce/subdomains/inventory/boundedcontexts/inventory_bc/aggregates/inventory_projection&#45;&gt;#/domains/petstore_commerce/subdomains/sales/boundedcontexts/sales_bc/aggregates/order -->
<g id="edge6" class="edge">
<title>#/domains/petstore_commerce/subdomains/inventory/boundedcontexts/inventory_bc/aggregates/inventory_projection&#45;&gt;#/domains/petstore_commerce/subdomains/sales/boundedcontexts/sales_bc/aggregates/order</title>
<path fill="none" stroke="black" d="M455.69,-317.4C481.5,-303.36 511.03,-283.91 532,-260 554.75,-234.07 570.65,-198.38 580.65,-170.22"/>
<polygon fill="black" stroke="black" points="583.92,-171.46 583.83,-160.87 577.29,-169.2 583.92,-171.46"/>
<text xml:space="preserve" text-anchor="middle" x="570.94" y="-251" font-family="sans-serif" font-size="10.00">OrderDelivered</text>
<g id="a_edge6&#45;headlabel"><a xlink:title="published&#45;language">
<text xml:space="preserve" text-anchor="middle" x="584.32" y="-156.44" font-family="sans-serif" font-size="10.00">PL</text>
</a>
</g>
<g id="a_edge6&#45;taillabel"><a xlink:title="conformist">
<text xml:space="preserve" text-anchor="middle" x="455.69" y="-314.4" font-family="sans-serif" font-size="10.00">C</text>
</a>
</g>
</g>
<!-- #/domains/petstore_commerce/subdomains/inventory/boundedcontexts/inventory_bc/aggregates/inventory_projection&#45;&gt;#/domains/petstore_commerce/subdomains/sales/boundedcontexts/sales_bc/aggregates/order -->
<g id="edge7" class="edge">
<title>#/domains/petstore_commerce/subdomains/inventory/boundedcontexts/inventory_bc/aggregates/inventory_projection&#45;&gt;#/domains/petstore_commerce/subdomains/sales/boundedcontexts/sales_bc/aggregates/order</title>
<path fill="none" stroke="black" d="M472.98,-335.92C522.32,-326.91 584.09,-306.44 616,-260 634.42,-233.19 626.83,-196.41 615.78,-168.01"/>
<polygon fill="black" stroke="black" points="619.09,-166.85 612.01,-158.97 612.63,-169.55 619.09,-166.85"/>
<text xml:space="preserve" text-anchor="middle" x="648.45" y="-251" font-family="sans-serif" font-size="10.00">OrderDeleted</text>
<g id="a_edge7&#45;headlabel"><a xlink:title="published&#45;language">
<text xml:space="preserve" text-anchor="middle" x="611.43" y="-154.58" font-family="sans-serif" font-size="10.00">PL</text>
</a>
</g>
<g id="a_edge7&#45;taillabel"><a xlink:title="conformist">
<text xml:space="preserve" text-anchor="middle" x="472.98" y="-332.92" font-family="sans-serif" font-size="10.00">C</text>
</a>
</g>
</g>
<!-- #/domains/petstore_commerce/subdomains/inventory/boundedcontexts/inventory_bc/services/inventory_query -->
<g id="node2" class="node">
<title>#/domains/petstore_commerce/subdomains/inventory/boundedcontexts/inventory_bc/services/inventory_query</title>
<g id="a_node2"><a xlink:title="Projection for /store/inventory (status→count)">
<polygon fill="white" stroke="black" points="405.53,-428.1 409.2,-428.3 412.82,-428.59 416.39,-428.98 419.9,-429.47 423.32,-430.05 426.65,-430.73 429.87,-431.5 432.98,-432.35 435.95,-433.29 438.77,-434.32 441.45,-435.43 443.97,-436.62 446.31,-437.88 448.48,-439.21 450.47,-440.61 452.27,-442.08 453.89,-443.6 455.3,-445.18 456.53,-446.82 457.55,-448.5 458.38,-450.22 459.02,-451.98 459.47,-453.77 459.72,-455.59 459.79,-457.44 459.68,-459.3 459.39,-461.17 458.93,-463.06 458.3,-464.94 457.52,-466.83 456.59,-468.7 455.52,-470.56 454.31,-472.41 452.97,-474.23 451.52,-476.02 449.96,-477.78 448.29,-479.5 446.53,-481.18 444.68,-482.82 442.76,-484.4 440.76,-485.92 438.7,-487.39 436.58,-488.79 434.41,-490.12 432.19,-491.38 429.94,-492.57 427.65,-493.68 425.33,-494.71 422.98,-495.65 420.61,-496.5 418.22,-497.27 415.82,-497.95 413.41,-498.53 410.98,-499.02 408.55,-499.41 406.11,-499.7 403.67,-499.9 401.22,-500 398.78,-500 396.33,-499.9 393.89,-499.7 391.45,-499.41 389.02,-499.02 386.59,-498.53 384.18,-497.95 381.78,-497.27 379.39,-496.5 377.02,-495.65 374.67,-494.71 372.35,-493.68 370.06,-492.57 367.81,-491.38 365.59,-490.12 363.42,-488.79 361.3,-487.39 359.24,-485.92 357.24,-484.4 355.32,-482.82 353.47,-481.18 351.71,-479.5 350.04,-477.78 348.48,-476.02 347.03,-474.23 345.69,-472.41 344.48,-470.56 343.41,-468.7 342.48,-466.83 341.7,-464.94 341.07,-463.06 340.61,-461.17 340.32,-459.3 340.21,-457.44 340.28,-455.59 340.53,-453.77 340.98,-451.98 341.62,-450.22 342.45,-448.5 343.47,-446.82 344.7,-445.18 346.11,-443.6 347.73,-442.08 349.53,-440.61 351.52,-439.21 353.69,-437.88 356.03,-436.62 358.55,-435.43 361.23,-434.32 364.05,-433.29 367.02,-432.35 370.13,-431.5 373.35,-430.73 376.68,-430.05 380.1,-429.47 383.61,-428.98 387.18,-428.59 390.8,-428.3 394.47,-428.1 398.15,-428 401.85,-428 405.53,-428.1"/>
<text xml:space="preserve" text-anchor="middle" x="400" y="-459.8" font-family="sans-serif" font-size="14.00">InventoryQuery</text>
</a>
</g>
</g>
<!-- #/domains/petstore_commerce/subdomains/inventory/boundedcontexts/inventory_bc/services/inventory_query&#45;&gt;#/domains/petstore_commerce/subdomains/inventory/boundedcontexts/inventory_bc/aggregates/inventory_projection -->
<g id="edge1" class="edge">
<title>#/domains/petstore_commerce/subdomains/inventory/boundedcontexts/inventory_bc/services/inventory_query&#45;&gt;#/domains/petstore_commerce/subdomains/inventory/boundedcontexts/inventory_bc/aggregates/inventory_projection</title>
<path fill="none" stroke="black" d="M400,-427.6C400,-416.28 400,-403.57 400,-391.58"/>
<polygon fill="black" stroke="black" points="403.5,-391.89 400,-381.89 396.5,-391.89 403.5,-391.89"/>
<text xml:space="preserve" text-anchor="middle" x="436.38" y="-401" font-family="sans-serif" font-size="10.00">InventoryUpdated</text>
<g id="a_edge1&#45;headlabel"><a xlink:title="published&#45;language">
<text xml:space="preserve" text-anchor="middle" x="400" y="-377.38" font-family="sans-serif" font-size="10.00">PL</text>
</a>
</g>
<g id="a_edge1&#45;taillabel"><a xlink:title="conformist">
<text xml:space="preserve" text-anchor="middle" x="400" y="-424.6" font-family="sans-serif" font-size="10.00">C</text>
</a>
</g>
</g>
</g>
</svg>
