<?xml version="1.0" encoding="UTF-8" standalone="no"?>
<?xml-stylesheet href="data:text/css,.graph%20text%20%7B%0A%09font-family%3A%20sans-serif%3B%0A%09stroke%3A%20white%3B%0A%09paint-order%3A%20stroke%3B%0A%09stroke-width%3A%203%3B%0A%09stroke-linecap%3A%20square%3B%0A%7D%0A%0A.namespace%20polygon%20%7B%0A%09fill-opacity%3A%200.2%3B%0A%09stroke%3A%20none%3B%0A%7D%0A" type="text/css"?>
<!DOCTYPE svg PUBLIC "-//W3C//DTD SVG 1.1//EN"
 "http://www.w3.org/Graphics/SVG/1.1/DTD/svg11.dtd">
<!-- Generated by graphviz version 13.1.2 (0)
 -->
<!-- Pages: 1 -->
<svg width="730pt" height="458pt"
 viewBox="0.00 0.00 730.00 458.00" xmlns="http://www.w3.org/2000/svg" xmlns:xlink="http://www.w3.org/1999/xlink">
<g id="graph0" class="graph" transform="scale(1 1) rotate(0) translate(4 454)">
<polygon fill="white" stroke="none" points="-4,4 -4,-454 725.79,-454 725.79,4 -4,4"/>
<g id="clust1" class="cluster namespace">
<title>#/boundedcontexts/cart_&amp;_checkout/aggregates/cart</title>
<polygon fill="lightgrey" stroke="lightgrey" points="15.17,-214 15.17,-346 452.2,-346 452.2,-214 15.17,-214"/>
<text xml:space="preserve" text-anchor="middle" x="233.68" y="-333" font-family="sans-serif" font-size="10.00">Shopping / Ordering / Cart &amp; Checkout / Cart</text>
</g>
<g id="clust2" class="cluster namespace">
<title>#/boundedcontexts/offers/aggregates/offer</title>
<polygon fill="lightgrey" stroke="lightgrey" points="332.61,-8 332.61,-206 713.79,-206 713.79,-8 332.61,-8"/>
<text xml:space="preserve" text-anchor="middle" x="523.2" y="-193" font-family="sans-serif" font-size="10.00">Marketplace / Offers &amp; Buy Box / Offers / Offer</text>
</g>
<g id="clust3" class="cluster namespace">
<title>#/boundedcontexts/cart_&amp;_checkout/aggregates/wishlist</title>
<polygon fill="lightgrey" stroke="lightgrey" points="8,-354 8,-442 269.03,-442 269.03,-354 8,-354"/>
<text xml:space="preserve" text-anchor="middle" x="138.52" y="-429" font-family="sans-serif" font-size="10.00">Shopping / Ordering / Cart &amp; Checkout / Wishlist</text>
</g>
<!-- #/boundedcontexts/cart_&amp;_checkout/aggregates/cart/entities/cart -->
<g id="node1" class="node">
<title>#/boundedcontexts/cart_&amp;_checkout/aggregates/cart/entities/cart</title>
<g id="a_node1"><a xlink:title="One customer&#39;s open basket">
<polygon fill="white" stroke="none" points="106.21,-307 23.17,-307 23.17,-233 106.21,-233 106.21,-307"/>
<polygon fill="none" stroke="black" points="23.17,-277 23.17,-307 106.21,-307 106.21,-277 23.17,-277"/>
<text xml:space="preserve" text-anchor="start" x="39" y="-294" font-family="sans-serif" font-size="10.00">«root entity»</text>
<text xml:space="preserve" text-anchor="start" x="54.7" y="-284" font-family="sans-serif" font-weight="bold" font-size="10.00">Cart</text>
<polygon fill="none" stroke="black" points="23.17,-255 23.17,-277 106.21,-277 106.21,-255 23.17,-255"/>
<text xml:space="preserve" text-anchor="start" x="28.17" y="-263" font-family="sans-serif" font-size="10.00">{id} cartId: string</text>
<polygon fill="none" stroke="black" points="23.17,-233 23.17,-255 106.21,-255 106.21,-233 23.17,-233"/>
<text xml:space="preserve" text-anchor="start" x="28.17" y="-241" font-family="sans-serif" font-size="10.00">customerId: string</text>
</a>
</g>
</g>
<!-- #/boundedcontexts/cart_&amp;_checkout/aggregates/cart/entities/cart_line -->
<g id="node2" class="node">
<title>#/boundedcontexts/cart_&amp;_checkout/aggregates/cart/entities/cart_line</title>
<g id="a_node2"><a xlink:title="An offer and a quantity">
<polygon fill="white" stroke="none" points="262.42,-318 182.71,-318 182.71,-222 262.42,-222 262.42,-318"/>
<polygon fill="none" stroke="black" points="182.71,-288 182.71,-318 262.42,-318 262.42,-288 182.71,-288"/>
<text xml:space="preserve" text-anchor="start" x="206.18" y="-305" font-family="sans-serif" font-size="10.00">«entity»</text>
<text xml:space="preserve" text-anchor="start" x="202.84" y="-295" font-family="sans-serif" font-weight="bold" font-size="10.00">CartLine</text>
<polygon fill="none" stroke="black" points="182.71,-266 182.71,-288 262.42,-288 262.42,-266 182.71,-266"/>
<text xml:space="preserve" text-anchor="start" x="187.71" y="-274" font-family="sans-serif" font-size="10.00">offerId: string</text>
<polygon fill="none" stroke="black" points="182.71,-244 182.71,-266 262.42,-266 262.42,-244 182.71,-244"/>
<text xml:space="preserve" text-anchor="start" x="187.71" y="-252" font-family="sans-serif" font-size="10.00">quantity: int</text>
<polygon fill="none" stroke="black" points="182.71,-222 182.71,-244 262.42,-244 262.42,-222 182.71,-222"/>
<text xml:space="preserve" text-anchor="start" x="187.71" y="-230" font-family="sans-serif" font-size="10.00">unitPrice: Money</text>
</a>
</g>
</g>
<!-- #/boundedcontexts/cart_&amp;_checkout/aggregates/cart/entities/cart&#45;&gt;#/boundedcontexts/cart_&amp;_checkout/aggregates/cart/entities/cart_line -->
<g id="edge1" class="edge">
<title>#/boundedcontexts/cart_&amp;_checkout/aggregates/cart/entities/cart&#45;&gt;#/boundedcontexts/cart_&amp;_checkout/aggregates/cart/entities/cart_line</title>
<path fill="none" stroke="black" d="M118.85,-270C139.86,-270 163.57,-270 182.9,-270"/>
<polygon fill="black" stroke="black" points="118.73,-270 112.73,-274 106.73,-270 112.73,-266 118.73,-270"/>
<text xml:space="preserve" text-anchor="middle" x="148.05" y="-273" font-family="sans-serif" font-size="10.00">contains</text>
<text xml:space="preserve" text-anchor="middle" x="169.31" y="-273.34" font-family="sans-serif" font-size="10.00">*</text>
</g>
<!-- #/boundedcontexts/cart_&amp;_checkout/aggregates/cart/valueobjects/money -->
<g id="node3" class="node">
<title>#/boundedcontexts/cart_&amp;_checkout/aggregates/cart/valueobjects/money</title>
<g id="a_node3"><a xlink:title="An amount in a currency: minor units and an ISO 4217 code">
<polygon fill="white" stroke="none" points="444.2,-307 333.95,-307 333.95,-233 444.2,-233 444.2,-307"/>
<polygon fill="none" stroke="black" points="333.95,-277 333.95,-307 444.2,-307 444.2,-277 333.95,-277"/>
<text xml:space="preserve" text-anchor="start" x="359.78" y="-294" font-family="sans-serif" font-size="10.00">«value object»</text>
<text xml:space="preserve" text-anchor="start" x="374.35" y="-284" font-family="sans-serif" font-weight="bold" font-size="10.00">Money</text>
<polygon fill="none" stroke="black" points="333.95,-255 333.95,-277 444.2,-277 444.2,-255 333.95,-255"/>
<text xml:space="preserve" text-anchor="start" x="338.95" y="-263" font-family="sans-serif" font-size="10.00">amountMinor: int64</text>
<polygon fill="none" stroke="black" points="333.95,-233 333.95,-255 444.2,-255 444.2,-233 333.95,-233"/>
<text xml:space="preserve" text-anchor="start" x="338.95" y="-241" font-family="sans-serif" font-size="10.00">currency: ISO 4217 code</text>
</a>
</g>
</g>
<!-- #/boundedcontexts/cart_&amp;_checkout/aggregates/cart/entities/cart_line&#45;&gt;#/boundedcontexts/cart_&amp;_checkout/aggregates/cart/valueobjects/money -->
<g id="edge2" class="edge">
<title>#/boundedcontexts/cart_&amp;_checkout/aggregates/cart/entities/cart_line&#45;&gt;#/boundedcontexts/cart_&amp;_checkout/aggregates/cart/valueobjects/money</title>
<path fill="none" stroke="black" stroke-dasharray="5,2" d="M262.13,-270C280.33,-270 302.54,-270 323.21,-270"/>
<polygon fill="black" stroke="black" points="332.96,-270 322.96,-274.5 329.18,-270 322.96,-270 322.96,-270 322.96,-270 329.18,-270 322.96,-265.5 332.96,-270"/>
<text xml:space="preserve" text-anchor="middle" x="298.19" y="-273" font-family="sans-serif" font-size="10.00">priced&#45;at</text>
<text xml:space="preserve" text-anchor="middle" x="320.58" y="-273.34" font-family="sans-serif" font-size="10.00">1</text>
</g>
<!-- #/boundedcontexts/offers/aggregates/offer/entities/offer -->
<g id="node4" class="node">
<title>#/boundedcontexts/offers/aggregates/offer/entities/offer</title>
<g id="a_node4"><a xlink:title="The seller&#39;s terms for a SKU">
<polygon fill="white" stroke="none" points="437.53,-178 340.61,-178 340.61,-16 437.53,-16 437.53,-178"/>
<polygon fill="none" stroke="black" points="340.61,-148 340.61,-178 437.53,-178 437.53,-148 340.61,-148"/>
<text xml:space="preserve" text-anchor="start" x="363.38" y="-165" font-family="sans-serif" font-size="10.00">«root entity»</text>
<text xml:space="preserve" text-anchor="start" x="377.42" y="-155" font-family="sans-serif" font-weight="bold" font-size="10.00">Offer</text>
<polygon fill="none" stroke="black" points="340.61,-126 340.61,-148 437.53,-148 437.53,-126 340.61,-126"/>
<text xml:space="preserve" text-anchor="start" x="345.61" y="-134" font-family="sans-serif" font-size="10.00">{id} offerId: string</text>
<polygon fill="none" stroke="black" points="340.61,-104 340.61,-126 437.53,-126 437.53,-104 340.61,-104"/>
<text xml:space="preserve" text-anchor="start" x="345.61" y="-112" font-family="sans-serif" font-size="10.00">sellerId: string</text>
<polygon fill="none" stroke="black" points="340.61,-82 340.61,-104 437.53,-104 437.53,-82 340.61,-82"/>
<text xml:space="preserve" text-anchor="start" x="345.61" y="-90" font-family="sans-serif" font-size="10.00">sku: string</text>
<polygon fill="none" stroke="black" points="340.61,-60 340.61,-82 437.53,-82 437.53,-60 340.61,-60"/>
<text xml:space="preserve" text-anchor="start" x="345.61" y="-68" font-family="sans-serif" font-size="10.00">price: Money</text>
<polygon fill="none" stroke="black" points="340.61,-38 340.61,-60 437.53,-60 437.53,-38 340.61,-38"/>
<text xml:space="preserve" text-anchor="start" x="345.61" y="-46" font-family="sans-serif" font-size="10.00">availableQuantity: int</text>
<polygon fill="none" stroke="black" points="340.61,-16 340.61,-38 437.53,-38 437.53,-16 340.61,-16"/>
<text xml:space="preserve" text-anchor="start" x="345.61" y="-24" font-family="sans-serif" font-size="10.00">condition: Condition</text>
</a>
</g>
</g>
<!-- #/boundedcontexts/cart_&amp;_checkout/aggregates/cart/entities/cart_line&#45;&gt;#/boundedcontexts/offers/aggregates/offer/entities/offer -->
<g id="edge3" class="edge">
<title>#/boundedcontexts/cart_&amp;_checkout/aggregates/cart/entities/cart_line&#45;&gt;#/boundedcontexts/offers/aggregates/offer/entities/offer</title>
<path fill="none" stroke="black" d="M262.13,-229.44C283.3,-207.18 309.9,-179.2 333.2,-154.71"/>
<polygon fill="black" stroke="black" points="339.8,-147.77 336.17,-158.12 337.19,-150.51 332.91,-155.02 332.91,-155.02 332.91,-155.02 337.19,-150.51 329.65,-151.91 339.8,-147.77"/>
<text xml:space="preserve" text-anchor="middle" x="298.19" y="-212.1" font-family="sans-serif" font-size="10.00">for&#45;offer</text>
<text xml:space="preserve" text-anchor="middle" x="335.86" y="-158.11" font-family="sans-serif" font-size="10.00">1</text>
</g>
<!-- #/boundedcontexts/offers/aggregates/offer/valueobjects/money -->
<g id="node5" class="node">
<title>#/boundedcontexts/offers/aggregates/offer/valueobjects/money</title>
<g id="a_node5"><a xlink:title="An amount in a currency: minor units and an ISO 4217 code">
<polygon fill="white" stroke="none" points="672.56,-94 562.31,-94 562.31,-20 672.56,-20 672.56,-94"/>
<polygon fill="none" stroke="black" points="562.31,-64 562.31,-94 672.56,-94 672.56,-64 562.31,-64"/>
<text xml:space="preserve" text-anchor="start" x="588.14" y="-81" font-family="sans-serif" font-size="10.00">«value object»</text>
<text xml:space="preserve" text-anchor="start" x="602.72" y="-71" font-family="sans-serif" font-weight="bold" font-size="10.00">Money</text>
<polygon fill="none" stroke="black" points="562.31,-42 562.31,-64 672.56,-64 672.56,-42 562.31,-42"/>
<text xml:space="preserve" text-anchor="start" x="567.31" y="-50" font-family="sans-serif" font-size="10.00">amountMinor: int64</text>
<polygon fill="none" stroke="black" points="562.31,-20 562.31,-42 672.56,-42 672.56,-20 562.31,-20"/>
<text xml:space="preserve" text-anchor="start" x="567.31" y="-28" font-family="sans-serif" font-size="10.00">currency: ISO 4217 code</text>
</a>
</g>
</g>
<!-- #/boundedcontexts/offers/aggregates/offer/entities/offer&#45;&gt;#/boundedcontexts/offers/aggregates/offer/valueobjects/money -->
<g id="edge4" class="edge">
<title>#/boundedcontexts/offers/aggregates/offer/entities/offer&#45;&gt;#/boundedcontexts/offers/aggregates/offer/valueobjects/money</title>
<path fill="none" stroke="black" stroke-dasharray="5,2" d="M437.37,-87.65C445.64,-86.06 454.16,-84.46 462.2,-83 491.56,-77.68 524.15,-72.13 551.77,-67.54"/>
<polygon fill="black" stroke="black" points="561.28,-65.96 552.15,-72.03 557.55,-66.58 551.42,-67.59 551.42,-67.59 551.42,-67.59 557.55,-66.58 550.68,-63.15 561.28,-65.96"/>
<text xml:space="preserve" text-anchor="middle" x="486.64" y="-86" font-family="sans-serif" font-size="10.00">priced&#45;at</text>
<text xml:space="preserve" text-anchor="middle" x="550.11" y="-71.24" font-family="sans-serif" font-size="10.00">1</text>
</g>
<!-- #/boundedcontexts/offers/aggregates/offer/valueobjects/condition -->
<g id="node6" class="node">
<title>#/boundedcontexts/offers/aggregates/offer/valueobjects/condition</title>
<g id="a_node6"><a xlink:title="new, used&#45;like&#45;new, used&#45;good; buyers filter on it">
<polygon fill="white" stroke="none" points="705.79,-164 529.08,-164 529.08,-112 705.79,-112 705.79,-164"/>
<polygon fill="none" stroke="black" points="529.08,-134 529.08,-164 705.79,-164 705.79,-134 529.08,-134"/>
<text xml:space="preserve" text-anchor="start" x="588.14" y="-151" font-family="sans-serif" font-size="10.00">«value object»</text>
<text xml:space="preserve" text-anchor="start" x="596.04" y="-141" font-family="sans-serif" font-weight="bold" font-size="10.00">Condition</text>
<polygon fill="none" stroke="black" points="529.08,-112 529.08,-134 705.79,-134 705.79,-112 529.08,-112"/>
<text xml:space="preserve" text-anchor="start" x="534.08" y="-120" font-family="sans-serif" font-size="10.00">value: &#39;new&#39; | &#39;used&#45;like&#45;new&#39; | &#39;used&#45;good&#39;</text>
</a>
</g>
</g>
<!-- #/boundedcontexts/offers/aggregates/offer/entities/offer&#45;&gt;#/boundedcontexts/offers/aggregates/offer/valueobjects/condition -->
<g id="edge5" class="edge">
<title>#/boundedcontexts/offers/aggregates/offer/entities/offer&#45;&gt;#/boundedcontexts/offers/aggregates/offer/valueobjects/condition</title>
<path fill="none" stroke="black" stroke-dasharray="5,2" d="M437.53,-105.59C461.09,-109.86 490.48,-115.19 518.58,-120.28"/>
<polygon fill="black" stroke="black" points="528.07,-121.99 517.43,-124.64 524.35,-121.32 518.23,-120.21 518.23,-120.21 518.23,-120.21 524.35,-121.32 519.03,-115.78 528.07,-121.99"/>
<text xml:space="preserve" text-anchor="middle" x="486.64" y="-121.73" font-family="sans-serif" font-size="10.00">in&#45;condition</text>
<text xml:space="preserve" text-anchor="middle" x="514.76" y="-123.03" font-family="sans-serif" font-size="10.00">1</text>
</g>
<!-- #/boundedcontexts/cart_&amp;_checkout/aggregates/wishlist/entities/wishlist -->
<g id="node7" class="node">
<title>#/boundedcontexts/cart_&amp;_checkout/aggregates/wishlist/entities/wishlist</title>
<g id="a_node7"><a xlink:title="A named list of products a customer may buy later">
<polygon fill="white" stroke="none" points="113.38,-414 16,-414 16,-362 113.38,-362 113.38,-414"/>
<polygon fill="none" stroke="black" points="16,-384 16,-414 113.38,-414 113.38,-384 16,-384"/>
<text xml:space="preserve" text-anchor="start" x="39" y="-401" font-family="sans-serif" font-size="10.00">«root entity»</text>
<text xml:space="preserve" text-anchor="start" x="47.19" y="-391" font-family="sans-serif" font-weight="bold" font-size="10.00">Wishlist</text>
<polygon fill="none" stroke="black" points="16,-362 16,-384 113.38,-384 113.38,-362 16,-362"/>
<text xml:space="preserve" text-anchor="start" x="21" y="-370" font-family="sans-serif" font-size="10.00">{id} wishlistId: string</text>
</a>
</g>
</g>
<!-- #/boundedcontexts/cart_&amp;_checkout/aggregates/wishlist/entities/wishlist_item -->
<g id="node8" class="node">
<title>#/boundedcontexts/cart_&amp;_checkout/aggregates/wishlist/entities/wishlist_item</title>
<g id="a_node8"><a xlink:title="One saved product">
<polygon fill="white" stroke="none" points="261.03,-414 184.1,-414 184.1,-362 261.03,-362 261.03,-414"/>
<polygon fill="none" stroke="black" points="184.1,-384 184.1,-414 261.03,-414 261.03,-384 184.1,-384"/>
<text xml:space="preserve" text-anchor="start" x="196.87" y="-401" font-family="sans-serif" font-size="10.00">«root entity»</text>
<text xml:space="preserve" text-anchor="start" x="195.06" y="-391" font-family="sans-serif" font-weight="bold" font-size="10.00">WishlistItem</text>
<polygon fill="none" stroke="black" points="184.1,-362 184.1,-384 261.03,-384 261.03,-362 184.1,-362"/>
<text xml:space="preserve" text-anchor="start" x="189.1" y="-370" font-family="sans-serif" font-size="10.00">productId: string</text>
</a>
</g>
</g>
<!-- #/boundedcontexts/cart_&amp;_checkout/aggregates/wishlist/entities/wishlist&#45;&gt;#/boundedcontexts/cart_&amp;_checkout/aggregates/wishlist/entities/wishlist_item -->
<g id="edge6" class="edge">
<title>#/boundedcontexts/cart_&amp;_checkout/aggregates/wishlist/entities/wishlist&#45;&gt;#/boundedcontexts/cart_&amp;_checkout/aggregates/wishlist/entities/wishlist_item</title>
<path fill="none" stroke="black" d="M126.18,-388C145.71,-388 166.77,-388 184.12,-388"/>
<polygon fill="black" stroke="black" points="126.21,-388 120.21,-392 114.21,-388 120.21,-384 126.21,-388"/>
<text xml:space="preserve" text-anchor="middle" x="148.05" y="-391" font-family="sans-serif" font-size="10.00">saves</text>
<text xml:space="preserve" text-anchor="middle" x="170.53" y="-391.34" font-family="sans-serif" font-size="10.00">*</text>
</g>
</g>
</svg>
