<?xml version="1.0" encoding="UTF-8" standalone="no"?>
<?xml-stylesheet href="data:text/css,.graph%20text%20%7B%0A%09font-family%3A%20sans-serif%3B%0A%09stroke%3A%20white%3B%0A%09paint-order%3A%20stroke%3B%0A%09stroke-width%3A%203%3B%0A%09stroke-linecap%3A%20square%3B%0A%7D%0A%0A.namespace%20polygon%20%7B%0A%09fill-opacity%3A%200.2%3B%0A%09stroke%3A%20none%3B%0A%7D%0A" type="text/css"?>
<!DOCTYPE svg PUBLIC "-//W3C//DTD SVG 1.1//EN"
 "http://www.w3.org/Graphics/SVG/1.1/DTD/svg11.dtd">
<!-- Generated by graphviz version 13.1.2 (0)
 -->
<!-- Pages: 1 -->
<svg width="340pt" height="356pt"
 viewBox="0.00 0.00 340.00 356.00" xmlns="http://www.w3.org/2000/svg" xmlns:xlink="http://www.w3.org/1999/xlink">
<g id="graph0" class="graph" transform="scale(1 1) rotate(0) translate(4 352)">
<polygon fill="white" stroke="none" points="-4,4 -4,-352 336,-352 336,4 -4,4"/>
<g id="clust1" class="cluster namespace">
<title>e_shop_on_containers</title>
<polygon fill="lightgrey" stroke="lightgrey" points="8,-8 8,-340 324,-340 324,-8 8,-8"/>
<text xml:space="preserve" text-anchor="middle" x="166" y="-327" font-family="sans-serif" font-size="10.00">eShopOnContainers</text>
</g>
<g id="clust2" class="cluster namespace">
<title>#/domains/customer_experience</title>
<polygon fill="lightgrey" stroke="lightgrey" points="93,-16 93,-160 239,-160 239,-16 93,-16"/>
<text xml:space="preserve" text-anchor="middle" x="166" y="-147" font-family="sans-serif" font-size="10.00">CustomerExperience</text>
</g>
<g id="clust3" class="cluster namespace">
<title>#/domains/customer_experience/subdomains/promotions</title>
<polygon fill="lightgrey" stroke="lightgrey" points="101,-24 101,-132 231,-132 231,-24 101,-24"/>
<text xml:space="preserve" text-anchor="middle" x="166" y="-119" font-family="sans-serif" font-size="10.00">Promotions</text>
</g>
<g id="clust4" class="cluster namespace">
<title>#/domains/integration</title>
<polygon fill="lightgrey" stroke="lightgrey" points="16,-168 16,-312 162,-312 162,-168 16,-168"/>
<text xml:space="preserve" text-anchor="middle" x="89" y="-299" font-family="sans-serif" font-size="10.00">Integration</text>
</g>
<g id="clust5" class="cluster namespace">
<title>#/domains/integration/subdomains/edge</title>
<polygon fill="lightgrey" stroke="lightgrey" points="24,-176 24,-284 154,-284 154,-176 24,-176"/>
<text xml:space="preserve" text-anchor="middle" x="89" y="-271" font-family="sans-serif" font-size="10.00">Edge</text>
</g>
<g id="clust6" class="cluster namespace">
<title>#/domains/commerce</title>
<polygon fill="lightgrey" stroke="lightgrey" points="170,-168 170,-312 316,-312 316,-168 170,-168"/>
<text xml:space="preserve" text-anchor="middle" x="243" y="-299" font-family="sans-serif" font-size="10.00">Commerce</text>
</g>
<g id="clust7" class="cluster namespace">
<title>#/domains/commerce/subdomains/sales</title>
<polygon fill="lightgrey" stroke="lightgrey" points="178,-176 178,-284 308,-284 308,-176 178,-176"/>
<text xml:space="preserve" text-anchor="middle" x="243" y="-271" font-family="sans-serif" font-size="10.00">Sales</text>
</g>
<!-- #/domains/customer_experience/subdomains/promotions/boundedcontexts/marketing -->
<g id="node1" class="node">
<title>#/domains/customer_experience/subdomains/promotions/boundedcontexts/marketing</title>
<g id="a_node1"><a xlink:title="Marketing.API">
<polygon fill="white" stroke="black" points="171.32,-32.1 174.84,-32.3 178.33,-32.59 181.76,-32.98 185.13,-33.47 188.42,-34.05 191.63,-34.73 194.72,-35.5 197.71,-36.35 200.56,-37.29 203.28,-38.32 205.85,-39.43 208.27,-40.62 210.53,-41.88 212.62,-43.21 214.53,-44.61 216.26,-46.08 217.81,-47.6 219.17,-49.18 220.35,-50.82 221.34,-52.5 222.14,-54.22 222.75,-55.98 223.18,-57.77 223.42,-59.59 223.49,-61.44 223.38,-63.3 223.1,-65.17 222.66,-67.06 222.06,-68.94 221.31,-70.83 220.41,-72.7 219.38,-74.56 218.22,-76.41 216.94,-78.23 215.54,-80.02 214.03,-81.78 212.43,-83.5 210.74,-85.18 208.96,-86.82 207.11,-88.4 205.19,-89.92 203.21,-91.39 201.17,-92.79 199.09,-94.12 196.96,-95.38 194.79,-96.57 192.58,-97.68 190.35,-98.71 188.1,-99.65 185.82,-100.5 183.52,-101.27 181.21,-101.95 178.89,-102.53 176.56,-103.02 174.22,-103.41 171.88,-103.7 169.53,-103.9 167.18,-104 164.82,-104 162.47,-103.9 160.12,-103.7 157.78,-103.41 155.44,-103.02 153.11,-102.53 150.79,-101.95 148.48,-101.27 146.18,-100.5 143.9,-99.65 141.65,-98.71 139.42,-97.68 137.21,-96.57 135.04,-95.38 132.91,-94.12 130.83,-92.79 128.79,-91.39 126.81,-89.92 124.89,-88.4 123.04,-86.82 121.26,-85.18 119.57,-83.5 117.97,-81.78 116.46,-80.02 115.06,-78.23 113.78,-76.41 112.62,-74.56 111.59,-72.7 110.69,-70.83 109.94,-68.94 109.34,-67.06 108.9,-65.17 108.62,-63.3 108.51,-61.44 108.58,-59.59 108.82,-57.77 109.25,-55.98 109.86,-54.22 110.66,-52.5 111.65,-50.82 112.83,-49.18 114.19,-47.6 115.74,-46.08 117.47,-44.61 119.38,-43.21 121.47,-41.88 123.73,-40.62 126.15,-39.43 128.72,-38.32 131.44,-37.29 134.29,-36.35 137.28,-35.5 140.37,-34.73 143.58,-34.05 146.87,-33.47 150.24,-32.98 153.67,-32.59 157.16,-32.3 160.68,-32.1 164.22,-32 167.78,-32 171.32,-32.1"/>
<text xml:space="preserve" text-anchor="middle" x="166" y="-63.8" font-family="sans-serif" font-size="14.00">Marketing</text>
</a>
</g>
</g>
<!-- #/domains/integration/subdomains/edge/boundedcontexts/api_gateway -->
<g id="node2" class="node">
<title>#/domains/integration/subdomains/edge/boundedcontexts/api_gateway</title>
<g id="a_node2"><a xlink:title="Ocelot + Aggregators (Web &amp; Mobile Shopping)">
<polygon fill="white" stroke="black" points="94.32,-184.1 97.84,-184.3 101.33,-184.59 104.76,-184.98 108.13,-185.47 111.42,-186.05 114.63,-186.73 117.72,-187.5 120.71,-188.35 123.56,-189.29 126.28,-190.32 128.85,-191.43 131.27,-192.62 133.53,-193.88 135.62,-195.21 137.53,-196.61 139.26,-198.08 140.81,-199.6 142.17,-201.18 143.35,-202.82 144.34,-204.5 145.14,-206.22 145.75,-207.98 146.18,-209.77 146.42,-211.59 146.49,-213.44 146.38,-215.3 146.1,-217.17 145.66,-219.06 145.06,-220.94 144.31,-222.83 143.41,-224.7 142.38,-226.56 141.22,-228.41 139.94,-230.23 138.54,-232.02 137.03,-233.78 135.43,-235.5 133.74,-237.18 131.96,-238.82 130.11,-240.4 128.19,-241.92 126.21,-243.39 124.17,-244.79 122.09,-246.12 119.96,-247.38 117.79,-248.57 115.58,-249.68 113.35,-250.71 111.1,-251.65 108.82,-252.5 106.52,-253.27 104.21,-253.95 101.89,-254.53 99.56,-255.02 97.22,-255.41 94.88,-255.7 92.53,-255.9 90.18,-256 87.82,-256 85.47,-255.9 83.12,-255.7 80.78,-255.41 78.44,-255.02 76.11,-254.53 73.79,-253.95 71.48,-253.27 69.18,-252.5 66.9,-251.65 64.65,-250.71 62.42,-249.68 60.21,-248.57 58.04,-247.38 55.91,-246.12 53.83,-244.79 51.79,-243.39 49.81,-241.92 47.89,-240.4 46.04,-238.82 44.26,-237.18 42.57,-235.5 40.97,-233.78 39.46,-232.02 38.06,-230.23 36.78,-228.41 35.62,-226.56 34.59,-224.7 33.69,-222.83 32.94,-220.94 32.34,-219.06 31.9,-217.17 31.62,-215.3 31.51,-213.44 31.58,-211.59 31.82,-209.77 32.25,-207.98 32.86,-206.22 33.66,-204.5 34.65,-202.82 35.83,-201.18 37.19,-199.6 38.74,-198.08 40.47,-196.61 42.38,-195.21 44.47,-193.88 46.73,-192.62 49.15,-191.43 51.72,-190.32 54.44,-189.29 57.29,-188.35 60.28,-187.5 63.37,-186.73 66.58,-186.05 69.87,-185.47 73.24,-184.98 76.67,-184.59 80.16,-184.3 83.68,-184.1 87.22,-184 90.78,-184 94.32,-184.1"/>
<text xml:space="preserve" text-anchor="middle" x="89" y="-215.8" font-family="sans-serif" font-size="14.00">ApiGateway</text>
</a>
</g>
</g>
<!-- #/domains/integration/subdomains/edge/boundedcontexts/api_gateway&#45;&gt;#/domains/customer_experience/subdomains/promotions/boundedcontexts/marketing -->
<g id="edge1" class="edge">
<title>#/domains/integration/subdomains/edge/boundedcontexts/api_gateway&#45;&gt;#/domains/customer_experience/subdomains/promotions/boundedcontexts/marketing</title>
<path fill="none" stroke="black" d="M106.47,-184.96C117.55,-163.37 131.99,-135.26 143.87,-112.11"/>
<polygon fill="black" stroke="black" points="146.98,-113.71 148.43,-103.22 140.75,-110.52 146.98,-113.71"/>
<g id="a_edge1&#45;headlabel"><a xlink:title="open&#45;host&#45;service">
<text xml:space="preserve" text-anchor="middle" x="149.13" y="-98.87" font-family="sans-serif" font-size="10.00">OHS</text>
</a>
</g>
<g id="a_edge1&#45;taillabel"><a xlink:title="conformist">
<text xml:space="preserve" text-anchor="middle" x="106.47" y="-181.96" font-family="sans-serif" font-size="10.00">C</text>
</a>
</g>
</g>
<!-- #/domains/commerce/subdomains/sales/boundedcontexts/ordering -->
<g id="node3" class="node">
<title>#/domains/commerce/subdomains/sales/boundedcontexts/ordering</title>
<g id="a_node3"><a xlink:title="Ordering.API (rich DDD + domain events)">
<polygon fill="white" stroke="black" points="248.32,-184.1 251.84,-184.3 255.33,-184.59 258.76,-184.98 262.13,-185.47 265.42,-186.05 268.63,-186.73 271.72,-187.5 274.71,-188.35 277.56,-189.29 280.28,-190.32 282.85,-191.43 285.27,-192.62 287.53,-193.88 289.62,-195.21 291.53,-196.61 293.26,-198.08 294.81,-199.6 296.17,-201.18 297.35,-202.82 298.34,-204.5 299.14,-206.22 299.75,-207.98 300.18,-209.77 300.42,-211.59 300.49,-213.44 300.38,-215.3 300.1,-217.17 299.66,-219.06 299.06,-220.94 298.31,-222.83 297.41,-224.7 296.38,-226.56 295.22,-228.41 293.94,-230.23 292.54,-232.02 291.03,-233.78 289.43,-235.5 287.74,-237.18 285.96,-238.82 284.11,-240.4 282.19,-241.92 280.21,-243.39 278.17,-244.79 276.09,-246.12 273.96,-247.38 271.79,-248.57 269.58,-249.68 267.35,-250.71 265.1,-251.65 262.82,-252.5 260.52,-253.27 258.21,-253.95 255.89,-254.53 253.56,-255.02 251.22,-255.41 248.88,-255.7 246.53,-255.9 244.18,-256 241.82,-256 239.47,-255.9 237.12,-255.7 234.78,-255.41 232.44,-255.02 230.11,-254.53 227.79,-253.95 225.48,-253.27 223.18,-252.5 220.9,-251.65 218.65,-250.71 216.42,-249.68 214.21,-248.57 212.04,-247.38 209.91,-246.12 207.83,-244.79 205.79,-243.39 203.81,-241.92 201.89,-240.4 200.04,-238.82 198.26,-237.18 196.57,-235.5 194.97,-233.78 193.46,-232.02 192.06,-230.23 190.78,-228.41 189.62,-226.56 188.59,-224.7 187.69,-222.83 186.94,-220.94 186.34,-219.06 185.9,-217.17 185.62,-215.3 185.51,-213.44 185.58,-211.59 185.82,-209.77 186.25,-207.98 186.86,-206.22 187.66,-204.5 188.65,-202.82 189.83,-201.18 191.19,-199.6 192.74,-198.08 194.47,-196.61 196.38,-195.21 198.47,-193.88 200.73,-192.62 203.15,-191.43 205.72,-190.32 208.44,-189.29 211.29,-188.35 214.28,-187.5 217.37,-186.73 220.58,-186.05 223.87,-185.47 227.24,-184.98 230.67,-184.59 234.16,-184.3 237.68,-184.1 241.22,-184 244.78,-184 248.32,-184.1"/>
<text xml:space="preserve" text-anchor="middle" x="243" y="-215.8" font-family="sans-serif" font-size="14.00">Ordering</text>
</a>
</g>
</g>
<!-- #/domains/commerce/subdomains/sales/boundedcontexts/ordering&#45;&gt;#/domains/customer_experience/subdomains/promotions/boundedcontexts/marketing -->
<g id="edge2" class="edge">
<title>#/domains/commerce/subdomains/sales/boundedcontexts/ordering&#45;&gt;#/domains/customer_experience/subdomains/promotions/boundedcontexts/marketing</title>
<path fill="none" stroke="black" d="M225.53,-184.96C214.45,-163.37 200.01,-135.26 188.13,-112.11"/>
<polygon fill="black" stroke="black" points="191.25,-110.52 183.57,-103.22 185.02,-113.71 191.25,-110.52"/>
<g id="a_edge2&#45;headlabel"><a xlink:title="open&#45;host&#45;service">
<text xml:space="preserve" text-anchor="middle" x="182.87" y="-98.87" font-family="sans-serif" font-size="10.00">OHS</text>
</a>
</g>
<g id="a_edge2&#45;taillabel"><a xlink:title="anti&#45;corruption&#45;layer">
<text xml:space="preserve" text-anchor="middle" x="225.53" y="-181.96" font-family="sans-serif" font-size="10.00">ACL</text>
</a>
</g>
</g>
</g>
</svg>
