<?xml version="1.0" encoding="UTF-8" standalone="no"?>
<?xml-stylesheet href="data:text/css,.graph%20text%20%7B%0A%09font-family%3A%20sans-serif%3B%0A%09stroke%3A%20white%3B%0A%09paint-order%3A%20stroke%3B%0A%09stroke-width%3A%203%3B%0A%09stroke-linecap%3A%20square%3B%0A%7D%0A%0A.namespace%20polygon%20%7B%0A%09fill-opacity%3A%200.2%3B%0A%09stroke%3A%20none%3B%0A%7D%0A" type="text/css"?>
<!DOCTYPE svg PUBLIC "-//W3C//DTD SVG 1.1//EN"
 "http://www.w3.org/Graphics/SVG/1.1/DTD/svg11.dtd">
<!-- Generated by graphviz version 13.1.2 (0)
 -->
<!-- Pages: 1 -->
<svg width="1333pt" height="567pt"
 viewBox="0.00 0.00 1333.00 567.00" xmlns="http://www.w3.org/2000/svg" xmlns:xlink="http://www.w3.org/1999/xlink">
<g id="graph0" class="graph" transform="scale(1 1) rotate(0) translate(4 563.39)">
<polygon fill="white" stroke="none" points="-4,4 -4,-563.39 1329,-563.39 1329,4 -4,4"/>
<g id="clust1" class="cluster namespace">
<title>rivermart</title>
<polygon fill="lightgrey" stroke="lightgrey" points="8,-8 8,-551.39 1317,-551.39 1317,-8 8,-8"/>
<text xml:space="preserve" text-anchor="middle" x="662.5" y="-538.39" font-family="sans-serif" font-size="10.00">RiverMart</text>
</g>
<g id="clust2" class="cluster namespace">
<title>#/domains/marketplace</title>
<polygon fill="lightgrey" stroke="lightgrey" points="16,-188 16,-510.7 236,-510.7 236,-188 16,-188"/>
<text xml:space="preserve" text-anchor="middle" x="126" y="-497.7" font-family="sans-serif" font-size="10.00">Marketplace</text>
</g>
<g id="clust3" class="cluster namespace">
<title>#/domains/marketplace/subdomains/seller_onboarding</title>
<polygon fill="lightgrey" stroke="lightgrey" points="24,-374.7 24,-482.7 228,-482.7 228,-374.7 24,-374.7"/>
<text xml:space="preserve" text-anchor="middle" x="126" y="-469.7" font-family="sans-serif" font-size="10.00">Seller Onboarding</text>
</g>
<g id="clust4" class="cluster namespace">
<title>#/domains/marketplace/subdomains/offers_&amp;_buy_box</title>
<polygon fill="lightgrey" stroke="lightgrey" points="42,-196 42,-304 228,-304 228,-196 42,-196"/>
<text xml:space="preserve" text-anchor="middle" x="135" y="-291" font-family="sans-serif" font-size="10.00">Offers &amp; Buy Box</text>
</g>
<g id="clust5" class="cluster namespace">
<title>#/domains/shopping</title>
<polygon fill="lightgrey" stroke="lightgrey" points="42,-16 42,-160 802,-160 802,-16 42,-16"/>
<text xml:space="preserve" text-anchor="middle" x="422" y="-147" font-family="sans-serif" font-size="10.00">Shopping</text>
</g>
<g id="clust6" class="cluster namespace">
<title>#/domains/shopping/subdomains/discovery</title>
<polygon fill="lightgrey" stroke="lightgrey" points="50,-24 50,-132 410,-132 410,-24 50,-24"/>
<text xml:space="preserve" text-anchor="middle" x="230" y="-119" font-family="sans-serif" font-size="10.00">Discovery</text>
</g>
<g id="clust7" class="cluster namespace">
<title>#/domains/shopping/subdomains/ordering</title>
<polygon fill="lightgrey" stroke="lightgrey" points="429,-24 429,-132 794,-132 794,-24 429,-24"/>
<text xml:space="preserve" text-anchor="middle" x="611.5" y="-119" font-family="sans-serif" font-size="10.00">Ordering</text>
</g>
<g id="clust8" class="cluster namespace">
<title>#/domains/payments_&amp;_risk</title>
<polygon fill="lightgrey" stroke="lightgrey" points="398,-188 398,-332 804,-332 804,-188 398,-188"/>
<text xml:space="preserve" text-anchor="middle" x="601" y="-319" font-family="sans-serif" font-size="10.00">Payments &amp; Risk</text>
</g>
<g id="clust9" class="cluster namespace">
<title>#/domains/payments_&amp;_risk/subdomains/fraud</title>
<polygon fill="lightgrey" stroke="lightgrey" points="406,-196 406,-304 610,-304 610,-196 406,-196"/>
<text xml:space="preserve" text-anchor="middle" x="508" y="-291" font-family="sans-serif" font-size="10.00">Fraud</text>
</g>
<g id="clust10" class="cluster namespace">
<title>#/domains/payments_&amp;_risk/subdomains/payments</title>
<polygon fill="lightgrey" stroke="lightgrey" points="630,-196 630,-304 796,-304 796,-196 630,-196"/>
<text xml:space="preserve" text-anchor="middle" x="713" y="-291" font-family="sans-serif" font-size="10.00">Payments</text>
</g>
<g id="clust11" class="cluster namespace">
<title>#/domains/advertising</title>
<polygon fill="lightgrey" stroke="lightgrey" points="244,-188 244,-332 390,-332 390,-188 244,-188"/>
<text xml:space="preserve" text-anchor="middle" x="317" y="-319" font-family="sans-serif" font-size="10.00">Advertising</text>
</g>
<g id="clust12" class="cluster namespace">
<title>#/domains/advertising/subdomains/sponsored_products</title>
<polygon fill="lightgrey" stroke="lightgrey" points="252,-196 252,-304 382,-304 382,-196 252,-196"/>
<text xml:space="preserve" text-anchor="middle" x="317" y="-291" font-family="sans-serif" font-size="10.00">Sponsored Products</text>
</g>
<g id="clust13" class="cluster namespace">
<title>#/domains/fulfilment_&amp;_delivery</title>
<polygon fill="lightgrey" stroke="lightgrey" points="812,-188 812,-523.39 1309,-523.39 1309,-188 812,-188"/>
<text xml:space="preserve" text-anchor="middle" x="1060.5" y="-510.39" font-family="sans-serif" font-size="10.00">Fulfilment &amp; Delivery</text>
</g>
<g id="clust14" class="cluster namespace">
<title>#/domains/fulfilment_&amp;_delivery/subdomains/vendor_purchasing</title>
<polygon fill="lightgrey" stroke="lightgrey" points="820,-362 820,-495.39 1108,-495.39 1108,-362 820,-362"/>
<text xml:space="preserve" text-anchor="middle" x="964" y="-482.39" font-family="sans-serif" font-size="10.00">Vendor Purchasing</text>
</g>
<g id="clust15" class="cluster namespace">
<title>#/domains/fulfilment_&amp;_delivery/subdomains/warehousing</title>
<polygon fill="lightgrey" stroke="lightgrey" points="1129,-374.7 1129,-482.7 1301,-482.7 1301,-374.7 1129,-374.7"/>
<text xml:space="preserve" text-anchor="middle" x="1215" y="-469.7" font-family="sans-serif" font-size="10.00">Warehousing</text>
</g>
<g id="clust16" class="cluster namespace">
<title>#/domains/fulfilment_&amp;_delivery/subdomains/last_mile</title>
<polygon fill="lightgrey" stroke="lightgrey" points="860,-196 860,-304 1022,-304 1022,-196 860,-196"/>
<text xml:space="preserve" text-anchor="middle" x="941" y="-291" font-family="sans-serif" font-size="10.00">Last Mile</text>
</g>
<!-- #/boundedcontexts/seller_onboarding -->
<g id="node1" class="node">
<title>#/boundedcontexts/seller_onboarding</title>
<g id="a_node1"><a xlink:title="Seller accounts, verification and suspension">
<polygon fill="white" stroke="black" points="134.71,-382.8 140.48,-382.99 146.18,-383.29 151.81,-383.68 157.33,-384.17 162.72,-384.75 167.96,-385.43 173.03,-386.19 177.91,-387.05 182.59,-387.99 187.04,-389.02 191.25,-390.13 195.21,-391.31 198.91,-392.57 202.33,-393.91 205.46,-395.31 208.29,-396.77 210.83,-398.3 213.06,-399.88 214.99,-401.51 216.61,-403.19 217.91,-404.92 218.92,-406.68 219.61,-408.47 220.02,-410.29 220.12,-412.13 219.95,-414 219.49,-415.87 218.77,-417.75 217.78,-419.64 216.55,-421.52 215.09,-423.4 213.4,-425.26 211.5,-427.1 209.4,-428.93 207.11,-430.72 204.65,-432.48 202.02,-434.2 199.25,-435.88 196.35,-437.51 193.31,-439.1 190.17,-440.62 186.93,-442.09 183.59,-443.49 180.17,-444.82 176.68,-446.08 173.13,-447.27 169.53,-448.38 165.87,-449.4 162.18,-450.35 158.45,-451.2 154.69,-451.97 150.91,-452.64 147.11,-453.23 143.29,-453.71 139.46,-454.11 135.62,-454.4 131.77,-454.6 127.93,-454.7 124.07,-454.7 120.23,-454.6 116.38,-454.4 112.54,-454.11 108.71,-453.71 104.89,-453.23 101.09,-452.64 97.31,-451.97 93.55,-451.2 89.82,-450.35 86.13,-449.4 82.47,-448.38 78.87,-447.27 75.32,-446.08 71.83,-444.82 68.41,-443.49 65.07,-442.09 61.83,-440.62 58.69,-439.1 55.65,-437.51 52.75,-435.88 49.98,-434.2 47.35,-432.48 44.89,-430.72 42.6,-428.93 40.5,-427.1 38.6,-425.26 36.91,-423.4 35.45,-421.52 34.22,-419.64 33.23,-417.75 32.51,-415.87 32.05,-414 31.88,-412.13 31.98,-410.29 32.39,-408.47 33.08,-406.68 34.09,-404.92 35.39,-403.19 37.01,-401.51 38.94,-399.88 41.17,-398.3 43.71,-396.77 46.54,-395.31 49.67,-393.91 53.09,-392.57 56.79,-391.31 60.75,-390.13 64.96,-389.02 69.41,-387.99 74.09,-387.05 78.97,-386.19 84.04,-385.43 89.28,-384.75 94.67,-384.17 100.19,-383.68 105.82,-383.29 111.52,-382.99 117.29,-382.8 123.09,-382.7 128.91,-382.7 134.71,-382.8"/>
<text xml:space="preserve" text-anchor="middle" x="126" y="-422.9" font-family="sans-serif" font-size="14.00">Seller Onboarding</text>
<text xml:space="preserve" text-anchor="middle" x="126" y="-406.1" font-family="sans-serif" font-size="14.00">[Seller Services Team]</text>
</a>
</g>
</g>
<!-- #/boundedcontexts/offers -->
<g id="node2" class="node">
<title>#/boundedcontexts/offers</title>
<g id="a_node2"><a xlink:title="Sellers&#39; offers on catalogue products and the buy box award">
<polygon fill="white" stroke="black" points="142.89,-204.1 148.11,-204.3 153.28,-204.59 158.37,-204.98 163.37,-205.47 168.25,-206.05 173,-206.73 177.59,-207.5 182.01,-208.35 186.24,-209.29 190.28,-210.32 194.09,-211.43 197.68,-212.62 201.02,-213.88 204.12,-215.21 206.95,-216.61 209.52,-218.08 211.82,-219.6 213.84,-221.18 215.59,-222.82 217.05,-224.5 218.23,-226.22 219.14,-227.98 219.77,-229.77 220.14,-231.59 220.23,-233.44 220.07,-235.3 219.66,-237.17 219.01,-239.06 218.12,-240.94 217,-242.83 215.68,-244.7 214.15,-246.56 212.42,-248.41 210.52,-250.23 208.45,-252.02 206.22,-253.78 203.85,-255.5 201.34,-257.18 198.7,-258.82 195.96,-260.4 193.11,-261.92 190.17,-263.39 187.15,-264.79 184.06,-266.12 180.9,-267.38 177.68,-268.57 174.42,-269.68 171.11,-270.71 167.76,-271.65 164.38,-272.5 160.98,-273.27 157.56,-273.95 154.11,-274.53 150.66,-275.02 147.19,-275.41 143.71,-275.7 140.23,-275.9 136.74,-276 133.26,-276 129.77,-275.9 126.29,-275.7 122.81,-275.41 119.34,-275.02 115.89,-274.53 112.44,-273.95 109.02,-273.27 105.62,-272.5 102.24,-271.65 98.89,-270.71 95.58,-269.68 92.32,-268.57 89.1,-267.38 85.94,-266.12 82.85,-264.79 79.83,-263.39 76.89,-261.92 74.04,-260.4 71.3,-258.82 68.66,-257.18 66.15,-255.5 63.78,-253.78 61.55,-252.02 59.48,-250.23 57.58,-248.41 55.85,-246.56 54.32,-244.7 53,-242.83 51.88,-240.94 50.99,-239.06 50.34,-237.17 49.93,-235.3 49.77,-233.44 49.86,-231.59 50.23,-229.77 50.86,-227.98 51.77,-226.22 52.95,-224.5 54.41,-222.82 56.16,-221.18 58.18,-219.6 60.48,-218.08 63.05,-216.61 65.88,-215.21 68.98,-213.88 72.32,-212.62 75.91,-211.43 79.72,-210.32 83.76,-209.29 87.99,-208.35 92.41,-207.5 97,-206.73 101.75,-206.05 106.63,-205.47 111.63,-204.98 116.72,-204.59 121.89,-204.3 127.11,-204.1 132.37,-204 137.63,-204 142.89,-204.1"/>
<text xml:space="preserve" text-anchor="middle" x="135" y="-244.2" font-family="sans-serif" font-size="14.00">Offers</text>
<text xml:space="preserve" text-anchor="middle" x="135" y="-227.4" font-family="sans-serif" font-size="14.00">[Marketplace Team]</text>
</a>
</g>
</g>
<!-- #/boundedcontexts/seller_onboarding&#45;&gt;#/boundedcontexts/offers -->
<g id="edge3" class="edge">
<title>#/boundedcontexts/seller_onboarding&#45;&gt;#/boundedcontexts/offers</title>
<g id="a_edge3"><a xlink:title="upstream&#45;downstream">
<path fill="none" stroke="black" d="M127.8,-382.36C129.19,-355.16 131.11,-317.31 132.63,-287.62"/>
<polygon fill="black" stroke="black" points="136.11,-287.95 133.13,-277.78 129.12,-287.59 136.11,-287.95"/>
</a>
</g>
<text xml:space="preserve" text-anchor="middle" x="138.3" y="-343" font-family="sans-serif" font-size="10.00">U/D</text>
<g id="a_edge3&#45;headlabel"><a xlink:title="conformist">
<text xml:space="preserve" text-anchor="middle" x="133.2" y="-273.27" font-family="sans-serif" font-size="10.00">CF</text>
</a>
</g>
<g id="a_edge3&#45;taillabel"><a xlink:title="published&#45;language">
<text xml:space="preserve" text-anchor="middle" x="127.8" y="-379.36" font-family="sans-serif" font-size="10.00">PL</text>
</a>
</g>
</g>
<!-- #/boundedcontexts/fraud -->
<g id="node7" class="node">
<title>#/boundedcontexts/fraud</title>
<g id="a_node7"><a xlink:title="Risk scoring for orders and sellers">
<polygon fill="white" stroke="black" points="516.69,-204.1 522.44,-204.3 528.13,-204.59 533.74,-204.98 539.24,-205.47 544.62,-206.05 549.85,-206.73 554.91,-207.5 559.78,-208.35 564.44,-209.29 568.88,-210.32 573.08,-211.43 577.03,-212.62 580.72,-213.88 584.13,-215.21 587.25,-216.61 590.08,-218.08 592.61,-219.6 594.84,-221.18 596.76,-222.82 598.37,-224.5 599.67,-226.22 600.67,-227.98 601.37,-229.77 601.77,-231.59 601.88,-233.44 601.7,-235.3 601.25,-237.17 600.52,-239.06 599.55,-240.94 598.32,-242.83 596.86,-244.7 595.17,-246.56 593.27,-248.41 591.18,-250.23 588.9,-252.02 586.44,-253.78 583.83,-255.5 581.06,-257.18 578.16,-258.82 575.14,-260.4 572,-261.92 568.77,-263.39 565.44,-264.79 562.03,-266.12 558.55,-267.38 555.01,-268.57 551.41,-269.68 547.77,-270.71 544.08,-271.65 540.36,-272.5 536.62,-273.27 532.84,-273.95 529.05,-274.53 525.24,-275.02 521.42,-275.41 517.6,-275.7 513.76,-275.9 509.92,-276 506.08,-276 502.24,-275.9 498.4,-275.7 494.58,-275.41 490.76,-275.02 486.95,-274.53 483.16,-273.95 479.38,-273.27 475.64,-272.5 471.92,-271.65 468.23,-270.71 464.59,-269.68 460.99,-268.57 457.45,-267.38 453.97,-266.12 450.56,-264.79 447.23,-263.39 444,-261.92 440.86,-260.4 437.84,-258.82 434.94,-257.18 432.17,-255.5 429.56,-253.78 427.1,-252.02 424.82,-250.23 422.73,-248.41 420.83,-246.56 419.14,-244.7 417.68,-242.83 416.45,-240.94 415.48,-239.06 414.75,-237.17 414.3,-235.3 414.12,-233.44 414.23,-231.59 414.63,-229.77 415.33,-227.98 416.33,-226.22 417.63,-224.5 419.24,-222.82 421.16,-221.18 423.39,-219.6 425.92,-218.08 428.75,-216.61 431.87,-215.21 435.28,-213.88 438.97,-212.62 442.92,-211.43 447.12,-210.32 451.56,-209.29 456.22,-208.35 461.09,-207.5 466.15,-206.73 471.38,-206.05 476.76,-205.47 482.26,-204.98 487.87,-204.59 493.56,-204.3 499.31,-204.1 505.1,-204 510.9,-204 516.69,-204.1"/>
<text xml:space="preserve" text-anchor="middle" x="508" y="-244.2" font-family="sans-serif" font-size="14.00">Fraud</text>
<text xml:space="preserve" text-anchor="middle" x="508" y="-227.4" font-family="sans-serif" font-size="14.00">[Trust &amp; Safety Team]</text>
</a>
</g>
</g>
<!-- #/boundedcontexts/seller_onboarding&#45;&gt;#/boundedcontexts/fraud -->
<g id="edge5" class="edge">
<title>#/boundedcontexts/seller_onboarding&#45;&gt;#/boundedcontexts/fraud</title>
<g id="a_edge5"><a xlink:title="upstream&#45;downstream">
<path fill="none" stroke="black" d="M216.89,-402.78C264.54,-392.66 322.84,-376.55 371,-352 407.02,-333.64 442.34,-304.68 468.09,-280.94"/>
<polygon fill="black" stroke="black" points="470.43,-283.54 475.34,-274.15 465.65,-278.43 470.43,-283.54"/>
</a>
</g>
<text xml:space="preserve" text-anchor="middle" x="400.41" y="-343" font-family="sans-serif" font-size="10.00">U/D</text>
<g id="a_edge5&#45;headlabel"><a xlink:title="anti&#45;corruption&#45;layer">
<text xml:space="preserve" text-anchor="middle" x="476.44" y="-270.12" font-family="sans-serif" font-size="10.00">ACL</text>
</a>
</g>
<g id="a_edge5&#45;taillabel"><a xlink:title="published&#45;language">
<text xml:space="preserve" text-anchor="middle" x="216.89" y="-399.78" font-family="sans-serif" font-size="10.00">PL</text>
</a>
</g>
</g>
<!-- #/boundedcontexts/advertising -->
<g id="node9" class="node">
<title>#/boundedcontexts/advertising</title>
<g id="a_node9"><a xlink:title="Seller campaigns and the auction for sponsored slots">
<polygon fill="white" stroke="black" points="322.32,-204.1 325.84,-204.3 329.33,-204.59 332.76,-204.98 336.13,-205.47 339.42,-206.05 342.63,-206.73 345.72,-207.5 348.71,-208.35 351.56,-209.29 354.28,-210.32 356.85,-211.43 359.27,-212.62 361.53,-213.88 363.62,-215.21 365.53,-216.61 367.26,-218.08 368.81,-219.6 370.17,-221.18 371.35,-222.82 372.34,-224.5 373.14,-226.22 373.75,-227.98 374.18,-229.77 374.42,-231.59 374.49,-233.44 374.38,-235.3 374.1,-237.17 373.66,-239.06 373.06,-240.94 372.31,-242.83 371.41,-244.7 370.38,-246.56 369.22,-248.41 367.94,-250.23 366.54,-252.02 365.03,-253.78 363.43,-255.5 361.74,-257.18 359.96,-258.82 358.11,-260.4 356.19,-261.92 354.21,-263.39 352.17,-264.79 350.09,-266.12 347.96,-267.38 345.79,-268.57 343.58,-269.68 341.35,-270.71 339.1,-271.65 336.82,-272.5 334.52,-273.27 332.21,-273.95 329.89,-274.53 327.56,-275.02 325.22,-275.41 322.88,-275.7 320.53,-275.9 318.18,-276 315.82,-276 313.47,-275.9 311.12,-275.7 308.78,-275.41 306.44,-275.02 304.11,-274.53 301.79,-273.95 299.48,-273.27 297.18,-272.5 294.9,-271.65 292.65,-270.71 290.42,-269.68 288.21,-268.57 286.04,-267.38 283.91,-266.12 281.83,-264.79 279.79,-263.39 277.81,-261.92 275.89,-260.4 274.04,-258.82 272.26,-257.18 270.57,-255.5 268.97,-253.78 267.46,-252.02 266.06,-250.23 264.78,-248.41 263.62,-246.56 262.59,-244.7 261.69,-242.83 260.94,-240.94 260.34,-239.06 259.9,-237.17 259.62,-235.3 259.51,-233.44 259.58,-231.59 259.82,-229.77 260.25,-227.98 260.86,-226.22 261.66,-224.5 262.65,-222.82 263.83,-221.18 265.19,-219.6 266.74,-218.08 268.47,-216.61 270.38,-215.21 272.47,-213.88 274.73,-212.62 277.15,-211.43 279.72,-210.32 282.44,-209.29 285.29,-208.35 288.28,-207.5 291.37,-206.73 294.58,-206.05 297.87,-205.47 301.24,-204.98 304.67,-204.59 308.16,-204.3 311.68,-204.1 315.22,-204 318.78,-204 322.32,-204.1"/>
<text xml:space="preserve" text-anchor="middle" x="317" y="-244.2" font-family="sans-serif" font-size="14.00">Advertising</text>
<text xml:space="preserve" text-anchor="middle" x="317" y="-227.4" font-family="sans-serif" font-size="14.00">[Ads Team]</text>
</a>
</g>
</g>
<!-- #/boundedcontexts/seller_onboarding&#45;&gt;#/boundedcontexts/advertising -->
<g id="edge7" class="edge">
<title>#/boundedcontexts/seller_onboarding&#45;&gt;#/boundedcontexts/advertising</title>
<g id="a_edge7"><a xlink:title="upstream&#45;downstream">
<path fill="none" stroke="black" d="M171.62,-385.58C192.32,-370.23 216.67,-351.07 237,-332 254.24,-315.82 271.77,-296.31 286,-279.5"/>
<polygon fill="black" stroke="black" points="288.42,-282.07 292.16,-272.16 283.05,-277.58 288.42,-282.07"/>
</a>
</g>
<text xml:space="preserve" text-anchor="middle" x="234.36" y="-343" font-family="sans-serif" font-size="10.00">U/D</text>
<g id="a_edge7&#45;headlabel"><a xlink:title="conformist">
<text xml:space="preserve" text-anchor="middle" x="293.13" y="-268" font-family="sans-serif" font-size="10.00">CF</text>
</a>
</g>
<g id="a_edge7&#45;taillabel"><a xlink:title="published&#45;language">
<text xml:space="preserve" text-anchor="middle" x="171.62" y="-382.58" font-family="sans-serif" font-size="10.00">PL</text>
</a>
</g>
</g>
<!-- #/boundedcontexts/search -->
<g id="node4" class="node">
<title>#/boundedcontexts/search</title>
<g id="a_node4"><a xlink:title="The index and ranking that turns a query into a results page">
<polygon fill="white" stroke="black" points="142.14,-32.1 146.86,-32.3 151.54,-32.59 156.15,-32.98 160.67,-33.47 165.09,-34.05 169.38,-34.73 173.54,-35.5 177.54,-36.35 181.37,-37.29 185.02,-38.32 188.47,-39.43 191.72,-40.62 194.75,-41.88 197.55,-43.21 200.11,-44.61 202.44,-46.08 204.52,-47.6 206.35,-49.18 207.92,-50.82 209.25,-52.5 210.32,-54.22 211.14,-55.98 211.72,-57.77 212.04,-59.59 212.13,-61.44 211.99,-63.3 211.61,-65.17 211.02,-67.06 210.22,-68.94 209.21,-70.83 208.01,-72.7 206.62,-74.56 205.06,-76.41 203.34,-78.23 201.47,-80.02 199.45,-81.78 197.3,-83.5 195.03,-85.18 192.65,-86.82 190.16,-88.4 187.59,-89.92 184.93,-91.39 182.19,-92.79 179.39,-94.12 176.53,-95.38 173.62,-96.57 170.67,-97.68 167.67,-98.71 164.65,-99.65 161.59,-100.5 158.51,-101.27 155.41,-101.95 152.3,-102.53 149.17,-103.02 146.03,-103.41 142.88,-103.7 139.73,-103.9 136.58,-104 133.42,-104 130.27,-103.9 127.12,-103.7 123.97,-103.41 120.83,-103.02 117.7,-102.53 114.59,-101.95 111.49,-101.27 108.41,-100.5 105.35,-99.65 102.33,-98.71 99.33,-97.68 96.38,-96.57 93.47,-95.38 90.61,-94.12 87.81,-92.79 85.07,-91.39 82.41,-89.92 79.84,-88.4 77.35,-86.82 74.97,-85.18 72.7,-83.5 70.55,-81.78 68.53,-80.02 66.66,-78.23 64.94,-76.41 63.38,-74.56 61.99,-72.7 60.79,-70.83 59.78,-68.94 58.98,-67.06 58.39,-65.17 58.01,-63.3 57.87,-61.44 57.96,-59.59 58.28,-57.77 58.86,-55.98 59.68,-54.22 60.75,-52.5 62.08,-50.82 63.65,-49.18 65.48,-47.6 67.56,-46.08 69.89,-44.61 72.45,-43.21 75.25,-41.88 78.28,-40.62 81.53,-39.43 84.98,-38.32 88.63,-37.29 92.46,-36.35 96.46,-35.5 100.62,-34.73 104.91,-34.05 109.33,-33.47 113.85,-32.98 118.46,-32.59 123.14,-32.3 127.86,-32.1 132.62,-32 137.38,-32 142.14,-32.1"/>
<text xml:space="preserve" text-anchor="middle" x="135" y="-72.2" font-family="sans-serif" font-size="14.00">Search</text>
<text xml:space="preserve" text-anchor="middle" x="135" y="-55.4" font-family="sans-serif" font-size="14.00">[Discovery Team]</text>
</a>
</g>
</g>
<!-- #/boundedcontexts/offers&#45;&gt;#/boundedcontexts/search -->
<g id="edge2" class="edge">
<title>#/boundedcontexts/offers&#45;&gt;#/boundedcontexts/search</title>
<g id="a_edge2"><a xlink:title="The buy box price is indexed as published">
<path fill="none" stroke="black" d="M135,-203.78C135,-178.33 135,-143.7 135,-115.91"/>
<polygon fill="black" stroke="black" points="138.5,-115.98 135,-105.98 131.5,-115.98 138.5,-115.98"/>
</a>
</g>
<text xml:space="preserve" text-anchor="middle" x="143.61" y="-171" font-family="sans-serif" font-size="10.00">U/D</text>
<g id="a_edge2&#45;headlabel"><a xlink:title="conformist">
<text xml:space="preserve" text-anchor="middle" x="135" y="-101.47" font-family="sans-serif" font-size="10.00">CF</text>
</a>
</g>
<g id="a_edge2&#45;taillabel"><a xlink:title="published&#45;language">
<text xml:space="preserve" text-anchor="middle" x="135" y="-200.78" font-family="sans-serif" font-size="10.00">PL</text>
</a>
</g>
</g>
<!-- #/boundedcontexts/cart_&amp;_checkout -->
<g id="node5" class="node">
<title>#/boundedcontexts/cart_&amp;_checkout</title>
<g id="a_node5"><a xlink:title="The cart and the checkout orchestration across payments and orders">
<polygon fill="white" stroke="black" points="518.9,-32.1 523.47,-32.3 528,-32.59 532.45,-32.98 536.83,-33.47 541.1,-34.05 545.25,-34.73 549.27,-35.5 553.14,-36.35 556.85,-37.29 560.38,-38.32 563.72,-39.43 566.86,-40.62 569.78,-41.88 572.49,-43.21 574.97,-44.61 577.22,-46.08 579.23,-47.6 581,-49.18 582.53,-50.82 583.81,-52.5 584.85,-54.22 585.64,-55.98 586.2,-57.77 586.51,-59.59 586.6,-61.44 586.46,-63.3 586.1,-65.17 585.52,-67.06 584.75,-68.94 583.77,-70.83 582.61,-72.7 581.27,-74.56 579.76,-76.41 578.1,-78.23 576.28,-80.02 574.33,-81.78 572.25,-83.5 570.06,-85.18 567.75,-86.82 565.35,-88.4 562.86,-89.92 560.29,-91.39 557.64,-92.79 554.93,-94.12 552.17,-95.38 549.35,-96.57 546.5,-97.68 543.6,-98.71 540.67,-99.65 537.72,-100.5 534.74,-101.27 531.74,-101.95 528.73,-102.53 525.7,-103.02 522.67,-103.41 519.62,-103.7 516.58,-103.9 513.53,-104 510.47,-104 507.42,-103.9 504.38,-103.7 501.33,-103.41 498.3,-103.02 495.27,-102.53 492.26,-101.95 489.26,-101.27 486.28,-100.5 483.33,-99.65 480.4,-98.71 477.5,-97.68 474.65,-96.57 471.83,-95.38 469.07,-94.12 466.36,-92.79 463.71,-91.39 461.14,-89.92 458.65,-88.4 456.25,-86.82 453.94,-85.18 451.75,-83.5 449.67,-81.78 447.72,-80.02 445.9,-78.23 444.24,-76.41 442.73,-74.56 441.39,-72.7 440.23,-70.83 439.25,-68.94 438.48,-67.06 437.9,-65.17 437.54,-63.3 437.4,-61.44 437.49,-59.59 437.8,-57.77 438.36,-55.98 439.15,-54.22 440.19,-52.5 441.47,-50.82 443,-49.18 444.77,-47.6 446.78,-46.08 449.03,-44.61 451.51,-43.21 454.22,-41.88 457.14,-40.62 460.28,-39.43 463.62,-38.32 467.15,-37.29 470.86,-36.35 474.73,-35.5 478.75,-34.73 482.9,-34.05 487.17,-33.47 491.55,-32.98 496,-32.59 500.53,-32.3 505.1,-32.1 509.7,-32 514.3,-32 518.9,-32.1"/>
<text xml:space="preserve" text-anchor="middle" x="512" y="-72.2" font-family="sans-serif" font-size="14.00">Cart &amp; Checkout</text>
<text xml:space="preserve" text-anchor="middle" x="512" y="-55.4" font-family="sans-serif" font-size="14.00">[Checkout Team]</text>
</a>
</g>
</g>
<!-- #/boundedcontexts/offers&#45;&gt;#/boundedcontexts/cart_&amp;_checkout -->
<g id="edge4" class="edge">
<title>#/boundedcontexts/offers&#45;&gt;#/boundedcontexts/cart_&amp;_checkout</title>
<g id="a_edge4"><a xlink:title="Checkout is the offer API&#39;s main customer and gets a say in its contract">
<path fill="none" stroke="black" d="M189.29,-209.69C206.11,-201.62 224.97,-193.57 243,-188 318.68,-164.63 348.24,-195.6 419,-160 442.8,-148.03 464.41,-127.77 480.79,-109.41"/>
<polygon fill="black" stroke="black" points="483.06,-112.14 486.95,-102.28 477.77,-107.56 483.06,-112.14"/>
</a>
</g>
<text xml:space="preserve" text-anchor="middle" x="406.43" y="-171" font-family="sans-serif" font-size="10.00">C/S</text>
<g id="a_edge4&#45;headlabel"><a xlink:title="anti&#45;corruption&#45;layer">
<text xml:space="preserve" text-anchor="middle" x="487.94" y="-98.14" font-family="sans-serif" font-size="10.00">ACL</text>
</a>
</g>
<g id="a_edge4&#45;taillabel"><a xlink:title="open&#45;host&#45;service">
<text xml:space="preserve" text-anchor="middle" x="189.29" y="-206.69" font-family="sans-serif" font-size="10.00">OHS</text>
</a>
</g>
</g>
<!-- #/boundedcontexts/catalogue -->
<g id="node3" class="node">
<title>#/boundedcontexts/catalogue</title>
<g id="a_node3"><a xlink:title="The product records: what a thing is, independent of who sells it">
<polygon fill="white" stroke="black" points="332.09,-32.1 336.78,-32.3 341.43,-32.59 346.01,-32.98 350.5,-33.47 354.89,-34.05 359.16,-34.73 363.29,-35.5 367.26,-36.35 371.07,-37.29 374.69,-38.32 378.12,-39.43 381.35,-40.62 384.35,-41.88 387.13,-43.21 389.68,-44.61 391.99,-46.08 394.06,-47.6 395.88,-49.18 397.44,-50.82 398.76,-52.5 399.82,-54.22 400.64,-55.98 401.21,-57.77 401.54,-59.59 401.62,-61.44 401.48,-63.3 401.11,-65.17 400.52,-67.06 399.72,-68.94 398.72,-70.83 397.53,-72.7 396.15,-74.56 394.6,-76.41 392.89,-78.23 391.03,-80.02 389.02,-81.78 386.89,-83.5 384.63,-85.18 382.27,-86.82 379.8,-88.4 377.24,-89.92 374.6,-91.39 371.88,-92.79 369.1,-94.12 366.26,-95.38 363.37,-96.57 360.43,-97.68 357.46,-98.71 354.45,-99.65 351.42,-100.5 348.36,-101.27 345.28,-101.95 342.18,-102.53 339.08,-103.02 335.96,-103.41 332.83,-103.7 329.7,-103.9 326.57,-104 323.43,-104 320.3,-103.9 317.17,-103.7 314.04,-103.41 310.92,-103.02 307.82,-102.53 304.72,-101.95 301.64,-101.27 298.58,-100.5 295.55,-99.65 292.54,-98.71 289.57,-97.68 286.63,-96.57 283.74,-95.38 280.9,-94.12 278.12,-92.79 275.4,-91.39 272.76,-89.92 270.2,-88.4 267.73,-86.82 265.37,-85.18 263.11,-83.5 260.98,-81.78 258.97,-80.02 257.11,-78.23 255.4,-76.41 253.85,-74.56 252.47,-72.7 251.28,-70.83 250.28,-68.94 249.48,-67.06 248.89,-65.17 248.52,-63.3 248.38,-61.44 248.46,-59.59 248.79,-57.77 249.36,-55.98 250.18,-54.22 251.24,-52.5 252.56,-50.82 254.12,-49.18 255.94,-47.6 258.01,-46.08 260.32,-44.61 262.87,-43.21 265.65,-41.88 268.65,-40.62 271.88,-39.43 275.31,-38.32 278.93,-37.29 282.74,-36.35 286.71,-35.5 290.84,-34.73 295.11,-34.05 299.5,-33.47 303.99,-32.98 308.57,-32.59 313.22,-32.3 317.91,-32.1 322.63,-32 327.37,-32 332.09,-32.1"/>
<text xml:space="preserve" text-anchor="middle" x="325" y="-72.2" font-family="sans-serif" font-size="14.00">Catalogue</text>
<text xml:space="preserve" text-anchor="middle" x="325" y="-55.4" font-family="sans-serif" font-size="14.00">[Catalogue Team]</text>
</a>
</g>
</g>
<!-- #/boundedcontexts/catalogue&#45;&gt;#/boundedcontexts/offers -->
<g id="edge1" class="edge">
<title>#/boundedcontexts/catalogue&#45;&gt;#/boundedcontexts/offers</title>
<g id="a_edge1"><a xlink:title="Offers keep their own SKU list translated from catalogue events">
<path fill="none" stroke="black" d="M294.28,-99.48C275.93,-117.43 251.98,-140.38 230,-160 215.15,-173.26 198.59,-187.28 183.5,-199.78"/>
<polygon fill="black" stroke="black" points="181.47,-196.91 175.98,-205.98 185.92,-202.31 181.47,-196.91"/>
</a>
</g>
<text xml:space="preserve" text-anchor="middle" x="228.56" y="-171" font-family="sans-serif" font-size="10.00">U/D</text>
<g id="a_edge1&#45;headlabel"><a xlink:title="anti&#45;corruption&#45;layer">
<text xml:space="preserve" text-anchor="middle" x="174.81" y="-203.94" font-family="sans-serif" font-size="10.00">ACL</text>
</a>
</g>
<g id="a_edge1&#45;taillabel"><a xlink:title="published&#45;language">
<text xml:space="preserve" text-anchor="middle" x="294.28" y="-96.48" font-family="sans-serif" font-size="10.00">PL</text>
</a>
</g>
</g>
<!-- #/boundedcontexts/order_management -->
<g id="node6" class="node">
<title>#/boundedcontexts/order_management</title>
<g id="a_node6"><a xlink:title="The order as the customer sees it: lines, shipments and returns">
<polygon fill="white" stroke="black" points="711.56,-32.1 716.57,-32.3 721.52,-32.59 726.4,-32.98 731.19,-33.47 735.87,-34.05 740.42,-34.73 744.82,-35.5 749.06,-36.35 753.12,-37.29 756.98,-38.32 760.64,-39.43 764.08,-40.62 767.28,-41.88 770.25,-43.21 772.97,-44.61 775.43,-46.08 777.63,-47.6 779.57,-49.18 781.24,-50.82 782.64,-52.5 783.78,-54.22 784.65,-55.98 785.26,-57.77 785.6,-59.59 785.7,-61.44 785.54,-63.3 785.15,-65.17 784.52,-67.06 783.67,-68.94 782.6,-70.83 781.33,-72.7 779.86,-74.56 778.21,-76.41 776.39,-78.23 774.4,-80.02 772.27,-81.78 769.99,-83.5 767.58,-85.18 765.06,-86.82 762.43,-88.4 759.7,-89.92 756.88,-91.39 753.99,-92.79 751.02,-94.12 747.99,-95.38 744.91,-96.57 741.78,-97.68 738.61,-98.71 735.4,-99.65 732.17,-100.5 728.9,-101.27 725.62,-101.95 722.32,-102.53 719.01,-103.02 715.68,-103.41 712.35,-103.7 709.01,-103.9 705.67,-104 702.33,-104 698.99,-103.9 695.65,-103.7 692.32,-103.41 688.99,-103.02 685.68,-102.53 682.38,-101.95 679.1,-101.27 675.83,-100.5 672.6,-99.65 669.39,-98.71 666.22,-97.68 663.09,-96.57 660.01,-95.38 656.98,-94.12 654.01,-92.79 651.12,-91.39 648.3,-89.92 645.57,-88.4 642.94,-86.82 640.42,-85.18 638.01,-83.5 635.73,-81.78 633.6,-80.02 631.61,-78.23 629.79,-76.41 628.14,-74.56 626.67,-72.7 625.4,-70.83 624.33,-68.94 623.48,-67.06 622.85,-65.17 622.46,-63.3 622.3,-61.44 622.4,-59.59 622.74,-57.77 623.35,-55.98 624.22,-54.22 625.36,-52.5 626.76,-50.82 628.43,-49.18 630.37,-47.6 632.57,-46.08 635.03,-44.61 637.75,-43.21 640.72,-41.88 643.92,-40.62 647.36,-39.43 651.02,-38.32 654.88,-37.29 658.94,-36.35 663.18,-35.5 667.58,-34.73 672.13,-34.05 676.81,-33.47 681.6,-32.98 686.48,-32.59 691.43,-32.3 696.44,-32.1 701.48,-32 706.52,-32 711.56,-32.1"/>
<text xml:space="preserve" text-anchor="middle" x="704" y="-72.2" font-family="sans-serif" font-size="14.00">Order Management</text>
<text xml:space="preserve" text-anchor="middle" x="704" y="-55.4" font-family="sans-serif" font-size="14.00">[Orders Team]</text>
</a>
</g>
</g>
<!-- #/boundedcontexts/order_management&#45;&gt;#/boundedcontexts/fraud -->
<g id="edge9" class="edge">
<title>#/boundedcontexts/order_management&#45;&gt;#/boundedcontexts/fraud</title>
<g id="a_edge9"><a xlink:title="upstream&#45;downstream">
<path fill="none" stroke="black" stroke-dasharray="5,2" d="M671.89,-99.42C652.73,-117.34 627.77,-140.29 605,-160 589.9,-173.07 573.13,-186.94 557.84,-199.36"/>
<polygon fill="black" stroke="black" points="555.79,-196.52 550.21,-205.53 560.19,-201.96 555.79,-196.52"/>
</a>
</g>
<text xml:space="preserve" text-anchor="middle" x="603.31" y="-171" font-family="sans-serif" font-size="10.00">U/D</text>
<g id="a_edge9&#45;headlabel"><a xlink:title="anti&#45;corruption&#45;layer">
<text xml:space="preserve" text-anchor="middle" x="549.04" y="-203.48" font-family="sans-serif" font-size="10.00">ACL</text>
</a>
</g>
<g id="a_edge9&#45;taillabel"><a xlink:title="published&#45;language">
<text xml:space="preserve" text-anchor="middle" x="671.89" y="-96.42" font-family="sans-serif" font-size="10.00">PL</text>
</a>
</g>
</g>
<!-- #/boundedcontexts/warehouse -->
<g id="node11" class="node">
<title>#/boundedcontexts/warehouse</title>
<g id="a_node11"><a xlink:title="Stock positions, reservations, picking and dispatch">
<polygon fill="white" stroke="black" points="1222.23,-382.8 1227.02,-382.99 1231.76,-383.29 1236.43,-383.68 1241.01,-384.17 1245.49,-384.75 1249.84,-385.43 1254.05,-386.19 1258.11,-387.05 1261.99,-387.99 1265.69,-389.02 1269.19,-390.13 1272.47,-391.31 1275.54,-392.57 1278.38,-393.91 1280.98,-395.31 1283.33,-396.77 1285.44,-398.3 1287.3,-399.88 1288.89,-401.51 1290.24,-403.19 1291.32,-404.92 1292.16,-406.68 1292.74,-408.47 1293.07,-410.29 1293.16,-412.13 1293.01,-414 1292.63,-415.87 1292.03,-417.75 1291.22,-419.64 1290.19,-421.52 1288.98,-423.4 1287.57,-425.26 1286,-427.1 1284.25,-428.93 1282.35,-430.72 1280.31,-432.48 1278.13,-434.2 1275.83,-435.88 1273.41,-437.51 1270.9,-439.1 1268.29,-440.62 1265.59,-442.09 1262.82,-443.49 1259.98,-444.82 1257.09,-446.08 1254.14,-447.27 1251.14,-448.38 1248.11,-449.4 1245.04,-450.35 1241.94,-451.2 1238.82,-451.97 1235.68,-452.64 1232.53,-453.23 1229.36,-453.71 1226.18,-454.11 1222.99,-454.4 1219.8,-454.6 1216.6,-454.7 1213.4,-454.7 1210.2,-454.6 1207.01,-454.4 1203.82,-454.11 1200.64,-453.71 1197.47,-453.23 1194.32,-452.64 1191.18,-451.97 1188.06,-451.2 1184.96,-450.35 1181.89,-449.4 1178.86,-448.38 1175.86,-447.27 1172.91,-446.08 1170.02,-444.82 1167.18,-443.49 1164.41,-442.09 1161.71,-440.62 1159.1,-439.1 1156.59,-437.51 1154.17,-435.88 1151.87,-434.2 1149.69,-432.48 1147.65,-430.72 1145.75,-428.93 1144,-427.1 1142.43,-425.26 1141.02,-423.4 1139.81,-421.52 1138.78,-419.64 1137.97,-417.75 1137.37,-415.87 1136.99,-414 1136.84,-412.13 1136.93,-410.29 1137.26,-408.47 1137.84,-406.68 1138.68,-404.92 1139.76,-403.19 1141.11,-401.51 1142.7,-399.88 1144.56,-398.3 1146.67,-396.77 1149.02,-395.31 1151.62,-393.91 1154.46,-392.57 1157.53,-391.31 1160.81,-390.13 1164.31,-389.02 1168.01,-387.99 1171.89,-387.05 1175.95,-386.19 1180.16,-385.43 1184.51,-384.75 1188.99,-384.17 1193.57,-383.68 1198.24,-383.29 1202.98,-382.99 1207.77,-382.8 1212.59,-382.7 1217.41,-382.7 1222.23,-382.8"/>
<text xml:space="preserve" text-anchor="middle" x="1215" y="-422.9" font-family="sans-serif" font-size="14.00">Warehouse</text>
<text xml:space="preserve" text-anchor="middle" x="1215" y="-406.1" font-family="sans-serif" font-size="14.00">[Fulfilment Team]</text>
</a>
</g>
</g>
<!-- #/boundedcontexts/order_management&#45;&gt;#/boundedcontexts/warehouse -->
<g id="edge12" class="edge">
<title>#/boundedcontexts/order_management&#45;&gt;#/boundedcontexts/warehouse</title>
<g id="a_edge12"><a xlink:title="upstream&#45;downstream">
<path fill="none" stroke="black" stroke-dasharray="5,2" d="M774.71,-80.38C846.05,-94.91 956.06,-125.99 1031,-188 1088.39,-235.49 1069.06,-274.8 1116.78,-332 1130.98,-349.02 1148.68,-365.56 1165.14,-379.49"/>
<polygon fill="black" stroke="black" points="1162.52,-381.86 1172.44,-385.56 1166.99,-376.48 1162.52,-381.86"/>
</a>
</g>
<text xml:space="preserve" text-anchor="middle" x="1125.39" y="-237" font-family="sans-serif" font-size="10.00">U/D</text>
<g id="a_edge12&#45;headlabel"><a xlink:title="anti&#45;corruption&#45;layer">
<text xml:space="preserve" text-anchor="middle" x="1173.61" y="-383.53" font-family="sans-serif" font-size="10.00">ACL</text>
</a>
</g>
<g id="a_edge12&#45;taillabel"><a xlink:title="published&#45;language">
<text xml:space="preserve" text-anchor="middle" x="774.71" y="-77.38" font-family="sans-serif" font-size="10.00">PL</text>
</a>
</g>
</g>
<!-- #/boundedcontexts/fraud&#45;&gt;#/boundedcontexts/seller_onboarding -->
<g id="edge6" class="edge">
<title>#/boundedcontexts/fraud&#45;&gt;#/boundedcontexts/seller_onboarding</title>
<g id="a_edge6"><a xlink:title="upstream&#45;downstream">
<path fill="none" stroke="black" d="M476.08,-272.91C454.03,-293.05 423.01,-317.85 391,-332 371.93,-340.43 364.95,-334.71 344.78,-340 297.25,-352.46 245.39,-370.66 204.09,-386.32"/>
<polygon fill="black" stroke="black" points="203.06,-382.97 194.97,-389.81 205.56,-389.51 203.06,-382.97"/>
</a>
</g>
<text xml:space="preserve" text-anchor="middle" x="353.39" y="-343" font-family="sans-serif" font-size="10.00">U/D</text>
<g id="a_edge6&#45;headlabel"><a xlink:title="anti&#45;corruption&#45;layer">
<text xml:space="preserve" text-anchor="middle" x="193.55" y="-387.35" font-family="sans-serif" font-size="10.00">ACL</text>
</a>
</g>
<g id="a_edge6&#45;taillabel"><a xlink:title="published&#45;language">
<text xml:space="preserve" text-anchor="middle" x="476.08" y="-269.91" font-family="sans-serif" font-size="10.00">PL</text>
</a>
</g>
</g>
<!-- #/boundedcontexts/fraud&#45;&gt;#/boundedcontexts/order_management -->
<g id="edge10" class="edge">
<title>#/boundedcontexts/fraud&#45;&gt;#/boundedcontexts/order_management</title>
<g id="a_edge10"><a xlink:title="upstream&#45;downstream">
<path fill="none" stroke="black" stroke-dasharray="5,2" d="M523.4,-203.92C530.96,-190.63 541.38,-176.64 554.78,-168 573.77,-155.74 584.65,-169.84 605,-160 629.78,-148.01 652.74,-127.75 670.3,-109.39"/>
<polygon fill="black" stroke="black" points="672.71,-111.94 676.94,-102.23 667.58,-107.18 672.71,-111.94"/>
</a>
</g>
<text xml:space="preserve" text-anchor="middle" x="563.39" y="-171" font-family="sans-serif" font-size="10.00">U/D</text>
<g id="a_edge10&#45;headlabel"><a xlink:title="anti&#45;corruption&#45;layer">
<text xml:space="preserve" text-anchor="middle" x="677.97" y="-98.12" font-family="sans-serif" font-size="10.00">ACL</text>
</a>
</g>
<g id="a_edge10&#45;taillabel"><a xlink:title="published&#45;language">
<text xml:space="preserve" text-anchor="middle" x="523.4" y="-200.92" font-family="sans-serif" font-size="10.00">PL</text>
</a>
</g>
</g>
<!-- #/boundedcontexts/payments -->
<g id="node8" class="node">
<title>#/boundedcontexts/payments</title>
<g id="a_node8"><a xlink:title="Authorisation, capture and refund against a payment provider">
<polygon fill="white" stroke="black" points="719.95,-204.1 724.55,-204.3 729.11,-204.59 733.59,-204.98 738,-205.47 742.3,-206.05 746.48,-206.73 750.53,-207.5 754.43,-208.35 758.16,-209.29 761.71,-210.32 765.07,-211.43 768.23,-212.62 771.18,-213.88 773.91,-215.21 776.41,-216.61 778.67,-218.08 780.7,-219.6 782.48,-221.18 784.01,-222.82 785.3,-224.5 786.35,-226.22 787.15,-227.98 787.71,-229.77 788.03,-231.59 788.11,-233.44 787.97,-235.3 787.61,-237.17 787.03,-239.06 786.25,-240.94 785.26,-242.83 784.09,-244.7 782.75,-246.56 781.23,-248.41 779.55,-250.23 777.73,-252.02 775.76,-253.78 773.67,-255.5 771.46,-257.18 769.14,-258.82 766.72,-260.4 764.21,-261.92 761.62,-263.39 758.96,-264.79 756.23,-266.12 753.45,-267.38 750.61,-268.57 747.73,-269.68 744.82,-270.71 741.87,-271.65 738.89,-272.5 735.9,-273.27 732.88,-273.95 729.84,-274.53 726.8,-275.02 723.74,-275.41 720.68,-275.7 717.61,-275.9 714.54,-276 711.46,-276 708.39,-275.9 705.32,-275.7 702.26,-275.41 699.2,-275.02 696.16,-274.53 693.12,-273.95 690.1,-273.27 687.11,-272.5 684.13,-271.65 681.18,-270.71 678.27,-269.68 675.39,-268.57 672.55,-267.38 669.77,-266.12 667.04,-264.79 664.38,-263.39 661.79,-261.92 659.28,-260.4 656.86,-258.82 654.54,-257.18 652.33,-255.5 650.24,-253.78 648.27,-252.02 646.45,-250.23 644.77,-248.41 643.25,-246.56 641.91,-244.7 640.74,-242.83 639.75,-240.94 638.97,-239.06 638.39,-237.17 638.03,-235.3 637.89,-233.44 637.97,-231.59 638.29,-229.77 638.85,-227.98 639.65,-226.22 640.7,-224.5 641.99,-222.82 643.52,-221.18 645.3,-219.6 647.33,-218.08 649.59,-216.61 652.09,-215.21 654.82,-213.88 657.77,-212.62 660.93,-211.43 664.29,-210.32 667.84,-209.29 671.57,-208.35 675.47,-207.5 679.52,-206.73 683.7,-206.05 688,-205.47 692.41,-204.98 696.89,-204.59 701.45,-204.3 706.05,-204.1 710.68,-204 715.32,-204 719.95,-204.1"/>
<text xml:space="preserve" text-anchor="middle" x="713" y="-244.2" font-family="sans-serif" font-size="14.00">Payments</text>
<text xml:space="preserve" text-anchor="middle" x="713" y="-227.4" font-family="sans-serif" font-size="14.00">[Payments Team]</text>
</a>
</g>
</g>
<!-- #/boundedcontexts/payments&#45;&gt;#/boundedcontexts/order_management -->
<g id="edge13" class="edge">
<title>#/boundedcontexts/payments&#45;&gt;#/boundedcontexts/order_management</title>
<g id="a_edge13"><a xlink:title="upstream&#45;downstream">
<path fill="none" stroke="black" stroke-dasharray="5,2" d="M711.14,-203.78C709.79,-178.33 707.95,-143.7 706.48,-115.91"/>
<polygon fill="black" stroke="black" points="709.98,-115.78 705.96,-105.98 702.99,-116.15 709.98,-115.78"/>
</a>
</g>
<text xml:space="preserve" text-anchor="middle" x="718.44" y="-171" font-family="sans-serif" font-size="10.00">U/D</text>
<g id="a_edge13&#45;headlabel"><a xlink:title="anti&#45;corruption&#45;layer">
<text xml:space="preserve" text-anchor="middle" x="705.88" y="-101.47" font-family="sans-serif" font-size="10.00">ACL</text>
</a>
</g>
<g id="a_edge13&#45;taillabel"><a xlink:title="open&#45;host&#45;service">
<text xml:space="preserve" text-anchor="middle" x="711.14" y="-200.78" font-family="sans-serif" font-size="10.00">OHS</text>
</a>
</g>
</g>
<!-- #/boundedcontexts/vendor_purchasing_(legacy) -->
<g id="node10" class="node">
<title>#/boundedcontexts/vendor_purchasing_(legacy)</title>
<g id="a_node10"><a xlink:title="The 2009 purchasing system for first&#45;party stock. Batch jobs, shared tables, no owner of the schema">
<polygon fill="#d7ccc8" stroke="black" stroke-dasharray="5,2" points="1096.45,-400.18 1096.45,-437.21 1018.86,-463.39 909.14,-463.39 831.55,-437.21 831.55,-400.18 909.14,-374 1018.86,-374 1096.45,-400.18"/>
<polygon fill="none" stroke="black" stroke-dasharray="5,2" points="1100.45,-397.31 1100.45,-440.08 1019.52,-467.39 908.48,-467.39 827.55,-440.08 827.55,-397.31 908.48,-370 1019.52,-370 1100.45,-397.31"/>
<text xml:space="preserve" text-anchor="middle" x="964" y="-431.3" font-family="sans-serif" font-size="14.00">Vendor Purchasing (legacy)</text>
<text xml:space="preserve" text-anchor="middle" x="964" y="-414.5" font-family="sans-serif" font-size="14.00">(big ball of mud)</text>
<text xml:space="preserve" text-anchor="middle" x="964" y="-397.7" font-family="sans-serif" font-size="14.00">[Retail Systems Team]</text>
</a>
</g>
</g>
<!-- #/boundedcontexts/vendor_purchasing_(legacy)&#45;&gt;#/boundedcontexts/seller_onboarding -->
<g id="edge8" class="edge">
<title>#/boundedcontexts/vendor_purchasing_(legacy)&#45;&gt;#/boundedcontexts/seller_onboarding</title>
<g id="a_edge8"><a xlink:title="Vendors and sellers are kept apart by policy; no shared identity, no shared data">
<path fill="none" stroke="grey" d="M827.27,-418.7C655.7,-418.7 366.08,-418.7 218.48,-418.7"/>
</a>
</g>
<text xml:space="preserve" text-anchor="middle" x="523.84" y="-424.7" font-family="sans-serif" font-size="10.00">SW</text>
</g>
<!-- #/boundedcontexts/warehouse&#45;&gt;#/boundedcontexts/order_management -->
<g id="edge11" class="edge">
<title>#/boundedcontexts/warehouse&#45;&gt;#/boundedcontexts/order_management</title>
<g id="a_edge11"><a xlink:title="upstream&#45;downstream">
<path fill="none" stroke="black" stroke-dasharray="5,2" d="M1213.26,-382.33C1208.3,-325.25 1189.21,-214.51 1116,-168 1016.81,-104.99 880.98,-82.07 792.86,-73.74"/>
<polygon fill="black" stroke="black" points="793.34,-70.27 783.07,-72.86 792.71,-77.24 793.34,-70.27"/>
</a>
</g>
<text xml:space="preserve" text-anchor="middle" x="1214.85" y="-237" font-family="sans-serif" font-size="10.00">U/D</text>
<g id="a_edge11&#45;headlabel"><a xlink:title="anti&#45;corruption&#45;layer">
<text xml:space="preserve" text-anchor="middle" x="781.56" y="-69.72" font-family="sans-serif" font-size="10.00">ACL</text>
</a>
</g>
<g id="a_edge11&#45;taillabel"><a xlink:title="published&#45;language">
<text xml:space="preserve" text-anchor="middle" x="1213.26" y="-379.33" font-family="sans-serif" font-size="10.00">PL</text>
</a>
</g>
</g>
<!-- #/boundedcontexts/warehouse&#45;&gt;#/boundedcontexts/payments -->
<g id="edge14" class="edge">
<title>#/boundedcontexts/warehouse&#45;&gt;#/boundedcontexts/payments</title>
<g id="a_edge14"><a xlink:title="upstream&#45;downstream">
<path fill="none" stroke="black" stroke-dasharray="5,2" d="M1169.93,-387.02C1153.87,-377.49 1135.24,-367.93 1117,-362 1109.93,-359.7 857.99,-334.53 851,-332 816.36,-319.45 781.77,-296.61 755.88,-276.95"/>
<polygon fill="black" stroke="black" points="758.34,-274.43 748.29,-271.07 754.06,-279.96 758.34,-274.43"/>
</a>
</g>
<text xml:space="preserve" text-anchor="middle" x="1038.35" y="-343" font-family="sans-serif" font-size="10.00">U/D</text>
<g id="a_edge14&#45;headlabel"><a xlink:title="anti&#45;corruption&#45;layer">
<text xml:space="preserve" text-anchor="middle" x="747.1" y="-267.15" font-family="sans-serif" font-size="10.00">ACL</text>
</a>
</g>
<g id="a_edge14&#45;taillabel"><a xlink:title="published&#45;language">
<text xml:space="preserve" text-anchor="middle" x="1169.93" y="-384.02" font-family="sans-serif" font-size="10.00">PL</text>
</a>
</g>
</g>
<!-- #/boundedcontexts/last_mile -->
<g id="node12" class="node">
<title>#/boundedcontexts/last_mile</title>
<g id="a_node12"><a xlink:title="Delivery routes, stops and proof of delivery">
<polygon fill="white" stroke="black" points="947.76,-204.1 952.24,-204.3 956.67,-204.59 961.04,-204.98 965.32,-205.47 969.51,-206.05 973.58,-206.73 977.52,-207.5 981.31,-208.35 984.94,-209.29 988.4,-210.32 991.67,-211.43 994.74,-212.62 997.61,-213.88 1000.26,-215.21 1002.69,-216.61 1004.9,-218.08 1006.87,-219.6 1008.6,-221.18 1010.1,-222.82 1011.35,-224.5 1012.37,-226.22 1013.15,-227.98 1013.69,-229.77 1014,-231.59 1014.08,-233.44 1013.94,-235.3 1013.59,-237.17 1013.03,-239.06 1012.27,-240.94 1011.31,-242.83 1010.17,-244.7 1008.86,-246.56 1007.39,-248.41 1005.75,-250.23 1003.98,-252.02 1002.07,-253.78 1000.03,-255.5 997.88,-257.18 995.62,-258.82 993.27,-260.4 990.83,-261.92 988.31,-263.39 985.72,-264.79 983.06,-266.12 980.35,-267.38 977.6,-268.57 974.8,-269.68 971.96,-270.71 969.09,-271.65 966.2,-272.5 963.28,-273.27 960.34,-273.95 957.39,-274.53 954.42,-275.02 951.45,-275.41 948.47,-275.7 945.48,-275.9 942.49,-276 939.51,-276 936.52,-275.9 933.53,-275.7 930.55,-275.41 927.58,-275.02 924.61,-274.53 921.66,-273.95 918.72,-273.27 915.8,-272.5 912.91,-271.65 910.04,-270.71 907.2,-269.68 904.4,-268.57 901.65,-267.38 898.94,-266.12 896.28,-264.79 893.69,-263.39 891.17,-261.92 888.73,-260.4 886.38,-258.82 884.12,-257.18 881.97,-255.5 879.93,-253.78 878.02,-252.02 876.25,-250.23 874.61,-248.41 873.14,-246.56 871.83,-244.7 870.69,-242.83 869.73,-240.94 868.97,-239.06 868.41,-237.17 868.06,-235.3 867.92,-233.44 868,-231.59 868.31,-229.77 868.85,-227.98 869.63,-226.22 870.65,-224.5 871.9,-222.82 873.4,-221.18 875.13,-219.6 877.1,-218.08 879.31,-216.61 881.74,-215.21 884.39,-213.88 887.26,-212.62 890.33,-211.43 893.6,-210.32 897.06,-209.29 900.69,-208.35 904.48,-207.5 908.42,-206.73 912.49,-206.05 916.68,-205.47 920.96,-204.98 925.33,-204.59 929.76,-204.3 934.24,-204.1 938.74,-204 943.26,-204 947.76,-204.1"/>
<text xml:space="preserve" text-anchor="middle" x="941" y="-244.2" font-family="sans-serif" font-size="14.00">Last Mile</text>
<text xml:space="preserve" text-anchor="middle" x="941" y="-227.4" font-family="sans-serif" font-size="14.00">[Logistics Team]</text>
</a>
</g>
</g>
<!-- #/boundedcontexts/warehouse&#45;&gt;#/boundedcontexts/last_mile -->
<g id="edge16" class="edge">
<title>#/boundedcontexts/warehouse&#45;&gt;#/boundedcontexts/last_mile</title>
<g id="a_edge16"><a xlink:title="upstream&#45;downstream">
<path fill="none" stroke="black" stroke-dasharray="5,2" d="M1167.9,-387.63C1152.16,-378.48 1134.22,-369.01 1117,-362 1100.74,-355.38 1094.46,-359.91 1078.78,-352 1041.53,-333.22 1005.03,-303.13 978.96,-279.01"/>
<polygon fill="black" stroke="black" points="981.67,-276.75 971.98,-272.45 976.87,-281.85 981.67,-276.75"/>
</a>
</g>
<text xml:space="preserve" text-anchor="middle" x="1087.39" y="-343" font-family="sans-serif" font-size="10.00">U/D</text>
<g id="a_edge16&#45;taillabel"><a xlink:title="published&#45;language">
<text xml:space="preserve" text-anchor="middle" x="1167.9" y="-384.63" font-family="sans-serif" font-size="10.00">PL</text>
</a>
</g>
</g>
<!-- #/boundedcontexts/last_mile&#45;&gt;#/boundedcontexts/order_management -->
<g id="edge15" class="edge">
<title>#/boundedcontexts/last_mile&#45;&gt;#/boundedcontexts/order_management</title>
<g id="a_edge15"><a xlink:title="upstream&#45;downstream">
<path fill="none" stroke="black" stroke-dasharray="5,2" d="M898.63,-208.61C857.7,-179.25 795.74,-134.81 752.78,-103.99"/>
<polygon fill="black" stroke="black" points="755.03,-101.3 744.87,-98.32 750.95,-106.99 755.03,-101.3"/>
</a>
</g>
<text xml:space="preserve" text-anchor="middle" x="866.19" y="-171" font-family="sans-serif" font-size="10.00">U/D</text>
<g id="a_edge15&#45;headlabel"><a xlink:title="anti&#45;corruption&#45;layer">
<text xml:space="preserve" text-anchor="middle" x="743.64" y="-94.43" font-family="sans-serif" font-size="10.00">ACL</text>
</a>
</g>
<g id="a_edge15&#45;taillabel"><a xlink:title="published&#45;language">
<text xml:space="preserve" text-anchor="middle" x="898.63" y="-205.61" font-family="sans-serif" font-size="10.00">PL</text>
</a>
</g>
</g>
</g>
</svg>
