<?xml version="1.0" encoding="UTF-8" standalone="no"?>
<?xml-stylesheet href="data:text/css,.graph%20text%20%7B%0A%09font-family%3A%20sans-serif%3B%0A%09stroke%3A%20white%3B%0A%09paint-order%3A%20stroke%3B%0A%09stroke-width%3A%203%3B%0A%09stroke-linecap%3A%20square%3B%0A%7D%0A%0A.namespace%20polygon%20%7B%0A%09fill-opacity%3A%200.2%3B%0A%09stroke%3A%20none%3B%0A%7D%0A" type="text/css"?>
<!DOCTYPE svg PUBLIC "-//W3C//DTD SVG 1.1//EN"
 "http://www.w3.org/Graphics/SVG/1.1/DTD/svg11.dtd">
<!-- Generated by graphviz version 13.1.2 (0)
 -->
<!-- Pages: 1 -->
<svg width="340pt" height="328pt"
 viewBox="0.00 0.00 340.00 328.00" xmlns="http://www.w3.org/2000/svg" xmlns:xlink="http://www.w3.org/1999/xlink">
<g id="graph0" class="graph" transform="scale(1 1) rotate(0) translate(4 324)">
<polygon fill="white" stroke="none" points="-4,4 -4,-324 336,-324 336,4 -4,4"/>
<g id="clust1" class="cluster namespace">
<title>e_shop_on_containers</title>
<polygon fill="lightgrey" stroke="lightgrey" points="8,-8 8,-312 324,-312 324,-8 8,-8"/>
<text xml:space="preserve" text-anchor="middle" x="166" y="-299" font-family="sans-serif" font-size="10.00">eShopOnContainers</text>
</g>
<g id="clust2" class="cluster namespace">
<title>#/domains/commerce</title>
<polygon fill="lightgrey" stroke="lightgrey" points="16,-16 16,-284 162,-284 162,-16 16,-16"/>
<text xml:space="preserve" text-anchor="middle" x="89" y="-271" font-family="sans-serif" font-size="10.00">Commerce</text>
</g>
<g id="clust3" class="cluster namespace">
<title>#/domains/commerce/subdomains/cataloging</title>
<polygon fill="lightgrey" stroke="lightgrey" points="24,-24 24,-132 154,-132 154,-24 24,-24"/>
<text xml:space="preserve" text-anchor="middle" x="89" y="-119" font-family="sans-serif" font-size="10.00">Cataloging</text>
</g>
<g id="clust4" class="cluster namespace">
<title>#/domains/commerce/subdomains/shopping</title>
<polygon fill="lightgrey" stroke="lightgrey" points="24,-148 24,-256 154,-256 154,-148 24,-148"/>
<text xml:space="preserve" text-anchor="middle" x="89" y="-243" font-family="sans-serif" font-size="10.00">Shopping</text>
</g>
<g id="clust5" class="cluster namespace">
<title>#/domains/integration</title>
<polygon fill="lightgrey" stroke="lightgrey" points="170,-140 170,-284 316,-284 316,-140 170,-140"/>
<text xml:space="preserve" text-anchor="middle" x="243" y="-271" font-family="sans-serif" font-size="10.00">Integration</text>
</g>
<g id="clust6" class="cluster namespace">
<title>#/domains/integration/subdomains/edge</title>
<polygon fill="lightgrey" stroke="lightgrey" points="178,-148 178,-256 308,-256 308,-148 178,-148"/>
<text xml:space="preserve" text-anchor="middle" x="243" y="-243" font-family="sans-serif" font-size="10.00">Edge</text>
</g>
<!-- #/domains/commerce/subdomains/cataloging/boundedcontexts/catalog -->
<g id="node1" class="node">
<title>#/domains/commerce/subdomains/cataloging/boundedcontexts/catalog</title>
<g id="a_node1"><a xlink:title="Catalog.API">
<polygon fill="white" stroke="black" points="94.32,-32.1 97.84,-32.3 101.33,-32.59 104.76,-32.98 108.13,-33.47 111.42,-34.05 114.63,-34.73 117.72,-35.5 120.71,-36.35 123.56,-37.29 126.28,-38.32 128.85,-39.43 131.27,-40.62 133.53,-41.88 135.62,-43.21 137.53,-44.61 139.26,-46.08 140.81,-47.6 142.17,-49.18 143.35,-50.82 144.34,-52.5 145.14,-54.22 145.75,-55.98 146.18,-57.77 146.42,-59.59 146.49,-61.44 146.38,-63.3 146.1,-65.17 145.66,-67.06 145.06,-68.94 144.31,-70.83 143.41,-72.7 142.38,-74.56 141.22,-76.41 139.94,-78.23 138.54,-80.02 137.03,-81.78 135.43,-83.5 133.74,-85.18 131.96,-86.82 130.11,-88.4 128.19,-89.92 126.21,-91.39 124.17,-92.79 122.09,-94.12 119.96,-95.38 117.79,-96.57 115.58,-97.68 113.35,-98.71 111.1,-99.65 108.82,-100.5 106.52,-101.27 104.21,-101.95 101.89,-102.53 99.56,-103.02 97.22,-103.41 94.88,-103.7 92.53,-103.9 90.18,-104 87.82,-104 85.47,-103.9 83.12,-103.7 80.78,-103.41 78.44,-103.02 76.11,-102.53 73.79,-101.95 71.48,-101.27 69.18,-100.5 66.9,-99.65 64.65,-98.71 62.42,-97.68 60.21,-96.57 58.04,-95.38 55.91,-94.12 53.83,-92.79 51.79,-91.39 49.81,-89.92 47.89,-88.4 46.04,-86.82 44.26,-85.18 42.57,-83.5 40.97,-81.78 39.46,-80.02 38.06,-78.23 36.78,-76.41 35.62,-74.56 34.59,-72.7 33.69,-70.83 32.94,-68.94 32.34,-67.06 31.9,-65.17 31.62,-63.3 31.51,-61.44 31.58,-59.59 31.82,-57.77 32.25,-55.98 32.86,-54.22 33.66,-52.5 34.65,-50.82 35.83,-49.18 37.19,-47.6 38.74,-46.08 40.47,-44.61 42.38,-43.21 44.47,-41.88 46.73,-40.62 49.15,-39.43 51.72,-38.32 54.44,-37.29 57.29,-36.35 60.28,-35.5 63.37,-34.73 66.58,-34.05 69.87,-33.47 73.24,-32.98 76.67,-32.59 80.16,-32.3 83.68,-32.1 87.22,-32 90.78,-32 94.32,-32.1"/>
<text xml:space="preserve" text-anchor="middle" x="89" y="-63.8" font-family="sans-serif" font-size="14.00">Catalog</text>
</a>
</g>
</g>
<!-- #/domains/commerce/subdomains/shopping/boundedcontexts/basket -->
<g id="node2" class="node">
<title>#/domains/commerce/subdomains/shopping/boundedcontexts/basket</title>
<g id="a_node2"><a xlink:title="Basket.API (Redis)">
<polygon fill="white" stroke="black" points="94.32,-156.1 97.84,-156.3 101.33,-156.59 104.76,-156.98 108.13,-157.47 111.42,-158.05 114.63,-158.73 117.72,-159.5 120.71,-160.35 123.56,-161.29 126.28,-162.32 128.85,-163.43 131.27,-164.62 133.53,-165.88 135.62,-167.21 137.53,-168.61 139.26,-170.08 140.81,-171.6 142.17,-173.18 143.35,-174.82 144.34,-176.5 145.14,-178.22 145.75,-179.98 146.18,-181.77 146.42,-183.59 146.49,-185.44 146.38,-187.3 146.1,-189.17 145.66,-191.06 145.06,-192.94 144.31,-194.83 143.41,-196.7 142.38,-198.56 141.22,-200.41 139.94,-202.23 138.54,-204.02 137.03,-205.78 135.43,-207.5 133.74,-209.18 131.96,-210.82 130.11,-212.4 128.19,-213.92 126.21,-215.39 124.17,-216.79 122.09,-218.12 119.96,-219.38 117.79,-220.57 115.58,-221.68 113.35,-222.71 111.1,-223.65 108.82,-224.5 106.52,-225.27 104.21,-225.95 101.89,-226.53 99.56,-227.02 97.22,-227.41 94.88,-227.7 92.53,-227.9 90.18,-228 87.82,-228 85.47,-227.9 83.12,-227.7 80.78,-227.41 78.44,-227.02 76.11,-226.53 73.79,-225.95 71.48,-225.27 69.18,-224.5 66.9,-223.65 64.65,-222.71 62.42,-221.68 60.21,-220.57 58.04,-219.38 55.91,-218.12 53.83,-216.79 51.79,-215.39 49.81,-213.92 47.89,-212.4 46.04,-210.82 44.26,-209.18 42.57,-207.5 40.97,-205.78 39.46,-204.02 38.06,-202.23 36.78,-200.41 35.62,-198.56 34.59,-196.7 33.69,-194.83 32.94,-192.94 32.34,-191.06 31.9,-189.17 31.62,-187.3 31.51,-185.44 31.58,-183.59 31.82,-181.77 32.25,-179.98 32.86,-178.22 33.66,-176.5 34.65,-174.82 35.83,-173.18 37.19,-171.6 38.74,-170.08 40.47,-168.61 42.38,-167.21 44.47,-165.88 46.73,-164.62 49.15,-163.43 51.72,-162.32 54.44,-161.29 57.29,-160.35 60.28,-159.5 63.37,-158.73 66.58,-158.05 69.87,-157.47 73.24,-156.98 76.67,-156.59 80.16,-156.3 83.68,-156.1 87.22,-156 90.78,-156 94.32,-156.1"/>
<text xml:space="preserve" text-anchor="middle" x="89" y="-187.8" font-family="sans-serif" font-size="14.00">Basket</text>
</a>
</g>
</g>
<!-- #/domains/commerce/subdomains/shopping/boundedcontexts/basket&#45;&gt;#/domains/commerce/subdomains/cataloging/boundedcontexts/catalog -->
<g id="edge2" class="edge">
<title>#/domains/commerce/subdomains/shopping/boundedcontexts/basket&#45;&gt;#/domains/commerce/subdomains/cataloging/boundedcontexts/catalog</title>
<path fill="none" stroke="black" d="M89,-156.04C89,-143.41 89,-128.94 89,-115.47"/>
<polygon fill="black" stroke="black" points="92.5,-115.48 89,-105.48 85.5,-115.48 92.5,-115.48"/>
<g id="a_edge2&#45;headlabel"><a xlink:title="published&#45;language">
<text xml:space="preserve" text-anchor="middle" x="89" y="-100.97" font-family="sans-serif" font-size="10.00">PL</text>
</a>
</g>
<g id="a_edge2&#45;taillabel"><a xlink:title="conformist">
<text xml:space="preserve" text-anchor="middle" x="89" y="-153.04" font-family="sans-serif" font-size="10.00">C</text>
</a>
</g>
</g>
<!-- #/domains/integration/subdomains/edge/boundedcontexts/api_gateway -->
<g id="node3" class="node">
<title>#/domains/integration/subdomains/edge/boundedcontexts/api_gateway</title>
<g id="a_node3"><a xlink:title="Ocelot + Aggregators (Web &amp; Mobile Shopping)">
<polygon fill="white" stroke="black" points="248.32,-156.1 251.84,-156.3 255.33,-156.59 258.76,-156.98 262.13,-157.47 265.42,-158.05 268.63,-158.73 271.72,-159.5 274.71,-160.35 277.56,-161.29 280.28,-162.32 282.85,-163.43 285.27,-164.62 287.53,-165.88 289.62,-167.21 291.53,-168.61 293.26,-170.08 294.81,-171.6 296.17,-173.18 297.35,-174.82 298.34,-176.5 299.14,-178.22 299.75,-179.98 300.18,-181.77 300.42,-183.59 300.49,-185.44 300.38,-187.3 300.1,-189.17 299.66,-191.06 299.06,-192.94 298.31,-194.83 297.41,-196.7 296.38,-198.56 295.22,-200.41 293.94,-202.23 292.54,-204.02 291.03,-205.78 289.43,-207.5 287.74,-209.18 285.96,-210.82 284.11,-212.4 282.19,-213.92 280.21,-215.39 278.17,-216.79 276.09,-218.12 273.96,-219.38 271.79,-220.57 269.58,-221.68 267.35,-222.71 265.1,-223.65 262.82,-224.5 260.52,-225.27 258.21,-225.95 255.89,-226.53 253.56,-227.02 251.22,-227.41 248.88,-227.7 246.53,-227.9 244.18,-228 241.82,-228 239.47,-227.9 237.12,-227.7 234.78,-227.41 232.44,-227.02 230.11,-226.53 227.79,-225.95 225.48,-225.27 223.18,-224.5 220.9,-223.65 218.65,-222.71 216.42,-221.68 214.21,-220.57 212.04,-219.38 209.91,-218.12 207.83,-216.79 205.79,-215.39 203.81,-213.92 201.89,-212.4 200.04,-210.82 198.26,-209.18 196.57,-207.5 194.97,-205.78 193.46,-204.02 192.06,-202.23 190.78,-200.41 189.62,-198.56 188.59,-196.7 187.69,-194.83 186.94,-192.94 186.34,-191.06 185.9,-189.17 185.62,-187.3 185.51,-185.44 185.58,-183.59 185.82,-181.77 186.25,-179.98 186.86,-178.22 187.66,-176.5 188.65,-174.82 189.83,-173.18 191.19,-171.6 192.74,-170.08 194.47,-168.61 196.38,-167.21 198.47,-165.88 200.73,-164.62 203.15,-163.43 205.72,-162.32 208.44,-161.29 211.29,-160.35 214.28,-159.5 217.37,-158.73 220.58,-158.05 223.87,-157.47 227.24,-156.98 230.67,-156.59 234.16,-156.3 237.68,-156.1 241.22,-156 244.78,-156 248.32,-156.1"/>
<text xml:space="preserve" text-anchor="middle" x="243" y="-187.8" font-family="sans-serif" font-size="14.00">ApiGateway</text>
</a>
</g>
</g>
<!-- #/domains/integration/subdomains/edge/boundedcontexts/api_gateway&#45;&gt;#/domains/commerce/subdomains/cataloging/boundedcontexts/catalog -->
<g id="edge1" class="edge">
<title>#/domains/integration/subdomains/edge/boundedcontexts/api_gateway&#45;&gt;#/domains/commerce/subdomains/cataloging/boundedcontexts/catalog</title>
<path fill="none" stroke="black" d="M206.11,-161.78C183.31,-143.71 154,-120.49 130.4,-101.8"/>
<polygon fill="black" stroke="black" points="132.86,-99.28 122.85,-95.81 128.51,-104.77 132.86,-99.28"/>
<g id="a_edge1&#45;headlabel"><a xlink:title="open&#45;host&#45;service">
<text xml:space="preserve" text-anchor="middle" x="121.66" y="-91.87" font-family="sans-serif" font-size="10.00">OHS</text>
</a>
</g>
<g id="a_edge1&#45;taillabel"><a xlink:title="conformist">
<text xml:space="preserve" text-anchor="middle" x="206.11" y="-158.78" font-family="sans-serif" font-size="10.00">C</text>
</a>
</g>
</g>
</g>
</svg>
