<?xml version="1.0" encoding="UTF-8" standalone="no"?>
<?xml-stylesheet href="data:text/css,.graph%20text%20%7B%0A%09font-family%3A%20sans-serif%3B%0A%09stroke%3A%20white%3B%0A%09paint-order%3A%20stroke%3B%0A%09stroke-width%3A%203%3B%0A%09stroke-linecap%3A%20square%3B%0A%7D%0A%0A.namespace%20polygon%20%7B%0A%09fill-opacity%3A%200.2%3B%0A%09stroke%3A%20none%3B%0A%7D%0A" type="text/css"?>
<!DOCTYPE svg PUBLIC "-//W3C//DTD SVG 1.1//EN"
 "http://www.w3.org/Graphics/SVG/1.1/DTD/svg11.dtd">
<!-- Generated by graphviz version 13.1.2 (0)
 -->
<!-- Pages: 1 -->
<svg width="408pt" height="912pt"
 viewBox="0.00 0.00 408.00 912.00" xmlns="http://www.w3.org/2000/svg" xmlns:xlink="http://www.w3.org/1999/xlink">
<g id="graph0" class="graph" transform="scale(1 1) rotate(0) translate(4 908)">
<polygon fill="white" stroke="none" points="-4,4 -4,-908 404,-908 404,4 -4,4"/>
<g id="clust1" class="cluster namespace">
<title>e_shop</title>
<polygon fill="lightgrey" stroke="lightgrey" points="8,-8 8,-896 392,-896 392,-8 8,-8"/>
<text xml:space="preserve" text-anchor="middle" x="200" y="-883" font-family="sans-serif" font-size="10.00">eShop</text>
</g>
<g id="clust2" class="cluster namespace">
<title>#/domains/integration</title>
<polygon fill="lightgrey" stroke="lightgrey" points="28,-516 28,-856 372,-856 372,-516 28,-516"/>
<text xml:space="preserve" text-anchor="middle" x="200" y="-843" font-family="sans-serif" font-size="10.00">Integration</text>
</g>
<g id="clust3" class="cluster namespace">
<title>#/domains/integration/subdomains/webhooks</title>
<polygon fill="lightgrey" stroke="lightgrey" points="48,-536 48,-816 352,-816 352,-536 48,-536"/>
<text xml:space="preserve" text-anchor="middle" x="200" y="-803" font-family="sans-serif" font-size="10.00">Webhooks</text>
</g>
<g id="clust4" class="cluster namespace">
<title>#/domains/integration/subdomains/webhooks/boundedcontexts/webhook_client</title>
<polygon fill="lightgrey" stroke="lightgrey" points="92,-680 92,-776 308,-776 308,-680 92,-680"/>
<text xml:space="preserve" text-anchor="middle" x="200" y="-763" font-family="sans-serif" font-size="10.00">WebhookClient</text>
</g>
<g id="clust5" class="cluster namespace">
<title>#/domains/integration/subdomains/webhooks/boundedcontexts/webhooks.api</title>
<polygon fill="lightgrey" stroke="lightgrey" points="93,-556 93,-652 307,-652 307,-556 93,-556"/>
<text xml:space="preserve" text-anchor="middle" x="200" y="-639" font-family="sans-serif" font-size="10.00">Webhooks.API</text>
</g>
<g id="clust6" class="cluster namespace">
<title>#/domains/commerce</title>
<polygon fill="lightgrey" stroke="lightgrey" points="60,-272 60,-488 340,-488 340,-272 60,-272"/>
<text xml:space="preserve" text-anchor="middle" x="200" y="-475" font-family="sans-serif" font-size="10.00">Commerce</text>
</g>
<g id="clust7" class="cluster namespace">
<title>#/domains/commerce/subdomains/ordering</title>
<polygon fill="lightgrey" stroke="lightgrey" points="80,-292 80,-448 320,-448 320,-292 80,-292"/>
<text xml:space="preserve" text-anchor="middle" x="200" y="-435" font-family="sans-serif" font-size="10.00">Ordering</text>
</g>
<g id="clust8" class="cluster namespace">
<title>#/domains/commerce/subdomains/ordering/boundedcontexts/ordering.api</title>
<polygon fill="lightgrey" stroke="lightgrey" points="100,-312 100,-408 300,-408 300,-312 100,-312"/>
<text xml:space="preserve" text-anchor="middle" x="200" y="-395" font-family="sans-serif" font-size="10.00">Ordering.API</text>
</g>
<g id="clust9" class="cluster namespace">
<title>#/domains/payment_processing</title>
<polygon fill="lightgrey" stroke="lightgrey" points="61,-28 61,-244 339,-244 339,-28 61,-28"/>
<text xml:space="preserve" text-anchor="middle" x="200" y="-231" font-family="sans-serif" font-size="10.00">Payment Processing</text>
</g>
<g id="clust10" class="cluster namespace">
<title>#/domains/payment_processing/subdomains/payment_processors</title>
<polygon fill="lightgrey" stroke="lightgrey" points="81,-48 81,-204 319,-204 319,-48 81,-48"/>
<text xml:space="preserve" text-anchor="middle" x="200" y="-191" font-family="sans-serif" font-size="10.00">Payment Processors</text>
</g>
<g id="clust11" class="cluster namespace">
<title>#/domains/payment_processing/subdomains/payment_processors/boundedcontexts/payment_processor</title>
<polygon fill="lightgrey" stroke="lightgrey" points="101,-68 101,-164 299,-164 299,-68 101,-68"/>
<text xml:space="preserve" text-anchor="middle" x="200" y="-151" font-family="sans-serif" font-size="10.00">PaymentProcessor</text>
</g>
<!-- #/domains/integration/subdomains/webhooks/boundedcontexts/webhook_client/services/webhook_receiver -->
<g id="node1" class="node">
<title>#/domains/integration/subdomains/webhooks/boundedcontexts/webhook_client/services/webhook_receiver</title>
<g id="a_node1"><a xlink:title="Receives webhook POSTs.">
<polygon fill="white" stroke="black" points="208.17,-700.05 213.58,-700.15 218.93,-700.3 224.2,-700.49 229.38,-700.74 234.44,-701.03 239.35,-701.36 244.11,-701.75 248.69,-702.18 253.07,-702.65 257.25,-703.16 261.2,-703.71 264.91,-704.31 268.38,-704.94 271.58,-705.61 274.52,-706.31 277.18,-707.04 279.56,-707.8 281.65,-708.59 283.46,-709.41 284.98,-710.25 286.2,-711.11 287.14,-711.99 287.8,-712.89 288.17,-713.8 288.28,-714.72 288.11,-715.65 287.68,-716.59 287,-717.53 286.08,-718.47 284.93,-719.41 283.55,-720.35 281.97,-721.28 280.19,-722.2 278.22,-723.11 276.07,-724.01 273.76,-724.89 271.3,-725.75 268.7,-726.59 265.98,-727.41 263.13,-728.2 260.18,-728.96 257.14,-729.69 254.01,-730.39 250.81,-731.06 247.53,-731.69 244.2,-732.29 240.82,-732.84 237.39,-733.35 233.93,-733.82 230.43,-734.25 226.91,-734.64 223.36,-734.97 219.8,-735.26 216.22,-735.51 212.62,-735.7 209.02,-735.85 205.42,-735.95 201.81,-736 198.19,-736 194.58,-735.95 190.98,-735.85 187.38,-735.7 183.78,-735.51 180.2,-735.26 176.64,-734.97 173.09,-734.64 169.57,-734.25 166.07,-733.82 162.61,-733.35 159.18,-732.84 155.8,-732.29 152.47,-731.69 149.19,-731.06 145.99,-730.39 142.86,-729.69 139.82,-728.96 136.87,-728.2 134.02,-727.41 131.3,-726.59 128.7,-725.75 126.24,-724.89 123.93,-724.01 121.78,-723.11 119.81,-722.2 118.03,-721.28 116.45,-720.35 115.07,-719.41 113.92,-718.47 113,-717.53 112.32,-716.59 111.89,-715.65 111.72,-714.72 111.83,-713.8 112.2,-712.89 112.86,-711.99 113.8,-711.11 115.02,-710.25 116.54,-709.41 118.35,-708.59 120.44,-707.8 122.82,-707.04 125.48,-706.31 128.42,-705.61 131.62,-704.94 135.09,-704.31 138.8,-703.71 142.75,-703.16 146.93,-702.65 151.31,-702.18 155.89,-701.75 160.65,-701.36 165.56,-701.03 170.62,-700.74 175.8,-700.49 181.07,-700.3 186.42,-700.15 191.83,-700.05 197.27,-700 202.73,-700 208.17,-700.05"/>
<text xml:space="preserve" text-anchor="middle" x="200" y="-713.8" font-family="sans-serif" font-size="14.00">WebhookReceiver</text>
</a>
</g>
</g>
<!-- #/domains/integration/subdomains/webhooks/boundedcontexts/webhooks.api/services/webhooks_service -->
<g id="node2" class="node">
<title>#/domains/integration/subdomains/webhooks/boundedcontexts/webhooks.api/services/webhooks_service</title>
<g id="a_node2"><a xlink:title="Register webhooks and deliver order events to subscribers.">
<polygon fill="white" stroke="black" points="208.01,-576.05 213.32,-576.15 218.56,-576.3 223.74,-576.49 228.81,-576.74 233.77,-577.03 238.59,-577.36 243.26,-577.75 247.75,-578.18 252.05,-578.65 256.15,-579.16 260.02,-579.71 263.66,-580.31 267.06,-580.94 270.2,-581.61 273.08,-582.31 275.69,-583.04 278.03,-583.8 280.08,-584.59 281.85,-585.41 283.34,-586.25 284.54,-587.11 285.46,-587.99 286.11,-588.89 286.47,-589.8 286.57,-590.72 286.41,-591.65 285.99,-592.59 285.33,-593.53 284.42,-594.47 283.29,-595.41 281.94,-596.35 280.39,-597.28 278.64,-598.2 276.71,-599.11 274.6,-600.01 272.34,-600.89 269.93,-601.75 267.38,-602.59 264.7,-603.41 261.92,-604.2 259.02,-604.96 256.04,-605.69 252.97,-606.39 249.83,-607.06 246.62,-607.69 243.35,-608.29 240.03,-608.84 236.67,-609.35 233.28,-609.82 229.85,-610.25 226.39,-610.64 222.91,-610.97 219.41,-611.26 215.9,-611.51 212.38,-611.7 208.85,-611.85 205.31,-611.95 201.77,-612 198.23,-612 194.69,-611.95 191.15,-611.85 187.62,-611.7 184.1,-611.51 180.59,-611.26 177.09,-610.97 173.61,-610.64 170.15,-610.25 166.72,-609.82 163.33,-609.35 159.97,-608.84 156.65,-608.29 153.38,-607.69 150.17,-607.06 147.03,-606.39 143.96,-605.69 140.98,-604.96 138.08,-604.2 135.3,-603.41 132.62,-602.59 130.07,-601.75 127.66,-600.89 125.4,-600.01 123.29,-599.11 121.36,-598.2 119.61,-597.28 118.06,-596.35 116.71,-595.41 115.58,-594.47 114.67,-593.53 114.01,-592.59 113.59,-591.65 113.43,-590.72 113.53,-589.8 113.89,-588.89 114.54,-587.99 115.46,-587.11 116.66,-586.25 118.15,-585.41 119.92,-584.59 121.97,-583.8 124.31,-583.04 126.92,-582.31 129.8,-581.61 132.94,-580.94 136.34,-580.31 139.98,-579.71 143.85,-579.16 147.95,-578.65 152.25,-578.18 156.74,-577.75 161.41,-577.36 166.23,-577.03 171.19,-576.74 176.26,-576.49 181.44,-576.3 186.68,-576.15 191.99,-576.05 197.33,-576 202.67,-576 208.01,-576.05"/>
<text xml:space="preserve" text-anchor="middle" x="200" y="-589.8" font-family="sans-serif" font-size="14.00">WebhooksService</text>
</a>
</g>
</g>
<!-- #/domains/integration/subdomains/webhooks/boundedcontexts/webhook_client/services/webhook_receiver&#45;&gt;#/domains/integration/subdomains/webhooks/boundedcontexts/webhooks.api/services/webhooks_service -->
<g id="edge2" class="edge">
<title>#/domains/integration/subdomains/webhooks/boundedcontexts/webhook_client/services/webhook_receiver&#45;&gt;#/domains/integration/subdomains/webhooks/boundedcontexts/webhooks.api/services/webhooks_service</title>
<path fill="none" stroke="black" d="M150.01,-702.05C135.83,-695.24 122.02,-685.57 113.8,-672 99.64,-648.64 124.91,-628.35 151.68,-614.48"/>
<polygon fill="black" stroke="black" points="153.11,-617.67 160.57,-610.14 150.05,-611.38 153.11,-617.67"/>
<text xml:space="preserve" text-anchor="middle" x="149.9" y="-663" font-family="sans-serif" font-size="10.00">RegisterWebhook</text>
<g id="a_edge2&#45;headlabel"><a xlink:title="open&#45;host&#45;service">
<text xml:space="preserve" text-anchor="middle" x="161.93" y="-606.48" font-family="sans-serif" font-size="10.00">OHS</text>
</a>
</g>
<g id="a_edge2&#45;taillabel"><a xlink:title="customer&#45;supplier">
<text xml:space="preserve" text-anchor="middle" x="150.01" y="-699.05" font-family="sans-serif" font-size="10.00">C/s</text>
</a>
</g>
</g>
<!-- #/domains/integration/subdomains/webhooks/boundedcontexts/webhooks.api/services/webhooks_service&#45;&gt;#/domains/integration/subdomains/webhooks/boundedcontexts/webhook_client/services/webhook_receiver -->
<g id="edge1" class="edge">
<title>#/domains/integration/subdomains/webhooks/boundedcontexts/webhooks.api/services/webhooks_service&#45;&gt;#/domains/integration/subdomains/webhooks/boundedcontexts/webhook_client/services/webhook_receiver</title>
<path fill="none" stroke="black" d="M200,-612.45C200,-632.18 200,-664.63 200,-688.15"/>
<polygon fill="black" stroke="black" points="196.5,-688.01 200,-698.01 203.5,-688.01 196.5,-688.01"/>
<text xml:space="preserve" text-anchor="middle" x="235.54" y="-663" font-family="sans-serif" font-size="10.00">ReceiveWebhook</text>
<g id="a_edge1&#45;headlabel"><a xlink:title="open&#45;host&#45;service">
<text xml:space="preserve" text-anchor="middle" x="200" y="-696.52" font-family="sans-serif" font-size="10.00">OHS</text>
</a>
</g>
<g id="a_edge1&#45;taillabel"><a xlink:title="customer&#45;supplier">
<text xml:space="preserve" text-anchor="middle" x="200" y="-609.45" font-family="sans-serif" font-size="10.00">C/s</text>
</a>
</g>
</g>
<!-- #/domains/commerce/subdomains/ordering/boundedcontexts/ordering.api/services/ordering_service -->
<g id="node3" class="node">
<title>#/domains/commerce/subdomains/ordering/boundedcontexts/ordering.api/services/ordering_service</title>
<g id="a_node3"><a xlink:title="Ordering application service.">
<polygon fill="white" stroke="black" points="207.38,-332.05 212.26,-332.15 217.09,-332.3 221.86,-332.49 226.53,-332.74 231.1,-333.03 235.53,-333.36 239.83,-333.75 243.97,-334.18 247.93,-334.65 251.7,-335.16 255.26,-335.71 258.62,-336.31 261.75,-336.94 264.64,-337.61 267.29,-338.31 269.7,-339.04 271.84,-339.8 273.73,-340.59 275.37,-341.41 276.73,-342.25 277.84,-343.11 278.69,-343.99 279.28,-344.89 279.62,-345.8 279.71,-346.72 279.56,-347.65 279.18,-348.59 278.57,-349.53 277.73,-350.47 276.69,-351.41 275.45,-352.35 274.02,-353.28 272.41,-354.2 270.63,-355.11 268.69,-356.01 266.61,-356.89 264.39,-357.75 262.04,-358.59 259.58,-359.41 257.01,-360.2 254.35,-360.96 251.6,-361.69 248.77,-362.39 245.88,-363.06 242.92,-363.69 239.92,-364.29 236.86,-364.84 233.77,-365.35 230.64,-365.82 227.48,-366.25 224.3,-366.64 221.1,-366.97 217.88,-367.26 214.64,-367.51 211.4,-367.7 208.15,-367.85 204.89,-367.95 201.63,-368 198.37,-368 195.11,-367.95 191.85,-367.85 188.6,-367.7 185.36,-367.51 182.12,-367.26 178.9,-366.97 175.7,-366.64 172.52,-366.25 169.36,-365.82 166.23,-365.35 163.14,-364.84 160.08,-364.29 157.08,-363.69 154.12,-363.06 151.23,-362.39 148.4,-361.69 145.65,-360.96 142.99,-360.2 140.42,-359.41 137.96,-358.59 135.61,-357.75 133.39,-356.89 131.31,-356.01 129.37,-355.11 127.59,-354.2 125.98,-353.28 124.55,-352.35 123.31,-351.41 122.27,-350.47 121.43,-349.53 120.82,-348.59 120.44,-347.65 120.29,-346.72 120.38,-345.8 120.72,-344.89 121.31,-343.99 122.16,-343.11 123.27,-342.25 124.63,-341.41 126.27,-340.59 128.16,-339.8 130.3,-339.04 132.71,-338.31 135.36,-337.61 138.25,-336.94 141.38,-336.31 144.74,-335.71 148.3,-335.16 152.07,-334.65 156.03,-334.18 160.17,-333.75 164.47,-333.36 168.9,-333.03 173.47,-332.74 178.14,-332.49 182.91,-332.3 187.74,-332.15 192.62,-332.05 197.54,-332 202.46,-332 207.38,-332.05"/>
<text xml:space="preserve" text-anchor="middle" x="200" y="-345.8" font-family="sans-serif" font-size="14.00">OrderingService</text>
</a>
</g>
</g>
<!-- #/domains/integration/subdomains/webhooks/boundedcontexts/webhooks.api/services/webhooks_service&#45;&gt;#/domains/commerce/subdomains/ordering/boundedcontexts/ordering.api/services/ordering_service -->
<g id="edge3" class="edge">
<title>#/domains/integration/subdomains/webhooks/boundedcontexts/webhooks.api/services/webhooks_service&#45;&gt;#/domains/commerce/subdomains/ordering/boundedcontexts/ordering.api/services/ordering_service</title>
<path fill="none" stroke="black" d="M200,-575.6C200,-534.35 200,-430.31 200,-379.63"/>
<polygon fill="black" stroke="black" points="203.5,-379.76 200,-369.76 196.5,-379.76 203.5,-379.76"/>
<text xml:space="preserve" text-anchor="middle" x="220.55" y="-499" font-family="sans-serif" font-size="10.00">OrderPaid</text>
<g id="a_edge3&#45;headlabel"><a xlink:title="published&#45;language">
<text xml:space="preserve" text-anchor="middle" x="200" y="-365.25" font-family="sans-serif" font-size="10.00">PL</text>
</a>
</g>
<g id="a_edge3&#45;taillabel"><a xlink:title="conformist">
<text xml:space="preserve" text-anchor="middle" x="200" y="-572.6" font-family="sans-serif" font-size="10.00">C</text>
</a>
</g>
</g>
<!-- #/domains/payment_processing/subdomains/payment_processors/boundedcontexts/payment_processor/services/payment_service -->
<g id="node4" class="node">
<title>#/domains/payment_processing/subdomains/payment_processors/boundedcontexts/payment_processor/services/payment_service</title>
<g id="a_node4"><a xlink:title="Takes payments and emits status changes.">
<polygon fill="white" stroke="black" points="207.27,-88.05 212.09,-88.15 216.85,-88.3 221.55,-88.49 226.15,-88.74 230.65,-89.03 235.03,-89.36 239.26,-89.75 243.34,-90.18 247.24,-90.65 250.96,-91.16 254.48,-91.71 257.78,-92.31 260.87,-92.94 263.72,-93.61 266.33,-94.31 268.7,-95.04 270.82,-95.8 272.69,-96.59 274.29,-97.41 275.64,-98.25 276.73,-99.11 277.57,-99.99 278.16,-100.89 278.49,-101.8 278.58,-102.72 278.43,-103.65 278.05,-104.59 277.45,-105.53 276.63,-106.47 275.6,-107.41 274.38,-108.35 272.97,-109.28 271.38,-110.2 269.62,-111.11 267.71,-112.01 265.66,-112.89 263.47,-113.75 261.16,-114.59 258.73,-115.41 256.2,-116.2 253.57,-116.96 250.86,-117.69 248.08,-118.39 245.23,-119.06 242.31,-119.69 239.35,-120.29 236.34,-120.84 233.29,-121.35 230.2,-121.82 227.09,-122.25 223.95,-122.64 220.8,-122.97 217.62,-123.26 214.43,-123.51 211.24,-123.7 208.03,-123.85 204.82,-123.95 201.61,-124 198.39,-124 195.18,-123.95 191.97,-123.85 188.76,-123.7 185.57,-123.51 182.38,-123.26 179.2,-122.97 176.05,-122.64 172.91,-122.25 169.8,-121.82 166.71,-121.35 163.66,-120.84 160.65,-120.29 157.69,-119.69 154.77,-119.06 151.92,-118.39 149.14,-117.69 146.43,-116.96 143.8,-116.2 141.27,-115.41 138.84,-114.59 136.53,-113.75 134.34,-112.89 132.29,-112.01 130.38,-111.11 128.62,-110.2 127.03,-109.28 125.62,-108.35 124.4,-107.41 123.37,-106.47 122.55,-105.53 121.95,-104.59 121.57,-103.65 121.42,-102.72 121.51,-101.8 121.84,-100.89 122.43,-99.99 123.27,-99.11 124.36,-98.25 125.71,-97.41 127.31,-96.59 129.18,-95.8 131.3,-95.04 133.67,-94.31 136.28,-93.61 139.13,-92.94 142.22,-92.31 145.52,-91.71 149.04,-91.16 152.76,-90.65 156.66,-90.18 160.74,-89.75 164.97,-89.36 169.35,-89.03 173.85,-88.74 178.45,-88.49 183.15,-88.3 187.91,-88.15 192.73,-88.05 197.57,-88 202.43,-88 207.27,-88.05"/>
<text xml:space="preserve" text-anchor="middle" x="200" y="-101.8" font-family="sans-serif" font-size="14.00">PaymentService</text>
</a>
</g>
</g>
<!-- #/domains/commerce/subdomains/ordering/boundedcontexts/ordering.api/services/ordering_service&#45;&gt;#/domains/payment_processing/subdomains/payment_processors/boundedcontexts/payment_processor/services/payment_service -->
<g id="edge4" class="edge">
<title>#/domains/commerce/subdomains/ordering/boundedcontexts/ordering.api/services/ordering_service&#45;&gt;#/domains/payment_processing/subdomains/payment_processors/boundedcontexts/payment_processor/services/payment_service</title>
<path fill="none" stroke="black" d="M169.43,-332.64C141.98,-315.47 107.29,-286.25 116.45,-252 128.61,-206.56 158.81,-160.59 179.36,-132.95"/>
<polygon fill="black" stroke="black" points="182.01,-135.25 185.27,-125.17 176.44,-131.02 182.01,-135.25"/>
<text xml:space="preserve" text-anchor="middle" x="149.23" y="-255" font-family="sans-serif" font-size="10.00">ProcessPayment</text>
<g id="a_edge4&#45;headlabel"><a xlink:title="open&#45;host&#45;service">
<text xml:space="preserve" text-anchor="middle" x="186.19" y="-120.96" font-family="sans-serif" font-size="10.00">OHS</text>
</a>
</g>
<g id="a_edge4&#45;taillabel"><a xlink:title="customer&#45;supplier">
<text xml:space="preserve" text-anchor="middle" x="169.43" y="-329.64" font-family="sans-serif" font-size="10.00">C/s</text>
</a>
</g>
</g>
<!-- #/domains/commerce/subdomains/ordering/boundedcontexts/ordering.api/services/ordering_service&#45;&gt;#/domains/payment_processing/subdomains/payment_processors/boundedcontexts/payment_processor/services/payment_service -->
<g id="edge5" class="edge">
<title>#/domains/commerce/subdomains/ordering/boundedcontexts/ordering.api/services/ordering_service&#45;&gt;#/domains/payment_processing/subdomains/payment_processors/boundedcontexts/payment_processor/services/payment_service</title>
<path fill="none" stroke="black" d="M200,-331.6C200,-290.35 200,-186.31 200,-135.63"/>
<polygon fill="black" stroke="black" points="203.5,-135.76 200,-125.76 196.5,-135.76 203.5,-135.76"/>
<text xml:space="preserve" text-anchor="middle" x="238.87" y="-255" font-family="sans-serif" font-size="10.00">PaymentSucceeded</text>
<g id="a_edge5&#45;headlabel"><a xlink:title="published&#45;language">
<text xml:space="preserve" text-anchor="middle" x="200" y="-121.25" font-family="sans-serif" font-size="10.00">PL</text>
</a>
</g>
<g id="a_edge5&#45;taillabel"><a xlink:title="conformist">
<text xml:space="preserve" text-anchor="middle" x="200" y="-328.6" font-family="sans-serif" font-size="10.00">C</text>
</a>
</g>
</g>
</g>
</svg>
