<?xml version="1.0" encoding="UTF-8" standalone="no"?>
<?xml-stylesheet href="data:text/css,.graph%20text%20%7B%0A%09font-family%3A%20sans-serif%3B%0A%09stroke%3A%20white%3B%0A%09paint-order%3A%20stroke%3B%0A%09stroke-width%3A%203%3B%0A%09stroke-linecap%3A%20square%3B%0A%7D%0A%0A.namespace%20polygon%20%7B%0A%09fill-opacity%3A%200.2%3B%0A%09stroke%3A%20none%3B%0A%7D%0A" type="text/css"?>
<!DOCTYPE svg PUBLIC "-//W3C//DTD SVG 1.1//EN"
 "http://www.w3.org/Graphics/SVG/1.1/DTD/svg11.dtd">
<!-- Generated by graphviz version 13.1.2 (0)
 -->
<!-- Pages: 1 -->
<svg width="491pt" height="624pt"
 viewBox="0.00 0.00 491.00 624.00" xmlns="http://www.w3.org/2000/svg" xmlns:xlink="http://www.w3.org/1999/xlink">
<g id="graph0" class="graph" transform="scale(1 1) rotate(0) translate(4 620)">
<polygon fill="white" stroke="none" points="-4,4 -4,-620 487,-620 487,4 -4,4"/>
<g id="clust1" class="cluster namespace">
<title>e_shop_on_containers</title>
<polygon fill="lightgrey" stroke="lightgrey" points="8,-8 8,-608 475,-608 475,-8 8,-8"/>
<text xml:space="preserve" text-anchor="middle" x="241.5" y="-595" font-family="sans-serif" font-size="10.00">eShopOnContainers</text>
</g>
<g id="clust2" class="cluster namespace">
<title>#/domains/commerce</title>
<polygon fill="lightgrey" stroke="lightgrey" points="38,-168 38,-428 335,-428 335,-168 38,-168"/>
<text xml:space="preserve" text-anchor="middle" x="186.5" y="-415" font-family="sans-serif" font-size="10.00">Commerce</text>
</g>
<g id="clust3" class="cluster namespace">
<title>#/domains/commerce/subdomains/shopping</title>
<polygon fill="lightgrey" stroke="lightgrey" points="65,-292 65,-400 195,-400 195,-292 65,-292"/>
<text xml:space="preserve" text-anchor="middle" x="130" y="-387" font-family="sans-serif" font-size="10.00">Shopping</text>
</g>
<g id="clust4" class="cluster namespace">
<title>#/domains/commerce/subdomains/cataloging</title>
<polygon fill="lightgrey" stroke="lightgrey" points="46,-176 46,-284 176,-284 176,-176 46,-176"/>
<text xml:space="preserve" text-anchor="middle" x="111" y="-271" font-family="sans-serif" font-size="10.00">Cataloging</text>
</g>
<g id="clust5" class="cluster namespace">
<title>#/domains/commerce/subdomains/sales</title>
<polygon fill="lightgrey" stroke="lightgrey" points="197,-176 197,-284 327,-284 327,-176 197,-176"/>
<text xml:space="preserve" text-anchor="middle" x="262" y="-271" font-family="sans-serif" font-size="10.00">Sales</text>
</g>
<g id="clust6" class="cluster namespace">
<title>#/domains/integration</title>
<polygon fill="lightgrey" stroke="lightgrey" points="170,-436 170,-580 316,-580 316,-436 170,-436"/>
<text xml:space="preserve" text-anchor="middle" x="243" y="-567" font-family="sans-serif" font-size="10.00">Integration</text>
</g>
<g id="clust7" class="cluster namespace">
<title>#/domains/integration/subdomains/edge</title>
<polygon fill="lightgrey" stroke="lightgrey" points="178,-444 178,-552 308,-552 308,-444 178,-444"/>
<text xml:space="preserve" text-anchor="middle" x="243" y="-539" font-family="sans-serif" font-size="10.00">Edge</text>
</g>
<g id="clust8" class="cluster namespace">
<title>#/domains/identity&amp;access</title>
<polygon fill="lightgrey" stroke="lightgrey" points="16,-16 16,-160 162,-160 162,-16 16,-16"/>
<text xml:space="preserve" text-anchor="middle" x="89" y="-147" font-family="sans-serif" font-size="10.00">Identity&amp;Access</text>
</g>
<g id="clust9" class="cluster namespace">
<title>#/domains/identity&amp;access/subdomains/auth</title>
<polygon fill="lightgrey" stroke="lightgrey" points="24,-24 24,-132 154,-132 154,-24 24,-24"/>
<text xml:space="preserve" text-anchor="middle" x="89" y="-119" font-family="sans-serif" font-size="10.00">Auth</text>
</g>
<g id="clust10" class="cluster namespace">
<title>#/domains/customer_experience</title>
<polygon fill="lightgrey" stroke="lightgrey" points="170,-16 170,-160 467,-160 467,-16 170,-16"/>
<text xml:space="preserve" text-anchor="middle" x="318.5" y="-147" font-family="sans-serif" font-size="10.00">CustomerExperience</text>
</g>
<g id="clust11" class="cluster namespace">
<title>#/domains/customer_experience/subdomains/promotions</title>
<polygon fill="lightgrey" stroke="lightgrey" points="178,-24 178,-132 308,-132 308,-24 178,-24"/>
<text xml:space="preserve" text-anchor="middle" x="243" y="-119" font-family="sans-serif" font-size="10.00">Promotions</text>
</g>
<g id="clust12" class="cluster namespace">
<title>#/domains/customer_experience/subdomains/geodata</title>
<polygon fill="lightgrey" stroke="lightgrey" points="329,-24 329,-132 459,-132 459,-24 329,-24"/>
<text xml:space="preserve" text-anchor="middle" x="394" y="-119" font-family="sans-serif" font-size="10.00">Geodata</text>
</g>
<!-- #/domains/commerce/subdomains/shopping/boundedcontexts/basket -->
<g id="node1" class="node">
<title>#/domains/commerce/subdomains/shopping/boundedcontexts/basket</title>
<g id="a_node1"><a xlink:title="Basket.API (Redis)">
<polygon fill="white" stroke="black" points="135.32,-300.1 138.84,-300.3 142.33,-300.59 145.76,-300.98 149.13,-301.47 152.42,-302.05 155.63,-302.73 158.72,-303.5 161.71,-304.35 164.56,-305.29 167.28,-306.32 169.85,-307.43 172.27,-308.62 174.53,-309.88 176.62,-311.21 178.53,-312.61 180.26,-314.08 181.81,-315.6 183.17,-317.18 184.35,-318.82 185.34,-320.5 186.14,-322.22 186.75,-323.98 187.18,-325.77 187.42,-327.59 187.49,-329.44 187.38,-331.3 187.1,-333.17 186.66,-335.06 186.06,-336.94 185.31,-338.83 184.41,-340.7 183.38,-342.56 182.22,-344.41 180.94,-346.23 179.54,-348.02 178.03,-349.78 176.43,-351.5 174.74,-353.18 172.96,-354.82 171.11,-356.4 169.19,-357.92 167.21,-359.39 165.17,-360.79 163.09,-362.12 160.96,-363.38 158.79,-364.57 156.58,-365.68 154.35,-366.71 152.1,-367.65 149.82,-368.5 147.52,-369.27 145.21,-369.95 142.89,-370.53 140.56,-371.02 138.22,-371.41 135.88,-371.7 133.53,-371.9 131.18,-372 128.82,-372 126.47,-371.9 124.12,-371.7 121.78,-371.41 119.44,-371.02 117.11,-370.53 114.79,-369.95 112.48,-369.27 110.18,-368.5 107.9,-367.65 105.65,-366.71 103.42,-365.68 101.21,-364.57 99.04,-363.38 96.91,-362.12 94.83,-360.79 92.79,-359.39 90.81,-357.92 88.89,-356.4 87.04,-354.82 85.26,-353.18 83.57,-351.5 81.97,-349.78 80.46,-348.02 79.06,-346.23 77.78,-344.41 76.62,-342.56 75.59,-340.7 74.69,-338.83 73.94,-336.94 73.34,-335.06 72.9,-333.17 72.62,-331.3 72.51,-329.44 72.58,-327.59 72.82,-325.77 73.25,-323.98 73.86,-322.22 74.66,-320.5 75.65,-318.82 76.83,-317.18 78.19,-315.6 79.74,-314.08 81.47,-312.61 83.38,-311.21 85.47,-309.88 87.73,-308.62 90.15,-307.43 92.72,-306.32 95.44,-305.29 98.29,-304.35 101.28,-303.5 104.37,-302.73 107.58,-302.05 110.87,-301.47 114.24,-300.98 117.67,-300.59 121.16,-300.3 124.68,-300.1 128.22,-300 131.78,-300 135.32,-300.1"/>
<text xml:space="preserve" text-anchor="middle" x="130" y="-331.8" font-family="sans-serif" font-size="14.00">Basket</text>
</a>
</g>
</g>
<!-- #/domains/commerce/subdomains/cataloging/boundedcontexts/catalog -->
<g id="node2" class="node">
<title>#/domains/commerce/subdomains/cataloging/boundedcontexts/catalog</title>
<g id="a_node2"><a xlink:title="Catalog.API">
<polygon fill="white" stroke="black" points="116.32,-184.1 119.84,-184.3 123.33,-184.59 126.76,-184.98 130.13,-185.47 133.42,-186.05 136.63,-186.73 139.72,-187.5 142.71,-188.35 145.56,-189.29 148.28,-190.32 150.85,-191.43 153.27,-192.62 155.53,-193.88 157.62,-195.21 159.53,-196.61 161.26,-198.08 162.81,-199.6 164.17,-201.18 165.35,-202.82 166.34,-204.5 167.14,-206.22 167.75,-207.98 168.18,-209.77 168.42,-211.59 168.49,-213.44 168.38,-215.3 168.1,-217.17 167.66,-219.06 167.06,-220.94 166.31,-222.83 165.41,-224.7 164.38,-226.56 163.22,-228.41 161.94,-230.23 160.54,-232.02 159.03,-233.78 157.43,-235.5 155.74,-237.18 153.96,-238.82 152.11,-240.4 150.19,-241.92 148.21,-243.39 146.17,-244.79 144.09,-246.12 141.96,-247.38 139.79,-248.57 137.58,-249.68 135.35,-250.71 133.1,-251.65 130.82,-252.5 128.52,-253.27 126.21,-253.95 123.89,-254.53 121.56,-255.02 119.22,-255.41 116.88,-255.7 114.53,-255.9 112.18,-256 109.82,-256 107.47,-255.9 105.12,-255.7 102.78,-255.41 100.44,-255.02 98.11,-254.53 95.79,-253.95 93.48,-253.27 91.18,-252.5 88.9,-251.65 86.65,-250.71 84.42,-249.68 82.21,-248.57 80.04,-247.38 77.91,-246.12 75.83,-244.79 73.79,-243.39 71.81,-241.92 69.89,-240.4 68.04,-238.82 66.26,-237.18 64.57,-235.5 62.97,-233.78 61.46,-232.02 60.06,-230.23 58.78,-228.41 57.62,-226.56 56.59,-224.7 55.69,-222.83 54.94,-220.94 54.34,-219.06 53.9,-217.17 53.62,-215.3 53.51,-213.44 53.58,-211.59 53.82,-209.77 54.25,-207.98 54.86,-206.22 55.66,-204.5 56.65,-202.82 57.83,-201.18 59.19,-199.6 60.74,-198.08 62.47,-196.61 64.38,-195.21 66.47,-193.88 68.73,-192.62 71.15,-191.43 73.72,-190.32 76.44,-189.29 79.29,-188.35 82.28,-187.5 85.37,-186.73 88.58,-186.05 91.87,-185.47 95.24,-184.98 98.67,-184.59 102.16,-184.3 105.68,-184.1 109.22,-184 112.78,-184 116.32,-184.1"/>
<text xml:space="preserve" text-anchor="middle" x="111" y="-215.8" font-family="sans-serif" font-size="14.00">Catalog</text>
</a>
</g>
</g>
<!-- #/domains/commerce/subdomains/shopping/boundedcontexts/basket&#45;&gt;#/domains/commerce/subdomains/cataloging/boundedcontexts/catalog -->
<g id="edge2" class="edge">
<title>#/domains/commerce/subdomains/shopping/boundedcontexts/basket&#45;&gt;#/domains/commerce/subdomains/cataloging/boundedcontexts/catalog</title>
<path fill="none" stroke="black" d="M124.2,-300.18C122.45,-289.68 120.5,-277.99 118.65,-266.89"/>
<polygon fill="black" stroke="black" points="122.11,-266.39 117.02,-257.1 115.21,-267.54 122.11,-266.39"/>
<g id="a_edge2&#45;headlabel"><a xlink:title="published&#45;language">
<text xml:space="preserve" text-anchor="middle" x="116.77" y="-252.61" font-family="sans-serif" font-size="10.00">PL</text>
</a>
</g>
<g id="a_edge2&#45;taillabel"><a xlink:title="conformist">
<text xml:space="preserve" text-anchor="middle" x="124.2" y="-297.18" font-family="sans-serif" font-size="10.00">C</text>
</a>
</g>
</g>
<!-- #/domains/commerce/subdomains/sales/boundedcontexts/ordering -->
<g id="node3" class="node">
<title>#/domains/commerce/subdomains/sales/boundedcontexts/ordering</title>
<g id="a_node3"><a xlink:title="Ordering.API (rich DDD + domain events)">
<polygon fill="white" stroke="black" points="267.32,-184.1 270.84,-184.3 274.33,-184.59 277.76,-184.98 281.13,-185.47 284.42,-186.05 287.63,-186.73 290.72,-187.5 293.71,-188.35 296.56,-189.29 299.28,-190.32 301.85,-191.43 304.27,-192.62 306.53,-193.88 308.62,-195.21 310.53,-196.61 312.26,-198.08 313.81,-199.6 315.17,-201.18 316.35,-202.82 317.34,-204.5 318.14,-206.22 318.75,-207.98 319.18,-209.77 319.42,-211.59 319.49,-213.44 319.38,-215.3 319.1,-217.17 318.66,-219.06 318.06,-220.94 317.31,-222.83 316.41,-224.7 315.38,-226.56 314.22,-228.41 312.94,-230.23 311.54,-232.02 310.03,-233.78 308.43,-235.5 306.74,-237.18 304.96,-238.82 303.11,-240.4 301.19,-241.92 299.21,-243.39 297.17,-244.79 295.09,-246.12 292.96,-247.38 290.79,-248.57 288.58,-249.68 286.35,-250.71 284.1,-251.65 281.82,-252.5 279.52,-253.27 277.21,-253.95 274.89,-254.53 272.56,-255.02 270.22,-255.41 267.88,-255.7 265.53,-255.9 263.18,-256 260.82,-256 258.47,-255.9 256.12,-255.7 253.78,-255.41 251.44,-255.02 249.11,-254.53 246.79,-253.95 244.48,-253.27 242.18,-252.5 239.9,-251.65 237.65,-250.71 235.42,-249.68 233.21,-248.57 231.04,-247.38 228.91,-246.12 226.83,-244.79 224.79,-243.39 222.81,-241.92 220.89,-240.4 219.04,-238.82 217.26,-237.18 215.57,-235.5 213.97,-233.78 212.46,-232.02 211.06,-230.23 209.78,-228.41 208.62,-226.56 207.59,-224.7 206.69,-222.83 205.94,-220.94 205.34,-219.06 204.9,-217.17 204.62,-215.3 204.51,-213.44 204.58,-211.59 204.82,-209.77 205.25,-207.98 205.86,-206.22 206.66,-204.5 207.65,-202.82 208.83,-201.18 210.19,-199.6 211.74,-198.08 213.47,-196.61 215.38,-195.21 217.47,-193.88 219.73,-192.62 222.15,-191.43 224.72,-190.32 227.44,-189.29 230.29,-188.35 233.28,-187.5 236.37,-186.73 239.58,-186.05 242.87,-185.47 246.24,-184.98 249.67,-184.59 253.16,-184.3 256.68,-184.1 260.22,-184 263.78,-184 267.32,-184.1"/>
<text xml:space="preserve" text-anchor="middle" x="262" y="-215.8" font-family="sans-serif" font-size="14.00">Ordering</text>
</a>
</g>
</g>
<!-- #/domains/commerce/subdomains/shopping/boundedcontexts/basket&#45;&gt;#/domains/commerce/subdomains/sales/boundedcontexts/ordering -->
<g id="edge3" class="edge">
<title>#/domains/commerce/subdomains/shopping/boundedcontexts/basket&#45;&gt;#/domains/commerce/subdomains/sales/boundedcontexts/ordering</title>
<path fill="none" stroke="black" d="M172.59,-308.27C191.47,-293.68 213.08,-275.36 230.51,-259.28"/>
<polygon fill="black" stroke="black" points="232.7,-262.02 237.6,-252.62 227.91,-256.92 232.7,-262.02"/>
<g id="a_edge3&#45;headlabel"><a xlink:title="published&#45;language">
<text xml:space="preserve" text-anchor="middle" x="238.7" y="-248.59" font-family="sans-serif" font-size="10.00">PL</text>
</a>
</g>
<g id="a_edge3&#45;taillabel"><a xlink:title="conformist">
<text xml:space="preserve" text-anchor="middle" x="172.59" y="-305.27" font-family="sans-serif" font-size="10.00">C</text>
</a>
</g>
</g>
<!-- #/domains/commerce/subdomains/sales/boundedcontexts/ordering&#45;&gt;#/domains/commerce/subdomains/shopping/boundedcontexts/basket -->
<g id="edge4" class="edge">
<title>#/domains/commerce/subdomains/sales/boundedcontexts/ordering&#45;&gt;#/domains/commerce/subdomains/shopping/boundedcontexts/basket</title>
<path fill="none" stroke="black" d="M224.88,-243.55C205.6,-258.11 182.52,-277.47 163.77,-294.63"/>
<polygon fill="black" stroke="black" points="161.53,-291.93 156.59,-301.3 166.3,-297.06 161.53,-291.93"/>
<g id="a_edge4&#45;headlabel"><a xlink:title="open&#45;host&#45;service">
<text xml:space="preserve" text-anchor="middle" x="155.48" y="-299.33" font-family="sans-serif" font-size="10.00">OHS</text>
</a>
</g>
<g id="a_edge4&#45;taillabel"><a xlink:title="anti&#45;corruption&#45;layer">
<text xml:space="preserve" text-anchor="middle" x="224.88" y="-240.55" font-family="sans-serif" font-size="10.00">ACL</text>
</a>
</g>
</g>
<!-- #/domains/identity&amp;access/subdomains/auth/boundedcontexts/identity -->
<g id="node5" class="node">
<title>#/domains/identity&amp;access/subdomains/auth/boundedcontexts/identity</title>
<g id="a_node5"><a xlink:title="Identity.API">
<polygon fill="white" stroke="black" points="94.32,-32.1 97.84,-32.3 101.33,-32.59 104.76,-32.98 108.13,-33.47 111.42,-34.05 114.63,-34.73 117.72,-35.5 120.71,-36.35 123.56,-37.29 126.28,-38.32 128.85,-39.43 131.27,-40.62 133.53,-41.88 135.62,-43.21 137.53,-44.61 139.26,-46.08 140.81,-47.6 142.17,-49.18 143.35,-50.82 144.34,-52.5 145.14,-54.22 145.75,-55.98 146.18,-57.77 146.42,-59.59 146.49,-61.44 146.38,-63.3 146.1,-65.17 145.66,-67.06 145.06,-68.94 144.31,-70.83 143.41,-72.7 142.38,-74.56 141.22,-76.41 139.94,-78.23 138.54,-80.02 137.03,-81.78 135.43,-83.5 133.74,-85.18 131.96,-86.82 130.11,-88.4 128.19,-89.92 126.21,-91.39 124.17,-92.79 122.09,-94.12 119.96,-95.38 117.79,-96.57 115.58,-97.68 113.35,-98.71 111.1,-99.65 108.82,-100.5 106.52,-101.27 104.21,-101.95 101.89,-102.53 99.56,-103.02 97.22,-103.41 94.88,-103.7 92.53,-103.9 90.18,-104 87.82,-104 85.47,-103.9 83.12,-103.7 80.78,-103.41 78.44,-103.02 76.11,-102.53 73.79,-101.95 71.48,-101.27 69.18,-100.5 66.9,-99.65 64.65,-98.71 62.42,-97.68 60.21,-96.57 58.04,-95.38 55.91,-94.12 53.83,-92.79 51.79,-91.39 49.81,-89.92 47.89,-88.4 46.04,-86.82 44.26,-85.18 42.57,-83.5 40.97,-81.78 39.46,-80.02 38.06,-78.23 36.78,-76.41 35.62,-74.56 34.59,-72.7 33.69,-70.83 32.94,-68.94 32.34,-67.06 31.9,-65.17 31.62,-63.3 31.51,-61.44 31.58,-59.59 31.82,-57.77 32.25,-55.98 32.86,-54.22 33.66,-52.5 34.65,-50.82 35.83,-49.18 37.19,-47.6 38.74,-46.08 40.47,-44.61 42.38,-43.21 44.47,-41.88 46.73,-40.62 49.15,-39.43 51.72,-38.32 54.44,-37.29 57.29,-36.35 60.28,-35.5 63.37,-34.73 66.58,-34.05 69.87,-33.47 73.24,-32.98 76.67,-32.59 80.16,-32.3 83.68,-32.1 87.22,-32 90.78,-32 94.32,-32.1"/>
<text xml:space="preserve" text-anchor="middle" x="89" y="-63.8" font-family="sans-serif" font-size="14.00">Identity</text>
</a>
</g>
</g>
<!-- #/domains/commerce/subdomains/sales/boundedcontexts/ordering&#45;&gt;#/domains/identity&amp;access/subdomains/auth/boundedcontexts/identity -->
<g id="edge5" class="edge">
<title>#/domains/commerce/subdomains/sales/boundedcontexts/ordering&#45;&gt;#/domains/identity&amp;access/subdomains/auth/boundedcontexts/identity</title>
<path fill="none" stroke="black" d="M221.82,-191.06C210.13,-183.3 197.21,-175.06 185,-168 178.12,-164.02 175.3,-164.85 169,-160 150.13,-145.46 132.3,-125.97 118.28,-108.76"/>
<polygon fill="black" stroke="black" points="121.22,-106.83 112.25,-101.19 115.74,-111.19 121.22,-106.83"/>
<g id="a_edge5&#45;headlabel"><a xlink:title="open&#45;host&#45;service">
<text xml:space="preserve" text-anchor="middle" x="111.31" y="-97.01" font-family="sans-serif" font-size="10.00">OHS</text>
</a>
</g>
<g id="a_edge5&#45;taillabel"><a xlink:title="anti&#45;corruption&#45;layer">
<text xml:space="preserve" text-anchor="middle" x="221.82" y="-188.06" font-family="sans-serif" font-size="10.00">ACL</text>
</a>
</g>
</g>
<!-- #/domains/customer_experience/subdomains/promotions/boundedcontexts/marketing -->
<g id="node6" class="node">
<title>#/domains/customer_experience/subdomains/promotions/boundedcontexts/marketing</title>
<g id="a_node6"><a xlink:title="Marketing.API">
<polygon fill="white" stroke="black" points="248.32,-32.1 251.84,-32.3 255.33,-32.59 258.76,-32.98 262.13,-33.47 265.42,-34.05 268.63,-34.73 271.72,-35.5 274.71,-36.35 277.56,-37.29 280.28,-38.32 282.85,-39.43 285.27,-40.62 287.53,-41.88 289.62,-43.21 291.53,-44.61 293.26,-46.08 294.81,-47.6 296.17,-49.18 297.35,-50.82 298.34,-52.5 299.14,-54.22 299.75,-55.98 300.18,-57.77 300.42,-59.59 300.49,-61.44 300.38,-63.3 300.1,-65.17 299.66,-67.06 299.06,-68.94 298.31,-70.83 297.41,-72.7 296.38,-74.56 295.22,-76.41 293.94,-78.23 292.54,-80.02 291.03,-81.78 289.43,-83.5 287.74,-85.18 285.96,-86.82 284.11,-88.4 282.19,-89.92 280.21,-91.39 278.17,-92.79 276.09,-94.12 273.96,-95.38 271.79,-96.57 269.58,-97.68 267.35,-98.71 265.1,-99.65 262.82,-100.5 260.52,-101.27 258.21,-101.95 255.89,-102.53 253.56,-103.02 251.22,-103.41 248.88,-103.7 246.53,-103.9 244.18,-104 241.82,-104 239.47,-103.9 237.12,-103.7 234.78,-103.41 232.44,-103.02 230.11,-102.53 227.79,-101.95 225.48,-101.27 223.18,-100.5 220.9,-99.65 218.65,-98.71 216.42,-97.68 214.21,-96.57 212.04,-95.38 209.91,-94.12 207.83,-92.79 205.79,-91.39 203.81,-89.92 201.89,-88.4 200.04,-86.82 198.26,-85.18 196.57,-83.5 194.97,-81.78 193.46,-80.02 192.06,-78.23 190.78,-76.41 189.62,-74.56 188.59,-72.7 187.69,-70.83 186.94,-68.94 186.34,-67.06 185.9,-65.17 185.62,-63.3 185.51,-61.44 185.58,-59.59 185.82,-57.77 186.25,-55.98 186.86,-54.22 187.66,-52.5 188.65,-50.82 189.83,-49.18 191.19,-47.6 192.74,-46.08 194.47,-44.61 196.38,-43.21 198.47,-41.88 200.73,-40.62 203.15,-39.43 205.72,-38.32 208.44,-37.29 211.29,-36.35 214.28,-35.5 217.37,-34.73 220.58,-34.05 223.87,-33.47 227.24,-32.98 230.67,-32.59 234.16,-32.3 237.68,-32.1 241.22,-32 244.78,-32 248.32,-32.1"/>
<text xml:space="preserve" text-anchor="middle" x="243" y="-63.8" font-family="sans-serif" font-size="14.00">Marketing</text>
</a>
</g>
</g>
<!-- #/domains/commerce/subdomains/sales/boundedcontexts/ordering&#45;&gt;#/domains/customer_experience/subdomains/promotions/boundedcontexts/marketing -->
<g id="edge6" class="edge">
<title>#/domains/commerce/subdomains/sales/boundedcontexts/ordering&#45;&gt;#/domains/customer_experience/subdomains/promotions/boundedcontexts/marketing</title>
<path fill="none" stroke="black" d="M257.59,-184.21C254.99,-163.65 251.66,-137.36 248.84,-115.09"/>
<polygon fill="black" stroke="black" points="252.33,-114.84 247.61,-105.36 245.39,-115.72 252.33,-114.84"/>
<g id="a_edge6&#45;headlabel"><a xlink:title="open&#45;host&#45;service">
<text xml:space="preserve" text-anchor="middle" x="247.42" y="-100.86" font-family="sans-serif" font-size="10.00">OHS</text>
</a>
</g>
<g id="a_edge6&#45;taillabel"><a xlink:title="anti&#45;corruption&#45;layer">
<text xml:space="preserve" text-anchor="middle" x="257.59" y="-181.21" font-family="sans-serif" font-size="10.00">ACL</text>
</a>
</g>
</g>
<!-- #/domains/customer_experience/subdomains/geodata/boundedcontexts/locations -->
<g id="node7" class="node">
<title>#/domains/customer_experience/subdomains/geodata/boundedcontexts/locations</title>
<g id="a_node7"><a xlink:title="Locations.API">
<polygon fill="white" stroke="black" points="399.32,-32.1 402.84,-32.3 406.33,-32.59 409.76,-32.98 413.13,-33.47 416.42,-34.05 419.63,-34.73 422.72,-35.5 425.71,-36.35 428.56,-37.29 431.28,-38.32 433.85,-39.43 436.27,-40.62 438.53,-41.88 440.62,-43.21 442.53,-44.61 444.26,-46.08 445.81,-47.6 447.17,-49.18 448.35,-50.82 449.34,-52.5 450.14,-54.22 450.75,-55.98 451.18,-57.77 451.42,-59.59 451.49,-61.44 451.38,-63.3 451.1,-65.17 450.66,-67.06 450.06,-68.94 449.31,-70.83 448.41,-72.7 447.38,-74.56 446.22,-76.41 444.94,-78.23 443.54,-80.02 442.03,-81.78 440.43,-83.5 438.74,-85.18 436.96,-86.82 435.11,-88.4 433.19,-89.92 431.21,-91.39 429.17,-92.79 427.09,-94.12 424.96,-95.38 422.79,-96.57 420.58,-97.68 418.35,-98.71 416.1,-99.65 413.82,-100.5 411.52,-101.27 409.21,-101.95 406.89,-102.53 404.56,-103.02 402.22,-103.41 399.88,-103.7 397.53,-103.9 395.18,-104 392.82,-104 390.47,-103.9 388.12,-103.7 385.78,-103.41 383.44,-103.02 381.11,-102.53 378.79,-101.95 376.48,-101.27 374.18,-100.5 371.9,-99.65 369.65,-98.71 367.42,-97.68 365.21,-96.57 363.04,-95.38 360.91,-94.12 358.83,-92.79 356.79,-91.39 354.81,-89.92 352.89,-88.4 351.04,-86.82 349.26,-85.18 347.57,-83.5 345.97,-81.78 344.46,-80.02 343.06,-78.23 341.78,-76.41 340.62,-74.56 339.59,-72.7 338.69,-70.83 337.94,-68.94 337.34,-67.06 336.9,-65.17 336.62,-63.3 336.51,-61.44 336.58,-59.59 336.82,-57.77 337.25,-55.98 337.86,-54.22 338.66,-52.5 339.65,-50.82 340.83,-49.18 342.19,-47.6 343.74,-46.08 345.47,-44.61 347.38,-43.21 349.47,-41.88 351.73,-40.62 354.15,-39.43 356.72,-38.32 359.44,-37.29 362.29,-36.35 365.28,-35.5 368.37,-34.73 371.58,-34.05 374.87,-33.47 378.24,-32.98 381.67,-32.59 385.16,-32.3 388.68,-32.1 392.22,-32 395.78,-32 399.32,-32.1"/>
<text xml:space="preserve" text-anchor="middle" x="394" y="-63.8" font-family="sans-serif" font-size="14.00">Locations</text>
</a>
</g>
</g>
<!-- #/domains/commerce/subdomains/sales/boundedcontexts/ordering&#45;&gt;#/domains/customer_experience/subdomains/geodata/boundedcontexts/locations -->
<g id="edge7" class="edge">
<title>#/domains/commerce/subdomains/sales/boundedcontexts/ordering&#45;&gt;#/domains/customer_experience/subdomains/geodata/boundedcontexts/locations</title>
<path fill="none" stroke="black" d="M291.97,-187.41C300.17,-178.62 309,-169 317,-160 332.08,-143.03 348.37,-123.89 362.07,-107.57"/>
<polygon fill="black" stroke="black" points="364.68,-109.89 368.42,-99.98 359.32,-105.4 364.68,-109.89"/>
<g id="a_edge7&#45;headlabel"><a xlink:title="open&#45;host&#45;service">
<text xml:space="preserve" text-anchor="middle" x="369.39" y="-95.82" font-family="sans-serif" font-size="10.00">OHS</text>
</a>
</g>
<g id="a_edge7&#45;taillabel"><a xlink:title="anti&#45;corruption&#45;layer">
<text xml:space="preserve" text-anchor="middle" x="291.97" y="-184.41" font-family="sans-serif" font-size="10.00">ACL</text>
</a>
</g>
</g>
<!-- #/domains/integration/subdomains/edge/boundedcontexts/api_gateway -->
<g id="node4" class="node">
<title>#/domains/integration/subdomains/edge/boundedcontexts/api_gateway</title>
<g id="a_node4"><a xlink:title="Ocelot + Aggregators (Web &amp; Mobile Shopping)">
<polygon fill="white" stroke="black" points="248.32,-452.1 251.84,-452.3 255.33,-452.59 258.76,-452.98 262.13,-453.47 265.42,-454.05 268.63,-454.73 271.72,-455.5 274.71,-456.35 277.56,-457.29 280.28,-458.32 282.85,-459.43 285.27,-460.62 287.53,-461.88 289.62,-463.21 291.53,-464.61 293.26,-466.08 294.81,-467.6 296.17,-469.18 297.35,-470.82 298.34,-472.5 299.14,-474.22 299.75,-475.98 300.18,-477.77 300.42,-479.59 300.49,-481.44 300.38,-483.3 300.1,-485.17 299.66,-487.06 299.06,-488.94 298.31,-490.83 297.41,-492.7 296.38,-494.56 295.22,-496.41 293.94,-498.23 292.54,-500.02 291.03,-501.78 289.43,-503.5 287.74,-505.18 285.96,-506.82 284.11,-508.4 282.19,-509.92 280.21,-511.39 278.17,-512.79 276.09,-514.12 273.96,-515.38 271.79,-516.57 269.58,-517.68 267.35,-518.71 265.1,-519.65 262.82,-520.5 260.52,-521.27 258.21,-521.95 255.89,-522.53 253.56,-523.02 251.22,-523.41 248.88,-523.7 246.53,-523.9 244.18,-524 241.82,-524 239.47,-523.9 237.12,-523.7 234.78,-523.41 232.44,-523.02 230.11,-522.53 227.79,-521.95 225.48,-521.27 223.18,-520.5 220.9,-519.65 218.65,-518.71 216.42,-517.68 214.21,-516.57 212.04,-515.38 209.91,-514.12 207.83,-512.79 205.79,-511.39 203.81,-509.92 201.89,-508.4 200.04,-506.82 198.26,-505.18 196.57,-503.5 194.97,-501.78 193.46,-500.02 192.06,-498.23 190.78,-496.41 189.62,-494.56 188.59,-492.7 187.69,-490.83 186.94,-488.94 186.34,-487.06 185.9,-485.17 185.62,-483.3 185.51,-481.44 185.58,-479.59 185.82,-477.77 186.25,-475.98 186.86,-474.22 187.66,-472.5 188.65,-470.82 189.83,-469.18 191.19,-467.6 192.74,-466.08 194.47,-464.61 196.38,-463.21 198.47,-461.88 200.73,-460.62 203.15,-459.43 205.72,-458.32 208.44,-457.29 211.29,-456.35 214.28,-455.5 217.37,-454.73 220.58,-454.05 223.87,-453.47 227.24,-452.98 230.67,-452.59 234.16,-452.3 237.68,-452.1 241.22,-452 244.78,-452 248.32,-452.1"/>
<text xml:space="preserve" text-anchor="middle" x="243" y="-483.8" font-family="sans-serif" font-size="14.00">ApiGateway</text>
</a>
</g>
</g>
<!-- #/domains/integration/subdomains/edge/boundedcontexts/api_gateway&#45;&gt;#/domains/commerce/subdomains/shopping/boundedcontexts/basket -->
<g id="edge1" class="edge">
<title>#/domains/integration/subdomains/edge/boundedcontexts/api_gateway&#45;&gt;#/domains/commerce/subdomains/shopping/boundedcontexts/basket</title>
<path fill="none" stroke="black" d="M218.2,-454.08C200.98,-431.22 177.94,-400.64 159.73,-376.46"/>
<polygon fill="black" stroke="black" points="162.73,-374.63 153.92,-368.75 157.14,-378.84 162.73,-374.63"/>
<g id="a_edge1&#45;headlabel"><a xlink:title="open&#45;host&#45;service">
<text xml:space="preserve" text-anchor="middle" x="153.01" y="-364.54" font-family="sans-serif" font-size="10.00">OHS</text>
</a>
</g>
<g id="a_edge1&#45;taillabel"><a xlink:title="conformist">
<text xml:space="preserve" text-anchor="middle" x="218.2" y="-451.08" font-family="sans-serif" font-size="10.00">C</text>
</a>
</g>
</g>
<!-- #/domains/integration/subdomains/edge/boundedcontexts/api_gateway&#45;&gt;#/domains/commerce/subdomains/cataloging/boundedcontexts/catalog -->
<g id="edge8" class="edge">
<title>#/domains/integration/subdomains/edge/boundedcontexts/api_gateway&#45;&gt;#/domains/commerce/subdomains/cataloging/boundedcontexts/catalog</title>
<path fill="none" stroke="black" d="M239.72,-452.17C234.48,-403.07 222.86,-316.69 204,-292 199.17,-285.68 194.67,-288.32 188,-284 174.95,-275.55 161.55,-265.24 149.66,-255.44"/>
<polygon fill="black" stroke="black" points="151.97,-252.81 142.06,-249.05 147.47,-258.17 151.97,-252.81"/>
<g id="a_edge8&#45;headlabel"><a xlink:title="open&#45;host&#45;service">
<text xml:space="preserve" text-anchor="middle" x="140.9" y="-245.08" font-family="sans-serif" font-size="10.00">OHS</text>
</a>
</g>
<g id="a_edge8&#45;taillabel"><a xlink:title="conformist">
<text xml:space="preserve" text-anchor="middle" x="239.72" y="-449.17" font-family="sans-serif" font-size="10.00">C</text>
</a>
</g>
</g>
<!-- #/domains/integration/subdomains/edge/boundedcontexts/api_gateway&#45;&gt;#/domains/commerce/subdomains/sales/boundedcontexts/ordering -->
<g id="edge9" class="edge">
<title>#/domains/integration/subdomains/edge/boundedcontexts/api_gateway&#45;&gt;#/domains/commerce/subdomains/sales/boundedcontexts/ordering</title>
<path fill="none" stroke="black" d="M245.48,-452.23C248.87,-404.83 254.94,-319.84 258.7,-267.15"/>
<polygon fill="black" stroke="black" points="262.19,-267.52 259.41,-257.29 255.2,-267.02 262.19,-267.52"/>
<g id="a_edge9&#45;headlabel"><a xlink:title="open&#45;host&#45;service">
<text xml:space="preserve" text-anchor="middle" x="259.52" y="-252.78" font-family="sans-serif" font-size="10.00">OHS</text>
</a>
</g>
<g id="a_edge9&#45;taillabel"><a xlink:title="conformist">
<text xml:space="preserve" text-anchor="middle" x="245.48" y="-449.23" font-family="sans-serif" font-size="10.00">C</text>
</a>
</g>
</g>
<!-- #/domains/integration/subdomains/edge/boundedcontexts/api_gateway&#45;&gt;#/domains/identity&amp;access/subdomains/auth/boundedcontexts/identity -->
<g id="edge12" class="edge">
<title>#/domains/integration/subdomains/edge/boundedcontexts/api_gateway&#45;&gt;#/domains/identity&amp;access/subdomains/auth/boundedcontexts/identity</title>
<path fill="none" stroke="black" d="M185.91,-484.67C143.51,-479.72 87.73,-465.81 56,-428 -18.48,-339.25 9.25,-280.49 37,-168 42.01,-147.67 52.03,-126.91 61.95,-109.67"/>
<polygon fill="black" stroke="black" points="64.84,-111.65 66.96,-101.27 58.83,-108.06 64.84,-111.65"/>
<g id="a_edge12&#45;headlabel"><a xlink:title="open&#45;host&#45;service">
<text xml:space="preserve" text-anchor="middle" x="67.73" y="-96.97" font-family="sans-serif" font-size="10.00">OHS</text>
</a>
</g>
<g id="a_edge12&#45;taillabel"><a xlink:title="conformist">
<text xml:space="preserve" text-anchor="middle" x="185.91" y="-481.67" font-family="sans-serif" font-size="10.00">C</text>
</a>
</g>
</g>
<!-- #/domains/integration/subdomains/edge/boundedcontexts/api_gateway&#45;&gt;#/domains/customer_experience/subdomains/promotions/boundedcontexts/marketing -->
<g id="edge10" class="edge">
<title>#/domains/integration/subdomains/edge/boundedcontexts/api_gateway&#45;&gt;#/domains/customer_experience/subdomains/promotions/boundedcontexts/marketing</title>
<path fill="none" stroke="black" d="M268.8,-454.35C313.23,-393.86 394.08,-261.97 336,-168 331.82,-161.24 326.25,-164.91 320,-160 301.57,-145.52 284.38,-126.04 270.93,-108.82"/>
<polygon fill="black" stroke="black" points="274.02,-107.09 265.17,-101.26 268.45,-111.34 274.02,-107.09"/>
<g id="a_edge10&#45;headlabel"><a xlink:title="open&#45;host&#45;service">
<text xml:space="preserve" text-anchor="middle" x="264.26" y="-97.06" font-family="sans-serif" font-size="10.00">OHS</text>
</a>
</g>
<g id="a_edge10&#45;taillabel"><a xlink:title="conformist">
<text xml:space="preserve" text-anchor="middle" x="268.8" y="-451.35" font-family="sans-serif" font-size="10.00">C</text>
</a>
</g>
</g>
<!-- #/domains/integration/subdomains/edge/boundedcontexts/api_gateway&#45;&gt;#/domains/customer_experience/subdomains/geodata/boundedcontexts/locations -->
<g id="edge11" class="edge">
<title>#/domains/integration/subdomains/edge/boundedcontexts/api_gateway&#45;&gt;#/domains/customer_experience/subdomains/geodata/boundedcontexts/locations</title>
<path fill="none" stroke="black" d="M291.28,-463.88C305.82,-454.65 320.45,-442.69 330,-428 393.44,-330.48 398.78,-187.97 396.74,-115.32"/>
<polygon fill="black" stroke="black" points="400.24,-115.24 396.39,-105.37 393.25,-115.48 400.24,-115.24"/>
<g id="a_edge11&#45;headlabel"><a xlink:title="open&#45;host&#45;service">
<text xml:space="preserve" text-anchor="middle" x="396.34" y="-100.86" font-family="sans-serif" font-size="10.00">OHS</text>
</a>
</g>
<g id="a_edge11&#45;taillabel"><a xlink:title="conformist">
<text xml:space="preserve" text-anchor="middle" x="291.28" y="-460.88" font-family="sans-serif" font-size="10.00">C</text>
</a>
</g>
</g>
</g>
</svg>
