<?xml version="1.0" encoding="UTF-8" standalone="no"?>
<?xml-stylesheet href="data:text/css,.graph%20text%20%7B%0A%09font-family%3A%20sans-serif%3B%0A%09stroke%3A%20white%3B%0A%09paint-order%3A%20stroke%3B%0A%09stroke-width%3A%203%3B%0A%09stroke-linecap%3A%20square%3B%0A%7D%0A%0A.namespace%20polygon%20%7B%0A%09fill-opacity%3A%200.2%3B%0A%09stroke%3A%20none%3B%0A%7D%0A" type="text/css"?>
<!DOCTYPE svg PUBLIC "-//W3C//DTD SVG 1.1//EN"
 "http://www.w3.org/Graphics/SVG/1.1/DTD/svg11.dtd">
<!-- Generated by graphviz version 13.1.2 (0)
 -->
<!-- Pages: 1 -->
<svg width="968pt" height="472pt"
 viewBox="0.00 0.00 968.00 472.00" xmlns="http://www.w3.org/2000/svg" xmlns:xlink="http://www.w3.org/1999/xlink">
<g id="graph0" class="graph" transform="scale(1 1) rotate(0) translate(4 468)">
<polygon fill="white" stroke="none" points="-4,4 -4,-468 964,-468 964,4 -4,4"/>
<g id="clust1" class="cluster namespace">
<title>e_shop_on_containers</title>
<polygon fill="lightgrey" stroke="lightgrey" points="8,-8 8,-456 952,-456 952,-8 8,-8"/>
<text xml:space="preserve" text-anchor="middle" x="480" y="-443" font-family="sans-serif" font-size="10.00">eShopOnContainers</text>
</g>
<g id="clust2" class="cluster namespace">
<title>#/domains/commerce</title>
<polygon fill="lightgrey" stroke="lightgrey" points="16,-16 16,-428 313,-428 313,-16 16,-16"/>
<text xml:space="preserve" text-anchor="middle" x="164.5" y="-415" font-family="sans-serif" font-size="10.00">Commerce</text>
</g>
<g id="clust3" class="cluster namespace">
<title>#/domains/commerce/subdomains/sales</title>
<polygon fill="lightgrey" stroke="lightgrey" points="175,-292 175,-400 305,-400 305,-292 175,-292"/>
<text xml:space="preserve" text-anchor="middle" x="240" y="-387" font-family="sans-serif" font-size="10.00">Sales</text>
</g>
<g id="clust4" class="cluster namespace">
<title>#/domains/commerce/subdomains/payments</title>
<polygon fill="lightgrey" stroke="lightgrey" points="24,-148 24,-256 154,-256 154,-148 24,-148"/>
<text xml:space="preserve" text-anchor="middle" x="89" y="-243" font-family="sans-serif" font-size="10.00">Payments</text>
</g>
<g id="clust5" class="cluster namespace">
<title>#/domains/commerce/subdomains/shopping</title>
<polygon fill="lightgrey" stroke="lightgrey" points="175,-148 175,-256 305,-256 305,-148 175,-148"/>
<text xml:space="preserve" text-anchor="middle" x="240" y="-243" font-family="sans-serif" font-size="10.00">Shopping</text>
</g>
<g id="clust6" class="cluster namespace">
<title>#/domains/commerce/subdomains/cataloging</title>
<polygon fill="lightgrey" stroke="lightgrey" points="175,-24 175,-132 305,-132 305,-24 175,-24"/>
<text xml:space="preserve" text-anchor="middle" x="240" y="-119" font-family="sans-serif" font-size="10.00">Cataloging</text>
</g>
<g id="clust7" class="cluster namespace">
<title>#/domains/customer_experience</title>
<polygon fill="lightgrey" stroke="lightgrey" points="321,-140 321,-284 790,-284 790,-140 321,-140"/>
<text xml:space="preserve" text-anchor="middle" x="555.5" y="-271" font-family="sans-serif" font-size="10.00">CustomerExperience</text>
</g>
<g id="clust8" class="cluster namespace">
<title>#/domains/customer_experience/subdomains/realtime</title>
<polygon fill="lightgrey" stroke="lightgrey" points="329,-148 329,-256 481,-256 481,-148 329,-148"/>
<text xml:space="preserve" text-anchor="middle" x="405" y="-243" font-family="sans-serif" font-size="10.00">Realtime</text>
</g>
<g id="clust9" class="cluster namespace">
<title>#/domains/customer_experience/subdomains/promotions</title>
<polygon fill="lightgrey" stroke="lightgrey" points="501,-148 501,-256 631,-256 631,-148 501,-148"/>
<text xml:space="preserve" text-anchor="middle" x="566" y="-243" font-family="sans-serif" font-size="10.00">Promotions</text>
</g>
<g id="clust10" class="cluster namespace">
<title>#/domains/customer_experience/subdomains/geodata</title>
<polygon fill="lightgrey" stroke="lightgrey" points="652,-148 652,-256 782,-256 782,-148 652,-148"/>
<text xml:space="preserve" text-anchor="middle" x="717" y="-243" font-family="sans-serif" font-size="10.00">Geodata</text>
</g>
<g id="clust11" class="cluster namespace">
<title>#/domains/identity&amp;access</title>
<polygon fill="lightgrey" stroke="lightgrey" points="798,-140 798,-284 944,-284 944,-140 798,-140"/>
<text xml:space="preserve" text-anchor="middle" x="871" y="-271" font-family="sans-serif" font-size="10.00">Identity&amp;Access</text>
</g>
<g id="clust12" class="cluster namespace">
<title>#/domains/identity&amp;access/subdomains/auth</title>
<polygon fill="lightgrey" stroke="lightgrey" points="806,-148 806,-256 936,-256 936,-148 806,-148"/>
<text xml:space="preserve" text-anchor="middle" x="871" y="-243" font-family="sans-serif" font-size="10.00">Auth</text>
</g>
<!-- #/domains/commerce/subdomains/sales/boundedcontexts/ordering -->
<g id="node1" class="node">
<title>#/domains/commerce/subdomains/sales/boundedcontexts/ordering</title>
<g id="a_node1"><a xlink:title="Ordering.API (rich DDD + domain events)">
<polygon fill="white" stroke="black" points="245.32,-300.1 248.84,-300.3 252.33,-300.59 255.76,-300.98 259.13,-301.47 262.42,-302.05 265.63,-302.73 268.72,-303.5 271.71,-304.35 274.56,-305.29 277.28,-306.32 279.85,-307.43 282.27,-308.62 284.53,-309.88 286.62,-311.21 288.53,-312.61 290.26,-314.08 291.81,-315.6 293.17,-317.18 294.35,-318.82 295.34,-320.5 296.14,-322.22 296.75,-323.98 297.18,-325.77 297.42,-327.59 297.49,-329.44 297.38,-331.3 297.1,-333.17 296.66,-335.06 296.06,-336.94 295.31,-338.83 294.41,-340.7 293.38,-342.56 292.22,-344.41 290.94,-346.23 289.54,-348.02 288.03,-349.78 286.43,-351.5 284.74,-353.18 282.96,-354.82 281.11,-356.4 279.19,-357.92 277.21,-359.39 275.17,-360.79 273.09,-362.12 270.96,-363.38 268.79,-364.57 266.58,-365.68 264.35,-366.71 262.1,-367.65 259.82,-368.5 257.52,-369.27 255.21,-369.95 252.89,-370.53 250.56,-371.02 248.22,-371.41 245.88,-371.7 243.53,-371.9 241.18,-372 238.82,-372 236.47,-371.9 234.12,-371.7 231.78,-371.41 229.44,-371.02 227.11,-370.53 224.79,-369.95 222.48,-369.27 220.18,-368.5 217.9,-367.65 215.65,-366.71 213.42,-365.68 211.21,-364.57 209.04,-363.38 206.91,-362.12 204.83,-360.79 202.79,-359.39 200.81,-357.92 198.89,-356.4 197.04,-354.82 195.26,-353.18 193.57,-351.5 191.97,-349.78 190.46,-348.02 189.06,-346.23 187.78,-344.41 186.62,-342.56 185.59,-340.7 184.69,-338.83 183.94,-336.94 183.34,-335.06 182.9,-333.17 182.62,-331.3 182.51,-329.44 182.58,-327.59 182.82,-325.77 183.25,-323.98 183.86,-322.22 184.66,-320.5 185.65,-318.82 186.83,-317.18 188.19,-315.6 189.74,-314.08 191.47,-312.61 193.38,-311.21 195.47,-309.88 197.73,-308.62 200.15,-307.43 202.72,-306.32 205.44,-305.29 208.29,-304.35 211.28,-303.5 214.37,-302.73 217.58,-302.05 220.87,-301.47 224.24,-300.98 227.67,-300.59 231.16,-300.3 234.68,-300.1 238.22,-300 241.78,-300 245.32,-300.1"/>
<text xml:space="preserve" text-anchor="middle" x="240" y="-331.8" font-family="sans-serif" font-size="14.00">Ordering</text>
</a>
</g>
</g>
<!-- #/domains/commerce/subdomains/payments/boundedcontexts/payment -->
<g id="node2" class="node">
<title>#/domains/commerce/subdomains/payments/boundedcontexts/payment</title>
<g id="a_node2"><a xlink:title="Payment.API (sample)">
<polygon fill="white" stroke="black" points="94.32,-156.1 97.84,-156.3 101.33,-156.59 104.76,-156.98 108.13,-157.47 111.42,-158.05 114.63,-158.73 117.72,-159.5 120.71,-160.35 123.56,-161.29 126.28,-162.32 128.85,-163.43 131.27,-164.62 133.53,-165.88 135.62,-167.21 137.53,-168.61 139.26,-170.08 140.81,-171.6 142.17,-173.18 143.35,-174.82 144.34,-176.5 145.14,-178.22 145.75,-179.98 146.18,-181.77 146.42,-183.59 146.49,-185.44 146.38,-187.3 146.1,-189.17 145.66,-191.06 145.06,-192.94 144.31,-194.83 143.41,-196.7 142.38,-198.56 141.22,-200.41 139.94,-202.23 138.54,-204.02 137.03,-205.78 135.43,-207.5 133.74,-209.18 131.96,-210.82 130.11,-212.4 128.19,-213.92 126.21,-215.39 124.17,-216.79 122.09,-218.12 119.96,-219.38 117.79,-220.57 115.58,-221.68 113.35,-222.71 111.1,-223.65 108.82,-224.5 106.52,-225.27 104.21,-225.95 101.89,-226.53 99.56,-227.02 97.22,-227.41 94.88,-227.7 92.53,-227.9 90.18,-228 87.82,-228 85.47,-227.9 83.12,-227.7 80.78,-227.41 78.44,-227.02 76.11,-226.53 73.79,-225.95 71.48,-225.27 69.18,-224.5 66.9,-223.65 64.65,-222.71 62.42,-221.68 60.21,-220.57 58.04,-219.38 55.91,-218.12 53.83,-216.79 51.79,-215.39 49.81,-213.92 47.89,-212.4 46.04,-210.82 44.26,-209.18 42.57,-207.5 40.97,-205.78 39.46,-204.02 38.06,-202.23 36.78,-200.41 35.62,-198.56 34.59,-196.7 33.69,-194.83 32.94,-192.94 32.34,-191.06 31.9,-189.17 31.62,-187.3 31.51,-185.44 31.58,-183.59 31.82,-181.77 32.25,-179.98 32.86,-178.22 33.66,-176.5 34.65,-174.82 35.83,-173.18 37.19,-171.6 38.74,-170.08 40.47,-168.61 42.38,-167.21 44.47,-165.88 46.73,-164.62 49.15,-163.43 51.72,-162.32 54.44,-161.29 57.29,-160.35 60.28,-159.5 63.37,-158.73 66.58,-158.05 69.87,-157.47 73.24,-156.98 76.67,-156.59 80.16,-156.3 83.68,-156.1 87.22,-156 90.78,-156 94.32,-156.1"/>
<text xml:space="preserve" text-anchor="middle" x="89" y="-187.8" font-family="sans-serif" font-size="14.00">Payment</text>
</a>
</g>
</g>
<!-- #/domains/commerce/subdomains/sales/boundedcontexts/ordering&#45;&gt;#/domains/commerce/subdomains/payments/boundedcontexts/payment -->
<g id="edge2" class="edge">
<title>#/domains/commerce/subdomains/sales/boundedcontexts/ordering&#45;&gt;#/domains/commerce/subdomains/payments/boundedcontexts/payment</title>
<path fill="none" stroke="black" d="M197.44,-308.52C186.75,-301.11 175.6,-292.69 166,-284 149.05,-268.64 132.38,-249.58 118.91,-232.88"/>
<polygon fill="black" stroke="black" points="121.67,-230.73 112.71,-225.07 116.19,-235.08 121.67,-230.73"/>
<g id="a_edge2&#45;headlabel"><a xlink:title="open&#45;host&#45;service">
<text xml:space="preserve" text-anchor="middle" x="111.77" y="-220.88" font-family="sans-serif" font-size="10.00">OHS</text>
</a>
</g>
<g id="a_edge2&#45;taillabel"><a xlink:title="customer&#45;supplier">
<text xml:space="preserve" text-anchor="middle" x="197.44" y="-305.52" font-family="sans-serif" font-size="10.00">C/s</text>
</a>
</g>
</g>
<!-- #/domains/commerce/subdomains/sales/boundedcontexts/ordering&#45;&gt;#/domains/commerce/subdomains/payments/boundedcontexts/payment -->
<g id="edge10" class="edge">
<title>#/domains/commerce/subdomains/sales/boundedcontexts/ordering&#45;&gt;#/domains/commerce/subdomains/payments/boundedcontexts/payment</title>
<path fill="none" stroke="black" d="M222.55,-300.99C215.66,-295.61 208.48,-289.87 202,-284 180.43,-264.46 159.32,-238.93 138.71,-219.89"/>
<polygon fill="black" stroke="black" points="141.18,-217.39 131.36,-213.41 136.55,-222.65 141.18,-217.39"/>
<g id="a_edge10&#45;headlabel"><a xlink:title="published&#45;language">
<text xml:space="preserve" text-anchor="middle" x="130.22" y="-209.42" font-family="sans-serif" font-size="10.00">PL</text>
</a>
</g>
<g id="a_edge10&#45;taillabel"><a xlink:title="conformist">
<text xml:space="preserve" text-anchor="middle" x="222.55" y="-297.99" font-family="sans-serif" font-size="10.00">C</text>
</a>
</g>
</g>
<!-- #/domains/commerce/subdomains/shopping/boundedcontexts/basket -->
<g id="node3" class="node">
<title>#/domains/commerce/subdomains/shopping/boundedcontexts/basket</title>
<g id="a_node3"><a xlink:title="Basket.API (Redis)">
<polygon fill="white" stroke="black" points="245.32,-156.1 248.84,-156.3 252.33,-156.59 255.76,-156.98 259.13,-157.47 262.42,-158.05 265.63,-158.73 268.72,-159.5 271.71,-160.35 274.56,-161.29 277.28,-162.32 279.85,-163.43 282.27,-164.62 284.53,-165.88 286.62,-167.21 288.53,-168.61 290.26,-170.08 291.81,-171.6 293.17,-173.18 294.35,-174.82 295.34,-176.5 296.14,-178.22 296.75,-179.98 297.18,-181.77 297.42,-183.59 297.49,-185.44 297.38,-187.3 297.1,-189.17 296.66,-191.06 296.06,-192.94 295.31,-194.83 294.41,-196.7 293.38,-198.56 292.22,-200.41 290.94,-202.23 289.54,-204.02 288.03,-205.78 286.43,-207.5 284.74,-209.18 282.96,-210.82 281.11,-212.4 279.19,-213.92 277.21,-215.39 275.17,-216.79 273.09,-218.12 270.96,-219.38 268.79,-220.57 266.58,-221.68 264.35,-222.71 262.1,-223.65 259.82,-224.5 257.52,-225.27 255.21,-225.95 252.89,-226.53 250.56,-227.02 248.22,-227.41 245.88,-227.7 243.53,-227.9 241.18,-228 238.82,-228 236.47,-227.9 234.12,-227.7 231.78,-227.41 229.44,-227.02 227.11,-226.53 224.79,-225.95 222.48,-225.27 220.18,-224.5 217.9,-223.65 215.65,-222.71 213.42,-221.68 211.21,-220.57 209.04,-219.38 206.91,-218.12 204.83,-216.79 202.79,-215.39 200.81,-213.92 198.89,-212.4 197.04,-210.82 195.26,-209.18 193.57,-207.5 191.97,-205.78 190.46,-204.02 189.06,-202.23 187.78,-200.41 186.62,-198.56 185.59,-196.7 184.69,-194.83 183.94,-192.94 183.34,-191.06 182.9,-189.17 182.62,-187.3 182.51,-185.44 182.58,-183.59 182.82,-181.77 183.25,-179.98 183.86,-178.22 184.66,-176.5 185.65,-174.82 186.83,-173.18 188.19,-171.6 189.74,-170.08 191.47,-168.61 193.38,-167.21 195.47,-165.88 197.73,-164.62 200.15,-163.43 202.72,-162.32 205.44,-161.29 208.29,-160.35 211.28,-159.5 214.37,-158.73 217.58,-158.05 220.87,-157.47 224.24,-156.98 227.67,-156.59 231.16,-156.3 234.68,-156.1 238.22,-156 241.78,-156 245.32,-156.1"/>
<text xml:space="preserve" text-anchor="middle" x="240" y="-187.8" font-family="sans-serif" font-size="14.00">Basket</text>
</a>
</g>
</g>
<!-- #/domains/commerce/subdomains/sales/boundedcontexts/ordering&#45;&gt;#/domains/commerce/subdomains/shopping/boundedcontexts/basket -->
<g id="edge4" class="edge">
<title>#/domains/commerce/subdomains/sales/boundedcontexts/ordering&#45;&gt;#/domains/commerce/subdomains/shopping/boundedcontexts/basket</title>
<path fill="none" stroke="black" d="M251.79,-300.26C253.72,-281.59 254.02,-258.35 252.68,-238.28"/>
<polygon fill="black" stroke="black" points="256.17,-238.06 251.83,-228.4 249.2,-238.66 256.17,-238.06"/>
<g id="a_edge4&#45;headlabel"><a xlink:title="open&#45;host&#45;service">
<text xml:space="preserve" text-anchor="middle" x="251.71" y="-223.89" font-family="sans-serif" font-size="10.00">OHS</text>
</a>
</g>
<g id="a_edge4&#45;taillabel"><a xlink:title="anti&#45;corruption&#45;layer">
<text xml:space="preserve" text-anchor="middle" x="251.79" y="-297.26" font-family="sans-serif" font-size="10.00">ACL</text>
</a>
</g>
</g>
<!-- #/domains/customer_experience/subdomains/promotions/boundedcontexts/marketing -->
<g id="node6" class="node">
<title>#/domains/customer_experience/subdomains/promotions/boundedcontexts/marketing</title>
<g id="a_node6"><a xlink:title="Marketing.API">
<polygon fill="white" stroke="black" points="571.32,-156.1 574.84,-156.3 578.33,-156.59 581.76,-156.98 585.13,-157.47 588.42,-158.05 591.63,-158.73 594.72,-159.5 597.71,-160.35 600.56,-161.29 603.28,-162.32 605.85,-163.43 608.27,-164.62 610.53,-165.88 612.62,-167.21 614.53,-168.61 616.26,-170.08 617.81,-171.6 619.17,-173.18 620.35,-174.82 621.34,-176.5 622.14,-178.22 622.75,-179.98 623.18,-181.77 623.42,-183.59 623.49,-185.44 623.38,-187.3 623.1,-189.17 622.66,-191.06 622.06,-192.94 621.31,-194.83 620.41,-196.7 619.38,-198.56 618.22,-200.41 616.94,-202.23 615.54,-204.02 614.03,-205.78 612.43,-207.5 610.74,-209.18 608.96,-210.82 607.11,-212.4 605.19,-213.92 603.21,-215.39 601.17,-216.79 599.09,-218.12 596.96,-219.38 594.79,-220.57 592.58,-221.68 590.35,-222.71 588.1,-223.65 585.82,-224.5 583.52,-225.27 581.21,-225.95 578.89,-226.53 576.56,-227.02 574.22,-227.41 571.88,-227.7 569.53,-227.9 567.18,-228 564.82,-228 562.47,-227.9 560.12,-227.7 557.78,-227.41 555.44,-227.02 553.11,-226.53 550.79,-225.95 548.48,-225.27 546.18,-224.5 543.9,-223.65 541.65,-222.71 539.42,-221.68 537.21,-220.57 535.04,-219.38 532.91,-218.12 530.83,-216.79 528.79,-215.39 526.81,-213.92 524.89,-212.4 523.04,-210.82 521.26,-209.18 519.57,-207.5 517.97,-205.78 516.46,-204.02 515.06,-202.23 513.78,-200.41 512.62,-198.56 511.59,-196.7 510.69,-194.83 509.94,-192.94 509.34,-191.06 508.9,-189.17 508.62,-187.3 508.51,-185.44 508.58,-183.59 508.82,-181.77 509.25,-179.98 509.86,-178.22 510.66,-176.5 511.65,-174.82 512.83,-173.18 514.19,-171.6 515.74,-170.08 517.47,-168.61 519.38,-167.21 521.47,-165.88 523.73,-164.62 526.15,-163.43 528.72,-162.32 531.44,-161.29 534.29,-160.35 537.28,-159.5 540.37,-158.73 543.58,-158.05 546.87,-157.47 550.24,-156.98 553.67,-156.59 557.16,-156.3 560.68,-156.1 564.22,-156 567.78,-156 571.32,-156.1"/>
<text xml:space="preserve" text-anchor="middle" x="566" y="-187.8" font-family="sans-serif" font-size="14.00">Marketing</text>
</a>
</g>
</g>
<!-- #/domains/commerce/subdomains/sales/boundedcontexts/ordering&#45;&gt;#/domains/customer_experience/subdomains/promotions/boundedcontexts/marketing -->
<g id="edge8" class="edge">
<title>#/domains/commerce/subdomains/sales/boundedcontexts/ordering&#45;&gt;#/domains/customer_experience/subdomains/promotions/boundedcontexts/marketing</title>
<path fill="none" stroke="black" d="M297.22,-333.96C350.55,-330.64 430.57,-319.47 490,-284 510.32,-271.87 527.72,-252.29 540.72,-234.39"/>
<polygon fill="black" stroke="black" points="543.39,-236.67 546.24,-226.47 537.65,-232.67 543.39,-236.67"/>
<g id="a_edge8&#45;headlabel"><a xlink:title="open&#45;host&#45;service">
<text xml:space="preserve" text-anchor="middle" x="547.11" y="-222.23" font-family="sans-serif" font-size="10.00">OHS</text>
</a>
</g>
<g id="a_edge8&#45;taillabel"><a xlink:title="anti&#45;corruption&#45;layer">
<text xml:space="preserve" text-anchor="middle" x="297.22" y="-330.96" font-family="sans-serif" font-size="10.00">ACL</text>
</a>
</g>
</g>
<!-- #/domains/customer_experience/subdomains/geodata/boundedcontexts/locations -->
<g id="node7" class="node">
<title>#/domains/customer_experience/subdomains/geodata/boundedcontexts/locations</title>
<g id="a_node7"><a xlink:title="Locations.API">
<polygon fill="white" stroke="black" points="722.32,-156.1 725.84,-156.3 729.33,-156.59 732.76,-156.98 736.13,-157.47 739.42,-158.05 742.63,-158.73 745.72,-159.5 748.71,-160.35 751.56,-161.29 754.28,-162.32 756.85,-163.43 759.27,-164.62 761.53,-165.88 763.62,-167.21 765.53,-168.61 767.26,-170.08 768.81,-171.6 770.17,-173.18 771.35,-174.82 772.34,-176.5 773.14,-178.22 773.75,-179.98 774.18,-181.77 774.42,-183.59 774.49,-185.44 774.38,-187.3 774.1,-189.17 773.66,-191.06 773.06,-192.94 772.31,-194.83 771.41,-196.7 770.38,-198.56 769.22,-200.41 767.94,-202.23 766.54,-204.02 765.03,-205.78 763.43,-207.5 761.74,-209.18 759.96,-210.82 758.11,-212.4 756.19,-213.92 754.21,-215.39 752.17,-216.79 750.09,-218.12 747.96,-219.38 745.79,-220.57 743.58,-221.68 741.35,-222.71 739.1,-223.65 736.82,-224.5 734.52,-225.27 732.21,-225.95 729.89,-226.53 727.56,-227.02 725.22,-227.41 722.88,-227.7 720.53,-227.9 718.18,-228 715.82,-228 713.47,-227.9 711.12,-227.7 708.78,-227.41 706.44,-227.02 704.11,-226.53 701.79,-225.95 699.48,-225.27 697.18,-224.5 694.9,-223.65 692.65,-222.71 690.42,-221.68 688.21,-220.57 686.04,-219.38 683.91,-218.12 681.83,-216.79 679.79,-215.39 677.81,-213.92 675.89,-212.4 674.04,-210.82 672.26,-209.18 670.57,-207.5 668.97,-205.78 667.46,-204.02 666.06,-202.23 664.78,-200.41 663.62,-198.56 662.59,-196.7 661.69,-194.83 660.94,-192.94 660.34,-191.06 659.9,-189.17 659.62,-187.3 659.51,-185.44 659.58,-183.59 659.82,-181.77 660.25,-179.98 660.86,-178.22 661.66,-176.5 662.65,-174.82 663.83,-173.18 665.19,-171.6 666.74,-170.08 668.47,-168.61 670.38,-167.21 672.47,-165.88 674.73,-164.62 677.15,-163.43 679.72,-162.32 682.44,-161.29 685.29,-160.35 688.28,-159.5 691.37,-158.73 694.58,-158.05 697.87,-157.47 701.24,-156.98 704.67,-156.59 708.16,-156.3 711.68,-156.1 715.22,-156 718.78,-156 722.32,-156.1"/>
<text xml:space="preserve" text-anchor="middle" x="717" y="-187.8" font-family="sans-serif" font-size="14.00">Locations</text>
</a>
</g>
</g>
<!-- #/domains/commerce/subdomains/sales/boundedcontexts/ordering&#45;&gt;#/domains/customer_experience/subdomains/geodata/boundedcontexts/locations -->
<g id="edge9" class="edge">
<title>#/domains/commerce/subdomains/sales/boundedcontexts/ordering&#45;&gt;#/domains/customer_experience/subdomains/geodata/boundedcontexts/locations</title>
<path fill="none" stroke="black" d="M297.44,-332.77C393.56,-328.19 582.18,-315.41 640,-284 661.06,-272.56 678.82,-252.84 691.96,-234.69"/>
<polygon fill="black" stroke="black" points="694.73,-236.84 697.55,-226.63 688.97,-232.86 694.73,-236.84"/>
<g id="a_edge9&#45;headlabel"><a xlink:title="open&#45;host&#45;service">
<text xml:space="preserve" text-anchor="middle" x="698.41" y="-222.38" font-family="sans-serif" font-size="10.00">OHS</text>
</a>
</g>
<g id="a_edge9&#45;taillabel"><a xlink:title="anti&#45;corruption&#45;layer">
<text xml:space="preserve" text-anchor="middle" x="297.44" y="-329.77" font-family="sans-serif" font-size="10.00">ACL</text>
</a>
</g>
</g>
<!-- #/domains/identity&amp;access/subdomains/auth/boundedcontexts/identity -->
<g id="node8" class="node">
<title>#/domains/identity&amp;access/subdomains/auth/boundedcontexts/identity</title>
<g id="a_node8"><a xlink:title="Identity.API">
<polygon fill="white" stroke="black" points="876.32,-156.1 879.84,-156.3 883.33,-156.59 886.76,-156.98 890.13,-157.47 893.42,-158.05 896.63,-158.73 899.72,-159.5 902.71,-160.35 905.56,-161.29 908.28,-162.32 910.85,-163.43 913.27,-164.62 915.53,-165.88 917.62,-167.21 919.53,-168.61 921.26,-170.08 922.81,-171.6 924.17,-173.18 925.35,-174.82 926.34,-176.5 927.14,-178.22 927.75,-179.98 928.18,-181.77 928.42,-183.59 928.49,-185.44 928.38,-187.3 928.1,-189.17 927.66,-191.06 927.06,-192.94 926.31,-194.83 925.41,-196.7 924.38,-198.56 923.22,-200.41 921.94,-202.23 920.54,-204.02 919.03,-205.78 917.43,-207.5 915.74,-209.18 913.96,-210.82 912.11,-212.4 910.19,-213.92 908.21,-215.39 906.17,-216.79 904.09,-218.12 901.96,-219.38 899.79,-220.57 897.58,-221.68 895.35,-222.71 893.1,-223.65 890.82,-224.5 888.52,-225.27 886.21,-225.95 883.89,-226.53 881.56,-227.02 879.22,-227.41 876.88,-227.7 874.53,-227.9 872.18,-228 869.82,-228 867.47,-227.9 865.12,-227.7 862.78,-227.41 860.44,-227.02 858.11,-226.53 855.79,-225.95 853.48,-225.27 851.18,-224.5 848.9,-223.65 846.65,-222.71 844.42,-221.68 842.21,-220.57 840.04,-219.38 837.91,-218.12 835.83,-216.79 833.79,-215.39 831.81,-213.92 829.89,-212.4 828.04,-210.82 826.26,-209.18 824.57,-207.5 822.97,-205.78 821.46,-204.02 820.06,-202.23 818.78,-200.41 817.62,-198.56 816.59,-196.7 815.69,-194.83 814.94,-192.94 814.34,-191.06 813.9,-189.17 813.62,-187.3 813.51,-185.44 813.58,-183.59 813.82,-181.77 814.25,-179.98 814.86,-178.22 815.66,-176.5 816.65,-174.82 817.83,-173.18 819.19,-171.6 820.74,-170.08 822.47,-168.61 824.38,-167.21 826.47,-165.88 828.73,-164.62 831.15,-163.43 833.72,-162.32 836.44,-161.29 839.29,-160.35 842.28,-159.5 845.37,-158.73 848.58,-158.05 851.87,-157.47 855.24,-156.98 858.67,-156.59 862.16,-156.3 865.68,-156.1 869.22,-156 872.78,-156 876.32,-156.1"/>
<text xml:space="preserve" text-anchor="middle" x="871" y="-187.8" font-family="sans-serif" font-size="14.00">Identity</text>
</a>
</g>
</g>
<!-- #/domains/commerce/subdomains/sales/boundedcontexts/ordering&#45;&gt;#/domains/identity&amp;access/subdomains/auth/boundedcontexts/identity -->
<g id="edge7" class="edge">
<title>#/domains/commerce/subdomains/sales/boundedcontexts/ordering&#45;&gt;#/domains/identity&amp;access/subdomains/auth/boundedcontexts/identity</title>
<path fill="none" stroke="black" d="M297.12,-334.99C420.12,-334.13 705.82,-327.37 791,-284 812.97,-272.81 831.59,-252.8 845.32,-234.38"/>
<polygon fill="black" stroke="black" points="848.01,-236.64 850.98,-226.46 842.32,-232.57 848.01,-236.64"/>
<g id="a_edge7&#45;headlabel"><a xlink:title="open&#45;host&#45;service">
<text xml:space="preserve" text-anchor="middle" x="851.86" y="-222.23" font-family="sans-serif" font-size="10.00">OHS</text>
</a>
</g>
<g id="a_edge7&#45;taillabel"><a xlink:title="anti&#45;corruption&#45;layer">
<text xml:space="preserve" text-anchor="middle" x="297.12" y="-331.99" font-family="sans-serif" font-size="10.00">ACL</text>
</a>
</g>
</g>
<!-- #/domains/commerce/subdomains/payments/boundedcontexts/payment&#45;&gt;#/domains/commerce/subdomains/sales/boundedcontexts/ordering -->
<g id="edge3" class="edge">
<title>#/domains/commerce/subdomains/payments/boundedcontexts/payment&#45;&gt;#/domains/commerce/subdomains/sales/boundedcontexts/ordering</title>
<path fill="none" stroke="black" d="M82.72,-227.76C92.92,-245.59 111.29,-267.05 130,-284 142.64,-295.45 157.98,-306.42 174.21,-315.23"/>
<polygon fill="black" stroke="black" points="172.56,-318.32 183.06,-319.74 175.74,-312.09 172.56,-318.32"/>
<g id="a_edge3&#45;headlabel"><a xlink:title="published&#45;language">
<text xml:space="preserve" text-anchor="middle" x="184.41" y="-317.43" font-family="sans-serif" font-size="10.00">PL</text>
</a>
</g>
<g id="a_edge3&#45;taillabel"><a xlink:title="conformist">
<text xml:space="preserve" text-anchor="middle" x="82.72" y="-224.76" font-family="sans-serif" font-size="10.00">C</text>
</a>
</g>
</g>
<!-- #/domains/commerce/subdomains/shopping/boundedcontexts/basket&#45;&gt;#/domains/commerce/subdomains/sales/boundedcontexts/ordering -->
<g id="edge6" class="edge">
<title>#/domains/commerce/subdomains/shopping/boundedcontexts/basket&#45;&gt;#/domains/commerce/subdomains/sales/boundedcontexts/ordering</title>
<path fill="none" stroke="black" d="M228.29,-226.89C226.32,-245.42 225.97,-268.64 227.26,-288.8"/>
<polygon fill="black" stroke="black" points="223.77,-289.08 228.08,-298.75 230.75,-288.5 223.77,-289.08"/>
<g id="a_edge6&#45;headlabel"><a xlink:title="published&#45;language">
<text xml:space="preserve" text-anchor="middle" x="228.21" y="-297.26" font-family="sans-serif" font-size="10.00">PL</text>
</a>
</g>
<g id="a_edge6&#45;taillabel"><a xlink:title="conformist">
<text xml:space="preserve" text-anchor="middle" x="228.29" y="-223.89" font-family="sans-serif" font-size="10.00">C</text>
</a>
</g>
</g>
<!-- #/domains/commerce/subdomains/cataloging/boundedcontexts/catalog -->
<g id="node4" class="node">
<title>#/domains/commerce/subdomains/cataloging/boundedcontexts/catalog</title>
<g id="a_node4"><a xlink:title="Catalog.API">
<polygon fill="white" stroke="black" points="245.32,-32.1 248.84,-32.3 252.33,-32.59 255.76,-32.98 259.13,-33.47 262.42,-34.05 265.63,-34.73 268.72,-35.5 271.71,-36.35 274.56,-37.29 277.28,-38.32 279.85,-39.43 282.27,-40.62 284.53,-41.88 286.62,-43.21 288.53,-44.61 290.26,-46.08 291.81,-47.6 293.17,-49.18 294.35,-50.82 295.34,-52.5 296.14,-54.22 296.75,-55.98 297.18,-57.77 297.42,-59.59 297.49,-61.44 297.38,-63.3 297.1,-65.17 296.66,-67.06 296.06,-68.94 295.31,-70.83 294.41,-72.7 293.38,-74.56 292.22,-76.41 290.94,-78.23 289.54,-80.02 288.03,-81.78 286.43,-83.5 284.74,-85.18 282.96,-86.82 281.11,-88.4 279.19,-89.92 277.21,-91.39 275.17,-92.79 273.09,-94.12 270.96,-95.38 268.79,-96.57 266.58,-97.68 264.35,-98.71 262.1,-99.65 259.82,-100.5 257.52,-101.27 255.21,-101.95 252.89,-102.53 250.56,-103.02 248.22,-103.41 245.88,-103.7 243.53,-103.9 241.18,-104 238.82,-104 236.47,-103.9 234.12,-103.7 231.78,-103.41 229.44,-103.02 227.11,-102.53 224.79,-101.95 222.48,-101.27 220.18,-100.5 217.9,-99.65 215.65,-98.71 213.42,-97.68 211.21,-96.57 209.04,-95.38 206.91,-94.12 204.83,-92.79 202.79,-91.39 200.81,-89.92 198.89,-88.4 197.04,-86.82 195.26,-85.18 193.57,-83.5 191.97,-81.78 190.46,-80.02 189.06,-78.23 187.78,-76.41 186.62,-74.56 185.59,-72.7 184.69,-70.83 183.94,-68.94 183.34,-67.06 182.9,-65.17 182.62,-63.3 182.51,-61.44 182.58,-59.59 182.82,-57.77 183.25,-55.98 183.86,-54.22 184.66,-52.5 185.65,-50.82 186.83,-49.18 188.19,-47.6 189.74,-46.08 191.47,-44.61 193.38,-43.21 195.47,-41.88 197.73,-40.62 200.15,-39.43 202.72,-38.32 205.44,-37.29 208.29,-36.35 211.28,-35.5 214.37,-34.73 217.58,-34.05 220.87,-33.47 224.24,-32.98 227.67,-32.59 231.16,-32.3 234.68,-32.1 238.22,-32 241.78,-32 245.32,-32.1"/>
<text xml:space="preserve" text-anchor="middle" x="240" y="-63.8" font-family="sans-serif" font-size="14.00">Catalog</text>
</a>
</g>
</g>
<!-- #/domains/commerce/subdomains/shopping/boundedcontexts/basket&#45;&gt;#/domains/commerce/subdomains/cataloging/boundedcontexts/catalog -->
<g id="edge5" class="edge">
<title>#/domains/commerce/subdomains/shopping/boundedcontexts/basket&#45;&gt;#/domains/commerce/subdomains/cataloging/boundedcontexts/catalog</title>
<path fill="none" stroke="black" d="M240,-156.04C240,-143.41 240,-128.94 240,-115.47"/>
<polygon fill="black" stroke="black" points="243.5,-115.48 240,-105.48 236.5,-115.48 243.5,-115.48"/>
<g id="a_edge5&#45;headlabel"><a xlink:title="published&#45;language">
<text xml:space="preserve" text-anchor="middle" x="240" y="-100.97" font-family="sans-serif" font-size="10.00">PL</text>
</a>
</g>
<g id="a_edge5&#45;taillabel"><a xlink:title="conformist">
<text xml:space="preserve" text-anchor="middle" x="240" y="-153.04" font-family="sans-serif" font-size="10.00">C</text>
</a>
</g>
</g>
<!-- #/domains/customer_experience/subdomains/realtime/boundedcontexts/ordering_signal_rhub -->
<g id="node5" class="node">
<title>#/domains/customer_experience/subdomains/realtime/boundedcontexts/ordering_signal_rhub</title>
<g id="a_node5"><a xlink:title="Ordering.SignalRHub">
<polygon fill="white" stroke="black" points="410.32,-156.1 413.84,-156.3 417.33,-156.59 420.76,-156.98 424.13,-157.47 427.42,-158.05 430.63,-158.73 433.72,-159.5 436.71,-160.35 439.56,-161.29 442.28,-162.32 444.85,-163.43 447.27,-164.62 449.53,-165.88 451.62,-167.21 453.53,-168.61 455.26,-170.08 456.81,-171.6 458.17,-173.18 459.35,-174.82 460.34,-176.5 461.14,-178.22 461.75,-179.98 462.18,-181.77 462.42,-183.59 462.49,-185.44 462.38,-187.3 462.1,-189.17 461.66,-191.06 461.06,-192.94 460.31,-194.83 459.41,-196.7 458.38,-198.56 457.22,-200.41 455.94,-202.23 454.54,-204.02 453.03,-205.78 451.43,-207.5 449.74,-209.18 447.96,-210.82 446.11,-212.4 444.19,-213.92 442.21,-215.39 440.17,-216.79 438.09,-218.12 435.96,-219.38 433.79,-220.57 431.58,-221.68 429.35,-222.71 427.1,-223.65 424.82,-224.5 422.52,-225.27 420.21,-225.95 417.89,-226.53 415.56,-227.02 413.22,-227.41 410.88,-227.7 408.53,-227.9 406.18,-228 403.82,-228 401.47,-227.9 399.12,-227.7 396.78,-227.41 394.44,-227.02 392.11,-226.53 389.79,-225.95 387.48,-225.27 385.18,-224.5 382.9,-223.65 380.65,-222.71 378.42,-221.68 376.21,-220.57 374.04,-219.38 371.91,-218.12 369.83,-216.79 367.79,-215.39 365.81,-213.92 363.89,-212.4 362.04,-210.82 360.26,-209.18 358.57,-207.5 356.97,-205.78 355.46,-204.02 354.06,-202.23 352.78,-200.41 351.62,-198.56 350.59,-196.7 349.69,-194.83 348.94,-192.94 348.34,-191.06 347.9,-189.17 347.62,-187.3 347.51,-185.44 347.58,-183.59 347.82,-181.77 348.25,-179.98 348.86,-178.22 349.66,-176.5 350.65,-174.82 351.83,-173.18 353.19,-171.6 354.74,-170.08 356.47,-168.61 358.38,-167.21 360.47,-165.88 362.73,-164.62 365.15,-163.43 367.72,-162.32 370.44,-161.29 373.29,-160.35 376.28,-159.5 379.37,-158.73 382.58,-158.05 385.87,-157.47 389.24,-156.98 392.67,-156.59 396.16,-156.3 399.68,-156.1 403.22,-156 406.78,-156 410.32,-156.1"/>
<text xml:space="preserve" text-anchor="middle" x="405" y="-187.8" font-family="sans-serif" font-size="14.00">OrderingSignalRHub</text>
</a>
</g>
</g>
<!-- #/domains/customer_experience/subdomains/realtime/boundedcontexts/ordering_signal_rhub&#45;&gt;#/domains/commerce/subdomains/sales/boundedcontexts/ordering -->
<g id="edge1" class="edge">
<title>#/domains/customer_experience/subdomains/realtime/boundedcontexts/ordering_signal_rhub&#45;&gt;#/domains/commerce/subdomains/sales/boundedcontexts/ordering</title>
<path fill="none" stroke="black" d="M378.76,-221.83C361.22,-240.45 337.18,-264.7 314,-284 306.76,-290.03 298.82,-296.05 290.91,-301.73"/>
<polygon fill="black" stroke="black" points="289.09,-298.74 282.93,-307.36 293.12,-304.46 289.09,-298.74"/>
<g id="a_edge1&#45;headlabel"><a xlink:title="published&#45;language">
<text xml:space="preserve" text-anchor="middle" x="281.69" y="-305.23" font-family="sans-serif" font-size="10.00">PL</text>
</a>
</g>
<g id="a_edge1&#45;taillabel"><a xlink:title="conformist">
<text xml:space="preserve" text-anchor="middle" x="378.76" y="-218.83" font-family="sans-serif" font-size="10.00">C</text>
</a>
</g>
</g>
</g>
</svg>
