<?xml version="1.0" encoding="UTF-8" standalone="no"?>
<?xml-stylesheet href="data:text/css,.graph%20text%20%7B%0A%09font-family%3A%20sans-serif%3B%0A%09stroke%3A%20white%3B%0A%09paint-order%3A%20stroke%3B%0A%09stroke-width%3A%203%3B%0A%09stroke-linecap%3A%20square%3B%0A%7D%0A%0A.namespace%20polygon%20%7B%0A%09fill-opacity%3A%200.3%3B%0A%09stroke%3A%20none%3B%0A%7D%0A" type="text/css"?>
<!DOCTYPE svg PUBLIC "-//W3C//DTD SVG 1.1//EN"
 "http://www.w3.org/Graphics/SVG/1.1/DTD/svg11.dtd">
<!-- Generated by graphviz version 13.1.2 (0)
 -->
<!-- Pages: 1 -->
<svg width="337pt" height="240pt"
 viewBox="0.00 0.00 337.00 240.00" xmlns="http://www.w3.org/2000/svg" xmlns:xlink="http://www.w3.org/1999/xlink">
<g id="graph0" class="graph" transform="scale(1 1) rotate(0) translate(4 236)">
<polygon fill="white" stroke="none" points="-4,4 -4,-236 333.46,-236 333.46,4 -4,4"/>
<g id="clust1" class="cluster namespace">
<title>e_shop</title>
<polygon fill="lightgrey" stroke="lightgrey" points="8,-8 8,-224 321.46,-224 321.46,-8 8,-8"/>
<text xml:space="preserve" text-anchor="middle" x="164.73" y="-211" font-family="sans-serif" font-size="10.00">eShop</text>
</g>
<g id="clust2" class="cluster namespace">
<title>#/domains/commerce</title>
<polygon fill="lightgrey" stroke="lightgrey" points="16,-16 16,-196 313.46,-196 313.46,-16 16,-16"/>
<text xml:space="preserve" text-anchor="middle" x="164.73" y="-183" font-family="sans-serif" font-size="10.00">Commerce</text>
</g>
<g id="clust3" class="cluster namespace">
<title>#/domains/commerce/subdomains/basket</title>
<polygon fill="lightgrey" stroke="lightgrey" points="24,-24 24,-168 305.46,-168 305.46,-24 24,-24"/>
<text xml:space="preserve" text-anchor="middle" x="164.73" y="-155" font-family="sans-serif" font-size="10.00">Basket</text>
</g>
<g id="clust4" class="cluster namespace">
<title>#/domains/commerce/subdomains/basket/boundedcontexts/basket</title>
<polygon fill="lightgrey" stroke="lightgrey" points="32,-32 32,-140 297.46,-140 297.46,-32 32,-32"/>
<text xml:space="preserve" text-anchor="middle" x="164.73" y="-127" font-family="sans-serif" font-size="10.00">Basket</text>
</g>
<g id="clust5" class="cluster namespace">
<title>#/domains/commerce/subdomains/basket/boundedcontexts/basket/aggregates/basket</title>
<polygon fill="lightgrey" stroke="lightgrey" points="40,-40 40,-112 289.46,-112 289.46,-40 40,-40"/>
<text xml:space="preserve" text-anchor="middle" x="164.73" y="-99" font-family="sans-serif" font-size="10.00">Basket</text>
</g>
<!-- #/domains/commerce/subdomains/basket/boundedcontexts/basket/aggregates/basket/entities/basket -->
<g id="node1" class="node">
<title>#/domains/commerce/subdomains/basket/boundedcontexts/basket/aggregates/basket/entities/basket</title>
<g id="a_node1"><a xlink:title="ProductId, quantity, unit price snapshot.">
<polygon fill="white" stroke="black" points="102.1,-84 48,-84 48,-48 102.1,-48 102.1,-84"/>
<text xml:space="preserve" text-anchor="middle" x="75.05" y="-61.8" font-family="sans-serif" font-size="14.00">Basket</text>
</a>
</g>
</g>
<!-- #/domains/commerce/subdomains/basket/boundedcontexts/basket/aggregates/basket/valueobjects/basket_item -->
<g id="node2" class="node">
<title>#/domains/commerce/subdomains/basket/boundedcontexts/basket/aggregates/basket/valueobjects/basket_item</title>
<g id="a_node2"><a xlink:title="ProductId, quantity, unit price snapshot.">
<ellipse fill="white" stroke="black" stroke-dasharray="5,2" cx="226.44" cy="-66" rx="55.02" ry="18"/>
<text xml:space="preserve" text-anchor="middle" x="226.44" y="-61.8" font-family="sans-serif" font-size="14.00">BasketItem</text>
</a>
</g>
</g>
<!-- #/domains/commerce/subdomains/basket/boundedcontexts/basket/aggregates/basket/entities/basket&#45;&gt;#/domains/commerce/subdomains/basket/boundedcontexts/basket/aggregates/basket/valueobjects/basket_item -->
<g id="edge1" class="edge">
<title>#/domains/commerce/subdomains/basket/boundedcontexts/basket/aggregates/basket/entities/basket&#45;&gt;#/domains/commerce/subdomains/basket/boundedcontexts/basket/aggregates/basket/valueobjects/basket_item</title>
<path fill="none" stroke="black" stroke-dasharray="5,2" d="M102.42,-66C118.39,-66 139.52,-66 159.76,-66"/>
<polygon fill="black" stroke="black" points="159.68,-69.5 169.68,-66 159.68,-62.5 159.68,-69.5"/>
<text xml:space="preserve" text-anchor="middle" x="136.77" y="-69" font-family="Times,serif" font-size="10.00">contains</text>
</g>
</g>
</svg>
