<?xml version="1.0" encoding="UTF-8" standalone="no"?>
<?xml-stylesheet href="data:text/css,.graph%20text%20%7B%0A%09font-family%3A%20sans-serif%3B%0A%09stroke%3A%20white%3B%0A%09paint-order%3A%20stroke%3B%0A%09stroke-width%3A%203%3B%0A%09stroke-linecap%3A%20square%3B%0A%7D%0A%0A.namespace%20polygon%20%7B%0A%09fill-opacity%3A%200.2%3B%0A%09stroke%3A%20none%3B%0A%7D%0A" type="text/css"?>
<!DOCTYPE svg PUBLIC "-//W3C//DTD SVG 1.1//EN"
 "http://www.w3.org/Graphics/SVG/1.1/DTD/svg11.dtd">
<!-- Generated by graphviz version 13.1.2 (0)
 -->
<!-- Pages: 1 -->
<svg width="766pt" height="616pt"
 viewBox="0.00 0.00 766.00 616.00" xmlns="http://www.w3.org/2000/svg" xmlns:xlink="http://www.w3.org/1999/xlink">
<g id="graph0" class="graph" transform="scale(1 1) rotate(0) translate(4 612)">
<polygon fill="white" stroke="none" points="-4,4 -4,-612 762,-612 762,4 -4,4"/>
<g id="clust1" class="cluster namespace">
<title>e_shop</title>
<polygon fill="lightgrey" stroke="lightgrey" points="8,-8 8,-600 750,-600 750,-8 8,-8"/>
<text xml:space="preserve" text-anchor="middle" x="379" y="-587" font-family="sans-serif" font-size="10.00">eShop</text>
</g>
<g id="clust2" class="cluster namespace">
<title>#/domains/commerce</title>
<polygon fill="lightgrey" stroke="lightgrey" points="241,-28 241,-280 477,-280 477,-28 241,-28"/>
<text xml:space="preserve" text-anchor="middle" x="359" y="-267" font-family="sans-serif" font-size="10.00">Commerce</text>
</g>
<g id="clust3" class="cluster namespace">
<title>#/domains/commerce/subdomains/catalog</title>
<polygon fill="lightgrey" stroke="lightgrey" points="261,-48 261,-240 457,-240 457,-48 261,-48"/>
<text xml:space="preserve" text-anchor="middle" x="359" y="-227" font-family="sans-serif" font-size="10.00">Catalog</text>
</g>
<g id="clust4" class="cluster namespace">
<title>#/domains/commerce/subdomains/catalog/boundedcontexts/catalog</title>
<polygon fill="lightgrey" stroke="lightgrey" points="281,-68 281,-200 437,-200 437,-68 281,-68"/>
<text xml:space="preserve" text-anchor="middle" x="359" y="-187" font-family="sans-serif" font-size="10.00">Catalog</text>
</g>
<g id="clust5" class="cluster namespace">
<title>#/domains/edge_&amp;_experience</title>
<polygon fill="lightgrey" stroke="lightgrey" points="28,-308 28,-560 476,-560 476,-308 28,-308"/>
<text xml:space="preserve" text-anchor="middle" x="252" y="-547" font-family="sans-serif" font-size="10.00">Edge &amp; Experience</text>
</g>
<g id="clust6" class="cluster namespace">
<title>#/domains/edge_&amp;_experience/subdomains/web</title>
<polygon fill="lightgrey" stroke="lightgrey" points="48,-328 48,-520 242,-520 242,-328 48,-328"/>
<text xml:space="preserve" text-anchor="middle" x="145" y="-507" font-family="sans-serif" font-size="10.00">Web</text>
</g>
<g id="clust7" class="cluster namespace">
<title>#/domains/edge_&amp;_experience/subdomains/web/boundedcontexts/web</title>
<polygon fill="lightgrey" stroke="lightgrey" points="68,-348 68,-480 222,-480 222,-348 68,-348"/>
<text xml:space="preserve" text-anchor="middle" x="145" y="-467" font-family="sans-serif" font-size="10.00">Web</text>
</g>
<g id="clust8" class="cluster namespace">
<title>#/domains/edge_&amp;_experience/subdomains/mobile</title>
<polygon fill="lightgrey" stroke="lightgrey" points="262,-328 262,-520 456,-520 456,-328 262,-328"/>
<text xml:space="preserve" text-anchor="middle" x="359" y="-507" font-family="sans-serif" font-size="10.00">Mobile</text>
</g>
<g id="clust9" class="cluster namespace">
<title>#/domains/edge_&amp;_experience/subdomains/mobile/boundedcontexts/mobile_bff</title>
<polygon fill="lightgrey" stroke="lightgrey" points="282,-348 282,-480 436,-480 436,-348 282,-348"/>
<text xml:space="preserve" text-anchor="middle" x="359" y="-467" font-family="sans-serif" font-size="10.00">Mobile BFF</text>
</g>
<g id="clust10" class="cluster namespace">
<title>#/domains/operations</title>
<polygon fill="lightgrey" stroke="lightgrey" points="496,-308 496,-560 730,-560 730,-308 496,-308"/>
<text xml:space="preserve" text-anchor="middle" x="613" y="-547" font-family="sans-serif" font-size="10.00">Operations</text>
</g>
<g id="clust11" class="cluster namespace">
<title>#/domains/operations/subdomains/backoffice</title>
<polygon fill="lightgrey" stroke="lightgrey" points="516,-328 516,-520 710,-520 710,-328 516,-328"/>
<text xml:space="preserve" text-anchor="middle" x="613" y="-507" font-family="sans-serif" font-size="10.00">Backoffice</text>
</g>
<g id="clust12" class="cluster namespace">
<title>#/domains/operations/subdomains/backoffice/boundedcontexts/backoffice_app</title>
<polygon fill="lightgrey" stroke="lightgrey" points="536,-348 536,-480 690,-480 690,-348 536,-348"/>
<text xml:space="preserve" text-anchor="middle" x="613" y="-467" font-family="sans-serif" font-size="10.00">BackofficeApp</text>
</g>
<!-- #/domains/commerce/subdomains/catalog/boundedcontexts/catalog/services/catalog_service -->
<g id="node1" class="node">
<title>#/domains/commerce/subdomains/catalog/boundedcontexts/catalog/services/catalog_service</title>
<g id="a_node1"><a xlink:title="Catalog application service (HTTP).">
<polygon fill="white" stroke="black" points="364.33,-88.1 367.86,-88.3 371.35,-88.59 374.79,-88.98 378.16,-89.47 381.46,-90.05 384.67,-90.73 387.77,-91.5 390.76,-92.35 393.62,-93.29 396.34,-94.32 398.92,-95.43 401.34,-96.62 403.6,-97.88 405.69,-99.21 407.61,-100.61 409.35,-102.08 410.9,-103.6 412.26,-105.18 413.44,-106.82 414.43,-108.5 415.23,-110.22 415.84,-111.98 416.27,-113.77 416.52,-115.59 416.58,-117.44 416.47,-119.3 416.19,-121.17 415.75,-123.06 415.15,-124.94 414.4,-126.83 413.5,-128.7 412.47,-130.56 411.31,-132.41 410.02,-134.23 408.62,-136.02 407.11,-137.78 405.51,-139.5 403.81,-141.18 402.04,-142.82 400.18,-144.4 398.26,-145.92 396.27,-147.39 394.23,-148.79 392.14,-150.12 390.01,-151.38 387.83,-152.57 385.63,-153.68 383.39,-154.71 381.13,-155.65 378.85,-156.5 376.55,-157.27 374.24,-157.95 371.91,-158.53 369.58,-159.02 367.23,-159.41 364.89,-159.7 362.53,-159.9 360.18,-160 357.82,-160 355.47,-159.9 353.11,-159.7 350.77,-159.41 348.42,-159.02 346.09,-158.53 343.76,-157.95 341.45,-157.27 339.15,-156.5 336.87,-155.65 334.61,-154.71 332.37,-153.68 330.17,-152.57 327.99,-151.38 325.86,-150.12 323.77,-148.79 321.73,-147.39 319.74,-145.92 317.82,-144.4 315.96,-142.82 314.19,-141.18 312.49,-139.5 310.89,-137.78 309.38,-136.02 307.98,-134.23 306.69,-132.41 305.53,-130.56 304.5,-128.7 303.6,-126.83 302.85,-124.94 302.25,-123.06 301.81,-121.17 301.53,-119.3 301.42,-117.44 301.48,-115.59 301.73,-113.77 302.16,-111.98 302.77,-110.22 303.57,-108.5 304.56,-106.82 305.74,-105.18 307.1,-103.6 308.65,-102.08 310.39,-100.61 312.31,-99.21 314.4,-97.88 316.66,-96.62 319.08,-95.43 321.66,-94.32 324.38,-93.29 327.24,-92.35 330.23,-91.5 333.33,-90.73 336.54,-90.05 339.84,-89.47 343.21,-88.98 346.65,-88.59 350.14,-88.3 353.67,-88.1 357.22,-88 360.78,-88 364.33,-88.1"/>
<text xml:space="preserve" text-anchor="middle" x="359" y="-119.8" font-family="sans-serif" font-size="14.00">CatalogService</text>
</a>
</g>
</g>
<!-- #/domains/edge_&amp;_experience/subdomains/web/boundedcontexts/web/services/web_app -->
<g id="node2" class="node">
<title>#/domains/edge_&amp;_experience/subdomains/web/boundedcontexts/web/services/web_app</title>
<g id="a_node2"><a xlink:title="Blazor Server web app for customers.">
<polygon fill="white" stroke="black" points="150.32,-368.1 153.84,-368.3 157.33,-368.59 160.76,-368.98 164.13,-369.47 167.42,-370.05 170.63,-370.73 173.72,-371.5 176.71,-372.35 179.56,-373.29 182.28,-374.32 184.85,-375.43 187.27,-376.62 189.53,-377.88 191.62,-379.21 193.53,-380.61 195.26,-382.08 196.81,-383.6 198.17,-385.18 199.35,-386.82 200.34,-388.5 201.14,-390.22 201.75,-391.98 202.18,-393.77 202.42,-395.59 202.49,-397.44 202.38,-399.3 202.1,-401.17 201.66,-403.06 201.06,-404.94 200.31,-406.83 199.41,-408.7 198.38,-410.56 197.22,-412.41 195.94,-414.23 194.54,-416.02 193.03,-417.78 191.43,-419.5 189.74,-421.18 187.96,-422.82 186.11,-424.4 184.19,-425.92 182.21,-427.39 180.17,-428.79 178.09,-430.12 175.96,-431.38 173.79,-432.57 171.58,-433.68 169.35,-434.71 167.1,-435.65 164.82,-436.5 162.52,-437.27 160.21,-437.95 157.89,-438.53 155.56,-439.02 153.22,-439.41 150.88,-439.7 148.53,-439.9 146.18,-440 143.82,-440 141.47,-439.9 139.12,-439.7 136.78,-439.41 134.44,-439.02 132.11,-438.53 129.79,-437.95 127.48,-437.27 125.18,-436.5 122.9,-435.65 120.65,-434.71 118.42,-433.68 116.21,-432.57 114.04,-431.38 111.91,-430.12 109.83,-428.79 107.79,-427.39 105.81,-425.92 103.89,-424.4 102.04,-422.82 100.26,-421.18 98.57,-419.5 96.97,-417.78 95.46,-416.02 94.06,-414.23 92.78,-412.41 91.62,-410.56 90.59,-408.7 89.69,-406.83 88.94,-404.94 88.34,-403.06 87.9,-401.17 87.62,-399.3 87.51,-397.44 87.58,-395.59 87.82,-393.77 88.25,-391.98 88.86,-390.22 89.66,-388.5 90.65,-386.82 91.83,-385.18 93.19,-383.6 94.74,-382.08 96.47,-380.61 98.38,-379.21 100.47,-377.88 102.73,-376.62 105.15,-375.43 107.72,-374.32 110.44,-373.29 113.29,-372.35 116.28,-371.5 119.37,-370.73 122.58,-370.05 125.87,-369.47 129.24,-368.98 132.67,-368.59 136.16,-368.3 139.68,-368.1 143.22,-368 146.78,-368 150.32,-368.1"/>
<text xml:space="preserve" text-anchor="middle" x="145" y="-399.8" font-family="sans-serif" font-size="14.00">WebApp</text>
</a>
</g>
</g>
<!-- #/domains/edge_&amp;_experience/subdomains/web/boundedcontexts/web/services/web_app&#45;&gt;#/domains/commerce/subdomains/catalog/boundedcontexts/catalog/services/catalog_service -->
<g id="edge1" class="edge">
<title>#/domains/edge_&amp;_experience/subdomains/web/boundedcontexts/web/services/web_app&#45;&gt;#/domains/commerce/subdomains/catalog/boundedcontexts/catalog/services/catalog_service</title>
<path fill="none" stroke="black" d="M170.18,-370.29C209.74,-318.9 286.32,-219.42 328.79,-164.25"/>
<polygon fill="black" stroke="black" points="331.3,-166.72 334.63,-156.66 325.75,-162.45 331.3,-166.72"/>
<text xml:space="preserve" text-anchor="middle" x="266.71" y="-291" font-family="sans-serif" font-size="10.00">GetCatalogItems</text>
<g id="a_edge1&#45;headlabel"><a xlink:title="open&#45;host&#45;service">
<text xml:space="preserve" text-anchor="middle" x="335.55" y="-152.46" font-family="sans-serif" font-size="10.00">OHS</text>
</a>
</g>
<g id="a_edge1&#45;taillabel"><a xlink:title="anti&#45;corruption&#45;layer">
<text xml:space="preserve" text-anchor="middle" x="170.18" y="-367.29" font-family="sans-serif" font-size="10.00">ACL</text>
</a>
</g>
</g>
<!-- #/domains/edge_&amp;_experience/subdomains/mobile/boundedcontexts/mobile_bff/services/shopping_bff -->
<g id="node3" class="node">
<title>#/domains/edge_&amp;_experience/subdomains/mobile/boundedcontexts/mobile_bff/services/shopping_bff</title>
<g id="a_node3"><a xlink:title="BFF that aggregates catalog/basket/ordering.">
<polygon fill="white" stroke="black" points="364.32,-368.1 367.84,-368.3 371.33,-368.59 374.76,-368.98 378.13,-369.47 381.42,-370.05 384.63,-370.73 387.72,-371.5 390.71,-372.35 393.56,-373.29 396.28,-374.32 398.85,-375.43 401.27,-376.62 403.53,-377.88 405.62,-379.21 407.53,-380.61 409.26,-382.08 410.81,-383.6 412.17,-385.18 413.35,-386.82 414.34,-388.5 415.14,-390.22 415.75,-391.98 416.18,-393.77 416.42,-395.59 416.49,-397.44 416.38,-399.3 416.1,-401.17 415.66,-403.06 415.06,-404.94 414.31,-406.83 413.41,-408.7 412.38,-410.56 411.22,-412.41 409.94,-414.23 408.54,-416.02 407.03,-417.78 405.43,-419.5 403.74,-421.18 401.96,-422.82 400.11,-424.4 398.19,-425.92 396.21,-427.39 394.17,-428.79 392.09,-430.12 389.96,-431.38 387.79,-432.57 385.58,-433.68 383.35,-434.71 381.1,-435.65 378.82,-436.5 376.52,-437.27 374.21,-437.95 371.89,-438.53 369.56,-439.02 367.22,-439.41 364.88,-439.7 362.53,-439.9 360.18,-440 357.82,-440 355.47,-439.9 353.12,-439.7 350.78,-439.41 348.44,-439.02 346.11,-438.53 343.79,-437.95 341.48,-437.27 339.18,-436.5 336.9,-435.65 334.65,-434.71 332.42,-433.68 330.21,-432.57 328.04,-431.38 325.91,-430.12 323.83,-428.79 321.79,-427.39 319.81,-425.92 317.89,-424.4 316.04,-422.82 314.26,-421.18 312.57,-419.5 310.97,-417.78 309.46,-416.02 308.06,-414.23 306.78,-412.41 305.62,-410.56 304.59,-408.7 303.69,-406.83 302.94,-404.94 302.34,-403.06 301.9,-401.17 301.62,-399.3 301.51,-397.44 301.58,-395.59 301.82,-393.77 302.25,-391.98 302.86,-390.22 303.66,-388.5 304.65,-386.82 305.83,-385.18 307.19,-383.6 308.74,-382.08 310.47,-380.61 312.38,-379.21 314.47,-377.88 316.73,-376.62 319.15,-375.43 321.72,-374.32 324.44,-373.29 327.29,-372.35 330.28,-371.5 333.37,-370.73 336.58,-370.05 339.87,-369.47 343.24,-368.98 346.67,-368.59 350.16,-368.3 353.68,-368.1 357.22,-368 360.78,-368 364.32,-368.1"/>
<text xml:space="preserve" text-anchor="middle" x="359" y="-399.8" font-family="sans-serif" font-size="14.00">ShoppingBff</text>
</a>
</g>
</g>
<!-- #/domains/edge_&amp;_experience/subdomains/mobile/boundedcontexts/mobile_bff/services/shopping_bff&#45;&gt;#/domains/commerce/subdomains/catalog/boundedcontexts/catalog/services/catalog_service -->
<g id="edge2" class="edge">
<title>#/domains/edge_&amp;_experience/subdomains/mobile/boundedcontexts/mobile_bff/services/shopping_bff&#45;&gt;#/domains/commerce/subdomains/catalog/boundedcontexts/catalog/services/catalog_service</title>
<path fill="none" stroke="black" d="M359,-367.51C359,-317.63 359,-226.72 359,-171.5"/>
<polygon fill="black" stroke="black" points="362.5,-171.79 359,-161.79 355.5,-171.79 362.5,-171.79"/>
<text xml:space="preserve" text-anchor="middle" x="392.88" y="-291" font-family="sans-serif" font-size="10.00">GetCatalogItems</text>
<g id="a_edge2&#45;headlabel"><a xlink:title="open&#45;host&#45;service">
<text xml:space="preserve" text-anchor="middle" x="359" y="-157.28" font-family="sans-serif" font-size="10.00">OHS</text>
</a>
</g>
<g id="a_edge2&#45;taillabel"><a xlink:title="anti&#45;corruption&#45;layer">
<text xml:space="preserve" text-anchor="middle" x="359" y="-364.51" font-family="sans-serif" font-size="10.00">ACL</text>
</a>
</g>
</g>
<!-- #/domains/operations/subdomains/backoffice/boundedcontexts/backoffice_app/services/backoffice -->
<g id="node4" class="node">
<title>#/domains/operations/subdomains/backoffice/boundedcontexts/backoffice_app/services/backoffice</title>
<g id="a_node4"><a xlink:title="Admin/demo app for price updates.">
<polygon fill="white" stroke="black" points="618.32,-368.1 621.84,-368.3 625.33,-368.59 628.76,-368.98 632.13,-369.47 635.42,-370.05 638.63,-370.73 641.72,-371.5 644.71,-372.35 647.56,-373.29 650.28,-374.32 652.85,-375.43 655.27,-376.62 657.53,-377.88 659.62,-379.21 661.53,-380.61 663.26,-382.08 664.81,-383.6 666.17,-385.18 667.35,-386.82 668.34,-388.5 669.14,-390.22 669.75,-391.98 670.18,-393.77 670.42,-395.59 670.49,-397.44 670.38,-399.3 670.1,-401.17 669.66,-403.06 669.06,-404.94 668.31,-406.83 667.41,-408.7 666.38,-410.56 665.22,-412.41 663.94,-414.23 662.54,-416.02 661.03,-417.78 659.43,-419.5 657.74,-421.18 655.96,-422.82 654.11,-424.4 652.19,-425.92 650.21,-427.39 648.17,-428.79 646.09,-430.12 643.96,-431.38 641.79,-432.57 639.58,-433.68 637.35,-434.71 635.1,-435.65 632.82,-436.5 630.52,-437.27 628.21,-437.95 625.89,-438.53 623.56,-439.02 621.22,-439.41 618.88,-439.7 616.53,-439.9 614.18,-440 611.82,-440 609.47,-439.9 607.12,-439.7 604.78,-439.41 602.44,-439.02 600.11,-438.53 597.79,-437.95 595.48,-437.27 593.18,-436.5 590.9,-435.65 588.65,-434.71 586.42,-433.68 584.21,-432.57 582.04,-431.38 579.91,-430.12 577.83,-428.79 575.79,-427.39 573.81,-425.92 571.89,-424.4 570.04,-422.82 568.26,-421.18 566.57,-419.5 564.97,-417.78 563.46,-416.02 562.06,-414.23 560.78,-412.41 559.62,-410.56 558.59,-408.7 557.69,-406.83 556.94,-404.94 556.34,-403.06 555.9,-401.17 555.62,-399.3 555.51,-397.44 555.58,-395.59 555.82,-393.77 556.25,-391.98 556.86,-390.22 557.66,-388.5 558.65,-386.82 559.83,-385.18 561.19,-383.6 562.74,-382.08 564.47,-380.61 566.38,-379.21 568.47,-377.88 570.73,-376.62 573.15,-375.43 575.72,-374.32 578.44,-373.29 581.29,-372.35 584.28,-371.5 587.37,-370.73 590.58,-370.05 593.87,-369.47 597.24,-368.98 600.67,-368.59 604.16,-368.3 607.68,-368.1 611.22,-368 614.78,-368 618.32,-368.1"/>
<text xml:space="preserve" text-anchor="middle" x="613" y="-399.8" font-family="sans-serif" font-size="14.00">Backoffice</text>
</a>
</g>
</g>
<!-- #/domains/operations/subdomains/backoffice/boundedcontexts/backoffice_app/services/backoffice&#45;&gt;#/domains/commerce/subdomains/catalog/boundedcontexts/catalog/services/catalog_service -->
<g id="edge3" class="edge">
<title>#/domains/operations/subdomains/backoffice/boundedcontexts/backoffice_app/services/backoffice&#45;&gt;#/domains/commerce/subdomains/catalog/boundedcontexts/catalog/services/catalog_service</title>
<path fill="none" stroke="black" d="M583.86,-371.11C536.61,-319.4 443.51,-217.49 393.19,-162.43"/>
<polygon fill="black" stroke="black" points="395.85,-160.14 386.52,-155.12 390.68,-164.87 395.85,-160.14"/>
<text xml:space="preserve" text-anchor="middle" x="541.77" y="-291" font-family="sans-serif" font-size="10.00">ChangePrice</text>
<g id="a_edge3&#45;headlabel"><a xlink:title="open&#45;host&#45;service">
<text xml:space="preserve" text-anchor="middle" x="385.5" y="-151" font-family="sans-serif" font-size="10.00">OHS</text>
</a>
</g>
<g id="a_edge3&#45;taillabel"><a xlink:title="customer&#45;supplier">
<text xml:space="preserve" text-anchor="middle" x="583.86" y="-368.11" font-family="sans-serif" font-size="10.00">C/s</text>
</a>
</g>
</g>
</g>
</svg>
