<?xml version="1.0" encoding="UTF-8" standalone="no"?>
<?xml-stylesheet href="data:text/css,.graph%20text%20%7B%0A%09font-family%3A%20sans-serif%3B%0A%09stroke%3A%20white%3B%0A%09paint-order%3A%20stroke%3B%0A%09stroke-width%3A%203%3B%0A%09stroke-linecap%3A%20square%3B%0A%7D%0A%0A.namespace%20polygon%20%7B%0A%09fill-opacity%3A%200.2%3B%0A%09stroke%3A%20none%3B%0A%7D%0A" type="text/css"?>
<!DOCTYPE svg PUBLIC "-//W3C//DTD SVG 1.1//EN"
 "http://www.w3.org/Graphics/SVG/1.1/DTD/svg11.dtd">
<!-- Generated by graphviz version 13.1.2 (0)
 -->
<!-- Pages: 1 -->
<svg width="192pt" height="356pt"
 viewBox="0.00 0.00 192.00 356.00" xmlns="http://www.w3.org/2000/svg" xmlns:xlink="http://www.w3.org/1999/xlink">
<g id="graph0" class="graph" transform="scale(1 1) rotate(0) translate(4 352)">
<polygon fill="white" stroke="none" points="-4,4 -4,-352 188,-352 188,4 -4,4"/>
<g id="clust1" class="cluster namespace">
<title>e_shop</title>
<polygon fill="lightgrey" stroke="lightgrey" points="8,-8 8,-340 176,-340 176,-8 8,-8"/>
<text xml:space="preserve" text-anchor="middle" x="92" y="-327" font-family="sans-serif" font-size="10.00">eShop</text>
</g>
<g id="clust2" class="cluster namespace">
<title>#/domains/integration</title>
<polygon fill="lightgrey" stroke="lightgrey" points="16,-16 16,-160 168,-160 168,-16 16,-16"/>
<text xml:space="preserve" text-anchor="middle" x="92" y="-147" font-family="sans-serif" font-size="10.00">Integration</text>
</g>
<g id="clust3" class="cluster namespace">
<title>#/domains/integration/subdomains/processors</title>
<polygon fill="lightgrey" stroke="lightgrey" points="24,-24 24,-132 160,-132 160,-24 24,-24"/>
<text xml:space="preserve" text-anchor="middle" x="92" y="-119" font-family="sans-serif" font-size="10.00">Processors</text>
</g>
<g id="clust4" class="cluster namespace">
<title>#/domains/commerce</title>
<polygon fill="lightgrey" stroke="lightgrey" points="19,-168 19,-312 165,-312 165,-168 19,-168"/>
<text xml:space="preserve" text-anchor="middle" x="92" y="-299" font-family="sans-serif" font-size="10.00">Commerce</text>
</g>
<g id="clust5" class="cluster namespace">
<title>#/domains/commerce/subdomains/ordering</title>
<polygon fill="lightgrey" stroke="lightgrey" points="27,-176 27,-284 157,-284 157,-176 27,-176"/>
<text xml:space="preserve" text-anchor="middle" x="92" y="-271" font-family="sans-serif" font-size="10.00">Ordering</text>
</g>
<!-- #/domains/integration/subdomains/processors/boundedcontexts/payment_processor -->
<g id="node1" class="node">
<title>#/domains/integration/subdomains/processors/boundedcontexts/payment_processor</title>
<g id="a_node1"><a xlink:title="Simulated external payment provider. In a real system this would be a third&#45;party gateway. Here it processes requests and publishes results for Ordering to react to.">
<polygon fill="white" stroke="black" points="97.32,-32.1 100.84,-32.3 104.33,-32.59 107.76,-32.98 111.13,-33.47 114.42,-34.05 117.63,-34.73 120.72,-35.5 123.71,-36.35 126.56,-37.29 129.28,-38.32 131.85,-39.43 134.27,-40.62 136.53,-41.88 138.62,-43.21 140.53,-44.61 142.26,-46.08 143.81,-47.6 145.17,-49.18 146.35,-50.82 147.34,-52.5 148.14,-54.22 148.75,-55.98 149.18,-57.77 149.42,-59.59 149.49,-61.44 149.38,-63.3 149.1,-65.17 148.66,-67.06 148.06,-68.94 147.31,-70.83 146.41,-72.7 145.38,-74.56 144.22,-76.41 142.94,-78.23 141.54,-80.02 140.03,-81.78 138.43,-83.5 136.74,-85.18 134.96,-86.82 133.11,-88.4 131.19,-89.92 129.21,-91.39 127.17,-92.79 125.09,-94.12 122.96,-95.38 120.79,-96.57 118.58,-97.68 116.35,-98.71 114.1,-99.65 111.82,-100.5 109.52,-101.27 107.21,-101.95 104.89,-102.53 102.56,-103.02 100.22,-103.41 97.88,-103.7 95.53,-103.9 93.18,-104 90.82,-104 88.47,-103.9 86.12,-103.7 83.78,-103.41 81.44,-103.02 79.11,-102.53 76.79,-101.95 74.48,-101.27 72.18,-100.5 69.9,-99.65 67.65,-98.71 65.42,-97.68 63.21,-96.57 61.04,-95.38 58.91,-94.12 56.83,-92.79 54.79,-91.39 52.81,-89.92 50.89,-88.4 49.04,-86.82 47.26,-85.18 45.57,-83.5 43.97,-81.78 42.46,-80.02 41.06,-78.23 39.78,-76.41 38.62,-74.56 37.59,-72.7 36.69,-70.83 35.94,-68.94 35.34,-67.06 34.9,-65.17 34.62,-63.3 34.51,-61.44 34.58,-59.59 34.82,-57.77 35.25,-55.98 35.86,-54.22 36.66,-52.5 37.65,-50.82 38.83,-49.18 40.19,-47.6 41.74,-46.08 43.47,-44.61 45.38,-43.21 47.47,-41.88 49.73,-40.62 52.15,-39.43 54.72,-38.32 57.44,-37.29 60.29,-36.35 63.28,-35.5 66.37,-34.73 69.58,-34.05 72.87,-33.47 76.24,-32.98 79.67,-32.59 83.16,-32.3 86.68,-32.1 90.22,-32 93.78,-32 97.32,-32.1"/>
<text xml:space="preserve" text-anchor="middle" x="92" y="-63.8" font-family="sans-serif" font-size="14.00">PaymentProcessor</text>
</a>
</g>
</g>
<!-- #/domains/commerce/subdomains/ordering/boundedcontexts/ordering.api -->
<g id="node2" class="node">
<title>#/domains/commerce/subdomains/ordering/boundedcontexts/ordering.api</title>
<g id="a_node2"><a xlink:title="Owns the order lifecycle: creation from a validated basket, status transitions (Submitted → Paid), and emitting integration events that others react to.">
<polygon fill="white" stroke="black" points="97.32,-184.1 100.84,-184.3 104.33,-184.59 107.76,-184.98 111.13,-185.47 114.42,-186.05 117.63,-186.73 120.72,-187.5 123.71,-188.35 126.56,-189.29 129.28,-190.32 131.85,-191.43 134.27,-192.62 136.53,-193.88 138.62,-195.21 140.53,-196.61 142.26,-198.08 143.81,-199.6 145.17,-201.18 146.35,-202.82 147.34,-204.5 148.14,-206.22 148.75,-207.98 149.18,-209.77 149.42,-211.59 149.49,-213.44 149.38,-215.3 149.1,-217.17 148.66,-219.06 148.06,-220.94 147.31,-222.83 146.41,-224.7 145.38,-226.56 144.22,-228.41 142.94,-230.23 141.54,-232.02 140.03,-233.78 138.43,-235.5 136.74,-237.18 134.96,-238.82 133.11,-240.4 131.19,-241.92 129.21,-243.39 127.17,-244.79 125.09,-246.12 122.96,-247.38 120.79,-248.57 118.58,-249.68 116.35,-250.71 114.1,-251.65 111.82,-252.5 109.52,-253.27 107.21,-253.95 104.89,-254.53 102.56,-255.02 100.22,-255.41 97.88,-255.7 95.53,-255.9 93.18,-256 90.82,-256 88.47,-255.9 86.12,-255.7 83.78,-255.41 81.44,-255.02 79.11,-254.53 76.79,-253.95 74.48,-253.27 72.18,-252.5 69.9,-251.65 67.65,-250.71 65.42,-249.68 63.21,-248.57 61.04,-247.38 58.91,-246.12 56.83,-244.79 54.79,-243.39 52.81,-241.92 50.89,-240.4 49.04,-238.82 47.26,-237.18 45.57,-235.5 43.97,-233.78 42.46,-232.02 41.06,-230.23 39.78,-228.41 38.62,-226.56 37.59,-224.7 36.69,-222.83 35.94,-220.94 35.34,-219.06 34.9,-217.17 34.62,-215.3 34.51,-213.44 34.58,-211.59 34.82,-209.77 35.25,-207.98 35.86,-206.22 36.66,-204.5 37.65,-202.82 38.83,-201.18 40.19,-199.6 41.74,-198.08 43.47,-196.61 45.38,-195.21 47.47,-193.88 49.73,-192.62 52.15,-191.43 54.72,-190.32 57.44,-189.29 60.29,-188.35 63.28,-187.5 66.37,-186.73 69.58,-186.05 72.87,-185.47 76.24,-184.98 79.67,-184.59 83.16,-184.3 86.68,-184.1 90.22,-184 93.78,-184 97.32,-184.1"/>
<text xml:space="preserve" text-anchor="middle" x="92" y="-215.8" font-family="sans-serif" font-size="14.00">Ordering.API</text>
</a>
</g>
</g>
<!-- #/domains/commerce/subdomains/ordering/boundedcontexts/ordering.api&#45;&gt;#/domains/integration/subdomains/processors/boundedcontexts/payment_processor -->
<g id="edge1" class="edge">
<title>#/domains/commerce/subdomains/ordering/boundedcontexts/ordering.api&#45;&gt;#/domains/integration/subdomains/processors/boundedcontexts/payment_processor</title>
<path fill="none" stroke="black" d="M80.4,-184.21C78.22,-163.43 77.92,-136.79 79.48,-114.37"/>
<polygon fill="black" stroke="black" points="82.95,-114.86 80.34,-104.59 75.98,-114.25 82.95,-114.86"/>
<g id="a_edge1&#45;headlabel"><a xlink:title="open&#45;host&#45;service">
<text xml:space="preserve" text-anchor="middle" x="80.47" y="-100.08" font-family="sans-serif" font-size="10.00">OHS</text>
</a>
</g>
<g id="a_edge1&#45;taillabel"><a xlink:title="customer&#45;supplier">
<text xml:space="preserve" text-anchor="middle" x="80.4" y="-181.21" font-family="sans-serif" font-size="10.00">C/s</text>
</a>
</g>
</g>
<!-- #/domains/commerce/subdomains/ordering/boundedcontexts/ordering.api&#45;&gt;#/domains/integration/subdomains/processors/boundedcontexts/payment_processor -->
<g id="edge2" class="edge">
<title>#/domains/commerce/subdomains/ordering/boundedcontexts/ordering.api&#45;&gt;#/domains/integration/subdomains/processors/boundedcontexts/payment_processor</title>
<path fill="none" stroke="black" d="M103.6,-184.21C105.78,-163.43 106.08,-136.79 104.52,-114.37"/>
<polygon fill="black" stroke="black" points="108.02,-114.25 103.66,-104.59 101.05,-114.86 108.02,-114.25"/>
<g id="a_edge2&#45;headlabel"><a xlink:title="published&#45;language">
<text xml:space="preserve" text-anchor="middle" x="103.53" y="-100.08" font-family="sans-serif" font-size="10.00">PL</text>
</a>
</g>
<g id="a_edge2&#45;taillabel"><a xlink:title="conformist">
<text xml:space="preserve" text-anchor="middle" x="103.6" y="-181.21" font-family="sans-serif" font-size="10.00">C</text>
</a>
</g>
</g>
</g>
</svg>
