<?xml version="1.0" encoding="UTF-8" standalone="no"?>
<?xml-stylesheet href="data:text/css,.graph%20text%20%7B%0A%09font-family%3A%20sans-serif%3B%0A%09stroke%3A%20white%3B%0A%09paint-order%3A%20stroke%3B%0A%09stroke-width%3A%203%3B%0A%09stroke-linecap%3A%20square%3B%0A%7D%0A%0A.namespace%20polygon%20%7B%0A%09fill-opacity%3A%200.2%3B%0A%09stroke%3A%20none%3B%0A%7D%0A" type="text/css"?>
<!DOCTYPE svg PUBLIC "-//W3C//DTD SVG 1.1//EN"
 "http://www.w3.org/Graphics/SVG/1.1/DTD/svg11.dtd">
<!-- Generated by graphviz version 13.1.2 (0)
 -->
<!-- Pages: 1 -->
<svg width="714pt" height="544pt"
 viewBox="0.00 0.00 714.00 544.00" xmlns="http://www.w3.org/2000/svg" xmlns:xlink="http://www.w3.org/1999/xlink">
<g id="graph0" class="graph" transform="scale(1 1) rotate(0) translate(4 540)">
<polygon fill="white" stroke="none" points="-4,4 -4,-540 710,-540 710,4 -4,4"/>
<g id="clust1" class="cluster namespace">
<title>e_shop_on_containers</title>
<polygon fill="lightgrey" stroke="lightgrey" points="8,-8 8,-528 698,-528 698,-8 8,-8"/>
<text xml:space="preserve" text-anchor="middle" x="353" y="-515" font-family="sans-serif" font-size="10.00">eShopOnContainers</text>
</g>
<g id="clust2" class="cluster namespace">
<title>#/domains/customer_experience</title>
<polygon fill="lightgrey" stroke="lightgrey" points="187,-28 187,-244 477,-244 477,-28 187,-28"/>
<text xml:space="preserve" text-anchor="middle" x="332" y="-231" font-family="sans-serif" font-size="10.00">CustomerExperience</text>
</g>
<g id="clust3" class="cluster namespace">
<title>#/domains/customer_experience/subdomains/promotions</title>
<polygon fill="lightgrey" stroke="lightgrey" points="207,-48 207,-204 457,-204 457,-48 207,-48"/>
<text xml:space="preserve" text-anchor="middle" x="332" y="-191" font-family="sans-serif" font-size="10.00">Promotions</text>
</g>
<g id="clust4" class="cluster namespace">
<title>#/domains/customer_experience/subdomains/promotions/boundedcontexts/marketing</title>
<polygon fill="lightgrey" stroke="lightgrey" points="227,-68 227,-164 437,-164 437,-68 227,-68"/>
<text xml:space="preserve" text-anchor="middle" x="332" y="-151" font-family="sans-serif" font-size="10.00">Marketing</text>
</g>
<g id="clust5" class="cluster namespace">
<title>#/domains/integration</title>
<polygon fill="lightgrey" stroke="lightgrey" points="28,-272 28,-488 404,-488 404,-272 28,-272"/>
<text xml:space="preserve" text-anchor="middle" x="216" y="-475" font-family="sans-serif" font-size="10.00">Integration</text>
</g>
<g id="clust6" class="cluster namespace">
<title>#/domains/integration/subdomains/edge</title>
<polygon fill="lightgrey" stroke="lightgrey" points="48,-292 48,-448 384,-448 384,-292 48,-292"/>
<text xml:space="preserve" text-anchor="middle" x="216" y="-435" font-family="sans-serif" font-size="10.00">Edge</text>
</g>
<g id="clust7" class="cluster namespace">
<title>#/domains/integration/subdomains/edge/boundedcontexts/api_gateway</title>
<polygon fill="lightgrey" stroke="lightgrey" points="68,-312 68,-408 364,-408 364,-312 68,-312"/>
<text xml:space="preserve" text-anchor="middle" x="216" y="-395" font-family="sans-serif" font-size="10.00">ApiGateway</text>
</g>
<g id="clust8" class="cluster namespace">
<title>#/domains/commerce</title>
<polygon fill="lightgrey" stroke="lightgrey" points="424,-272 424,-488 678,-488 678,-272 424,-272"/>
<text xml:space="preserve" text-anchor="middle" x="551" y="-475" font-family="sans-serif" font-size="10.00">Commerce</text>
</g>
<g id="clust9" class="cluster namespace">
<title>#/domains/commerce/subdomains/sales</title>
<polygon fill="lightgrey" stroke="lightgrey" points="444,-292 444,-448 658,-448 658,-292 444,-292"/>
<text xml:space="preserve" text-anchor="middle" x="551" y="-435" font-family="sans-serif" font-size="10.00">Sales</text>
</g>
<g id="clust10" class="cluster namespace">
<title>#/domains/commerce/subdomains/sales/boundedcontexts/ordering</title>
<polygon fill="lightgrey" stroke="lightgrey" points="464,-312 464,-408 638,-408 638,-312 464,-312"/>
<text xml:space="preserve" text-anchor="middle" x="551" y="-395" font-family="sans-serif" font-size="10.00">Ordering</text>
</g>
<!-- #/domains/customer_experience/subdomains/promotions/boundedcontexts/marketing/services/marketing_service -->
<g id="node1" class="node">
<title>#/domains/customer_experience/subdomains/promotions/boundedcontexts/marketing/services/marketing_service</title>
<g id="a_node1"><a xlink:title="Apply campaigns/discounts">
<polygon fill="white" stroke="black" points="339.91,-88.05 345.14,-88.15 350.32,-88.3 355.42,-88.49 360.43,-88.74 365.32,-89.03 370.08,-89.36 374.69,-89.75 379.12,-90.18 383.36,-90.65 387.4,-91.16 391.23,-91.71 394.82,-92.31 398.17,-92.94 401.27,-93.61 404.12,-94.31 406.69,-95.04 408.99,-95.8 411.02,-96.59 412.77,-97.41 414.24,-98.25 415.42,-99.11 416.33,-99.99 416.97,-100.89 417.33,-101.8 417.43,-102.72 417.27,-103.65 416.85,-104.59 416.2,-105.53 415.31,-106.47 414.19,-107.41 412.86,-108.35 411.33,-109.28 409.6,-110.2 407.69,-111.11 405.62,-112.01 403.38,-112.89 401,-113.75 398.49,-114.59 395.85,-115.41 393.1,-116.2 390.24,-116.96 387.3,-117.69 384.27,-118.39 381.17,-119.06 378,-119.69 374.78,-120.29 371.5,-120.84 368.19,-121.35 364.84,-121.82 361.45,-122.25 358.04,-122.64 354.61,-122.97 351.16,-123.26 347.69,-123.51 344.22,-123.7 340.73,-123.85 337.24,-123.95 333.75,-124 330.25,-124 326.76,-123.95 323.27,-123.85 319.78,-123.7 316.31,-123.51 312.84,-123.26 309.39,-122.97 305.96,-122.64 302.55,-122.25 299.16,-121.82 295.81,-121.35 292.5,-120.84 289.22,-120.29 286,-119.69 282.83,-119.06 279.73,-118.39 276.7,-117.69 273.76,-116.96 270.9,-116.2 268.15,-115.41 265.51,-114.59 263,-113.75 260.62,-112.89 258.38,-112.01 256.31,-111.11 254.4,-110.2 252.67,-109.28 251.14,-108.35 249.81,-107.41 248.69,-106.47 247.8,-105.53 247.15,-104.59 246.73,-103.65 246.57,-102.72 246.67,-101.8 247.03,-100.89 247.67,-99.99 248.58,-99.11 249.76,-98.25 251.23,-97.41 252.98,-96.59 255.01,-95.8 257.31,-95.04 259.88,-94.31 262.73,-93.61 265.83,-92.94 269.18,-92.31 272.77,-91.71 276.6,-91.16 280.64,-90.65 284.88,-90.18 289.31,-89.75 293.92,-89.36 298.68,-89.03 303.57,-88.74 308.58,-88.49 313.68,-88.3 318.86,-88.15 324.09,-88.05 329.36,-88 334.64,-88 339.91,-88.05"/>
<text xml:space="preserve" text-anchor="middle" x="332" y="-101.8" font-family="sans-serif" font-size="14.00">MarketingService</text>
</a>
</g>
</g>
<!-- #/domains/integration/subdomains/edge/boundedcontexts/api_gateway/services/mobile_shopping_aggregator -->
<g id="node2" class="node">
<title>#/domains/integration/subdomains/edge/boundedcontexts/api_gateway/services/mobile_shopping_aggregator</title>
<g id="a_node2"><a xlink:title="Ocelot + Aggregators (Web &amp; Mobile Shopping)">
<polygon fill="white" stroke="black" points="227.82,-332.05 235.64,-332.15 243.39,-332.3 251.02,-332.49 258.51,-332.74 265.82,-333.03 272.93,-333.36 279.82,-333.75 286.44,-334.18 292.79,-334.65 298.83,-335.16 304.55,-335.71 309.92,-336.31 314.93,-336.94 319.57,-337.61 323.82,-338.31 327.67,-339.04 331.11,-339.8 334.14,-340.59 336.75,-341.41 338.95,-342.25 340.72,-343.11 342.08,-343.99 343.03,-344.89 343.57,-345.8 343.72,-346.72 343.48,-347.65 342.86,-348.59 341.88,-349.53 340.55,-350.47 338.88,-351.41 336.89,-352.35 334.6,-353.28 332.02,-354.2 329.16,-355.11 326.06,-356.01 322.72,-356.89 319.16,-357.75 315.4,-358.59 311.46,-359.41 307.34,-360.2 303.08,-360.96 298.67,-361.69 294.15,-362.39 289.51,-363.06 284.77,-363.69 279.95,-364.29 275.06,-364.84 270.1,-365.35 265.09,-365.82 260.03,-366.25 254.93,-366.64 249.8,-366.97 244.64,-367.26 239.46,-367.51 234.26,-367.7 229.05,-367.85 223.84,-367.95 218.61,-368 213.39,-368 208.16,-367.95 202.95,-367.85 197.74,-367.7 192.54,-367.51 187.36,-367.26 182.2,-366.97 177.07,-366.64 171.97,-366.25 166.91,-365.82 161.9,-365.35 156.94,-364.84 152.05,-364.29 147.23,-363.69 142.49,-363.06 137.85,-362.39 133.33,-361.69 128.92,-360.96 124.66,-360.2 120.54,-359.41 116.6,-358.59 112.84,-357.75 109.28,-356.89 105.94,-356.01 102.84,-355.11 99.98,-354.2 97.4,-353.28 95.11,-352.35 93.12,-351.41 91.45,-350.47 90.12,-349.53 89.14,-348.59 88.52,-347.65 88.28,-346.72 88.43,-345.8 88.97,-344.89 89.92,-343.99 91.28,-343.11 93.05,-342.25 95.25,-341.41 97.86,-340.59 100.89,-339.8 104.33,-339.04 108.18,-338.31 112.43,-337.61 117.07,-336.94 122.08,-336.31 127.45,-335.71 133.17,-335.16 139.21,-334.65 145.56,-334.18 152.18,-333.75 159.07,-333.36 166.18,-333.03 173.49,-332.74 180.98,-332.49 188.61,-332.3 196.36,-332.15 204.18,-332.05 212.05,-332 219.95,-332 227.82,-332.05"/>
<text xml:space="preserve" text-anchor="middle" x="216" y="-345.8" font-family="sans-serif" font-size="14.00">MobileShoppingAggregator</text>
</a>
</g>
</g>
<!-- #/domains/integration/subdomains/edge/boundedcontexts/api_gateway/services/mobile_shopping_aggregator&#45;&gt;#/domains/customer_experience/subdomains/promotions/boundedcontexts/marketing/services/marketing_service -->
<g id="edge1" class="edge">
<title>#/domains/integration/subdomains/edge/boundedcontexts/api_gateway/services/mobile_shopping_aggregator&#45;&gt;#/domains/customer_experience/subdomains/promotions/boundedcontexts/marketing/services/marketing_service</title>
<path fill="none" stroke="black" d="M224.34,-331.6C244.28,-290 294.83,-184.54 318.89,-134.35"/>
<polygon fill="black" stroke="black" points="321.91,-136.14 323.08,-125.61 315.6,-133.12 321.91,-136.14"/>
<text xml:space="preserve" text-anchor="middle" x="295.2" y="-255" font-family="sans-serif" font-size="10.00">ApplyCampaigns</text>
<g id="a_edge1&#45;headlabel"><a xlink:title="open&#45;host&#45;service">
<text xml:space="preserve" text-anchor="middle" x="323.73" y="-121.25" font-family="sans-serif" font-size="10.00">OHS</text>
</a>
</g>
<g id="a_edge1&#45;taillabel"><a xlink:title="conformist">
<text xml:space="preserve" text-anchor="middle" x="224.34" y="-328.6" font-family="sans-serif" font-size="10.00">C</text>
</a>
</g>
</g>
<!-- #/domains/commerce/subdomains/sales/boundedcontexts/ordering/services/ordering_app -->
<g id="node3" class="node">
<title>#/domains/commerce/subdomains/sales/boundedcontexts/ordering/services/ordering_app</title>
<g id="a_node3"><a xlink:title="Ordering.API (rich DDD + domain events)">
<polygon fill="white" stroke="black" points="557.16,-332.05 561.24,-332.15 565.28,-332.3 569.26,-332.49 573.16,-332.74 576.98,-333.03 580.68,-333.36 584.27,-333.75 587.73,-334.18 591.03,-334.65 594.18,-335.16 597.16,-335.71 599.97,-336.31 602.58,-336.94 605,-337.61 607.21,-338.31 609.22,-339.04 611.01,-339.8 612.59,-340.59 613.96,-341.41 615.1,-342.25 616.03,-343.11 616.73,-343.99 617.23,-344.89 617.51,-345.8 617.59,-346.72 617.46,-347.65 617.14,-348.59 616.63,-349.53 615.93,-350.47 615.06,-351.41 614.03,-352.35 612.83,-353.28 611.49,-354.2 610,-355.11 608.38,-356.01 606.64,-356.89 604.78,-357.75 602.82,-358.59 600.77,-359.41 598.62,-360.2 596.4,-360.96 594.1,-361.69 591.74,-362.39 589.32,-363.06 586.86,-363.69 584.34,-364.29 581.79,-364.84 579.21,-365.35 576.59,-365.82 573.96,-366.25 571.3,-366.64 568.62,-366.97 565.93,-367.26 563.23,-367.51 560.52,-367.7 557.81,-367.85 555.09,-367.95 552.36,-368 549.64,-368 546.91,-367.95 544.19,-367.85 541.48,-367.7 538.77,-367.51 536.07,-367.26 533.38,-366.97 530.7,-366.64 528.04,-366.25 525.41,-365.82 522.79,-365.35 520.21,-364.84 517.66,-364.29 515.14,-363.69 512.68,-363.06 510.26,-362.39 507.9,-361.69 505.6,-360.96 503.38,-360.2 501.23,-359.41 499.18,-358.59 497.22,-357.75 495.36,-356.89 493.62,-356.01 492,-355.11 490.51,-354.2 489.17,-353.28 487.97,-352.35 486.94,-351.41 486.07,-350.47 485.37,-349.53 484.86,-348.59 484.54,-347.65 484.41,-346.72 484.49,-345.8 484.77,-344.89 485.27,-343.99 485.97,-343.11 486.9,-342.25 488.04,-341.41 489.41,-340.59 490.99,-339.8 492.78,-339.04 494.79,-338.31 497,-337.61 499.42,-336.94 502.03,-336.31 504.84,-335.71 507.82,-335.16 510.97,-334.65 514.27,-334.18 517.73,-333.75 521.32,-333.36 525.02,-333.03 528.84,-332.74 532.74,-332.49 536.72,-332.3 540.76,-332.15 544.84,-332.05 548.94,-332 553.06,-332 557.16,-332.05"/>
<text xml:space="preserve" text-anchor="middle" x="551" y="-345.8" font-family="sans-serif" font-size="14.00">OrderingApp</text>
</a>
</g>
</g>
<!-- #/domains/commerce/subdomains/sales/boundedcontexts/ordering/services/ordering_app&#45;&gt;#/domains/customer_experience/subdomains/promotions/boundedcontexts/marketing/services/marketing_service -->
<g id="edge2" class="edge">
<title>#/domains/commerce/subdomains/sales/boundedcontexts/ordering/services/ordering_app&#45;&gt;#/domains/customer_experience/subdomains/promotions/boundedcontexts/marketing/services/marketing_service</title>
<path fill="none" stroke="black" d="M535.6,-331.98C497.67,-290.07 399.57,-181.67 354.84,-132.24"/>
<polygon fill="black" stroke="black" points="357.7,-130.19 348.4,-125.12 352.51,-134.88 357.7,-130.19"/>
<text xml:space="preserve" text-anchor="middle" x="508.91" y="-255" font-family="sans-serif" font-size="10.00">ApplyCampaigns</text>
<g id="a_edge2&#45;headlabel"><a xlink:title="open&#45;host&#45;service">
<text xml:space="preserve" text-anchor="middle" x="347.38" y="-121" font-family="sans-serif" font-size="10.00">OHS</text>
</a>
</g>
<g id="a_edge2&#45;taillabel"><a xlink:title="anti&#45;corruption&#45;layer">
<text xml:space="preserve" text-anchor="middle" x="535.6" y="-328.98" font-family="sans-serif" font-size="10.00">ACL</text>
</a>
</g>
</g>
</g>
</svg>
