<?xml version="1.0" encoding="UTF-8" standalone="no"?>
<?xml-stylesheet href="data:text/css,.graph%20text%20%7B%0A%09font-family%3A%20sans-serif%3B%0A%09stroke%3A%20white%3B%0A%09paint-order%3A%20stroke%3B%0A%09stroke-width%3A%203%3B%0A%09stroke-linecap%3A%20square%3B%0A%7D%0A%0A.namespace%20polygon%20%7B%0A%09fill-opacity%3A%200.2%3B%0A%09stroke%3A%20none%3B%0A%7D%0A" type="text/css"?>
<!DOCTYPE svg PUBLIC "-//W3C//DTD SVG 1.1//EN"
 "http://www.w3.org/Graphics/SVG/1.1/DTD/svg11.dtd">
<!-- Generated by graphviz version 13.1.2 (0)
 -->
<!-- Pages: 1 -->
<svg width="550pt" height="544pt"
 viewBox="0.00 0.00 550.00 544.00" xmlns="http://www.w3.org/2000/svg" xmlns:xlink="http://www.w3.org/1999/xlink">
<g id="graph0" class="graph" transform="scale(1 1) rotate(0) translate(4 540)">
<polygon fill="white" stroke="none" points="-4,4 -4,-540 546,-540 546,4 -4,4"/>
<g id="clust1" class="cluster namespace">
<title>e_shop</title>
<polygon fill="lightgrey" stroke="lightgrey" points="8,-8 8,-528 534,-528 534,-8 8,-8"/>
<text xml:space="preserve" text-anchor="middle" x="271" y="-515" font-family="sans-serif" font-size="10.00">eShop</text>
</g>
<g id="clust2" class="cluster namespace">
<title>#/domains/identity_&amp;_access</title>
<polygon fill="lightgrey" stroke="lightgrey" points="110,-28 110,-244 380,-244 380,-28 110,-28"/>
<text xml:space="preserve" text-anchor="middle" x="245" y="-231" font-family="sans-serif" font-size="10.00">Identity &amp; Access</text>
</g>
<g id="clust3" class="cluster namespace">
<title>#/domains/identity_&amp;_access/subdomains/auth_n/auth_z</title>
<polygon fill="lightgrey" stroke="lightgrey" points="130,-48 130,-204 360,-204 360,-48 130,-48"/>
<text xml:space="preserve" text-anchor="middle" x="245" y="-191" font-family="sans-serif" font-size="10.00">AuthN/AuthZ</text>
</g>
<g id="clust4" class="cluster namespace">
<title>#/domains/identity_&amp;_access/subdomains/auth_n/auth_z/boundedcontexts/identity.api</title>
<polygon fill="lightgrey" stroke="lightgrey" points="150,-68 150,-164 340,-164 340,-68 150,-68"/>
<text xml:space="preserve" text-anchor="middle" x="245" y="-151" font-family="sans-serif" font-size="10.00">Identity.API</text>
</g>
<g id="clust5" class="cluster namespace">
<title>#/domains/edge_&amp;_experience</title>
<polygon fill="lightgrey" stroke="lightgrey" points="28,-272 28,-488 514,-488 514,-272 28,-272"/>
<text xml:space="preserve" text-anchor="middle" x="271" y="-475" font-family="sans-serif" font-size="10.00">Edge &amp; Experience</text>
</g>
<g id="clust6" class="cluster namespace">
<title>#/domains/edge_&amp;_experience/subdomains/web</title>
<polygon fill="lightgrey" stroke="lightgrey" points="48,-292 48,-448 264,-448 264,-292 48,-292"/>
<text xml:space="preserve" text-anchor="middle" x="156" y="-435" font-family="sans-serif" font-size="10.00">Web</text>
</g>
<g id="clust7" class="cluster namespace">
<title>#/domains/edge_&amp;_experience/subdomains/web/boundedcontexts/web_app</title>
<polygon fill="lightgrey" stroke="lightgrey" points="68,-312 68,-408 244,-408 244,-312 68,-312"/>
<text xml:space="preserve" text-anchor="middle" x="156" y="-395" font-family="sans-serif" font-size="10.00">WebApp</text>
</g>
<g id="clust8" class="cluster namespace">
<title>#/domains/edge_&amp;_experience/subdomains/mobile</title>
<polygon fill="lightgrey" stroke="lightgrey" points="284,-292 284,-448 494,-448 494,-292 284,-292"/>
<text xml:space="preserve" text-anchor="middle" x="389" y="-435" font-family="sans-serif" font-size="10.00">Mobile</text>
</g>
<g id="clust9" class="cluster namespace">
<title>#/domains/edge_&amp;_experience/subdomains/mobile/boundedcontexts/mobile.bff.shopping</title>
<polygon fill="lightgrey" stroke="lightgrey" points="304,-312 304,-408 474,-408 474,-312 304,-312"/>
<text xml:space="preserve" text-anchor="middle" x="389" y="-395" font-family="sans-serif" font-size="10.00">Mobile.Bff.Shopping</text>
</g>
<!-- #/domains/identity_&amp;_access/subdomains/auth_n/auth_z/boundedcontexts/identity.api/services/identity_service -->
<g id="node1" class="node">
<title>#/domains/identity_&amp;_access/subdomains/auth_n/auth_z/boundedcontexts/identity.api/services/identity_service</title>
<g id="a_node1"><a xlink:title="Service boundary for token issuance and discovery endpoints. Other apps redirect here for login and token flows.">
<polygon fill="white" stroke="black" points="251.9,-88.05 256.47,-88.15 260.99,-88.3 265.45,-88.49 269.82,-88.74 274.09,-89.03 278.24,-89.36 282.26,-89.75 286.13,-90.18 289.84,-90.65 293.37,-91.16 296.7,-91.71 299.84,-92.31 302.77,-92.94 305.48,-93.61 307.96,-94.31 310.2,-95.04 312.21,-95.8 313.98,-96.59 315.51,-97.41 316.79,-98.25 317.83,-99.11 318.62,-99.99 319.17,-100.89 319.49,-101.8 319.58,-102.72 319.44,-103.65 319.08,-104.59 318.5,-105.53 317.72,-106.47 316.75,-107.41 315.59,-108.35 314.25,-109.28 312.74,-110.2 311.08,-111.11 309.27,-112.01 307.32,-112.89 305.24,-113.75 303.04,-114.59 300.74,-115.41 298.34,-116.2 295.84,-116.96 293.27,-117.69 290.63,-118.39 287.92,-119.06 285.16,-119.69 282.34,-120.29 279.49,-120.84 276.59,-121.35 273.66,-121.82 270.71,-122.25 267.73,-122.64 264.74,-122.97 261.72,-123.26 258.7,-123.51 255.66,-123.7 252.62,-123.85 249.58,-123.95 246.53,-124 243.47,-124 240.42,-123.95 237.38,-123.85 234.34,-123.7 231.3,-123.51 228.28,-123.26 225.26,-122.97 222.27,-122.64 219.29,-122.25 216.34,-121.82 213.41,-121.35 210.51,-120.84 207.66,-120.29 204.84,-119.69 202.08,-119.06 199.37,-118.39 196.73,-117.69 194.16,-116.96 191.66,-116.2 189.26,-115.41 186.96,-114.59 184.76,-113.75 182.68,-112.89 180.73,-112.01 178.92,-111.11 177.26,-110.2 175.75,-109.28 174.41,-108.35 173.25,-107.41 172.28,-106.47 171.5,-105.53 170.92,-104.59 170.56,-103.65 170.42,-102.72 170.51,-101.8 170.83,-100.89 171.38,-99.99 172.17,-99.11 173.21,-98.25 174.49,-97.41 176.02,-96.59 177.79,-95.8 179.8,-95.04 182.04,-94.31 184.52,-93.61 187.23,-92.94 190.16,-92.31 193.3,-91.71 196.63,-91.16 200.16,-90.65 203.87,-90.18 207.74,-89.75 211.76,-89.36 215.91,-89.03 220.18,-88.74 224.55,-88.49 229.01,-88.3 233.53,-88.15 238.1,-88.05 242.7,-88 247.3,-88 251.9,-88.05"/>
<text xml:space="preserve" text-anchor="middle" x="245" y="-101.8" font-family="sans-serif" font-size="14.00">IdentityService</text>
</a>
</g>
</g>
<!-- #/domains/edge_&amp;_experience/subdomains/web/boundedcontexts/web_app/services/web_frontend -->
<g id="node2" class="node">
<title>#/domains/edge_&amp;_experience/subdomains/web/boundedcontexts/web_app/services/web_frontend</title>
<g id="a_node2"><a xlink:title="Blazor Server front&#45;end used by shoppers. It handles interaction, stateful UI, and delegates business logic to the BFF and backends.">
<polygon fill="white" stroke="black" points="162.32,-332.05 166.5,-332.15 170.65,-332.3 174.73,-332.49 178.73,-332.74 182.64,-333.03 186.45,-333.36 190.13,-333.75 193.67,-334.18 197.06,-334.65 200.29,-335.16 203.35,-335.71 206.23,-336.31 208.91,-336.94 211.39,-337.61 213.66,-338.31 215.72,-339.04 217.56,-339.8 219.18,-340.59 220.57,-341.41 221.75,-342.25 222.7,-343.11 223.42,-343.99 223.93,-344.89 224.22,-345.8 224.3,-346.72 224.17,-347.65 223.84,-348.59 223.32,-349.53 222.6,-350.47 221.71,-351.41 220.65,-352.35 219.42,-353.28 218.04,-354.2 216.52,-355.11 214.86,-356.01 213.07,-356.89 211.17,-357.75 209.16,-358.59 207.05,-359.41 204.85,-360.2 202.57,-360.96 200.21,-361.69 197.79,-362.39 195.31,-363.06 192.78,-363.69 190.2,-364.29 187.58,-364.84 184.93,-365.35 182.25,-365.82 179.55,-366.25 176.82,-366.64 174.08,-366.97 171.32,-367.26 168.55,-367.51 165.77,-367.7 162.98,-367.85 160.19,-367.95 157.4,-368 154.6,-368 151.81,-367.95 149.02,-367.85 146.23,-367.7 143.45,-367.51 140.68,-367.26 137.92,-366.97 135.18,-366.64 132.45,-366.25 129.75,-365.82 127.07,-365.35 124.42,-364.84 121.8,-364.29 119.22,-363.69 116.69,-363.06 114.21,-362.39 111.79,-361.69 109.43,-360.96 107.15,-360.2 104.95,-359.41 102.84,-358.59 100.83,-357.75 98.93,-356.89 97.14,-356.01 95.48,-355.11 93.96,-354.2 92.58,-353.28 91.35,-352.35 90.29,-351.41 89.4,-350.47 88.68,-349.53 88.16,-348.59 87.83,-347.65 87.7,-346.72 87.78,-345.8 88.07,-344.89 88.58,-343.99 89.3,-343.11 90.25,-342.25 91.43,-341.41 92.82,-340.59 94.44,-339.8 96.28,-339.04 98.34,-338.31 100.61,-337.61 103.09,-336.94 105.77,-336.31 108.65,-335.71 111.71,-335.16 114.94,-334.65 118.33,-334.18 121.87,-333.75 125.55,-333.36 129.36,-333.03 133.27,-332.74 137.27,-332.49 141.35,-332.3 145.5,-332.15 149.68,-332.05 153.89,-332 158.11,-332 162.32,-332.05"/>
<text xml:space="preserve" text-anchor="middle" x="156" y="-345.8" font-family="sans-serif" font-size="14.00">WebFrontend</text>
</a>
</g>
</g>
<!-- #/domains/edge_&amp;_experience/subdomains/web/boundedcontexts/web_app/services/web_frontend&#45;&gt;#/domains/identity_&amp;_access/subdomains/auth_n/auth_z/boundedcontexts/identity.api/services/identity_service -->
<g id="edge1" class="edge">
<title>#/domains/edge_&amp;_experience/subdomains/web/boundedcontexts/web_app/services/web_frontend&#45;&gt;#/domains/identity_&amp;_access/subdomains/auth_n/auth_z/boundedcontexts/identity.api/services/identity_service</title>
<path fill="none" stroke="black" d="M162.4,-331.6C177.64,-290.17 216.16,-185.43 234.71,-134.99"/>
<polygon fill="black" stroke="black" points="237.97,-136.26 238.13,-125.67 231.4,-133.84 237.97,-136.26"/>
<text xml:space="preserve" text-anchor="middle" x="212.96" y="-255" font-family="sans-serif" font-size="10.00">IssueToken</text>
<g id="a_edge1&#45;headlabel"><a xlink:title="open&#45;host&#45;service">
<text xml:space="preserve" text-anchor="middle" x="238.66" y="-121.25" font-family="sans-serif" font-size="10.00">OHS</text>
</a>
</g>
<g id="a_edge1&#45;taillabel"><a xlink:title="customer&#45;supplier">
<text xml:space="preserve" text-anchor="middle" x="162.4" y="-328.6" font-family="sans-serif" font-size="10.00">C/s</text>
</a>
</g>
</g>
<!-- #/domains/edge_&amp;_experience/subdomains/mobile/boundedcontexts/mobile.bff.shopping/services/shopping_bff -->
<g id="node3" class="node">
<title>#/domains/edge_&amp;_experience/subdomains/mobile/boundedcontexts/mobile.bff.shopping/services/shopping_bff</title>
<g id="a_node3"><a xlink:title="BFF optimized for client needs. It composes data from multiple backends into coarse&#45;grained endpoints to minimize round trips and hide internal details.">
<polygon fill="white" stroke="black" points="395,-332.05 398.98,-332.15 402.91,-332.3 406.79,-332.49 410.6,-332.74 414.31,-333.03 417.93,-333.36 421.42,-333.75 424.79,-334.18 428.01,-334.65 431.08,-335.16 433.99,-335.71 436.72,-336.31 439.26,-336.94 441.62,-337.61 443.78,-338.31 445.73,-339.04 447.48,-339.8 449.02,-340.59 450.35,-341.41 451.47,-342.25 452.37,-343.11 453.06,-343.99 453.54,-344.89 453.82,-345.8 453.89,-346.72 453.77,-347.65 453.45,-348.59 452.96,-349.53 452.28,-350.47 451.43,-351.41 450.42,-352.35 449.26,-353.28 447.94,-354.2 446.5,-355.11 444.92,-356.01 443.22,-356.89 441.41,-357.75 439.5,-358.59 437.5,-359.41 435.41,-360.2 433.24,-360.96 431,-361.69 428.7,-362.39 426.35,-363.06 423.94,-363.69 421.49,-364.29 419.01,-364.84 416.49,-365.35 413.94,-365.82 411.37,-366.25 408.78,-366.64 406.17,-366.97 403.55,-367.26 400.92,-367.51 398.28,-367.7 395.63,-367.85 392.98,-367.95 390.33,-368 387.67,-368 385.02,-367.95 382.37,-367.85 379.72,-367.7 377.08,-367.51 374.45,-367.26 371.83,-366.97 369.22,-366.64 366.63,-366.25 364.06,-365.82 361.51,-365.35 358.99,-364.84 356.51,-364.29 354.06,-363.69 351.65,-363.06 349.3,-362.39 347,-361.69 344.76,-360.96 342.59,-360.2 340.5,-359.41 338.5,-358.59 336.59,-357.75 334.78,-356.89 333.08,-356.01 331.5,-355.11 330.06,-354.2 328.74,-353.28 327.58,-352.35 326.57,-351.41 325.72,-350.47 325.04,-349.53 324.55,-348.59 324.23,-347.65 324.11,-346.72 324.18,-345.8 324.46,-344.89 324.94,-343.99 325.63,-343.11 326.53,-342.25 327.65,-341.41 328.98,-340.59 330.52,-339.8 332.27,-339.04 334.22,-338.31 336.38,-337.61 338.74,-336.94 341.28,-336.31 344.01,-335.71 346.92,-335.16 349.99,-334.65 353.21,-334.18 356.58,-333.75 360.07,-333.36 363.69,-333.03 367.4,-332.74 371.21,-332.49 375.09,-332.3 379.02,-332.15 383,-332.05 387,-332 391,-332 395,-332.05"/>
<text xml:space="preserve" text-anchor="middle" x="389" y="-345.8" font-family="sans-serif" font-size="14.00">ShoppingBff</text>
</a>
</g>
</g>
<!-- #/domains/edge_&amp;_experience/subdomains/mobile/boundedcontexts/mobile.bff.shopping/services/shopping_bff&#45;&gt;#/domains/identity_&amp;_access/subdomains/auth_n/auth_z/boundedcontexts/identity.api/services/identity_service -->
<g id="edge2" class="edge">
<title>#/domains/edge_&amp;_experience/subdomains/mobile/boundedcontexts/mobile.bff.shopping/services/shopping_bff&#45;&gt;#/domains/identity_&amp;_access/subdomains/auth_n/auth_z/boundedcontexts/identity.api/services/identity_service</title>
<path fill="none" stroke="black" d="M378.87,-331.98C354.19,-290.5 290.76,-183.9 260.94,-133.79"/>
<polygon fill="black" stroke="black" points="264.01,-132.1 255.89,-125.3 257.99,-135.68 264.01,-132.1"/>
<text xml:space="preserve" text-anchor="middle" x="361.36" y="-255" font-family="sans-serif" font-size="10.00">IssueToken</text>
<g id="a_edge2&#45;headlabel"><a xlink:title="open&#45;host&#45;service">
<text xml:space="preserve" text-anchor="middle" x="255.11" y="-121" font-family="sans-serif" font-size="10.00">OHS</text>
</a>
</g>
<g id="a_edge2&#45;taillabel"><a xlink:title="customer&#45;supplier">
<text xml:space="preserve" text-anchor="middle" x="378.87" y="-328.98" font-family="sans-serif" font-size="10.00">C/s</text>
</a>
</g>
</g>
</g>
</svg>
