<?xml version="1.0" encoding="UTF-8" standalone="no"?>
<?xml-stylesheet href="data:text/css,.graph%20text%20%7B%0A%09font-family%3A%20sans-serif%3B%0A%09stroke%3A%20white%3B%0A%09paint-order%3A%20stroke%3B%0A%09stroke-width%3A%203%3B%0A%09stroke-linecap%3A%20square%3B%0A%7D%0A%0A.namespace%20polygon%20%7B%0A%09fill-opacity%3A%200.2%3B%0A%09stroke%3A%20none%3B%0A%7D%0A" type="text/css"?>
<!DOCTYPE svg PUBLIC "-//W3C//DTD SVG 1.1//EN"
 "http://www.w3.org/Graphics/SVG/1.1/DTD/svg11.dtd">
<!-- Generated by graphviz version 13.1.2 (0)
 -->
<!-- Pages: 1 -->
<svg width="216pt" height="436pt"
 viewBox="0.00 0.00 216.00 436.00" xmlns="http://www.w3.org/2000/svg" xmlns:xlink="http://www.w3.org/1999/xlink">
<g id="graph0" class="graph" transform="scale(1 1) rotate(0) translate(4 432)">
<polygon fill="white" stroke="none" points="-4,4 -4,-432 212,-432 212,4 -4,4"/>
<g id="clust1" class="cluster namespace">
<title>swagger_petstore_(v3)</title>
<polygon fill="lightgrey" stroke="lightgrey" points="8,-8 8,-420 200,-420 200,-8 8,-8"/>
<text xml:space="preserve" text-anchor="middle" x="104" y="-407" font-family="sans-serif" font-size="10.00">Swagger Petstore (v3)</text>
</g>
<g id="clust2" class="cluster namespace">
<title>#/domains/petstore_commerce</title>
<polygon fill="lightgrey" stroke="lightgrey" points="16,-16 16,-392 192,-392 192,-16 16,-16"/>
<text xml:space="preserve" text-anchor="middle" x="104" y="-379" font-family="sans-serif" font-size="10.00">Petstore Commerce</text>
</g>
<g id="clust3" class="cluster namespace">
<title>#/domains/petstore_commerce/subdomains/catalog</title>
<polygon fill="lightgrey" stroke="lightgrey" points="39,-24 39,-132 169,-132 169,-24 39,-24"/>
<text xml:space="preserve" text-anchor="middle" x="104" y="-119" font-family="sans-serif" font-size="10.00">Catalog</text>
</g>
<g id="clust4" class="cluster namespace">
<title>#/domains/petstore_commerce/subdomains/sales</title>
<polygon fill="lightgrey" stroke="lightgrey" points="54,-140 54,-248 184,-248 184,-140 54,-140"/>
<text xml:space="preserve" text-anchor="middle" x="119" y="-235" font-family="sans-serif" font-size="10.00">Sales</text>
</g>
<g id="clust5" class="cluster namespace">
<title>#/domains/petstore_commerce/subdomains/inventory</title>
<polygon fill="lightgrey" stroke="lightgrey" points="30,-256 30,-364 178,-364 178,-256 30,-256"/>
<text xml:space="preserve" text-anchor="middle" x="104" y="-351" font-family="sans-serif" font-size="10.00">Inventory</text>
</g>
<!-- #/domains/petstore_commerce/subdomains/catalog/boundedcontexts/catalog_bc -->
<g id="node1" class="node">
<title>#/domains/petstore_commerce/subdomains/catalog/boundedcontexts/catalog_bc</title>
<g id="a_node1"><a xlink:title="Owns Pet aggregate &amp; pet&#45;facing operations">
<polygon fill="white" stroke="black" points="109.32,-32.1 112.84,-32.3 116.33,-32.59 119.76,-32.98 123.13,-33.47 126.42,-34.05 129.63,-34.73 132.72,-35.5 135.71,-36.35 138.56,-37.29 141.28,-38.32 143.85,-39.43 146.27,-40.62 148.53,-41.88 150.62,-43.21 152.53,-44.61 154.26,-46.08 155.81,-47.6 157.17,-49.18 158.35,-50.82 159.34,-52.5 160.14,-54.22 160.75,-55.98 161.18,-57.77 161.42,-59.59 161.49,-61.44 161.38,-63.3 161.1,-65.17 160.66,-67.06 160.06,-68.94 159.31,-70.83 158.41,-72.7 157.38,-74.56 156.22,-76.41 154.94,-78.23 153.54,-80.02 152.03,-81.78 150.43,-83.5 148.74,-85.18 146.96,-86.82 145.11,-88.4 143.19,-89.92 141.21,-91.39 139.17,-92.79 137.09,-94.12 134.96,-95.38 132.79,-96.57 130.58,-97.68 128.35,-98.71 126.1,-99.65 123.82,-100.5 121.52,-101.27 119.21,-101.95 116.89,-102.53 114.56,-103.02 112.22,-103.41 109.88,-103.7 107.53,-103.9 105.18,-104 102.82,-104 100.47,-103.9 98.12,-103.7 95.78,-103.41 93.44,-103.02 91.11,-102.53 88.79,-101.95 86.48,-101.27 84.18,-100.5 81.9,-99.65 79.65,-98.71 77.42,-97.68 75.21,-96.57 73.04,-95.38 70.91,-94.12 68.83,-92.79 66.79,-91.39 64.81,-89.92 62.89,-88.4 61.04,-86.82 59.26,-85.18 57.57,-83.5 55.97,-81.78 54.46,-80.02 53.06,-78.23 51.78,-76.41 50.62,-74.56 49.59,-72.7 48.69,-70.83 47.94,-68.94 47.34,-67.06 46.9,-65.17 46.62,-63.3 46.51,-61.44 46.58,-59.59 46.82,-57.77 47.25,-55.98 47.86,-54.22 48.66,-52.5 49.65,-50.82 50.83,-49.18 52.19,-47.6 53.74,-46.08 55.47,-44.61 57.38,-43.21 59.47,-41.88 61.73,-40.62 64.15,-39.43 66.72,-38.32 69.44,-37.29 72.29,-36.35 75.28,-35.5 78.37,-34.73 81.58,-34.05 84.87,-33.47 88.24,-32.98 91.67,-32.59 95.16,-32.3 98.68,-32.1 102.22,-32 105.78,-32 109.32,-32.1"/>
<text xml:space="preserve" text-anchor="middle" x="104" y="-63.8" font-family="sans-serif" font-size="14.00">Catalog BC</text>
</a>
</g>
</g>
<!-- #/domains/petstore_commerce/subdomains/sales/boundedcontexts/sales_bc -->
<g id="node2" class="node">
<title>#/domains/petstore_commerce/subdomains/sales/boundedcontexts/sales_bc</title>
<g id="a_node2"><a xlink:title="Owns Order aggregate &amp; order&#45;facing operations">
<polygon fill="white" stroke="black" points="124.32,-148.1 127.84,-148.3 131.33,-148.59 134.76,-148.98 138.13,-149.47 141.42,-150.05 144.63,-150.73 147.72,-151.5 150.71,-152.35 153.56,-153.29 156.28,-154.32 158.85,-155.43 161.27,-156.62 163.53,-157.88 165.62,-159.21 167.53,-160.61 169.26,-162.08 170.81,-163.6 172.17,-165.18 173.35,-166.82 174.34,-168.5 175.14,-170.22 175.75,-171.98 176.18,-173.77 176.42,-175.59 176.49,-177.44 176.38,-179.3 176.1,-181.17 175.66,-183.06 175.06,-184.94 174.31,-186.83 173.41,-188.7 172.38,-190.56 171.22,-192.41 169.94,-194.23 168.54,-196.02 167.03,-197.78 165.43,-199.5 163.74,-201.18 161.96,-202.82 160.11,-204.4 158.19,-205.92 156.21,-207.39 154.17,-208.79 152.09,-210.12 149.96,-211.38 147.79,-212.57 145.58,-213.68 143.35,-214.71 141.1,-215.65 138.82,-216.5 136.52,-217.27 134.21,-217.95 131.89,-218.53 129.56,-219.02 127.22,-219.41 124.88,-219.7 122.53,-219.9 120.18,-220 117.82,-220 115.47,-219.9 113.12,-219.7 110.78,-219.41 108.44,-219.02 106.11,-218.53 103.79,-217.95 101.48,-217.27 99.18,-216.5 96.9,-215.65 94.65,-214.71 92.42,-213.68 90.21,-212.57 88.04,-211.38 85.91,-210.12 83.83,-208.79 81.79,-207.39 79.81,-205.92 77.89,-204.4 76.04,-202.82 74.26,-201.18 72.57,-199.5 70.97,-197.78 69.46,-196.02 68.06,-194.23 66.78,-192.41 65.62,-190.56 64.59,-188.7 63.69,-186.83 62.94,-184.94 62.34,-183.06 61.9,-181.17 61.62,-179.3 61.51,-177.44 61.58,-175.59 61.82,-173.77 62.25,-171.98 62.86,-170.22 63.66,-168.5 64.65,-166.82 65.83,-165.18 67.19,-163.6 68.74,-162.08 70.47,-160.61 72.38,-159.21 74.47,-157.88 76.73,-156.62 79.15,-155.43 81.72,-154.32 84.44,-153.29 87.29,-152.35 90.28,-151.5 93.37,-150.73 96.58,-150.05 99.87,-149.47 103.24,-148.98 106.67,-148.59 110.16,-148.3 113.68,-148.1 117.22,-148 120.78,-148 124.32,-148.1"/>
<text xml:space="preserve" text-anchor="middle" x="119" y="-179.8" font-family="sans-serif" font-size="14.00">Sales BC</text>
</a>
</g>
</g>
<!-- #/domains/petstore_commerce/subdomains/sales/boundedcontexts/sales_bc&#45;&gt;#/domains/petstore_commerce/subdomains/catalog/boundedcontexts/catalog_bc -->
<g id="edge1" class="edge">
<title>#/domains/petstore_commerce/subdomains/sales/boundedcontexts/sales_bc&#45;&gt;#/domains/petstore_commerce/subdomains/catalog/boundedcontexts/catalog_bc</title>
<path fill="none" stroke="black" d="M114.38,-147.87C113.04,-137.68 111.55,-126.4 110.13,-115.63"/>
<polygon fill="black" stroke="black" points="113.61,-115.17 108.83,-105.71 106.67,-116.09 113.61,-115.17"/>
<g id="a_edge1&#45;headlabel"><a xlink:title="open&#45;host&#45;service">
<text xml:space="preserve" text-anchor="middle" x="108.63" y="-101.21" font-family="sans-serif" font-size="10.00">OHS</text>
</a>
</g>
<g id="a_edge1&#45;taillabel"><a xlink:title="anti&#45;corruption&#45;layer">
<text xml:space="preserve" text-anchor="middle" x="114.38" y="-144.87" font-family="sans-serif" font-size="10.00">ACL</text>
</a>
</g>
</g>
<!-- #/domains/petstore_commerce/subdomains/inventory/boundedcontexts/inventory_bc -->
<g id="node3" class="node">
<title>#/domains/petstore_commerce/subdomains/inventory/boundedcontexts/inventory_bc</title>
<g id="a_node3"><a xlink:title="Projection for /store/inventory (status→count)">
<polygon fill="white" stroke="black" points="100.32,-264.1 103.84,-264.3 107.33,-264.59 110.76,-264.98 114.13,-265.47 117.42,-266.05 120.63,-266.73 123.72,-267.5 126.71,-268.35 129.56,-269.29 132.28,-270.32 134.85,-271.43 137.27,-272.62 139.53,-273.88 141.62,-275.21 143.53,-276.61 145.26,-278.08 146.81,-279.6 148.17,-281.18 149.35,-282.82 150.34,-284.5 151.14,-286.22 151.75,-287.98 152.18,-289.77 152.42,-291.59 152.49,-293.44 152.38,-295.3 152.1,-297.17 151.66,-299.06 151.06,-300.94 150.31,-302.83 149.41,-304.7 148.38,-306.56 147.22,-308.41 145.94,-310.23 144.54,-312.02 143.03,-313.78 141.43,-315.5 139.74,-317.18 137.96,-318.82 136.11,-320.4 134.19,-321.92 132.21,-323.39 130.17,-324.79 128.09,-326.12 125.96,-327.38 123.79,-328.57 121.58,-329.68 119.35,-330.71 117.1,-331.65 114.82,-332.5 112.52,-333.27 110.21,-333.95 107.89,-334.53 105.56,-335.02 103.22,-335.41 100.88,-335.7 98.53,-335.9 96.18,-336 93.82,-336 91.47,-335.9 89.12,-335.7 86.78,-335.41 84.44,-335.02 82.11,-334.53 79.79,-333.95 77.48,-333.27 75.18,-332.5 72.9,-331.65 70.65,-330.71 68.42,-329.68 66.21,-328.57 64.04,-327.38 61.91,-326.12 59.83,-324.79 57.79,-323.39 55.81,-321.92 53.89,-320.4 52.04,-318.82 50.26,-317.18 48.57,-315.5 46.97,-313.78 45.46,-312.02 44.06,-310.23 42.78,-308.41 41.62,-306.56 40.59,-304.7 39.69,-302.83 38.94,-300.94 38.34,-299.06 37.9,-297.17 37.62,-295.3 37.51,-293.44 37.58,-291.59 37.82,-289.77 38.25,-287.98 38.86,-286.22 39.66,-284.5 40.65,-282.82 41.83,-281.18 43.19,-279.6 44.74,-278.08 46.47,-276.61 48.38,-275.21 50.47,-273.88 52.73,-272.62 55.15,-271.43 57.72,-270.32 60.44,-269.29 63.29,-268.35 66.28,-267.5 69.37,-266.73 72.58,-266.05 75.87,-265.47 79.24,-264.98 82.67,-264.59 86.16,-264.3 89.68,-264.1 93.22,-264 96.78,-264 100.32,-264.1"/>
<text xml:space="preserve" text-anchor="middle" x="95" y="-295.8" font-family="sans-serif" font-size="14.00">Inventory BC</text>
</a>
</g>
</g>
<!-- #/domains/petstore_commerce/subdomains/inventory/boundedcontexts/inventory_bc&#45;&gt;#/domains/petstore_commerce/subdomains/catalog/boundedcontexts/catalog_bc -->
<g id="edge2" class="edge">
<title>#/domains/petstore_commerce/subdomains/inventory/boundedcontexts/inventory_bc&#45;&gt;#/domains/petstore_commerce/subdomains/catalog/boundedcontexts/catalog_bc</title>
<path fill="none" stroke="black" d="M58.87,-269.51C53.21,-263.06 48.19,-255.81 45,-248 26.85,-203.56 28.69,-185.14 45,-140 49.64,-127.16 57.72,-115.01 66.44,-104.51"/>
<polygon fill="black" stroke="black" points="68.87,-107.05 72.85,-97.23 63.61,-102.42 68.87,-107.05"/>
<g id="a_edge2&#45;headlabel"><a xlink:title="published&#45;language">
<text xml:space="preserve" text-anchor="middle" x="73.85" y="-93.09" font-family="sans-serif" font-size="10.00">PL</text>
</a>
</g>
<g id="a_edge2&#45;taillabel"><a xlink:title="conformist">
<text xml:space="preserve" text-anchor="middle" x="58.87" y="-266.51" font-family="sans-serif" font-size="10.00">C</text>
</a>
</g>
</g>
<!-- #/domains/petstore_commerce/subdomains/inventory/boundedcontexts/inventory_bc&#45;&gt;#/domains/petstore_commerce/subdomains/sales/boundedcontexts/sales_bc -->
<g id="edge3" class="edge">
<title>#/domains/petstore_commerce/subdomains/inventory/boundedcontexts/inventory_bc&#45;&gt;#/domains/petstore_commerce/subdomains/sales/boundedcontexts/sales_bc</title>
<path fill="none" stroke="black" d="M102.4,-263.87C104.58,-253.48 107.01,-241.94 109.32,-230.97"/>
<polygon fill="black" stroke="black" points="112.72,-231.81 111.36,-221.3 105.87,-230.37 112.72,-231.81"/>
<g id="a_edge3&#45;headlabel"><a xlink:title="published&#45;language">
<text xml:space="preserve" text-anchor="middle" x="111.67" y="-216.82" font-family="sans-serif" font-size="10.00">PL</text>
</a>
</g>
<g id="a_edge3&#45;taillabel"><a xlink:title="conformist">
<text xml:space="preserve" text-anchor="middle" x="102.4" y="-260.87" font-family="sans-serif" font-size="10.00">C</text>
</a>
</g>
</g>
<!-- #/domains/petstore_commerce/subdomains/inventory/boundedcontexts/inventory_bc&#45;&gt;#/domains/petstore_commerce/subdomains/inventory/boundedcontexts/inventory_bc -->
<g id="edge4" class="edge">
<title>#/domains/petstore_commerce/subdomains/inventory/boundedcontexts/inventory_bc&#45;&gt;#/domains/petstore_commerce/subdomains/inventory/boundedcontexts/inventory_bc</title>
<path fill="none" stroke="black" d="M136.82,-320.12C163.22,-325.17 188.49,-318.46 188.49,-300 188.49,-286.59 175.15,-279.38 157.73,-278.37"/>
<polygon fill="black" stroke="black" points="157.9,-274.87 147.95,-278.52 158.01,-281.87 157.9,-274.87"/>
<g id="a_edge4&#45;headlabel"><a xlink:title="published&#45;language">
<text xml:space="preserve" text-anchor="middle" x="146.44" y="-275.55" font-family="sans-serif" font-size="10.00">PL</text>
</a>
</g>
<g id="a_edge4&#45;taillabel"><a xlink:title="conformist">
<text xml:space="preserve" text-anchor="middle" x="136.82" y="-317.12" font-family="sans-serif" font-size="10.00">C</text>
</a>
</g>
</g>
</g>
</svg>
