<?xml version="1.0" encoding="UTF-8" standalone="no"?>
<?xml-stylesheet href="data:text/css,.graph%20text%20%7B%0A%09font-family%3A%20sans-serif%3B%0A%09stroke%3A%20white%3B%0A%09paint-order%3A%20stroke%3B%0A%09stroke-width%3A%203%3B%0A%09stroke-linecap%3A%20square%3B%0A%7D%0A%0A.namespace%20polygon%20%7B%0A%09fill-opacity%3A%200.2%3B%0A%09stroke%3A%20none%3B%0A%7D%0A" type="text/css"?>
<!DOCTYPE svg PUBLIC "-//W3C//DTD SVG 1.1//EN"
 "http://www.w3.org/Graphics/SVG/1.1/DTD/svg11.dtd">
<!-- Generated by graphviz version 13.1.2 (0)
 -->
<!-- Pages: 1 -->
<svg width="318pt" height="270pt"
 viewBox="0.00 0.00 318.00 270.00" xmlns="http://www.w3.org/2000/svg" xmlns:xlink="http://www.w3.org/1999/xlink">
<g id="graph0" class="graph" transform="scale(1 1) rotate(0) translate(4 266)">
<polygon fill="white" stroke="none" points="-4,4 -4,-266 314.49,-266 314.49,4 -4,4"/>
<g id="clust1" class="cluster namespace">
<title>#/boundedcontexts/devices/aggregates/device</title>
<polygon fill="lightgrey" stroke="lightgrey" points="8,-8 8,-254 302.49,-254 302.49,-8 8,-8"/>
<text xml:space="preserve" text-anchor="middle" x="155.24" y="-241" font-family="sans-serif" font-size="10.00">Viewing / Devices / Devices / Device</text>
</g>
<!-- #/boundedcontexts/devices/aggregates/device/entities/device -->
<g id="node1" class="node">
<title>#/boundedcontexts/devices/aggregates/device/entities/device</title>
<g id="a_node1"><a xlink:title="One model from one partner">
<polygon fill="white" stroke="none" points="108.36,-149 16,-149 16,-53 108.36,-53 108.36,-149"/>
<polygon fill="none" stroke="black" points="16,-119 16,-149 108.36,-149 108.36,-119 16,-119"/>
<text xml:space="preserve" text-anchor="start" x="36.49" y="-136" font-family="sans-serif" font-size="10.00">«root entity»</text>
<text xml:space="preserve" text-anchor="start" x="48.02" y="-126" font-family="sans-serif" font-weight="bold" font-size="10.00">Device</text>
<polygon fill="none" stroke="black" points="16,-97 16,-119 108.36,-119 108.36,-97 16,-97"/>
<text xml:space="preserve" text-anchor="start" x="21" y="-105" font-family="sans-serif" font-size="10.00">{id} deviceId: string</text>
<polygon fill="none" stroke="black" points="16,-75 16,-97 108.36,-97 108.36,-75 16,-75"/>
<text xml:space="preserve" text-anchor="start" x="21" y="-83" font-family="sans-serif" font-size="10.00">partner: string</text>
<polygon fill="none" stroke="black" points="16,-53 16,-75 108.36,-75 108.36,-53 16,-53"/>
<text xml:space="preserve" text-anchor="start" x="21" y="-61" font-family="sans-serif" font-size="10.00">model: string</text>
</a>
</g>
</g>
<!-- #/boundedcontexts/devices/aggregates/device/entities/certification -->
<g id="node2" class="node">
<title>#/boundedcontexts/devices/aggregates/device/entities/certification</title>
<g id="a_node2"><a xlink:title="A pass or fail against one SDK version">
<polygon fill="white" stroke="none" points="294.49,-112 191,-112 191,-16 294.49,-16 294.49,-112"/>
<polygon fill="none" stroke="black" points="191,-82 191,-112 294.49,-112 294.49,-82 191,-82"/>
<text xml:space="preserve" text-anchor="start" x="226.36" y="-99" font-family="sans-serif" font-size="10.00">«entity»</text>
<text xml:space="preserve" text-anchor="start" x="215.53" y="-89" font-family="sans-serif" font-weight="bold" font-size="10.00">Certification</text>
<polygon fill="none" stroke="black" points="191,-60 191,-82 294.49,-82 294.49,-60 191,-60"/>
<text xml:space="preserve" text-anchor="start" x="196" y="-68" font-family="sans-serif" font-size="10.00">{id} sdkVersion: string</text>
<polygon fill="none" stroke="black" points="191,-38 191,-60 294.49,-60 294.49,-38 191,-38"/>
<text xml:space="preserve" text-anchor="start" x="196" y="-46" font-family="sans-serif" font-size="10.00">passed: boolean</text>
<polygon fill="none" stroke="black" points="191,-16 191,-38 294.49,-38 294.49,-16 191,-16"/>
<text xml:space="preserve" text-anchor="start" x="196" y="-24" font-family="sans-serif" font-size="10.00">certifiedOn: date</text>
</a>
</g>
</g>
<!-- #/boundedcontexts/devices/aggregates/device/entities/device&#45;&gt;#/boundedcontexts/devices/aggregates/device/entities/certification -->
<g id="edge1" class="edge">
<title>#/boundedcontexts/devices/aggregates/device/entities/device&#45;&gt;#/boundedcontexts/devices/aggregates/device/entities/certification</title>
<path fill="none" stroke="black" d="M120.79,-89.06C143.4,-84.38 169.12,-79.05 191.02,-74.51"/>
<polygon fill="black" stroke="black" points="120.87,-89.05 115.81,-94.18 109.12,-91.48 114.18,-86.35 120.87,-89.05"/>
<text xml:space="preserve" text-anchor="middle" x="149.68" y="-89.9" font-family="sans-serif" font-size="10.00">certified&#45;by</text>
<text xml:space="preserve" text-anchor="middle" x="179" y="-80.48" font-family="sans-serif" font-size="10.00">*</text>
</g>
<!-- #/boundedcontexts/devices/aggregates/device/valueobjects/capability -->
<g id="node3" class="node">
<title>#/boundedcontexts/devices/aggregates/device/valueobjects/capability</title>
<g id="a_node3"><a xlink:title="Codecs, DRM level and maximum resolution">
<polygon fill="white" stroke="none" points="281.21,-226 204.28,-226 204.28,-130 281.21,-130 281.21,-226"/>
<polygon fill="none" stroke="black" points="204.28,-196 204.28,-226 281.21,-226 281.21,-196 204.28,-196"/>
<text xml:space="preserve" text-anchor="start" x="213.45" y="-213" font-family="sans-serif" font-size="10.00">«value object»</text>
<text xml:space="preserve" text-anchor="start" x="220.24" y="-203" font-family="sans-serif" font-weight="bold" font-size="10.00">Capability</text>
<polygon fill="none" stroke="black" points="204.28,-174 204.28,-196 281.21,-196 281.21,-174 204.28,-174"/>
<text xml:space="preserve" text-anchor="start" x="209.28" y="-182" font-family="sans-serif" font-size="10.00">codecs: string[]</text>
<polygon fill="none" stroke="black" points="204.28,-152 204.28,-174 281.21,-174 281.21,-152 204.28,-152"/>
<text xml:space="preserve" text-anchor="start" x="209.28" y="-160" font-family="sans-serif" font-size="10.00">drmLevel: string</text>
<polygon fill="none" stroke="black" points="204.28,-130 204.28,-152 281.21,-152 281.21,-130 204.28,-130"/>
<text xml:space="preserve" text-anchor="start" x="209.28" y="-138" font-family="sans-serif" font-size="10.00">maxHeight: int</text>
</a>
</g>
</g>
<!-- #/boundedcontexts/devices/aggregates/device/entities/device&#45;&gt;#/boundedcontexts/devices/aggregates/device/valueobjects/capability -->
<g id="edge2" class="edge">
<title>#/boundedcontexts/devices/aggregates/device/entities/device&#45;&gt;#/boundedcontexts/devices/aggregates/device/valueobjects/capability</title>
<path fill="none" stroke="black" stroke-dasharray="5,2" d="M108.24,-120.43C134.51,-131.76 167.61,-146.03 194.28,-157.53"/>
<polygon fill="black" stroke="black" points="203.41,-161.47 192.44,-161.64 199.94,-159.97 194.23,-157.51 194.23,-157.51 194.23,-157.51 199.94,-159.97 196.01,-153.38 203.41,-161.47"/>
<text xml:space="preserve" text-anchor="middle" x="149.68" y="-149.4" font-family="sans-serif" font-size="10.00">capable&#45;of</text>
<text xml:space="preserve" text-anchor="middle" x="189.53" y="-159.39" font-family="sans-serif" font-size="10.00">1</text>
</g>
</g>
</svg>
