<?xml version="1.0" encoding="UTF-8" standalone="no"?>
<?xml-stylesheet href="data:text/css,.graph%20text%20%7B%0A%09font-family%3A%20sans-serif%3B%0A%09stroke%3A%20white%3B%0A%09paint-order%3A%20stroke%3B%0A%09stroke-width%3A%203%3B%0A%09stroke-linecap%3A%20square%3B%0A%7D%0A%0A.namespace%20polygon%20%7B%0A%09fill-opacity%3A%200.2%3B%0A%09stroke%3A%20none%3B%0A%7D%0A" type="text/css"?>
<!DOCTYPE svg PUBLIC "-//W3C//DTD SVG 1.1//EN"
 "http://www.w3.org/Graphics/SVG/1.1/DTD/svg11.dtd">
<!-- Generated by graphviz version 13.1.2 (0)
 -->
<!-- Pages: 1 -->
<svg width="300pt" height="616pt"
 viewBox="0.00 0.00 300.00 616.00" xmlns="http://www.w3.org/2000/svg" xmlns:xlink="http://www.w3.org/1999/xlink">
<g id="graph0" class="graph" transform="scale(1 1) rotate(0) translate(4 612)">
<polygon fill="white" stroke="none" points="-4,4 -4,-612 296,-612 296,4 -4,4"/>
<g id="clust1" class="cluster namespace">
<title>e_shop</title>
<polygon fill="lightgrey" stroke="lightgrey" points="8,-8 8,-600 284,-600 284,-8 8,-8"/>
<text xml:space="preserve" text-anchor="middle" x="146" y="-587" font-family="sans-serif" font-size="10.00">eShop</text>
</g>
<g id="clust2" class="cluster namespace">
<title>#/domains/commerce</title>
<polygon fill="lightgrey" stroke="lightgrey" points="28,-28 28,-280 264,-280 264,-28 28,-28"/>
<text xml:space="preserve" text-anchor="middle" x="146" y="-267" font-family="sans-serif" font-size="10.00">Commerce</text>
</g>
<g id="clust3" class="cluster namespace">
<title>#/domains/commerce/subdomains/catalog</title>
<polygon fill="lightgrey" stroke="lightgrey" points="48,-48 48,-240 244,-240 244,-48 48,-48"/>
<text xml:space="preserve" text-anchor="middle" x="146" y="-227" font-family="sans-serif" font-size="10.00">Catalog</text>
</g>
<g id="clust4" class="cluster namespace">
<title>#/domains/commerce/subdomains/catalog/boundedcontexts/catalog</title>
<polygon fill="lightgrey" stroke="lightgrey" points="68,-68 68,-200 224,-200 224,-68 68,-68"/>
<text xml:space="preserve" text-anchor="middle" x="146" y="-187" font-family="sans-serif" font-size="10.00">Catalog</text>
</g>
<g id="clust5" class="cluster namespace">
<title>#/domains/operations</title>
<polygon fill="lightgrey" stroke="lightgrey" points="29,-308 29,-560 263,-560 263,-308 29,-308"/>
<text xml:space="preserve" text-anchor="middle" x="146" y="-547" font-family="sans-serif" font-size="10.00">Operations</text>
</g>
<g id="clust6" class="cluster namespace">
<title>#/domains/operations/subdomains/backoffice</title>
<polygon fill="lightgrey" stroke="lightgrey" points="49,-328 49,-520 243,-520 243,-328 49,-328"/>
<text xml:space="preserve" text-anchor="middle" x="146" y="-507" font-family="sans-serif" font-size="10.00">Backoffice</text>
</g>
<g id="clust7" class="cluster namespace">
<title>#/domains/operations/subdomains/backoffice/boundedcontexts/backoffice_app</title>
<polygon fill="lightgrey" stroke="lightgrey" points="69,-348 69,-480 223,-480 223,-348 69,-348"/>
<text xml:space="preserve" text-anchor="middle" x="146" y="-467" font-family="sans-serif" font-size="10.00">BackofficeApp</text>
</g>
<!-- #/domains/commerce/subdomains/catalog/boundedcontexts/catalog/services/catalog_service -->
<g id="node1" class="node">
<title>#/domains/commerce/subdomains/catalog/boundedcontexts/catalog/services/catalog_service</title>
<g id="a_node1"><a xlink:title="Catalog application service (HTTP).">
<polygon fill="white" stroke="black" points="151.33,-88.1 154.86,-88.3 158.35,-88.59 161.79,-88.98 165.16,-89.47 168.46,-90.05 171.67,-90.73 174.77,-91.5 177.76,-92.35 180.62,-93.29 183.34,-94.32 185.92,-95.43 188.34,-96.62 190.6,-97.88 192.69,-99.21 194.61,-100.61 196.35,-102.08 197.9,-103.6 199.26,-105.18 200.44,-106.82 201.43,-108.5 202.23,-110.22 202.84,-111.98 203.27,-113.77 203.52,-115.59 203.58,-117.44 203.47,-119.3 203.19,-121.17 202.75,-123.06 202.15,-124.94 201.4,-126.83 200.5,-128.7 199.47,-130.56 198.31,-132.41 197.02,-134.23 195.62,-136.02 194.11,-137.78 192.51,-139.5 190.81,-141.18 189.04,-142.82 187.18,-144.4 185.26,-145.92 183.27,-147.39 181.23,-148.79 179.14,-150.12 177.01,-151.38 174.83,-152.57 172.63,-153.68 170.39,-154.71 168.13,-155.65 165.85,-156.5 163.55,-157.27 161.24,-157.95 158.91,-158.53 156.58,-159.02 154.23,-159.41 151.89,-159.7 149.53,-159.9 147.18,-160 144.82,-160 142.47,-159.9 140.11,-159.7 137.77,-159.41 135.42,-159.02 133.09,-158.53 130.76,-157.95 128.45,-157.27 126.15,-156.5 123.87,-155.65 121.61,-154.71 119.37,-153.68 117.17,-152.57 114.99,-151.38 112.86,-150.12 110.77,-148.79 108.73,-147.39 106.74,-145.92 104.82,-144.4 102.96,-142.82 101.19,-141.18 99.49,-139.5 97.89,-137.78 96.38,-136.02 94.98,-134.23 93.69,-132.41 92.53,-130.56 91.5,-128.7 90.6,-126.83 89.85,-124.94 89.25,-123.06 88.81,-121.17 88.53,-119.3 88.42,-117.44 88.48,-115.59 88.73,-113.77 89.16,-111.98 89.77,-110.22 90.57,-108.5 91.56,-106.82 92.74,-105.18 94.1,-103.6 95.65,-102.08 97.39,-100.61 99.31,-99.21 101.4,-97.88 103.66,-96.62 106.08,-95.43 108.66,-94.32 111.38,-93.29 114.24,-92.35 117.23,-91.5 120.33,-90.73 123.54,-90.05 126.84,-89.47 130.21,-88.98 133.65,-88.59 137.14,-88.3 140.67,-88.1 144.22,-88 147.78,-88 151.33,-88.1"/>
<text xml:space="preserve" text-anchor="middle" x="146" y="-119.8" font-family="sans-serif" font-size="14.00">CatalogService</text>
</a>
</g>
</g>
<!-- #/domains/operations/subdomains/backoffice/boundedcontexts/backoffice_app/services/backoffice -->
<g id="node2" class="node">
<title>#/domains/operations/subdomains/backoffice/boundedcontexts/backoffice_app/services/backoffice</title>
<g id="a_node2"><a xlink:title="Admin/demo app for price updates.">
<polygon fill="white" stroke="black" points="151.32,-368.1 154.84,-368.3 158.33,-368.59 161.76,-368.98 165.13,-369.47 168.42,-370.05 171.63,-370.73 174.72,-371.5 177.71,-372.35 180.56,-373.29 183.28,-374.32 185.85,-375.43 188.27,-376.62 190.53,-377.88 192.62,-379.21 194.53,-380.61 196.26,-382.08 197.81,-383.6 199.17,-385.18 200.35,-386.82 201.34,-388.5 202.14,-390.22 202.75,-391.98 203.18,-393.77 203.42,-395.59 203.49,-397.44 203.38,-399.3 203.1,-401.17 202.66,-403.06 202.06,-404.94 201.31,-406.83 200.41,-408.7 199.38,-410.56 198.22,-412.41 196.94,-414.23 195.54,-416.02 194.03,-417.78 192.43,-419.5 190.74,-421.18 188.96,-422.82 187.11,-424.4 185.19,-425.92 183.21,-427.39 181.17,-428.79 179.09,-430.12 176.96,-431.38 174.79,-432.57 172.58,-433.68 170.35,-434.71 168.1,-435.65 165.82,-436.5 163.52,-437.27 161.21,-437.95 158.89,-438.53 156.56,-439.02 154.22,-439.41 151.88,-439.7 149.53,-439.9 147.18,-440 144.82,-440 142.47,-439.9 140.12,-439.7 137.78,-439.41 135.44,-439.02 133.11,-438.53 130.79,-437.95 128.48,-437.27 126.18,-436.5 123.9,-435.65 121.65,-434.71 119.42,-433.68 117.21,-432.57 115.04,-431.38 112.91,-430.12 110.83,-428.79 108.79,-427.39 106.81,-425.92 104.89,-424.4 103.04,-422.82 101.26,-421.18 99.57,-419.5 97.97,-417.78 96.46,-416.02 95.06,-414.23 93.78,-412.41 92.62,-410.56 91.59,-408.7 90.69,-406.83 89.94,-404.94 89.34,-403.06 88.9,-401.17 88.62,-399.3 88.51,-397.44 88.58,-395.59 88.82,-393.77 89.25,-391.98 89.86,-390.22 90.66,-388.5 91.65,-386.82 92.83,-385.18 94.19,-383.6 95.74,-382.08 97.47,-380.61 99.38,-379.21 101.47,-377.88 103.73,-376.62 106.15,-375.43 108.72,-374.32 111.44,-373.29 114.29,-372.35 117.28,-371.5 120.37,-370.73 123.58,-370.05 126.87,-369.47 130.24,-368.98 133.67,-368.59 137.16,-368.3 140.68,-368.1 144.22,-368 147.78,-368 151.32,-368.1"/>
<text xml:space="preserve" text-anchor="middle" x="146" y="-399.8" font-family="sans-serif" font-size="14.00">Backoffice</text>
</a>
</g>
</g>
<!-- #/domains/operations/subdomains/backoffice/boundedcontexts/backoffice_app/services/backoffice&#45;&gt;#/domains/commerce/subdomains/catalog/boundedcontexts/catalog/services/catalog_service -->
<g id="edge1" class="edge">
<title>#/domains/operations/subdomains/backoffice/boundedcontexts/backoffice_app/services/backoffice&#45;&gt;#/domains/commerce/subdomains/catalog/boundedcontexts/catalog/services/catalog_service</title>
<path fill="none" stroke="black" d="M146,-367.51C146,-317.63 146,-226.72 146,-171.5"/>
<polygon fill="black" stroke="black" points="149.5,-171.79 146,-161.79 142.5,-171.79 149.5,-171.79"/>
<text xml:space="preserve" text-anchor="middle" x="171.55" y="-291" font-family="sans-serif" font-size="10.00">ChangePrice</text>
<g id="a_edge1&#45;headlabel"><a xlink:title="open&#45;host&#45;service">
<text xml:space="preserve" text-anchor="middle" x="146" y="-157.28" font-family="sans-serif" font-size="10.00">OHS</text>
</a>
</g>
<g id="a_edge1&#45;taillabel"><a xlink:title="customer&#45;supplier">
<text xml:space="preserve" text-anchor="middle" x="146" y="-364.51" font-family="sans-serif" font-size="10.00">C/s</text>
</a>
</g>
</g>
</g>
</svg>
