<?xml version="1.0" encoding="UTF-8" standalone="no"?>
<?xml-stylesheet href="data:text/css,.graph%20text%20%7B%0A%09font-family%3A%20sans-serif%3B%0A%09stroke%3A%20white%3B%0A%09paint-order%3A%20stroke%3B%0A%09stroke-width%3A%203%3B%0A%09stroke-linecap%3A%20square%3B%0A%7D%0A%0A.namespace%20polygon%20%7B%0A%09fill-opacity%3A%200.2%3B%0A%09stroke%3A%20none%3B%0A%7D%0A" type="text/css"?>
<!DOCTYPE svg PUBLIC "-//W3C//DTD SVG 1.1//EN"
 "http://www.w3.org/Graphics/SVG/1.1/DTD/svg11.dtd">
<!-- Generated by graphviz version 13.1.2 (0)
 -->
<!-- Pages: 1 -->
<svg width="628pt" height="788pt"
 viewBox="0.00 0.00 628.00 788.00" xmlns="http://www.w3.org/2000/svg" xmlns:xlink="http://www.w3.org/1999/xlink">
<g id="graph0" class="graph" transform="scale(1 1) rotate(0) translate(4 784)">
<polygon fill="white" stroke="none" points="-4,4 -4,-784 624,-784 624,4 -4,4"/>
<g id="clust1" class="cluster namespace">
<title>e_shop</title>
<polygon fill="lightgrey" stroke="lightgrey" points="8,-8 8,-772 612,-772 612,-8 8,-8"/>
<text xml:space="preserve" text-anchor="middle" x="310" y="-759" font-family="sans-serif" font-size="10.00">eShop</text>
</g>
<g id="clust2" class="cluster namespace">
<title>#/domains/commerce</title>
<polygon fill="lightgrey" stroke="lightgrey" points="71,-272 71,-488 351,-488 351,-272 71,-272"/>
<text xml:space="preserve" text-anchor="middle" x="211" y="-475" font-family="sans-serif" font-size="10.00">Commerce</text>
</g>
<g id="clust3" class="cluster namespace">
<title>#/domains/commerce/subdomains/ordering</title>
<polygon fill="lightgrey" stroke="lightgrey" points="91,-292 91,-448 331,-448 331,-292 91,-292"/>
<text xml:space="preserve" text-anchor="middle" x="211" y="-435" font-family="sans-serif" font-size="10.00">Ordering</text>
</g>
<g id="clust4" class="cluster namespace">
<title>#/domains/commerce/subdomains/ordering/boundedcontexts/ordering.api</title>
<polygon fill="lightgrey" stroke="lightgrey" points="111,-312 111,-408 311,-408 311,-312 111,-312"/>
<text xml:space="preserve" text-anchor="middle" x="211" y="-395" font-family="sans-serif" font-size="10.00">Ordering.API</text>
</g>
<g id="clust5" class="cluster namespace">
<title>#/domains/edge_&amp;_experience</title>
<polygon fill="lightgrey" stroke="lightgrey" points="28,-516 28,-732 278,-732 278,-516 28,-516"/>
<text xml:space="preserve" text-anchor="middle" x="153" y="-719" font-family="sans-serif" font-size="10.00">Edge &amp; Experience</text>
</g>
<g id="clust6" class="cluster namespace">
<title>#/domains/edge_&amp;_experience/subdomains/mobile</title>
<polygon fill="lightgrey" stroke="lightgrey" points="48,-536 48,-692 258,-692 258,-536 48,-536"/>
<text xml:space="preserve" text-anchor="middle" x="153" y="-679" font-family="sans-serif" font-size="10.00">Mobile</text>
</g>
<g id="clust7" class="cluster namespace">
<title>#/domains/edge_&amp;_experience/subdomains/mobile/boundedcontexts/experience_bff</title>
<polygon fill="lightgrey" stroke="lightgrey" points="68,-556 68,-652 238,-652 238,-556 68,-556"/>
<text xml:space="preserve" text-anchor="middle" x="153" y="-639" font-family="sans-serif" font-size="10.00">Experience BFF</text>
</g>
<g id="clust8" class="cluster namespace">
<title>#/domains/api_integration</title>
<polygon fill="lightgrey" stroke="lightgrey" points="298,-516 298,-732 592,-732 592,-516 298,-516"/>
<text xml:space="preserve" text-anchor="middle" x="445" y="-719" font-family="sans-serif" font-size="10.00">API Integration</text>
</g>
<g id="clust9" class="cluster namespace">
<title>#/domains/api_integration/subdomains/webhooks</title>
<polygon fill="lightgrey" stroke="lightgrey" points="318,-536 318,-692 572,-692 572,-536 318,-536"/>
<text xml:space="preserve" text-anchor="middle" x="445" y="-679" font-family="sans-serif" font-size="10.00">Webhooks</text>
</g>
<g id="clust10" class="cluster namespace">
<title>#/domains/api_integration/subdomains/webhooks/boundedcontexts/webhooks.api</title>
<polygon fill="lightgrey" stroke="lightgrey" points="338,-556 338,-652 552,-652 552,-556 338,-556"/>
<text xml:space="preserve" text-anchor="middle" x="445" y="-639" font-family="sans-serif" font-size="10.00">Webhooks.API</text>
</g>
<g id="clust11" class="cluster namespace">
<title>#/domains/payment_processing</title>
<polygon fill="lightgrey" stroke="lightgrey" points="72,-28 72,-244 350,-244 350,-28 72,-28"/>
<text xml:space="preserve" text-anchor="middle" x="211" y="-231" font-family="sans-serif" font-size="10.00">Payment Processing</text>
</g>
<g id="clust12" class="cluster namespace">
<title>#/domains/payment_processing/subdomains/payment_processors</title>
<polygon fill="lightgrey" stroke="lightgrey" points="92,-48 92,-204 330,-204 330,-48 92,-48"/>
<text xml:space="preserve" text-anchor="middle" x="211" y="-191" font-family="sans-serif" font-size="10.00">Payment Processors</text>
</g>
<g id="clust13" class="cluster namespace">
<title>#/domains/payment_processing/subdomains/payment_processors/boundedcontexts/payment_processor</title>
<polygon fill="lightgrey" stroke="lightgrey" points="112,-68 112,-164 310,-164 310,-68 112,-68"/>
<text xml:space="preserve" text-anchor="middle" x="211" y="-151" font-family="sans-serif" font-size="10.00">PaymentProcessor</text>
</g>
<!-- #/domains/commerce/subdomains/ordering/boundedcontexts/ordering.api/services/ordering_service -->
<g id="node1" class="node">
<title>#/domains/commerce/subdomains/ordering/boundedcontexts/ordering.api/services/ordering_service</title>
<g id="a_node1"><a xlink:title="Ordering application service.">
<polygon fill="white" stroke="black" points="218.38,-332.05 223.26,-332.15 228.09,-332.3 232.86,-332.49 237.53,-332.74 242.1,-333.03 246.53,-333.36 250.83,-333.75 254.97,-334.18 258.93,-334.65 262.7,-335.16 266.26,-335.71 269.62,-336.31 272.75,-336.94 275.64,-337.61 278.29,-338.31 280.7,-339.04 282.84,-339.8 284.73,-340.59 286.37,-341.41 287.73,-342.25 288.84,-343.11 289.69,-343.99 290.28,-344.89 290.62,-345.8 290.71,-346.72 290.56,-347.65 290.18,-348.59 289.57,-349.53 288.73,-350.47 287.69,-351.41 286.45,-352.35 285.02,-353.28 283.41,-354.2 281.63,-355.11 279.69,-356.01 277.61,-356.89 275.39,-357.75 273.04,-358.59 270.58,-359.41 268.01,-360.2 265.35,-360.96 262.6,-361.69 259.77,-362.39 256.88,-363.06 253.92,-363.69 250.92,-364.29 247.86,-364.84 244.77,-365.35 241.64,-365.82 238.48,-366.25 235.3,-366.64 232.1,-366.97 228.88,-367.26 225.64,-367.51 222.4,-367.7 219.15,-367.85 215.89,-367.95 212.63,-368 209.37,-368 206.11,-367.95 202.85,-367.85 199.6,-367.7 196.36,-367.51 193.12,-367.26 189.9,-366.97 186.7,-366.64 183.52,-366.25 180.36,-365.82 177.23,-365.35 174.14,-364.84 171.08,-364.29 168.08,-363.69 165.12,-363.06 162.23,-362.39 159.4,-361.69 156.65,-360.96 153.99,-360.2 151.42,-359.41 148.96,-358.59 146.61,-357.75 144.39,-356.89 142.31,-356.01 140.37,-355.11 138.59,-354.2 136.98,-353.28 135.55,-352.35 134.31,-351.41 133.27,-350.47 132.43,-349.53 131.82,-348.59 131.44,-347.65 131.29,-346.72 131.38,-345.8 131.72,-344.89 132.31,-343.99 133.16,-343.11 134.27,-342.25 135.63,-341.41 137.27,-340.59 139.16,-339.8 141.3,-339.04 143.71,-338.31 146.36,-337.61 149.25,-336.94 152.38,-336.31 155.74,-335.71 159.3,-335.16 163.07,-334.65 167.03,-334.18 171.17,-333.75 175.47,-333.36 179.9,-333.03 184.47,-332.74 189.14,-332.49 193.91,-332.3 198.74,-332.15 203.62,-332.05 208.54,-332 213.46,-332 218.38,-332.05"/>
<text xml:space="preserve" text-anchor="middle" x="211" y="-345.8" font-family="sans-serif" font-size="14.00">OrderingService</text>
</a>
</g>
</g>
<!-- #/domains/payment_processing/subdomains/payment_processors/boundedcontexts/payment_processor/services/payment_service -->
<g id="node4" class="node">
<title>#/domains/payment_processing/subdomains/payment_processors/boundedcontexts/payment_processor/services/payment_service</title>
<g id="a_node4"><a xlink:title="Takes payments and emits status changes.">
<polygon fill="white" stroke="black" points="218.27,-88.05 223.09,-88.15 227.85,-88.3 232.55,-88.49 237.15,-88.74 241.65,-89.03 246.03,-89.36 250.26,-89.75 254.34,-90.18 258.24,-90.65 261.96,-91.16 265.48,-91.71 268.78,-92.31 271.87,-92.94 274.72,-93.61 277.33,-94.31 279.7,-95.04 281.82,-95.8 283.69,-96.59 285.29,-97.41 286.64,-98.25 287.73,-99.11 288.57,-99.99 289.16,-100.89 289.49,-101.8 289.58,-102.72 289.43,-103.65 289.05,-104.59 288.45,-105.53 287.63,-106.47 286.6,-107.41 285.38,-108.35 283.97,-109.28 282.38,-110.2 280.62,-111.11 278.71,-112.01 276.66,-112.89 274.47,-113.75 272.16,-114.59 269.73,-115.41 267.2,-116.2 264.57,-116.96 261.86,-117.69 259.08,-118.39 256.23,-119.06 253.31,-119.69 250.35,-120.29 247.34,-120.84 244.29,-121.35 241.2,-121.82 238.09,-122.25 234.95,-122.64 231.8,-122.97 228.62,-123.26 225.43,-123.51 222.24,-123.7 219.03,-123.85 215.82,-123.95 212.61,-124 209.39,-124 206.18,-123.95 202.97,-123.85 199.76,-123.7 196.57,-123.51 193.38,-123.26 190.2,-122.97 187.05,-122.64 183.91,-122.25 180.8,-121.82 177.71,-121.35 174.66,-120.84 171.65,-120.29 168.69,-119.69 165.77,-119.06 162.92,-118.39 160.14,-117.69 157.43,-116.96 154.8,-116.2 152.27,-115.41 149.84,-114.59 147.53,-113.75 145.34,-112.89 143.29,-112.01 141.38,-111.11 139.62,-110.2 138.03,-109.28 136.62,-108.35 135.4,-107.41 134.37,-106.47 133.55,-105.53 132.95,-104.59 132.57,-103.65 132.42,-102.72 132.51,-101.8 132.84,-100.89 133.43,-99.99 134.27,-99.11 135.36,-98.25 136.71,-97.41 138.31,-96.59 140.18,-95.8 142.3,-95.04 144.67,-94.31 147.28,-93.61 150.13,-92.94 153.22,-92.31 156.52,-91.71 160.04,-91.16 163.76,-90.65 167.66,-90.18 171.74,-89.75 175.97,-89.36 180.35,-89.03 184.85,-88.74 189.45,-88.49 194.15,-88.3 198.91,-88.15 203.73,-88.05 208.57,-88 213.43,-88 218.27,-88.05"/>
<text xml:space="preserve" text-anchor="middle" x="211" y="-101.8" font-family="sans-serif" font-size="14.00">PaymentService</text>
</a>
</g>
</g>
<!-- #/domains/commerce/subdomains/ordering/boundedcontexts/ordering.api/services/ordering_service&#45;&gt;#/domains/payment_processing/subdomains/payment_processors/boundedcontexts/payment_processor/services/payment_service -->
<g id="edge3" class="edge">
<title>#/domains/commerce/subdomains/ordering/boundedcontexts/ordering.api/services/ordering_service&#45;&gt;#/domains/payment_processing/subdomains/payment_processors/boundedcontexts/payment_processor/services/payment_service</title>
<path fill="none" stroke="black" d="M176.07,-332.99C145.33,-316.28 106.97,-287.57 117.45,-252 131.22,-205.27 165.24,-159.4 188.23,-132.15"/>
<polygon fill="black" stroke="black" points="190.7,-134.66 194.57,-124.8 185.39,-130.09 190.7,-134.66"/>
<text xml:space="preserve" text-anchor="middle" x="150.23" y="-255" font-family="sans-serif" font-size="10.00">ProcessPayment</text>
<g id="a_edge3&#45;headlabel"><a xlink:title="open&#45;host&#45;service">
<text xml:space="preserve" text-anchor="middle" x="195.56" y="-120.65" font-family="sans-serif" font-size="10.00">OHS</text>
</a>
</g>
<g id="a_edge3&#45;taillabel"><a xlink:title="customer&#45;supplier">
<text xml:space="preserve" text-anchor="middle" x="176.07" y="-329.99" font-family="sans-serif" font-size="10.00">C/s</text>
</a>
</g>
</g>
<!-- #/domains/commerce/subdomains/ordering/boundedcontexts/ordering.api/services/ordering_service&#45;&gt;#/domains/payment_processing/subdomains/payment_processors/boundedcontexts/payment_processor/services/payment_service -->
<g id="edge4" class="edge">
<title>#/domains/commerce/subdomains/ordering/boundedcontexts/ordering.api/services/ordering_service&#45;&gt;#/domains/payment_processing/subdomains/payment_processors/boundedcontexts/payment_processor/services/payment_service</title>
<path fill="none" stroke="black" d="M211,-331.6C211,-290.35 211,-186.31 211,-135.63"/>
<polygon fill="black" stroke="black" points="214.5,-135.76 211,-125.76 207.5,-135.76 214.5,-135.76"/>
<text xml:space="preserve" text-anchor="middle" x="249.87" y="-255" font-family="sans-serif" font-size="10.00">PaymentSucceeded</text>
<g id="a_edge4&#45;headlabel"><a xlink:title="published&#45;language">
<text xml:space="preserve" text-anchor="middle" x="211" y="-121.25" font-family="sans-serif" font-size="10.00">PL</text>
</a>
</g>
<g id="a_edge4&#45;taillabel"><a xlink:title="conformist">
<text xml:space="preserve" text-anchor="middle" x="211" y="-328.6" font-family="sans-serif" font-size="10.00">C</text>
</a>
</g>
</g>
<!-- #/domains/edge_&amp;_experience/subdomains/mobile/boundedcontexts/experience_bff/services/shopping_bff -->
<g id="node2" class="node">
<title>#/domains/edge_&amp;_experience/subdomains/mobile/boundedcontexts/experience_bff/services/shopping_bff</title>
<g id="a_node2"><a xlink:title="BFF that aggregates catalog/basket/ordering.">
<polygon fill="white" stroke="black" points="159,-576.05 162.98,-576.15 166.91,-576.3 170.79,-576.49 174.6,-576.74 178.31,-577.03 181.93,-577.36 185.42,-577.75 188.79,-578.18 192.01,-578.65 195.08,-579.16 197.99,-579.71 200.72,-580.31 203.26,-580.94 205.62,-581.61 207.78,-582.31 209.73,-583.04 211.48,-583.8 213.02,-584.59 214.35,-585.41 215.47,-586.25 216.37,-587.11 217.06,-587.99 217.54,-588.89 217.82,-589.8 217.89,-590.72 217.77,-591.65 217.45,-592.59 216.96,-593.53 216.28,-594.47 215.43,-595.41 214.42,-596.35 213.26,-597.28 211.94,-598.2 210.5,-599.11 208.92,-600.01 207.22,-600.89 205.41,-601.75 203.5,-602.59 201.5,-603.41 199.41,-604.2 197.24,-604.96 195,-605.69 192.7,-606.39 190.35,-607.06 187.94,-607.69 185.49,-608.29 183.01,-608.84 180.49,-609.35 177.94,-609.82 175.37,-610.25 172.78,-610.64 170.17,-610.97 167.55,-611.26 164.92,-611.51 162.28,-611.7 159.63,-611.85 156.98,-611.95 154.33,-612 151.67,-612 149.02,-611.95 146.37,-611.85 143.72,-611.7 141.08,-611.51 138.45,-611.26 135.83,-610.97 133.22,-610.64 130.63,-610.25 128.06,-609.82 125.51,-609.35 122.99,-608.84 120.51,-608.29 118.06,-607.69 115.65,-607.06 113.3,-606.39 111,-605.69 108.76,-604.96 106.59,-604.2 104.5,-603.41 102.5,-602.59 100.59,-601.75 98.78,-600.89 97.08,-600.01 95.5,-599.11 94.06,-598.2 92.74,-597.28 91.58,-596.35 90.57,-595.41 89.72,-594.47 89.04,-593.53 88.55,-592.59 88.23,-591.65 88.11,-590.72 88.18,-589.8 88.46,-588.89 88.94,-587.99 89.63,-587.11 90.53,-586.25 91.65,-585.41 92.98,-584.59 94.52,-583.8 96.27,-583.04 98.22,-582.31 100.38,-581.61 102.74,-580.94 105.28,-580.31 108.01,-579.71 110.92,-579.16 113.99,-578.65 117.21,-578.18 120.58,-577.75 124.07,-577.36 127.69,-577.03 131.4,-576.74 135.21,-576.49 139.09,-576.3 143.02,-576.15 147,-576.05 151,-576 155,-576 159,-576.05"/>
<text xml:space="preserve" text-anchor="middle" x="153" y="-589.8" font-family="sans-serif" font-size="14.00">ShoppingBff</text>
</a>
</g>
</g>
<!-- #/domains/edge_&amp;_experience/subdomains/mobile/boundedcontexts/experience_bff/services/shopping_bff&#45;&gt;#/domains/commerce/subdomains/ordering/boundedcontexts/ordering.api/services/ordering_service -->
<g id="edge1" class="edge">
<title>#/domains/edge_&amp;_experience/subdomains/mobile/boundedcontexts/experience_bff/services/shopping_bff&#45;&gt;#/domains/commerce/subdomains/ordering/boundedcontexts/ordering.api/services/ordering_service</title>
<path fill="none" stroke="black" d="M157.17,-575.6C167.08,-534.26 192.1,-429.87 204.22,-379.31"/>
<polygon fill="black" stroke="black" points="207.59,-380.26 206.51,-369.72 200.78,-378.63 207.59,-380.26"/>
<text xml:space="preserve" text-anchor="middle" x="197.59" y="-499" font-family="sans-serif" font-size="10.00">PlaceOrder</text>
<g id="a_edge1&#45;headlabel"><a xlink:title="open&#45;host&#45;service">
<text xml:space="preserve" text-anchor="middle" x="206.87" y="-365.25" font-family="sans-serif" font-size="10.00">OHS</text>
</a>
</g>
<g id="a_edge1&#45;taillabel"><a xlink:title="anti&#45;corruption&#45;layer">
<text xml:space="preserve" text-anchor="middle" x="157.17" y="-572.6" font-family="sans-serif" font-size="10.00">ACL</text>
</a>
</g>
</g>
<!-- #/domains/api_integration/subdomains/webhooks/boundedcontexts/webhooks.api/services/webhooks_service -->
<g id="node3" class="node">
<title>#/domains/api_integration/subdomains/webhooks/boundedcontexts/webhooks.api/services/webhooks_service</title>
<g id="a_node3"><a xlink:title="Register webhooks and deliver order events to subscribers.">
<polygon fill="white" stroke="black" points="453.01,-576.05 458.32,-576.15 463.56,-576.3 468.74,-576.49 473.81,-576.74 478.77,-577.03 483.59,-577.36 488.26,-577.75 492.75,-578.18 497.05,-578.65 501.15,-579.16 505.02,-579.71 508.66,-580.31 512.06,-580.94 515.2,-581.61 518.08,-582.31 520.69,-583.04 523.03,-583.8 525.08,-584.59 526.85,-585.41 528.34,-586.25 529.54,-587.11 530.46,-587.99 531.11,-588.89 531.47,-589.8 531.57,-590.72 531.41,-591.65 530.99,-592.59 530.33,-593.53 529.42,-594.47 528.29,-595.41 526.94,-596.35 525.39,-597.28 523.64,-598.2 521.71,-599.11 519.6,-600.01 517.34,-600.89 514.93,-601.75 512.38,-602.59 509.7,-603.41 506.92,-604.2 504.02,-604.96 501.04,-605.69 497.97,-606.39 494.83,-607.06 491.62,-607.69 488.35,-608.29 485.03,-608.84 481.67,-609.35 478.28,-609.82 474.85,-610.25 471.39,-610.64 467.91,-610.97 464.41,-611.26 460.9,-611.51 457.38,-611.7 453.85,-611.85 450.31,-611.95 446.77,-612 443.23,-612 439.69,-611.95 436.15,-611.85 432.62,-611.7 429.1,-611.51 425.59,-611.26 422.09,-610.97 418.61,-610.64 415.15,-610.25 411.72,-609.82 408.33,-609.35 404.97,-608.84 401.65,-608.29 398.38,-607.69 395.17,-607.06 392.03,-606.39 388.96,-605.69 385.98,-604.96 383.08,-604.2 380.3,-603.41 377.62,-602.59 375.07,-601.75 372.66,-600.89 370.4,-600.01 368.29,-599.11 366.36,-598.2 364.61,-597.28 363.06,-596.35 361.71,-595.41 360.58,-594.47 359.67,-593.53 359.01,-592.59 358.59,-591.65 358.43,-590.72 358.53,-589.8 358.89,-588.89 359.54,-587.99 360.46,-587.11 361.66,-586.25 363.15,-585.41 364.92,-584.59 366.97,-583.8 369.31,-583.04 371.92,-582.31 374.8,-581.61 377.94,-580.94 381.34,-580.31 384.98,-579.71 388.85,-579.16 392.95,-578.65 397.25,-578.18 401.74,-577.75 406.41,-577.36 411.23,-577.03 416.19,-576.74 421.26,-576.49 426.44,-576.3 431.68,-576.15 436.99,-576.05 442.33,-576 447.67,-576 453.01,-576.05"/>
<text xml:space="preserve" text-anchor="middle" x="445" y="-589.8" font-family="sans-serif" font-size="14.00">WebhooksService</text>
</a>
</g>
</g>
<!-- #/domains/api_integration/subdomains/webhooks/boundedcontexts/webhooks.api/services/webhooks_service&#45;&gt;#/domains/commerce/subdomains/ordering/boundedcontexts/ordering.api/services/ordering_service -->
<g id="edge2" class="edge">
<title>#/domains/api_integration/subdomains/webhooks/boundedcontexts/webhooks.api/services/webhooks_service&#45;&gt;#/domains/commerce/subdomains/ordering/boundedcontexts/ordering.api/services/ordering_service</title>
<path fill="none" stroke="black" d="M428.55,-575.98C387.92,-533.96 282.69,-425.14 235.06,-375.88"/>
<polygon fill="black" stroke="black" points="237.65,-373.52 228.18,-368.76 232.61,-378.39 237.65,-373.52"/>
<text xml:space="preserve" text-anchor="middle" x="383.18" y="-499" font-family="sans-serif" font-size="10.00">OrderPaid</text>
<g id="a_edge2&#45;headlabel"><a xlink:title="published&#45;language">
<text xml:space="preserve" text-anchor="middle" x="227.13" y="-364.68" font-family="sans-serif" font-size="10.00">PL</text>
</a>
</g>
<g id="a_edge2&#45;taillabel"><a xlink:title="conformist">
<text xml:space="preserve" text-anchor="middle" x="428.55" y="-572.98" font-family="sans-serif" font-size="10.00">C</text>
</a>
</g>
</g>
</g>
</svg>
