<?xml version="1.0" encoding="UTF-8" standalone="no"?>
<?xml-stylesheet href="data:text/css,.graph%20text%20%7B%0A%09font-family%3A%20sans-serif%3B%0A%09stroke%3A%20white%3B%0A%09paint-order%3A%20stroke%3B%0A%09stroke-width%3A%203%3B%0A%09stroke-linecap%3A%20square%3B%0A%7D%0A%0A.namespace%20polygon%20%7B%0A%09fill-opacity%3A%200.2%3B%0A%09stroke%3A%20none%3B%0A%7D%0A" type="text/css"?>
<!DOCTYPE svg PUBLIC "-//W3C//DTD SVG 1.1//EN"
 "http://www.w3.org/Graphics/SVG/1.1/DTD/svg11.dtd">
<!-- Generated by graphviz version 13.1.2 (0)
 -->
<!-- Pages: 1 -->
<svg width="691pt" height="616pt"
 viewBox="0.00 0.00 691.00 616.00" xmlns="http://www.w3.org/2000/svg" xmlns:xlink="http://www.w3.org/1999/xlink">
<g id="graph0" class="graph" transform="scale(1 1) rotate(0) translate(4 612)">
<polygon fill="white" stroke="none" points="-4,4 -4,-612 687,-612 687,4 -4,4"/>
<g id="clust1" class="cluster namespace">
<title>e_shop</title>
<polygon fill="lightgrey" stroke="lightgrey" points="8,-8 8,-600 675,-600 675,-8 8,-8"/>
<text xml:space="preserve" text-anchor="middle" x="341.5" y="-587" font-family="sans-serif" font-size="10.00">eShop</text>
</g>
<g id="clust2" class="cluster namespace">
<title>#/domains/commerce</title>
<polygon fill="lightgrey" stroke="lightgrey" points="229,-28 229,-280 463,-280 463,-28 229,-28"/>
<text xml:space="preserve" text-anchor="middle" x="346" y="-267" font-family="sans-serif" font-size="10.00">Commerce</text>
</g>
<g id="clust3" class="cluster namespace">
<title>#/domains/commerce/subdomains/basket</title>
<polygon fill="lightgrey" stroke="lightgrey" points="249,-48 249,-240 443,-240 443,-48 249,-48"/>
<text xml:space="preserve" text-anchor="middle" x="346" y="-227" font-family="sans-serif" font-size="10.00">Basket</text>
</g>
<g id="clust4" class="cluster namespace">
<title>#/domains/commerce/subdomains/basket/boundedcontexts/basket</title>
<polygon fill="lightgrey" stroke="lightgrey" points="269,-68 269,-200 423,-200 423,-68 269,-68"/>
<text xml:space="preserve" text-anchor="middle" x="346" y="-187" font-family="sans-serif" font-size="10.00">Basket</text>
</g>
<g id="clust5" class="cluster namespace">
<title>#/domains/edge_&amp;_experience</title>
<polygon fill="lightgrey" stroke="lightgrey" points="123,-308 123,-560 571,-560 571,-308 123,-308"/>
<text xml:space="preserve" text-anchor="middle" x="347" y="-547" font-family="sans-serif" font-size="10.00">Edge &amp; Experience</text>
</g>
<g id="clust6" class="cluster namespace">
<title>#/domains/edge_&amp;_experience/subdomains/web</title>
<polygon fill="lightgrey" stroke="lightgrey" points="143,-328 143,-520 337,-520 337,-328 143,-328"/>
<text xml:space="preserve" text-anchor="middle" x="240" y="-507" font-family="sans-serif" font-size="10.00">Web</text>
</g>
<g id="clust7" class="cluster namespace">
<title>#/domains/edge_&amp;_experience/subdomains/web/boundedcontexts/web</title>
<polygon fill="lightgrey" stroke="lightgrey" points="163,-348 163,-480 317,-480 317,-348 163,-348"/>
<text xml:space="preserve" text-anchor="middle" x="240" y="-467" font-family="sans-serif" font-size="10.00">Web</text>
</g>
<g id="clust8" class="cluster namespace">
<title>#/domains/edge_&amp;_experience/subdomains/mobile</title>
<polygon fill="lightgrey" stroke="lightgrey" points="357,-328 357,-520 551,-520 551,-328 357,-328"/>
<text xml:space="preserve" text-anchor="middle" x="454" y="-507" font-family="sans-serif" font-size="10.00">Mobile</text>
</g>
<g id="clust9" class="cluster namespace">
<title>#/domains/edge_&amp;_experience/subdomains/mobile/boundedcontexts/mobile_bff</title>
<polygon fill="lightgrey" stroke="lightgrey" points="377,-348 377,-480 531,-480 531,-348 377,-348"/>
<text xml:space="preserve" text-anchor="middle" x="454" y="-467" font-family="sans-serif" font-size="10.00">Mobile BFF</text>
</g>
<!-- #/domains/commerce/subdomains/basket/boundedcontexts/basket/services/basket_service -->
<g id="node1" class="node">
<title>#/domains/commerce/subdomains/basket/boundedcontexts/basket/services/basket_service</title>
<g id="a_node1"><a xlink:title="Basket application service.">
<polygon fill="white" stroke="black" points="351.32,-88.1 354.84,-88.3 358.33,-88.59 361.76,-88.98 365.13,-89.47 368.42,-90.05 371.63,-90.73 374.72,-91.5 377.71,-92.35 380.56,-93.29 383.28,-94.32 385.85,-95.43 388.27,-96.62 390.53,-97.88 392.62,-99.21 394.53,-100.61 396.26,-102.08 397.81,-103.6 399.17,-105.18 400.35,-106.82 401.34,-108.5 402.14,-110.22 402.75,-111.98 403.18,-113.77 403.42,-115.59 403.49,-117.44 403.38,-119.3 403.1,-121.17 402.66,-123.06 402.06,-124.94 401.31,-126.83 400.41,-128.7 399.38,-130.56 398.22,-132.41 396.94,-134.23 395.54,-136.02 394.03,-137.78 392.43,-139.5 390.74,-141.18 388.96,-142.82 387.11,-144.4 385.19,-145.92 383.21,-147.39 381.17,-148.79 379.09,-150.12 376.96,-151.38 374.79,-152.57 372.58,-153.68 370.35,-154.71 368.1,-155.65 365.82,-156.5 363.52,-157.27 361.21,-157.95 358.89,-158.53 356.56,-159.02 354.22,-159.41 351.88,-159.7 349.53,-159.9 347.18,-160 344.82,-160 342.47,-159.9 340.12,-159.7 337.78,-159.41 335.44,-159.02 333.11,-158.53 330.79,-157.95 328.48,-157.27 326.18,-156.5 323.9,-155.65 321.65,-154.71 319.42,-153.68 317.21,-152.57 315.04,-151.38 312.91,-150.12 310.83,-148.79 308.79,-147.39 306.81,-145.92 304.89,-144.4 303.04,-142.82 301.26,-141.18 299.57,-139.5 297.97,-137.78 296.46,-136.02 295.06,-134.23 293.78,-132.41 292.62,-130.56 291.59,-128.7 290.69,-126.83 289.94,-124.94 289.34,-123.06 288.9,-121.17 288.62,-119.3 288.51,-117.44 288.58,-115.59 288.82,-113.77 289.25,-111.98 289.86,-110.22 290.66,-108.5 291.65,-106.82 292.83,-105.18 294.19,-103.6 295.74,-102.08 297.47,-100.61 299.38,-99.21 301.47,-97.88 303.73,-96.62 306.15,-95.43 308.72,-94.32 311.44,-93.29 314.29,-92.35 317.28,-91.5 320.37,-90.73 323.58,-90.05 326.87,-89.47 330.24,-88.98 333.67,-88.59 337.16,-88.3 340.68,-88.1 344.22,-88 347.78,-88 351.32,-88.1"/>
<text xml:space="preserve" text-anchor="middle" x="346" y="-119.8" font-family="sans-serif" font-size="14.00">BasketService</text>
</a>
</g>
</g>
<!-- #/domains/edge_&amp;_experience/subdomains/web/boundedcontexts/web/services/web_app -->
<g id="node2" class="node">
<title>#/domains/edge_&amp;_experience/subdomains/web/boundedcontexts/web/services/web_app</title>
<g id="a_node2"><a xlink:title="Blazor Server web app for customers.">
<polygon fill="white" stroke="black" points="245.32,-368.1 248.84,-368.3 252.33,-368.59 255.76,-368.98 259.13,-369.47 262.42,-370.05 265.63,-370.73 268.72,-371.5 271.71,-372.35 274.56,-373.29 277.28,-374.32 279.85,-375.43 282.27,-376.62 284.53,-377.88 286.62,-379.21 288.53,-380.61 290.26,-382.08 291.81,-383.6 293.17,-385.18 294.35,-386.82 295.34,-388.5 296.14,-390.22 296.75,-391.98 297.18,-393.77 297.42,-395.59 297.49,-397.44 297.38,-399.3 297.1,-401.17 296.66,-403.06 296.06,-404.94 295.31,-406.83 294.41,-408.7 293.38,-410.56 292.22,-412.41 290.94,-414.23 289.54,-416.02 288.03,-417.78 286.43,-419.5 284.74,-421.18 282.96,-422.82 281.11,-424.4 279.19,-425.92 277.21,-427.39 275.17,-428.79 273.09,-430.12 270.96,-431.38 268.79,-432.57 266.58,-433.68 264.35,-434.71 262.1,-435.65 259.82,-436.5 257.52,-437.27 255.21,-437.95 252.89,-438.53 250.56,-439.02 248.22,-439.41 245.88,-439.7 243.53,-439.9 241.18,-440 238.82,-440 236.47,-439.9 234.12,-439.7 231.78,-439.41 229.44,-439.02 227.11,-438.53 224.79,-437.95 222.48,-437.27 220.18,-436.5 217.9,-435.65 215.65,-434.71 213.42,-433.68 211.21,-432.57 209.04,-431.38 206.91,-430.12 204.83,-428.79 202.79,-427.39 200.81,-425.92 198.89,-424.4 197.04,-422.82 195.26,-421.18 193.57,-419.5 191.97,-417.78 190.46,-416.02 189.06,-414.23 187.78,-412.41 186.62,-410.56 185.59,-408.7 184.69,-406.83 183.94,-404.94 183.34,-403.06 182.9,-401.17 182.62,-399.3 182.51,-397.44 182.58,-395.59 182.82,-393.77 183.25,-391.98 183.86,-390.22 184.66,-388.5 185.65,-386.82 186.83,-385.18 188.19,-383.6 189.74,-382.08 191.47,-380.61 193.38,-379.21 195.47,-377.88 197.73,-376.62 200.15,-375.43 202.72,-374.32 205.44,-373.29 208.29,-372.35 211.28,-371.5 214.37,-370.73 217.58,-370.05 220.87,-369.47 224.24,-368.98 227.67,-368.59 231.16,-368.3 234.68,-368.1 238.22,-368 241.78,-368 245.32,-368.1"/>
<text xml:space="preserve" text-anchor="middle" x="240" y="-399.8" font-family="sans-serif" font-size="14.00">WebApp</text>
</a>
</g>
</g>
<!-- #/domains/edge_&amp;_experience/subdomains/web/boundedcontexts/web/services/web_app&#45;&gt;#/domains/commerce/subdomains/basket/boundedcontexts/basket/services/basket_service -->
<g id="edge1" class="edge">
<title>#/domains/edge_&amp;_experience/subdomains/web/boundedcontexts/web/services/web_app&#45;&gt;#/domains/commerce/subdomains/basket/boundedcontexts/basket/services/basket_service</title>
<path fill="none" stroke="black" d="M183.9,-389.06C126.4,-371.73 49.1,-338.18 77.34,-288 121.93,-208.79 222.28,-163.64 286.92,-141.77"/>
<polygon fill="black" stroke="black" points="287.92,-145.13 296.32,-138.68 285.73,-138.48 287.92,-145.13"/>
<text xml:space="preserve" text-anchor="middle" x="98.17" y="-291" font-family="sans-serif" font-size="10.00">GetBasket</text>
<g id="a_edge1&#45;headlabel"><a xlink:title="open&#45;host&#45;service">
<text xml:space="preserve" text-anchor="middle" x="297.76" y="-135.21" font-family="sans-serif" font-size="10.00">OHS</text>
</a>
</g>
<g id="a_edge1&#45;taillabel"><a xlink:title="anti&#45;corruption&#45;layer">
<text xml:space="preserve" text-anchor="middle" x="183.9" y="-386.06" font-family="sans-serif" font-size="10.00">ACL</text>
</a>
</g>
</g>
<!-- #/domains/edge_&amp;_experience/subdomains/web/boundedcontexts/web/services/web_app&#45;&gt;#/domains/commerce/subdomains/basket/boundedcontexts/basket/services/basket_service -->
<g id="edge3" class="edge">
<title>#/domains/edge_&amp;_experience/subdomains/web/boundedcontexts/web/services/web_app&#45;&gt;#/domains/commerce/subdomains/basket/boundedcontexts/basket/services/basket_service</title>
<path fill="none" stroke="black" d="M208.7,-372.31C189.33,-349.46 170.3,-317.28 182.45,-288 206.15,-230.93 260.6,-183.49 300.18,-154.78"/>
<polygon fill="black" stroke="black" points="302.03,-157.76 308.16,-149.11 297.98,-152.05 302.03,-157.76"/>
<text xml:space="preserve" text-anchor="middle" x="200.23" y="-291" font-family="sans-serif" font-size="10.00">AddItem</text>
<g id="a_edge3&#45;headlabel"><a xlink:title="open&#45;host&#45;service">
<text xml:space="preserve" text-anchor="middle" x="309.39" y="-145.23" font-family="sans-serif" font-size="10.00">OHS</text>
</a>
</g>
<g id="a_edge3&#45;taillabel"><a xlink:title="anti&#45;corruption&#45;layer">
<text xml:space="preserve" text-anchor="middle" x="208.7" y="-369.31" font-family="sans-serif" font-size="10.00">ACL</text>
</a>
</g>
</g>
<!-- #/domains/edge_&amp;_experience/subdomains/web/boundedcontexts/web/services/web_app&#45;&gt;#/domains/commerce/subdomains/basket/boundedcontexts/basket/services/basket_service -->
<g id="edge5" class="edge">
<title>#/domains/edge_&amp;_experience/subdomains/web/boundedcontexts/web/services/web_app&#45;&gt;#/domains/commerce/subdomains/basket/boundedcontexts/basket/services/basket_service</title>
<path fill="none" stroke="black" d="M252.1,-368.16C260.13,-345.29 271.01,-314.78 281.13,-288 296.4,-247.55 314.69,-201.84 327.94,-169.14"/>
<polygon fill="black" stroke="black" points="331.14,-170.56 331.66,-159.98 324.66,-167.93 331.14,-170.56"/>
<text xml:space="preserve" text-anchor="middle" x="305.56" y="-291" font-family="sans-serif" font-size="10.00">ClearBasket</text>
<g id="a_edge5&#45;headlabel"><a xlink:title="open&#45;host&#45;service">
<text xml:space="preserve" text-anchor="middle" x="332.23" y="-155.58" font-family="sans-serif" font-size="10.00">OHS</text>
</a>
</g>
<g id="a_edge5&#45;taillabel"><a xlink:title="anti&#45;corruption&#45;layer">
<text xml:space="preserve" text-anchor="middle" x="252.1" y="-365.16" font-family="sans-serif" font-size="10.00">ACL</text>
</a>
</g>
</g>
<!-- #/domains/edge_&amp;_experience/subdomains/mobile/boundedcontexts/mobile_bff/services/shopping_bff -->
<g id="node3" class="node">
<title>#/domains/edge_&amp;_experience/subdomains/mobile/boundedcontexts/mobile_bff/services/shopping_bff</title>
<g id="a_node3"><a xlink:title="BFF that aggregates catalog/basket/ordering.">
<polygon fill="white" stroke="black" points="459.32,-368.1 462.84,-368.3 466.33,-368.59 469.76,-368.98 473.13,-369.47 476.42,-370.05 479.63,-370.73 482.72,-371.5 485.71,-372.35 488.56,-373.29 491.28,-374.32 493.85,-375.43 496.27,-376.62 498.53,-377.88 500.62,-379.21 502.53,-380.61 504.26,-382.08 505.81,-383.6 507.17,-385.18 508.35,-386.82 509.34,-388.5 510.14,-390.22 510.75,-391.98 511.18,-393.77 511.42,-395.59 511.49,-397.44 511.38,-399.3 511.1,-401.17 510.66,-403.06 510.06,-404.94 509.31,-406.83 508.41,-408.7 507.38,-410.56 506.22,-412.41 504.94,-414.23 503.54,-416.02 502.03,-417.78 500.43,-419.5 498.74,-421.18 496.96,-422.82 495.11,-424.4 493.19,-425.92 491.21,-427.39 489.17,-428.79 487.09,-430.12 484.96,-431.38 482.79,-432.57 480.58,-433.68 478.35,-434.71 476.1,-435.65 473.82,-436.5 471.52,-437.27 469.21,-437.95 466.89,-438.53 464.56,-439.02 462.22,-439.41 459.88,-439.7 457.53,-439.9 455.18,-440 452.82,-440 450.47,-439.9 448.12,-439.7 445.78,-439.41 443.44,-439.02 441.11,-438.53 438.79,-437.95 436.48,-437.27 434.18,-436.5 431.9,-435.65 429.65,-434.71 427.42,-433.68 425.21,-432.57 423.04,-431.38 420.91,-430.12 418.83,-428.79 416.79,-427.39 414.81,-425.92 412.89,-424.4 411.04,-422.82 409.26,-421.18 407.57,-419.5 405.97,-417.78 404.46,-416.02 403.06,-414.23 401.78,-412.41 400.62,-410.56 399.59,-408.7 398.69,-406.83 397.94,-404.94 397.34,-403.06 396.9,-401.17 396.62,-399.3 396.51,-397.44 396.58,-395.59 396.82,-393.77 397.25,-391.98 397.86,-390.22 398.66,-388.5 399.65,-386.82 400.83,-385.18 402.19,-383.6 403.74,-382.08 405.47,-380.61 407.38,-379.21 409.47,-377.88 411.73,-376.62 414.15,-375.43 416.72,-374.32 419.44,-373.29 422.29,-372.35 425.28,-371.5 428.37,-370.73 431.58,-370.05 434.87,-369.47 438.24,-368.98 441.67,-368.59 445.16,-368.3 448.68,-368.1 452.22,-368 455.78,-368 459.32,-368.1"/>
<text xml:space="preserve" text-anchor="middle" x="454" y="-399.8" font-family="sans-serif" font-size="14.00">ShoppingBff</text>
</a>
</g>
</g>
<!-- #/domains/edge_&amp;_experience/subdomains/mobile/boundedcontexts/mobile_bff/services/shopping_bff&#45;&gt;#/domains/commerce/subdomains/basket/boundedcontexts/basket/services/basket_service -->
<g id="edge2" class="edge">
<title>#/domains/edge_&amp;_experience/subdomains/mobile/boundedcontexts/mobile_bff/services/shopping_bff&#45;&gt;#/domains/commerce/subdomains/basket/boundedcontexts/basket/services/basket_service</title>
<path fill="none" stroke="black" d="M431.4,-369.86C418.81,-350.23 403.65,-324.48 393.34,-300 375.61,-257.85 362.76,-207.18 354.96,-171.24"/>
<polygon fill="black" stroke="black" points="358.41,-170.65 352.92,-161.6 351.56,-172.1 358.41,-170.65"/>
<text xml:space="preserve" text-anchor="middle" x="414.17" y="-291" font-family="sans-serif" font-size="10.00">GetBasket</text>
<g id="a_edge2&#45;headlabel"><a xlink:title="open&#45;host&#45;service">
<text xml:space="preserve" text-anchor="middle" x="352.6" y="-157.12" font-family="sans-serif" font-size="10.00">OHS</text>
</a>
</g>
<g id="a_edge2&#45;taillabel"><a xlink:title="anti&#45;corruption&#45;layer">
<text xml:space="preserve" text-anchor="middle" x="431.4" y="-366.86" font-family="sans-serif" font-size="10.00">ACL</text>
</a>
</g>
</g>
<!-- #/domains/edge_&amp;_experience/subdomains/mobile/boundedcontexts/mobile_bff/services/shopping_bff&#45;&gt;#/domains/commerce/subdomains/basket/boundedcontexts/basket/services/basket_service -->
<g id="edge4" class="edge">
<title>#/domains/edge_&amp;_experience/subdomains/mobile/boundedcontexts/mobile_bff/services/shopping_bff&#45;&gt;#/domains/commerce/subdomains/basket/boundedcontexts/basket/services/basket_service</title>
<path fill="none" stroke="black" d="M455.43,-367.71C455.36,-344.53 453.33,-313.83 445,-288 430.16,-241.97 400.02,-195.4 376.87,-163.89"/>
<polygon fill="black" stroke="black" points="379.94,-162.14 371.15,-156.22 374.33,-166.33 379.94,-162.14"/>
<text xml:space="preserve" text-anchor="middle" x="465.37" y="-291" font-family="sans-serif" font-size="10.00">AddItem</text>
<g id="a_edge4&#45;headlabel"><a xlink:title="open&#45;host&#45;service">
<text xml:space="preserve" text-anchor="middle" x="370.24" y="-152.01" font-family="sans-serif" font-size="10.00">OHS</text>
</a>
</g>
<g id="a_edge4&#45;taillabel"><a xlink:title="anti&#45;corruption&#45;layer">
<text xml:space="preserve" text-anchor="middle" x="455.43" y="-364.71" font-family="sans-serif" font-size="10.00">ACL</text>
</a>
</g>
</g>
<!-- #/domains/edge_&amp;_experience/subdomains/mobile/boundedcontexts/mobile_bff/services/shopping_bff&#45;&gt;#/domains/commerce/subdomains/basket/boundedcontexts/basket/services/basket_service -->
<g id="edge6" class="edge">
<title>#/domains/edge_&amp;_experience/subdomains/mobile/boundedcontexts/mobile_bff/services/shopping_bff&#45;&gt;#/domains/commerce/subdomains/basket/boundedcontexts/basket/services/basket_service</title>
<path fill="none" stroke="black" d="M479.19,-370.68C494.01,-347.57 507.89,-315.78 497,-288 475.52,-233.21 426.01,-185.83 389.51,-156.49"/>
<polygon fill="black" stroke="black" points="391.75,-153.8 381.72,-150.36 387.42,-159.3 391.75,-153.8"/>
<text xml:space="preserve" text-anchor="middle" x="524.16" y="-291" font-family="sans-serif" font-size="10.00">ClearBasket</text>
<g id="a_edge6&#45;headlabel"><a xlink:title="open&#45;host&#45;service">
<text xml:space="preserve" text-anchor="middle" x="380.53" y="-146.42" font-family="sans-serif" font-size="10.00">OHS</text>
</a>
</g>
<g id="a_edge6&#45;taillabel"><a xlink:title="anti&#45;corruption&#45;layer">
<text xml:space="preserve" text-anchor="middle" x="479.19" y="-367.68" font-family="sans-serif" font-size="10.00">ACL</text>
</a>
</g>
</g>
</g>
</svg>
