<?xml version="1.0" encoding="UTF-8" standalone="no"?>
<?xml-stylesheet href="data:text/css,.graph%20text%20%7B%0A%09font-family%3A%20sans-serif%3B%0A%09stroke%3A%20white%3B%0A%09paint-order%3A%20stroke%3B%0A%09stroke-width%3A%203%3B%0A%09stroke-linecap%3A%20square%3B%0A%7D%0A%0A.namespace%20polygon%20%7B%0A%09fill-opacity%3A%200.2%3B%0A%09stroke%3A%20none%3B%0A%7D%0A" type="text/css"?>
<!DOCTYPE svg PUBLIC "-//W3C//DTD SVG 1.1//EN"
 "http://www.w3.org/Graphics/SVG/1.1/DTD/svg11.dtd">
<!-- Generated by graphviz version 13.1.2 (0)
 -->
<!-- Pages: 1 -->
<svg width="610pt" height="544pt"
 viewBox="0.00 0.00 610.00 544.00" xmlns="http://www.w3.org/2000/svg" xmlns:xlink="http://www.w3.org/1999/xlink">
<g id="graph0" class="graph" transform="scale(1 1) rotate(0) translate(4 540)">
<polygon fill="white" stroke="none" points="-4,4 -4,-540 606,-540 606,4 -4,4"/>
<g id="clust1" class="cluster namespace">
<title>e_shop_on_containers</title>
<polygon fill="lightgrey" stroke="lightgrey" points="8,-8 8,-528 594,-528 594,-8 8,-8"/>
<text xml:space="preserve" text-anchor="middle" x="301" y="-515" font-family="sans-serif" font-size="10.00">eShopOnContainers</text>
</g>
<g id="clust2" class="cluster namespace">
<title>#/domains/identity&amp;access</title>
<polygon fill="lightgrey" stroke="lightgrey" points="126,-28 126,-244 396,-244 396,-28 126,-28"/>
<text xml:space="preserve" text-anchor="middle" x="261" y="-231" font-family="sans-serif" font-size="10.00">Identity&amp;Access</text>
</g>
<g id="clust3" class="cluster namespace">
<title>#/domains/identity&amp;access/subdomains/auth</title>
<polygon fill="lightgrey" stroke="lightgrey" points="146,-48 146,-204 376,-204 376,-48 146,-48"/>
<text xml:space="preserve" text-anchor="middle" x="261" y="-191" font-family="sans-serif" font-size="10.00">Auth</text>
</g>
<g id="clust4" class="cluster namespace">
<title>#/domains/identity&amp;access/subdomains/auth/boundedcontexts/identity</title>
<polygon fill="lightgrey" stroke="lightgrey" points="166,-68 166,-164 356,-164 356,-68 166,-68"/>
<text xml:space="preserve" text-anchor="middle" x="261" y="-151" font-family="sans-serif" font-size="10.00">Identity</text>
</g>
<g id="clust5" class="cluster namespace">
<title>#/domains/integration</title>
<polygon fill="lightgrey" stroke="lightgrey" points="28,-272 28,-488 300,-488 300,-272 28,-272"/>
<text xml:space="preserve" text-anchor="middle" x="164" y="-475" font-family="sans-serif" font-size="10.00">Integration</text>
</g>
<g id="clust6" class="cluster namespace">
<title>#/domains/integration/subdomains/edge</title>
<polygon fill="lightgrey" stroke="lightgrey" points="48,-292 48,-448 280,-448 280,-292 48,-292"/>
<text xml:space="preserve" text-anchor="middle" x="164" y="-435" font-family="sans-serif" font-size="10.00">Edge</text>
</g>
<g id="clust7" class="cluster namespace">
<title>#/domains/integration/subdomains/edge/boundedcontexts/api_gateway</title>
<polygon fill="lightgrey" stroke="lightgrey" points="68,-312 68,-408 260,-408 260,-312 68,-312"/>
<text xml:space="preserve" text-anchor="middle" x="164" y="-395" font-family="sans-serif" font-size="10.00">ApiGateway</text>
</g>
<g id="clust8" class="cluster namespace">
<title>#/domains/commerce</title>
<polygon fill="lightgrey" stroke="lightgrey" points="320,-272 320,-488 574,-488 574,-272 320,-272"/>
<text xml:space="preserve" text-anchor="middle" x="447" y="-475" font-family="sans-serif" font-size="10.00">Commerce</text>
</g>
<g id="clust9" class="cluster namespace">
<title>#/domains/commerce/subdomains/sales</title>
<polygon fill="lightgrey" stroke="lightgrey" points="340,-292 340,-448 554,-448 554,-292 340,-292"/>
<text xml:space="preserve" text-anchor="middle" x="447" y="-435" font-family="sans-serif" font-size="10.00">Sales</text>
</g>
<g id="clust10" class="cluster namespace">
<title>#/domains/commerce/subdomains/sales/boundedcontexts/ordering</title>
<polygon fill="lightgrey" stroke="lightgrey" points="360,-312 360,-408 534,-408 534,-312 360,-312"/>
<text xml:space="preserve" text-anchor="middle" x="447" y="-395" font-family="sans-serif" font-size="10.00">Ordering</text>
</g>
<!-- #/domains/identity&amp;access/subdomains/auth/boundedcontexts/identity/services/identity_service -->
<g id="node1" class="node">
<title>#/domains/identity&amp;access/subdomains/auth/boundedcontexts/identity/services/identity_service</title>
<g id="a_node1"><a xlink:title="Token issuance, user claims">
<polygon fill="white" stroke="black" points="267.9,-88.05 272.47,-88.15 276.99,-88.3 281.45,-88.49 285.82,-88.74 290.09,-89.03 294.24,-89.36 298.26,-89.75 302.13,-90.18 305.84,-90.65 309.37,-91.16 312.7,-91.71 315.84,-92.31 318.77,-92.94 321.48,-93.61 323.96,-94.31 326.2,-95.04 328.21,-95.8 329.98,-96.59 331.51,-97.41 332.79,-98.25 333.83,-99.11 334.62,-99.99 335.17,-100.89 335.49,-101.8 335.58,-102.72 335.44,-103.65 335.08,-104.59 334.5,-105.53 333.72,-106.47 332.75,-107.41 331.59,-108.35 330.25,-109.28 328.74,-110.2 327.08,-111.11 325.27,-112.01 323.32,-112.89 321.24,-113.75 319.04,-114.59 316.74,-115.41 314.34,-116.2 311.84,-116.96 309.27,-117.69 306.63,-118.39 303.92,-119.06 301.16,-119.69 298.34,-120.29 295.49,-120.84 292.59,-121.35 289.66,-121.82 286.71,-122.25 283.73,-122.64 280.74,-122.97 277.72,-123.26 274.7,-123.51 271.66,-123.7 268.62,-123.85 265.58,-123.95 262.53,-124 259.47,-124 256.42,-123.95 253.38,-123.85 250.34,-123.7 247.3,-123.51 244.28,-123.26 241.26,-122.97 238.27,-122.64 235.29,-122.25 232.34,-121.82 229.41,-121.35 226.51,-120.84 223.66,-120.29 220.84,-119.69 218.08,-119.06 215.37,-118.39 212.73,-117.69 210.16,-116.96 207.66,-116.2 205.26,-115.41 202.96,-114.59 200.76,-113.75 198.68,-112.89 196.73,-112.01 194.92,-111.11 193.26,-110.2 191.75,-109.28 190.41,-108.35 189.25,-107.41 188.28,-106.47 187.5,-105.53 186.92,-104.59 186.56,-103.65 186.42,-102.72 186.51,-101.8 186.83,-100.89 187.38,-99.99 188.17,-99.11 189.21,-98.25 190.49,-97.41 192.02,-96.59 193.79,-95.8 195.8,-95.04 198.04,-94.31 200.52,-93.61 203.23,-92.94 206.16,-92.31 209.3,-91.71 212.63,-91.16 216.16,-90.65 219.87,-90.18 223.74,-89.75 227.76,-89.36 231.91,-89.03 236.18,-88.74 240.55,-88.49 245.01,-88.3 249.53,-88.15 254.1,-88.05 258.7,-88 263.3,-88 267.9,-88.05"/>
<text xml:space="preserve" text-anchor="middle" x="261" y="-101.8" font-family="sans-serif" font-size="14.00">IdentityService</text>
</a>
</g>
</g>
<!-- #/domains/integration/subdomains/edge/boundedcontexts/api_gateway/services/ocelot_gateway -->
<g id="node2" class="node">
<title>#/domains/integration/subdomains/edge/boundedcontexts/api_gateway/services/ocelot_gateway</title>
<g id="a_node2"><a xlink:title="Ocelot + Aggregators (Web &amp; Mobile Shopping)">
<polygon fill="white" stroke="black" points="171.01,-332.05 175.64,-332.15 180.24,-332.3 184.76,-332.49 189.2,-332.74 193.53,-333.03 197.75,-333.36 201.83,-333.75 205.76,-334.18 209.52,-334.65 213.1,-335.16 216.49,-335.71 219.68,-336.31 222.65,-336.94 225.4,-337.61 227.91,-338.31 230.2,-339.04 232.24,-339.8 234.03,-340.59 235.58,-341.41 236.88,-342.25 237.93,-343.11 238.74,-343.99 239.3,-344.89 239.63,-345.8 239.71,-346.72 239.57,-347.65 239.2,-348.59 238.62,-349.53 237.83,-350.47 236.84,-351.41 235.66,-352.35 234.3,-353.28 232.77,-354.2 231.08,-355.11 229.24,-356.01 227.26,-356.89 225.15,-357.75 222.92,-358.59 220.59,-359.41 218.15,-360.2 215.62,-360.96 213.01,-361.69 210.32,-362.39 207.58,-363.06 204.77,-363.69 201.91,-364.29 199.01,-364.84 196.07,-365.35 193.1,-365.82 190.1,-366.25 187.08,-366.64 184.04,-366.97 180.98,-367.26 177.91,-367.51 174.83,-367.7 171.74,-367.85 168.65,-367.95 165.55,-368 162.45,-368 159.35,-367.95 156.26,-367.85 153.17,-367.7 150.09,-367.51 147.02,-367.26 143.96,-366.97 140.92,-366.64 137.9,-366.25 134.9,-365.82 131.93,-365.35 128.99,-364.84 126.09,-364.29 123.23,-363.69 120.42,-363.06 117.68,-362.39 114.99,-361.69 112.38,-360.96 109.85,-360.2 107.41,-359.41 105.08,-358.59 102.85,-357.75 100.74,-356.89 98.76,-356.01 96.92,-355.11 95.23,-354.2 93.7,-353.28 92.34,-352.35 91.16,-351.41 90.17,-350.47 89.38,-349.53 88.8,-348.59 88.43,-347.65 88.29,-346.72 88.37,-345.8 88.7,-344.89 89.26,-343.99 90.07,-343.11 91.12,-342.25 92.42,-341.41 93.97,-340.59 95.76,-339.8 97.8,-339.04 100.09,-338.31 102.6,-337.61 105.35,-336.94 108.32,-336.31 111.51,-335.71 114.9,-335.16 118.48,-334.65 122.24,-334.18 126.17,-333.75 130.25,-333.36 134.47,-333.03 138.8,-332.74 143.24,-332.49 147.76,-332.3 152.36,-332.15 156.99,-332.05 161.66,-332 166.34,-332 171.01,-332.05"/>
<text xml:space="preserve" text-anchor="middle" x="164" y="-345.8" font-family="sans-serif" font-size="14.00">OcelotGateway</text>
</a>
</g>
</g>
<!-- #/domains/integration/subdomains/edge/boundedcontexts/api_gateway/services/ocelot_gateway&#45;&gt;#/domains/identity&amp;access/subdomains/auth/boundedcontexts/identity/services/identity_service -->
<g id="edge1" class="edge">
<title>#/domains/integration/subdomains/edge/boundedcontexts/api_gateway/services/ocelot_gateway&#45;&gt;#/domains/identity&amp;access/subdomains/auth/boundedcontexts/identity/services/identity_service</title>
<path fill="none" stroke="black" d="M170.98,-331.6C187.61,-290.08 229.74,-184.98 249.91,-134.67"/>
<polygon fill="black" stroke="black" points="253.05,-136.24 253.52,-125.65 246.55,-133.63 253.05,-136.24"/>
<text xml:space="preserve" text-anchor="middle" x="224.01" y="-255" font-family="sans-serif" font-size="10.00">IssueToken</text>
<g id="a_edge1&#45;headlabel"><a xlink:title="open&#45;host&#45;service">
<text xml:space="preserve" text-anchor="middle" x="254.09" y="-121.25" font-family="sans-serif" font-size="10.00">OHS</text>
</a>
</g>
<g id="a_edge1&#45;taillabel"><a xlink:title="conformist">
<text xml:space="preserve" text-anchor="middle" x="170.98" y="-328.6" font-family="sans-serif" font-size="10.00">C</text>
</a>
</g>
</g>
<!-- #/domains/commerce/subdomains/sales/boundedcontexts/ordering/services/ordering_app -->
<g id="node3" class="node">
<title>#/domains/commerce/subdomains/sales/boundedcontexts/ordering/services/ordering_app</title>
<g id="a_node3"><a xlink:title="Ordering.API (rich DDD + domain events)">
<polygon fill="white" stroke="black" points="453.16,-332.05 457.24,-332.15 461.28,-332.3 465.26,-332.49 469.16,-332.74 472.98,-333.03 476.68,-333.36 480.27,-333.75 483.73,-334.18 487.03,-334.65 490.18,-335.16 493.16,-335.71 495.97,-336.31 498.58,-336.94 501,-337.61 503.21,-338.31 505.22,-339.04 507.01,-339.8 508.59,-340.59 509.96,-341.41 511.1,-342.25 512.03,-343.11 512.73,-343.99 513.23,-344.89 513.51,-345.8 513.59,-346.72 513.46,-347.65 513.14,-348.59 512.63,-349.53 511.93,-350.47 511.06,-351.41 510.03,-352.35 508.83,-353.28 507.49,-354.2 506,-355.11 504.38,-356.01 502.64,-356.89 500.78,-357.75 498.82,-358.59 496.77,-359.41 494.62,-360.2 492.4,-360.96 490.1,-361.69 487.74,-362.39 485.32,-363.06 482.86,-363.69 480.34,-364.29 477.79,-364.84 475.21,-365.35 472.59,-365.82 469.96,-366.25 467.3,-366.64 464.62,-366.97 461.93,-367.26 459.23,-367.51 456.52,-367.7 453.81,-367.85 451.09,-367.95 448.36,-368 445.64,-368 442.91,-367.95 440.19,-367.85 437.48,-367.7 434.77,-367.51 432.07,-367.26 429.38,-366.97 426.7,-366.64 424.04,-366.25 421.41,-365.82 418.79,-365.35 416.21,-364.84 413.66,-364.29 411.14,-363.69 408.68,-363.06 406.26,-362.39 403.9,-361.69 401.6,-360.96 399.38,-360.2 397.23,-359.41 395.18,-358.59 393.22,-357.75 391.36,-356.89 389.62,-356.01 388,-355.11 386.51,-354.2 385.17,-353.28 383.97,-352.35 382.94,-351.41 382.07,-350.47 381.37,-349.53 380.86,-348.59 380.54,-347.65 380.41,-346.72 380.49,-345.8 380.77,-344.89 381.27,-343.99 381.97,-343.11 382.9,-342.25 384.04,-341.41 385.41,-340.59 386.99,-339.8 388.78,-339.04 390.79,-338.31 393,-337.61 395.42,-336.94 398.03,-336.31 400.84,-335.71 403.82,-335.16 406.97,-334.65 410.27,-334.18 413.73,-333.75 417.32,-333.36 421.02,-333.03 424.84,-332.74 428.74,-332.49 432.72,-332.3 436.76,-332.15 440.84,-332.05 444.94,-332 449.06,-332 453.16,-332.05"/>
<text xml:space="preserve" text-anchor="middle" x="447" y="-345.8" font-family="sans-serif" font-size="14.00">OrderingApp</text>
</a>
</g>
</g>
<!-- #/domains/commerce/subdomains/sales/boundedcontexts/ordering/services/ordering_app&#45;&gt;#/domains/identity&amp;access/subdomains/auth/boundedcontexts/identity/services/identity_service -->
<g id="edge2" class="edge">
<title>#/domains/commerce/subdomains/sales/boundedcontexts/ordering/services/ordering_app&#45;&gt;#/domains/identity&amp;access/subdomains/auth/boundedcontexts/identity/services/identity_service</title>
<path fill="none" stroke="black" d="M433.92,-331.98C401.84,-290.24 319.08,-182.56 280.87,-132.85"/>
<polygon fill="black" stroke="black" points="283.86,-130.99 274.99,-125.2 278.31,-135.26 283.86,-130.99"/>
<text xml:space="preserve" text-anchor="middle" x="404.58" y="-255" font-family="sans-serif" font-size="10.00">IssueToken</text>
<g id="a_edge2&#45;headlabel"><a xlink:title="open&#45;host&#45;service">
<text xml:space="preserve" text-anchor="middle" x="274.06" y="-121" font-family="sans-serif" font-size="10.00">OHS</text>
</a>
</g>
<g id="a_edge2&#45;taillabel"><a xlink:title="anti&#45;corruption&#45;layer">
<text xml:space="preserve" text-anchor="middle" x="433.92" y="-328.98" font-family="sans-serif" font-size="10.00">ACL</text>
</a>
</g>
</g>
</g>
</svg>
