<?xml version="1.0" encoding="UTF-8" standalone="no"?>
<?xml-stylesheet href="data:text/css,.graph%20text%20%7B%0A%09font-family%3A%20sans-serif%3B%0A%09stroke%3A%20white%3B%0A%09paint-order%3A%20stroke%3B%0A%09stroke-width%3A%203%3B%0A%09stroke-linecap%3A%20square%3B%0A%7D%0A%0A.namespace%20polygon%20%7B%0A%09fill-opacity%3A%200.2%3B%0A%09stroke%3A%20none%3B%0A%7D%0A" type="text/css"?>
<!DOCTYPE svg PUBLIC "-//W3C//DTD SVG 1.1//EN"
 "http://www.w3.org/Graphics/SVG/1.1/DTD/svg11.dtd">
<!-- Generated by graphviz version 13.1.2 (0)
 -->
<!-- Pages: 1 -->
<svg width="493pt" height="356pt"
 viewBox="0.00 0.00 493.00 356.00" xmlns="http://www.w3.org/2000/svg" xmlns:xlink="http://www.w3.org/1999/xlink">
<g id="graph0" class="graph" transform="scale(1 1) rotate(0) translate(4 352)">
<polygon fill="white" stroke="none" points="-4,4 -4,-352 489,-352 489,4 -4,4"/>
<g id="clust1" class="cluster namespace">
<title>e_shop</title>
<polygon fill="lightgrey" stroke="lightgrey" points="8,-8 8,-340 477,-340 477,-8 8,-8"/>
<text xml:space="preserve" text-anchor="middle" x="242.5" y="-327" font-family="sans-serif" font-size="10.00">eShop</text>
</g>
<g id="clust2" class="cluster namespace">
<title>#/domains/commerce</title>
<polygon fill="lightgrey" stroke="lightgrey" points="167,-16 167,-160 313,-160 313,-16 167,-16"/>
<text xml:space="preserve" text-anchor="middle" x="240" y="-147" font-family="sans-serif" font-size="10.00">Commerce</text>
</g>
<g id="clust3" class="cluster namespace">
<title>#/domains/commerce/subdomains/catalog</title>
<polygon fill="lightgrey" stroke="lightgrey" points="175,-24 175,-132 305,-132 305,-24 175,-24"/>
<text xml:space="preserve" text-anchor="middle" x="240" y="-119" font-family="sans-serif" font-size="10.00">Catalog</text>
</g>
<g id="clust4" class="cluster namespace">
<title>#/domains/edge_&amp;_experience</title>
<polygon fill="lightgrey" stroke="lightgrey" points="16,-168 16,-312 313,-312 313,-168 16,-168"/>
<text xml:space="preserve" text-anchor="middle" x="164.5" y="-299" font-family="sans-serif" font-size="10.00">Edge &amp; Experience</text>
</g>
<g id="clust5" class="cluster namespace">
<title>#/domains/edge_&amp;_experience/subdomains/web</title>
<polygon fill="lightgrey" stroke="lightgrey" points="24,-176 24,-284 154,-284 154,-176 24,-176"/>
<text xml:space="preserve" text-anchor="middle" x="89" y="-271" font-family="sans-serif" font-size="10.00">Web</text>
</g>
<g id="clust6" class="cluster namespace">
<title>#/domains/edge_&amp;_experience/subdomains/mobile</title>
<polygon fill="lightgrey" stroke="lightgrey" points="175,-176 175,-284 305,-284 305,-176 175,-176"/>
<text xml:space="preserve" text-anchor="middle" x="240" y="-271" font-family="sans-serif" font-size="10.00">Mobile</text>
</g>
<g id="clust7" class="cluster namespace">
<title>#/domains/operations</title>
<polygon fill="lightgrey" stroke="lightgrey" points="321,-168 321,-312 469,-312 469,-168 321,-168"/>
<text xml:space="preserve" text-anchor="middle" x="395" y="-299" font-family="sans-serif" font-size="10.00">Operations</text>
</g>
<g id="clust8" class="cluster namespace">
<title>#/domains/operations/subdomains/backoffice</title>
<polygon fill="lightgrey" stroke="lightgrey" points="329,-176 329,-284 461,-284 461,-176 329,-176"/>
<text xml:space="preserve" text-anchor="middle" x="395" y="-271" font-family="sans-serif" font-size="10.00">Backoffice</text>
</g>
<!-- #/domains/commerce/subdomains/catalog/boundedcontexts/catalog -->
<g id="node1" class="node">
<title>#/domains/commerce/subdomains/catalog/boundedcontexts/catalog</title>
<g id="a_node1"><a xlink:title="Minimal API for catalog queries and management.">
<polygon fill="white" stroke="black" points="245.32,-32.1 248.84,-32.3 252.33,-32.59 255.76,-32.98 259.13,-33.47 262.42,-34.05 265.63,-34.73 268.72,-35.5 271.71,-36.35 274.56,-37.29 277.28,-38.32 279.85,-39.43 282.27,-40.62 284.53,-41.88 286.62,-43.21 288.53,-44.61 290.26,-46.08 291.81,-47.6 293.17,-49.18 294.35,-50.82 295.34,-52.5 296.14,-54.22 296.75,-55.98 297.18,-57.77 297.42,-59.59 297.49,-61.44 297.38,-63.3 297.1,-65.17 296.66,-67.06 296.06,-68.94 295.31,-70.83 294.41,-72.7 293.38,-74.56 292.22,-76.41 290.94,-78.23 289.54,-80.02 288.03,-81.78 286.43,-83.5 284.74,-85.18 282.96,-86.82 281.11,-88.4 279.19,-89.92 277.21,-91.39 275.17,-92.79 273.09,-94.12 270.96,-95.38 268.79,-96.57 266.58,-97.68 264.35,-98.71 262.1,-99.65 259.82,-100.5 257.52,-101.27 255.21,-101.95 252.89,-102.53 250.56,-103.02 248.22,-103.41 245.88,-103.7 243.53,-103.9 241.18,-104 238.82,-104 236.47,-103.9 234.12,-103.7 231.78,-103.41 229.44,-103.02 227.11,-102.53 224.79,-101.95 222.48,-101.27 220.18,-100.5 217.9,-99.65 215.65,-98.71 213.42,-97.68 211.21,-96.57 209.04,-95.38 206.91,-94.12 204.83,-92.79 202.79,-91.39 200.81,-89.92 198.89,-88.4 197.04,-86.82 195.26,-85.18 193.57,-83.5 191.97,-81.78 190.46,-80.02 189.06,-78.23 187.78,-76.41 186.62,-74.56 185.59,-72.7 184.69,-70.83 183.94,-68.94 183.34,-67.06 182.9,-65.17 182.62,-63.3 182.51,-61.44 182.58,-59.59 182.82,-57.77 183.25,-55.98 183.86,-54.22 184.66,-52.5 185.65,-50.82 186.83,-49.18 188.19,-47.6 189.74,-46.08 191.47,-44.61 193.38,-43.21 195.47,-41.88 197.73,-40.62 200.15,-39.43 202.72,-38.32 205.44,-37.29 208.29,-36.35 211.28,-35.5 214.37,-34.73 217.58,-34.05 220.87,-33.47 224.24,-32.98 227.67,-32.59 231.16,-32.3 234.68,-32.1 238.22,-32 241.78,-32 245.32,-32.1"/>
<text xml:space="preserve" text-anchor="middle" x="240" y="-63.8" font-family="sans-serif" font-size="14.00">Catalog</text>
</a>
</g>
</g>
<!-- #/domains/edge_&amp;_experience/subdomains/web/boundedcontexts/web -->
<g id="node2" class="node">
<title>#/domains/edge_&amp;_experience/subdomains/web/boundedcontexts/web</title>
<g id="a_node2"><a xlink:title="Blazor Server web app for customers.">
<polygon fill="white" stroke="black" points="94.32,-184.1 97.84,-184.3 101.33,-184.59 104.76,-184.98 108.13,-185.47 111.42,-186.05 114.63,-186.73 117.72,-187.5 120.71,-188.35 123.56,-189.29 126.28,-190.32 128.85,-191.43 131.27,-192.62 133.53,-193.88 135.62,-195.21 137.53,-196.61 139.26,-198.08 140.81,-199.6 142.17,-201.18 143.35,-202.82 144.34,-204.5 145.14,-206.22 145.75,-207.98 146.18,-209.77 146.42,-211.59 146.49,-213.44 146.38,-215.3 146.1,-217.17 145.66,-219.06 145.06,-220.94 144.31,-222.83 143.41,-224.7 142.38,-226.56 141.22,-228.41 139.94,-230.23 138.54,-232.02 137.03,-233.78 135.43,-235.5 133.74,-237.18 131.96,-238.82 130.11,-240.4 128.19,-241.92 126.21,-243.39 124.17,-244.79 122.09,-246.12 119.96,-247.38 117.79,-248.57 115.58,-249.68 113.35,-250.71 111.1,-251.65 108.82,-252.5 106.52,-253.27 104.21,-253.95 101.89,-254.53 99.56,-255.02 97.22,-255.41 94.88,-255.7 92.53,-255.9 90.18,-256 87.82,-256 85.47,-255.9 83.12,-255.7 80.78,-255.41 78.44,-255.02 76.11,-254.53 73.79,-253.95 71.48,-253.27 69.18,-252.5 66.9,-251.65 64.65,-250.71 62.42,-249.68 60.21,-248.57 58.04,-247.38 55.91,-246.12 53.83,-244.79 51.79,-243.39 49.81,-241.92 47.89,-240.4 46.04,-238.82 44.26,-237.18 42.57,-235.5 40.97,-233.78 39.46,-232.02 38.06,-230.23 36.78,-228.41 35.62,-226.56 34.59,-224.7 33.69,-222.83 32.94,-220.94 32.34,-219.06 31.9,-217.17 31.62,-215.3 31.51,-213.44 31.58,-211.59 31.82,-209.77 32.25,-207.98 32.86,-206.22 33.66,-204.5 34.65,-202.82 35.83,-201.18 37.19,-199.6 38.74,-198.08 40.47,-196.61 42.38,-195.21 44.47,-193.88 46.73,-192.62 49.15,-191.43 51.72,-190.32 54.44,-189.29 57.29,-188.35 60.28,-187.5 63.37,-186.73 66.58,-186.05 69.87,-185.47 73.24,-184.98 76.67,-184.59 80.16,-184.3 83.68,-184.1 87.22,-184 90.78,-184 94.32,-184.1"/>
<text xml:space="preserve" text-anchor="middle" x="89" y="-215.8" font-family="sans-serif" font-size="14.00">Web</text>
</a>
</g>
</g>
<!-- #/domains/edge_&amp;_experience/subdomains/web/boundedcontexts/web&#45;&gt;#/domains/commerce/subdomains/catalog/boundedcontexts/catalog -->
<g id="edge1" class="edge">
<title>#/domains/edge_&amp;_experience/subdomains/web/boundedcontexts/web&#45;&gt;#/domains/commerce/subdomains/catalog/boundedcontexts/catalog</title>
<path fill="none" stroke="black" d="M120.29,-187.92C144.53,-163.84 178.16,-130.43 203.61,-105.15"/>
<polygon fill="black" stroke="black" points="205.86,-107.85 210.48,-98.32 200.92,-102.88 205.86,-107.85"/>
<g id="a_edge1&#45;headlabel"><a xlink:title="open&#45;host&#45;service">
<text xml:space="preserve" text-anchor="middle" x="211.56" y="-94.25" font-family="sans-serif" font-size="10.00">OHS</text>
</a>
</g>
<g id="a_edge1&#45;taillabel"><a xlink:title="anti&#45;corruption&#45;layer">
<text xml:space="preserve" text-anchor="middle" x="120.29" y="-184.92" font-family="sans-serif" font-size="10.00">ACL</text>
</a>
</g>
</g>
<!-- #/domains/edge_&amp;_experience/subdomains/mobile/boundedcontexts/mobile_bff -->
<g id="node3" class="node">
<title>#/domains/edge_&amp;_experience/subdomains/mobile/boundedcontexts/mobile_bff</title>
<g id="a_node3"><a xlink:title="BFF that aggregates catalog/basket/ordering.">
<polygon fill="white" stroke="black" points="245.32,-184.1 248.84,-184.3 252.33,-184.59 255.76,-184.98 259.13,-185.47 262.42,-186.05 265.63,-186.73 268.72,-187.5 271.71,-188.35 274.56,-189.29 277.28,-190.32 279.85,-191.43 282.27,-192.62 284.53,-193.88 286.62,-195.21 288.53,-196.61 290.26,-198.08 291.81,-199.6 293.17,-201.18 294.35,-202.82 295.34,-204.5 296.14,-206.22 296.75,-207.98 297.18,-209.77 297.42,-211.59 297.49,-213.44 297.38,-215.3 297.1,-217.17 296.66,-219.06 296.06,-220.94 295.31,-222.83 294.41,-224.7 293.38,-226.56 292.22,-228.41 290.94,-230.23 289.54,-232.02 288.03,-233.78 286.43,-235.5 284.74,-237.18 282.96,-238.82 281.11,-240.4 279.19,-241.92 277.21,-243.39 275.17,-244.79 273.09,-246.12 270.96,-247.38 268.79,-248.57 266.58,-249.68 264.35,-250.71 262.1,-251.65 259.82,-252.5 257.52,-253.27 255.21,-253.95 252.89,-254.53 250.56,-255.02 248.22,-255.41 245.88,-255.7 243.53,-255.9 241.18,-256 238.82,-256 236.47,-255.9 234.12,-255.7 231.78,-255.41 229.44,-255.02 227.11,-254.53 224.79,-253.95 222.48,-253.27 220.18,-252.5 217.9,-251.65 215.65,-250.71 213.42,-249.68 211.21,-248.57 209.04,-247.38 206.91,-246.12 204.83,-244.79 202.79,-243.39 200.81,-241.92 198.89,-240.4 197.04,-238.82 195.26,-237.18 193.57,-235.5 191.97,-233.78 190.46,-232.02 189.06,-230.23 187.78,-228.41 186.62,-226.56 185.59,-224.7 184.69,-222.83 183.94,-220.94 183.34,-219.06 182.9,-217.17 182.62,-215.3 182.51,-213.44 182.58,-211.59 182.82,-209.77 183.25,-207.98 183.86,-206.22 184.66,-204.5 185.65,-202.82 186.83,-201.18 188.19,-199.6 189.74,-198.08 191.47,-196.61 193.38,-195.21 195.47,-193.88 197.73,-192.62 200.15,-191.43 202.72,-190.32 205.44,-189.29 208.29,-188.35 211.28,-187.5 214.37,-186.73 217.58,-186.05 220.87,-185.47 224.24,-184.98 227.67,-184.59 231.16,-184.3 234.68,-184.1 238.22,-184 241.78,-184 245.32,-184.1"/>
<text xml:space="preserve" text-anchor="middle" x="240" y="-215.8" font-family="sans-serif" font-size="14.00">Mobile BFF</text>
</a>
</g>
</g>
<!-- #/domains/edge_&amp;_experience/subdomains/mobile/boundedcontexts/mobile_bff&#45;&gt;#/domains/commerce/subdomains/catalog/boundedcontexts/catalog -->
<g id="edge2" class="edge">
<title>#/domains/edge_&amp;_experience/subdomains/mobile/boundedcontexts/mobile_bff&#45;&gt;#/domains/commerce/subdomains/catalog/boundedcontexts/catalog</title>
<path fill="none" stroke="black" d="M240,-183.83C240,-163.57 240,-137.85 240,-115.89"/>
<polygon fill="black" stroke="black" points="243.5,-115.98 240,-105.98 236.5,-115.98 243.5,-115.98"/>
<g id="a_edge2&#45;headlabel"><a xlink:title="open&#45;host&#45;service">
<text xml:space="preserve" text-anchor="middle" x="240" y="-101.47" font-family="sans-serif" font-size="10.00">OHS</text>
</a>
</g>
<g id="a_edge2&#45;taillabel"><a xlink:title="anti&#45;corruption&#45;layer">
<text xml:space="preserve" text-anchor="middle" x="240" y="-180.83" font-family="sans-serif" font-size="10.00">ACL</text>
</a>
</g>
</g>
<!-- #/domains/operations/subdomains/backoffice/boundedcontexts/backoffice_app -->
<g id="node4" class="node">
<title>#/domains/operations/subdomains/backoffice/boundedcontexts/backoffice_app</title>
<g id="a_node4"><a xlink:title="Admin/demo app for price updates.">
<polygon fill="white" stroke="black" points="400.33,-184.1 403.86,-184.3 407.35,-184.59 410.79,-184.98 414.16,-185.47 417.46,-186.05 420.67,-186.73 423.77,-187.5 426.76,-188.35 429.62,-189.29 432.34,-190.32 434.92,-191.43 437.34,-192.62 439.6,-193.88 441.69,-195.21 443.61,-196.61 445.34,-198.08 446.89,-199.6 448.26,-201.18 449.44,-202.82 450.43,-204.5 451.23,-206.22 451.84,-207.98 452.27,-209.77 452.51,-211.59 452.58,-213.44 452.47,-215.3 452.19,-217.17 451.75,-219.06 451.15,-220.94 450.4,-222.83 449.5,-224.7 448.47,-226.56 447.3,-228.41 446.02,-230.23 444.62,-232.02 443.11,-233.78 441.51,-235.5 439.81,-237.18 438.03,-238.82 436.18,-240.4 434.26,-241.92 432.27,-243.39 430.23,-244.79 428.14,-246.12 426,-247.38 423.83,-248.57 421.63,-249.68 419.39,-250.71 417.13,-251.65 414.85,-252.5 412.55,-253.27 410.24,-253.95 407.91,-254.53 405.58,-255.02 403.23,-255.41 400.89,-255.7 398.53,-255.9 396.18,-256 393.82,-256 391.47,-255.9 389.11,-255.7 386.77,-255.41 384.42,-255.02 382.09,-254.53 379.76,-253.95 377.45,-253.27 375.15,-252.5 372.87,-251.65 370.61,-250.71 368.37,-249.68 366.17,-248.57 364,-247.38 361.86,-246.12 359.77,-244.79 357.73,-243.39 355.74,-241.92 353.82,-240.4 351.97,-238.82 350.19,-237.18 348.49,-235.5 346.89,-233.78 345.38,-232.02 343.98,-230.23 342.7,-228.41 341.53,-226.56 340.5,-224.7 339.6,-222.83 338.85,-220.94 338.25,-219.06 337.81,-217.17 337.53,-215.3 337.42,-213.44 337.49,-211.59 337.73,-209.77 338.16,-207.98 338.77,-206.22 339.57,-204.5 340.56,-202.82 341.74,-201.18 343.11,-199.6 344.66,-198.08 346.39,-196.61 348.31,-195.21 350.4,-193.88 352.66,-192.62 355.08,-191.43 357.66,-190.32 360.38,-189.29 363.24,-188.35 366.23,-187.5 369.33,-186.73 372.54,-186.05 375.84,-185.47 379.21,-184.98 382.65,-184.59 386.14,-184.3 389.67,-184.1 393.22,-184 396.78,-184 400.33,-184.1"/>
<text xml:space="preserve" text-anchor="middle" x="395" y="-215.8" font-family="sans-serif" font-size="14.00">BackofficeApp</text>
</a>
</g>
</g>
<!-- #/domains/operations/subdomains/backoffice/boundedcontexts/backoffice_app&#45;&gt;#/domains/commerce/subdomains/catalog/boundedcontexts/catalog -->
<g id="edge3" class="edge">
<title>#/domains/operations/subdomains/backoffice/boundedcontexts/backoffice_app&#45;&gt;#/domains/commerce/subdomains/catalog/boundedcontexts/catalog</title>
<path fill="none" stroke="black" d="M363.26,-188.28C338.24,-164.08 303.32,-130.28 277.03,-104.84"/>
<polygon fill="black" stroke="black" points="279.53,-102.38 269.91,-97.95 274.66,-107.42 279.53,-102.38"/>
<g id="a_edge3&#45;headlabel"><a xlink:title="open&#45;host&#45;service">
<text xml:space="preserve" text-anchor="middle" x="268.82" y="-93.89" font-family="sans-serif" font-size="10.00">OHS</text>
</a>
</g>
<g id="a_edge3&#45;taillabel"><a xlink:title="customer&#45;supplier">
<text xml:space="preserve" text-anchor="middle" x="363.26" y="-185.28" font-family="sans-serif" font-size="10.00">C/s</text>
</a>
</g>
</g>
</g>
</svg>
