<?xml version="1.0" encoding="UTF-8" standalone="no"?>
<?xml-stylesheet href="data:text/css,.graph%20text%20%7B%0A%09font-family%3A%20sans-serif%3B%0A%09stroke%3A%20white%3B%0A%09paint-order%3A%20stroke%3B%0A%09stroke-width%3A%203%3B%0A%09stroke-linecap%3A%20square%3B%0A%7D%0A%0A.namespace%20polygon%20%7B%0A%09fill-opacity%3A%200.2%3B%0A%09stroke%3A%20none%3B%0A%7D%0A" type="text/css"?>
<!DOCTYPE svg PUBLIC "-//W3C//DTD SVG 1.1//EN"
 "http://www.w3.org/Graphics/SVG/1.1/DTD/svg11.dtd">
<!-- Generated by graphviz version 13.1.2 (0)
 -->
<!-- Pages: 1 -->
<svg width="672pt" height="856pt"
 viewBox="0.00 0.00 672.00 856.00" xmlns="http://www.w3.org/2000/svg" xmlns:xlink="http://www.w3.org/1999/xlink">
<g id="graph0" class="graph" transform="scale(1 1) rotate(0) translate(4 852)">
<polygon fill="white" stroke="none" points="-4,4 -4,-852 668,-852 668,4 -4,4"/>
<g id="clust1" class="cluster namespace">
<title>e_shop</title>
<polygon fill="lightgrey" stroke="lightgrey" points="8,-8 8,-840 656,-840 656,-8 8,-8"/>
<text xml:space="preserve" text-anchor="middle" x="332" y="-827" font-family="sans-serif" font-size="10.00">eShop</text>
</g>
<g id="clust2" class="cluster namespace">
<title>#/domains/api_integration</title>
<polygon fill="lightgrey" stroke="lightgrey" points="28,-308 28,-800 372,-800 372,-308 28,-308"/>
<text xml:space="preserve" text-anchor="middle" x="200" y="-787" font-family="sans-serif" font-size="10.00">API Integration</text>
</g>
<g id="clust3" class="cluster namespace">
<title>#/domains/api_integration/subdomains/webhooks</title>
<polygon fill="lightgrey" stroke="lightgrey" points="48,-328 48,-760 352,-760 352,-328 48,-328"/>
<text xml:space="preserve" text-anchor="middle" x="200" y="-747" font-family="sans-serif" font-size="10.00">Webhooks</text>
</g>
<g id="clust4" class="cluster namespace">
<title>#/domains/api_integration/subdomains/webhooks/boundedcontexts/webhooks</title>
<polygon fill="lightgrey" stroke="lightgrey" points="158,-588 158,-720 332,-720 332,-588 158,-588"/>
<text xml:space="preserve" text-anchor="middle" x="245" y="-707" font-family="sans-serif" font-size="10.00">Webhooks</text>
</g>
<g id="clust5" class="cluster namespace">
<title>#/domains/api_integration/subdomains/webhooks/boundedcontexts/webhook_client</title>
<polygon fill="lightgrey" stroke="lightgrey" points="112,-348 112,-480 288,-480 288,-348 112,-348"/>
<text xml:space="preserve" text-anchor="middle" x="200" y="-467" font-family="sans-serif" font-size="10.00">WebhookClient</text>
</g>
<g id="clust6" class="cluster namespace">
<title>#/domains/commerce</title>
<polygon fill="lightgrey" stroke="lightgrey" points="392,-308 392,-560 636,-560 636,-308 392,-308"/>
<text xml:space="preserve" text-anchor="middle" x="514" y="-547" font-family="sans-serif" font-size="10.00">Commerce</text>
</g>
<g id="clust7" class="cluster namespace">
<title>#/domains/commerce/subdomains/ordering</title>
<polygon fill="lightgrey" stroke="lightgrey" points="412,-328 412,-520 616,-520 616,-328 412,-328"/>
<text xml:space="preserve" text-anchor="middle" x="514" y="-507" font-family="sans-serif" font-size="10.00">Ordering</text>
</g>
<g id="clust8" class="cluster namespace">
<title>#/domains/commerce/subdomains/ordering/boundedcontexts/ordering</title>
<polygon fill="lightgrey" stroke="lightgrey" points="432,-348 432,-480 596,-480 596,-348 432,-348"/>
<text xml:space="preserve" text-anchor="middle" x="514" y="-467" font-family="sans-serif" font-size="10.00">Ordering</text>
</g>
<g id="clust9" class="cluster namespace">
<title>#/domains/payment_processing</title>
<polygon fill="lightgrey" stroke="lightgrey" points="350,-28 350,-280 592,-280 592,-28 350,-28"/>
<text xml:space="preserve" text-anchor="middle" x="471" y="-267" font-family="sans-serif" font-size="10.00">Payment Processing</text>
</g>
<g id="clust10" class="cluster namespace">
<title>#/domains/payment_processing/subdomains/payment_processors</title>
<polygon fill="lightgrey" stroke="lightgrey" points="370,-48 370,-240 572,-240 572,-48 370,-48"/>
<text xml:space="preserve" text-anchor="middle" x="471" y="-227" font-family="sans-serif" font-size="10.00">Payment Processors</text>
</g>
<g id="clust11" class="cluster namespace">
<title>#/domains/payment_processing/subdomains/payment_processors/boundedcontexts/payment_processor</title>
<polygon fill="lightgrey" stroke="lightgrey" points="390,-68 390,-200 552,-200 552,-68 390,-68"/>
<text xml:space="preserve" text-anchor="middle" x="471" y="-187" font-family="sans-serif" font-size="10.00">PaymentProcessor</text>
</g>
<!-- #/domains/api_integration/subdomains/webhooks/boundedcontexts/webhooks/services/webhooks_service -->
<g id="node1" class="node">
<title>#/domains/api_integration/subdomains/webhooks/boundedcontexts/webhooks/services/webhooks_service</title>
<g id="a_node1"><a xlink:title="Webhook registration/delivery application service.">
<polygon fill="white" stroke="black" points="251.19,-608.1 255.28,-608.3 259.33,-608.59 263.33,-608.98 267.25,-609.47 271.08,-610.05 274.8,-610.73 278.4,-611.5 281.87,-612.35 285.19,-613.29 288.35,-614.32 291.34,-615.43 294.15,-616.62 296.78,-617.88 299.2,-619.21 301.43,-620.61 303.44,-622.08 305.25,-623.6 306.83,-625.18 308.2,-626.82 309.35,-628.5 310.28,-630.22 310.99,-631.98 311.48,-633.77 311.77,-635.59 311.84,-637.44 311.72,-639.3 311.4,-641.17 310.88,-643.06 310.18,-644.94 309.31,-646.83 308.27,-648.7 307.07,-650.56 305.72,-652.41 304.23,-654.23 302.6,-656.02 300.85,-657.78 298.99,-659.5 297.02,-661.18 294.96,-662.82 292.81,-664.4 290.57,-665.92 288.27,-667.39 285.9,-668.79 283.47,-670.12 280.99,-671.38 278.47,-672.57 275.91,-673.68 273.32,-674.71 270.69,-675.65 268.04,-676.5 265.38,-677.27 262.69,-677.95 259.99,-678.53 257.28,-679.02 254.56,-679.41 251.83,-679.7 249.1,-679.9 246.37,-680 243.63,-680 240.9,-679.9 238.17,-679.7 235.44,-679.41 232.72,-679.02 230.01,-678.53 227.31,-677.95 224.62,-677.27 221.96,-676.5 219.31,-675.65 216.68,-674.71 214.09,-673.68 211.53,-672.57 209.01,-671.38 206.53,-670.12 204.1,-668.79 201.73,-667.39 199.43,-665.92 197.19,-664.4 195.04,-662.82 192.98,-661.18 191.01,-659.5 189.15,-657.78 187.4,-656.02 185.77,-654.23 184.28,-652.41 182.93,-650.56 181.73,-648.7 180.69,-646.83 179.82,-644.94 179.12,-643.06 178.6,-641.17 178.28,-639.3 178.16,-637.44 178.23,-635.59 178.52,-633.77 179.01,-631.98 179.72,-630.22 180.65,-628.5 181.8,-626.82 183.17,-625.18 184.75,-623.6 186.56,-622.08 188.57,-620.61 190.8,-619.21 193.22,-617.88 195.85,-616.62 198.66,-615.43 201.65,-614.32 204.81,-613.29 208.13,-612.35 211.6,-611.5 215.2,-610.73 218.92,-610.05 222.75,-609.47 226.67,-608.98 230.67,-608.59 234.72,-608.3 238.81,-608.1 242.94,-608 247.06,-608 251.19,-608.1"/>
<text xml:space="preserve" text-anchor="middle" x="245" y="-639.8" font-family="sans-serif" font-size="14.00">WebhooksService</text>
</a>
</g>
</g>
<!-- #/domains/api_integration/subdomains/webhooks/boundedcontexts/webhook_client/services/webhook_receiver -->
<g id="node2" class="node">
<title>#/domains/api_integration/subdomains/webhooks/boundedcontexts/webhook_client/services/webhook_receiver</title>
<g id="a_node2"><a xlink:title="Sample receiver app for incoming webhook deliveries.">
<polygon fill="white" stroke="black" points="206.31,-368.1 210.48,-368.3 214.62,-368.59 218.69,-368.98 222.68,-369.47 226.59,-370.05 230.38,-370.73 234.06,-371.5 237.59,-372.35 240.98,-373.29 244.2,-374.32 247.25,-375.43 250.12,-376.62 252.8,-377.88 255.27,-379.21 257.54,-380.61 259.59,-382.08 261.43,-383.6 263.05,-385.18 264.44,-386.82 265.61,-388.5 266.56,-390.22 267.29,-391.98 267.79,-393.77 268.08,-395.59 268.16,-397.44 268.03,-399.3 267.7,-401.17 267.18,-403.06 266.47,-404.94 265.58,-406.83 264.51,-408.7 263.29,-410.56 261.91,-412.41 260.39,-414.23 258.73,-416.02 256.95,-417.78 255.05,-419.5 253.05,-421.18 250.94,-422.82 248.75,-424.4 246.47,-425.92 244.12,-427.39 241.7,-428.79 239.23,-430.12 236.7,-431.38 234.13,-432.57 231.52,-433.68 228.87,-434.71 226.2,-435.65 223.5,-436.5 220.78,-437.27 218.04,-437.95 215.28,-438.53 212.52,-439.02 209.75,-439.41 206.97,-439.7 204.18,-439.9 201.39,-440 198.61,-440 195.82,-439.9 193.03,-439.7 190.25,-439.41 187.48,-439.02 184.72,-438.53 181.96,-437.95 179.22,-437.27 176.5,-436.5 173.8,-435.65 171.13,-434.71 168.48,-433.68 165.87,-432.57 163.3,-431.38 160.77,-430.12 158.3,-428.79 155.88,-427.39 153.53,-425.92 151.25,-424.4 149.06,-422.82 146.95,-421.18 144.95,-419.5 143.05,-417.78 141.27,-416.02 139.61,-414.23 138.09,-412.41 136.71,-410.56 135.49,-408.7 134.42,-406.83 133.53,-404.94 132.82,-403.06 132.3,-401.17 131.97,-399.3 131.84,-397.44 131.92,-395.59 132.21,-393.77 132.71,-391.98 133.44,-390.22 134.39,-388.5 135.56,-386.82 136.95,-385.18 138.57,-383.6 140.41,-382.08 142.46,-380.61 144.73,-379.21 147.2,-377.88 149.88,-376.62 152.75,-375.43 155.8,-374.32 159.02,-373.29 162.41,-372.35 165.94,-371.5 169.62,-370.73 173.41,-370.05 177.32,-369.47 181.31,-368.98 185.38,-368.59 189.52,-368.3 193.69,-368.1 197.89,-368 202.11,-368 206.31,-368.1"/>
<text xml:space="preserve" text-anchor="middle" x="200" y="-399.8" font-family="sans-serif" font-size="14.00">WebhookReceiver</text>
</a>
</g>
</g>
<!-- #/domains/api_integration/subdomains/webhooks/boundedcontexts/webhooks/services/webhooks_service&#45;&gt;#/domains/api_integration/subdomains/webhooks/boundedcontexts/webhook_client/services/webhook_receiver -->
<g id="edge5" class="edge">
<title>#/domains/api_integration/subdomains/webhooks/boundedcontexts/webhooks/services/webhooks_service&#45;&gt;#/domains/api_integration/subdomains/webhooks/boundedcontexts/webhook_client/services/webhook_receiver</title>
<path fill="none" stroke="black" d="M188.87,-619.91C172.35,-610.17 156.23,-597.05 146.92,-580 123.52,-537.16 147.38,-482.65 170.17,-445.94"/>
<polygon fill="black" stroke="black" points="172.92,-448.12 175.4,-437.82 167.04,-444.33 172.92,-448.12"/>
<text xml:space="preserve" text-anchor="middle" x="182.46" y="-571" font-family="sans-serif" font-size="10.00">ReceiveWebhook</text>
<g id="a_edge5&#45;headlabel"><a xlink:title="open&#45;host&#45;service">
<text xml:space="preserve" text-anchor="middle" x="176.22" y="-433.55" font-family="sans-serif" font-size="10.00">OHS</text>
</a>
</g>
<g id="a_edge5&#45;taillabel"><a xlink:title="customer&#45;supplier">
<text xml:space="preserve" text-anchor="middle" x="188.87" y="-616.91" font-family="sans-serif" font-size="10.00">C/s</text>
</a>
</g>
</g>
<!-- #/domains/commerce/subdomains/ordering/boundedcontexts/ordering/services/ordering_service -->
<g id="node3" class="node">
<title>#/domains/commerce/subdomains/ordering/boundedcontexts/ordering/services/ordering_service</title>
<g id="a_node3"><a xlink:title="Ordering application service.">
<polygon fill="white" stroke="black" points="519.7,-368.1 523.47,-368.3 527.2,-368.59 530.88,-368.98 534.48,-369.47 538.01,-370.05 541.44,-370.73 544.75,-371.5 547.95,-372.35 551,-373.29 553.92,-374.32 556.67,-375.43 559.26,-376.62 561.68,-377.88 563.91,-379.21 565.96,-380.61 567.81,-382.08 569.47,-383.6 570.93,-385.18 572.19,-386.82 573.25,-388.5 574.1,-390.22 574.76,-391.98 575.22,-393.77 575.48,-395.59 575.55,-397.44 575.43,-399.3 575.13,-401.17 574.66,-403.06 574.02,-404.94 573.22,-406.83 572.26,-408.7 571.15,-410.56 569.91,-412.41 568.53,-414.23 567.04,-416.02 565.43,-417.78 563.71,-419.5 561.9,-421.18 560,-422.82 558.02,-424.4 555.96,-425.92 553.84,-427.39 551.66,-428.79 549.42,-430.12 547.14,-431.38 544.82,-432.57 542.46,-433.68 540.07,-434.71 537.66,-435.65 535.22,-436.5 532.76,-437.27 530.29,-437.95 527.8,-438.53 525.31,-439.02 522.8,-439.41 520.29,-439.7 517.78,-439.9 515.26,-440 512.74,-440 510.22,-439.9 507.71,-439.7 505.2,-439.41 502.69,-439.02 500.2,-438.53 497.71,-437.95 495.24,-437.27 492.78,-436.5 490.34,-435.65 487.93,-434.71 485.54,-433.68 483.18,-432.57 480.86,-431.38 478.58,-430.12 476.34,-428.79 474.16,-427.39 472.04,-425.92 469.98,-424.4 468,-422.82 466.1,-421.18 464.29,-419.5 462.57,-417.78 460.96,-416.02 459.47,-414.23 458.09,-412.41 456.85,-410.56 455.74,-408.7 454.78,-406.83 453.98,-404.94 453.34,-403.06 452.87,-401.17 452.57,-399.3 452.45,-397.44 452.52,-395.59 452.78,-393.77 453.24,-391.98 453.9,-390.22 454.75,-388.5 455.81,-386.82 457.07,-385.18 458.53,-383.6 460.19,-382.08 462.04,-380.61 464.09,-379.21 466.32,-377.88 468.74,-376.62 471.33,-375.43 474.08,-374.32 477,-373.29 480.05,-372.35 483.25,-371.5 486.56,-370.73 489.99,-370.05 493.52,-369.47 497.12,-368.98 500.8,-368.59 504.53,-368.3 508.3,-368.1 512.1,-368 515.9,-368 519.7,-368.1"/>
<text xml:space="preserve" text-anchor="middle" x="514" y="-399.8" font-family="sans-serif" font-size="14.00">OrderingService</text>
</a>
</g>
</g>
<!-- #/domains/api_integration/subdomains/webhooks/boundedcontexts/webhooks/services/webhooks_service&#45;&gt;#/domains/commerce/subdomains/ordering/boundedcontexts/ordering/services/ordering_service -->
<g id="edge2" class="edge">
<title>#/domains/api_integration/subdomains/webhooks/boundedcontexts/webhooks/services/webhooks_service&#45;&gt;#/domains/commerce/subdomains/ordering/boundedcontexts/ordering/services/ordering_service</title>
<path fill="none" stroke="black" d="M281.67,-612.11C293.63,-601.94 306.93,-590.55 319,-580 373.61,-532.27 435.83,-476.11 475.01,-440.54"/>
<polygon fill="black" stroke="black" points="477.32,-443.16 482.37,-433.85 472.61,-437.98 477.32,-443.16"/>
<text xml:space="preserve" text-anchor="middle" x="350.16" y="-571" font-family="sans-serif" font-size="10.00">OrderPaid</text>
<g id="a_edge2&#45;headlabel"><a xlink:title="published&#45;language">
<text xml:space="preserve" text-anchor="middle" x="483.49" y="-429.83" font-family="sans-serif" font-size="10.00">PL</text>
</a>
</g>
<g id="a_edge2&#45;taillabel"><a xlink:title="conformist">
<text xml:space="preserve" text-anchor="middle" x="281.67" y="-609.11" font-family="sans-serif" font-size="10.00">C</text>
</a>
</g>
</g>
<!-- #/domains/api_integration/subdomains/webhooks/boundedcontexts/webhook_client/services/webhook_receiver&#45;&gt;#/domains/api_integration/subdomains/webhooks/boundedcontexts/webhooks/services/webhooks_service -->
<g id="edge1" class="edge">
<title>#/domains/api_integration/subdomains/webhooks/boundedcontexts/webhook_client/services/webhook_receiver&#45;&gt;#/domains/api_integration/subdomains/webhooks/boundedcontexts/webhooks/services/webhooks_service</title>
<path fill="none" stroke="black" d="M206.65,-440.18C214.49,-481.64 227.54,-550.67 236.21,-596.5"/>
<polygon fill="black" stroke="black" points="232.73,-596.96 238.03,-606.14 239.61,-595.66 232.73,-596.96"/>
<text xml:space="preserve" text-anchor="middle" x="269.03" y="-571" font-family="sans-serif" font-size="10.00">RegisterWebhook</text>
<g id="a_edge1&#45;headlabel"><a xlink:title="open&#45;host&#45;service">
<text xml:space="preserve" text-anchor="middle" x="238.31" y="-604.63" font-family="sans-serif" font-size="10.00">OHS</text>
</a>
</g>
<g id="a_edge1&#45;taillabel"><a xlink:title="customer&#45;supplier">
<text xml:space="preserve" text-anchor="middle" x="206.65" y="-437.18" font-family="sans-serif" font-size="10.00">C/s</text>
</a>
</g>
</g>
<!-- #/domains/payment_processing/subdomains/payment_processors/boundedcontexts/payment_processor/services/payment_service -->
<g id="node4" class="node">
<title>#/domains/payment_processing/subdomains/payment_processors/boundedcontexts/payment_processor/services/payment_service</title>
<g id="a_node4"><a xlink:title="Takes payments and emits status changes.">
<polygon fill="white" stroke="black" points="476.61,-88.1 480.33,-88.3 484.01,-88.59 487.64,-88.98 491.19,-89.47 494.67,-90.05 498.05,-90.73 501.32,-91.5 504.46,-92.35 507.48,-93.29 510.35,-94.32 513.06,-95.43 515.62,-96.62 518,-97.88 520.2,-99.21 522.22,-100.61 524.05,-102.08 525.68,-103.6 527.12,-105.18 528.36,-106.82 529.4,-108.5 530.25,-110.22 530.89,-111.98 531.34,-113.77 531.6,-115.59 531.67,-117.44 531.56,-119.3 531.26,-121.17 530.8,-123.06 530.16,-124.94 529.37,-126.83 528.43,-128.7 527.34,-130.56 526.11,-132.41 524.76,-134.23 523.28,-136.02 521.7,-137.78 520.01,-139.5 518.22,-141.18 516.35,-142.82 514.39,-144.4 512.36,-145.92 510.27,-147.39 508.12,-148.79 505.92,-150.12 503.67,-151.38 501.38,-152.57 499.06,-153.68 496.7,-154.71 494.32,-155.65 491.92,-156.5 489.49,-157.27 487.06,-157.95 484.61,-158.53 482.15,-159.02 479.68,-159.41 477.2,-159.7 474.72,-159.9 472.24,-160 469.76,-160 467.28,-159.9 464.8,-159.7 462.32,-159.41 459.85,-159.02 457.39,-158.53 454.94,-157.95 452.51,-157.27 450.08,-156.5 447.68,-155.65 445.3,-154.71 442.94,-153.68 440.62,-152.57 438.33,-151.38 436.08,-150.12 433.88,-148.79 431.73,-147.39 429.64,-145.92 427.61,-144.4 425.65,-142.82 423.78,-141.18 421.99,-139.5 420.3,-137.78 418.72,-136.02 417.24,-134.23 415.89,-132.41 414.66,-130.56 413.57,-128.7 412.63,-126.83 411.84,-124.94 411.2,-123.06 410.74,-121.17 410.44,-119.3 410.33,-117.44 410.4,-115.59 410.66,-113.77 411.11,-111.98 411.75,-110.22 412.6,-108.5 413.64,-106.82 414.88,-105.18 416.32,-103.6 417.95,-102.08 419.78,-100.61 421.8,-99.21 424,-97.88 426.38,-96.62 428.94,-95.43 431.65,-94.32 434.52,-93.29 437.54,-92.35 440.68,-91.5 443.95,-90.73 447.33,-90.05 450.81,-89.47 454.36,-88.98 457.99,-88.59 461.67,-88.3 465.39,-88.1 469.13,-88 472.87,-88 476.61,-88.1"/>
<text xml:space="preserve" text-anchor="middle" x="471" y="-119.8" font-family="sans-serif" font-size="14.00">PaymentService</text>
</a>
</g>
</g>
<!-- #/domains/commerce/subdomains/ordering/boundedcontexts/ordering/services/ordering_service&#45;&gt;#/domains/payment_processing/subdomains/payment_processors/boundedcontexts/payment_processor/services/payment_service -->
<g id="edge3" class="edge">
<title>#/domains/commerce/subdomains/ordering/boundedcontexts/ordering/services/ordering_service&#45;&gt;#/domains/payment_processing/subdomains/payment_processors/boundedcontexts/payment_processor/services/payment_service</title>
<path fill="none" stroke="black" d="M468.56,-376.29C442.77,-358.34 412.85,-332.12 398.45,-300 377.5,-253.24 408.92,-198.58 436.72,-162.95"/>
<polygon fill="black" stroke="black" points="439.18,-165.48 442.73,-155.5 433.73,-161.09 439.18,-165.48"/>
<text xml:space="preserve" text-anchor="middle" x="431.23" y="-291" font-family="sans-serif" font-size="10.00">ProcessPayment</text>
<g id="a_edge3&#45;headlabel"><a xlink:title="open&#45;host&#45;service">
<text xml:space="preserve" text-anchor="middle" x="443.68" y="-151.32" font-family="sans-serif" font-size="10.00">OHS</text>
</a>
</g>
<g id="a_edge3&#45;taillabel"><a xlink:title="customer&#45;supplier">
<text xml:space="preserve" text-anchor="middle" x="468.56" y="-373.29" font-family="sans-serif" font-size="10.00">C/s</text>
</a>
</g>
</g>
<!-- #/domains/commerce/subdomains/ordering/boundedcontexts/ordering/services/ordering_service&#45;&gt;#/domains/payment_processing/subdomains/payment_processors/boundedcontexts/payment_processor/services/payment_service -->
<g id="edge4" class="edge">
<title>#/domains/commerce/subdomains/ordering/boundedcontexts/ordering/services/ordering_service&#45;&gt;#/domains/payment_processing/subdomains/payment_processors/boundedcontexts/payment_processor/services/payment_service</title>
<path fill="none" stroke="black" d="M508.55,-367.79C500.83,-317.87 486.69,-226.44 478.14,-171.15"/>
<polygon fill="black" stroke="black" points="481.62,-170.77 476.63,-161.42 474.7,-171.84 481.62,-170.77"/>
<text xml:space="preserve" text-anchor="middle" x="536.49" y="-291" font-family="sans-serif" font-size="10.00">PaymentSucceeded</text>
<g id="a_edge4&#45;headlabel"><a xlink:title="published&#45;language">
<text xml:space="preserve" text-anchor="middle" x="476.4" y="-156.92" font-family="sans-serif" font-size="10.00">PL</text>
</a>
</g>
<g id="a_edge4&#45;taillabel"><a xlink:title="conformist">
<text xml:space="preserve" text-anchor="middle" x="508.55" y="-364.79" font-family="sans-serif" font-size="10.00">C</text>
</a>
</g>
</g>
</g>
</svg>
