<?xml version="1.0" encoding="UTF-8" standalone="no"?>
<?xml-stylesheet href="data:text/css,.graph%20text%20%7B%0A%09font-family%3A%20sans-serif%3B%0A%09stroke%3A%20white%3B%0A%09paint-order%3A%20stroke%3B%0A%09stroke-width%3A%203%3B%0A%09stroke-linecap%3A%20square%3B%0A%7D%0A%0A.namespace%20polygon%20%7B%0A%09fill-opacity%3A%200.2%3B%0A%09stroke%3A%20none%3B%0A%7D%0A" type="text/css"?>
<!DOCTYPE svg PUBLIC "-//W3C//DTD SVG 1.1//EN"
 "http://www.w3.org/Graphics/SVG/1.1/DTD/svg11.dtd">
<!-- Generated by graphviz version 13.1.2 (0)
 -->
<!-- Pages: 1 -->
<svg width="1126pt" height="788pt"
 viewBox="0.00 0.00 1126.00 788.00" xmlns="http://www.w3.org/2000/svg" xmlns:xlink="http://www.w3.org/1999/xlink">
<g id="graph0" class="graph" transform="scale(1 1) rotate(0) translate(4 784)">
<polygon fill="white" stroke="none" points="-4,4 -4,-784 1122,-784 1122,4 -4,4"/>
<g id="clust1" class="cluster namespace">
<title>e_shop</title>
<polygon fill="lightgrey" stroke="lightgrey" points="8,-8 8,-772 1110,-772 1110,-8 8,-8"/>
<text xml:space="preserve" text-anchor="middle" x="559" y="-759" font-family="sans-serif" font-size="10.00">eShop</text>
</g>
<g id="clust2" class="cluster namespace">
<title>#/domains/identity_&amp;_access</title>
<polygon fill="lightgrey" stroke="lightgrey" points="28,-272 28,-488 298,-488 298,-272 28,-272"/>
<text xml:space="preserve" text-anchor="middle" x="163" y="-475" font-family="sans-serif" font-size="10.00">Identity &amp; Access</text>
</g>
<g id="clust3" class="cluster namespace">
<title>#/domains/identity_&amp;_access/subdomains/auth_n_and_auth_z</title>
<polygon fill="lightgrey" stroke="lightgrey" points="48,-292 48,-448 278,-448 278,-292 48,-292"/>
<text xml:space="preserve" text-anchor="middle" x="163" y="-435" font-family="sans-serif" font-size="10.00">AuthN and AuthZ</text>
</g>
<g id="clust4" class="cluster namespace">
<title>#/domains/identity_&amp;_access/subdomains/auth_n_and_auth_z/boundedcontexts/identity</title>
<polygon fill="lightgrey" stroke="lightgrey" points="68,-312 68,-408 258,-408 258,-312 68,-312"/>
<text xml:space="preserve" text-anchor="middle" x="163" y="-395" font-family="sans-serif" font-size="10.00">Identity</text>
</g>
<g id="clust5" class="cluster namespace">
<title>#/domains/edge_&amp;_experience</title>
<polygon fill="lightgrey" stroke="lightgrey" points="515,-516 515,-732 771,-732 771,-516 515,-516"/>
<text xml:space="preserve" text-anchor="middle" x="643" y="-719" font-family="sans-serif" font-size="10.00">Edge &amp; Experience</text>
</g>
<g id="clust6" class="cluster namespace">
<title>#/domains/edge_&amp;_experience/subdomains/web</title>
<polygon fill="lightgrey" stroke="lightgrey" points="535,-536 535,-692 751,-692 751,-536 535,-536"/>
<text xml:space="preserve" text-anchor="middle" x="643" y="-679" font-family="sans-serif" font-size="10.00">Web</text>
</g>
<g id="clust7" class="cluster namespace">
<title>#/domains/edge_&amp;_experience/subdomains/web/boundedcontexts/web</title>
<polygon fill="lightgrey" stroke="lightgrey" points="555,-556 555,-652 731,-652 731,-556 555,-556"/>
<text xml:space="preserve" text-anchor="middle" x="643" y="-639" font-family="sans-serif" font-size="10.00">Web</text>
</g>
<g id="clust8" class="cluster namespace">
<title>#/domains/commerce</title>
<polygon fill="lightgrey" stroke="lightgrey" points="318,-272 318,-488 1090,-488 1090,-272 318,-272"/>
<text xml:space="preserve" text-anchor="middle" x="704" y="-475" font-family="sans-serif" font-size="10.00">Commerce</text>
</g>
<g id="clust9" class="cluster namespace">
<title>#/domains/commerce/subdomains/catalog</title>
<polygon fill="lightgrey" stroke="lightgrey" points="338,-292 338,-448 568,-448 568,-292 338,-292"/>
<text xml:space="preserve" text-anchor="middle" x="453" y="-435" font-family="sans-serif" font-size="10.00">Catalog</text>
</g>
<g id="clust10" class="cluster namespace">
<title>#/domains/commerce/subdomains/catalog/boundedcontexts/catalog</title>
<polygon fill="lightgrey" stroke="lightgrey" points="358,-312 358,-408 548,-408 548,-312 358,-312"/>
<text xml:space="preserve" text-anchor="middle" x="453" y="-395" font-family="sans-serif" font-size="10.00">Catalog</text>
</g>
<g id="clust11" class="cluster namespace">
<title>#/domains/commerce/subdomains/basket</title>
<polygon fill="lightgrey" stroke="lightgrey" points="588,-292 588,-448 810,-448 810,-292 588,-292"/>
<text xml:space="preserve" text-anchor="middle" x="699" y="-435" font-family="sans-serif" font-size="10.00">Basket</text>
</g>
<g id="clust12" class="cluster namespace">
<title>#/domains/commerce/subdomains/basket/boundedcontexts/basket</title>
<polygon fill="lightgrey" stroke="lightgrey" points="608,-312 608,-408 790,-408 790,-312 608,-312"/>
<text xml:space="preserve" text-anchor="middle" x="699" y="-395" font-family="sans-serif" font-size="10.00">Basket</text>
</g>
<g id="clust13" class="cluster namespace">
<title>#/domains/commerce/subdomains/ordering</title>
<polygon fill="lightgrey" stroke="lightgrey" points="830,-292 830,-448 1070,-448 1070,-292 830,-292"/>
<text xml:space="preserve" text-anchor="middle" x="950" y="-435" font-family="sans-serif" font-size="10.00">Ordering</text>
</g>
<g id="clust14" class="cluster namespace">
<title>#/domains/commerce/subdomains/ordering/boundedcontexts/ordering</title>
<polygon fill="lightgrey" stroke="lightgrey" points="850,-312 850,-408 1050,-408 1050,-312 850,-312"/>
<text xml:space="preserve" text-anchor="middle" x="950" y="-395" font-family="sans-serif" font-size="10.00">Ordering</text>
</g>
<g id="clust15" class="cluster namespace">
<title>#/domains/payment_processing</title>
<polygon fill="lightgrey" stroke="lightgrey" points="777,-28 777,-244 1055,-244 1055,-28 777,-28"/>
<text xml:space="preserve" text-anchor="middle" x="916" y="-231" font-family="sans-serif" font-size="10.00">Payment Processing</text>
</g>
<g id="clust16" class="cluster namespace">
<title>#/domains/payment_processing/subdomains/payment_processors</title>
<polygon fill="lightgrey" stroke="lightgrey" points="797,-48 797,-204 1035,-204 1035,-48 797,-48"/>
<text xml:space="preserve" text-anchor="middle" x="916" y="-191" font-family="sans-serif" font-size="10.00">Payment Processors</text>
</g>
<g id="clust17" class="cluster namespace">
<title>#/domains/payment_processing/subdomains/payment_processors/boundedcontexts/payment_processor</title>
<polygon fill="lightgrey" stroke="lightgrey" points="817,-68 817,-164 1015,-164 1015,-68 817,-68"/>
<text xml:space="preserve" text-anchor="middle" x="916" y="-151" font-family="sans-serif" font-size="10.00">PaymentProcessor</text>
</g>
<!-- #/domains/identity_&amp;_access/subdomains/auth_n_and_auth_z/boundedcontexts/identity/services/identity_service -->
<g id="node1" class="node">
<title>#/domains/identity_&amp;_access/subdomains/auth_n_and_auth_z/boundedcontexts/identity/services/identity_service</title>
<g id="a_node1"><a xlink:title="Token service for authN/authZ.">
<polygon fill="white" stroke="black" points="169.9,-332.05 174.47,-332.15 178.99,-332.3 183.45,-332.49 187.82,-332.74 192.09,-333.03 196.24,-333.36 200.26,-333.75 204.13,-334.18 207.84,-334.65 211.37,-335.16 214.7,-335.71 217.84,-336.31 220.77,-336.94 223.48,-337.61 225.96,-338.31 228.2,-339.04 230.21,-339.8 231.98,-340.59 233.51,-341.41 234.79,-342.25 235.83,-343.11 236.62,-343.99 237.17,-344.89 237.49,-345.8 237.58,-346.72 237.44,-347.65 237.08,-348.59 236.5,-349.53 235.72,-350.47 234.75,-351.41 233.59,-352.35 232.25,-353.28 230.74,-354.2 229.08,-355.11 227.27,-356.01 225.32,-356.89 223.24,-357.75 221.04,-358.59 218.74,-359.41 216.34,-360.2 213.84,-360.96 211.27,-361.69 208.63,-362.39 205.92,-363.06 203.16,-363.69 200.34,-364.29 197.49,-364.84 194.59,-365.35 191.66,-365.82 188.71,-366.25 185.73,-366.64 182.74,-366.97 179.72,-367.26 176.7,-367.51 173.66,-367.7 170.62,-367.85 167.58,-367.95 164.53,-368 161.47,-368 158.42,-367.95 155.38,-367.85 152.34,-367.7 149.3,-367.51 146.28,-367.26 143.26,-366.97 140.27,-366.64 137.29,-366.25 134.34,-365.82 131.41,-365.35 128.51,-364.84 125.66,-364.29 122.84,-363.69 120.08,-363.06 117.37,-362.39 114.73,-361.69 112.16,-360.96 109.66,-360.2 107.26,-359.41 104.96,-358.59 102.76,-357.75 100.68,-356.89 98.73,-356.01 96.92,-355.11 95.26,-354.2 93.75,-353.28 92.41,-352.35 91.25,-351.41 90.28,-350.47 89.5,-349.53 88.92,-348.59 88.56,-347.65 88.42,-346.72 88.51,-345.8 88.83,-344.89 89.38,-343.99 90.17,-343.11 91.21,-342.25 92.49,-341.41 94.02,-340.59 95.79,-339.8 97.8,-339.04 100.04,-338.31 102.52,-337.61 105.23,-336.94 108.16,-336.31 111.3,-335.71 114.63,-335.16 118.16,-334.65 121.87,-334.18 125.74,-333.75 129.76,-333.36 133.91,-333.03 138.18,-332.74 142.55,-332.49 147.01,-332.3 151.53,-332.15 156.1,-332.05 160.7,-332 165.3,-332 169.9,-332.05"/>
<text xml:space="preserve" text-anchor="middle" x="163" y="-345.8" font-family="sans-serif" font-size="14.00">IdentityService</text>
</a>
</g>
</g>
<!-- #/domains/edge_&amp;_experience/subdomains/web/boundedcontexts/web/services/web_frontend -->
<g id="node2" class="node">
<title>#/domains/edge_&amp;_experience/subdomains/web/boundedcontexts/web/services/web_frontend</title>
<g id="a_node2"><a xlink:title="Blazor Server web app for customers.">
<polygon fill="white" stroke="black" points="649.32,-576.05 653.5,-576.15 657.65,-576.3 661.73,-576.49 665.73,-576.74 669.64,-577.03 673.45,-577.36 677.13,-577.75 680.67,-578.18 684.06,-578.65 687.29,-579.16 690.35,-579.71 693.23,-580.31 695.91,-580.94 698.39,-581.61 700.66,-582.31 702.72,-583.04 704.56,-583.8 706.18,-584.59 707.57,-585.41 708.75,-586.25 709.7,-587.11 710.42,-587.99 710.93,-588.89 711.22,-589.8 711.3,-590.72 711.17,-591.65 710.84,-592.59 710.32,-593.53 709.6,-594.47 708.71,-595.41 707.65,-596.35 706.42,-597.28 705.04,-598.2 703.52,-599.11 701.86,-600.01 700.07,-600.89 698.17,-601.75 696.16,-602.59 694.05,-603.41 691.85,-604.2 689.57,-604.96 687.21,-605.69 684.79,-606.39 682.31,-607.06 679.78,-607.69 677.2,-608.29 674.58,-608.84 671.93,-609.35 669.25,-609.82 666.55,-610.25 663.82,-610.64 661.08,-610.97 658.32,-611.26 655.55,-611.51 652.77,-611.7 649.98,-611.85 647.19,-611.95 644.4,-612 641.6,-612 638.81,-611.95 636.02,-611.85 633.23,-611.7 630.45,-611.51 627.68,-611.26 624.92,-610.97 622.18,-610.64 619.45,-610.25 616.75,-609.82 614.07,-609.35 611.42,-608.84 608.8,-608.29 606.22,-607.69 603.69,-607.06 601.21,-606.39 598.79,-605.69 596.43,-604.96 594.15,-604.2 591.95,-603.41 589.84,-602.59 587.83,-601.75 585.93,-600.89 584.14,-600.01 582.48,-599.11 580.96,-598.2 579.58,-597.28 578.35,-596.35 577.29,-595.41 576.4,-594.47 575.68,-593.53 575.16,-592.59 574.83,-591.65 574.7,-590.72 574.78,-589.8 575.07,-588.89 575.58,-587.99 576.3,-587.11 577.25,-586.25 578.43,-585.41 579.82,-584.59 581.44,-583.8 583.28,-583.04 585.34,-582.31 587.61,-581.61 590.09,-580.94 592.77,-580.31 595.65,-579.71 598.71,-579.16 601.94,-578.65 605.33,-578.18 608.87,-577.75 612.55,-577.36 616.36,-577.03 620.27,-576.74 624.27,-576.49 628.35,-576.3 632.5,-576.15 636.68,-576.05 640.89,-576 645.11,-576 649.32,-576.05"/>
<text xml:space="preserve" text-anchor="middle" x="643" y="-589.8" font-family="sans-serif" font-size="14.00">WebFrontend</text>
</a>
</g>
</g>
<!-- #/domains/edge_&amp;_experience/subdomains/web/boundedcontexts/web/services/web_frontend&#45;&gt;#/domains/identity_&amp;_access/subdomains/auth_n_and_auth_z/boundedcontexts/identity/services/identity_service -->
<g id="edge1" class="edge">
<title>#/domains/edge_&amp;_experience/subdomains/web/boundedcontexts/web/services/web_frontend&#45;&gt;#/domains/identity_&amp;_access/subdomains/auth_n_and_auth_z/boundedcontexts/identity/services/identity_service</title>
<path fill="none" stroke="black" d="M591.53,-580.18C530.29,-563.75 426.04,-532.05 344,-488 284.08,-455.82 222.69,-404.77 189.05,-374.91"/>
<polygon fill="black" stroke="black" points="191.62,-372.52 181.84,-368.45 186.95,-377.73 191.62,-372.52"/>
<text xml:space="preserve" text-anchor="middle" x="405.57" y="-499" font-family="sans-serif" font-size="10.00">IssueToken</text>
<g id="a_edge1&#45;headlabel"><a xlink:title="open&#45;host&#45;service">
<text xml:space="preserve" text-anchor="middle" x="180.71" y="-364.44" font-family="sans-serif" font-size="10.00">OHS</text>
</a>
</g>
<g id="a_edge1&#45;taillabel"><a xlink:title="customer&#45;supplier">
<text xml:space="preserve" text-anchor="middle" x="591.53" y="-577.18" font-family="sans-serif" font-size="10.00">C/s</text>
</a>
</g>
</g>
<!-- #/domains/commerce/subdomains/catalog/boundedcontexts/catalog/services/catalog_service -->
<g id="node3" class="node">
<title>#/domains/commerce/subdomains/catalog/boundedcontexts/catalog/services/catalog_service</title>
<g id="a_node3"><a xlink:title="Catalog application service (HTTP).">
<polygon fill="white" stroke="black" points="459.9,-332.05 464.47,-332.15 468.99,-332.3 473.45,-332.49 477.82,-332.74 482.09,-333.03 486.24,-333.36 490.26,-333.75 494.13,-334.18 497.84,-334.65 501.37,-335.16 504.7,-335.71 507.84,-336.31 510.77,-336.94 513.48,-337.61 515.96,-338.31 518.2,-339.04 520.21,-339.8 521.98,-340.59 523.51,-341.41 524.79,-342.25 525.83,-343.11 526.62,-343.99 527.17,-344.89 527.49,-345.8 527.58,-346.72 527.44,-347.65 527.08,-348.59 526.5,-349.53 525.72,-350.47 524.75,-351.41 523.59,-352.35 522.25,-353.28 520.74,-354.2 519.08,-355.11 517.27,-356.01 515.32,-356.89 513.24,-357.75 511.04,-358.59 508.74,-359.41 506.34,-360.2 503.84,-360.96 501.27,-361.69 498.63,-362.39 495.92,-363.06 493.16,-363.69 490.34,-364.29 487.49,-364.84 484.59,-365.35 481.66,-365.82 478.71,-366.25 475.73,-366.64 472.74,-366.97 469.72,-367.26 466.7,-367.51 463.66,-367.7 460.62,-367.85 457.58,-367.95 454.53,-368 451.47,-368 448.42,-367.95 445.38,-367.85 442.34,-367.7 439.3,-367.51 436.28,-367.26 433.26,-366.97 430.27,-366.64 427.29,-366.25 424.34,-365.82 421.41,-365.35 418.51,-364.84 415.66,-364.29 412.84,-363.69 410.08,-363.06 407.37,-362.39 404.73,-361.69 402.16,-360.96 399.66,-360.2 397.26,-359.41 394.96,-358.59 392.76,-357.75 390.68,-356.89 388.73,-356.01 386.92,-355.11 385.26,-354.2 383.75,-353.28 382.41,-352.35 381.25,-351.41 380.28,-350.47 379.5,-349.53 378.92,-348.59 378.56,-347.65 378.42,-346.72 378.51,-345.8 378.83,-344.89 379.38,-343.99 380.17,-343.11 381.21,-342.25 382.49,-341.41 384.02,-340.59 385.79,-339.8 387.8,-339.04 390.04,-338.31 392.52,-337.61 395.23,-336.94 398.16,-336.31 401.3,-335.71 404.63,-335.16 408.16,-334.65 411.87,-334.18 415.74,-333.75 419.76,-333.36 423.91,-333.03 428.18,-332.74 432.55,-332.49 437.01,-332.3 441.53,-332.15 446.1,-332.05 450.7,-332 455.3,-332 459.9,-332.05"/>
<text xml:space="preserve" text-anchor="middle" x="453" y="-345.8" font-family="sans-serif" font-size="14.00">CatalogService</text>
</a>
</g>
</g>
<!-- #/domains/edge_&amp;_experience/subdomains/web/boundedcontexts/web/services/web_frontend&#45;&gt;#/domains/commerce/subdomains/catalog/boundedcontexts/catalog/services/catalog_service -->
<g id="edge2" class="edge">
<title>#/domains/edge_&amp;_experience/subdomains/web/boundedcontexts/web/services/web_frontend&#45;&gt;#/domains/commerce/subdomains/catalog/boundedcontexts/catalog/services/catalog_service</title>
<path fill="none" stroke="black" d="M601.24,-578.43C568.64,-565 524.6,-541.95 498.24,-508 468.8,-470.09 458.52,-413.7 454.92,-379.82"/>
<polygon fill="black" stroke="black" points="458.42,-379.58 454.02,-369.94 451.45,-380.22 458.42,-379.58"/>
<text xml:space="preserve" text-anchor="middle" x="532.12" y="-499" font-family="sans-serif" font-size="10.00">GetCatalogItems</text>
<g id="a_edge2&#45;headlabel"><a xlink:title="open&#45;host&#45;service">
<text xml:space="preserve" text-anchor="middle" x="453.88" y="-365.44" font-family="sans-serif" font-size="10.00">OHS</text>
</a>
</g>
<g id="a_edge2&#45;taillabel"><a xlink:title="anti&#45;corruption&#45;layer">
<text xml:space="preserve" text-anchor="middle" x="601.24" y="-575.43" font-family="sans-serif" font-size="10.00">ACL</text>
</a>
</g>
</g>
<!-- #/domains/commerce/subdomains/basket/boundedcontexts/basket/services/basket_service -->
<g id="node4" class="node">
<title>#/domains/commerce/subdomains/basket/boundedcontexts/basket/services/basket_service</title>
<g id="a_node4"><a xlink:title="Basket application service.">
<polygon fill="white" stroke="black" points="705.53,-332.05 709.86,-332.15 714.13,-332.3 718.35,-332.49 722.49,-332.74 726.53,-333.03 730.46,-333.36 734.27,-333.75 737.93,-334.18 741.43,-334.65 744.77,-335.16 747.93,-335.71 750.9,-336.31 753.67,-336.94 756.23,-337.61 758.58,-338.31 760.71,-339.04 762.61,-339.8 764.29,-340.59 765.73,-341.41 766.94,-342.25 767.92,-343.11 768.67,-343.99 769.2,-344.89 769.5,-345.8 769.58,-346.72 769.45,-347.65 769.11,-348.59 768.56,-349.53 767.83,-350.47 766.9,-351.41 765.81,-352.35 764.54,-353.28 763.11,-354.2 761.54,-355.11 759.82,-356.01 757.98,-356.89 756.01,-357.75 753.93,-358.59 751.75,-359.41 749.48,-360.2 747.12,-360.96 744.69,-361.69 742.18,-362.39 739.62,-363.06 737.01,-363.69 734.34,-364.29 731.64,-364.84 728.9,-365.35 726.13,-365.82 723.33,-366.25 720.51,-366.64 717.68,-366.97 714.83,-367.26 711.97,-367.51 709.09,-367.7 706.21,-367.85 703.33,-367.95 700.44,-368 697.56,-368 694.67,-367.95 691.79,-367.85 688.91,-367.7 686.03,-367.51 683.17,-367.26 680.32,-366.97 677.49,-366.64 674.67,-366.25 671.87,-365.82 669.1,-365.35 666.36,-364.84 663.66,-364.29 660.99,-363.69 658.38,-363.06 655.82,-362.39 653.31,-361.69 650.88,-360.96 648.52,-360.2 646.25,-359.41 644.07,-358.59 641.99,-357.75 640.02,-356.89 638.18,-356.01 636.46,-355.11 634.89,-354.2 633.46,-353.28 632.19,-352.35 631.1,-351.41 630.17,-350.47 629.44,-349.53 628.89,-348.59 628.55,-347.65 628.42,-346.72 628.5,-345.8 628.8,-344.89 629.33,-343.99 630.08,-343.11 631.06,-342.25 632.27,-341.41 633.71,-340.59 635.39,-339.8 637.29,-339.04 639.42,-338.31 641.77,-337.61 644.33,-336.94 647.1,-336.31 650.07,-335.71 653.23,-335.16 656.57,-334.65 660.07,-334.18 663.73,-333.75 667.54,-333.36 671.47,-333.03 675.51,-332.74 679.65,-332.49 683.87,-332.3 688.14,-332.15 692.47,-332.05 696.82,-332 701.18,-332 705.53,-332.05"/>
<text xml:space="preserve" text-anchor="middle" x="699" y="-345.8" font-family="sans-serif" font-size="14.00">BasketService</text>
</a>
</g>
</g>
<!-- #/domains/edge_&amp;_experience/subdomains/web/boundedcontexts/web/services/web_frontend&#45;&gt;#/domains/commerce/subdomains/basket/boundedcontexts/basket/services/basket_service -->
<g id="edge3" class="edge">
<title>#/domains/edge_&amp;_experience/subdomains/web/boundedcontexts/web/services/web_frontend&#45;&gt;#/domains/commerce/subdomains/basket/boundedcontexts/basket/services/basket_service</title>
<path fill="none" stroke="black" d="M620.94,-576.32C599.46,-557.89 571.52,-526.72 582.34,-496 599.86,-446.29 642.42,-401.06 670.99,-374.78"/>
<polygon fill="black" stroke="black" points="673.15,-377.55 678.24,-368.26 668.47,-372.34 673.15,-377.55"/>
<text xml:space="preserve" text-anchor="middle" x="603.17" y="-499" font-family="sans-serif" font-size="10.00">GetBasket</text>
<g id="a_edge3&#45;headlabel"><a xlink:title="open&#45;host&#45;service">
<text xml:space="preserve" text-anchor="middle" x="679.37" y="-364.25" font-family="sans-serif" font-size="10.00">OHS</text>
</a>
</g>
<g id="a_edge3&#45;taillabel"><a xlink:title="anti&#45;corruption&#45;layer">
<text xml:space="preserve" text-anchor="middle" x="620.94" y="-573.32" font-family="sans-serif" font-size="10.00">ACL</text>
</a>
</g>
</g>
<!-- #/domains/edge_&amp;_experience/subdomains/web/boundedcontexts/web/services/web_frontend&#45;&gt;#/domains/commerce/subdomains/basket/boundedcontexts/basket/services/basket_service -->
<g id="edge4" class="edge">
<title>#/domains/edge_&amp;_experience/subdomains/web/boundedcontexts/web/services/web_frontend&#45;&gt;#/domains/commerce/subdomains/basket/boundedcontexts/basket/services/basket_service</title>
<path fill="none" stroke="black" d="M647.03,-575.6C656.59,-534.26 680.75,-429.87 692.45,-379.31"/>
<polygon fill="black" stroke="black" points="695.82,-380.25 694.67,-369.72 689,-378.67 695.82,-380.25"/>
<text xml:space="preserve" text-anchor="middle" x="682.11" y="-499" font-family="sans-serif" font-size="10.00">AddItem</text>
<g id="a_edge4&#45;headlabel"><a xlink:title="open&#45;host&#45;service">
<text xml:space="preserve" text-anchor="middle" x="695.01" y="-365.25" font-family="sans-serif" font-size="10.00">OHS</text>
</a>
</g>
<g id="a_edge4&#45;taillabel"><a xlink:title="anti&#45;corruption&#45;layer">
<text xml:space="preserve" text-anchor="middle" x="647.03" y="-572.6" font-family="sans-serif" font-size="10.00">ACL</text>
</a>
</g>
</g>
<!-- #/domains/edge_&amp;_experience/subdomains/web/boundedcontexts/web/services/web_frontend&#45;&gt;#/domains/commerce/subdomains/basket/boundedcontexts/basket/services/basket_service -->
<g id="edge5" class="edge">
<title>#/domains/edge_&amp;_experience/subdomains/web/boundedcontexts/web/services/web_frontend&#45;&gt;#/domains/commerce/subdomains/basket/boundedcontexts/basket/services/basket_service</title>
<path fill="none" stroke="black" d="M663.36,-576.22C680.57,-560.62 703.97,-535.66 714,-508 729.63,-464.9 718.4,-411.02 708.76,-378.89"/>
<polygon fill="black" stroke="black" points="712.15,-378.02 705.79,-369.55 705.48,-380.14 712.15,-378.02"/>
<text xml:space="preserve" text-anchor="middle" x="741.01" y="-499" font-family="sans-serif" font-size="10.00">ClearBasket</text>
<g id="a_edge5&#45;headlabel"><a xlink:title="open&#45;host&#45;service">
<text xml:space="preserve" text-anchor="middle" x="705.33" y="-365.1" font-family="sans-serif" font-size="10.00">OHS</text>
</a>
</g>
<g id="a_edge5&#45;taillabel"><a xlink:title="anti&#45;corruption&#45;layer">
<text xml:space="preserve" text-anchor="middle" x="663.36" y="-573.22" font-family="sans-serif" font-size="10.00">ACL</text>
</a>
</g>
</g>
<!-- #/domains/commerce/subdomains/ordering/boundedcontexts/ordering/services/ordering_service -->
<g id="node5" class="node">
<title>#/domains/commerce/subdomains/ordering/boundedcontexts/ordering/services/ordering_service</title>
<g id="a_node5"><a xlink:title="Ordering application service.">
<polygon fill="white" stroke="black" points="957.38,-332.05 962.26,-332.15 967.09,-332.3 971.86,-332.49 976.53,-332.74 981.1,-333.03 985.53,-333.36 989.83,-333.75 993.97,-334.18 997.93,-334.65 1001.7,-335.16 1005.26,-335.71 1008.62,-336.31 1011.75,-336.94 1014.64,-337.61 1017.29,-338.31 1019.7,-339.04 1021.84,-339.8 1023.73,-340.59 1025.37,-341.41 1026.73,-342.25 1027.84,-343.11 1028.69,-343.99 1029.28,-344.89 1029.62,-345.8 1029.71,-346.72 1029.56,-347.65 1029.18,-348.59 1028.57,-349.53 1027.73,-350.47 1026.69,-351.41 1025.45,-352.35 1024.02,-353.28 1022.41,-354.2 1020.63,-355.11 1018.69,-356.01 1016.61,-356.89 1014.39,-357.75 1012.04,-358.59 1009.58,-359.41 1007.01,-360.2 1004.35,-360.96 1001.6,-361.69 998.77,-362.39 995.88,-363.06 992.92,-363.69 989.92,-364.29 986.86,-364.84 983.77,-365.35 980.64,-365.82 977.48,-366.25 974.3,-366.64 971.1,-366.97 967.88,-367.26 964.64,-367.51 961.4,-367.7 958.15,-367.85 954.89,-367.95 951.63,-368 948.37,-368 945.11,-367.95 941.85,-367.85 938.6,-367.7 935.36,-367.51 932.12,-367.26 928.9,-366.97 925.7,-366.64 922.52,-366.25 919.36,-365.82 916.23,-365.35 913.14,-364.84 910.08,-364.29 907.08,-363.69 904.12,-363.06 901.23,-362.39 898.4,-361.69 895.65,-360.96 892.99,-360.2 890.42,-359.41 887.96,-358.59 885.61,-357.75 883.39,-356.89 881.31,-356.01 879.37,-355.11 877.59,-354.2 875.98,-353.28 874.55,-352.35 873.31,-351.41 872.27,-350.47 871.43,-349.53 870.82,-348.59 870.44,-347.65 870.29,-346.72 870.38,-345.8 870.72,-344.89 871.31,-343.99 872.16,-343.11 873.27,-342.25 874.63,-341.41 876.27,-340.59 878.16,-339.8 880.3,-339.04 882.71,-338.31 885.36,-337.61 888.25,-336.94 891.38,-336.31 894.74,-335.71 898.3,-335.16 902.07,-334.65 906.03,-334.18 910.17,-333.75 914.47,-333.36 918.9,-333.03 923.47,-332.74 928.14,-332.49 932.91,-332.3 937.74,-332.15 942.62,-332.05 947.54,-332 952.46,-332 957.38,-332.05"/>
<text xml:space="preserve" text-anchor="middle" x="950" y="-345.8" font-family="sans-serif" font-size="14.00">OrderingService</text>
</a>
</g>
</g>
<!-- #/domains/edge_&amp;_experience/subdomains/web/boundedcontexts/web/services/web_frontend&#45;&gt;#/domains/commerce/subdomains/ordering/boundedcontexts/ordering/services/ordering_service -->
<g id="edge6" class="edge">
<title>#/domains/edge_&amp;_experience/subdomains/web/boundedcontexts/web/services/web_frontend&#45;&gt;#/domains/commerce/subdomains/ordering/boundedcontexts/ordering/services/ordering_service</title>
<path fill="none" stroke="black" d="M670.96,-576.82C698.89,-560.36 742.77,-533.68 779,-508 836.65,-467.13 895.54,-408.6 926.94,-375.77"/>
<polygon fill="black" stroke="black" points="929.29,-378.38 933.63,-368.71 924.21,-373.56 929.29,-378.38"/>
<text xml:space="preserve" text-anchor="middle" x="816.65" y="-499" font-family="sans-serif" font-size="10.00">PlaceOrder</text>
<g id="a_edge6&#45;headlabel"><a xlink:title="open&#45;host&#45;service">
<text xml:space="preserve" text-anchor="middle" x="934.67" y="-364.61" font-family="sans-serif" font-size="10.00">OHS</text>
</a>
</g>
<g id="a_edge6&#45;taillabel"><a xlink:title="anti&#45;corruption&#45;layer">
<text xml:space="preserve" text-anchor="middle" x="670.96" y="-573.82" font-family="sans-serif" font-size="10.00">ACL</text>
</a>
</g>
</g>
<!-- #/domains/payment_processing/subdomains/payment_processors/boundedcontexts/payment_processor/services/payment_service -->
<g id="node6" class="node">
<title>#/domains/payment_processing/subdomains/payment_processors/boundedcontexts/payment_processor/services/payment_service</title>
<g id="a_node6"><a xlink:title="Takes payments and emits status changes.">
<polygon fill="white" stroke="black" points="923.27,-88.05 928.09,-88.15 932.85,-88.3 937.55,-88.49 942.15,-88.74 946.65,-89.03 951.03,-89.36 955.26,-89.75 959.34,-90.18 963.24,-90.65 966.96,-91.16 970.48,-91.71 973.78,-92.31 976.87,-92.94 979.72,-93.61 982.33,-94.31 984.7,-95.04 986.82,-95.8 988.69,-96.59 990.29,-97.41 991.64,-98.25 992.73,-99.11 993.57,-99.99 994.16,-100.89 994.49,-101.8 994.58,-102.72 994.43,-103.65 994.05,-104.59 993.45,-105.53 992.63,-106.47 991.6,-107.41 990.38,-108.35 988.97,-109.28 987.38,-110.2 985.62,-111.11 983.71,-112.01 981.66,-112.89 979.47,-113.75 977.16,-114.59 974.73,-115.41 972.2,-116.2 969.57,-116.96 966.86,-117.69 964.08,-118.39 961.23,-119.06 958.31,-119.69 955.35,-120.29 952.34,-120.84 949.29,-121.35 946.2,-121.82 943.09,-122.25 939.95,-122.64 936.8,-122.97 933.62,-123.26 930.43,-123.51 927.24,-123.7 924.03,-123.85 920.82,-123.95 917.61,-124 914.39,-124 911.18,-123.95 907.97,-123.85 904.76,-123.7 901.57,-123.51 898.38,-123.26 895.2,-122.97 892.05,-122.64 888.91,-122.25 885.8,-121.82 882.71,-121.35 879.66,-120.84 876.65,-120.29 873.69,-119.69 870.77,-119.06 867.92,-118.39 865.14,-117.69 862.43,-116.96 859.8,-116.2 857.27,-115.41 854.84,-114.59 852.53,-113.75 850.34,-112.89 848.29,-112.01 846.38,-111.11 844.62,-110.2 843.03,-109.28 841.62,-108.35 840.4,-107.41 839.37,-106.47 838.55,-105.53 837.95,-104.59 837.57,-103.65 837.42,-102.72 837.51,-101.8 837.84,-100.89 838.43,-99.99 839.27,-99.11 840.36,-98.25 841.71,-97.41 843.31,-96.59 845.18,-95.8 847.3,-95.04 849.67,-94.31 852.28,-93.61 855.13,-92.94 858.22,-92.31 861.52,-91.71 865.04,-91.16 868.76,-90.65 872.66,-90.18 876.74,-89.75 880.97,-89.36 885.35,-89.03 889.85,-88.74 894.45,-88.49 899.15,-88.3 903.91,-88.15 908.73,-88.05 913.57,-88 918.43,-88 923.27,-88.05"/>
<text xml:space="preserve" text-anchor="middle" x="916" y="-101.8" font-family="sans-serif" font-size="14.00">PaymentService</text>
</a>
</g>
</g>
<!-- #/domains/commerce/subdomains/ordering/boundedcontexts/ordering/services/ordering_service&#45;&gt;#/domains/payment_processing/subdomains/payment_processors/boundedcontexts/payment_processor/services/payment_service -->
<g id="edge7" class="edge">
<title>#/domains/commerce/subdomains/ordering/boundedcontexts/ordering/services/ordering_service&#45;&gt;#/domains/payment_processing/subdomains/payment_processors/boundedcontexts/payment_processor/services/payment_service</title>
<path fill="none" stroke="black" d="M916.45,-332.79C891.21,-318.56 858.49,-295.23 843.45,-264 821.07,-217.51 861.43,-162.69 890.38,-131.67"/>
<polygon fill="black" stroke="black" points="892.71,-134.3 897.13,-124.67 887.67,-129.44 892.71,-134.3"/>
<text xml:space="preserve" text-anchor="middle" x="876.23" y="-255" font-family="sans-serif" font-size="10.00">ProcessPayment</text>
<g id="a_edge7&#45;headlabel"><a xlink:title="open&#45;host&#45;service">
<text xml:space="preserve" text-anchor="middle" x="898.18" y="-120.58" font-family="sans-serif" font-size="10.00">OHS</text>
</a>
</g>
<g id="a_edge7&#45;taillabel"><a xlink:title="customer&#45;supplier">
<text xml:space="preserve" text-anchor="middle" x="916.45" y="-329.79" font-family="sans-serif" font-size="10.00">C/s</text>
</a>
</g>
</g>
<!-- #/domains/commerce/subdomains/ordering/boundedcontexts/ordering/services/ordering_service&#45;&gt;#/domains/payment_processing/subdomains/payment_processors/boundedcontexts/payment_processor/services/payment_service -->
<g id="edge8" class="edge">
<title>#/domains/commerce/subdomains/ordering/boundedcontexts/ordering/services/ordering_service&#45;&gt;#/domains/payment_processing/subdomains/payment_processors/boundedcontexts/payment_processor/services/payment_service</title>
<path fill="none" stroke="black" d="M947.55,-331.6C941.76,-290.35 927.14,-186.31 920.02,-135.63"/>
<polygon fill="black" stroke="black" points="923.49,-135.16 918.63,-125.75 916.56,-136.13 923.49,-135.16"/>
<text xml:space="preserve" text-anchor="middle" x="976.91" y="-255" font-family="sans-serif" font-size="10.00">PaymentSucceeded</text>
<g id="a_edge8&#45;headlabel"><a xlink:title="published&#45;language">
<text xml:space="preserve" text-anchor="middle" x="918.42" y="-121.25" font-family="sans-serif" font-size="10.00">PL</text>
</a>
</g>
<g id="a_edge8&#45;taillabel"><a xlink:title="conformist">
<text xml:space="preserve" text-anchor="middle" x="947.55" y="-328.6" font-family="sans-serif" font-size="10.00">C</text>
</a>
</g>
</g>
</g>
</svg>
