<?xml version="1.0" encoding="UTF-8" standalone="no"?>
<?xml-stylesheet href="data:text/css,.graph%20text%20%7B%0A%09font-family%3A%20sans-serif%3B%0A%09stroke%3A%20white%3B%0A%09paint-order%3A%20stroke%3B%0A%09stroke-width%3A%203%3B%0A%09stroke-linecap%3A%20square%3B%0A%7D%0A%0A.namespace%20polygon%20%7B%0A%09fill-opacity%3A%200.2%3B%0A%09stroke%3A%20none%3B%0A%7D%0A" type="text/css"?>
<!DOCTYPE svg PUBLIC "-//W3C//DTD SVG 1.1//EN"
 "http://www.w3.org/Graphics/SVG/1.1/DTD/svg11.dtd">
<!-- Generated by graphviz version 13.1.2 (0)
 -->
<!-- Pages: 1 -->
<svg width="300pt" height="496pt"
 viewBox="0.00 0.00 300.00 496.00" xmlns="http://www.w3.org/2000/svg" xmlns:xlink="http://www.w3.org/1999/xlink">
<g id="graph0" class="graph" transform="scale(1 1) rotate(0) translate(4 492)">
<polygon fill="white" stroke="none" points="-4,4 -4,-492 296,-492 296,4 -4,4"/>
<g id="clust1" class="cluster namespace">
<title>northbank</title>
<polygon fill="lightgrey" stroke="lightgrey" points="8,-8 8,-480 284,-480 284,-8 8,-8"/>
<text xml:space="preserve" text-anchor="middle" x="146" y="-467" font-family="sans-serif" font-size="10.00">NorthBank</text>
</g>
<g id="clust2" class="cluster namespace">
<title>#/boundedcontexts/identity_&amp;_access</title>
<polygon fill="lightgrey" stroke="lightgrey" points="69,-28 69,-160 223,-160 223,-28 69,-28"/>
<text xml:space="preserve" text-anchor="middle" x="146" y="-147" font-family="sans-serif" font-size="10.00">Identity &amp; Access</text>
</g>
<g id="clust3" class="cluster namespace">
<title>#/domains/customer</title>
<polygon fill="lightgrey" stroke="lightgrey" points="28,-188 28,-440 264,-440 264,-188 28,-188"/>
<text xml:space="preserve" text-anchor="middle" x="146" y="-427" font-family="sans-serif" font-size="10.00">Customer</text>
</g>
<g id="clust4" class="cluster namespace">
<title>#/domains/customer/subdomains/branch_&amp;_contact_centre</title>
<polygon fill="lightgrey" stroke="lightgrey" points="48,-208 48,-400 244,-400 244,-208 48,-208"/>
<text xml:space="preserve" text-anchor="middle" x="146" y="-387" font-family="sans-serif" font-size="10.00">Branch &amp; Contact Centre</text>
</g>
<g id="clust5" class="cluster namespace">
<title>#/boundedcontexts/branch_&amp;_contact_centre</title>
<polygon fill="lightgrey" stroke="lightgrey" points="68,-228 68,-360 224,-360 224,-228 68,-228"/>
<text xml:space="preserve" text-anchor="middle" x="146" y="-347" font-family="sans-serif" font-size="10.00">Branch &amp; Contact Centre</text>
</g>
<!-- #/boundedcontexts/identity_&amp;_access/aggregates/credential -->
<g id="node1" class="node">
<title>#/boundedcontexts/identity_&amp;_access/aggregates/credential</title>
<g id="a_node1"><a xlink:title="A customer&#39;s login">
<polygon fill="white" stroke="black" points="151.32,-48.1 154.84,-48.3 158.33,-48.59 161.76,-48.98 165.13,-49.47 168.42,-50.05 171.63,-50.73 174.72,-51.5 177.71,-52.35 180.56,-53.29 183.28,-54.32 185.85,-55.43 188.27,-56.62 190.53,-57.88 192.62,-59.21 194.53,-60.61 196.26,-62.08 197.81,-63.6 199.17,-65.18 200.35,-66.82 201.34,-68.5 202.14,-70.22 202.75,-71.98 203.18,-73.77 203.42,-75.59 203.49,-77.44 203.38,-79.3 203.1,-81.17 202.66,-83.06 202.06,-84.94 201.31,-86.83 200.41,-88.7 199.38,-90.56 198.22,-92.41 196.94,-94.23 195.54,-96.02 194.03,-97.78 192.43,-99.5 190.74,-101.18 188.96,-102.82 187.11,-104.4 185.19,-105.92 183.21,-107.39 181.17,-108.79 179.09,-110.12 176.96,-111.38 174.79,-112.57 172.58,-113.68 170.35,-114.71 168.1,-115.65 165.82,-116.5 163.52,-117.27 161.21,-117.95 158.89,-118.53 156.56,-119.02 154.22,-119.41 151.88,-119.7 149.53,-119.9 147.18,-120 144.82,-120 142.47,-119.9 140.12,-119.7 137.78,-119.41 135.44,-119.02 133.11,-118.53 130.79,-117.95 128.48,-117.27 126.18,-116.5 123.9,-115.65 121.65,-114.71 119.42,-113.68 117.21,-112.57 115.04,-111.38 112.91,-110.12 110.83,-108.79 108.79,-107.39 106.81,-105.92 104.89,-104.4 103.04,-102.82 101.26,-101.18 99.57,-99.5 97.97,-97.78 96.46,-96.02 95.06,-94.23 93.78,-92.41 92.62,-90.56 91.59,-88.7 90.69,-86.83 89.94,-84.94 89.34,-83.06 88.9,-81.17 88.62,-79.3 88.51,-77.44 88.58,-75.59 88.82,-73.77 89.25,-71.98 89.86,-70.22 90.66,-68.5 91.65,-66.82 92.83,-65.18 94.19,-63.6 95.74,-62.08 97.47,-60.61 99.38,-59.21 101.47,-57.88 103.73,-56.62 106.15,-55.43 108.72,-54.32 111.44,-53.29 114.29,-52.35 117.28,-51.5 120.37,-50.73 123.58,-50.05 126.87,-49.47 130.24,-48.98 133.67,-48.59 137.16,-48.3 140.68,-48.1 144.22,-48 147.78,-48 151.32,-48.1"/>
<text xml:space="preserve" text-anchor="middle" x="146" y="-79.8" font-family="sans-serif" font-size="14.00">Credential</text>
</a>
</g>
</g>
<!-- #/boundedcontexts/branch_&amp;_contact_centre/aggregates/service_request -->
<g id="node2" class="node">
<title>#/boundedcontexts/branch_&amp;_contact_centre/aggregates/service_request</title>
<g id="a_node2"><a xlink:title="A customer asking for something through a channel, with notes">
<polygon fill="white" stroke="black" points="151.41,-248.1 154.99,-248.3 158.54,-248.59 162.03,-248.98 165.46,-249.47 168.81,-250.05 172.06,-250.73 175.21,-251.5 178.25,-252.35 181.15,-253.29 183.92,-254.32 186.53,-255.43 188.99,-256.62 191.29,-257.88 193.41,-259.21 195.36,-260.61 197.12,-262.08 198.69,-263.6 200.08,-265.18 201.28,-266.82 202.28,-268.5 203.09,-270.22 203.72,-271.98 204.15,-273.77 204.4,-275.59 204.47,-277.44 204.36,-279.3 204.07,-281.17 203.62,-283.06 203.01,-284.94 202.25,-286.83 201.34,-288.7 200.29,-290.56 199.11,-292.41 197.8,-294.23 196.38,-296.02 194.85,-297.78 193.22,-299.5 191.5,-301.18 189.7,-302.82 187.81,-304.4 185.86,-305.92 183.84,-307.39 181.77,-308.79 179.65,-310.12 177.48,-311.38 175.28,-312.57 173.04,-313.68 170.77,-314.71 168.47,-315.65 166.16,-316.5 163.82,-317.27 161.47,-317.95 159.11,-318.53 156.74,-319.02 154.36,-319.41 151.98,-319.7 149.59,-319.9 147.2,-320 144.8,-320 142.41,-319.9 140.02,-319.7 137.64,-319.41 135.26,-319.02 132.89,-318.53 130.53,-317.95 128.18,-317.27 125.84,-316.5 123.53,-315.65 121.23,-314.71 118.96,-313.68 116.72,-312.57 114.52,-311.38 112.35,-310.12 110.23,-308.79 108.16,-307.39 106.14,-305.92 104.19,-304.4 102.3,-302.82 100.5,-301.18 98.78,-299.5 97.15,-297.78 95.62,-296.02 94.2,-294.23 92.89,-292.41 91.71,-290.56 90.66,-288.7 89.75,-286.83 88.99,-284.94 88.38,-283.06 87.93,-281.17 87.64,-279.3 87.53,-277.44 87.6,-275.59 87.85,-273.77 88.28,-271.98 88.91,-270.22 89.72,-268.5 90.72,-266.82 91.92,-265.18 93.31,-263.6 94.88,-262.08 96.64,-260.61 98.59,-259.21 100.71,-257.88 103.01,-256.62 105.47,-255.43 108.08,-254.32 110.85,-253.29 113.75,-252.35 116.79,-251.5 119.94,-250.73 123.19,-250.05 126.54,-249.47 129.97,-248.98 133.46,-248.59 137.01,-248.3 140.59,-248.1 144.19,-248 147.81,-248 151.41,-248.1"/>
<text xml:space="preserve" text-anchor="middle" x="146" y="-279.8" font-family="sans-serif" font-size="14.00">ServiceRequest</text>
</a>
</g>
</g>
<!-- #/boundedcontexts/branch_&amp;_contact_centre/aggregates/service_request&#45;&gt;#/boundedcontexts/identity_&amp;_access/aggregates/credential -->
<g id="edge1" class="edge">
<title>#/boundedcontexts/branch_&amp;_contact_centre/aggregates/service_request&#45;&gt;#/boundedcontexts/identity_&amp;_access/aggregates/credential</title>
<path fill="none" stroke="black" d="M146,-247.6C146,-215.32 146,-167.4 146,-131.93"/>
<polygon fill="black" stroke="black" points="149.5,-131.94 146,-121.94 142.5,-131.94 149.5,-131.94"/>
<text xml:space="preserve" text-anchor="middle" x="190.99" y="-171" font-family="sans-serif" font-size="10.00">AuthenticateCustomer</text>
<g id="a_edge1&#45;headlabel"><a xlink:title="open&#45;host&#45;service">
<text xml:space="preserve" text-anchor="middle" x="146" y="-117.43" font-family="sans-serif" font-size="10.00">OHS</text>
</a>
</g>
<g id="a_edge1&#45;taillabel"><a xlink:title="conformist">
<text xml:space="preserve" text-anchor="middle" x="146" y="-244.6" font-family="sans-serif" font-size="10.00">CF</text>
</a>
</g>
</g>
</g>
</svg>
