<?xml version="1.0" encoding="UTF-8" standalone="no"?>
<?xml-stylesheet href="data:text/css,.graph%20text%20%7B%0A%09font-family%3A%20sans-serif%3B%0A%09stroke%3A%20white%3B%0A%09paint-order%3A%20stroke%3B%0A%09stroke-width%3A%203%3B%0A%09stroke-linecap%3A%20square%3B%0A%7D%0A%0A.namespace%20polygon%20%7B%0A%09fill-opacity%3A%200.2%3B%0A%09stroke%3A%20none%3B%0A%7D%0A" type="text/css"?>
<!DOCTYPE svg PUBLIC "-//W3C//DTD SVG 1.1//EN"
 "http://www.w3.org/Graphics/SVG/1.1/DTD/svg11.dtd">
<!-- Generated by graphviz version 13.1.2 (0)
 -->
<!-- Pages: 1 -->
<svg width="188pt" height="356pt"
 viewBox="0.00 0.00 188.00 356.00" xmlns="http://www.w3.org/2000/svg" xmlns:xlink="http://www.w3.org/1999/xlink">
<g id="graph0" class="graph" transform="scale(1 1) rotate(0) translate(4 352)">
<polygon fill="white" stroke="none" points="-4,4 -4,-352 184,-352 184,4 -4,4"/>
<g id="clust1" class="cluster namespace">
<title>e_shop</title>
<polygon fill="lightgrey" stroke="lightgrey" points="8,-8 8,-340 172,-340 172,-8 8,-8"/>
<text xml:space="preserve" text-anchor="middle" x="90" y="-327" font-family="sans-serif" font-size="10.00">eShop</text>
</g>
<g id="clust2" class="cluster namespace">
<title>#/domains/commerce</title>
<polygon fill="lightgrey" stroke="lightgrey" points="17,-16 17,-160 163,-160 163,-16 17,-16"/>
<text xml:space="preserve" text-anchor="middle" x="90" y="-147" font-family="sans-serif" font-size="10.00">Commerce</text>
</g>
<g id="clust3" class="cluster namespace">
<title>#/domains/commerce/subdomains/catalog</title>
<polygon fill="lightgrey" stroke="lightgrey" points="25,-24 25,-132 155,-132 155,-24 25,-24"/>
<text xml:space="preserve" text-anchor="middle" x="90" y="-119" font-family="sans-serif" font-size="10.00">Catalog</text>
</g>
<g id="clust4" class="cluster namespace">
<title>#/domains/operations</title>
<polygon fill="lightgrey" stroke="lightgrey" points="16,-168 16,-312 164,-312 164,-168 16,-168"/>
<text xml:space="preserve" text-anchor="middle" x="90" y="-299" font-family="sans-serif" font-size="10.00">Operations</text>
</g>
<g id="clust5" class="cluster namespace">
<title>#/domains/operations/subdomains/backoffice</title>
<polygon fill="lightgrey" stroke="lightgrey" points="24,-176 24,-284 156,-284 156,-176 24,-176"/>
<text xml:space="preserve" text-anchor="middle" x="90" y="-271" font-family="sans-serif" font-size="10.00">Backoffice</text>
</g>
<!-- #/domains/commerce/subdomains/catalog/boundedcontexts/catalog -->
<g id="node1" class="node">
<title>#/domains/commerce/subdomains/catalog/boundedcontexts/catalog</title>
<g id="a_node1"><a xlink:title="Minimal API for catalog queries and management.">
<polygon fill="white" stroke="black" points="95.32,-32.1 98.84,-32.3 102.33,-32.59 105.76,-32.98 109.13,-33.47 112.42,-34.05 115.63,-34.73 118.72,-35.5 121.71,-36.35 124.56,-37.29 127.28,-38.32 129.85,-39.43 132.27,-40.62 134.53,-41.88 136.62,-43.21 138.53,-44.61 140.26,-46.08 141.81,-47.6 143.17,-49.18 144.35,-50.82 145.34,-52.5 146.14,-54.22 146.75,-55.98 147.18,-57.77 147.42,-59.59 147.49,-61.44 147.38,-63.3 147.1,-65.17 146.66,-67.06 146.06,-68.94 145.31,-70.83 144.41,-72.7 143.38,-74.56 142.22,-76.41 140.94,-78.23 139.54,-80.02 138.03,-81.78 136.43,-83.5 134.74,-85.18 132.96,-86.82 131.11,-88.4 129.19,-89.92 127.21,-91.39 125.17,-92.79 123.09,-94.12 120.96,-95.38 118.79,-96.57 116.58,-97.68 114.35,-98.71 112.1,-99.65 109.82,-100.5 107.52,-101.27 105.21,-101.95 102.89,-102.53 100.56,-103.02 98.22,-103.41 95.88,-103.7 93.53,-103.9 91.18,-104 88.82,-104 86.47,-103.9 84.12,-103.7 81.78,-103.41 79.44,-103.02 77.11,-102.53 74.79,-101.95 72.48,-101.27 70.18,-100.5 67.9,-99.65 65.65,-98.71 63.42,-97.68 61.21,-96.57 59.04,-95.38 56.91,-94.12 54.83,-92.79 52.79,-91.39 50.81,-89.92 48.89,-88.4 47.04,-86.82 45.26,-85.18 43.57,-83.5 41.97,-81.78 40.46,-80.02 39.06,-78.23 37.78,-76.41 36.62,-74.56 35.59,-72.7 34.69,-70.83 33.94,-68.94 33.34,-67.06 32.9,-65.17 32.62,-63.3 32.51,-61.44 32.58,-59.59 32.82,-57.77 33.25,-55.98 33.86,-54.22 34.66,-52.5 35.65,-50.82 36.83,-49.18 38.19,-47.6 39.74,-46.08 41.47,-44.61 43.38,-43.21 45.47,-41.88 47.73,-40.62 50.15,-39.43 52.72,-38.32 55.44,-37.29 58.29,-36.35 61.28,-35.5 64.37,-34.73 67.58,-34.05 70.87,-33.47 74.24,-32.98 77.67,-32.59 81.16,-32.3 84.68,-32.1 88.22,-32 91.78,-32 95.32,-32.1"/>
<text xml:space="preserve" text-anchor="middle" x="90" y="-63.8" font-family="sans-serif" font-size="14.00">Catalog</text>
</a>
</g>
</g>
<!-- #/domains/operations/subdomains/backoffice/boundedcontexts/backoffice_app -->
<g id="node2" class="node">
<title>#/domains/operations/subdomains/backoffice/boundedcontexts/backoffice_app</title>
<g id="a_node2"><a xlink:title="Admin/demo app for price updates.">
<polygon fill="white" stroke="black" points="95.33,-184.1 98.86,-184.3 102.35,-184.59 105.79,-184.98 109.16,-185.47 112.46,-186.05 115.67,-186.73 118.77,-187.5 121.76,-188.35 124.62,-189.29 127.34,-190.32 129.92,-191.43 132.34,-192.62 134.6,-193.88 136.69,-195.21 138.61,-196.61 140.34,-198.08 141.89,-199.6 143.26,-201.18 144.44,-202.82 145.43,-204.5 146.23,-206.22 146.84,-207.98 147.27,-209.77 147.51,-211.59 147.58,-213.44 147.47,-215.3 147.19,-217.17 146.75,-219.06 146.15,-220.94 145.4,-222.83 144.5,-224.7 143.47,-226.56 142.3,-228.41 141.02,-230.23 139.62,-232.02 138.11,-233.78 136.51,-235.5 134.81,-237.18 133.03,-238.82 131.18,-240.4 129.26,-241.92 127.27,-243.39 125.23,-244.79 123.14,-246.12 121,-247.38 118.83,-248.57 116.63,-249.68 114.39,-250.71 112.13,-251.65 109.85,-252.5 107.55,-253.27 105.24,-253.95 102.91,-254.53 100.58,-255.02 98.23,-255.41 95.89,-255.7 93.53,-255.9 91.18,-256 88.82,-256 86.47,-255.9 84.11,-255.7 81.77,-255.41 79.42,-255.02 77.09,-254.53 74.76,-253.95 72.45,-253.27 70.15,-252.5 67.87,-251.65 65.61,-250.71 63.37,-249.68 61.17,-248.57 59,-247.38 56.86,-246.12 54.77,-244.79 52.73,-243.39 50.74,-241.92 48.82,-240.4 46.97,-238.82 45.19,-237.18 43.49,-235.5 41.89,-233.78 40.38,-232.02 38.98,-230.23 37.7,-228.41 36.53,-226.56 35.5,-224.7 34.6,-222.83 33.85,-220.94 33.25,-219.06 32.81,-217.17 32.53,-215.3 32.42,-213.44 32.49,-211.59 32.73,-209.77 33.16,-207.98 33.77,-206.22 34.57,-204.5 35.56,-202.82 36.74,-201.18 38.11,-199.6 39.66,-198.08 41.39,-196.61 43.31,-195.21 45.4,-193.88 47.66,-192.62 50.08,-191.43 52.66,-190.32 55.38,-189.29 58.24,-188.35 61.23,-187.5 64.33,-186.73 67.54,-186.05 70.84,-185.47 74.21,-184.98 77.65,-184.59 81.14,-184.3 84.67,-184.1 88.22,-184 91.78,-184 95.33,-184.1"/>
<text xml:space="preserve" text-anchor="middle" x="90" y="-215.8" font-family="sans-serif" font-size="14.00">BackofficeApp</text>
</a>
</g>
</g>
<!-- #/domains/operations/subdomains/backoffice/boundedcontexts/backoffice_app&#45;&gt;#/domains/commerce/subdomains/catalog/boundedcontexts/catalog -->
<g id="edge1" class="edge">
<title>#/domains/operations/subdomains/backoffice/boundedcontexts/backoffice_app&#45;&gt;#/domains/commerce/subdomains/catalog/boundedcontexts/catalog</title>
<path fill="none" stroke="black" d="M90,-183.83C90,-163.57 90,-137.85 90,-115.89"/>
<polygon fill="black" stroke="black" points="93.5,-115.98 90,-105.98 86.5,-115.98 93.5,-115.98"/>
<g id="a_edge1&#45;headlabel"><a xlink:title="open&#45;host&#45;service">
<text xml:space="preserve" text-anchor="middle" x="90" y="-101.47" font-family="sans-serif" font-size="10.00">OHS</text>
</a>
</g>
<g id="a_edge1&#45;taillabel"><a xlink:title="customer&#45;supplier">
<text xml:space="preserve" text-anchor="middle" x="90" y="-180.83" font-family="sans-serif" font-size="10.00">C/s</text>
</a>
</g>
</g>
</g>
</svg>
