<?xml version="1.0" encoding="UTF-8" standalone="no"?>
<?xml-stylesheet href="data:text/css,.graph%20text%20%7B%0A%09font-family%3A%20sans-serif%3B%0A%09stroke%3A%20white%3B%0A%09paint-order%3A%20stroke%3B%0A%09stroke-width%3A%203%3B%0A%09stroke-linecap%3A%20square%3B%0A%7D%0A%0A.namespace%20polygon%20%7B%0A%09fill-opacity%3A%200.2%3B%0A%09stroke%3A%20none%3B%0A%7D%0A" type="text/css"?>
<!DOCTYPE svg PUBLIC "-//W3C//DTD SVG 1.1//EN"
 "http://www.w3.org/Graphics/SVG/1.1/DTD/svg11.dtd">
<!-- Generated by graphviz version 13.1.2 (0)
 -->
<!-- Pages: 1 -->
<svg width="947pt" height="472pt"
 viewBox="0.00 0.00 947.00 472.00" xmlns="http://www.w3.org/2000/svg" xmlns:xlink="http://www.w3.org/1999/xlink">
<g id="graph0" class="graph" transform="scale(1 1) rotate(0) translate(4 468)">
<polygon fill="white" stroke="none" points="-4,4 -4,-468 943,-468 943,4 -4,4"/>
<g id="clust1" class="cluster namespace">
<title>e_shop_on_containers</title>
<polygon fill="lightgrey" stroke="lightgrey" points="8,-8 8,-456 931,-456 931,-8 8,-8"/>
<text xml:space="preserve" text-anchor="middle" x="469.5" y="-443" font-family="sans-serif" font-size="10.00">eShopOnContainers</text>
</g>
<g id="clust2" class="cluster namespace">
<title>#/domains/commerce</title>
<polygon fill="lightgrey" stroke="lightgrey" points="16,-16 16,-428 313,-428 313,-16 16,-16"/>
<text xml:space="preserve" text-anchor="middle" x="164.5" y="-415" font-family="sans-serif" font-size="10.00">Commerce</text>
</g>
<g id="clust3" class="cluster namespace">
<title>#/domains/commerce/subdomains/sales</title>
<polygon fill="lightgrey" stroke="lightgrey" points="175,-292 175,-400 305,-400 305,-292 175,-292"/>
<text xml:space="preserve" text-anchor="middle" x="240" y="-387" font-family="sans-serif" font-size="10.00">Sales</text>
</g>
<g id="clust4" class="cluster namespace">
<title>#/domains/commerce/subdomains/payments</title>
<polygon fill="lightgrey" stroke="lightgrey" points="24,-148 24,-256 154,-256 154,-148 24,-148"/>
<text xml:space="preserve" text-anchor="middle" x="89" y="-243" font-family="sans-serif" font-size="10.00">Payments</text>
</g>
<g id="clust5" class="cluster namespace">
<title>#/domains/commerce/subdomains/shopping</title>
<polygon fill="lightgrey" stroke="lightgrey" points="175,-148 175,-256 305,-256 305,-148 175,-148"/>
<text xml:space="preserve" text-anchor="middle" x="240" y="-243" font-family="sans-serif" font-size="10.00">Shopping</text>
</g>
<g id="clust6" class="cluster namespace">
<title>#/domains/commerce/subdomains/cataloging</title>
<polygon fill="lightgrey" stroke="lightgrey" points="175,-24 175,-132 305,-132 305,-24 175,-24"/>
<text xml:space="preserve" text-anchor="middle" x="240" y="-119" font-family="sans-serif" font-size="10.00">Cataloging</text>
</g>
<g id="clust7" class="cluster namespace">
<title>#/domains/customer_experience</title>
<polygon fill="lightgrey" stroke="lightgrey" points="321,-140 321,-284 769,-284 769,-140 321,-140"/>
<text xml:space="preserve" text-anchor="middle" x="545" y="-271" font-family="sans-serif" font-size="10.00">CustomerExperience</text>
</g>
<g id="clust8" class="cluster namespace">
<title>#/domains/customer_experience/subdomains/webhooks</title>
<polygon fill="lightgrey" stroke="lightgrey" points="329,-148 329,-256 459,-256 459,-148 329,-148"/>
<text xml:space="preserve" text-anchor="middle" x="394" y="-243" font-family="sans-serif" font-size="10.00">Webhooks</text>
</g>
<g id="clust9" class="cluster namespace">
<title>#/domains/customer_experience/subdomains/promotions</title>
<polygon fill="lightgrey" stroke="lightgrey" points="480,-148 480,-256 610,-256 610,-148 480,-148"/>
<text xml:space="preserve" text-anchor="middle" x="545" y="-243" font-family="sans-serif" font-size="10.00">Promotions</text>
</g>
<g id="clust10" class="cluster namespace">
<title>#/domains/customer_experience/subdomains/geodata</title>
<polygon fill="lightgrey" stroke="lightgrey" points="631,-148 631,-256 761,-256 761,-148 631,-148"/>
<text xml:space="preserve" text-anchor="middle" x="696" y="-243" font-family="sans-serif" font-size="10.00">Geodata</text>
</g>
<g id="clust11" class="cluster namespace">
<title>#/domains/identity&amp;access</title>
<polygon fill="lightgrey" stroke="lightgrey" points="777,-140 777,-284 923,-284 923,-140 777,-140"/>
<text xml:space="preserve" text-anchor="middle" x="850" y="-271" font-family="sans-serif" font-size="10.00">Identity&amp;Access</text>
</g>
<g id="clust12" class="cluster namespace">
<title>#/domains/identity&amp;access/subdomains/auth</title>
<polygon fill="lightgrey" stroke="lightgrey" points="785,-148 785,-256 915,-256 915,-148 785,-148"/>
<text xml:space="preserve" text-anchor="middle" x="850" y="-243" font-family="sans-serif" font-size="10.00">Auth</text>
</g>
<!-- #/domains/commerce/subdomains/sales/boundedcontexts/ordering -->
<g id="node1" class="node">
<title>#/domains/commerce/subdomains/sales/boundedcontexts/ordering</title>
<g id="a_node1"><a xlink:title="Ordering.API (rich DDD + domain events)">
<polygon fill="white" stroke="black" points="245.32,-300.1 248.84,-300.3 252.33,-300.59 255.76,-300.98 259.13,-301.47 262.42,-302.05 265.63,-302.73 268.72,-303.5 271.71,-304.35 274.56,-305.29 277.28,-306.32 279.85,-307.43 282.27,-308.62 284.53,-309.88 286.62,-311.21 288.53,-312.61 290.26,-314.08 291.81,-315.6 293.17,-317.18 294.35,-318.82 295.34,-320.5 296.14,-322.22 296.75,-323.98 297.18,-325.77 297.42,-327.59 297.49,-329.44 297.38,-331.3 297.1,-333.17 296.66,-335.06 296.06,-336.94 295.31,-338.83 294.41,-340.7 293.38,-342.56 292.22,-344.41 290.94,-346.23 289.54,-348.02 288.03,-349.78 286.43,-351.5 284.74,-353.18 282.96,-354.82 281.11,-356.4 279.19,-357.92 277.21,-359.39 275.17,-360.79 273.09,-362.12 270.96,-363.38 268.79,-364.57 266.58,-365.68 264.35,-366.71 262.1,-367.65 259.82,-368.5 257.52,-369.27 255.21,-369.95 252.89,-370.53 250.56,-371.02 248.22,-371.41 245.88,-371.7 243.53,-371.9 241.18,-372 238.82,-372 236.47,-371.9 234.12,-371.7 231.78,-371.41 229.44,-371.02 227.11,-370.53 224.79,-369.95 222.48,-369.27 220.18,-368.5 217.9,-367.65 215.65,-366.71 213.42,-365.68 211.21,-364.57 209.04,-363.38 206.91,-362.12 204.83,-360.79 202.79,-359.39 200.81,-357.92 198.89,-356.4 197.04,-354.82 195.26,-353.18 193.57,-351.5 191.97,-349.78 190.46,-348.02 189.06,-346.23 187.78,-344.41 186.62,-342.56 185.59,-340.7 184.69,-338.83 183.94,-336.94 183.34,-335.06 182.9,-333.17 182.62,-331.3 182.51,-329.44 182.58,-327.59 182.82,-325.77 183.25,-323.98 183.86,-322.22 184.66,-320.5 185.65,-318.82 186.83,-317.18 188.19,-315.6 189.74,-314.08 191.47,-312.61 193.38,-311.21 195.47,-309.88 197.73,-308.62 200.15,-307.43 202.72,-306.32 205.44,-305.29 208.29,-304.35 211.28,-303.5 214.37,-302.73 217.58,-302.05 220.87,-301.47 224.24,-300.98 227.67,-300.59 231.16,-300.3 234.68,-300.1 238.22,-300 241.78,-300 245.32,-300.1"/>
<text xml:space="preserve" text-anchor="middle" x="240" y="-331.8" font-family="sans-serif" font-size="14.00">Ordering</text>
</a>
</g>
</g>
<!-- #/domains/commerce/subdomains/payments/boundedcontexts/payment -->
<g id="node2" class="node">
<title>#/domains/commerce/subdomains/payments/boundedcontexts/payment</title>
<g id="a_node2"><a xlink:title="Payment.API (sample)">
<polygon fill="white" stroke="black" points="94.32,-156.1 97.84,-156.3 101.33,-156.59 104.76,-156.98 108.13,-157.47 111.42,-158.05 114.63,-158.73 117.72,-159.5 120.71,-160.35 123.56,-161.29 126.28,-162.32 128.85,-163.43 131.27,-164.62 133.53,-165.88 135.62,-167.21 137.53,-168.61 139.26,-170.08 140.81,-171.6 142.17,-173.18 143.35,-174.82 144.34,-176.5 145.14,-178.22 145.75,-179.98 146.18,-181.77 146.42,-183.59 146.49,-185.44 146.38,-187.3 146.1,-189.17 145.66,-191.06 145.06,-192.94 144.31,-194.83 143.41,-196.7 142.38,-198.56 141.22,-200.41 139.94,-202.23 138.54,-204.02 137.03,-205.78 135.43,-207.5 133.74,-209.18 131.96,-210.82 130.11,-212.4 128.19,-213.92 126.21,-215.39 124.17,-216.79 122.09,-218.12 119.96,-219.38 117.79,-220.57 115.58,-221.68 113.35,-222.71 111.1,-223.65 108.82,-224.5 106.52,-225.27 104.21,-225.95 101.89,-226.53 99.56,-227.02 97.22,-227.41 94.88,-227.7 92.53,-227.9 90.18,-228 87.82,-228 85.47,-227.9 83.12,-227.7 80.78,-227.41 78.44,-227.02 76.11,-226.53 73.79,-225.95 71.48,-225.27 69.18,-224.5 66.9,-223.65 64.65,-222.71 62.42,-221.68 60.21,-220.57 58.04,-219.38 55.91,-218.12 53.83,-216.79 51.79,-215.39 49.81,-213.92 47.89,-212.4 46.04,-210.82 44.26,-209.18 42.57,-207.5 40.97,-205.78 39.46,-204.02 38.06,-202.23 36.78,-200.41 35.62,-198.56 34.59,-196.7 33.69,-194.83 32.94,-192.94 32.34,-191.06 31.9,-189.17 31.62,-187.3 31.51,-185.44 31.58,-183.59 31.82,-181.77 32.25,-179.98 32.86,-178.22 33.66,-176.5 34.65,-174.82 35.83,-173.18 37.19,-171.6 38.74,-170.08 40.47,-168.61 42.38,-167.21 44.47,-165.88 46.73,-164.62 49.15,-163.43 51.72,-162.32 54.44,-161.29 57.29,-160.35 60.28,-159.5 63.37,-158.73 66.58,-158.05 69.87,-157.47 73.24,-156.98 76.67,-156.59 80.16,-156.3 83.68,-156.1 87.22,-156 90.78,-156 94.32,-156.1"/>
<text xml:space="preserve" text-anchor="middle" x="89" y="-187.8" font-family="sans-serif" font-size="14.00">Payment</text>
</a>
</g>
</g>
<!-- #/domains/commerce/subdomains/sales/boundedcontexts/ordering&#45;&gt;#/domains/commerce/subdomains/payments/boundedcontexts/payment -->
<g id="edge2" class="edge">
<title>#/domains/commerce/subdomains/sales/boundedcontexts/ordering&#45;&gt;#/domains/commerce/subdomains/payments/boundedcontexts/payment</title>
<path fill="none" stroke="black" d="M197.44,-308.52C186.75,-301.11 175.6,-292.69 166,-284 149.05,-268.64 132.38,-249.58 118.91,-232.88"/>
<polygon fill="black" stroke="black" points="121.67,-230.73 112.71,-225.07 116.19,-235.08 121.67,-230.73"/>
<g id="a_edge2&#45;headlabel"><a xlink:title="open&#45;host&#45;service">
<text xml:space="preserve" text-anchor="middle" x="111.77" y="-220.88" font-family="sans-serif" font-size="10.00">OHS</text>
</a>
</g>
<g id="a_edge2&#45;taillabel"><a xlink:title="customer&#45;supplier">
<text xml:space="preserve" text-anchor="middle" x="197.44" y="-305.52" font-family="sans-serif" font-size="10.00">C/s</text>
</a>
</g>
</g>
<!-- #/domains/commerce/subdomains/sales/boundedcontexts/ordering&#45;&gt;#/domains/commerce/subdomains/payments/boundedcontexts/payment -->
<g id="edge10" class="edge">
<title>#/domains/commerce/subdomains/sales/boundedcontexts/ordering&#45;&gt;#/domains/commerce/subdomains/payments/boundedcontexts/payment</title>
<path fill="none" stroke="black" d="M222.55,-300.99C215.66,-295.61 208.48,-289.87 202,-284 180.43,-264.46 159.32,-238.93 138.71,-219.89"/>
<polygon fill="black" stroke="black" points="141.18,-217.39 131.36,-213.41 136.55,-222.65 141.18,-217.39"/>
<g id="a_edge10&#45;headlabel"><a xlink:title="published&#45;language">
<text xml:space="preserve" text-anchor="middle" x="130.22" y="-209.42" font-family="sans-serif" font-size="10.00">PL</text>
</a>
</g>
<g id="a_edge10&#45;taillabel"><a xlink:title="conformist">
<text xml:space="preserve" text-anchor="middle" x="222.55" y="-297.99" font-family="sans-serif" font-size="10.00">C</text>
</a>
</g>
</g>
<!-- #/domains/commerce/subdomains/shopping/boundedcontexts/basket -->
<g id="node3" class="node">
<title>#/domains/commerce/subdomains/shopping/boundedcontexts/basket</title>
<g id="a_node3"><a xlink:title="Basket.API (Redis)">
<polygon fill="white" stroke="black" points="245.32,-156.1 248.84,-156.3 252.33,-156.59 255.76,-156.98 259.13,-157.47 262.42,-158.05 265.63,-158.73 268.72,-159.5 271.71,-160.35 274.56,-161.29 277.28,-162.32 279.85,-163.43 282.27,-164.62 284.53,-165.88 286.62,-167.21 288.53,-168.61 290.26,-170.08 291.81,-171.6 293.17,-173.18 294.35,-174.82 295.34,-176.5 296.14,-178.22 296.75,-179.98 297.18,-181.77 297.42,-183.59 297.49,-185.44 297.38,-187.3 297.1,-189.17 296.66,-191.06 296.06,-192.94 295.31,-194.83 294.41,-196.7 293.38,-198.56 292.22,-200.41 290.94,-202.23 289.54,-204.02 288.03,-205.78 286.43,-207.5 284.74,-209.18 282.96,-210.82 281.11,-212.4 279.19,-213.92 277.21,-215.39 275.17,-216.79 273.09,-218.12 270.96,-219.38 268.79,-220.57 266.58,-221.68 264.35,-222.71 262.1,-223.65 259.82,-224.5 257.52,-225.27 255.21,-225.95 252.89,-226.53 250.56,-227.02 248.22,-227.41 245.88,-227.7 243.53,-227.9 241.18,-228 238.82,-228 236.47,-227.9 234.12,-227.7 231.78,-227.41 229.44,-227.02 227.11,-226.53 224.79,-225.95 222.48,-225.27 220.18,-224.5 217.9,-223.65 215.65,-222.71 213.42,-221.68 211.21,-220.57 209.04,-219.38 206.91,-218.12 204.83,-216.79 202.79,-215.39 200.81,-213.92 198.89,-212.4 197.04,-210.82 195.26,-209.18 193.57,-207.5 191.97,-205.78 190.46,-204.02 189.06,-202.23 187.78,-200.41 186.62,-198.56 185.59,-196.7 184.69,-194.83 183.94,-192.94 183.34,-191.06 182.9,-189.17 182.62,-187.3 182.51,-185.44 182.58,-183.59 182.82,-181.77 183.25,-179.98 183.86,-178.22 184.66,-176.5 185.65,-174.82 186.83,-173.18 188.19,-171.6 189.74,-170.08 191.47,-168.61 193.38,-167.21 195.47,-165.88 197.73,-164.62 200.15,-163.43 202.72,-162.32 205.44,-161.29 208.29,-160.35 211.28,-159.5 214.37,-158.73 217.58,-158.05 220.87,-157.47 224.24,-156.98 227.67,-156.59 231.16,-156.3 234.68,-156.1 238.22,-156 241.78,-156 245.32,-156.1"/>
<text xml:space="preserve" text-anchor="middle" x="240" y="-187.8" font-family="sans-serif" font-size="14.00">Basket</text>
</a>
</g>
</g>
<!-- #/domains/commerce/subdomains/sales/boundedcontexts/ordering&#45;&gt;#/domains/commerce/subdomains/shopping/boundedcontexts/basket -->
<g id="edge4" class="edge">
<title>#/domains/commerce/subdomains/sales/boundedcontexts/ordering&#45;&gt;#/domains/commerce/subdomains/shopping/boundedcontexts/basket</title>
<path fill="none" stroke="black" d="M251.79,-300.26C253.72,-281.59 254.02,-258.35 252.68,-238.28"/>
<polygon fill="black" stroke="black" points="256.17,-238.06 251.83,-228.4 249.2,-238.66 256.17,-238.06"/>
<g id="a_edge4&#45;headlabel"><a xlink:title="open&#45;host&#45;service">
<text xml:space="preserve" text-anchor="middle" x="251.71" y="-223.89" font-family="sans-serif" font-size="10.00">OHS</text>
</a>
</g>
<g id="a_edge4&#45;taillabel"><a xlink:title="anti&#45;corruption&#45;layer">
<text xml:space="preserve" text-anchor="middle" x="251.79" y="-297.26" font-family="sans-serif" font-size="10.00">ACL</text>
</a>
</g>
</g>
<!-- #/domains/customer_experience/subdomains/promotions/boundedcontexts/marketing -->
<g id="node6" class="node">
<title>#/domains/customer_experience/subdomains/promotions/boundedcontexts/marketing</title>
<g id="a_node6"><a xlink:title="Marketing.API">
<polygon fill="white" stroke="black" points="550.32,-156.1 553.84,-156.3 557.33,-156.59 560.76,-156.98 564.13,-157.47 567.42,-158.05 570.63,-158.73 573.72,-159.5 576.71,-160.35 579.56,-161.29 582.28,-162.32 584.85,-163.43 587.27,-164.62 589.53,-165.88 591.62,-167.21 593.53,-168.61 595.26,-170.08 596.81,-171.6 598.17,-173.18 599.35,-174.82 600.34,-176.5 601.14,-178.22 601.75,-179.98 602.18,-181.77 602.42,-183.59 602.49,-185.44 602.38,-187.3 602.1,-189.17 601.66,-191.06 601.06,-192.94 600.31,-194.83 599.41,-196.7 598.38,-198.56 597.22,-200.41 595.94,-202.23 594.54,-204.02 593.03,-205.78 591.43,-207.5 589.74,-209.18 587.96,-210.82 586.11,-212.4 584.19,-213.92 582.21,-215.39 580.17,-216.79 578.09,-218.12 575.96,-219.38 573.79,-220.57 571.58,-221.68 569.35,-222.71 567.1,-223.65 564.82,-224.5 562.52,-225.27 560.21,-225.95 557.89,-226.53 555.56,-227.02 553.22,-227.41 550.88,-227.7 548.53,-227.9 546.18,-228 543.82,-228 541.47,-227.9 539.12,-227.7 536.78,-227.41 534.44,-227.02 532.11,-226.53 529.79,-225.95 527.48,-225.27 525.18,-224.5 522.9,-223.65 520.65,-222.71 518.42,-221.68 516.21,-220.57 514.04,-219.38 511.91,-218.12 509.83,-216.79 507.79,-215.39 505.81,-213.92 503.89,-212.4 502.04,-210.82 500.26,-209.18 498.57,-207.5 496.97,-205.78 495.46,-204.02 494.06,-202.23 492.78,-200.41 491.62,-198.56 490.59,-196.7 489.69,-194.83 488.94,-192.94 488.34,-191.06 487.9,-189.17 487.62,-187.3 487.51,-185.44 487.58,-183.59 487.82,-181.77 488.25,-179.98 488.86,-178.22 489.66,-176.5 490.65,-174.82 491.83,-173.18 493.19,-171.6 494.74,-170.08 496.47,-168.61 498.38,-167.21 500.47,-165.88 502.73,-164.62 505.15,-163.43 507.72,-162.32 510.44,-161.29 513.29,-160.35 516.28,-159.5 519.37,-158.73 522.58,-158.05 525.87,-157.47 529.24,-156.98 532.67,-156.59 536.16,-156.3 539.68,-156.1 543.22,-156 546.78,-156 550.32,-156.1"/>
<text xml:space="preserve" text-anchor="middle" x="545" y="-187.8" font-family="sans-serif" font-size="14.00">Marketing</text>
</a>
</g>
</g>
<!-- #/domains/commerce/subdomains/sales/boundedcontexts/ordering&#45;&gt;#/domains/customer_experience/subdomains/promotions/boundedcontexts/marketing -->
<g id="edge8" class="edge">
<title>#/domains/commerce/subdomains/sales/boundedcontexts/ordering&#45;&gt;#/domains/customer_experience/subdomains/promotions/boundedcontexts/marketing</title>
<path fill="none" stroke="black" d="M297.16,-332.31C345.69,-327.76 415.6,-315.72 468,-284 488.35,-271.68 505.95,-252.07 519.17,-234.21"/>
<polygon fill="black" stroke="black" points="521.85,-236.48 524.8,-226.31 516.15,-232.43 521.85,-236.48"/>
<g id="a_edge8&#45;headlabel"><a xlink:title="open&#45;host&#45;service">
<text xml:space="preserve" text-anchor="middle" x="525.67" y="-222.08" font-family="sans-serif" font-size="10.00">OHS</text>
</a>
</g>
<g id="a_edge8&#45;taillabel"><a xlink:title="anti&#45;corruption&#45;layer">
<text xml:space="preserve" text-anchor="middle" x="297.16" y="-329.31" font-family="sans-serif" font-size="10.00">ACL</text>
</a>
</g>
</g>
<!-- #/domains/customer_experience/subdomains/geodata/boundedcontexts/locations -->
<g id="node7" class="node">
<title>#/domains/customer_experience/subdomains/geodata/boundedcontexts/locations</title>
<g id="a_node7"><a xlink:title="Locations.API">
<polygon fill="white" stroke="black" points="701.32,-156.1 704.84,-156.3 708.33,-156.59 711.76,-156.98 715.13,-157.47 718.42,-158.05 721.63,-158.73 724.72,-159.5 727.71,-160.35 730.56,-161.29 733.28,-162.32 735.85,-163.43 738.27,-164.62 740.53,-165.88 742.62,-167.21 744.53,-168.61 746.26,-170.08 747.81,-171.6 749.17,-173.18 750.35,-174.82 751.34,-176.5 752.14,-178.22 752.75,-179.98 753.18,-181.77 753.42,-183.59 753.49,-185.44 753.38,-187.3 753.1,-189.17 752.66,-191.06 752.06,-192.94 751.31,-194.83 750.41,-196.7 749.38,-198.56 748.22,-200.41 746.94,-202.23 745.54,-204.02 744.03,-205.78 742.43,-207.5 740.74,-209.18 738.96,-210.82 737.11,-212.4 735.19,-213.92 733.21,-215.39 731.17,-216.79 729.09,-218.12 726.96,-219.38 724.79,-220.57 722.58,-221.68 720.35,-222.71 718.1,-223.65 715.82,-224.5 713.52,-225.27 711.21,-225.95 708.89,-226.53 706.56,-227.02 704.22,-227.41 701.88,-227.7 699.53,-227.9 697.18,-228 694.82,-228 692.47,-227.9 690.12,-227.7 687.78,-227.41 685.44,-227.02 683.11,-226.53 680.79,-225.95 678.48,-225.27 676.18,-224.5 673.9,-223.65 671.65,-222.71 669.42,-221.68 667.21,-220.57 665.04,-219.38 662.91,-218.12 660.83,-216.79 658.79,-215.39 656.81,-213.92 654.89,-212.4 653.04,-210.82 651.26,-209.18 649.57,-207.5 647.97,-205.78 646.46,-204.02 645.06,-202.23 643.78,-200.41 642.62,-198.56 641.59,-196.7 640.69,-194.83 639.94,-192.94 639.34,-191.06 638.9,-189.17 638.62,-187.3 638.51,-185.44 638.58,-183.59 638.82,-181.77 639.25,-179.98 639.86,-178.22 640.66,-176.5 641.65,-174.82 642.83,-173.18 644.19,-171.6 645.74,-170.08 647.47,-168.61 649.38,-167.21 651.47,-165.88 653.73,-164.62 656.15,-163.43 658.72,-162.32 661.44,-161.29 664.29,-160.35 667.28,-159.5 670.37,-158.73 673.58,-158.05 676.87,-157.47 680.24,-156.98 683.67,-156.59 687.16,-156.3 690.68,-156.1 694.22,-156 697.78,-156 701.32,-156.1"/>
<text xml:space="preserve" text-anchor="middle" x="696" y="-187.8" font-family="sans-serif" font-size="14.00">Locations</text>
</a>
</g>
</g>
<!-- #/domains/commerce/subdomains/sales/boundedcontexts/ordering&#45;&gt;#/domains/customer_experience/subdomains/geodata/boundedcontexts/locations -->
<g id="edge9" class="edge">
<title>#/domains/commerce/subdomains/sales/boundedcontexts/ordering&#45;&gt;#/domains/customer_experience/subdomains/geodata/boundedcontexts/locations</title>
<path fill="none" stroke="black" d="M297.37,-332.3C389.31,-327.15 564.85,-313.66 619,-284 640.02,-272.48 657.78,-252.76 670.93,-234.62"/>
<polygon fill="black" stroke="black" points="673.69,-236.78 676.51,-226.57 667.94,-232.79 673.69,-236.78"/>
<g id="a_edge9&#45;headlabel"><a xlink:title="open&#45;host&#45;service">
<text xml:space="preserve" text-anchor="middle" x="677.38" y="-222.33" font-family="sans-serif" font-size="10.00">OHS</text>
</a>
</g>
<g id="a_edge9&#45;taillabel"><a xlink:title="anti&#45;corruption&#45;layer">
<text xml:space="preserve" text-anchor="middle" x="297.37" y="-329.3" font-family="sans-serif" font-size="10.00">ACL</text>
</a>
</g>
</g>
<!-- #/domains/identity&amp;access/subdomains/auth/boundedcontexts/identity -->
<g id="node8" class="node">
<title>#/domains/identity&amp;access/subdomains/auth/boundedcontexts/identity</title>
<g id="a_node8"><a xlink:title="Identity.API">
<polygon fill="white" stroke="black" points="855.32,-156.1 858.84,-156.3 862.33,-156.59 865.76,-156.98 869.13,-157.47 872.42,-158.05 875.63,-158.73 878.72,-159.5 881.71,-160.35 884.56,-161.29 887.28,-162.32 889.85,-163.43 892.27,-164.62 894.53,-165.88 896.62,-167.21 898.53,-168.61 900.26,-170.08 901.81,-171.6 903.17,-173.18 904.35,-174.82 905.34,-176.5 906.14,-178.22 906.75,-179.98 907.18,-181.77 907.42,-183.59 907.49,-185.44 907.38,-187.3 907.1,-189.17 906.66,-191.06 906.06,-192.94 905.31,-194.83 904.41,-196.7 903.38,-198.56 902.22,-200.41 900.94,-202.23 899.54,-204.02 898.03,-205.78 896.43,-207.5 894.74,-209.18 892.96,-210.82 891.11,-212.4 889.19,-213.92 887.21,-215.39 885.17,-216.79 883.09,-218.12 880.96,-219.38 878.79,-220.57 876.58,-221.68 874.35,-222.71 872.1,-223.65 869.82,-224.5 867.52,-225.27 865.21,-225.95 862.89,-226.53 860.56,-227.02 858.22,-227.41 855.88,-227.7 853.53,-227.9 851.18,-228 848.82,-228 846.47,-227.9 844.12,-227.7 841.78,-227.41 839.44,-227.02 837.11,-226.53 834.79,-225.95 832.48,-225.27 830.18,-224.5 827.9,-223.65 825.65,-222.71 823.42,-221.68 821.21,-220.57 819.04,-219.38 816.91,-218.12 814.83,-216.79 812.79,-215.39 810.81,-213.92 808.89,-212.4 807.04,-210.82 805.26,-209.18 803.57,-207.5 801.97,-205.78 800.46,-204.02 799.06,-202.23 797.78,-200.41 796.62,-198.56 795.59,-196.7 794.69,-194.83 793.94,-192.94 793.34,-191.06 792.9,-189.17 792.62,-187.3 792.51,-185.44 792.58,-183.59 792.82,-181.77 793.25,-179.98 793.86,-178.22 794.66,-176.5 795.65,-174.82 796.83,-173.18 798.19,-171.6 799.74,-170.08 801.47,-168.61 803.38,-167.21 805.47,-165.88 807.73,-164.62 810.15,-163.43 812.72,-162.32 815.44,-161.29 818.29,-160.35 821.28,-159.5 824.37,-158.73 827.58,-158.05 830.87,-157.47 834.24,-156.98 837.67,-156.59 841.16,-156.3 844.68,-156.1 848.22,-156 851.78,-156 855.32,-156.1"/>
<text xml:space="preserve" text-anchor="middle" x="850" y="-187.8" font-family="sans-serif" font-size="14.00">Identity</text>
</a>
</g>
</g>
<!-- #/domains/commerce/subdomains/sales/boundedcontexts/ordering&#45;&gt;#/domains/identity&amp;access/subdomains/auth/boundedcontexts/identity -->
<g id="edge7" class="edge">
<title>#/domains/commerce/subdomains/sales/boundedcontexts/ordering&#45;&gt;#/domains/identity&amp;access/subdomains/auth/boundedcontexts/identity</title>
<path fill="none" stroke="black" d="M297.19,-334.74C416.72,-333.37 688.63,-325.62 770,-284 791.95,-272.77 810.57,-252.75 824.31,-234.34"/>
<polygon fill="black" stroke="black" points="826.99,-236.6 829.96,-226.43 821.3,-232.53 826.99,-236.6"/>
<g id="a_edge7&#45;headlabel"><a xlink:title="open&#45;host&#45;service">
<text xml:space="preserve" text-anchor="middle" x="830.84" y="-222.2" font-family="sans-serif" font-size="10.00">OHS</text>
</a>
</g>
<g id="a_edge7&#45;taillabel"><a xlink:title="anti&#45;corruption&#45;layer">
<text xml:space="preserve" text-anchor="middle" x="297.19" y="-331.74" font-family="sans-serif" font-size="10.00">ACL</text>
</a>
</g>
</g>
<!-- #/domains/commerce/subdomains/payments/boundedcontexts/payment&#45;&gt;#/domains/commerce/subdomains/sales/boundedcontexts/ordering -->
<g id="edge3" class="edge">
<title>#/domains/commerce/subdomains/payments/boundedcontexts/payment&#45;&gt;#/domains/commerce/subdomains/sales/boundedcontexts/ordering</title>
<path fill="none" stroke="black" d="M82.72,-227.76C92.92,-245.59 111.29,-267.05 130,-284 142.64,-295.45 157.98,-306.42 174.21,-315.23"/>
<polygon fill="black" stroke="black" points="172.56,-318.32 183.06,-319.74 175.74,-312.09 172.56,-318.32"/>
<g id="a_edge3&#45;headlabel"><a xlink:title="published&#45;language">
<text xml:space="preserve" text-anchor="middle" x="184.41" y="-317.43" font-family="sans-serif" font-size="10.00">PL</text>
</a>
</g>
<g id="a_edge3&#45;taillabel"><a xlink:title="conformist">
<text xml:space="preserve" text-anchor="middle" x="82.72" y="-224.76" font-family="sans-serif" font-size="10.00">C</text>
</a>
</g>
</g>
<!-- #/domains/commerce/subdomains/shopping/boundedcontexts/basket&#45;&gt;#/domains/commerce/subdomains/sales/boundedcontexts/ordering -->
<g id="edge6" class="edge">
<title>#/domains/commerce/subdomains/shopping/boundedcontexts/basket&#45;&gt;#/domains/commerce/subdomains/sales/boundedcontexts/ordering</title>
<path fill="none" stroke="black" d="M228.29,-226.89C226.32,-245.42 225.97,-268.64 227.26,-288.8"/>
<polygon fill="black" stroke="black" points="223.77,-289.08 228.08,-298.75 230.75,-288.5 223.77,-289.08"/>
<g id="a_edge6&#45;headlabel"><a xlink:title="published&#45;language">
<text xml:space="preserve" text-anchor="middle" x="228.21" y="-297.26" font-family="sans-serif" font-size="10.00">PL</text>
</a>
</g>
<g id="a_edge6&#45;taillabel"><a xlink:title="conformist">
<text xml:space="preserve" text-anchor="middle" x="228.29" y="-223.89" font-family="sans-serif" font-size="10.00">C</text>
</a>
</g>
</g>
<!-- #/domains/commerce/subdomains/cataloging/boundedcontexts/catalog -->
<g id="node4" class="node">
<title>#/domains/commerce/subdomains/cataloging/boundedcontexts/catalog</title>
<g id="a_node4"><a xlink:title="Catalog.API">
<polygon fill="white" stroke="black" points="245.32,-32.1 248.84,-32.3 252.33,-32.59 255.76,-32.98 259.13,-33.47 262.42,-34.05 265.63,-34.73 268.72,-35.5 271.71,-36.35 274.56,-37.29 277.28,-38.32 279.85,-39.43 282.27,-40.62 284.53,-41.88 286.62,-43.21 288.53,-44.61 290.26,-46.08 291.81,-47.6 293.17,-49.18 294.35,-50.82 295.34,-52.5 296.14,-54.22 296.75,-55.98 297.18,-57.77 297.42,-59.59 297.49,-61.44 297.38,-63.3 297.1,-65.17 296.66,-67.06 296.06,-68.94 295.31,-70.83 294.41,-72.7 293.38,-74.56 292.22,-76.41 290.94,-78.23 289.54,-80.02 288.03,-81.78 286.43,-83.5 284.74,-85.18 282.96,-86.82 281.11,-88.4 279.19,-89.92 277.21,-91.39 275.17,-92.79 273.09,-94.12 270.96,-95.38 268.79,-96.57 266.58,-97.68 264.35,-98.71 262.1,-99.65 259.82,-100.5 257.52,-101.27 255.21,-101.95 252.89,-102.53 250.56,-103.02 248.22,-103.41 245.88,-103.7 243.53,-103.9 241.18,-104 238.82,-104 236.47,-103.9 234.12,-103.7 231.78,-103.41 229.44,-103.02 227.11,-102.53 224.79,-101.95 222.48,-101.27 220.18,-100.5 217.9,-99.65 215.65,-98.71 213.42,-97.68 211.21,-96.57 209.04,-95.38 206.91,-94.12 204.83,-92.79 202.79,-91.39 200.81,-89.92 198.89,-88.4 197.04,-86.82 195.26,-85.18 193.57,-83.5 191.97,-81.78 190.46,-80.02 189.06,-78.23 187.78,-76.41 186.62,-74.56 185.59,-72.7 184.69,-70.83 183.94,-68.94 183.34,-67.06 182.9,-65.17 182.62,-63.3 182.51,-61.44 182.58,-59.59 182.82,-57.77 183.25,-55.98 183.86,-54.22 184.66,-52.5 185.65,-50.82 186.83,-49.18 188.19,-47.6 189.74,-46.08 191.47,-44.61 193.38,-43.21 195.47,-41.88 197.73,-40.62 200.15,-39.43 202.72,-38.32 205.44,-37.29 208.29,-36.35 211.28,-35.5 214.37,-34.73 217.58,-34.05 220.87,-33.47 224.24,-32.98 227.67,-32.59 231.16,-32.3 234.68,-32.1 238.22,-32 241.78,-32 245.32,-32.1"/>
<text xml:space="preserve" text-anchor="middle" x="240" y="-63.8" font-family="sans-serif" font-size="14.00">Catalog</text>
</a>
</g>
</g>
<!-- #/domains/commerce/subdomains/shopping/boundedcontexts/basket&#45;&gt;#/domains/commerce/subdomains/cataloging/boundedcontexts/catalog -->
<g id="edge5" class="edge">
<title>#/domains/commerce/subdomains/shopping/boundedcontexts/basket&#45;&gt;#/domains/commerce/subdomains/cataloging/boundedcontexts/catalog</title>
<path fill="none" stroke="black" d="M240,-156.04C240,-143.41 240,-128.94 240,-115.47"/>
<polygon fill="black" stroke="black" points="243.5,-115.48 240,-105.48 236.5,-115.48 243.5,-115.48"/>
<g id="a_edge5&#45;headlabel"><a xlink:title="published&#45;language">
<text xml:space="preserve" text-anchor="middle" x="240" y="-100.97" font-family="sans-serif" font-size="10.00">PL</text>
</a>
</g>
<g id="a_edge5&#45;taillabel"><a xlink:title="conformist">
<text xml:space="preserve" text-anchor="middle" x="240" y="-153.04" font-family="sans-serif" font-size="10.00">C</text>
</a>
</g>
</g>
<!-- #/domains/customer_experience/subdomains/webhooks/boundedcontexts/webhooks -->
<g id="node5" class="node">
<title>#/domains/customer_experience/subdomains/webhooks/boundedcontexts/webhooks</title>
<g id="a_node5"><a xlink:title="Webhooks.API">
<polygon fill="white" stroke="black" points="399.32,-156.1 402.84,-156.3 406.33,-156.59 409.76,-156.98 413.13,-157.47 416.42,-158.05 419.63,-158.73 422.72,-159.5 425.71,-160.35 428.56,-161.29 431.28,-162.32 433.85,-163.43 436.27,-164.62 438.53,-165.88 440.62,-167.21 442.53,-168.61 444.26,-170.08 445.81,-171.6 447.17,-173.18 448.35,-174.82 449.34,-176.5 450.14,-178.22 450.75,-179.98 451.18,-181.77 451.42,-183.59 451.49,-185.44 451.38,-187.3 451.1,-189.17 450.66,-191.06 450.06,-192.94 449.31,-194.83 448.41,-196.7 447.38,-198.56 446.22,-200.41 444.94,-202.23 443.54,-204.02 442.03,-205.78 440.43,-207.5 438.74,-209.18 436.96,-210.82 435.11,-212.4 433.19,-213.92 431.21,-215.39 429.17,-216.79 427.09,-218.12 424.96,-219.38 422.79,-220.57 420.58,-221.68 418.35,-222.71 416.1,-223.65 413.82,-224.5 411.52,-225.27 409.21,-225.95 406.89,-226.53 404.56,-227.02 402.22,-227.41 399.88,-227.7 397.53,-227.9 395.18,-228 392.82,-228 390.47,-227.9 388.12,-227.7 385.78,-227.41 383.44,-227.02 381.11,-226.53 378.79,-225.95 376.48,-225.27 374.18,-224.5 371.9,-223.65 369.65,-222.71 367.42,-221.68 365.21,-220.57 363.04,-219.38 360.91,-218.12 358.83,-216.79 356.79,-215.39 354.81,-213.92 352.89,-212.4 351.04,-210.82 349.26,-209.18 347.57,-207.5 345.97,-205.78 344.46,-204.02 343.06,-202.23 341.78,-200.41 340.62,-198.56 339.59,-196.7 338.69,-194.83 337.94,-192.94 337.34,-191.06 336.9,-189.17 336.62,-187.3 336.51,-185.44 336.58,-183.59 336.82,-181.77 337.25,-179.98 337.86,-178.22 338.66,-176.5 339.65,-174.82 340.83,-173.18 342.19,-171.6 343.74,-170.08 345.47,-168.61 347.38,-167.21 349.47,-165.88 351.73,-164.62 354.15,-163.43 356.72,-162.32 359.44,-161.29 362.29,-160.35 365.28,-159.5 368.37,-158.73 371.58,-158.05 374.87,-157.47 378.24,-156.98 381.67,-156.59 385.16,-156.3 388.68,-156.1 392.22,-156 395.78,-156 399.32,-156.1"/>
<text xml:space="preserve" text-anchor="middle" x="394" y="-187.8" font-family="sans-serif" font-size="14.00">Webhooks</text>
</a>
</g>
</g>
<!-- #/domains/customer_experience/subdomains/webhooks/boundedcontexts/webhooks&#45;&gt;#/domains/commerce/subdomains/sales/boundedcontexts/ordering -->
<g id="edge1" class="edge">
<title>#/domains/customer_experience/subdomains/webhooks/boundedcontexts/webhooks&#45;&gt;#/domains/commerce/subdomains/sales/boundedcontexts/ordering</title>
<path fill="none" stroke="black" d="M370.48,-223.39C355.38,-241.94 334.76,-265.55 314,-284 307.12,-290.12 299.48,-296.12 291.79,-301.74"/>
<polygon fill="black" stroke="black" points="289.8,-298.87 283.68,-307.52 293.86,-304.57 289.8,-298.87"/>
<g id="a_edge1&#45;headlabel"><a xlink:title="published&#45;language">
<text xml:space="preserve" text-anchor="middle" x="282.45" y="-305.39" font-family="sans-serif" font-size="10.00">PL</text>
</a>
</g>
<g id="a_edge1&#45;taillabel"><a xlink:title="conformist">
<text xml:space="preserve" text-anchor="middle" x="370.48" y="-220.39" font-family="sans-serif" font-size="10.00">C</text>
</a>
</g>
</g>
</g>
</svg>
