<?xml version="1.0" encoding="UTF-8" standalone="no"?>
<?xml-stylesheet href="data:text/css,.graph%20text%20%7B%0A%09font-family%3A%20sans-serif%3B%0A%09stroke%3A%20white%3B%0A%09paint-order%3A%20stroke%3B%0A%09stroke-width%3A%203%3B%0A%09stroke-linecap%3A%20square%3B%0A%7D%0A%0A.namespace%20polygon%20%7B%0A%09fill-opacity%3A%200.2%3B%0A%09stroke%3A%20none%3B%0A%7D%0A" type="text/css"?>
<!DOCTYPE svg PUBLIC "-//W3C//DTD SVG 1.1//EN"
 "http://www.w3.org/Graphics/SVG/1.1/DTD/svg11.dtd">
<!-- Generated by graphviz version 13.1.2 (0)
 -->
<!-- Pages: 1 -->
<svg width="340pt" height="492pt"
 viewBox="0.00 0.00 340.00 492.00" xmlns="http://www.w3.org/2000/svg" xmlns:xlink="http://www.w3.org/1999/xlink">
<g id="graph0" class="graph" transform="scale(1 1) rotate(0) translate(4 488)">
<polygon fill="white" stroke="none" points="-4,4 -4,-488 336,-488 336,4 -4,4"/>
<g id="clust1" class="cluster namespace">
<title>e_shop</title>
<polygon fill="lightgrey" stroke="lightgrey" points="8,-8 8,-476 324,-476 324,-8 8,-8"/>
<text xml:space="preserve" text-anchor="middle" x="166" y="-463" font-family="sans-serif" font-size="10.00">eShop</text>
</g>
<g id="clust2" class="cluster namespace">
<title>#/domains/api_integration</title>
<polygon fill="lightgrey" stroke="lightgrey" points="16,-168 16,-448 162,-448 162,-168 16,-168"/>
<text xml:space="preserve" text-anchor="middle" x="89" y="-435" font-family="sans-serif" font-size="10.00">API Integration</text>
</g>
<g id="clust3" class="cluster namespace">
<title>#/domains/api_integration/subdomains/webhooks</title>
<polygon fill="lightgrey" stroke="lightgrey" points="24,-176 24,-420 154,-420 154,-176 24,-176"/>
<text xml:space="preserve" text-anchor="middle" x="89" y="-407" font-family="sans-serif" font-size="10.00">Webhooks</text>
</g>
<g id="clust4" class="cluster namespace">
<title>#/domains/commerce</title>
<polygon fill="lightgrey" stroke="lightgrey" points="170,-168 170,-312 316,-312 316,-168 170,-168"/>
<text xml:space="preserve" text-anchor="middle" x="243" y="-299" font-family="sans-serif" font-size="10.00">Commerce</text>
</g>
<g id="clust5" class="cluster namespace">
<title>#/domains/commerce/subdomains/ordering</title>
<polygon fill="lightgrey" stroke="lightgrey" points="178,-176 178,-284 308,-284 308,-176 178,-176"/>
<text xml:space="preserve" text-anchor="middle" x="243" y="-271" font-family="sans-serif" font-size="10.00">Ordering</text>
</g>
<g id="clust6" class="cluster namespace">
<title>#/domains/payment_processing</title>
<polygon fill="lightgrey" stroke="lightgrey" points="164,-16 164,-160 316,-160 316,-16 164,-16"/>
<text xml:space="preserve" text-anchor="middle" x="240" y="-147" font-family="sans-serif" font-size="10.00">Payment Processing</text>
</g>
<g id="clust7" class="cluster namespace">
<title>#/domains/payment_processing/subdomains/payment_processors</title>
<polygon fill="lightgrey" stroke="lightgrey" points="172,-24 172,-132 308,-132 308,-24 172,-24"/>
<text xml:space="preserve" text-anchor="middle" x="240" y="-119" font-family="sans-serif" font-size="10.00">Payment Processors</text>
</g>
<!-- #/domains/api_integration/subdomains/webhooks/boundedcontexts/webhooks.api -->
<g id="node1" class="node">
<title>#/domains/api_integration/subdomains/webhooks/boundedcontexts/webhooks.api</title>
<g id="a_node1"><a xlink:title="Register webhooks and deliver order events to subscribers.">
<polygon fill="white" stroke="black" points="94.32,-320.1 97.84,-320.3 101.33,-320.59 104.76,-320.98 108.13,-321.47 111.42,-322.05 114.63,-322.73 117.72,-323.5 120.71,-324.35 123.56,-325.29 126.28,-326.32 128.85,-327.43 131.27,-328.62 133.53,-329.88 135.62,-331.21 137.53,-332.61 139.26,-334.08 140.81,-335.6 142.17,-337.18 143.35,-338.82 144.34,-340.5 145.14,-342.22 145.75,-343.98 146.18,-345.77 146.42,-347.59 146.49,-349.44 146.38,-351.3 146.1,-353.17 145.66,-355.06 145.06,-356.94 144.31,-358.83 143.41,-360.7 142.38,-362.56 141.22,-364.41 139.94,-366.23 138.54,-368.02 137.03,-369.78 135.43,-371.5 133.74,-373.18 131.96,-374.82 130.11,-376.4 128.19,-377.92 126.21,-379.39 124.17,-380.79 122.09,-382.12 119.96,-383.38 117.79,-384.57 115.58,-385.68 113.35,-386.71 111.1,-387.65 108.82,-388.5 106.52,-389.27 104.21,-389.95 101.89,-390.53 99.56,-391.02 97.22,-391.41 94.88,-391.7 92.53,-391.9 90.18,-392 87.82,-392 85.47,-391.9 83.12,-391.7 80.78,-391.41 78.44,-391.02 76.11,-390.53 73.79,-389.95 71.48,-389.27 69.18,-388.5 66.9,-387.65 64.65,-386.71 62.42,-385.68 60.21,-384.57 58.04,-383.38 55.91,-382.12 53.83,-380.79 51.79,-379.39 49.81,-377.92 47.89,-376.4 46.04,-374.82 44.26,-373.18 42.57,-371.5 40.97,-369.78 39.46,-368.02 38.06,-366.23 36.78,-364.41 35.62,-362.56 34.59,-360.7 33.69,-358.83 32.94,-356.94 32.34,-355.06 31.9,-353.17 31.62,-351.3 31.51,-349.44 31.58,-347.59 31.82,-345.77 32.25,-343.98 32.86,-342.22 33.66,-340.5 34.65,-338.82 35.83,-337.18 37.19,-335.6 38.74,-334.08 40.47,-332.61 42.38,-331.21 44.47,-329.88 46.73,-328.62 49.15,-327.43 51.72,-326.32 54.44,-325.29 57.29,-324.35 60.28,-323.5 63.37,-322.73 66.58,-322.05 69.87,-321.47 73.24,-320.98 76.67,-320.59 80.16,-320.3 83.68,-320.1 87.22,-320 90.78,-320 94.32,-320.1"/>
<text xml:space="preserve" text-anchor="middle" x="89" y="-351.8" font-family="sans-serif" font-size="14.00">Webhooks.API</text>
</a>
</g>
</g>
<!-- #/domains/api_integration/subdomains/webhooks/boundedcontexts/webhook_client -->
<g id="node2" class="node">
<title>#/domains/api_integration/subdomains/webhooks/boundedcontexts/webhook_client</title>
<g id="a_node2"><a xlink:title="Sample receiver app for incoming webhook deliveries.">
<polygon fill="white" stroke="black" points="94.32,-184.1 97.84,-184.3 101.33,-184.59 104.76,-184.98 108.13,-185.47 111.42,-186.05 114.63,-186.73 117.72,-187.5 120.71,-188.35 123.56,-189.29 126.28,-190.32 128.85,-191.43 131.27,-192.62 133.53,-193.88 135.62,-195.21 137.53,-196.61 139.26,-198.08 140.81,-199.6 142.17,-201.18 143.35,-202.82 144.34,-204.5 145.14,-206.22 145.75,-207.98 146.18,-209.77 146.42,-211.59 146.49,-213.44 146.38,-215.3 146.1,-217.17 145.66,-219.06 145.06,-220.94 144.31,-222.83 143.41,-224.7 142.38,-226.56 141.22,-228.41 139.94,-230.23 138.54,-232.02 137.03,-233.78 135.43,-235.5 133.74,-237.18 131.96,-238.82 130.11,-240.4 128.19,-241.92 126.21,-243.39 124.17,-244.79 122.09,-246.12 119.96,-247.38 117.79,-248.57 115.58,-249.68 113.35,-250.71 111.1,-251.65 108.82,-252.5 106.52,-253.27 104.21,-253.95 101.89,-254.53 99.56,-255.02 97.22,-255.41 94.88,-255.7 92.53,-255.9 90.18,-256 87.82,-256 85.47,-255.9 83.12,-255.7 80.78,-255.41 78.44,-255.02 76.11,-254.53 73.79,-253.95 71.48,-253.27 69.18,-252.5 66.9,-251.65 64.65,-250.71 62.42,-249.68 60.21,-248.57 58.04,-247.38 55.91,-246.12 53.83,-244.79 51.79,-243.39 49.81,-241.92 47.89,-240.4 46.04,-238.82 44.26,-237.18 42.57,-235.5 40.97,-233.78 39.46,-232.02 38.06,-230.23 36.78,-228.41 35.62,-226.56 34.59,-224.7 33.69,-222.83 32.94,-220.94 32.34,-219.06 31.9,-217.17 31.62,-215.3 31.51,-213.44 31.58,-211.59 31.82,-209.77 32.25,-207.98 32.86,-206.22 33.66,-204.5 34.65,-202.82 35.83,-201.18 37.19,-199.6 38.74,-198.08 40.47,-196.61 42.38,-195.21 44.47,-193.88 46.73,-192.62 49.15,-191.43 51.72,-190.32 54.44,-189.29 57.29,-188.35 60.28,-187.5 63.37,-186.73 66.58,-186.05 69.87,-185.47 73.24,-184.98 76.67,-184.59 80.16,-184.3 83.68,-184.1 87.22,-184 90.78,-184 94.32,-184.1"/>
<text xml:space="preserve" text-anchor="middle" x="89" y="-215.8" font-family="sans-serif" font-size="14.00">WebhookClient</text>
</a>
</g>
</g>
<!-- #/domains/api_integration/subdomains/webhooks/boundedcontexts/webhooks.api&#45;&gt;#/domains/api_integration/subdomains/webhooks/boundedcontexts/webhook_client -->
<g id="edge5" class="edge">
<title>#/domains/api_integration/subdomains/webhooks/boundedcontexts/webhooks.api&#45;&gt;#/domains/api_integration/subdomains/webhooks/boundedcontexts/webhook_client</title>
<path fill="none" stroke="black" d="M76.99,-320.14C75.35,-303.81 75.06,-284.14 76.13,-266.63"/>
<polygon fill="black" stroke="black" points="79.61,-266.98 76.93,-256.73 72.64,-266.41 79.61,-266.98"/>
<g id="a_edge5&#45;headlabel"><a xlink:title="open&#45;host&#45;service">
<text xml:space="preserve" text-anchor="middle" x="77.05" y="-252.22" font-family="sans-serif" font-size="10.00">OHS</text>
</a>
</g>
<g id="a_edge5&#45;taillabel"><a xlink:title="customer&#45;supplier">
<text xml:space="preserve" text-anchor="middle" x="76.99" y="-317.14" font-family="sans-serif" font-size="10.00">C/s</text>
</a>
</g>
</g>
<!-- #/domains/commerce/subdomains/ordering/boundedcontexts/ordering.api -->
<g id="node3" class="node">
<title>#/domains/commerce/subdomains/ordering/boundedcontexts/ordering.api</title>
<g id="a_node3"><a xlink:title="Order lifecycle, status and events.">
<polygon fill="white" stroke="black" points="248.32,-184.1 251.84,-184.3 255.33,-184.59 258.76,-184.98 262.13,-185.47 265.42,-186.05 268.63,-186.73 271.72,-187.5 274.71,-188.35 277.56,-189.29 280.28,-190.32 282.85,-191.43 285.27,-192.62 287.53,-193.88 289.62,-195.21 291.53,-196.61 293.26,-198.08 294.81,-199.6 296.17,-201.18 297.35,-202.82 298.34,-204.5 299.14,-206.22 299.75,-207.98 300.18,-209.77 300.42,-211.59 300.49,-213.44 300.38,-215.3 300.1,-217.17 299.66,-219.06 299.06,-220.94 298.31,-222.83 297.41,-224.7 296.38,-226.56 295.22,-228.41 293.94,-230.23 292.54,-232.02 291.03,-233.78 289.43,-235.5 287.74,-237.18 285.96,-238.82 284.11,-240.4 282.19,-241.92 280.21,-243.39 278.17,-244.79 276.09,-246.12 273.96,-247.38 271.79,-248.57 269.58,-249.68 267.35,-250.71 265.1,-251.65 262.82,-252.5 260.52,-253.27 258.21,-253.95 255.89,-254.53 253.56,-255.02 251.22,-255.41 248.88,-255.7 246.53,-255.9 244.18,-256 241.82,-256 239.47,-255.9 237.12,-255.7 234.78,-255.41 232.44,-255.02 230.11,-254.53 227.79,-253.95 225.48,-253.27 223.18,-252.5 220.9,-251.65 218.65,-250.71 216.42,-249.68 214.21,-248.57 212.04,-247.38 209.91,-246.12 207.83,-244.79 205.79,-243.39 203.81,-241.92 201.89,-240.4 200.04,-238.82 198.26,-237.18 196.57,-235.5 194.97,-233.78 193.46,-232.02 192.06,-230.23 190.78,-228.41 189.62,-226.56 188.59,-224.7 187.69,-222.83 186.94,-220.94 186.34,-219.06 185.9,-217.17 185.62,-215.3 185.51,-213.44 185.58,-211.59 185.82,-209.77 186.25,-207.98 186.86,-206.22 187.66,-204.5 188.65,-202.82 189.83,-201.18 191.19,-199.6 192.74,-198.08 194.47,-196.61 196.38,-195.21 198.47,-193.88 200.73,-192.62 203.15,-191.43 205.72,-190.32 208.44,-189.29 211.29,-188.35 214.28,-187.5 217.37,-186.73 220.58,-186.05 223.87,-185.47 227.24,-184.98 230.67,-184.59 234.16,-184.3 237.68,-184.1 241.22,-184 244.78,-184 248.32,-184.1"/>
<text xml:space="preserve" text-anchor="middle" x="243" y="-215.8" font-family="sans-serif" font-size="14.00">Ordering.API</text>
</a>
</g>
</g>
<!-- #/domains/api_integration/subdomains/webhooks/boundedcontexts/webhooks.api&#45;&gt;#/domains/commerce/subdomains/ordering/boundedcontexts/ordering.api -->
<g id="edge2" class="edge">
<title>#/domains/api_integration/subdomains/webhooks/boundedcontexts/webhooks.api&#45;&gt;#/domains/commerce/subdomains/ordering/boundedcontexts/ordering.api</title>
<path fill="none" stroke="black" d="M135.92,-330.82C145.27,-325.17 154.74,-318.79 163,-312 181.4,-296.87 199.18,-277.32 213.29,-260.22"/>
<polygon fill="black" stroke="black" points="215.79,-262.68 219.36,-252.71 210.35,-258.28 215.79,-262.68"/>
<g id="a_edge2&#45;headlabel"><a xlink:title="published&#45;language">
<text xml:space="preserve" text-anchor="middle" x="220.31" y="-248.53" font-family="sans-serif" font-size="10.00">PL</text>
</a>
</g>
<g id="a_edge2&#45;taillabel"><a xlink:title="conformist">
<text xml:space="preserve" text-anchor="middle" x="135.92" y="-327.82" font-family="sans-serif" font-size="10.00">C</text>
</a>
</g>
</g>
<!-- #/domains/api_integration/subdomains/webhooks/boundedcontexts/webhook_client&#45;&gt;#/domains/api_integration/subdomains/webhooks/boundedcontexts/webhooks.api -->
<g id="edge1" class="edge">
<title>#/domains/api_integration/subdomains/webhooks/boundedcontexts/webhook_client&#45;&gt;#/domains/api_integration/subdomains/webhooks/boundedcontexts/webhooks.api</title>
<path fill="none" stroke="black" d="M100.95,-255.22C102.62,-271.46 102.94,-291.12 101.91,-308.68"/>
<polygon fill="black" stroke="black" points="98.42,-308.39 101.13,-318.63 105.4,-308.94 98.42,-308.39"/>
<g id="a_edge1&#45;headlabel"><a xlink:title="open&#45;host&#45;service">
<text xml:space="preserve" text-anchor="middle" x="101.01" y="-317.14" font-family="sans-serif" font-size="10.00">OHS</text>
</a>
</g>
<g id="a_edge1&#45;taillabel"><a xlink:title="customer&#45;supplier">
<text xml:space="preserve" text-anchor="middle" x="100.95" y="-252.22" font-family="sans-serif" font-size="10.00">C/s</text>
</a>
</g>
</g>
<!-- #/domains/payment_processing/subdomains/payment_processors/boundedcontexts/payment_processor -->
<g id="node4" class="node">
<title>#/domains/payment_processing/subdomains/payment_processors/boundedcontexts/payment_processor</title>
<g id="a_node4"><a xlink:title="Simulated external payment processor.">
<polygon fill="white" stroke="black" points="245.32,-32.1 248.84,-32.3 252.33,-32.59 255.76,-32.98 259.13,-33.47 262.42,-34.05 265.63,-34.73 268.72,-35.5 271.71,-36.35 274.56,-37.29 277.28,-38.32 279.85,-39.43 282.27,-40.62 284.53,-41.88 286.62,-43.21 288.53,-44.61 290.26,-46.08 291.81,-47.6 293.17,-49.18 294.35,-50.82 295.34,-52.5 296.14,-54.22 296.75,-55.98 297.18,-57.77 297.42,-59.59 297.49,-61.44 297.38,-63.3 297.1,-65.17 296.66,-67.06 296.06,-68.94 295.31,-70.83 294.41,-72.7 293.38,-74.56 292.22,-76.41 290.94,-78.23 289.54,-80.02 288.03,-81.78 286.43,-83.5 284.74,-85.18 282.96,-86.82 281.11,-88.4 279.19,-89.92 277.21,-91.39 275.17,-92.79 273.09,-94.12 270.96,-95.38 268.79,-96.57 266.58,-97.68 264.35,-98.71 262.1,-99.65 259.82,-100.5 257.52,-101.27 255.21,-101.95 252.89,-102.53 250.56,-103.02 248.22,-103.41 245.88,-103.7 243.53,-103.9 241.18,-104 238.82,-104 236.47,-103.9 234.12,-103.7 231.78,-103.41 229.44,-103.02 227.11,-102.53 224.79,-101.95 222.48,-101.27 220.18,-100.5 217.9,-99.65 215.65,-98.71 213.42,-97.68 211.21,-96.57 209.04,-95.38 206.91,-94.12 204.83,-92.79 202.79,-91.39 200.81,-89.92 198.89,-88.4 197.04,-86.82 195.26,-85.18 193.57,-83.5 191.97,-81.78 190.46,-80.02 189.06,-78.23 187.78,-76.41 186.62,-74.56 185.59,-72.7 184.69,-70.83 183.94,-68.94 183.34,-67.06 182.9,-65.17 182.62,-63.3 182.51,-61.44 182.58,-59.59 182.82,-57.77 183.25,-55.98 183.86,-54.22 184.66,-52.5 185.65,-50.82 186.83,-49.18 188.19,-47.6 189.74,-46.08 191.47,-44.61 193.38,-43.21 195.47,-41.88 197.73,-40.62 200.15,-39.43 202.72,-38.32 205.44,-37.29 208.29,-36.35 211.28,-35.5 214.37,-34.73 217.58,-34.05 220.87,-33.47 224.24,-32.98 227.67,-32.59 231.16,-32.3 234.68,-32.1 238.22,-32 241.78,-32 245.32,-32.1"/>
<text xml:space="preserve" text-anchor="middle" x="240" y="-63.8" font-family="sans-serif" font-size="14.00">PaymentProcessor</text>
</a>
</g>
</g>
<!-- #/domains/commerce/subdomains/ordering/boundedcontexts/ordering.api&#45;&gt;#/domains/payment_processing/subdomains/payment_processors/boundedcontexts/payment_processor -->
<g id="edge3" class="edge">
<title>#/domains/commerce/subdomains/ordering/boundedcontexts/ordering.api&#45;&gt;#/domains/payment_processing/subdomains/payment_processors/boundedcontexts/payment_processor</title>
<path fill="none" stroke="black" d="M230.7,-184.21C228.12,-163.5 227.28,-136.98 228.38,-114.61"/>
<polygon fill="black" stroke="black" points="231.86,-115.06 229.03,-104.85 224.87,-114.6 231.86,-115.06"/>
<g id="a_edge3&#45;headlabel"><a xlink:title="open&#45;host&#45;service">
<text xml:space="preserve" text-anchor="middle" x="229.13" y="-100.34" font-family="sans-serif" font-size="10.00">OHS</text>
</a>
</g>
<g id="a_edge3&#45;taillabel"><a xlink:title="customer&#45;supplier">
<text xml:space="preserve" text-anchor="middle" x="230.7" y="-181.21" font-family="sans-serif" font-size="10.00">C/s</text>
</a>
</g>
</g>
<!-- #/domains/commerce/subdomains/ordering/boundedcontexts/ordering.api&#45;&gt;#/domains/payment_processing/subdomains/payment_processors/boundedcontexts/payment_processor -->
<g id="edge4" class="edge">
<title>#/domains/commerce/subdomains/ordering/boundedcontexts/ordering.api&#45;&gt;#/domains/payment_processing/subdomains/payment_processors/boundedcontexts/payment_processor</title>
<path fill="none" stroke="black" d="M253.91,-184.21C255.67,-163.43 255.44,-136.79 253.42,-114.37"/>
<polygon fill="black" stroke="black" points="256.92,-114.16 252.37,-104.59 249.96,-114.91 256.92,-114.16"/>
<g id="a_edge4&#45;headlabel"><a xlink:title="published&#45;language">
<text xml:space="preserve" text-anchor="middle" x="252.21" y="-100.08" font-family="sans-serif" font-size="10.00">PL</text>
</a>
</g>
<g id="a_edge4&#45;taillabel"><a xlink:title="conformist">
<text xml:space="preserve" text-anchor="middle" x="253.91" y="-181.21" font-family="sans-serif" font-size="10.00">C</text>
</a>
</g>
</g>
</g>
</svg>
