<?xml version="1.0" encoding="UTF-8" standalone="no"?>
<?xml-stylesheet href="data:text/css,.graph%20text%20%7B%0A%09font-family%3A%20sans-serif%3B%0A%09stroke%3A%20white%3B%0A%09paint-order%3A%20stroke%3B%0A%09stroke-width%3A%203%3B%0A%09stroke-linecap%3A%20square%3B%0A%7D%0A%0A.namespace%20polygon%20%7B%0A%09fill-opacity%3A%200.2%3B%0A%09stroke%3A%20none%3B%0A%7D%0A" type="text/css"?>
<!DOCTYPE svg PUBLIC "-//W3C//DTD SVG 1.1//EN"
 "http://www.w3.org/Graphics/SVG/1.1/DTD/svg11.dtd">
<!-- Generated by graphviz version 13.1.2 (0)
 -->
<!-- Pages: 1 -->
<svg width="491pt" height="508pt"
 viewBox="0.00 0.00 491.00 508.00" xmlns="http://www.w3.org/2000/svg" xmlns:xlink="http://www.w3.org/1999/xlink">
<g id="graph0" class="graph" transform="scale(1 1) rotate(0) translate(4 504)">
<polygon fill="white" stroke="none" points="-4,4 -4,-504 487,-504 487,4 -4,4"/>
<g id="clust1" class="cluster namespace">
<title>e_shop</title>
<polygon fill="lightgrey" stroke="lightgrey" points="8,-8 8,-492 475,-492 475,-8 8,-8"/>
<text xml:space="preserve" text-anchor="middle" x="241.5" y="-479" font-family="sans-serif" font-size="10.00">eShop</text>
</g>
<g id="clust2" class="cluster namespace">
<title>#/domains/commerce</title>
<polygon fill="lightgrey" stroke="lightgrey" points="167,-168 167,-312 313,-312 313,-168 167,-168"/>
<text xml:space="preserve" text-anchor="middle" x="240" y="-299" font-family="sans-serif" font-size="10.00">Commerce</text>
</g>
<g id="clust3" class="cluster namespace">
<title>#/domains/commerce/subdomains/ordering</title>
<polygon fill="lightgrey" stroke="lightgrey" points="175,-176 175,-284 305,-284 305,-176 175,-176"/>
<text xml:space="preserve" text-anchor="middle" x="240" y="-271" font-family="sans-serif" font-size="10.00">Ordering</text>
</g>
<g id="clust4" class="cluster namespace">
<title>#/domains/edge_&amp;_experience</title>
<polygon fill="lightgrey" stroke="lightgrey" points="16,-320 16,-464 313,-464 313,-320 16,-320"/>
<text xml:space="preserve" text-anchor="middle" x="164.5" y="-451" font-family="sans-serif" font-size="10.00">Edge &amp; Experience</text>
</g>
<g id="clust5" class="cluster namespace">
<title>#/domains/edge_&amp;_experience/subdomains/web</title>
<polygon fill="lightgrey" stroke="lightgrey" points="24,-328 24,-436 154,-436 154,-328 24,-328"/>
<text xml:space="preserve" text-anchor="middle" x="89" y="-423" font-family="sans-serif" font-size="10.00">Web</text>
</g>
<g id="clust6" class="cluster namespace">
<title>#/domains/edge_&amp;_experience/subdomains/mobile</title>
<polygon fill="lightgrey" stroke="lightgrey" points="175,-328 175,-436 305,-436 305,-328 175,-328"/>
<text xml:space="preserve" text-anchor="middle" x="240" y="-423" font-family="sans-serif" font-size="10.00">Mobile</text>
</g>
<g id="clust7" class="cluster namespace">
<title>#/domains/api_integration</title>
<polygon fill="lightgrey" stroke="lightgrey" points="321,-320 321,-464 467,-464 467,-320 321,-320"/>
<text xml:space="preserve" text-anchor="middle" x="394" y="-451" font-family="sans-serif" font-size="10.00">API Integration</text>
</g>
<g id="clust8" class="cluster namespace">
<title>#/domains/api_integration/subdomains/webhooks</title>
<polygon fill="lightgrey" stroke="lightgrey" points="329,-328 329,-436 459,-436 459,-328 329,-328"/>
<text xml:space="preserve" text-anchor="middle" x="394" y="-423" font-family="sans-serif" font-size="10.00">Webhooks</text>
</g>
<g id="clust9" class="cluster namespace">
<title>#/domains/payment_processing</title>
<polygon fill="lightgrey" stroke="lightgrey" points="156,-16 156,-160 324,-160 324,-16 156,-16"/>
<text xml:space="preserve" text-anchor="middle" x="240" y="-147" font-family="sans-serif" font-size="10.00">Payment Processing</text>
</g>
<g id="clust10" class="cluster namespace">
<title>#/domains/payment_processing/subdomains/payment_processors</title>
<polygon fill="lightgrey" stroke="lightgrey" points="164,-24 164,-132 316,-132 316,-24 164,-24"/>
<text xml:space="preserve" text-anchor="middle" x="240" y="-119" font-family="sans-serif" font-size="10.00">Payment Processors</text>
</g>
<!-- #/domains/commerce/subdomains/ordering/boundedcontexts/ordering -->
<g id="node1" class="node">
<title>#/domains/commerce/subdomains/ordering/boundedcontexts/ordering</title>
<g id="a_node1"><a xlink:title="Order lifecycle, status and events.">
<polygon fill="white" stroke="black" points="245.32,-184.1 248.84,-184.3 252.33,-184.59 255.76,-184.98 259.13,-185.47 262.42,-186.05 265.63,-186.73 268.72,-187.5 271.71,-188.35 274.56,-189.29 277.28,-190.32 279.85,-191.43 282.27,-192.62 284.53,-193.88 286.62,-195.21 288.53,-196.61 290.26,-198.08 291.81,-199.6 293.17,-201.18 294.35,-202.82 295.34,-204.5 296.14,-206.22 296.75,-207.98 297.18,-209.77 297.42,-211.59 297.49,-213.44 297.38,-215.3 297.1,-217.17 296.66,-219.06 296.06,-220.94 295.31,-222.83 294.41,-224.7 293.38,-226.56 292.22,-228.41 290.94,-230.23 289.54,-232.02 288.03,-233.78 286.43,-235.5 284.74,-237.18 282.96,-238.82 281.11,-240.4 279.19,-241.92 277.21,-243.39 275.17,-244.79 273.09,-246.12 270.96,-247.38 268.79,-248.57 266.58,-249.68 264.35,-250.71 262.1,-251.65 259.82,-252.5 257.52,-253.27 255.21,-253.95 252.89,-254.53 250.56,-255.02 248.22,-255.41 245.88,-255.7 243.53,-255.9 241.18,-256 238.82,-256 236.47,-255.9 234.12,-255.7 231.78,-255.41 229.44,-255.02 227.11,-254.53 224.79,-253.95 222.48,-253.27 220.18,-252.5 217.9,-251.65 215.65,-250.71 213.42,-249.68 211.21,-248.57 209.04,-247.38 206.91,-246.12 204.83,-244.79 202.79,-243.39 200.81,-241.92 198.89,-240.4 197.04,-238.82 195.26,-237.18 193.57,-235.5 191.97,-233.78 190.46,-232.02 189.06,-230.23 187.78,-228.41 186.62,-226.56 185.59,-224.7 184.69,-222.83 183.94,-220.94 183.34,-219.06 182.9,-217.17 182.62,-215.3 182.51,-213.44 182.58,-211.59 182.82,-209.77 183.25,-207.98 183.86,-206.22 184.66,-204.5 185.65,-202.82 186.83,-201.18 188.19,-199.6 189.74,-198.08 191.47,-196.61 193.38,-195.21 195.47,-193.88 197.73,-192.62 200.15,-191.43 202.72,-190.32 205.44,-189.29 208.29,-188.35 211.28,-187.5 214.37,-186.73 217.58,-186.05 220.87,-185.47 224.24,-184.98 227.67,-184.59 231.16,-184.3 234.68,-184.1 238.22,-184 241.78,-184 245.32,-184.1"/>
<text xml:space="preserve" text-anchor="middle" x="240" y="-215.8" font-family="sans-serif" font-size="14.00">Ordering</text>
</a>
</g>
</g>
<!-- #/domains/payment_processing/subdomains/payment_processors/boundedcontexts/payment_processor -->
<g id="node5" class="node">
<title>#/domains/payment_processing/subdomains/payment_processors/boundedcontexts/payment_processor</title>
<g id="a_node5"><a xlink:title="Simulated external payment processor.">
<polygon fill="white" stroke="black" points="246.27,-32.1 250.42,-32.3 254.53,-32.59 258.57,-32.98 262.54,-33.47 266.42,-34.05 270.2,-34.73 273.85,-35.5 277.36,-36.35 280.72,-37.29 283.93,-38.32 286.96,-39.43 289.81,-40.62 292.47,-41.88 294.93,-43.21 297.18,-44.61 299.22,-46.08 301.05,-47.6 302.66,-49.18 304.04,-50.82 305.2,-52.5 306.15,-54.22 306.87,-55.98 307.37,-57.77 307.66,-59.59 307.74,-61.44 307.61,-63.3 307.28,-65.17 306.76,-67.06 306.05,-68.94 305.17,-70.83 304.11,-72.7 302.9,-74.56 301.53,-76.41 300.02,-78.23 298.37,-80.02 296.6,-81.78 294.71,-83.5 292.72,-85.18 290.63,-86.82 288.44,-88.4 286.18,-89.92 283.85,-91.39 281.44,-92.79 278.99,-94.12 276.47,-95.38 273.92,-96.57 271.32,-97.68 268.69,-98.71 266.04,-99.65 263.35,-100.5 260.65,-101.27 257.93,-101.95 255.19,-102.53 252.44,-103.02 249.69,-103.41 246.92,-103.7 244.16,-103.9 241.39,-104 238.61,-104 235.84,-103.9 233.08,-103.7 230.31,-103.41 227.56,-103.02 224.81,-102.53 222.07,-101.95 219.35,-101.27 216.65,-100.5 213.96,-99.65 211.31,-98.71 208.68,-97.68 206.08,-96.57 203.53,-95.38 201.01,-94.12 198.56,-92.79 196.15,-91.39 193.82,-89.92 191.56,-88.4 189.37,-86.82 187.28,-85.18 185.29,-83.5 183.4,-81.78 181.63,-80.02 179.98,-78.23 178.47,-76.41 177.1,-74.56 175.89,-72.7 174.83,-70.83 173.95,-68.94 173.24,-67.06 172.72,-65.17 172.39,-63.3 172.26,-61.44 172.34,-59.59 172.63,-57.77 173.13,-55.98 173.85,-54.22 174.8,-52.5 175.96,-50.82 177.34,-49.18 178.95,-47.6 180.78,-46.08 182.82,-44.61 185.07,-43.21 187.53,-41.88 190.19,-40.62 193.04,-39.43 196.07,-38.32 199.28,-37.29 202.64,-36.35 206.15,-35.5 209.8,-34.73 213.58,-34.05 217.46,-33.47 221.43,-32.98 225.47,-32.59 229.58,-32.3 233.73,-32.1 237.91,-32 242.09,-32 246.27,-32.1"/>
<text xml:space="preserve" text-anchor="middle" x="240" y="-63.8" font-family="sans-serif" font-size="14.00">PaymentProcessor</text>
</a>
</g>
</g>
<!-- #/domains/commerce/subdomains/ordering/boundedcontexts/ordering&#45;&gt;#/domains/payment_processing/subdomains/payment_processors/boundedcontexts/payment_processor -->
<g id="edge4" class="edge">
<title>#/domains/commerce/subdomains/ordering/boundedcontexts/ordering&#45;&gt;#/domains/payment_processing/subdomains/payment_processors/boundedcontexts/payment_processor</title>
<path fill="none" stroke="black" d="M228.4,-184.21C226.24,-163.57 225.92,-137.17 227.45,-114.85"/>
<polygon fill="black" stroke="black" points="230.92,-115.37 228.29,-105.11 223.94,-114.77 230.92,-115.37"/>
<g id="a_edge4&#45;headlabel"><a xlink:title="open&#45;host&#45;service">
<text xml:space="preserve" text-anchor="middle" x="228.42" y="-100.6" font-family="sans-serif" font-size="10.00">OHS</text>
</a>
</g>
<g id="a_edge4&#45;taillabel"><a xlink:title="customer&#45;supplier">
<text xml:space="preserve" text-anchor="middle" x="228.4" y="-181.21" font-family="sans-serif" font-size="10.00">C/s</text>
</a>
</g>
</g>
<!-- #/domains/commerce/subdomains/ordering/boundedcontexts/ordering&#45;&gt;#/domains/payment_processing/subdomains/payment_processors/boundedcontexts/payment_processor -->
<g id="edge5" class="edge">
<title>#/domains/commerce/subdomains/ordering/boundedcontexts/ordering&#45;&gt;#/domains/payment_processing/subdomains/payment_processors/boundedcontexts/payment_processor</title>
<path fill="none" stroke="black" d="M251.6,-184.21C253.76,-163.57 254.08,-137.17 252.55,-114.85"/>
<polygon fill="black" stroke="black" points="256.06,-114.77 251.71,-105.11 249.08,-115.37 256.06,-114.77"/>
<g id="a_edge5&#45;headlabel"><a xlink:title="published&#45;language">
<text xml:space="preserve" text-anchor="middle" x="251.58" y="-100.6" font-family="sans-serif" font-size="10.00">PL</text>
</a>
</g>
<g id="a_edge5&#45;taillabel"><a xlink:title="conformist">
<text xml:space="preserve" text-anchor="middle" x="251.6" y="-181.21" font-family="sans-serif" font-size="10.00">C</text>
</a>
</g>
</g>
<!-- #/domains/edge_&amp;_experience/subdomains/web/boundedcontexts/web -->
<g id="node2" class="node">
<title>#/domains/edge_&amp;_experience/subdomains/web/boundedcontexts/web</title>
<g id="a_node2"><a xlink:title="Blazor Server web app for customers.">
<polygon fill="white" stroke="black" points="94.32,-336.1 97.84,-336.3 101.33,-336.59 104.76,-336.98 108.13,-337.47 111.42,-338.05 114.63,-338.73 117.72,-339.5 120.71,-340.35 123.56,-341.29 126.28,-342.32 128.85,-343.43 131.27,-344.62 133.53,-345.88 135.62,-347.21 137.53,-348.61 139.26,-350.08 140.81,-351.6 142.17,-353.18 143.35,-354.82 144.34,-356.5 145.14,-358.22 145.75,-359.98 146.18,-361.77 146.42,-363.59 146.49,-365.44 146.38,-367.3 146.1,-369.17 145.66,-371.06 145.06,-372.94 144.31,-374.83 143.41,-376.7 142.38,-378.56 141.22,-380.41 139.94,-382.23 138.54,-384.02 137.03,-385.78 135.43,-387.5 133.74,-389.18 131.96,-390.82 130.11,-392.4 128.19,-393.92 126.21,-395.39 124.17,-396.79 122.09,-398.12 119.96,-399.38 117.79,-400.57 115.58,-401.68 113.35,-402.71 111.1,-403.65 108.82,-404.5 106.52,-405.27 104.21,-405.95 101.89,-406.53 99.56,-407.02 97.22,-407.41 94.88,-407.7 92.53,-407.9 90.18,-408 87.82,-408 85.47,-407.9 83.12,-407.7 80.78,-407.41 78.44,-407.02 76.11,-406.53 73.79,-405.95 71.48,-405.27 69.18,-404.5 66.9,-403.65 64.65,-402.71 62.42,-401.68 60.21,-400.57 58.04,-399.38 55.91,-398.12 53.83,-396.79 51.79,-395.39 49.81,-393.92 47.89,-392.4 46.04,-390.82 44.26,-389.18 42.57,-387.5 40.97,-385.78 39.46,-384.02 38.06,-382.23 36.78,-380.41 35.62,-378.56 34.59,-376.7 33.69,-374.83 32.94,-372.94 32.34,-371.06 31.9,-369.17 31.62,-367.3 31.51,-365.44 31.58,-363.59 31.82,-361.77 32.25,-359.98 32.86,-358.22 33.66,-356.5 34.65,-354.82 35.83,-353.18 37.19,-351.6 38.74,-350.08 40.47,-348.61 42.38,-347.21 44.47,-345.88 46.73,-344.62 49.15,-343.43 51.72,-342.32 54.44,-341.29 57.29,-340.35 60.28,-339.5 63.37,-338.73 66.58,-338.05 69.87,-337.47 73.24,-336.98 76.67,-336.59 80.16,-336.3 83.68,-336.1 87.22,-336 90.78,-336 94.32,-336.1"/>
<text xml:space="preserve" text-anchor="middle" x="89" y="-367.8" font-family="sans-serif" font-size="14.00">Web</text>
</a>
</g>
</g>
<!-- #/domains/edge_&amp;_experience/subdomains/web/boundedcontexts/web&#45;&gt;#/domains/commerce/subdomains/ordering/boundedcontexts/ordering -->
<g id="edge1" class="edge">
<title>#/domains/edge_&amp;_experience/subdomains/web/boundedcontexts/web&#45;&gt;#/domains/commerce/subdomains/ordering/boundedcontexts/ordering</title>
<path fill="none" stroke="black" d="M120.29,-339.92C144.53,-315.84 178.16,-282.43 203.61,-257.15"/>
<polygon fill="black" stroke="black" points="205.86,-259.85 210.48,-250.32 200.92,-254.88 205.86,-259.85"/>
<g id="a_edge1&#45;headlabel"><a xlink:title="open&#45;host&#45;service">
<text xml:space="preserve" text-anchor="middle" x="211.56" y="-246.25" font-family="sans-serif" font-size="10.00">OHS</text>
</a>
</g>
<g id="a_edge1&#45;taillabel"><a xlink:title="anti&#45;corruption&#45;layer">
<text xml:space="preserve" text-anchor="middle" x="120.29" y="-336.92" font-family="sans-serif" font-size="10.00">ACL</text>
</a>
</g>
</g>
<!-- #/domains/edge_&amp;_experience/subdomains/mobile/boundedcontexts/mobile_bff -->
<g id="node3" class="node">
<title>#/domains/edge_&amp;_experience/subdomains/mobile/boundedcontexts/mobile_bff</title>
<g id="a_node3"><a xlink:title="BFF that aggregates catalog/basket/ordering.">
<polygon fill="white" stroke="black" points="245.32,-336.1 248.84,-336.3 252.33,-336.59 255.76,-336.98 259.13,-337.47 262.42,-338.05 265.63,-338.73 268.72,-339.5 271.71,-340.35 274.56,-341.29 277.28,-342.32 279.85,-343.43 282.27,-344.62 284.53,-345.88 286.62,-347.21 288.53,-348.61 290.26,-350.08 291.81,-351.6 293.17,-353.18 294.35,-354.82 295.34,-356.5 296.14,-358.22 296.75,-359.98 297.18,-361.77 297.42,-363.59 297.49,-365.44 297.38,-367.3 297.1,-369.17 296.66,-371.06 296.06,-372.94 295.31,-374.83 294.41,-376.7 293.38,-378.56 292.22,-380.41 290.94,-382.23 289.54,-384.02 288.03,-385.78 286.43,-387.5 284.74,-389.18 282.96,-390.82 281.11,-392.4 279.19,-393.92 277.21,-395.39 275.17,-396.79 273.09,-398.12 270.96,-399.38 268.79,-400.57 266.58,-401.68 264.35,-402.71 262.1,-403.65 259.82,-404.5 257.52,-405.27 255.21,-405.95 252.89,-406.53 250.56,-407.02 248.22,-407.41 245.88,-407.7 243.53,-407.9 241.18,-408 238.82,-408 236.47,-407.9 234.12,-407.7 231.78,-407.41 229.44,-407.02 227.11,-406.53 224.79,-405.95 222.48,-405.27 220.18,-404.5 217.9,-403.65 215.65,-402.71 213.42,-401.68 211.21,-400.57 209.04,-399.38 206.91,-398.12 204.83,-396.79 202.79,-395.39 200.81,-393.92 198.89,-392.4 197.04,-390.82 195.26,-389.18 193.57,-387.5 191.97,-385.78 190.46,-384.02 189.06,-382.23 187.78,-380.41 186.62,-378.56 185.59,-376.7 184.69,-374.83 183.94,-372.94 183.34,-371.06 182.9,-369.17 182.62,-367.3 182.51,-365.44 182.58,-363.59 182.82,-361.77 183.25,-359.98 183.86,-358.22 184.66,-356.5 185.65,-354.82 186.83,-353.18 188.19,-351.6 189.74,-350.08 191.47,-348.61 193.38,-347.21 195.47,-345.88 197.73,-344.62 200.15,-343.43 202.72,-342.32 205.44,-341.29 208.29,-340.35 211.28,-339.5 214.37,-338.73 217.58,-338.05 220.87,-337.47 224.24,-336.98 227.67,-336.59 231.16,-336.3 234.68,-336.1 238.22,-336 241.78,-336 245.32,-336.1"/>
<text xml:space="preserve" text-anchor="middle" x="240" y="-367.8" font-family="sans-serif" font-size="14.00">Mobile BFF</text>
</a>
</g>
</g>
<!-- #/domains/edge_&amp;_experience/subdomains/mobile/boundedcontexts/mobile_bff&#45;&gt;#/domains/commerce/subdomains/ordering/boundedcontexts/ordering -->
<g id="edge2" class="edge">
<title>#/domains/edge_&amp;_experience/subdomains/mobile/boundedcontexts/mobile_bff&#45;&gt;#/domains/commerce/subdomains/ordering/boundedcontexts/ordering</title>
<path fill="none" stroke="black" d="M240,-335.83C240,-315.57 240,-289.85 240,-267.89"/>
<polygon fill="black" stroke="black" points="243.5,-267.98 240,-257.98 236.5,-267.98 243.5,-267.98"/>
<g id="a_edge2&#45;headlabel"><a xlink:title="open&#45;host&#45;service">
<text xml:space="preserve" text-anchor="middle" x="240" y="-253.47" font-family="sans-serif" font-size="10.00">OHS</text>
</a>
</g>
<g id="a_edge2&#45;taillabel"><a xlink:title="anti&#45;corruption&#45;layer">
<text xml:space="preserve" text-anchor="middle" x="240" y="-332.83" font-family="sans-serif" font-size="10.00">ACL</text>
</a>
</g>
</g>
<!-- #/domains/api_integration/subdomains/webhooks/boundedcontexts/webhooks -->
<g id="node4" class="node">
<title>#/domains/api_integration/subdomains/webhooks/boundedcontexts/webhooks</title>
<g id="a_node4"><a xlink:title="Register webhooks and deliver order events to subscribers.">
<polygon fill="white" stroke="black" points="399.32,-336.1 402.84,-336.3 406.33,-336.59 409.76,-336.98 413.13,-337.47 416.42,-338.05 419.63,-338.73 422.72,-339.5 425.71,-340.35 428.56,-341.29 431.28,-342.32 433.85,-343.43 436.27,-344.62 438.53,-345.88 440.62,-347.21 442.53,-348.61 444.26,-350.08 445.81,-351.6 447.17,-353.18 448.35,-354.82 449.34,-356.5 450.14,-358.22 450.75,-359.98 451.18,-361.77 451.42,-363.59 451.49,-365.44 451.38,-367.3 451.1,-369.17 450.66,-371.06 450.06,-372.94 449.31,-374.83 448.41,-376.7 447.38,-378.56 446.22,-380.41 444.94,-382.23 443.54,-384.02 442.03,-385.78 440.43,-387.5 438.74,-389.18 436.96,-390.82 435.11,-392.4 433.19,-393.92 431.21,-395.39 429.17,-396.79 427.09,-398.12 424.96,-399.38 422.79,-400.57 420.58,-401.68 418.35,-402.71 416.1,-403.65 413.82,-404.5 411.52,-405.27 409.21,-405.95 406.89,-406.53 404.56,-407.02 402.22,-407.41 399.88,-407.7 397.53,-407.9 395.18,-408 392.82,-408 390.47,-407.9 388.12,-407.7 385.78,-407.41 383.44,-407.02 381.11,-406.53 378.79,-405.95 376.48,-405.27 374.18,-404.5 371.9,-403.65 369.65,-402.71 367.42,-401.68 365.21,-400.57 363.04,-399.38 360.91,-398.12 358.83,-396.79 356.79,-395.39 354.81,-393.92 352.89,-392.4 351.04,-390.82 349.26,-389.18 347.57,-387.5 345.97,-385.78 344.46,-384.02 343.06,-382.23 341.78,-380.41 340.62,-378.56 339.59,-376.7 338.69,-374.83 337.94,-372.94 337.34,-371.06 336.9,-369.17 336.62,-367.3 336.51,-365.44 336.58,-363.59 336.82,-361.77 337.25,-359.98 337.86,-358.22 338.66,-356.5 339.65,-354.82 340.83,-353.18 342.19,-351.6 343.74,-350.08 345.47,-348.61 347.38,-347.21 349.47,-345.88 351.73,-344.62 354.15,-343.43 356.72,-342.32 359.44,-341.29 362.29,-340.35 365.28,-339.5 368.37,-338.73 371.58,-338.05 374.87,-337.47 378.24,-336.98 381.67,-336.59 385.16,-336.3 388.68,-336.1 392.22,-336 395.78,-336 399.32,-336.1"/>
<text xml:space="preserve" text-anchor="middle" x="394" y="-367.8" font-family="sans-serif" font-size="14.00">Webhooks</text>
</a>
</g>
</g>
<!-- #/domains/api_integration/subdomains/webhooks/boundedcontexts/webhooks&#45;&gt;#/domains/commerce/subdomains/ordering/boundedcontexts/ordering -->
<g id="edge3" class="edge">
<title>#/domains/api_integration/subdomains/webhooks/boundedcontexts/webhooks&#45;&gt;#/domains/commerce/subdomains/ordering/boundedcontexts/ordering</title>
<path fill="none" stroke="black" d="M362.09,-339.92C337.29,-315.76 302.85,-282.21 276.87,-256.91"/>
<polygon fill="black" stroke="black" points="279.44,-254.53 269.84,-250.06 274.56,-259.55 279.44,-254.53"/>
<g id="a_edge3&#45;headlabel"><a xlink:title="published&#45;language">
<text xml:space="preserve" text-anchor="middle" x="268.75" y="-246" font-family="sans-serif" font-size="10.00">PL</text>
</a>
</g>
<g id="a_edge3&#45;taillabel"><a xlink:title="conformist">
<text xml:space="preserve" text-anchor="middle" x="362.09" y="-336.92" font-family="sans-serif" font-size="10.00">C</text>
</a>
</g>
</g>
</g>
</svg>
