<?xml version="1.0" encoding="UTF-8" standalone="no"?>
<?xml-stylesheet href="data:text/css,.graph%20text%20%7B%0A%09font-family%3A%20sans-serif%3B%0A%09stroke%3A%20white%3B%0A%09paint-order%3A%20stroke%3B%0A%09stroke-width%3A%203%3B%0A%09stroke-linecap%3A%20square%3B%0A%7D%0A%0A.namespace%20polygon%20%7B%0A%09fill-opacity%3A%200.2%3B%0A%09stroke%3A%20none%3B%0A%7D%0A" type="text/css"?>
<!DOCTYPE svg PUBLIC "-//W3C//DTD SVG 1.1//EN"
 "http://www.w3.org/Graphics/SVG/1.1/DTD/svg11.dtd">
<!-- Generated by graphviz version 13.1.2 (0)
 -->
<!-- Pages: 1 -->
<svg width="192pt" height="616pt"
 viewBox="0.00 0.00 192.00 616.00" xmlns="http://www.w3.org/2000/svg" xmlns:xlink="http://www.w3.org/1999/xlink">
<g id="graph0" class="graph" transform="scale(1 1) rotate(0) translate(4 612)">
<polygon fill="white" stroke="none" points="-4,4 -4,-612 188,-612 188,4 -4,4"/>
<g id="clust1" class="cluster namespace">
<title>e_shop</title>
<polygon fill="lightgrey" stroke="lightgrey" points="8,-8 8,-600 176,-600 176,-8 8,-8"/>
<text xml:space="preserve" text-anchor="middle" x="92" y="-587" font-family="sans-serif" font-size="10.00">eShop</text>
</g>
<g id="clust2" class="cluster namespace">
<title>#/domains/integration</title>
<polygon fill="lightgrey" stroke="lightgrey" points="19,-320 19,-572 165,-572 165,-320 19,-320"/>
<text xml:space="preserve" text-anchor="middle" x="92" y="-559" font-family="sans-serif" font-size="10.00">Integration</text>
</g>
<g id="clust3" class="cluster namespace">
<title>#/domains/integration/subdomains/webhooks</title>
<polygon fill="lightgrey" stroke="lightgrey" points="27,-328 27,-544 157,-544 157,-328 27,-328"/>
<text xml:space="preserve" text-anchor="middle" x="92" y="-531" font-family="sans-serif" font-size="10.00">Webhooks</text>
</g>
<g id="clust4" class="cluster namespace">
<title>#/domains/commerce</title>
<polygon fill="lightgrey" stroke="lightgrey" points="19,-168 19,-312 165,-312 165,-168 19,-168"/>
<text xml:space="preserve" text-anchor="middle" x="92" y="-299" font-family="sans-serif" font-size="10.00">Commerce</text>
</g>
<g id="clust5" class="cluster namespace">
<title>#/domains/commerce/subdomains/ordering</title>
<polygon fill="lightgrey" stroke="lightgrey" points="27,-176 27,-284 157,-284 157,-176 27,-176"/>
<text xml:space="preserve" text-anchor="middle" x="92" y="-271" font-family="sans-serif" font-size="10.00">Ordering</text>
</g>
<g id="clust6" class="cluster namespace">
<title>#/domains/payment_processing</title>
<polygon fill="lightgrey" stroke="lightgrey" points="16,-16 16,-160 168,-160 168,-16 16,-16"/>
<text xml:space="preserve" text-anchor="middle" x="92" y="-147" font-family="sans-serif" font-size="10.00">Payment Processing</text>
</g>
<g id="clust7" class="cluster namespace">
<title>#/domains/payment_processing/subdomains/payment_processors</title>
<polygon fill="lightgrey" stroke="lightgrey" points="24,-24 24,-132 160,-132 160,-24 24,-24"/>
<text xml:space="preserve" text-anchor="middle" x="92" y="-119" font-family="sans-serif" font-size="10.00">Payment Processors</text>
</g>
<!-- #/domains/integration/subdomains/webhooks/boundedcontexts/webhook_client -->
<g id="node1" class="node">
<title>#/domains/integration/subdomains/webhooks/boundedcontexts/webhook_client</title>
<g id="a_node1"><a xlink:title="Sample receiver app for incoming webhook deliveries.">
<polygon fill="white" stroke="black" points="97.32,-444.1 100.84,-444.3 104.33,-444.59 107.76,-444.98 111.13,-445.47 114.42,-446.05 117.63,-446.73 120.72,-447.5 123.71,-448.35 126.56,-449.29 129.28,-450.32 131.85,-451.43 134.27,-452.62 136.53,-453.88 138.62,-455.21 140.53,-456.61 142.26,-458.08 143.81,-459.6 145.17,-461.18 146.35,-462.82 147.34,-464.5 148.14,-466.22 148.75,-467.98 149.18,-469.77 149.42,-471.59 149.49,-473.44 149.38,-475.3 149.1,-477.17 148.66,-479.06 148.06,-480.94 147.31,-482.83 146.41,-484.7 145.38,-486.56 144.22,-488.41 142.94,-490.23 141.54,-492.02 140.03,-493.78 138.43,-495.5 136.74,-497.18 134.96,-498.82 133.11,-500.4 131.19,-501.92 129.21,-503.39 127.17,-504.79 125.09,-506.12 122.96,-507.38 120.79,-508.57 118.58,-509.68 116.35,-510.71 114.1,-511.65 111.82,-512.5 109.52,-513.27 107.21,-513.95 104.89,-514.53 102.56,-515.02 100.22,-515.41 97.88,-515.7 95.53,-515.9 93.18,-516 90.82,-516 88.47,-515.9 86.12,-515.7 83.78,-515.41 81.44,-515.02 79.11,-514.53 76.79,-513.95 74.48,-513.27 72.18,-512.5 69.9,-511.65 67.65,-510.71 65.42,-509.68 63.21,-508.57 61.04,-507.38 58.91,-506.12 56.83,-504.79 54.79,-503.39 52.81,-501.92 50.89,-500.4 49.04,-498.82 47.26,-497.18 45.57,-495.5 43.97,-493.78 42.46,-492.02 41.06,-490.23 39.78,-488.41 38.62,-486.56 37.59,-484.7 36.69,-482.83 35.94,-480.94 35.34,-479.06 34.9,-477.17 34.62,-475.3 34.51,-473.44 34.58,-471.59 34.82,-469.77 35.25,-467.98 35.86,-466.22 36.66,-464.5 37.65,-462.82 38.83,-461.18 40.19,-459.6 41.74,-458.08 43.47,-456.61 45.38,-455.21 47.47,-453.88 49.73,-452.62 52.15,-451.43 54.72,-450.32 57.44,-449.29 60.29,-448.35 63.28,-447.5 66.37,-446.73 69.58,-446.05 72.87,-445.47 76.24,-444.98 79.67,-444.59 83.16,-444.3 86.68,-444.1 90.22,-444 93.78,-444 97.32,-444.1"/>
<text xml:space="preserve" text-anchor="middle" x="92" y="-475.8" font-family="sans-serif" font-size="14.00">WebhookClient</text>
</a>
</g>
</g>
<!-- #/domains/integration/subdomains/webhooks/boundedcontexts/webhooks.api -->
<g id="node2" class="node">
<title>#/domains/integration/subdomains/webhooks/boundedcontexts/webhooks.api</title>
<g id="a_node2"><a xlink:title="Register webhooks and deliver order events to subscribers.">
<polygon fill="white" stroke="black" points="97.32,-336.1 100.84,-336.3 104.33,-336.59 107.76,-336.98 111.13,-337.47 114.42,-338.05 117.63,-338.73 120.72,-339.5 123.71,-340.35 126.56,-341.29 129.28,-342.32 131.85,-343.43 134.27,-344.62 136.53,-345.88 138.62,-347.21 140.53,-348.61 142.26,-350.08 143.81,-351.6 145.17,-353.18 146.35,-354.82 147.34,-356.5 148.14,-358.22 148.75,-359.98 149.18,-361.77 149.42,-363.59 149.49,-365.44 149.38,-367.3 149.1,-369.17 148.66,-371.06 148.06,-372.94 147.31,-374.83 146.41,-376.7 145.38,-378.56 144.22,-380.41 142.94,-382.23 141.54,-384.02 140.03,-385.78 138.43,-387.5 136.74,-389.18 134.96,-390.82 133.11,-392.4 131.19,-393.92 129.21,-395.39 127.17,-396.79 125.09,-398.12 122.96,-399.38 120.79,-400.57 118.58,-401.68 116.35,-402.71 114.1,-403.65 111.82,-404.5 109.52,-405.27 107.21,-405.95 104.89,-406.53 102.56,-407.02 100.22,-407.41 97.88,-407.7 95.53,-407.9 93.18,-408 90.82,-408 88.47,-407.9 86.12,-407.7 83.78,-407.41 81.44,-407.02 79.11,-406.53 76.79,-405.95 74.48,-405.27 72.18,-404.5 69.9,-403.65 67.65,-402.71 65.42,-401.68 63.21,-400.57 61.04,-399.38 58.91,-398.12 56.83,-396.79 54.79,-395.39 52.81,-393.92 50.89,-392.4 49.04,-390.82 47.26,-389.18 45.57,-387.5 43.97,-385.78 42.46,-384.02 41.06,-382.23 39.78,-380.41 38.62,-378.56 37.59,-376.7 36.69,-374.83 35.94,-372.94 35.34,-371.06 34.9,-369.17 34.62,-367.3 34.51,-365.44 34.58,-363.59 34.82,-361.77 35.25,-359.98 35.86,-358.22 36.66,-356.5 37.65,-354.82 38.83,-353.18 40.19,-351.6 41.74,-350.08 43.47,-348.61 45.38,-347.21 47.47,-345.88 49.73,-344.62 52.15,-343.43 54.72,-342.32 57.44,-341.29 60.29,-340.35 63.28,-339.5 66.37,-338.73 69.58,-338.05 72.87,-337.47 76.24,-336.98 79.67,-336.59 83.16,-336.3 86.68,-336.1 90.22,-336 93.78,-336 97.32,-336.1"/>
<text xml:space="preserve" text-anchor="middle" x="92" y="-367.8" font-family="sans-serif" font-size="14.00">Webhooks.API</text>
</a>
</g>
</g>
<!-- #/domains/integration/subdomains/webhooks/boundedcontexts/webhook_client&#45;&gt;#/domains/integration/subdomains/webhooks/boundedcontexts/webhooks.api -->
<g id="edge2" class="edge">
<title>#/domains/integration/subdomains/webhooks/boundedcontexts/webhook_client&#45;&gt;#/domains/integration/subdomains/webhooks/boundedcontexts/webhooks.api</title>
<path fill="none" stroke="black" d="M79.24,-444.29C78.54,-435.98 78.34,-426.98 78.63,-418.27"/>
<polygon fill="black" stroke="black" points="82.11,-418.76 79.21,-408.57 75.12,-418.35 82.11,-418.76"/>
<g id="a_edge2&#45;headlabel"><a xlink:title="open&#45;host&#45;service">
<text xml:space="preserve" text-anchor="middle" x="79.3" y="-404.06" font-family="sans-serif" font-size="10.00">OHS</text>
</a>
</g>
<g id="a_edge2&#45;taillabel"><a xlink:title="customer&#45;supplier">
<text xml:space="preserve" text-anchor="middle" x="79.24" y="-441.29" font-family="sans-serif" font-size="10.00">C/s</text>
</a>
</g>
</g>
<!-- #/domains/integration/subdomains/webhooks/boundedcontexts/webhooks.api&#45;&gt;#/domains/integration/subdomains/webhooks/boundedcontexts/webhook_client -->
<g id="edge1" class="edge">
<title>#/domains/integration/subdomains/webhooks/boundedcontexts/webhooks.api&#45;&gt;#/domains/integration/subdomains/webhooks/boundedcontexts/webhook_client</title>
<path fill="none" stroke="black" d="M104.7,-407.06C105.43,-415.34 105.66,-424.33 105.39,-433.05"/>
<polygon fill="black" stroke="black" points="101.91,-432.6 104.84,-442.78 108.9,-432.99 101.91,-432.6"/>
<g id="a_edge1&#45;headlabel"><a xlink:title="open&#45;host&#45;service">
<text xml:space="preserve" text-anchor="middle" x="104.76" y="-441.29" font-family="sans-serif" font-size="10.00">OHS</text>
</a>
</g>
<g id="a_edge1&#45;taillabel"><a xlink:title="customer&#45;supplier">
<text xml:space="preserve" text-anchor="middle" x="104.7" y="-404.06" font-family="sans-serif" font-size="10.00">C/s</text>
</a>
</g>
</g>
<!-- #/domains/commerce/subdomains/ordering/boundedcontexts/ordering.api -->
<g id="node3" class="node">
<title>#/domains/commerce/subdomains/ordering/boundedcontexts/ordering.api</title>
<g id="a_node3"><a xlink:title="Order lifecycle, status and events.">
<polygon fill="white" stroke="black" points="97.32,-184.1 100.84,-184.3 104.33,-184.59 107.76,-184.98 111.13,-185.47 114.42,-186.05 117.63,-186.73 120.72,-187.5 123.71,-188.35 126.56,-189.29 129.28,-190.32 131.85,-191.43 134.27,-192.62 136.53,-193.88 138.62,-195.21 140.53,-196.61 142.26,-198.08 143.81,-199.6 145.17,-201.18 146.35,-202.82 147.34,-204.5 148.14,-206.22 148.75,-207.98 149.18,-209.77 149.42,-211.59 149.49,-213.44 149.38,-215.3 149.1,-217.17 148.66,-219.06 148.06,-220.94 147.31,-222.83 146.41,-224.7 145.38,-226.56 144.22,-228.41 142.94,-230.23 141.54,-232.02 140.03,-233.78 138.43,-235.5 136.74,-237.18 134.96,-238.82 133.11,-240.4 131.19,-241.92 129.21,-243.39 127.17,-244.79 125.09,-246.12 122.96,-247.38 120.79,-248.57 118.58,-249.68 116.35,-250.71 114.1,-251.65 111.82,-252.5 109.52,-253.27 107.21,-253.95 104.89,-254.53 102.56,-255.02 100.22,-255.41 97.88,-255.7 95.53,-255.9 93.18,-256 90.82,-256 88.47,-255.9 86.12,-255.7 83.78,-255.41 81.44,-255.02 79.11,-254.53 76.79,-253.95 74.48,-253.27 72.18,-252.5 69.9,-251.65 67.65,-250.71 65.42,-249.68 63.21,-248.57 61.04,-247.38 58.91,-246.12 56.83,-244.79 54.79,-243.39 52.81,-241.92 50.89,-240.4 49.04,-238.82 47.26,-237.18 45.57,-235.5 43.97,-233.78 42.46,-232.02 41.06,-230.23 39.78,-228.41 38.62,-226.56 37.59,-224.7 36.69,-222.83 35.94,-220.94 35.34,-219.06 34.9,-217.17 34.62,-215.3 34.51,-213.44 34.58,-211.59 34.82,-209.77 35.25,-207.98 35.86,-206.22 36.66,-204.5 37.65,-202.82 38.83,-201.18 40.19,-199.6 41.74,-198.08 43.47,-196.61 45.38,-195.21 47.47,-193.88 49.73,-192.62 52.15,-191.43 54.72,-190.32 57.44,-189.29 60.29,-188.35 63.28,-187.5 66.37,-186.73 69.58,-186.05 72.87,-185.47 76.24,-184.98 79.67,-184.59 83.16,-184.3 86.68,-184.1 90.22,-184 93.78,-184 97.32,-184.1"/>
<text xml:space="preserve" text-anchor="middle" x="92" y="-215.8" font-family="sans-serif" font-size="14.00">Ordering.API</text>
</a>
</g>
</g>
<!-- #/domains/integration/subdomains/webhooks/boundedcontexts/webhooks.api&#45;&gt;#/domains/commerce/subdomains/ordering/boundedcontexts/ordering.api -->
<g id="edge3" class="edge">
<title>#/domains/integration/subdomains/webhooks/boundedcontexts/webhooks.api&#45;&gt;#/domains/commerce/subdomains/ordering/boundedcontexts/ordering.api</title>
<path fill="none" stroke="black" d="M92,-336.21C92,-315.65 92,-289.36 92,-267.09"/>
<polygon fill="black" stroke="black" points="95.5,-267.37 92,-257.37 88.5,-267.37 95.5,-267.37"/>
<g id="a_edge3&#45;headlabel"><a xlink:title="published&#45;language">
<text xml:space="preserve" text-anchor="middle" x="92" y="-252.86" font-family="sans-serif" font-size="10.00">PL</text>
</a>
</g>
<g id="a_edge3&#45;taillabel"><a xlink:title="conformist">
<text xml:space="preserve" text-anchor="middle" x="92" y="-333.21" font-family="sans-serif" font-size="10.00">C</text>
</a>
</g>
</g>
<!-- #/domains/payment_processing/subdomains/payment_processors/boundedcontexts/payment_processor -->
<g id="node4" class="node">
<title>#/domains/payment_processing/subdomains/payment_processors/boundedcontexts/payment_processor</title>
<g id="a_node4"><a xlink:title="Simulated external payment processor.">
<polygon fill="white" stroke="black" points="97.32,-32.1 100.84,-32.3 104.33,-32.59 107.76,-32.98 111.13,-33.47 114.42,-34.05 117.63,-34.73 120.72,-35.5 123.71,-36.35 126.56,-37.29 129.28,-38.32 131.85,-39.43 134.27,-40.62 136.53,-41.88 138.62,-43.21 140.53,-44.61 142.26,-46.08 143.81,-47.6 145.17,-49.18 146.35,-50.82 147.34,-52.5 148.14,-54.22 148.75,-55.98 149.18,-57.77 149.42,-59.59 149.49,-61.44 149.38,-63.3 149.1,-65.17 148.66,-67.06 148.06,-68.94 147.31,-70.83 146.41,-72.7 145.38,-74.56 144.22,-76.41 142.94,-78.23 141.54,-80.02 140.03,-81.78 138.43,-83.5 136.74,-85.18 134.96,-86.82 133.11,-88.4 131.19,-89.92 129.21,-91.39 127.17,-92.79 125.09,-94.12 122.96,-95.38 120.79,-96.57 118.58,-97.68 116.35,-98.71 114.1,-99.65 111.82,-100.5 109.52,-101.27 107.21,-101.95 104.89,-102.53 102.56,-103.02 100.22,-103.41 97.88,-103.7 95.53,-103.9 93.18,-104 90.82,-104 88.47,-103.9 86.12,-103.7 83.78,-103.41 81.44,-103.02 79.11,-102.53 76.79,-101.95 74.48,-101.27 72.18,-100.5 69.9,-99.65 67.65,-98.71 65.42,-97.68 63.21,-96.57 61.04,-95.38 58.91,-94.12 56.83,-92.79 54.79,-91.39 52.81,-89.92 50.89,-88.4 49.04,-86.82 47.26,-85.18 45.57,-83.5 43.97,-81.78 42.46,-80.02 41.06,-78.23 39.78,-76.41 38.62,-74.56 37.59,-72.7 36.69,-70.83 35.94,-68.94 35.34,-67.06 34.9,-65.17 34.62,-63.3 34.51,-61.44 34.58,-59.59 34.82,-57.77 35.25,-55.98 35.86,-54.22 36.66,-52.5 37.65,-50.82 38.83,-49.18 40.19,-47.6 41.74,-46.08 43.47,-44.61 45.38,-43.21 47.47,-41.88 49.73,-40.62 52.15,-39.43 54.72,-38.32 57.44,-37.29 60.29,-36.35 63.28,-35.5 66.37,-34.73 69.58,-34.05 72.87,-33.47 76.24,-32.98 79.67,-32.59 83.16,-32.3 86.68,-32.1 90.22,-32 93.78,-32 97.32,-32.1"/>
<text xml:space="preserve" text-anchor="middle" x="92" y="-63.8" font-family="sans-serif" font-size="14.00">PaymentProcessor</text>
</a>
</g>
</g>
<!-- #/domains/commerce/subdomains/ordering/boundedcontexts/ordering.api&#45;&gt;#/domains/payment_processing/subdomains/payment_processors/boundedcontexts/payment_processor -->
<g id="edge4" class="edge">
<title>#/domains/commerce/subdomains/ordering/boundedcontexts/ordering.api&#45;&gt;#/domains/payment_processing/subdomains/payment_processors/boundedcontexts/payment_processor</title>
<path fill="none" stroke="black" d="M80.4,-184.21C78.22,-163.43 77.92,-136.79 79.48,-114.37"/>
<polygon fill="black" stroke="black" points="82.95,-114.86 80.34,-104.59 75.98,-114.25 82.95,-114.86"/>
<g id="a_edge4&#45;headlabel"><a xlink:title="open&#45;host&#45;service">
<text xml:space="preserve" text-anchor="middle" x="80.47" y="-100.08" font-family="sans-serif" font-size="10.00">OHS</text>
</a>
</g>
<g id="a_edge4&#45;taillabel"><a xlink:title="customer&#45;supplier">
<text xml:space="preserve" text-anchor="middle" x="80.4" y="-181.21" font-family="sans-serif" font-size="10.00">C/s</text>
</a>
</g>
</g>
<!-- #/domains/commerce/subdomains/ordering/boundedcontexts/ordering.api&#45;&gt;#/domains/payment_processing/subdomains/payment_processors/boundedcontexts/payment_processor -->
<g id="edge5" class="edge">
<title>#/domains/commerce/subdomains/ordering/boundedcontexts/ordering.api&#45;&gt;#/domains/payment_processing/subdomains/payment_processors/boundedcontexts/payment_processor</title>
<path fill="none" stroke="black" d="M103.6,-184.21C105.78,-163.43 106.08,-136.79 104.52,-114.37"/>
<polygon fill="black" stroke="black" points="108.02,-114.25 103.66,-104.59 101.05,-114.86 108.02,-114.25"/>
<g id="a_edge5&#45;headlabel"><a xlink:title="published&#45;language">
<text xml:space="preserve" text-anchor="middle" x="103.53" y="-100.08" font-family="sans-serif" font-size="10.00">PL</text>
</a>
</g>
<g id="a_edge5&#45;taillabel"><a xlink:title="conformist">
<text xml:space="preserve" text-anchor="middle" x="103.6" y="-181.21" font-family="sans-serif" font-size="10.00">C</text>
</a>
</g>
</g>
</g>
</svg>
