<?xml version="1.0" encoding="UTF-8" standalone="no"?>
<?xml-stylesheet href="data:text/css,.graph%20text%20%7B%0A%09font-family%3A%20sans-serif%3B%0A%09stroke%3A%20white%3B%0A%09paint-order%3A%20stroke%3B%0A%09stroke-width%3A%203%3B%0A%09stroke-linecap%3A%20square%3B%0A%7D%0A%0A.namespace%20polygon%20%7B%0A%09fill-opacity%3A%200.2%3B%0A%09stroke%3A%20none%3B%0A%7D%0A" type="text/css"?>
<!DOCTYPE svg PUBLIC "-//W3C//DTD SVG 1.1//EN"
 "http://www.w3.org/Graphics/SVG/1.1/DTD/svg11.dtd">
<!-- Generated by graphviz version 13.1.2 (0)
 -->
<!-- Pages: 1 -->
<svg width="647pt" height="508pt"
 viewBox="0.00 0.00 647.00 508.00" xmlns="http://www.w3.org/2000/svg" xmlns:xlink="http://www.w3.org/1999/xlink">
<g id="graph0" class="graph" transform="scale(1 1) rotate(0) translate(4 504)">
<polygon fill="white" stroke="none" points="-4,4 -4,-504 643,-504 643,4 -4,4"/>
<g id="clust1" class="cluster namespace">
<title>e_shop</title>
<polygon fill="lightgrey" stroke="lightgrey" points="8,-8 8,-492 631,-492 631,-8 8,-8"/>
<text xml:space="preserve" text-anchor="middle" x="319.5" y="-479" font-family="sans-serif" font-size="10.00">eShop</text>
</g>
<g id="clust2" class="cluster namespace">
<title>#/domains/commerce</title>
<polygon fill="lightgrey" stroke="lightgrey" points="16,-168 16,-312 464,-312 464,-168 16,-168"/>
<text xml:space="preserve" text-anchor="middle" x="240" y="-299" font-family="sans-serif" font-size="10.00">Commerce</text>
</g>
<g id="clust3" class="cluster namespace">
<title>#/domains/commerce/subdomains/catalog</title>
<polygon fill="lightgrey" stroke="lightgrey" points="175,-176 175,-284 305,-284 305,-176 175,-176"/>
<text xml:space="preserve" text-anchor="middle" x="240" y="-271" font-family="sans-serif" font-size="10.00">Catalog</text>
</g>
<g id="clust4" class="cluster namespace">
<title>#/domains/commerce/subdomains/basket</title>
<polygon fill="lightgrey" stroke="lightgrey" points="24,-176 24,-284 154,-284 154,-176 24,-176"/>
<text xml:space="preserve" text-anchor="middle" x="89" y="-271" font-family="sans-serif" font-size="10.00">Basket</text>
</g>
<g id="clust5" class="cluster namespace">
<title>#/domains/commerce/subdomains/ordering</title>
<polygon fill="lightgrey" stroke="lightgrey" points="326,-176 326,-284 456,-284 456,-176 326,-176"/>
<text xml:space="preserve" text-anchor="middle" x="391" y="-271" font-family="sans-serif" font-size="10.00">Ordering</text>
</g>
<g id="clust6" class="cluster namespace">
<title>#/domains/edge_&amp;_experience</title>
<polygon fill="lightgrey" stroke="lightgrey" points="16,-320 16,-464 313,-464 313,-320 16,-320"/>
<text xml:space="preserve" text-anchor="middle" x="164.5" y="-451" font-family="sans-serif" font-size="10.00">Edge &amp; Experience</text>
</g>
<g id="clust7" class="cluster namespace">
<title>#/domains/edge_&amp;_experience/subdomains/web</title>
<polygon fill="lightgrey" stroke="lightgrey" points="24,-328 24,-436 154,-436 154,-328 24,-328"/>
<text xml:space="preserve" text-anchor="middle" x="89" y="-423" font-family="sans-serif" font-size="10.00">Web</text>
</g>
<g id="clust8" class="cluster namespace">
<title>#/domains/edge_&amp;_experience/subdomains/mobile</title>
<polygon fill="lightgrey" stroke="lightgrey" points="175,-328 175,-436 305,-436 305,-328 175,-328"/>
<text xml:space="preserve" text-anchor="middle" x="240" y="-423" font-family="sans-serif" font-size="10.00">Mobile</text>
</g>
<g id="clust9" class="cluster namespace">
<title>#/domains/operations</title>
<polygon fill="lightgrey" stroke="lightgrey" points="321,-320 321,-464 469,-464 469,-320 321,-320"/>
<text xml:space="preserve" text-anchor="middle" x="395" y="-451" font-family="sans-serif" font-size="10.00">Operations</text>
</g>
<g id="clust10" class="cluster namespace">
<title>#/domains/operations/subdomains/backoffice</title>
<polygon fill="lightgrey" stroke="lightgrey" points="329,-328 329,-436 461,-436 461,-328 329,-328"/>
<text xml:space="preserve" text-anchor="middle" x="395" y="-423" font-family="sans-serif" font-size="10.00">Backoffice</text>
</g>
<g id="clust11" class="cluster namespace">
<title>#/domains/api_integration</title>
<polygon fill="lightgrey" stroke="lightgrey" points="477,-320 477,-464 623,-464 623,-320 477,-320"/>
<text xml:space="preserve" text-anchor="middle" x="550" y="-451" font-family="sans-serif" font-size="10.00">API Integration</text>
</g>
<g id="clust12" class="cluster namespace">
<title>#/domains/api_integration/subdomains/webhooks</title>
<polygon fill="lightgrey" stroke="lightgrey" points="485,-328 485,-436 615,-436 615,-328 485,-328"/>
<text xml:space="preserve" text-anchor="middle" x="550" y="-423" font-family="sans-serif" font-size="10.00">Webhooks</text>
</g>
<g id="clust13" class="cluster namespace">
<title>#/domains/payment_processing</title>
<polygon fill="lightgrey" stroke="lightgrey" points="307,-16 307,-160 475,-160 475,-16 307,-16"/>
<text xml:space="preserve" text-anchor="middle" x="391" y="-147" font-family="sans-serif" font-size="10.00">Payment Processing</text>
</g>
<g id="clust14" class="cluster namespace">
<title>#/domains/payment_processing/subdomains/payment_processors</title>
<polygon fill="lightgrey" stroke="lightgrey" points="315,-24 315,-132 467,-132 467,-24 315,-24"/>
<text xml:space="preserve" text-anchor="middle" x="391" y="-119" font-family="sans-serif" font-size="10.00">Payment Processors</text>
</g>
<!-- #/domains/commerce/subdomains/catalog/boundedcontexts/catalog -->
<g id="node1" class="node">
<title>#/domains/commerce/subdomains/catalog/boundedcontexts/catalog</title>
<g id="a_node1"><a xlink:title="Minimal API for catalog queries and management.">
<polygon fill="white" stroke="black" points="245.32,-184.1 248.84,-184.3 252.33,-184.59 255.76,-184.98 259.13,-185.47 262.42,-186.05 265.63,-186.73 268.72,-187.5 271.71,-188.35 274.56,-189.29 277.28,-190.32 279.85,-191.43 282.27,-192.62 284.53,-193.88 286.62,-195.21 288.53,-196.61 290.26,-198.08 291.81,-199.6 293.17,-201.18 294.35,-202.82 295.34,-204.5 296.14,-206.22 296.75,-207.98 297.18,-209.77 297.42,-211.59 297.49,-213.44 297.38,-215.3 297.1,-217.17 296.66,-219.06 296.06,-220.94 295.31,-222.83 294.41,-224.7 293.38,-226.56 292.22,-228.41 290.94,-230.23 289.54,-232.02 288.03,-233.78 286.43,-235.5 284.74,-237.18 282.96,-238.82 281.11,-240.4 279.19,-241.92 277.21,-243.39 275.17,-244.79 273.09,-246.12 270.96,-247.38 268.79,-248.57 266.58,-249.68 264.35,-250.71 262.1,-251.65 259.82,-252.5 257.52,-253.27 255.21,-253.95 252.89,-254.53 250.56,-255.02 248.22,-255.41 245.88,-255.7 243.53,-255.9 241.18,-256 238.82,-256 236.47,-255.9 234.12,-255.7 231.78,-255.41 229.44,-255.02 227.11,-254.53 224.79,-253.95 222.48,-253.27 220.18,-252.5 217.9,-251.65 215.65,-250.71 213.42,-249.68 211.21,-248.57 209.04,-247.38 206.91,-246.12 204.83,-244.79 202.79,-243.39 200.81,-241.92 198.89,-240.4 197.04,-238.82 195.26,-237.18 193.57,-235.5 191.97,-233.78 190.46,-232.02 189.06,-230.23 187.78,-228.41 186.62,-226.56 185.59,-224.7 184.69,-222.83 183.94,-220.94 183.34,-219.06 182.9,-217.17 182.62,-215.3 182.51,-213.44 182.58,-211.59 182.82,-209.77 183.25,-207.98 183.86,-206.22 184.66,-204.5 185.65,-202.82 186.83,-201.18 188.19,-199.6 189.74,-198.08 191.47,-196.61 193.38,-195.21 195.47,-193.88 197.73,-192.62 200.15,-191.43 202.72,-190.32 205.44,-189.29 208.29,-188.35 211.28,-187.5 214.37,-186.73 217.58,-186.05 220.87,-185.47 224.24,-184.98 227.67,-184.59 231.16,-184.3 234.68,-184.1 238.22,-184 241.78,-184 245.32,-184.1"/>
<text xml:space="preserve" text-anchor="middle" x="240" y="-215.8" font-family="sans-serif" font-size="14.00">Catalog</text>
</a>
</g>
</g>
<!-- #/domains/commerce/subdomains/basket/boundedcontexts/basket -->
<g id="node2" class="node">
<title>#/domains/commerce/subdomains/basket/boundedcontexts/basket</title>
<g id="a_node2"><a xlink:title="Basket service (gRPC/HTTP) to manage user baskets.">
<polygon fill="white" stroke="black" points="94.32,-184.1 97.84,-184.3 101.33,-184.59 104.76,-184.98 108.13,-185.47 111.42,-186.05 114.63,-186.73 117.72,-187.5 120.71,-188.35 123.56,-189.29 126.28,-190.32 128.85,-191.43 131.27,-192.62 133.53,-193.88 135.62,-195.21 137.53,-196.61 139.26,-198.08 140.81,-199.6 142.17,-201.18 143.35,-202.82 144.34,-204.5 145.14,-206.22 145.75,-207.98 146.18,-209.77 146.42,-211.59 146.49,-213.44 146.38,-215.3 146.1,-217.17 145.66,-219.06 145.06,-220.94 144.31,-222.83 143.41,-224.7 142.38,-226.56 141.22,-228.41 139.94,-230.23 138.54,-232.02 137.03,-233.78 135.43,-235.5 133.74,-237.18 131.96,-238.82 130.11,-240.4 128.19,-241.92 126.21,-243.39 124.17,-244.79 122.09,-246.12 119.96,-247.38 117.79,-248.57 115.58,-249.68 113.35,-250.71 111.1,-251.65 108.82,-252.5 106.52,-253.27 104.21,-253.95 101.89,-254.53 99.56,-255.02 97.22,-255.41 94.88,-255.7 92.53,-255.9 90.18,-256 87.82,-256 85.47,-255.9 83.12,-255.7 80.78,-255.41 78.44,-255.02 76.11,-254.53 73.79,-253.95 71.48,-253.27 69.18,-252.5 66.9,-251.65 64.65,-250.71 62.42,-249.68 60.21,-248.57 58.04,-247.38 55.91,-246.12 53.83,-244.79 51.79,-243.39 49.81,-241.92 47.89,-240.4 46.04,-238.82 44.26,-237.18 42.57,-235.5 40.97,-233.78 39.46,-232.02 38.06,-230.23 36.78,-228.41 35.62,-226.56 34.59,-224.7 33.69,-222.83 32.94,-220.94 32.34,-219.06 31.9,-217.17 31.62,-215.3 31.51,-213.44 31.58,-211.59 31.82,-209.77 32.25,-207.98 32.86,-206.22 33.66,-204.5 34.65,-202.82 35.83,-201.18 37.19,-199.6 38.74,-198.08 40.47,-196.61 42.38,-195.21 44.47,-193.88 46.73,-192.62 49.15,-191.43 51.72,-190.32 54.44,-189.29 57.29,-188.35 60.28,-187.5 63.37,-186.73 66.58,-186.05 69.87,-185.47 73.24,-184.98 76.67,-184.59 80.16,-184.3 83.68,-184.1 87.22,-184 90.78,-184 94.32,-184.1"/>
<text xml:space="preserve" text-anchor="middle" x="89" y="-215.8" font-family="sans-serif" font-size="14.00">Basket</text>
</a>
</g>
</g>
<!-- #/domains/commerce/subdomains/ordering/boundedcontexts/ordering -->
<g id="node3" class="node">
<title>#/domains/commerce/subdomains/ordering/boundedcontexts/ordering</title>
<g id="a_node3"><a xlink:title="Order lifecycle, status and events.">
<polygon fill="white" stroke="black" points="396.32,-184.1 399.84,-184.3 403.33,-184.59 406.76,-184.98 410.13,-185.47 413.42,-186.05 416.63,-186.73 419.72,-187.5 422.71,-188.35 425.56,-189.29 428.28,-190.32 430.85,-191.43 433.27,-192.62 435.53,-193.88 437.62,-195.21 439.53,-196.61 441.26,-198.08 442.81,-199.6 444.17,-201.18 445.35,-202.82 446.34,-204.5 447.14,-206.22 447.75,-207.98 448.18,-209.77 448.42,-211.59 448.49,-213.44 448.38,-215.3 448.1,-217.17 447.66,-219.06 447.06,-220.94 446.31,-222.83 445.41,-224.7 444.38,-226.56 443.22,-228.41 441.94,-230.23 440.54,-232.02 439.03,-233.78 437.43,-235.5 435.74,-237.18 433.96,-238.82 432.11,-240.4 430.19,-241.92 428.21,-243.39 426.17,-244.79 424.09,-246.12 421.96,-247.38 419.79,-248.57 417.58,-249.68 415.35,-250.71 413.1,-251.65 410.82,-252.5 408.52,-253.27 406.21,-253.95 403.89,-254.53 401.56,-255.02 399.22,-255.41 396.88,-255.7 394.53,-255.9 392.18,-256 389.82,-256 387.47,-255.9 385.12,-255.7 382.78,-255.41 380.44,-255.02 378.11,-254.53 375.79,-253.95 373.48,-253.27 371.18,-252.5 368.9,-251.65 366.65,-250.71 364.42,-249.68 362.21,-248.57 360.04,-247.38 357.91,-246.12 355.83,-244.79 353.79,-243.39 351.81,-241.92 349.89,-240.4 348.04,-238.82 346.26,-237.18 344.57,-235.5 342.97,-233.78 341.46,-232.02 340.06,-230.23 338.78,-228.41 337.62,-226.56 336.59,-224.7 335.69,-222.83 334.94,-220.94 334.34,-219.06 333.9,-217.17 333.62,-215.3 333.51,-213.44 333.58,-211.59 333.82,-209.77 334.25,-207.98 334.86,-206.22 335.66,-204.5 336.65,-202.82 337.83,-201.18 339.19,-199.6 340.74,-198.08 342.47,-196.61 344.38,-195.21 346.47,-193.88 348.73,-192.62 351.15,-191.43 353.72,-190.32 356.44,-189.29 359.29,-188.35 362.28,-187.5 365.37,-186.73 368.58,-186.05 371.87,-185.47 375.24,-184.98 378.67,-184.59 382.16,-184.3 385.68,-184.1 389.22,-184 392.78,-184 396.32,-184.1"/>
<text xml:space="preserve" text-anchor="middle" x="391" y="-215.8" font-family="sans-serif" font-size="14.00">Ordering</text>
</a>
</g>
</g>
<!-- #/domains/payment_processing/subdomains/payment_processors/boundedcontexts/payment_processor -->
<g id="node8" class="node">
<title>#/domains/payment_processing/subdomains/payment_processors/boundedcontexts/payment_processor</title>
<g id="a_node8"><a xlink:title="Simulated external payment processor.">
<polygon fill="white" stroke="black" points="397.27,-32.1 401.42,-32.3 405.53,-32.59 409.57,-32.98 413.54,-33.47 417.42,-34.05 421.2,-34.73 424.85,-35.5 428.36,-36.35 431.72,-37.29 434.93,-38.32 437.96,-39.43 440.81,-40.62 443.47,-41.88 445.93,-43.21 448.18,-44.61 450.22,-46.08 452.05,-47.6 453.66,-49.18 455.04,-50.82 456.2,-52.5 457.15,-54.22 457.87,-55.98 458.37,-57.77 458.66,-59.59 458.74,-61.44 458.61,-63.3 458.28,-65.17 457.76,-67.06 457.05,-68.94 456.17,-70.83 455.11,-72.7 453.9,-74.56 452.53,-76.41 451.02,-78.23 449.37,-80.02 447.6,-81.78 445.71,-83.5 443.72,-85.18 441.63,-86.82 439.44,-88.4 437.18,-89.92 434.85,-91.39 432.44,-92.79 429.99,-94.12 427.47,-95.38 424.92,-96.57 422.32,-97.68 419.69,-98.71 417.04,-99.65 414.35,-100.5 411.65,-101.27 408.93,-101.95 406.19,-102.53 403.44,-103.02 400.69,-103.41 397.92,-103.7 395.16,-103.9 392.39,-104 389.61,-104 386.84,-103.9 384.08,-103.7 381.31,-103.41 378.56,-103.02 375.81,-102.53 373.07,-101.95 370.35,-101.27 367.65,-100.5 364.96,-99.65 362.31,-98.71 359.68,-97.68 357.08,-96.57 354.53,-95.38 352.01,-94.12 349.56,-92.79 347.15,-91.39 344.82,-89.92 342.56,-88.4 340.37,-86.82 338.28,-85.18 336.29,-83.5 334.4,-81.78 332.63,-80.02 330.98,-78.23 329.47,-76.41 328.1,-74.56 326.89,-72.7 325.83,-70.83 324.95,-68.94 324.24,-67.06 323.72,-65.17 323.39,-63.3 323.26,-61.44 323.34,-59.59 323.63,-57.77 324.13,-55.98 324.85,-54.22 325.8,-52.5 326.96,-50.82 328.34,-49.18 329.95,-47.6 331.78,-46.08 333.82,-44.61 336.07,-43.21 338.53,-41.88 341.19,-40.62 344.04,-39.43 347.07,-38.32 350.28,-37.29 353.64,-36.35 357.15,-35.5 360.8,-34.73 364.58,-34.05 368.46,-33.47 372.43,-32.98 376.47,-32.59 380.58,-32.3 384.73,-32.1 388.91,-32 393.09,-32 397.27,-32.1"/>
<text xml:space="preserve" text-anchor="middle" x="391" y="-63.8" font-family="sans-serif" font-size="14.00">PaymentProcessor</text>
</a>
</g>
</g>
<!-- #/domains/commerce/subdomains/ordering/boundedcontexts/ordering&#45;&gt;#/domains/payment_processing/subdomains/payment_processors/boundedcontexts/payment_processor -->
<g id="edge9" class="edge">
<title>#/domains/commerce/subdomains/ordering/boundedcontexts/ordering&#45;&gt;#/domains/payment_processing/subdomains/payment_processors/boundedcontexts/payment_processor</title>
<path fill="none" stroke="black" d="M379.4,-184.21C377.24,-163.57 376.92,-137.17 378.45,-114.85"/>
<polygon fill="black" stroke="black" points="381.92,-115.37 379.29,-105.11 374.94,-114.77 381.92,-115.37"/>
<g id="a_edge9&#45;headlabel"><a xlink:title="open&#45;host&#45;service">
<text xml:space="preserve" text-anchor="middle" x="379.42" y="-100.6" font-family="sans-serif" font-size="10.00">OHS</text>
</a>
</g>
<g id="a_edge9&#45;taillabel"><a xlink:title="customer&#45;supplier">
<text xml:space="preserve" text-anchor="middle" x="379.4" y="-181.21" font-family="sans-serif" font-size="10.00">C/s</text>
</a>
</g>
</g>
<!-- #/domains/commerce/subdomains/ordering/boundedcontexts/ordering&#45;&gt;#/domains/payment_processing/subdomains/payment_processors/boundedcontexts/payment_processor -->
<g id="edge10" class="edge">
<title>#/domains/commerce/subdomains/ordering/boundedcontexts/ordering&#45;&gt;#/domains/payment_processing/subdomains/payment_processors/boundedcontexts/payment_processor</title>
<path fill="none" stroke="black" d="M402.6,-184.21C404.76,-163.57 405.08,-137.17 403.55,-114.85"/>
<polygon fill="black" stroke="black" points="407.06,-114.77 402.71,-105.11 400.08,-115.37 407.06,-114.77"/>
<g id="a_edge10&#45;headlabel"><a xlink:title="published&#45;language">
<text xml:space="preserve" text-anchor="middle" x="402.58" y="-100.6" font-family="sans-serif" font-size="10.00">PL</text>
</a>
</g>
<g id="a_edge10&#45;taillabel"><a xlink:title="conformist">
<text xml:space="preserve" text-anchor="middle" x="402.6" y="-181.21" font-family="sans-serif" font-size="10.00">C</text>
</a>
</g>
</g>
<!-- #/domains/edge_&amp;_experience/subdomains/web/boundedcontexts/web -->
<g id="node4" class="node">
<title>#/domains/edge_&amp;_experience/subdomains/web/boundedcontexts/web</title>
<g id="a_node4"><a xlink:title="Blazor Server web app for customers.">
<polygon fill="white" stroke="black" points="94.32,-336.1 97.84,-336.3 101.33,-336.59 104.76,-336.98 108.13,-337.47 111.42,-338.05 114.63,-338.73 117.72,-339.5 120.71,-340.35 123.56,-341.29 126.28,-342.32 128.85,-343.43 131.27,-344.62 133.53,-345.88 135.62,-347.21 137.53,-348.61 139.26,-350.08 140.81,-351.6 142.17,-353.18 143.35,-354.82 144.34,-356.5 145.14,-358.22 145.75,-359.98 146.18,-361.77 146.42,-363.59 146.49,-365.44 146.38,-367.3 146.1,-369.17 145.66,-371.06 145.06,-372.94 144.31,-374.83 143.41,-376.7 142.38,-378.56 141.22,-380.41 139.94,-382.23 138.54,-384.02 137.03,-385.78 135.43,-387.5 133.74,-389.18 131.96,-390.82 130.11,-392.4 128.19,-393.92 126.21,-395.39 124.17,-396.79 122.09,-398.12 119.96,-399.38 117.79,-400.57 115.58,-401.68 113.35,-402.71 111.1,-403.65 108.82,-404.5 106.52,-405.27 104.21,-405.95 101.89,-406.53 99.56,-407.02 97.22,-407.41 94.88,-407.7 92.53,-407.9 90.18,-408 87.82,-408 85.47,-407.9 83.12,-407.7 80.78,-407.41 78.44,-407.02 76.11,-406.53 73.79,-405.95 71.48,-405.27 69.18,-404.5 66.9,-403.65 64.65,-402.71 62.42,-401.68 60.21,-400.57 58.04,-399.38 55.91,-398.12 53.83,-396.79 51.79,-395.39 49.81,-393.92 47.89,-392.4 46.04,-390.82 44.26,-389.18 42.57,-387.5 40.97,-385.78 39.46,-384.02 38.06,-382.23 36.78,-380.41 35.62,-378.56 34.59,-376.7 33.69,-374.83 32.94,-372.94 32.34,-371.06 31.9,-369.17 31.62,-367.3 31.51,-365.44 31.58,-363.59 31.82,-361.77 32.25,-359.98 32.86,-358.22 33.66,-356.5 34.65,-354.82 35.83,-353.18 37.19,-351.6 38.74,-350.08 40.47,-348.61 42.38,-347.21 44.47,-345.88 46.73,-344.62 49.15,-343.43 51.72,-342.32 54.44,-341.29 57.29,-340.35 60.28,-339.5 63.37,-338.73 66.58,-338.05 69.87,-337.47 73.24,-336.98 76.67,-336.59 80.16,-336.3 83.68,-336.1 87.22,-336 90.78,-336 94.32,-336.1"/>
<text xml:space="preserve" text-anchor="middle" x="89" y="-367.8" font-family="sans-serif" font-size="14.00">Web</text>
</a>
</g>
</g>
<!-- #/domains/edge_&amp;_experience/subdomains/web/boundedcontexts/web&#45;&gt;#/domains/commerce/subdomains/catalog/boundedcontexts/catalog -->
<g id="edge1" class="edge">
<title>#/domains/edge_&amp;_experience/subdomains/web/boundedcontexts/web&#45;&gt;#/domains/commerce/subdomains/catalog/boundedcontexts/catalog</title>
<path fill="none" stroke="black" d="M127.47,-342.65C139.28,-333.34 152.04,-322.65 163,-312 179.41,-296.06 196,-276.92 209.56,-260.32"/>
<polygon fill="black" stroke="black" points="212.26,-262.55 215.81,-252.57 206.81,-258.16 212.26,-262.55"/>
<g id="a_edge1&#45;headlabel"><a xlink:title="open&#45;host&#45;service">
<text xml:space="preserve" text-anchor="middle" x="216.76" y="-248.39" font-family="sans-serif" font-size="10.00">OHS</text>
</a>
</g>
<g id="a_edge1&#45;taillabel"><a xlink:title="anti&#45;corruption&#45;layer">
<text xml:space="preserve" text-anchor="middle" x="127.47" y="-339.65" font-family="sans-serif" font-size="10.00">ACL</text>
</a>
</g>
</g>
<!-- #/domains/edge_&amp;_experience/subdomains/web/boundedcontexts/web&#45;&gt;#/domains/commerce/subdomains/basket/boundedcontexts/basket -->
<g id="edge4" class="edge">
<title>#/domains/edge_&amp;_experience/subdomains/web/boundedcontexts/web&#45;&gt;#/domains/commerce/subdomains/basket/boundedcontexts/basket</title>
<path fill="none" stroke="black" d="M89,-335.83C89,-315.57 89,-289.85 89,-267.89"/>
<polygon fill="black" stroke="black" points="92.5,-267.98 89,-257.98 85.5,-267.98 92.5,-267.98"/>
<g id="a_edge4&#45;headlabel"><a xlink:title="open&#45;host&#45;service">
<text xml:space="preserve" text-anchor="middle" x="89" y="-253.47" font-family="sans-serif" font-size="10.00">OHS</text>
</a>
</g>
<g id="a_edge4&#45;taillabel"><a xlink:title="anti&#45;corruption&#45;layer">
<text xml:space="preserve" text-anchor="middle" x="89" y="-332.83" font-family="sans-serif" font-size="10.00">ACL</text>
</a>
</g>
</g>
<!-- #/domains/edge_&amp;_experience/subdomains/web/boundedcontexts/web&#45;&gt;#/domains/commerce/subdomains/ordering/boundedcontexts/ordering -->
<g id="edge6" class="edge">
<title>#/domains/edge_&amp;_experience/subdomains/web/boundedcontexts/web&#45;&gt;#/domains/commerce/subdomains/ordering/boundedcontexts/ordering</title>
<path fill="none" stroke="black" d="M124.9,-341.53C137.21,-333.04 151.54,-324.78 166,-320 197.27,-309.65 284.51,-326.66 314,-312 335.62,-301.25 353.53,-281.4 366.61,-262.98"/>
<polygon fill="black" stroke="black" points="369.45,-265.02 372.16,-254.78 363.66,-261.1 369.45,-265.02"/>
<g id="a_edge6&#45;headlabel"><a xlink:title="open&#45;host&#45;service">
<text xml:space="preserve" text-anchor="middle" x="373.01" y="-250.53" font-family="sans-serif" font-size="10.00">OHS</text>
</a>
</g>
<g id="a_edge6&#45;taillabel"><a xlink:title="anti&#45;corruption&#45;layer">
<text xml:space="preserve" text-anchor="middle" x="124.9" y="-338.53" font-family="sans-serif" font-size="10.00">ACL</text>
</a>
</g>
</g>
<!-- #/domains/edge_&amp;_experience/subdomains/mobile/boundedcontexts/mobile_bff -->
<g id="node5" class="node">
<title>#/domains/edge_&amp;_experience/subdomains/mobile/boundedcontexts/mobile_bff</title>
<g id="a_node5"><a xlink:title="BFF that aggregates catalog/basket/ordering.">
<polygon fill="white" stroke="black" points="245.32,-336.1 248.84,-336.3 252.33,-336.59 255.76,-336.98 259.13,-337.47 262.42,-338.05 265.63,-338.73 268.72,-339.5 271.71,-340.35 274.56,-341.29 277.28,-342.32 279.85,-343.43 282.27,-344.62 284.53,-345.88 286.62,-347.21 288.53,-348.61 290.26,-350.08 291.81,-351.6 293.17,-353.18 294.35,-354.82 295.34,-356.5 296.14,-358.22 296.75,-359.98 297.18,-361.77 297.42,-363.59 297.49,-365.44 297.38,-367.3 297.1,-369.17 296.66,-371.06 296.06,-372.94 295.31,-374.83 294.41,-376.7 293.38,-378.56 292.22,-380.41 290.94,-382.23 289.54,-384.02 288.03,-385.78 286.43,-387.5 284.74,-389.18 282.96,-390.82 281.11,-392.4 279.19,-393.92 277.21,-395.39 275.17,-396.79 273.09,-398.12 270.96,-399.38 268.79,-400.57 266.58,-401.68 264.35,-402.71 262.1,-403.65 259.82,-404.5 257.52,-405.27 255.21,-405.95 252.89,-406.53 250.56,-407.02 248.22,-407.41 245.88,-407.7 243.53,-407.9 241.18,-408 238.82,-408 236.47,-407.9 234.12,-407.7 231.78,-407.41 229.44,-407.02 227.11,-406.53 224.79,-405.95 222.48,-405.27 220.18,-404.5 217.9,-403.65 215.65,-402.71 213.42,-401.68 211.21,-400.57 209.04,-399.38 206.91,-398.12 204.83,-396.79 202.79,-395.39 200.81,-393.92 198.89,-392.4 197.04,-390.82 195.26,-389.18 193.57,-387.5 191.97,-385.78 190.46,-384.02 189.06,-382.23 187.78,-380.41 186.62,-378.56 185.59,-376.7 184.69,-374.83 183.94,-372.94 183.34,-371.06 182.9,-369.17 182.62,-367.3 182.51,-365.44 182.58,-363.59 182.82,-361.77 183.25,-359.98 183.86,-358.22 184.66,-356.5 185.65,-354.82 186.83,-353.18 188.19,-351.6 189.74,-350.08 191.47,-348.61 193.38,-347.21 195.47,-345.88 197.73,-344.62 200.15,-343.43 202.72,-342.32 205.44,-341.29 208.29,-340.35 211.28,-339.5 214.37,-338.73 217.58,-338.05 220.87,-337.47 224.24,-336.98 227.67,-336.59 231.16,-336.3 234.68,-336.1 238.22,-336 241.78,-336 245.32,-336.1"/>
<text xml:space="preserve" text-anchor="middle" x="240" y="-367.8" font-family="sans-serif" font-size="14.00">Mobile BFF</text>
</a>
</g>
</g>
<!-- #/domains/edge_&amp;_experience/subdomains/mobile/boundedcontexts/mobile_bff&#45;&gt;#/domains/commerce/subdomains/catalog/boundedcontexts/catalog -->
<g id="edge2" class="edge">
<title>#/domains/edge_&amp;_experience/subdomains/mobile/boundedcontexts/mobile_bff&#45;&gt;#/domains/commerce/subdomains/catalog/boundedcontexts/catalog</title>
<path fill="none" stroke="black" d="M240,-335.83C240,-315.57 240,-289.85 240,-267.89"/>
<polygon fill="black" stroke="black" points="243.5,-267.98 240,-257.98 236.5,-267.98 243.5,-267.98"/>
<g id="a_edge2&#45;headlabel"><a xlink:title="open&#45;host&#45;service">
<text xml:space="preserve" text-anchor="middle" x="240" y="-253.47" font-family="sans-serif" font-size="10.00">OHS</text>
</a>
</g>
<g id="a_edge2&#45;taillabel"><a xlink:title="anti&#45;corruption&#45;layer">
<text xml:space="preserve" text-anchor="middle" x="240" y="-332.83" font-family="sans-serif" font-size="10.00">ACL</text>
</a>
</g>
</g>
<!-- #/domains/edge_&amp;_experience/subdomains/mobile/boundedcontexts/mobile_bff&#45;&gt;#/domains/commerce/subdomains/basket/boundedcontexts/basket -->
<g id="edge5" class="edge">
<title>#/domains/edge_&amp;_experience/subdomains/mobile/boundedcontexts/mobile_bff&#45;&gt;#/domains/commerce/subdomains/basket/boundedcontexts/basket</title>
<path fill="none" stroke="black" d="M201.53,-342.65C189.72,-333.34 176.96,-322.65 166,-312 149.59,-296.06 133,-276.92 119.44,-260.32"/>
<polygon fill="black" stroke="black" points="122.19,-258.16 113.19,-252.57 116.74,-262.55 122.19,-258.16"/>
<g id="a_edge5&#45;headlabel"><a xlink:title="open&#45;host&#45;service">
<text xml:space="preserve" text-anchor="middle" x="112.24" y="-248.39" font-family="sans-serif" font-size="10.00">OHS</text>
</a>
</g>
<g id="a_edge5&#45;taillabel"><a xlink:title="anti&#45;corruption&#45;layer">
<text xml:space="preserve" text-anchor="middle" x="201.53" y="-339.65" font-family="sans-serif" font-size="10.00">ACL</text>
</a>
</g>
</g>
<!-- #/domains/edge_&amp;_experience/subdomains/mobile/boundedcontexts/mobile_bff&#45;&gt;#/domains/commerce/subdomains/ordering/boundedcontexts/ordering -->
<g id="edge7" class="edge">
<title>#/domains/edge_&amp;_experience/subdomains/mobile/boundedcontexts/mobile_bff&#45;&gt;#/domains/commerce/subdomains/ordering/boundedcontexts/ordering</title>
<path fill="none" stroke="black" d="M278.47,-342.65C290.28,-333.34 303.04,-322.65 314,-312 330.41,-296.06 347,-276.92 360.56,-260.32"/>
<polygon fill="black" stroke="black" points="363.26,-262.55 366.81,-252.57 357.81,-258.16 363.26,-262.55"/>
<g id="a_edge7&#45;headlabel"><a xlink:title="open&#45;host&#45;service">
<text xml:space="preserve" text-anchor="middle" x="367.76" y="-248.39" font-family="sans-serif" font-size="10.00">OHS</text>
</a>
</g>
<g id="a_edge7&#45;taillabel"><a xlink:title="anti&#45;corruption&#45;layer">
<text xml:space="preserve" text-anchor="middle" x="278.47" y="-339.65" font-family="sans-serif" font-size="10.00">ACL</text>
</a>
</g>
</g>
<!-- #/domains/operations/subdomains/backoffice/boundedcontexts/backoffice_app -->
<g id="node6" class="node">
<title>#/domains/operations/subdomains/backoffice/boundedcontexts/backoffice_app</title>
<g id="a_node6"><a xlink:title="Admin/demo app for price updates.">
<polygon fill="white" stroke="black" points="400.33,-336.1 403.86,-336.3 407.35,-336.59 410.79,-336.98 414.16,-337.47 417.46,-338.05 420.67,-338.73 423.77,-339.5 426.76,-340.35 429.62,-341.29 432.34,-342.32 434.92,-343.43 437.34,-344.62 439.6,-345.88 441.69,-347.21 443.61,-348.61 445.34,-350.08 446.89,-351.6 448.26,-353.18 449.44,-354.82 450.43,-356.5 451.23,-358.22 451.84,-359.98 452.27,-361.77 452.51,-363.59 452.58,-365.44 452.47,-367.3 452.19,-369.17 451.75,-371.06 451.15,-372.94 450.4,-374.83 449.5,-376.7 448.47,-378.56 447.3,-380.41 446.02,-382.23 444.62,-384.02 443.11,-385.78 441.51,-387.5 439.81,-389.18 438.03,-390.82 436.18,-392.4 434.26,-393.92 432.27,-395.39 430.23,-396.79 428.14,-398.12 426,-399.38 423.83,-400.57 421.63,-401.68 419.39,-402.71 417.13,-403.65 414.85,-404.5 412.55,-405.27 410.24,-405.95 407.91,-406.53 405.58,-407.02 403.23,-407.41 400.89,-407.7 398.53,-407.9 396.18,-408 393.82,-408 391.47,-407.9 389.11,-407.7 386.77,-407.41 384.42,-407.02 382.09,-406.53 379.76,-405.95 377.45,-405.27 375.15,-404.5 372.87,-403.65 370.61,-402.71 368.37,-401.68 366.17,-400.57 364,-399.38 361.86,-398.12 359.77,-396.79 357.73,-395.39 355.74,-393.92 353.82,-392.4 351.97,-390.82 350.19,-389.18 348.49,-387.5 346.89,-385.78 345.38,-384.02 343.98,-382.23 342.7,-380.41 341.53,-378.56 340.5,-376.7 339.6,-374.83 338.85,-372.94 338.25,-371.06 337.81,-369.17 337.53,-367.3 337.42,-365.44 337.49,-363.59 337.73,-361.77 338.16,-359.98 338.77,-358.22 339.57,-356.5 340.56,-354.82 341.74,-353.18 343.11,-351.6 344.66,-350.08 346.39,-348.61 348.31,-347.21 350.4,-345.88 352.66,-344.62 355.08,-343.43 357.66,-342.32 360.38,-341.29 363.24,-340.35 366.23,-339.5 369.33,-338.73 372.54,-338.05 375.84,-337.47 379.21,-336.98 382.65,-336.59 386.14,-336.3 389.67,-336.1 393.22,-336 396.78,-336 400.33,-336.1"/>
<text xml:space="preserve" text-anchor="middle" x="395" y="-367.8" font-family="sans-serif" font-size="14.00">BackofficeApp</text>
</a>
</g>
</g>
<!-- #/domains/operations/subdomains/backoffice/boundedcontexts/backoffice_app&#45;&gt;#/domains/commerce/subdomains/catalog/boundedcontexts/catalog -->
<g id="edge3" class="edge">
<title>#/domains/operations/subdomains/backoffice/boundedcontexts/backoffice_app&#45;&gt;#/domains/commerce/subdomains/catalog/boundedcontexts/catalog</title>
<path fill="none" stroke="black" d="M354.75,-343.21C342.19,-333.84 328.59,-322.97 317,-312 300.39,-296.27 283.77,-277.16 270.24,-260.52"/>
<polygon fill="black" stroke="black" points="273,-258.36 264.01,-252.75 267.54,-262.74 273,-258.36"/>
<g id="a_edge3&#45;headlabel"><a xlink:title="open&#45;host&#45;service">
<text xml:space="preserve" text-anchor="middle" x="263.07" y="-248.57" font-family="sans-serif" font-size="10.00">OHS</text>
</a>
</g>
<g id="a_edge3&#45;taillabel"><a xlink:title="customer&#45;supplier">
<text xml:space="preserve" text-anchor="middle" x="354.75" y="-340.21" font-family="sans-serif" font-size="10.00">C/s</text>
</a>
</g>
</g>
<!-- #/domains/api_integration/subdomains/webhooks/boundedcontexts/webhooks -->
<g id="node7" class="node">
<title>#/domains/api_integration/subdomains/webhooks/boundedcontexts/webhooks</title>
<g id="a_node7"><a xlink:title="Register webhooks and deliver order events to subscribers.">
<polygon fill="white" stroke="black" points="555.32,-336.1 558.84,-336.3 562.33,-336.59 565.76,-336.98 569.13,-337.47 572.42,-338.05 575.63,-338.73 578.72,-339.5 581.71,-340.35 584.56,-341.29 587.28,-342.32 589.85,-343.43 592.27,-344.62 594.53,-345.88 596.62,-347.21 598.53,-348.61 600.26,-350.08 601.81,-351.6 603.17,-353.18 604.35,-354.82 605.34,-356.5 606.14,-358.22 606.75,-359.98 607.18,-361.77 607.42,-363.59 607.49,-365.44 607.38,-367.3 607.1,-369.17 606.66,-371.06 606.06,-372.94 605.31,-374.83 604.41,-376.7 603.38,-378.56 602.22,-380.41 600.94,-382.23 599.54,-384.02 598.03,-385.78 596.43,-387.5 594.74,-389.18 592.96,-390.82 591.11,-392.4 589.19,-393.92 587.21,-395.39 585.17,-396.79 583.09,-398.12 580.96,-399.38 578.79,-400.57 576.58,-401.68 574.35,-402.71 572.1,-403.65 569.82,-404.5 567.52,-405.27 565.21,-405.95 562.89,-406.53 560.56,-407.02 558.22,-407.41 555.88,-407.7 553.53,-407.9 551.18,-408 548.82,-408 546.47,-407.9 544.12,-407.7 541.78,-407.41 539.44,-407.02 537.11,-406.53 534.79,-405.95 532.48,-405.27 530.18,-404.5 527.9,-403.65 525.65,-402.71 523.42,-401.68 521.21,-400.57 519.04,-399.38 516.91,-398.12 514.83,-396.79 512.79,-395.39 510.81,-393.92 508.89,-392.4 507.04,-390.82 505.26,-389.18 503.57,-387.5 501.97,-385.78 500.46,-384.02 499.06,-382.23 497.78,-380.41 496.62,-378.56 495.59,-376.7 494.69,-374.83 493.94,-372.94 493.34,-371.06 492.9,-369.17 492.62,-367.3 492.51,-365.44 492.58,-363.59 492.82,-361.77 493.25,-359.98 493.86,-358.22 494.66,-356.5 495.65,-354.82 496.83,-353.18 498.19,-351.6 499.74,-350.08 501.47,-348.61 503.38,-347.21 505.47,-345.88 507.73,-344.62 510.15,-343.43 512.72,-342.32 515.44,-341.29 518.29,-340.35 521.28,-339.5 524.37,-338.73 527.58,-338.05 530.87,-337.47 534.24,-336.98 537.67,-336.59 541.16,-336.3 544.68,-336.1 548.22,-336 551.78,-336 555.32,-336.1"/>
<text xml:space="preserve" text-anchor="middle" x="550" y="-367.8" font-family="sans-serif" font-size="14.00">Webhooks</text>
</a>
</g>
</g>
<!-- #/domains/api_integration/subdomains/webhooks/boundedcontexts/webhooks&#45;&gt;#/domains/commerce/subdomains/ordering/boundedcontexts/ordering -->
<g id="edge8" class="edge">
<title>#/domains/api_integration/subdomains/webhooks/boundedcontexts/webhooks&#45;&gt;#/domains/commerce/subdomains/ordering/boundedcontexts/ordering</title>
<path fill="none" stroke="black" d="M517.44,-340.28C491.59,-315.89 455.41,-281.77 428.38,-256.26"/>
<polygon fill="black" stroke="black" points="431.08,-254 421.4,-249.68 426.28,-259.09 431.08,-254"/>
<g id="a_edge8&#45;headlabel"><a xlink:title="published&#45;language">
<text xml:space="preserve" text-anchor="middle" x="420.3" y="-245.64" font-family="sans-serif" font-size="10.00">PL</text>
</a>
</g>
<g id="a_edge8&#45;taillabel"><a xlink:title="conformist">
<text xml:space="preserve" text-anchor="middle" x="517.44" y="-337.28" font-family="sans-serif" font-size="10.00">C</text>
</a>
</g>
</g>
</g>
</svg>
