<?xml version="1.0" encoding="UTF-8" standalone="no"?>
<?xml-stylesheet href="data:text/css,.graph%20text%20%7B%0A%09font-family%3A%20sans-serif%3B%0A%09stroke%3A%20white%3B%0A%09paint-order%3A%20stroke%3B%0A%09stroke-width%3A%203%3B%0A%09stroke-linecap%3A%20square%3B%0A%7D%0A%0A.namespace%20polygon%20%7B%0A%09fill-opacity%3A%200.2%3B%0A%09stroke%3A%20none%3B%0A%7D%0A" type="text/css"?>
<!DOCTYPE svg PUBLIC "-//W3C//DTD SVG 1.1//EN"
 "http://www.w3.org/Graphics/SVG/1.1/DTD/svg11.dtd">
<!-- Generated by graphviz version 13.1.2 (0)
 -->
<!-- Pages: 1 -->
<svg width="642pt" height="508pt"
 viewBox="0.00 0.00 642.00 508.00" xmlns="http://www.w3.org/2000/svg" xmlns:xlink="http://www.w3.org/1999/xlink">
<g id="graph0" class="graph" transform="scale(1 1) rotate(0) translate(4 504)">
<polygon fill="white" stroke="none" points="-4,4 -4,-504 638,-504 638,4 -4,4"/>
<g id="clust1" class="cluster namespace">
<title>e_shop</title>
<polygon fill="lightgrey" stroke="lightgrey" points="8,-8 8,-492 626,-492 626,-8 8,-8"/>
<text xml:space="preserve" text-anchor="middle" x="317" y="-479" font-family="sans-serif" font-size="10.00">eShop</text>
</g>
<g id="clust2" class="cluster namespace">
<title>#/domains/identity_&amp;_access</title>
<polygon fill="lightgrey" stroke="lightgrey" points="16,-168 16,-312 162,-312 162,-168 16,-168"/>
<text xml:space="preserve" text-anchor="middle" x="89" y="-299" font-family="sans-serif" font-size="10.00">Identity &amp; Access</text>
</g>
<g id="clust3" class="cluster namespace">
<title>#/domains/identity_&amp;_access/subdomains/auth_n_and_auth_z</title>
<polygon fill="lightgrey" stroke="lightgrey" points="24,-176 24,-284 154,-284 154,-176 24,-176"/>
<text xml:space="preserve" text-anchor="middle" x="89" y="-271" font-family="sans-serif" font-size="10.00">AuthN and AuthZ</text>
</g>
<g id="clust4" class="cluster namespace">
<title>#/domains/edge_&amp;_experience</title>
<polygon fill="lightgrey" stroke="lightgrey" points="170,-320 170,-464 467,-464 467,-320 170,-320"/>
<text xml:space="preserve" text-anchor="middle" x="318.5" y="-451" font-family="sans-serif" font-size="10.00">Edge &amp; Experience</text>
</g>
<g id="clust5" class="cluster namespace">
<title>#/domains/edge_&amp;_experience/subdomains/web</title>
<polygon fill="lightgrey" stroke="lightgrey" points="178,-328 178,-436 308,-436 308,-328 178,-328"/>
<text xml:space="preserve" text-anchor="middle" x="243" y="-423" font-family="sans-serif" font-size="10.00">Web</text>
</g>
<g id="clust6" class="cluster namespace">
<title>#/domains/edge_&amp;_experience/subdomains/mobile</title>
<polygon fill="lightgrey" stroke="lightgrey" points="329,-328 329,-436 459,-436 459,-328 329,-328"/>
<text xml:space="preserve" text-anchor="middle" x="394" y="-423" font-family="sans-serif" font-size="10.00">Mobile</text>
</g>
<g id="clust7" class="cluster namespace">
<title>#/domains/commerce</title>
<polygon fill="lightgrey" stroke="lightgrey" points="170,-168 170,-312 618,-312 618,-168 170,-168"/>
<text xml:space="preserve" text-anchor="middle" x="394" y="-299" font-family="sans-serif" font-size="10.00">Commerce</text>
</g>
<g id="clust8" class="cluster namespace">
<title>#/domains/commerce/subdomains/catalog</title>
<polygon fill="lightgrey" stroke="lightgrey" points="480,-176 480,-284 610,-284 610,-176 480,-176"/>
<text xml:space="preserve" text-anchor="middle" x="545" y="-271" font-family="sans-serif" font-size="10.00">Catalog</text>
</g>
<g id="clust9" class="cluster namespace">
<title>#/domains/commerce/subdomains/basket</title>
<polygon fill="lightgrey" stroke="lightgrey" points="178,-176 178,-284 308,-284 308,-176 178,-176"/>
<text xml:space="preserve" text-anchor="middle" x="243" y="-271" font-family="sans-serif" font-size="10.00">Basket</text>
</g>
<g id="clust10" class="cluster namespace">
<title>#/domains/commerce/subdomains/ordering</title>
<polygon fill="lightgrey" stroke="lightgrey" points="329,-176 329,-284 459,-284 459,-176 329,-176"/>
<text xml:space="preserve" text-anchor="middle" x="394" y="-271" font-family="sans-serif" font-size="10.00">Ordering</text>
</g>
<g id="clust11" class="cluster namespace">
<title>#/domains/payment_processing</title>
<polygon fill="lightgrey" stroke="lightgrey" points="310,-16 310,-160 478,-160 478,-16 310,-16"/>
<text xml:space="preserve" text-anchor="middle" x="394" y="-147" font-family="sans-serif" font-size="10.00">Payment Processing</text>
</g>
<g id="clust12" class="cluster namespace">
<title>#/domains/payment_processing/subdomains/payment_processors</title>
<polygon fill="lightgrey" stroke="lightgrey" points="318,-24 318,-132 470,-132 470,-24 318,-24"/>
<text xml:space="preserve" text-anchor="middle" x="394" y="-119" font-family="sans-serif" font-size="10.00">Payment Processors</text>
</g>
<!-- #/domains/identity_&amp;_access/subdomains/auth_n_and_auth_z/boundedcontexts/identity -->
<g id="node1" class="node">
<title>#/domains/identity_&amp;_access/subdomains/auth_n_and_auth_z/boundedcontexts/identity</title>
<g id="a_node1"><a xlink:title="Identity provider (Duende IdentityServer / OIDC).">
<polygon fill="white" stroke="black" points="94.32,-184.1 97.84,-184.3 101.33,-184.59 104.76,-184.98 108.13,-185.47 111.42,-186.05 114.63,-186.73 117.72,-187.5 120.71,-188.35 123.56,-189.29 126.28,-190.32 128.85,-191.43 131.27,-192.62 133.53,-193.88 135.62,-195.21 137.53,-196.61 139.26,-198.08 140.81,-199.6 142.17,-201.18 143.35,-202.82 144.34,-204.5 145.14,-206.22 145.75,-207.98 146.18,-209.77 146.42,-211.59 146.49,-213.44 146.38,-215.3 146.1,-217.17 145.66,-219.06 145.06,-220.94 144.31,-222.83 143.41,-224.7 142.38,-226.56 141.22,-228.41 139.94,-230.23 138.54,-232.02 137.03,-233.78 135.43,-235.5 133.74,-237.18 131.96,-238.82 130.11,-240.4 128.19,-241.92 126.21,-243.39 124.17,-244.79 122.09,-246.12 119.96,-247.38 117.79,-248.57 115.58,-249.68 113.35,-250.71 111.1,-251.65 108.82,-252.5 106.52,-253.27 104.21,-253.95 101.89,-254.53 99.56,-255.02 97.22,-255.41 94.88,-255.7 92.53,-255.9 90.18,-256 87.82,-256 85.47,-255.9 83.12,-255.7 80.78,-255.41 78.44,-255.02 76.11,-254.53 73.79,-253.95 71.48,-253.27 69.18,-252.5 66.9,-251.65 64.65,-250.71 62.42,-249.68 60.21,-248.57 58.04,-247.38 55.91,-246.12 53.83,-244.79 51.79,-243.39 49.81,-241.92 47.89,-240.4 46.04,-238.82 44.26,-237.18 42.57,-235.5 40.97,-233.78 39.46,-232.02 38.06,-230.23 36.78,-228.41 35.62,-226.56 34.59,-224.7 33.69,-222.83 32.94,-220.94 32.34,-219.06 31.9,-217.17 31.62,-215.3 31.51,-213.44 31.58,-211.59 31.82,-209.77 32.25,-207.98 32.86,-206.22 33.66,-204.5 34.65,-202.82 35.83,-201.18 37.19,-199.6 38.74,-198.08 40.47,-196.61 42.38,-195.21 44.47,-193.88 46.73,-192.62 49.15,-191.43 51.72,-190.32 54.44,-189.29 57.29,-188.35 60.28,-187.5 63.37,-186.73 66.58,-186.05 69.87,-185.47 73.24,-184.98 76.67,-184.59 80.16,-184.3 83.68,-184.1 87.22,-184 90.78,-184 94.32,-184.1"/>
<text xml:space="preserve" text-anchor="middle" x="89" y="-215.8" font-family="sans-serif" font-size="14.00">Identity</text>
</a>
</g>
</g>
<!-- #/domains/edge_&amp;_experience/subdomains/web/boundedcontexts/web -->
<g id="node2" class="node">
<title>#/domains/edge_&amp;_experience/subdomains/web/boundedcontexts/web</title>
<g id="a_node2"><a xlink:title="Blazor Server web app for customers.">
<polygon fill="white" stroke="black" points="248.32,-336.1 251.84,-336.3 255.33,-336.59 258.76,-336.98 262.13,-337.47 265.42,-338.05 268.63,-338.73 271.72,-339.5 274.71,-340.35 277.56,-341.29 280.28,-342.32 282.85,-343.43 285.27,-344.62 287.53,-345.88 289.62,-347.21 291.53,-348.61 293.26,-350.08 294.81,-351.6 296.17,-353.18 297.35,-354.82 298.34,-356.5 299.14,-358.22 299.75,-359.98 300.18,-361.77 300.42,-363.59 300.49,-365.44 300.38,-367.3 300.1,-369.17 299.66,-371.06 299.06,-372.94 298.31,-374.83 297.41,-376.7 296.38,-378.56 295.22,-380.41 293.94,-382.23 292.54,-384.02 291.03,-385.78 289.43,-387.5 287.74,-389.18 285.96,-390.82 284.11,-392.4 282.19,-393.92 280.21,-395.39 278.17,-396.79 276.09,-398.12 273.96,-399.38 271.79,-400.57 269.58,-401.68 267.35,-402.71 265.1,-403.65 262.82,-404.5 260.52,-405.27 258.21,-405.95 255.89,-406.53 253.56,-407.02 251.22,-407.41 248.88,-407.7 246.53,-407.9 244.18,-408 241.82,-408 239.47,-407.9 237.12,-407.7 234.78,-407.41 232.44,-407.02 230.11,-406.53 227.79,-405.95 225.48,-405.27 223.18,-404.5 220.9,-403.65 218.65,-402.71 216.42,-401.68 214.21,-400.57 212.04,-399.38 209.91,-398.12 207.83,-396.79 205.79,-395.39 203.81,-393.92 201.89,-392.4 200.04,-390.82 198.26,-389.18 196.57,-387.5 194.97,-385.78 193.46,-384.02 192.06,-382.23 190.78,-380.41 189.62,-378.56 188.59,-376.7 187.69,-374.83 186.94,-372.94 186.34,-371.06 185.9,-369.17 185.62,-367.3 185.51,-365.44 185.58,-363.59 185.82,-361.77 186.25,-359.98 186.86,-358.22 187.66,-356.5 188.65,-354.82 189.83,-353.18 191.19,-351.6 192.74,-350.08 194.47,-348.61 196.38,-347.21 198.47,-345.88 200.73,-344.62 203.15,-343.43 205.72,-342.32 208.44,-341.29 211.29,-340.35 214.28,-339.5 217.37,-338.73 220.58,-338.05 223.87,-337.47 227.24,-336.98 230.67,-336.59 234.16,-336.3 237.68,-336.1 241.22,-336 244.78,-336 248.32,-336.1"/>
<text xml:space="preserve" text-anchor="middle" x="243" y="-367.8" font-family="sans-serif" font-size="14.00">Web</text>
</a>
</g>
</g>
<!-- #/domains/edge_&amp;_experience/subdomains/web/boundedcontexts/web&#45;&gt;#/domains/identity_&amp;_access/subdomains/auth_n_and_auth_z/boundedcontexts/identity -->
<g id="edge1" class="edge">
<title>#/domains/edge_&amp;_experience/subdomains/web/boundedcontexts/web&#45;&gt;#/domains/identity_&amp;_access/subdomains/auth_n_and_auth_z/boundedcontexts/identity</title>
<path fill="none" stroke="black" d="M204.66,-342.52C192.85,-333.21 180.06,-322.54 169,-312 151.88,-295.69 134.37,-276.15 120.12,-259.38"/>
<polygon fill="black" stroke="black" points="123.07,-257.44 113.95,-252.04 117.71,-261.95 123.07,-257.44"/>
<g id="a_edge1&#45;headlabel"><a xlink:title="open&#45;host&#45;service">
<text xml:space="preserve" text-anchor="middle" x="112.98" y="-247.88" font-family="sans-serif" font-size="10.00">OHS</text>
</a>
</g>
<g id="a_edge1&#45;taillabel"><a xlink:title="customer&#45;supplier">
<text xml:space="preserve" text-anchor="middle" x="204.66" y="-339.52" font-family="sans-serif" font-size="10.00">C/s</text>
</a>
</g>
</g>
<!-- #/domains/commerce/subdomains/catalog/boundedcontexts/catalog -->
<g id="node4" class="node">
<title>#/domains/commerce/subdomains/catalog/boundedcontexts/catalog</title>
<g id="a_node4"><a xlink:title="Minimal API for catalog queries and management.">
<polygon fill="white" stroke="black" points="550.32,-184.1 553.84,-184.3 557.33,-184.59 560.76,-184.98 564.13,-185.47 567.42,-186.05 570.63,-186.73 573.72,-187.5 576.71,-188.35 579.56,-189.29 582.28,-190.32 584.85,-191.43 587.27,-192.62 589.53,-193.88 591.62,-195.21 593.53,-196.61 595.26,-198.08 596.81,-199.6 598.17,-201.18 599.35,-202.82 600.34,-204.5 601.14,-206.22 601.75,-207.98 602.18,-209.77 602.42,-211.59 602.49,-213.44 602.38,-215.3 602.1,-217.17 601.66,-219.06 601.06,-220.94 600.31,-222.83 599.41,-224.7 598.38,-226.56 597.22,-228.41 595.94,-230.23 594.54,-232.02 593.03,-233.78 591.43,-235.5 589.74,-237.18 587.96,-238.82 586.11,-240.4 584.19,-241.92 582.21,-243.39 580.17,-244.79 578.09,-246.12 575.96,-247.38 573.79,-248.57 571.58,-249.68 569.35,-250.71 567.1,-251.65 564.82,-252.5 562.52,-253.27 560.21,-253.95 557.89,-254.53 555.56,-255.02 553.22,-255.41 550.88,-255.7 548.53,-255.9 546.18,-256 543.82,-256 541.47,-255.9 539.12,-255.7 536.78,-255.41 534.44,-255.02 532.11,-254.53 529.79,-253.95 527.48,-253.27 525.18,-252.5 522.9,-251.65 520.65,-250.71 518.42,-249.68 516.21,-248.57 514.04,-247.38 511.91,-246.12 509.83,-244.79 507.79,-243.39 505.81,-241.92 503.89,-240.4 502.04,-238.82 500.26,-237.18 498.57,-235.5 496.97,-233.78 495.46,-232.02 494.06,-230.23 492.78,-228.41 491.62,-226.56 490.59,-224.7 489.69,-222.83 488.94,-220.94 488.34,-219.06 487.9,-217.17 487.62,-215.3 487.51,-213.44 487.58,-211.59 487.82,-209.77 488.25,-207.98 488.86,-206.22 489.66,-204.5 490.65,-202.82 491.83,-201.18 493.19,-199.6 494.74,-198.08 496.47,-196.61 498.38,-195.21 500.47,-193.88 502.73,-192.62 505.15,-191.43 507.72,-190.32 510.44,-189.29 513.29,-188.35 516.28,-187.5 519.37,-186.73 522.58,-186.05 525.87,-185.47 529.24,-184.98 532.67,-184.59 536.16,-184.3 539.68,-184.1 543.22,-184 546.78,-184 550.32,-184.1"/>
<text xml:space="preserve" text-anchor="middle" x="545" y="-215.8" font-family="sans-serif" font-size="14.00">Catalog</text>
</a>
</g>
</g>
<!-- #/domains/edge_&amp;_experience/subdomains/web/boundedcontexts/web&#45;&gt;#/domains/commerce/subdomains/catalog/boundedcontexts/catalog -->
<g id="edge2" class="edge">
<title>#/domains/edge_&amp;_experience/subdomains/web/boundedcontexts/web&#45;&gt;#/domains/commerce/subdomains/catalog/boundedcontexts/catalog</title>
<path fill="none" stroke="black" d="M278.9,-341.53C291.21,-333.04 305.54,-324.78 320,-320 351.27,-309.65 438.51,-326.66 468,-312 489.62,-301.25 507.53,-281.4 520.61,-262.98"/>
<polygon fill="black" stroke="black" points="523.45,-265.02 526.16,-254.78 517.66,-261.1 523.45,-265.02"/>
<g id="a_edge2&#45;headlabel"><a xlink:title="open&#45;host&#45;service">
<text xml:space="preserve" text-anchor="middle" x="527.01" y="-250.53" font-family="sans-serif" font-size="10.00">OHS</text>
</a>
</g>
<g id="a_edge2&#45;taillabel"><a xlink:title="anti&#45;corruption&#45;layer">
<text xml:space="preserve" text-anchor="middle" x="278.9" y="-338.53" font-family="sans-serif" font-size="10.00">ACL</text>
</a>
</g>
</g>
<!-- #/domains/commerce/subdomains/basket/boundedcontexts/basket -->
<g id="node5" class="node">
<title>#/domains/commerce/subdomains/basket/boundedcontexts/basket</title>
<g id="a_node5"><a xlink:title="Basket service (gRPC/HTTP) to manage user baskets.">
<polygon fill="white" stroke="black" points="248.32,-184.1 251.84,-184.3 255.33,-184.59 258.76,-184.98 262.13,-185.47 265.42,-186.05 268.63,-186.73 271.72,-187.5 274.71,-188.35 277.56,-189.29 280.28,-190.32 282.85,-191.43 285.27,-192.62 287.53,-193.88 289.62,-195.21 291.53,-196.61 293.26,-198.08 294.81,-199.6 296.17,-201.18 297.35,-202.82 298.34,-204.5 299.14,-206.22 299.75,-207.98 300.18,-209.77 300.42,-211.59 300.49,-213.44 300.38,-215.3 300.1,-217.17 299.66,-219.06 299.06,-220.94 298.31,-222.83 297.41,-224.7 296.38,-226.56 295.22,-228.41 293.94,-230.23 292.54,-232.02 291.03,-233.78 289.43,-235.5 287.74,-237.18 285.96,-238.82 284.11,-240.4 282.19,-241.92 280.21,-243.39 278.17,-244.79 276.09,-246.12 273.96,-247.38 271.79,-248.57 269.58,-249.68 267.35,-250.71 265.1,-251.65 262.82,-252.5 260.52,-253.27 258.21,-253.95 255.89,-254.53 253.56,-255.02 251.22,-255.41 248.88,-255.7 246.53,-255.9 244.18,-256 241.82,-256 239.47,-255.9 237.12,-255.7 234.78,-255.41 232.44,-255.02 230.11,-254.53 227.79,-253.95 225.48,-253.27 223.18,-252.5 220.9,-251.65 218.65,-250.71 216.42,-249.68 214.21,-248.57 212.04,-247.38 209.91,-246.12 207.83,-244.79 205.79,-243.39 203.81,-241.92 201.89,-240.4 200.04,-238.82 198.26,-237.18 196.57,-235.5 194.97,-233.78 193.46,-232.02 192.06,-230.23 190.78,-228.41 189.62,-226.56 188.59,-224.7 187.69,-222.83 186.94,-220.94 186.34,-219.06 185.9,-217.17 185.62,-215.3 185.51,-213.44 185.58,-211.59 185.82,-209.77 186.25,-207.98 186.86,-206.22 187.66,-204.5 188.65,-202.82 189.83,-201.18 191.19,-199.6 192.74,-198.08 194.47,-196.61 196.38,-195.21 198.47,-193.88 200.73,-192.62 203.15,-191.43 205.72,-190.32 208.44,-189.29 211.29,-188.35 214.28,-187.5 217.37,-186.73 220.58,-186.05 223.87,-185.47 227.24,-184.98 230.67,-184.59 234.16,-184.3 237.68,-184.1 241.22,-184 244.78,-184 248.32,-184.1"/>
<text xml:space="preserve" text-anchor="middle" x="243" y="-215.8" font-family="sans-serif" font-size="14.00">Basket</text>
</a>
</g>
</g>
<!-- #/domains/edge_&amp;_experience/subdomains/web/boundedcontexts/web&#45;&gt;#/domains/commerce/subdomains/basket/boundedcontexts/basket -->
<g id="edge3" class="edge">
<title>#/domains/edge_&amp;_experience/subdomains/web/boundedcontexts/web&#45;&gt;#/domains/commerce/subdomains/basket/boundedcontexts/basket</title>
<path fill="none" stroke="black" d="M243,-335.83C243,-315.57 243,-289.85 243,-267.89"/>
<polygon fill="black" stroke="black" points="246.5,-267.98 243,-257.98 239.5,-267.98 246.5,-267.98"/>
<g id="a_edge3&#45;headlabel"><a xlink:title="open&#45;host&#45;service">
<text xml:space="preserve" text-anchor="middle" x="243" y="-253.47" font-family="sans-serif" font-size="10.00">OHS</text>
</a>
</g>
<g id="a_edge3&#45;taillabel"><a xlink:title="anti&#45;corruption&#45;layer">
<text xml:space="preserve" text-anchor="middle" x="243" y="-332.83" font-family="sans-serif" font-size="10.00">ACL</text>
</a>
</g>
</g>
<!-- #/domains/commerce/subdomains/ordering/boundedcontexts/ordering -->
<g id="node6" class="node">
<title>#/domains/commerce/subdomains/ordering/boundedcontexts/ordering</title>
<g id="a_node6"><a xlink:title="Order lifecycle, status and events.">
<polygon fill="white" stroke="black" points="399.32,-184.1 402.84,-184.3 406.33,-184.59 409.76,-184.98 413.13,-185.47 416.42,-186.05 419.63,-186.73 422.72,-187.5 425.71,-188.35 428.56,-189.29 431.28,-190.32 433.85,-191.43 436.27,-192.62 438.53,-193.88 440.62,-195.21 442.53,-196.61 444.26,-198.08 445.81,-199.6 447.17,-201.18 448.35,-202.82 449.34,-204.5 450.14,-206.22 450.75,-207.98 451.18,-209.77 451.42,-211.59 451.49,-213.44 451.38,-215.3 451.1,-217.17 450.66,-219.06 450.06,-220.94 449.31,-222.83 448.41,-224.7 447.38,-226.56 446.22,-228.41 444.94,-230.23 443.54,-232.02 442.03,-233.78 440.43,-235.5 438.74,-237.18 436.96,-238.82 435.11,-240.4 433.19,-241.92 431.21,-243.39 429.17,-244.79 427.09,-246.12 424.96,-247.38 422.79,-248.57 420.58,-249.68 418.35,-250.71 416.1,-251.65 413.82,-252.5 411.52,-253.27 409.21,-253.95 406.89,-254.53 404.56,-255.02 402.22,-255.41 399.88,-255.7 397.53,-255.9 395.18,-256 392.82,-256 390.47,-255.9 388.12,-255.7 385.78,-255.41 383.44,-255.02 381.11,-254.53 378.79,-253.95 376.48,-253.27 374.18,-252.5 371.9,-251.65 369.65,-250.71 367.42,-249.68 365.21,-248.57 363.04,-247.38 360.91,-246.12 358.83,-244.79 356.79,-243.39 354.81,-241.92 352.89,-240.4 351.04,-238.82 349.26,-237.18 347.57,-235.5 345.97,-233.78 344.46,-232.02 343.06,-230.23 341.78,-228.41 340.62,-226.56 339.59,-224.7 338.69,-222.83 337.94,-220.94 337.34,-219.06 336.9,-217.17 336.62,-215.3 336.51,-213.44 336.58,-211.59 336.82,-209.77 337.25,-207.98 337.86,-206.22 338.66,-204.5 339.65,-202.82 340.83,-201.18 342.19,-199.6 343.74,-198.08 345.47,-196.61 347.38,-195.21 349.47,-193.88 351.73,-192.62 354.15,-191.43 356.72,-190.32 359.44,-189.29 362.29,-188.35 365.28,-187.5 368.37,-186.73 371.58,-186.05 374.87,-185.47 378.24,-184.98 381.67,-184.59 385.16,-184.3 388.68,-184.1 392.22,-184 395.78,-184 399.32,-184.1"/>
<text xml:space="preserve" text-anchor="middle" x="394" y="-215.8" font-family="sans-serif" font-size="14.00">Ordering</text>
</a>
</g>
</g>
<!-- #/domains/edge_&amp;_experience/subdomains/web/boundedcontexts/web&#45;&gt;#/domains/commerce/subdomains/ordering/boundedcontexts/ordering -->
<g id="edge4" class="edge">
<title>#/domains/edge_&amp;_experience/subdomains/web/boundedcontexts/web&#45;&gt;#/domains/commerce/subdomains/ordering/boundedcontexts/ordering</title>
<path fill="none" stroke="black" d="M281.47,-342.65C293.28,-333.34 306.04,-322.65 317,-312 333.41,-296.06 350,-276.92 363.56,-260.32"/>
<polygon fill="black" stroke="black" points="366.26,-262.55 369.81,-252.57 360.81,-258.16 366.26,-262.55"/>
<g id="a_edge4&#45;headlabel"><a xlink:title="open&#45;host&#45;service">
<text xml:space="preserve" text-anchor="middle" x="370.76" y="-248.39" font-family="sans-serif" font-size="10.00">OHS</text>
</a>
</g>
<g id="a_edge4&#45;taillabel"><a xlink:title="anti&#45;corruption&#45;layer">
<text xml:space="preserve" text-anchor="middle" x="281.47" y="-339.65" font-family="sans-serif" font-size="10.00">ACL</text>
</a>
</g>
</g>
<!-- #/domains/edge_&amp;_experience/subdomains/mobile/boundedcontexts/mobile_bff -->
<g id="node3" class="node">
<title>#/domains/edge_&amp;_experience/subdomains/mobile/boundedcontexts/mobile_bff</title>
<g id="a_node3"><a xlink:title="BFF that aggregates catalog/basket/ordering.">
<polygon fill="white" stroke="black" points="399.32,-336.1 402.84,-336.3 406.33,-336.59 409.76,-336.98 413.13,-337.47 416.42,-338.05 419.63,-338.73 422.72,-339.5 425.71,-340.35 428.56,-341.29 431.28,-342.32 433.85,-343.43 436.27,-344.62 438.53,-345.88 440.62,-347.21 442.53,-348.61 444.26,-350.08 445.81,-351.6 447.17,-353.18 448.35,-354.82 449.34,-356.5 450.14,-358.22 450.75,-359.98 451.18,-361.77 451.42,-363.59 451.49,-365.44 451.38,-367.3 451.1,-369.17 450.66,-371.06 450.06,-372.94 449.31,-374.83 448.41,-376.7 447.38,-378.56 446.22,-380.41 444.94,-382.23 443.54,-384.02 442.03,-385.78 440.43,-387.5 438.74,-389.18 436.96,-390.82 435.11,-392.4 433.19,-393.92 431.21,-395.39 429.17,-396.79 427.09,-398.12 424.96,-399.38 422.79,-400.57 420.58,-401.68 418.35,-402.71 416.1,-403.65 413.82,-404.5 411.52,-405.27 409.21,-405.95 406.89,-406.53 404.56,-407.02 402.22,-407.41 399.88,-407.7 397.53,-407.9 395.18,-408 392.82,-408 390.47,-407.9 388.12,-407.7 385.78,-407.41 383.44,-407.02 381.11,-406.53 378.79,-405.95 376.48,-405.27 374.18,-404.5 371.9,-403.65 369.65,-402.71 367.42,-401.68 365.21,-400.57 363.04,-399.38 360.91,-398.12 358.83,-396.79 356.79,-395.39 354.81,-393.92 352.89,-392.4 351.04,-390.82 349.26,-389.18 347.57,-387.5 345.97,-385.78 344.46,-384.02 343.06,-382.23 341.78,-380.41 340.62,-378.56 339.59,-376.7 338.69,-374.83 337.94,-372.94 337.34,-371.06 336.9,-369.17 336.62,-367.3 336.51,-365.44 336.58,-363.59 336.82,-361.77 337.25,-359.98 337.86,-358.22 338.66,-356.5 339.65,-354.82 340.83,-353.18 342.19,-351.6 343.74,-350.08 345.47,-348.61 347.38,-347.21 349.47,-345.88 351.73,-344.62 354.15,-343.43 356.72,-342.32 359.44,-341.29 362.29,-340.35 365.28,-339.5 368.37,-338.73 371.58,-338.05 374.87,-337.47 378.24,-336.98 381.67,-336.59 385.16,-336.3 388.68,-336.1 392.22,-336 395.78,-336 399.32,-336.1"/>
<text xml:space="preserve" text-anchor="middle" x="394" y="-367.8" font-family="sans-serif" font-size="14.00">Mobile BFF</text>
</a>
</g>
</g>
<!-- #/domains/edge_&amp;_experience/subdomains/mobile/boundedcontexts/mobile_bff&#45;&gt;#/domains/identity_&amp;_access/subdomains/auth_n_and_auth_z/boundedcontexts/identity -->
<g id="edge7" class="edge">
<title>#/domains/edge_&amp;_experience/subdomains/mobile/boundedcontexts/mobile_bff&#45;&gt;#/domains/identity_&amp;_access/subdomains/auth_n_and_auth_z/boundedcontexts/identity</title>
<path fill="none" stroke="black" d="M358.1,-341.53C345.79,-333.04 331.46,-324.78 317,-320 285.73,-309.65 198.63,-326.38 169,-312 146.66,-301.16 127.91,-280.96 114.19,-262.35"/>
<polygon fill="black" stroke="black" points="117.17,-260.5 108.55,-254.34 111.45,-264.53 117.17,-260.5"/>
<g id="a_edge7&#45;headlabel"><a xlink:title="open&#45;host&#45;service">
<text xml:space="preserve" text-anchor="middle" x="107.68" y="-250.1" font-family="sans-serif" font-size="10.00">OHS</text>
</a>
</g>
<g id="a_edge7&#45;taillabel"><a xlink:title="customer&#45;supplier">
<text xml:space="preserve" text-anchor="middle" x="358.1" y="-338.53" font-family="sans-serif" font-size="10.00">C/s</text>
</a>
</g>
</g>
<!-- #/domains/edge_&amp;_experience/subdomains/mobile/boundedcontexts/mobile_bff&#45;&gt;#/domains/commerce/subdomains/catalog/boundedcontexts/catalog -->
<g id="edge8" class="edge">
<title>#/domains/edge_&amp;_experience/subdomains/mobile/boundedcontexts/mobile_bff&#45;&gt;#/domains/commerce/subdomains/catalog/boundedcontexts/catalog</title>
<path fill="none" stroke="black" d="M432.47,-342.65C444.28,-333.34 457.04,-322.65 468,-312 484.41,-296.06 501,-276.92 514.56,-260.32"/>
<polygon fill="black" stroke="black" points="517.26,-262.55 520.81,-252.57 511.81,-258.16 517.26,-262.55"/>
<g id="a_edge8&#45;headlabel"><a xlink:title="open&#45;host&#45;service">
<text xml:space="preserve" text-anchor="middle" x="521.76" y="-248.39" font-family="sans-serif" font-size="10.00">OHS</text>
</a>
</g>
<g id="a_edge8&#45;taillabel"><a xlink:title="anti&#45;corruption&#45;layer">
<text xml:space="preserve" text-anchor="middle" x="432.47" y="-339.65" font-family="sans-serif" font-size="10.00">ACL</text>
</a>
</g>
</g>
<!-- #/domains/edge_&amp;_experience/subdomains/mobile/boundedcontexts/mobile_bff&#45;&gt;#/domains/commerce/subdomains/basket/boundedcontexts/basket -->
<g id="edge9" class="edge">
<title>#/domains/edge_&amp;_experience/subdomains/mobile/boundedcontexts/mobile_bff&#45;&gt;#/domains/commerce/subdomains/basket/boundedcontexts/basket</title>
<path fill="none" stroke="black" d="M355.53,-342.65C343.72,-333.34 330.96,-322.65 320,-312 303.59,-296.06 287,-276.92 273.44,-260.32"/>
<polygon fill="black" stroke="black" points="276.19,-258.16 267.19,-252.57 270.74,-262.55 276.19,-258.16"/>
<g id="a_edge9&#45;headlabel"><a xlink:title="open&#45;host&#45;service">
<text xml:space="preserve" text-anchor="middle" x="266.24" y="-248.39" font-family="sans-serif" font-size="10.00">OHS</text>
</a>
</g>
<g id="a_edge9&#45;taillabel"><a xlink:title="anti&#45;corruption&#45;layer">
<text xml:space="preserve" text-anchor="middle" x="355.53" y="-339.65" font-family="sans-serif" font-size="10.00">ACL</text>
</a>
</g>
</g>
<!-- #/domains/edge_&amp;_experience/subdomains/mobile/boundedcontexts/mobile_bff&#45;&gt;#/domains/commerce/subdomains/ordering/boundedcontexts/ordering -->
<g id="edge10" class="edge">
<title>#/domains/edge_&amp;_experience/subdomains/mobile/boundedcontexts/mobile_bff&#45;&gt;#/domains/commerce/subdomains/ordering/boundedcontexts/ordering</title>
<path fill="none" stroke="black" d="M394,-335.83C394,-315.57 394,-289.85 394,-267.89"/>
<polygon fill="black" stroke="black" points="397.5,-267.98 394,-257.98 390.5,-267.98 397.5,-267.98"/>
<g id="a_edge10&#45;headlabel"><a xlink:title="open&#45;host&#45;service">
<text xml:space="preserve" text-anchor="middle" x="394" y="-253.47" font-family="sans-serif" font-size="10.00">OHS</text>
</a>
</g>
<g id="a_edge10&#45;taillabel"><a xlink:title="anti&#45;corruption&#45;layer">
<text xml:space="preserve" text-anchor="middle" x="394" y="-332.83" font-family="sans-serif" font-size="10.00">ACL</text>
</a>
</g>
</g>
<!-- #/domains/payment_processing/subdomains/payment_processors/boundedcontexts/payment_processor -->
<g id="node7" class="node">
<title>#/domains/payment_processing/subdomains/payment_processors/boundedcontexts/payment_processor</title>
<g id="a_node7"><a xlink:title="Simulated external payment processor.">
<polygon fill="white" stroke="black" points="400.27,-32.1 404.42,-32.3 408.53,-32.59 412.57,-32.98 416.54,-33.47 420.42,-34.05 424.2,-34.73 427.85,-35.5 431.36,-36.35 434.72,-37.29 437.93,-38.32 440.96,-39.43 443.81,-40.62 446.47,-41.88 448.93,-43.21 451.18,-44.61 453.22,-46.08 455.05,-47.6 456.66,-49.18 458.04,-50.82 459.2,-52.5 460.15,-54.22 460.87,-55.98 461.37,-57.77 461.66,-59.59 461.74,-61.44 461.61,-63.3 461.28,-65.17 460.76,-67.06 460.05,-68.94 459.17,-70.83 458.11,-72.7 456.9,-74.56 455.53,-76.41 454.02,-78.23 452.37,-80.02 450.6,-81.78 448.71,-83.5 446.72,-85.18 444.63,-86.82 442.44,-88.4 440.18,-89.92 437.85,-91.39 435.44,-92.79 432.99,-94.12 430.47,-95.38 427.92,-96.57 425.32,-97.68 422.69,-98.71 420.04,-99.65 417.35,-100.5 414.65,-101.27 411.93,-101.95 409.19,-102.53 406.44,-103.02 403.69,-103.41 400.92,-103.7 398.16,-103.9 395.39,-104 392.61,-104 389.84,-103.9 387.08,-103.7 384.31,-103.41 381.56,-103.02 378.81,-102.53 376.07,-101.95 373.35,-101.27 370.65,-100.5 367.96,-99.65 365.31,-98.71 362.68,-97.68 360.08,-96.57 357.53,-95.38 355.01,-94.12 352.56,-92.79 350.15,-91.39 347.82,-89.92 345.56,-88.4 343.37,-86.82 341.28,-85.18 339.29,-83.5 337.4,-81.78 335.63,-80.02 333.98,-78.23 332.47,-76.41 331.1,-74.56 329.89,-72.7 328.83,-70.83 327.95,-68.94 327.24,-67.06 326.72,-65.17 326.39,-63.3 326.26,-61.44 326.34,-59.59 326.63,-57.77 327.13,-55.98 327.85,-54.22 328.8,-52.5 329.96,-50.82 331.34,-49.18 332.95,-47.6 334.78,-46.08 336.82,-44.61 339.07,-43.21 341.53,-41.88 344.19,-40.62 347.04,-39.43 350.07,-38.32 353.28,-37.29 356.64,-36.35 360.15,-35.5 363.8,-34.73 367.58,-34.05 371.46,-33.47 375.43,-32.98 379.47,-32.59 383.58,-32.3 387.73,-32.1 391.91,-32 396.09,-32 400.27,-32.1"/>
<text xml:space="preserve" text-anchor="middle" x="394" y="-63.8" font-family="sans-serif" font-size="14.00">PaymentProcessor</text>
</a>
</g>
</g>
<!-- #/domains/commerce/subdomains/ordering/boundedcontexts/ordering&#45;&gt;#/domains/payment_processing/subdomains/payment_processors/boundedcontexts/payment_processor -->
<g id="edge5" class="edge">
<title>#/domains/commerce/subdomains/ordering/boundedcontexts/ordering&#45;&gt;#/domains/payment_processing/subdomains/payment_processors/boundedcontexts/payment_processor</title>
<path fill="none" stroke="black" d="M382.4,-184.21C380.24,-163.57 379.92,-137.17 381.45,-114.85"/>
<polygon fill="black" stroke="black" points="384.92,-115.37 382.29,-105.11 377.94,-114.77 384.92,-115.37"/>
<g id="a_edge5&#45;headlabel"><a xlink:title="open&#45;host&#45;service">
<text xml:space="preserve" text-anchor="middle" x="382.42" y="-100.6" font-family="sans-serif" font-size="10.00">OHS</text>
</a>
</g>
<g id="a_edge5&#45;taillabel"><a xlink:title="customer&#45;supplier">
<text xml:space="preserve" text-anchor="middle" x="382.4" y="-181.21" font-family="sans-serif" font-size="10.00">C/s</text>
</a>
</g>
</g>
<!-- #/domains/commerce/subdomains/ordering/boundedcontexts/ordering&#45;&gt;#/domains/payment_processing/subdomains/payment_processors/boundedcontexts/payment_processor -->
<g id="edge6" class="edge">
<title>#/domains/commerce/subdomains/ordering/boundedcontexts/ordering&#45;&gt;#/domains/payment_processing/subdomains/payment_processors/boundedcontexts/payment_processor</title>
<path fill="none" stroke="black" d="M405.6,-184.21C407.76,-163.57 408.08,-137.17 406.55,-114.85"/>
<polygon fill="black" stroke="black" points="410.06,-114.77 405.71,-105.11 403.08,-115.37 410.06,-114.77"/>
<g id="a_edge6&#45;headlabel"><a xlink:title="published&#45;language">
<text xml:space="preserve" text-anchor="middle" x="405.58" y="-100.6" font-family="sans-serif" font-size="10.00">PL</text>
</a>
</g>
<g id="a_edge6&#45;taillabel"><a xlink:title="conformist">
<text xml:space="preserve" text-anchor="middle" x="405.6" y="-181.21" font-family="sans-serif" font-size="10.00">C</text>
</a>
</g>
</g>
</g>
</svg>
