<?xml version="1.0" encoding="UTF-8" standalone="no"?>
<?xml-stylesheet href="data:text/css,.graph%20text%20%7B%0A%09font-family%3A%20sans-serif%3B%0A%09stroke%3A%20white%3B%0A%09paint-order%3A%20stroke%3B%0A%09stroke-width%3A%203%3B%0A%09stroke-linecap%3A%20square%3B%0A%7D%0A%0A.namespace%20polygon%20%7B%0A%09fill-opacity%3A%200.2%3B%0A%09stroke%3A%20none%3B%0A%7D%0A" type="text/css"?>
<!DOCTYPE svg PUBLIC "-//W3C//DTD SVG 1.1//EN"
 "http://www.w3.org/Graphics/SVG/1.1/DTD/svg11.dtd">
<!-- Generated by graphviz version 13.1.2 (0)
 -->
<!-- Pages: 1 -->
<svg width="708pt" height="748pt"
 viewBox="0.00 0.00 708.00 748.00" xmlns="http://www.w3.org/2000/svg" xmlns:xlink="http://www.w3.org/1999/xlink">
<g id="graph0" class="graph" transform="scale(1 1) rotate(0) translate(4 744)">
<polygon fill="white" stroke="none" points="-4,4 -4,-744 704,-744 704,4 -4,4"/>
<g id="clust1" class="cluster namespace">
<title>e_shop</title>
<polygon fill="lightgrey" stroke="lightgrey" points="8,-8 8,-732 692,-732 692,-8 8,-8"/>
<text xml:space="preserve" text-anchor="middle" x="350" y="-719" font-family="sans-serif" font-size="10.00">eShop</text>
</g>
<g id="clust2" class="cluster namespace">
<title>#/domains/integration</title>
<polygon fill="lightgrey" stroke="lightgrey" points="28,-272 28,-692 372,-692 372,-272 28,-272"/>
<text xml:space="preserve" text-anchor="middle" x="200" y="-679" font-family="sans-serif" font-size="10.00">Integration</text>
</g>
<g id="clust3" class="cluster namespace">
<title>#/domains/integration/subdomains/webhooks</title>
<polygon fill="lightgrey" stroke="lightgrey" points="48,-292 48,-652 352,-652 352,-292 48,-292"/>
<text xml:space="preserve" text-anchor="middle" x="200" y="-639" font-family="sans-serif" font-size="10.00">Webhooks</text>
</g>
<g id="clust4" class="cluster namespace">
<title>#/domains/integration/subdomains/webhooks/boundedcontexts/webhooks.api</title>
<polygon fill="lightgrey" stroke="lightgrey" points="118,-516 118,-612 332,-612 332,-516 118,-516"/>
<text xml:space="preserve" text-anchor="middle" x="225" y="-599" font-family="sans-serif" font-size="10.00">Webhooks.API</text>
</g>
<g id="clust5" class="cluster namespace">
<title>#/domains/integration/subdomains/webhooks/boundedcontexts/webhook_client</title>
<polygon fill="lightgrey" stroke="lightgrey" points="92,-312 92,-408 308,-408 308,-312 92,-312"/>
<text xml:space="preserve" text-anchor="middle" x="200" y="-395" font-family="sans-serif" font-size="10.00">WebhookClient</text>
</g>
<g id="clust6" class="cluster namespace">
<title>#/domains/commerce</title>
<polygon fill="lightgrey" stroke="lightgrey" points="392,-272 392,-488 672,-488 672,-272 392,-272"/>
<text xml:space="preserve" text-anchor="middle" x="532" y="-475" font-family="sans-serif" font-size="10.00">Commerce</text>
</g>
<g id="clust7" class="cluster namespace">
<title>#/domains/commerce/subdomains/ordering</title>
<polygon fill="lightgrey" stroke="lightgrey" points="412,-292 412,-448 652,-448 652,-292 412,-292"/>
<text xml:space="preserve" text-anchor="middle" x="532" y="-435" font-family="sans-serif" font-size="10.00">Ordering</text>
</g>
<g id="clust8" class="cluster namespace">
<title>#/domains/commerce/subdomains/ordering/boundedcontexts/ordering.api</title>
<polygon fill="lightgrey" stroke="lightgrey" points="432,-312 432,-408 632,-408 632,-312 432,-312"/>
<text xml:space="preserve" text-anchor="middle" x="532" y="-395" font-family="sans-serif" font-size="10.00">Ordering.API</text>
</g>
<g id="clust9" class="cluster namespace">
<title>#/domains/payment_processing</title>
<polygon fill="lightgrey" stroke="lightgrey" points="359,-28 359,-244 637,-244 637,-28 359,-28"/>
<text xml:space="preserve" text-anchor="middle" x="498" y="-231" font-family="sans-serif" font-size="10.00">Payment Processing</text>
</g>
<g id="clust10" class="cluster namespace">
<title>#/domains/payment_processing/subdomains/payment_processors</title>
<polygon fill="lightgrey" stroke="lightgrey" points="379,-48 379,-204 617,-204 617,-48 379,-48"/>
<text xml:space="preserve" text-anchor="middle" x="498" y="-191" font-family="sans-serif" font-size="10.00">Payment Processors</text>
</g>
<g id="clust11" class="cluster namespace">
<title>#/domains/payment_processing/subdomains/payment_processors/boundedcontexts/payment_processor</title>
<polygon fill="lightgrey" stroke="lightgrey" points="399,-68 399,-164 597,-164 597,-68 399,-68"/>
<text xml:space="preserve" text-anchor="middle" x="498" y="-151" font-family="sans-serif" font-size="10.00">PaymentProcessor</text>
</g>
<!-- #/domains/integration/subdomains/webhooks/boundedcontexts/webhooks.api/services/webhooks_service -->
<g id="node1" class="node">
<title>#/domains/integration/subdomains/webhooks/boundedcontexts/webhooks.api/services/webhooks_service</title>
<g id="a_node1"><a xlink:title="Webhook registration/delivery application service.">
<polygon fill="white" stroke="black" points="233.01,-536.05 238.32,-536.15 243.56,-536.3 248.74,-536.49 253.81,-536.74 258.77,-537.03 263.59,-537.36 268.26,-537.75 272.75,-538.18 277.05,-538.65 281.15,-539.16 285.02,-539.71 288.66,-540.31 292.06,-540.94 295.2,-541.61 298.08,-542.31 300.69,-543.04 303.03,-543.8 305.08,-544.59 306.85,-545.41 308.34,-546.25 309.54,-547.11 310.46,-547.99 311.11,-548.89 311.47,-549.8 311.57,-550.72 311.41,-551.65 310.99,-552.59 310.33,-553.53 309.42,-554.47 308.29,-555.41 306.94,-556.35 305.39,-557.28 303.64,-558.2 301.71,-559.11 299.6,-560.01 297.34,-560.89 294.93,-561.75 292.38,-562.59 289.7,-563.41 286.92,-564.2 284.02,-564.96 281.04,-565.69 277.97,-566.39 274.83,-567.06 271.62,-567.69 268.35,-568.29 265.03,-568.84 261.67,-569.35 258.28,-569.82 254.85,-570.25 251.39,-570.64 247.91,-570.97 244.41,-571.26 240.9,-571.51 237.38,-571.7 233.85,-571.85 230.31,-571.95 226.77,-572 223.23,-572 219.69,-571.95 216.15,-571.85 212.62,-571.7 209.1,-571.51 205.59,-571.26 202.09,-570.97 198.61,-570.64 195.15,-570.25 191.72,-569.82 188.33,-569.35 184.97,-568.84 181.65,-568.29 178.38,-567.69 175.17,-567.06 172.03,-566.39 168.96,-565.69 165.98,-564.96 163.08,-564.2 160.3,-563.41 157.62,-562.59 155.07,-561.75 152.66,-560.89 150.4,-560.01 148.29,-559.11 146.36,-558.2 144.61,-557.28 143.06,-556.35 141.71,-555.41 140.58,-554.47 139.67,-553.53 139.01,-552.59 138.59,-551.65 138.43,-550.72 138.53,-549.8 138.89,-548.89 139.54,-547.99 140.46,-547.11 141.66,-546.25 143.15,-545.41 144.92,-544.59 146.97,-543.8 149.31,-543.04 151.92,-542.31 154.8,-541.61 157.94,-540.94 161.34,-540.31 164.98,-539.71 168.85,-539.16 172.95,-538.65 177.25,-538.18 181.74,-537.75 186.41,-537.36 191.23,-537.03 196.19,-536.74 201.26,-536.49 206.44,-536.3 211.68,-536.15 216.99,-536.05 222.33,-536 227.67,-536 233.01,-536.05"/>
<text xml:space="preserve" text-anchor="middle" x="225" y="-549.8" font-family="sans-serif" font-size="14.00">WebhooksService</text>
</a>
</g>
</g>
<!-- #/domains/integration/subdomains/webhooks/boundedcontexts/webhook_client/services/webhook_receiver -->
<g id="node2" class="node">
<title>#/domains/integration/subdomains/webhooks/boundedcontexts/webhook_client/services/webhook_receiver</title>
<g id="a_node2"><a xlink:title="Sample receiver app for incoming webhook deliveries.">
<polygon fill="white" stroke="black" points="208.17,-332.05 213.58,-332.15 218.93,-332.3 224.2,-332.49 229.38,-332.74 234.44,-333.03 239.35,-333.36 244.11,-333.75 248.69,-334.18 253.07,-334.65 257.25,-335.16 261.2,-335.71 264.91,-336.31 268.38,-336.94 271.58,-337.61 274.52,-338.31 277.18,-339.04 279.56,-339.8 281.65,-340.59 283.46,-341.41 284.98,-342.25 286.2,-343.11 287.14,-343.99 287.8,-344.89 288.17,-345.8 288.28,-346.72 288.11,-347.65 287.68,-348.59 287,-349.53 286.08,-350.47 284.93,-351.41 283.55,-352.35 281.97,-353.28 280.19,-354.2 278.22,-355.11 276.07,-356.01 273.76,-356.89 271.3,-357.75 268.7,-358.59 265.98,-359.41 263.13,-360.2 260.18,-360.96 257.14,-361.69 254.01,-362.39 250.81,-363.06 247.53,-363.69 244.2,-364.29 240.82,-364.84 237.39,-365.35 233.93,-365.82 230.43,-366.25 226.91,-366.64 223.36,-366.97 219.8,-367.26 216.22,-367.51 212.62,-367.7 209.02,-367.85 205.42,-367.95 201.81,-368 198.19,-368 194.58,-367.95 190.98,-367.85 187.38,-367.7 183.78,-367.51 180.2,-367.26 176.64,-366.97 173.09,-366.64 169.57,-366.25 166.07,-365.82 162.61,-365.35 159.18,-364.84 155.8,-364.29 152.47,-363.69 149.19,-363.06 145.99,-362.39 142.86,-361.69 139.82,-360.96 136.87,-360.2 134.02,-359.41 131.3,-358.59 128.7,-357.75 126.24,-356.89 123.93,-356.01 121.78,-355.11 119.81,-354.2 118.03,-353.28 116.45,-352.35 115.07,-351.41 113.92,-350.47 113,-349.53 112.32,-348.59 111.89,-347.65 111.72,-346.72 111.83,-345.8 112.2,-344.89 112.86,-343.99 113.8,-343.11 115.02,-342.25 116.54,-341.41 118.35,-340.59 120.44,-339.8 122.82,-339.04 125.48,-338.31 128.42,-337.61 131.62,-336.94 135.09,-336.31 138.8,-335.71 142.75,-335.16 146.93,-334.65 151.31,-334.18 155.89,-333.75 160.65,-333.36 165.56,-333.03 170.62,-332.74 175.8,-332.49 181.07,-332.3 186.42,-332.15 191.83,-332.05 197.27,-332 202.73,-332 208.17,-332.05"/>
<text xml:space="preserve" text-anchor="middle" x="200" y="-345.8" font-family="sans-serif" font-size="14.00">WebhookReceiver</text>
</a>
</g>
</g>
<!-- #/domains/integration/subdomains/webhooks/boundedcontexts/webhooks.api/services/webhooks_service&#45;&gt;#/domains/integration/subdomains/webhooks/boundedcontexts/webhook_client/services/webhook_receiver -->
<g id="edge5" class="edge">
<title>#/domains/integration/subdomains/webhooks/boundedcontexts/webhooks.api/services/webhooks_service&#45;&gt;#/domains/integration/subdomains/webhooks/boundedcontexts/webhook_client/services/webhook_receiver</title>
<path fill="none" stroke="black" d="M171.21,-538.57C156.23,-531.81 141.68,-522.04 132.92,-508 105.8,-464.56 145.83,-408.25 174.73,-376.23"/>
<polygon fill="black" stroke="black" points="177.23,-378.68 181.49,-368.98 172.11,-373.9 177.23,-378.68"/>
<text xml:space="preserve" text-anchor="middle" x="168.46" y="-499" font-family="sans-serif" font-size="10.00">ReceiveWebhook</text>
<g id="a_edge5&#45;headlabel"><a xlink:title="open&#45;host&#45;service">
<text xml:space="preserve" text-anchor="middle" x="182.52" y="-364.87" font-family="sans-serif" font-size="10.00">OHS</text>
</a>
</g>
<g id="a_edge5&#45;taillabel"><a xlink:title="customer&#45;supplier">
<text xml:space="preserve" text-anchor="middle" x="171.21" y="-535.57" font-family="sans-serif" font-size="10.00">C/s</text>
</a>
</g>
</g>
<!-- #/domains/commerce/subdomains/ordering/boundedcontexts/ordering.api/services/ordering_service -->
<g id="node3" class="node">
<title>#/domains/commerce/subdomains/ordering/boundedcontexts/ordering.api/services/ordering_service</title>
<g id="a_node3"><a xlink:title="Ordering application service.">
<polygon fill="white" stroke="black" points="539.38,-332.05 544.26,-332.15 549.09,-332.3 553.86,-332.49 558.53,-332.74 563.1,-333.03 567.53,-333.36 571.83,-333.75 575.97,-334.18 579.93,-334.65 583.7,-335.16 587.26,-335.71 590.62,-336.31 593.75,-336.94 596.64,-337.61 599.29,-338.31 601.7,-339.04 603.84,-339.8 605.73,-340.59 607.37,-341.41 608.73,-342.25 609.84,-343.11 610.69,-343.99 611.28,-344.89 611.62,-345.8 611.71,-346.72 611.56,-347.65 611.18,-348.59 610.57,-349.53 609.73,-350.47 608.69,-351.41 607.45,-352.35 606.02,-353.28 604.41,-354.2 602.63,-355.11 600.69,-356.01 598.61,-356.89 596.39,-357.75 594.04,-358.59 591.58,-359.41 589.01,-360.2 586.35,-360.96 583.6,-361.69 580.77,-362.39 577.88,-363.06 574.92,-363.69 571.92,-364.29 568.86,-364.84 565.77,-365.35 562.64,-365.82 559.48,-366.25 556.3,-366.64 553.1,-366.97 549.88,-367.26 546.64,-367.51 543.4,-367.7 540.15,-367.85 536.89,-367.95 533.63,-368 530.37,-368 527.11,-367.95 523.85,-367.85 520.6,-367.7 517.36,-367.51 514.12,-367.26 510.9,-366.97 507.7,-366.64 504.52,-366.25 501.36,-365.82 498.23,-365.35 495.14,-364.84 492.08,-364.29 489.08,-363.69 486.12,-363.06 483.23,-362.39 480.4,-361.69 477.65,-360.96 474.99,-360.2 472.42,-359.41 469.96,-358.59 467.61,-357.75 465.39,-356.89 463.31,-356.01 461.37,-355.11 459.59,-354.2 457.98,-353.28 456.55,-352.35 455.31,-351.41 454.27,-350.47 453.43,-349.53 452.82,-348.59 452.44,-347.65 452.29,-346.72 452.38,-345.8 452.72,-344.89 453.31,-343.99 454.16,-343.11 455.27,-342.25 456.63,-341.41 458.27,-340.59 460.16,-339.8 462.3,-339.04 464.71,-338.31 467.36,-337.61 470.25,-336.94 473.38,-336.31 476.74,-335.71 480.3,-335.16 484.07,-334.65 488.03,-334.18 492.17,-333.75 496.47,-333.36 500.9,-333.03 505.47,-332.74 510.14,-332.49 514.91,-332.3 519.74,-332.15 524.62,-332.05 529.54,-332 534.46,-332 539.38,-332.05"/>
<text xml:space="preserve" text-anchor="middle" x="532" y="-345.8" font-family="sans-serif" font-size="14.00">OrderingService</text>
</a>
</g>
</g>
<!-- #/domains/integration/subdomains/webhooks/boundedcontexts/webhooks.api/services/webhooks_service&#45;&gt;#/domains/commerce/subdomains/ordering/boundedcontexts/ordering.api/services/ordering_service -->
<g id="edge2" class="edge">
<title>#/domains/integration/subdomains/webhooks/boundedcontexts/webhooks.api/services/webhooks_service&#45;&gt;#/domains/commerce/subdomains/ordering/boundedcontexts/ordering.api/services/ordering_service</title>
<path fill="none" stroke="black" d="M255.78,-536.56C270.81,-528.31 289.06,-517.97 305,-508 376.77,-463.13 457.57,-405.43 500.77,-373.97"/>
<polygon fill="black" stroke="black" points="502.67,-376.92 508.69,-368.19 498.55,-371.26 502.67,-376.92"/>
<text xml:space="preserve" text-anchor="middle" x="344.45" y="-499" font-family="sans-serif" font-size="10.00">OrderPaid</text>
<g id="a_edge2&#45;headlabel"><a xlink:title="published&#45;language">
<text xml:space="preserve" text-anchor="middle" x="509.91" y="-364.3" font-family="sans-serif" font-size="10.00">PL</text>
</a>
</g>
<g id="a_edge2&#45;taillabel"><a xlink:title="conformist">
<text xml:space="preserve" text-anchor="middle" x="255.78" y="-533.56" font-family="sans-serif" font-size="10.00">C</text>
</a>
</g>
</g>
<!-- #/domains/integration/subdomains/webhooks/boundedcontexts/webhook_client/services/webhook_receiver&#45;&gt;#/domains/integration/subdomains/webhooks/boundedcontexts/webhooks.api/services/webhooks_service -->
<g id="edge1" class="edge">
<title>#/domains/integration/subdomains/webhooks/boundedcontexts/webhook_client/services/webhook_receiver&#45;&gt;#/domains/integration/subdomains/webhooks/boundedcontexts/webhooks.api/services/webhooks_service</title>
<path fill="none" stroke="black" d="M202.16,-368.47C206.48,-403.39 216.23,-482.13 221.48,-524.59"/>
<polygon fill="black" stroke="black" points="217.98,-524.78 222.68,-534.28 224.93,-523.92 217.98,-524.78"/>
<text xml:space="preserve" text-anchor="middle" x="255.06" y="-499" font-family="sans-serif" font-size="10.00">RegisterWebhook</text>
<g id="a_edge1&#45;headlabel"><a xlink:title="open&#45;host&#45;service">
<text xml:space="preserve" text-anchor="middle" x="222.87" y="-532.78" font-family="sans-serif" font-size="10.00">OHS</text>
</a>
</g>
<g id="a_edge1&#45;taillabel"><a xlink:title="customer&#45;supplier">
<text xml:space="preserve" text-anchor="middle" x="202.16" y="-365.47" font-family="sans-serif" font-size="10.00">C/s</text>
</a>
</g>
</g>
<!-- #/domains/payment_processing/subdomains/payment_processors/boundedcontexts/payment_processor/services/payment_service -->
<g id="node4" class="node">
<title>#/domains/payment_processing/subdomains/payment_processors/boundedcontexts/payment_processor/services/payment_service</title>
<g id="a_node4"><a xlink:title="Takes payments and emits status changes.">
<polygon fill="white" stroke="black" points="505.27,-88.05 510.09,-88.15 514.85,-88.3 519.55,-88.49 524.15,-88.74 528.65,-89.03 533.03,-89.36 537.26,-89.75 541.34,-90.18 545.24,-90.65 548.96,-91.16 552.48,-91.71 555.78,-92.31 558.87,-92.94 561.72,-93.61 564.33,-94.31 566.7,-95.04 568.82,-95.8 570.69,-96.59 572.29,-97.41 573.64,-98.25 574.73,-99.11 575.57,-99.99 576.16,-100.89 576.49,-101.8 576.58,-102.72 576.43,-103.65 576.05,-104.59 575.45,-105.53 574.63,-106.47 573.6,-107.41 572.38,-108.35 570.97,-109.28 569.38,-110.2 567.62,-111.11 565.71,-112.01 563.66,-112.89 561.47,-113.75 559.16,-114.59 556.73,-115.41 554.2,-116.2 551.57,-116.96 548.86,-117.69 546.08,-118.39 543.23,-119.06 540.31,-119.69 537.35,-120.29 534.34,-120.84 531.29,-121.35 528.2,-121.82 525.09,-122.25 521.95,-122.64 518.8,-122.97 515.62,-123.26 512.43,-123.51 509.24,-123.7 506.03,-123.85 502.82,-123.95 499.61,-124 496.39,-124 493.18,-123.95 489.97,-123.85 486.76,-123.7 483.57,-123.51 480.38,-123.26 477.2,-122.97 474.05,-122.64 470.91,-122.25 467.8,-121.82 464.71,-121.35 461.66,-120.84 458.65,-120.29 455.69,-119.69 452.77,-119.06 449.92,-118.39 447.14,-117.69 444.43,-116.96 441.8,-116.2 439.27,-115.41 436.84,-114.59 434.53,-113.75 432.34,-112.89 430.29,-112.01 428.38,-111.11 426.62,-110.2 425.03,-109.28 423.62,-108.35 422.4,-107.41 421.37,-106.47 420.55,-105.53 419.95,-104.59 419.57,-103.65 419.42,-102.72 419.51,-101.8 419.84,-100.89 420.43,-99.99 421.27,-99.11 422.36,-98.25 423.71,-97.41 425.31,-96.59 427.18,-95.8 429.3,-95.04 431.67,-94.31 434.28,-93.61 437.13,-92.94 440.22,-92.31 443.52,-91.71 447.04,-91.16 450.76,-90.65 454.66,-90.18 458.74,-89.75 462.97,-89.36 467.35,-89.03 471.85,-88.74 476.45,-88.49 481.15,-88.3 485.91,-88.15 490.73,-88.05 495.57,-88 500.43,-88 505.27,-88.05"/>
<text xml:space="preserve" text-anchor="middle" x="498" y="-101.8" font-family="sans-serif" font-size="14.00">PaymentService</text>
</a>
</g>
</g>
<!-- #/domains/commerce/subdomains/ordering/boundedcontexts/ordering.api/services/ordering_service&#45;&gt;#/domains/payment_processing/subdomains/payment_processors/boundedcontexts/payment_processor/services/payment_service -->
<g id="edge3" class="edge">
<title>#/domains/commerce/subdomains/ordering/boundedcontexts/ordering.api/services/ordering_service&#45;&gt;#/domains/payment_processing/subdomains/payment_processors/boundedcontexts/payment_processor/services/payment_service</title>
<path fill="none" stroke="black" d="M498.45,-332.79C473.21,-318.56 440.49,-295.23 425.45,-264 403.07,-217.51 443.43,-162.69 472.38,-131.67"/>
<polygon fill="black" stroke="black" points="474.71,-134.3 479.13,-124.67 469.67,-129.44 474.71,-134.3"/>
<text xml:space="preserve" text-anchor="middle" x="458.23" y="-255" font-family="sans-serif" font-size="10.00">ProcessPayment</text>
<g id="a_edge3&#45;headlabel"><a xlink:title="open&#45;host&#45;service">
<text xml:space="preserve" text-anchor="middle" x="480.18" y="-120.58" font-family="sans-serif" font-size="10.00">OHS</text>
</a>
</g>
<g id="a_edge3&#45;taillabel"><a xlink:title="customer&#45;supplier">
<text xml:space="preserve" text-anchor="middle" x="498.45" y="-329.79" font-family="sans-serif" font-size="10.00">C/s</text>
</a>
</g>
</g>
<!-- #/domains/commerce/subdomains/ordering/boundedcontexts/ordering.api/services/ordering_service&#45;&gt;#/domains/payment_processing/subdomains/payment_processors/boundedcontexts/payment_processor/services/payment_service -->
<g id="edge4" class="edge">
<title>#/domains/commerce/subdomains/ordering/boundedcontexts/ordering.api/services/ordering_service&#45;&gt;#/domains/payment_processing/subdomains/payment_processors/boundedcontexts/payment_processor/services/payment_service</title>
<path fill="none" stroke="black" d="M529.55,-331.6C523.76,-290.35 509.14,-186.31 502.02,-135.63"/>
<polygon fill="black" stroke="black" points="505.49,-135.16 500.63,-125.75 498.56,-136.13 505.49,-135.16"/>
<text xml:space="preserve" text-anchor="middle" x="558.91" y="-255" font-family="sans-serif" font-size="10.00">PaymentSucceeded</text>
<g id="a_edge4&#45;headlabel"><a xlink:title="published&#45;language">
<text xml:space="preserve" text-anchor="middle" x="500.42" y="-121.25" font-family="sans-serif" font-size="10.00">PL</text>
</a>
</g>
<g id="a_edge4&#45;taillabel"><a xlink:title="conformist">
<text xml:space="preserve" text-anchor="middle" x="529.55" y="-328.6" font-family="sans-serif" font-size="10.00">C</text>
</a>
</g>
</g>
</g>
</svg>
