<?xml version="1.0" encoding="UTF-8" standalone="no"?>
<?xml-stylesheet href="data:text/css,.graph%20text%20%7B%0A%09font-family%3A%20sans-serif%3B%0A%09stroke%3A%20white%3B%0A%09paint-order%3A%20stroke%3B%0A%09stroke-width%3A%203%3B%0A%09stroke-linecap%3A%20square%3B%0A%7D%0A%0A.namespace%20polygon%20%7B%0A%09fill-opacity%3A%200.2%3B%0A%09stroke%3A%20none%3B%0A%7D%0A" type="text/css"?>
<!DOCTYPE svg PUBLIC "-//W3C//DTD SVG 1.1//EN"
 "http://www.w3.org/Graphics/SVG/1.1/DTD/svg11.dtd">
<!-- Generated by graphviz version 13.1.2 (0)
 -->
<!-- Pages: 1 -->
<svg width="994pt" height="896pt"
 viewBox="0.00 0.00 994.00 896.00" xmlns="http://www.w3.org/2000/svg" xmlns:xlink="http://www.w3.org/1999/xlink">
<g id="graph0" class="graph" transform="scale(1 1) rotate(0) translate(4 892)">
<polygon fill="white" stroke="none" points="-4,4 -4,-892 990,-892 990,4 -4,4"/>
<g id="clust1" class="cluster namespace">
<title>e_shop</title>
<polygon fill="lightgrey" stroke="lightgrey" points="8,-8 8,-880 978,-880 978,-8 8,-8"/>
<text xml:space="preserve" text-anchor="middle" x="493" y="-867" font-family="sans-serif" font-size="10.00">eShop</text>
</g>
<g id="clust2" class="cluster namespace">
<title>#/domains/identity_&amp;_access</title>
<polygon fill="lightgrey" stroke="lightgrey" points="28,-308 28,-560 264,-560 264,-308 28,-308"/>
<text xml:space="preserve" text-anchor="middle" x="146" y="-547" font-family="sans-serif" font-size="10.00">Identity &amp; Access</text>
</g>
<g id="clust3" class="cluster namespace">
<title>#/domains/identity_&amp;_access/subdomains/auth_n_and_auth_z</title>
<polygon fill="lightgrey" stroke="lightgrey" points="48,-328 48,-520 244,-520 244,-328 48,-328"/>
<text xml:space="preserve" text-anchor="middle" x="146" y="-507" font-family="sans-serif" font-size="10.00">AuthN and AuthZ</text>
</g>
<g id="clust4" class="cluster namespace">
<title>#/domains/identity_&amp;_access/subdomains/auth_n_and_auth_z/boundedcontexts/identity</title>
<polygon fill="lightgrey" stroke="lightgrey" points="68,-348 68,-480 224,-480 224,-348 68,-348"/>
<text xml:space="preserve" text-anchor="middle" x="146" y="-467" font-family="sans-serif" font-size="10.00">Identity</text>
</g>
<g id="clust5" class="cluster namespace">
<title>#/domains/edge_&amp;_experience</title>
<polygon fill="lightgrey" stroke="lightgrey" points="449,-588 449,-840 683,-840 683,-588 449,-588"/>
<text xml:space="preserve" text-anchor="middle" x="566" y="-827" font-family="sans-serif" font-size="10.00">Edge &amp; Experience</text>
</g>
<g id="clust6" class="cluster namespace">
<title>#/domains/edge_&amp;_experience/subdomains/mobile</title>
<polygon fill="lightgrey" stroke="lightgrey" points="469,-608 469,-800 663,-800 663,-608 469,-608"/>
<text xml:space="preserve" text-anchor="middle" x="566" y="-787" font-family="sans-serif" font-size="10.00">Mobile</text>
</g>
<g id="clust7" class="cluster namespace">
<title>#/domains/edge_&amp;_experience/subdomains/mobile/boundedcontexts/mobile_bff</title>
<polygon fill="lightgrey" stroke="lightgrey" points="489,-628 489,-760 643,-760 643,-628 489,-628"/>
<text xml:space="preserve" text-anchor="middle" x="566" y="-747" font-family="sans-serif" font-size="10.00">Mobile BFF</text>
</g>
<g id="clust8" class="cluster namespace">
<title>#/domains/commerce</title>
<polygon fill="lightgrey" stroke="lightgrey" points="284,-308 284,-560 958,-560 958,-308 284,-308"/>
<text xml:space="preserve" text-anchor="middle" x="621" y="-547" font-family="sans-serif" font-size="10.00">Commerce</text>
</g>
<g id="clust9" class="cluster namespace">
<title>#/domains/commerce/subdomains/catalog</title>
<polygon fill="lightgrey" stroke="lightgrey" points="304,-328 304,-520 500,-520 500,-328 304,-328"/>
<text xml:space="preserve" text-anchor="middle" x="402" y="-507" font-family="sans-serif" font-size="10.00">Catalog</text>
</g>
<g id="clust10" class="cluster namespace">
<title>#/domains/commerce/subdomains/catalog/boundedcontexts/catalog</title>
<polygon fill="lightgrey" stroke="lightgrey" points="324,-348 324,-480 480,-480 480,-348 324,-348"/>
<text xml:space="preserve" text-anchor="middle" x="402" y="-467" font-family="sans-serif" font-size="10.00">Catalog</text>
</g>
<g id="clust11" class="cluster namespace">
<title>#/domains/commerce/subdomains/basket</title>
<polygon fill="lightgrey" stroke="lightgrey" points="520,-328 520,-520 714,-520 714,-328 520,-328"/>
<text xml:space="preserve" text-anchor="middle" x="617" y="-507" font-family="sans-serif" font-size="10.00">Basket</text>
</g>
<g id="clust12" class="cluster namespace">
<title>#/domains/commerce/subdomains/basket/boundedcontexts/basket</title>
<polygon fill="lightgrey" stroke="lightgrey" points="540,-348 540,-480 694,-480 694,-348 540,-348"/>
<text xml:space="preserve" text-anchor="middle" x="617" y="-467" font-family="sans-serif" font-size="10.00">Basket</text>
</g>
<g id="clust13" class="cluster namespace">
<title>#/domains/commerce/subdomains/ordering</title>
<polygon fill="lightgrey" stroke="lightgrey" points="734,-328 734,-520 938,-520 938,-328 734,-328"/>
<text xml:space="preserve" text-anchor="middle" x="836" y="-507" font-family="sans-serif" font-size="10.00">Ordering</text>
</g>
<g id="clust14" class="cluster namespace">
<title>#/domains/commerce/subdomains/ordering/boundedcontexts/ordering</title>
<polygon fill="lightgrey" stroke="lightgrey" points="754,-348 754,-480 918,-480 918,-348 754,-348"/>
<text xml:space="preserve" text-anchor="middle" x="836" y="-467" font-family="sans-serif" font-size="10.00">Ordering</text>
</g>
<g id="clust15" class="cluster namespace">
<title>#/domains/payment_processing</title>
<polygon fill="lightgrey" stroke="lightgrey" points="672,-28 672,-280 914,-280 914,-28 672,-28"/>
<text xml:space="preserve" text-anchor="middle" x="793" y="-267" font-family="sans-serif" font-size="10.00">Payment Processing</text>
</g>
<g id="clust16" class="cluster namespace">
<title>#/domains/payment_processing/subdomains/payment_processors</title>
<polygon fill="lightgrey" stroke="lightgrey" points="692,-48 692,-240 894,-240 894,-48 692,-48"/>
<text xml:space="preserve" text-anchor="middle" x="793" y="-227" font-family="sans-serif" font-size="10.00">Payment Processors</text>
</g>
<g id="clust17" class="cluster namespace">
<title>#/domains/payment_processing/subdomains/payment_processors/boundedcontexts/payment_processor</title>
<polygon fill="lightgrey" stroke="lightgrey" points="712,-68 712,-200 874,-200 874,-68 712,-68"/>
<text xml:space="preserve" text-anchor="middle" x="793" y="-187" font-family="sans-serif" font-size="10.00">PaymentProcessor</text>
</g>
<!-- #/domains/identity_&amp;_access/subdomains/auth_n_and_auth_z/boundedcontexts/identity/services/identity_service -->
<g id="node1" class="node">
<title>#/domains/identity_&amp;_access/subdomains/auth_n_and_auth_z/boundedcontexts/identity/services/identity_service</title>
<g id="a_node1"><a xlink:title="Token service for authN/authZ.">
<polygon fill="white" stroke="black" points="151.33,-368.1 154.86,-368.3 158.35,-368.59 161.79,-368.98 165.16,-369.47 168.46,-370.05 171.67,-370.73 174.77,-371.5 177.76,-372.35 180.62,-373.29 183.34,-374.32 185.92,-375.43 188.34,-376.62 190.6,-377.88 192.69,-379.21 194.61,-380.61 196.35,-382.08 197.9,-383.6 199.26,-385.18 200.44,-386.82 201.43,-388.5 202.23,-390.22 202.84,-391.98 203.27,-393.77 203.52,-395.59 203.58,-397.44 203.47,-399.3 203.19,-401.17 202.75,-403.06 202.15,-404.94 201.4,-406.83 200.5,-408.7 199.47,-410.56 198.31,-412.41 197.02,-414.23 195.62,-416.02 194.11,-417.78 192.51,-419.5 190.81,-421.18 189.04,-422.82 187.18,-424.4 185.26,-425.92 183.27,-427.39 181.23,-428.79 179.14,-430.12 177.01,-431.38 174.83,-432.57 172.63,-433.68 170.39,-434.71 168.13,-435.65 165.85,-436.5 163.55,-437.27 161.24,-437.95 158.91,-438.53 156.58,-439.02 154.23,-439.41 151.89,-439.7 149.53,-439.9 147.18,-440 144.82,-440 142.47,-439.9 140.11,-439.7 137.77,-439.41 135.42,-439.02 133.09,-438.53 130.76,-437.95 128.45,-437.27 126.15,-436.5 123.87,-435.65 121.61,-434.71 119.37,-433.68 117.17,-432.57 114.99,-431.38 112.86,-430.12 110.77,-428.79 108.73,-427.39 106.74,-425.92 104.82,-424.4 102.96,-422.82 101.19,-421.18 99.49,-419.5 97.89,-417.78 96.38,-416.02 94.98,-414.23 93.69,-412.41 92.53,-410.56 91.5,-408.7 90.6,-406.83 89.85,-404.94 89.25,-403.06 88.81,-401.17 88.53,-399.3 88.42,-397.44 88.48,-395.59 88.73,-393.77 89.16,-391.98 89.77,-390.22 90.57,-388.5 91.56,-386.82 92.74,-385.18 94.1,-383.6 95.65,-382.08 97.39,-380.61 99.31,-379.21 101.4,-377.88 103.66,-376.62 106.08,-375.43 108.66,-374.32 111.38,-373.29 114.24,-372.35 117.23,-371.5 120.33,-370.73 123.54,-370.05 126.84,-369.47 130.21,-368.98 133.65,-368.59 137.14,-368.3 140.67,-368.1 144.22,-368 147.78,-368 151.33,-368.1"/>
<text xml:space="preserve" text-anchor="middle" x="146" y="-399.8" font-family="sans-serif" font-size="14.00">IdentityService</text>
</a>
</g>
</g>
<!-- #/domains/edge_&amp;_experience/subdomains/mobile/boundedcontexts/mobile_bff/services/shopping_bff -->
<g id="node2" class="node">
<title>#/domains/edge_&amp;_experience/subdomains/mobile/boundedcontexts/mobile_bff/services/shopping_bff</title>
<g id="a_node2"><a xlink:title="BFF that aggregates catalog/basket/ordering.">
<polygon fill="white" stroke="black" points="571.32,-648.1 574.84,-648.3 578.33,-648.59 581.76,-648.98 585.13,-649.47 588.42,-650.05 591.63,-650.73 594.72,-651.5 597.71,-652.35 600.56,-653.29 603.28,-654.32 605.85,-655.43 608.27,-656.62 610.53,-657.88 612.62,-659.21 614.53,-660.61 616.26,-662.08 617.81,-663.6 619.17,-665.18 620.35,-666.82 621.34,-668.5 622.14,-670.22 622.75,-671.98 623.18,-673.77 623.42,-675.59 623.49,-677.44 623.38,-679.3 623.1,-681.17 622.66,-683.06 622.06,-684.94 621.31,-686.83 620.41,-688.7 619.38,-690.56 618.22,-692.41 616.94,-694.23 615.54,-696.02 614.03,-697.78 612.43,-699.5 610.74,-701.18 608.96,-702.82 607.11,-704.4 605.19,-705.92 603.21,-707.39 601.17,-708.79 599.09,-710.12 596.96,-711.38 594.79,-712.57 592.58,-713.68 590.35,-714.71 588.1,-715.65 585.82,-716.5 583.52,-717.27 581.21,-717.95 578.89,-718.53 576.56,-719.02 574.22,-719.41 571.88,-719.7 569.53,-719.9 567.18,-720 564.82,-720 562.47,-719.9 560.12,-719.7 557.78,-719.41 555.44,-719.02 553.11,-718.53 550.79,-717.95 548.48,-717.27 546.18,-716.5 543.9,-715.65 541.65,-714.71 539.42,-713.68 537.21,-712.57 535.04,-711.38 532.91,-710.12 530.83,-708.79 528.79,-707.39 526.81,-705.92 524.89,-704.4 523.04,-702.82 521.26,-701.18 519.57,-699.5 517.97,-697.78 516.46,-696.02 515.06,-694.23 513.78,-692.41 512.62,-690.56 511.59,-688.7 510.69,-686.83 509.94,-684.94 509.34,-683.06 508.9,-681.17 508.62,-679.3 508.51,-677.44 508.58,-675.59 508.82,-673.77 509.25,-671.98 509.86,-670.22 510.66,-668.5 511.65,-666.82 512.83,-665.18 514.19,-663.6 515.74,-662.08 517.47,-660.61 519.38,-659.21 521.47,-657.88 523.73,-656.62 526.15,-655.43 528.72,-654.32 531.44,-653.29 534.29,-652.35 537.28,-651.5 540.37,-650.73 543.58,-650.05 546.87,-649.47 550.24,-648.98 553.67,-648.59 557.16,-648.3 560.68,-648.1 564.22,-648 567.78,-648 571.32,-648.1"/>
<text xml:space="preserve" text-anchor="middle" x="566" y="-679.8" font-family="sans-serif" font-size="14.00">ShoppingBff</text>
</a>
</g>
</g>
<!-- #/domains/edge_&amp;_experience/subdomains/mobile/boundedcontexts/mobile_bff/services/shopping_bff&#45;&gt;#/domains/identity_&amp;_access/subdomains/auth_n_and_auth_z/boundedcontexts/identity/services/identity_service -->
<g id="edge1" class="edge">
<title>#/domains/edge_&amp;_experience/subdomains/mobile/boundedcontexts/mobile_bff/services/shopping_bff&#45;&gt;#/domains/identity_&amp;_access/subdomains/auth_n_and_auth_z/boundedcontexts/identity/services/identity_service</title>
<path fill="none" stroke="black" d="M513.92,-663.54C460.32,-642.27 375.61,-605.13 310,-560 260.16,-525.72 210.78,-476.4 179.43,-442.66"/>
<polygon fill="black" stroke="black" points="182.24,-440.53 172.89,-435.54 177.09,-445.27 182.24,-440.53"/>
<text xml:space="preserve" text-anchor="middle" x="358.83" y="-571" font-family="sans-serif" font-size="10.00">IssueToken</text>
<g id="a_edge1&#45;headlabel"><a xlink:title="open&#45;host&#45;service">
<text xml:space="preserve" text-anchor="middle" x="171.86" y="-431.43" font-family="sans-serif" font-size="10.00">OHS</text>
</a>
</g>
<g id="a_edge1&#45;taillabel"><a xlink:title="customer&#45;supplier">
<text xml:space="preserve" text-anchor="middle" x="513.92" y="-660.54" font-family="sans-serif" font-size="10.00">C/s</text>
</a>
</g>
</g>
<!-- #/domains/commerce/subdomains/catalog/boundedcontexts/catalog/services/catalog_service -->
<g id="node3" class="node">
<title>#/domains/commerce/subdomains/catalog/boundedcontexts/catalog/services/catalog_service</title>
<g id="a_node3"><a xlink:title="Catalog application service (HTTP).">
<polygon fill="white" stroke="black" points="407.33,-368.1 410.86,-368.3 414.35,-368.59 417.79,-368.98 421.16,-369.47 424.46,-370.05 427.67,-370.73 430.77,-371.5 433.76,-372.35 436.62,-373.29 439.34,-374.32 441.92,-375.43 444.34,-376.62 446.6,-377.88 448.69,-379.21 450.61,-380.61 452.35,-382.08 453.9,-383.6 455.26,-385.18 456.44,-386.82 457.43,-388.5 458.23,-390.22 458.84,-391.98 459.27,-393.77 459.52,-395.59 459.58,-397.44 459.47,-399.3 459.19,-401.17 458.75,-403.06 458.15,-404.94 457.4,-406.83 456.5,-408.7 455.47,-410.56 454.31,-412.41 453.02,-414.23 451.62,-416.02 450.11,-417.78 448.51,-419.5 446.81,-421.18 445.04,-422.82 443.18,-424.4 441.26,-425.92 439.27,-427.39 437.23,-428.79 435.14,-430.12 433.01,-431.38 430.83,-432.57 428.63,-433.68 426.39,-434.71 424.13,-435.65 421.85,-436.5 419.55,-437.27 417.24,-437.95 414.91,-438.53 412.58,-439.02 410.23,-439.41 407.89,-439.7 405.53,-439.9 403.18,-440 400.82,-440 398.47,-439.9 396.11,-439.7 393.77,-439.41 391.42,-439.02 389.09,-438.53 386.76,-437.95 384.45,-437.27 382.15,-436.5 379.87,-435.65 377.61,-434.71 375.37,-433.68 373.17,-432.57 370.99,-431.38 368.86,-430.12 366.77,-428.79 364.73,-427.39 362.74,-425.92 360.82,-424.4 358.96,-422.82 357.19,-421.18 355.49,-419.5 353.89,-417.78 352.38,-416.02 350.98,-414.23 349.69,-412.41 348.53,-410.56 347.5,-408.7 346.6,-406.83 345.85,-404.94 345.25,-403.06 344.81,-401.17 344.53,-399.3 344.42,-397.44 344.48,-395.59 344.73,-393.77 345.16,-391.98 345.77,-390.22 346.57,-388.5 347.56,-386.82 348.74,-385.18 350.1,-383.6 351.65,-382.08 353.39,-380.61 355.31,-379.21 357.4,-377.88 359.66,-376.62 362.08,-375.43 364.66,-374.32 367.38,-373.29 370.24,-372.35 373.23,-371.5 376.33,-370.73 379.54,-370.05 382.84,-369.47 386.21,-368.98 389.65,-368.59 393.14,-368.3 396.67,-368.1 400.22,-368 403.78,-368 407.33,-368.1"/>
<text xml:space="preserve" text-anchor="middle" x="402" y="-399.8" font-family="sans-serif" font-size="14.00">CatalogService</text>
</a>
</g>
</g>
<!-- #/domains/edge_&amp;_experience/subdomains/mobile/boundedcontexts/mobile_bff/services/shopping_bff&#45;&gt;#/domains/commerce/subdomains/catalog/boundedcontexts/catalog/services/catalog_service -->
<g id="edge2" class="edge">
<title>#/domains/edge_&amp;_experience/subdomains/mobile/boundedcontexts/mobile_bff/services/shopping_bff&#45;&gt;#/domains/commerce/subdomains/catalog/boundedcontexts/catalog/services/catalog_service</title>
<path fill="none" stroke="black" d="M516.18,-661.1C483.47,-643.96 442.87,-616.84 421.24,-580 398.31,-540.95 395.48,-488.47 397.16,-451.2"/>
<polygon fill="black" stroke="black" points="400.63,-451.85 397.72,-441.66 393.64,-451.44 400.63,-451.85"/>
<text xml:space="preserve" text-anchor="middle" x="455.12" y="-571" font-family="sans-serif" font-size="10.00">GetCatalogItems</text>
<g id="a_edge2&#45;headlabel"><a xlink:title="open&#45;host&#45;service">
<text xml:space="preserve" text-anchor="middle" x="397.81" y="-437.15" font-family="sans-serif" font-size="10.00">OHS</text>
</a>
</g>
<g id="a_edge2&#45;taillabel"><a xlink:title="anti&#45;corruption&#45;layer">
<text xml:space="preserve" text-anchor="middle" x="516.18" y="-658.1" font-family="sans-serif" font-size="10.00">ACL</text>
</a>
</g>
</g>
<!-- #/domains/commerce/subdomains/basket/boundedcontexts/basket/services/basket_service -->
<g id="node4" class="node">
<title>#/domains/commerce/subdomains/basket/boundedcontexts/basket/services/basket_service</title>
<g id="a_node4"><a xlink:title="Basket application service.">
<polygon fill="white" stroke="black" points="622.32,-368.1 625.84,-368.3 629.33,-368.59 632.76,-368.98 636.13,-369.47 639.42,-370.05 642.63,-370.73 645.72,-371.5 648.71,-372.35 651.56,-373.29 654.28,-374.32 656.85,-375.43 659.27,-376.62 661.53,-377.88 663.62,-379.21 665.53,-380.61 667.26,-382.08 668.81,-383.6 670.17,-385.18 671.35,-386.82 672.34,-388.5 673.14,-390.22 673.75,-391.98 674.18,-393.77 674.42,-395.59 674.49,-397.44 674.38,-399.3 674.1,-401.17 673.66,-403.06 673.06,-404.94 672.31,-406.83 671.41,-408.7 670.38,-410.56 669.22,-412.41 667.94,-414.23 666.54,-416.02 665.03,-417.78 663.43,-419.5 661.74,-421.18 659.96,-422.82 658.11,-424.4 656.19,-425.92 654.21,-427.39 652.17,-428.79 650.09,-430.12 647.96,-431.38 645.79,-432.57 643.58,-433.68 641.35,-434.71 639.1,-435.65 636.82,-436.5 634.52,-437.27 632.21,-437.95 629.89,-438.53 627.56,-439.02 625.22,-439.41 622.88,-439.7 620.53,-439.9 618.18,-440 615.82,-440 613.47,-439.9 611.12,-439.7 608.78,-439.41 606.44,-439.02 604.11,-438.53 601.79,-437.95 599.48,-437.27 597.18,-436.5 594.9,-435.65 592.65,-434.71 590.42,-433.68 588.21,-432.57 586.04,-431.38 583.91,-430.12 581.83,-428.79 579.79,-427.39 577.81,-425.92 575.89,-424.4 574.04,-422.82 572.26,-421.18 570.57,-419.5 568.97,-417.78 567.46,-416.02 566.06,-414.23 564.78,-412.41 563.62,-410.56 562.59,-408.7 561.69,-406.83 560.94,-404.94 560.34,-403.06 559.9,-401.17 559.62,-399.3 559.51,-397.44 559.58,-395.59 559.82,-393.77 560.25,-391.98 560.86,-390.22 561.66,-388.5 562.65,-386.82 563.83,-385.18 565.19,-383.6 566.74,-382.08 568.47,-380.61 570.38,-379.21 572.47,-377.88 574.73,-376.62 577.15,-375.43 579.72,-374.32 582.44,-373.29 585.29,-372.35 588.28,-371.5 591.37,-370.73 594.58,-370.05 597.87,-369.47 601.24,-368.98 604.67,-368.59 608.16,-368.3 611.68,-368.1 615.22,-368 618.78,-368 622.32,-368.1"/>
<text xml:space="preserve" text-anchor="middle" x="617" y="-399.8" font-family="sans-serif" font-size="14.00">BasketService</text>
</a>
</g>
</g>
<!-- #/domains/edge_&amp;_experience/subdomains/mobile/boundedcontexts/mobile_bff/services/shopping_bff&#45;&gt;#/domains/commerce/subdomains/basket/boundedcontexts/basket/services/basket_service -->
<g id="edge3" class="edge">
<title>#/domains/edge_&amp;_experience/subdomains/mobile/boundedcontexts/mobile_bff/services/shopping_bff&#45;&gt;#/domains/commerce/subdomains/basket/boundedcontexts/basket/services/basket_service</title>
<path fill="none" stroke="black" d="M534.17,-652.16C515.01,-629.75 496,-598.19 505.34,-568 520.32,-519.63 555.15,-472.84 581.96,-441.9"/>
<polygon fill="black" stroke="black" points="584.29,-444.55 588.29,-434.74 579.04,-439.92 584.29,-444.55"/>
<text xml:space="preserve" text-anchor="middle" x="526.17" y="-571" font-family="sans-serif" font-size="10.00">GetBasket</text>
<g id="a_edge3&#45;headlabel"><a xlink:title="open&#45;host&#45;service">
<text xml:space="preserve" text-anchor="middle" x="589.29" y="-430.6" font-family="sans-serif" font-size="10.00">OHS</text>
</a>
</g>
<g id="a_edge3&#45;taillabel"><a xlink:title="anti&#45;corruption&#45;layer">
<text xml:space="preserve" text-anchor="middle" x="534.17" y="-649.16" font-family="sans-serif" font-size="10.00">ACL</text>
</a>
</g>
</g>
<!-- #/domains/edge_&amp;_experience/subdomains/mobile/boundedcontexts/mobile_bff/services/shopping_bff&#45;&gt;#/domains/commerce/subdomains/basket/boundedcontexts/basket/services/basket_service -->
<g id="edge4" class="edge">
<title>#/domains/edge_&amp;_experience/subdomains/mobile/boundedcontexts/mobile_bff/services/shopping_bff&#45;&gt;#/domains/commerce/subdomains/basket/boundedcontexts/basket/services/basket_service</title>
<path fill="none" stroke="black" d="M572.46,-647.79C581.62,-597.87 598.39,-506.44 608.53,-451.15"/>
<polygon fill="black" stroke="black" points="611.96,-451.88 610.32,-441.41 605.07,-450.62 611.96,-451.88"/>
<text xml:space="preserve" text-anchor="middle" x="604.71" y="-571" font-family="sans-serif" font-size="10.00">AddItem</text>
<g id="a_edge4&#45;headlabel"><a xlink:title="open&#45;host&#45;service">
<text xml:space="preserve" text-anchor="middle" x="610.59" y="-436.92" font-family="sans-serif" font-size="10.00">OHS</text>
</a>
</g>
<g id="a_edge4&#45;taillabel"><a xlink:title="anti&#45;corruption&#45;layer">
<text xml:space="preserve" text-anchor="middle" x="572.46" y="-644.79" font-family="sans-serif" font-size="10.00">ACL</text>
</a>
</g>
</g>
<!-- #/domains/edge_&amp;_experience/subdomains/mobile/boundedcontexts/mobile_bff/services/shopping_bff&#45;&gt;#/domains/commerce/subdomains/basket/boundedcontexts/basket/services/basket_service -->
<g id="edge5" class="edge">
<title>#/domains/edge_&amp;_experience/subdomains/mobile/boundedcontexts/mobile_bff/services/shopping_bff&#45;&gt;#/domains/commerce/subdomains/basket/boundedcontexts/basket/services/basket_service</title>
<path fill="none" stroke="black" d="M594.9,-651.34C610.36,-632.2 627.86,-606.45 636,-580 649.18,-537.17 641.03,-485.99 631.66,-450.08"/>
<polygon fill="black" stroke="black" points="635.03,-449.15 629,-440.44 628.28,-451.02 635.03,-449.15"/>
<text xml:space="preserve" text-anchor="middle" x="662.89" y="-571" font-family="sans-serif" font-size="10.00">ClearBasket</text>
<g id="a_edge5&#45;headlabel"><a xlink:title="open&#45;host&#45;service">
<text xml:space="preserve" text-anchor="middle" x="628.6" y="-435.99" font-family="sans-serif" font-size="10.00">OHS</text>
</a>
</g>
<g id="a_edge5&#45;taillabel"><a xlink:title="anti&#45;corruption&#45;layer">
<text xml:space="preserve" text-anchor="middle" x="594.9" y="-648.34" font-family="sans-serif" font-size="10.00">ACL</text>
</a>
</g>
</g>
<!-- #/domains/commerce/subdomains/ordering/boundedcontexts/ordering/services/ordering_service -->
<g id="node5" class="node">
<title>#/domains/commerce/subdomains/ordering/boundedcontexts/ordering/services/ordering_service</title>
<g id="a_node5"><a xlink:title="Ordering application service.">
<polygon fill="white" stroke="black" points="841.7,-368.1 845.47,-368.3 849.2,-368.59 852.88,-368.98 856.48,-369.47 860.01,-370.05 863.44,-370.73 866.75,-371.5 869.95,-372.35 873,-373.29 875.92,-374.32 878.67,-375.43 881.26,-376.62 883.68,-377.88 885.91,-379.21 887.96,-380.61 889.81,-382.08 891.47,-383.6 892.93,-385.18 894.19,-386.82 895.25,-388.5 896.1,-390.22 896.76,-391.98 897.22,-393.77 897.48,-395.59 897.55,-397.44 897.43,-399.3 897.13,-401.17 896.66,-403.06 896.02,-404.94 895.22,-406.83 894.26,-408.7 893.15,-410.56 891.91,-412.41 890.53,-414.23 889.04,-416.02 887.43,-417.78 885.71,-419.5 883.9,-421.18 882,-422.82 880.02,-424.4 877.96,-425.92 875.84,-427.39 873.66,-428.79 871.42,-430.12 869.14,-431.38 866.82,-432.57 864.46,-433.68 862.07,-434.71 859.66,-435.65 857.22,-436.5 854.76,-437.27 852.29,-437.95 849.8,-438.53 847.31,-439.02 844.8,-439.41 842.29,-439.7 839.78,-439.9 837.26,-440 834.74,-440 832.22,-439.9 829.71,-439.7 827.2,-439.41 824.69,-439.02 822.2,-438.53 819.71,-437.95 817.24,-437.27 814.78,-436.5 812.34,-435.65 809.93,-434.71 807.54,-433.68 805.18,-432.57 802.86,-431.38 800.58,-430.12 798.34,-428.79 796.16,-427.39 794.04,-425.92 791.98,-424.4 790,-422.82 788.1,-421.18 786.29,-419.5 784.57,-417.78 782.96,-416.02 781.47,-414.23 780.09,-412.41 778.85,-410.56 777.74,-408.7 776.78,-406.83 775.98,-404.94 775.34,-403.06 774.87,-401.17 774.57,-399.3 774.45,-397.44 774.52,-395.59 774.78,-393.77 775.24,-391.98 775.9,-390.22 776.75,-388.5 777.81,-386.82 779.07,-385.18 780.53,-383.6 782.19,-382.08 784.04,-380.61 786.09,-379.21 788.32,-377.88 790.74,-376.62 793.33,-375.43 796.08,-374.32 799,-373.29 802.05,-372.35 805.25,-371.5 808.56,-370.73 811.99,-370.05 815.52,-369.47 819.12,-368.98 822.8,-368.59 826.53,-368.3 830.3,-368.1 834.1,-368 837.9,-368 841.7,-368.1"/>
<text xml:space="preserve" text-anchor="middle" x="836" y="-399.8" font-family="sans-serif" font-size="14.00">OrderingService</text>
</a>
</g>
</g>
<!-- #/domains/edge_&amp;_experience/subdomains/mobile/boundedcontexts/mobile_bff/services/shopping_bff&#45;&gt;#/domains/commerce/subdomains/ordering/boundedcontexts/ordering/services/ordering_service -->
<g id="edge6" class="edge">
<title>#/domains/edge_&amp;_experience/subdomains/mobile/boundedcontexts/mobile_bff/services/shopping_bff&#45;&gt;#/domains/commerce/subdomains/ordering/boundedcontexts/ordering/services/ordering_service</title>
<path fill="none" stroke="black" d="M607.22,-655.81C635.18,-636.38 672.16,-608.69 701,-580 742.83,-538.39 783.11,-483.63 808.62,-446.53"/>
<polygon fill="black" stroke="black" points="811.5,-448.52 814.24,-438.28 805.72,-444.58 811.5,-448.52"/>
<text xml:space="preserve" text-anchor="middle" x="731.82" y="-571" font-family="sans-serif" font-size="10.00">PlaceOrder</text>
<g id="a_edge6&#45;headlabel"><a xlink:title="open&#45;host&#45;service">
<text xml:space="preserve" text-anchor="middle" x="815.09" y="-434.03" font-family="sans-serif" font-size="10.00">OHS</text>
</a>
</g>
<g id="a_edge6&#45;taillabel"><a xlink:title="anti&#45;corruption&#45;layer">
<text xml:space="preserve" text-anchor="middle" x="607.22" y="-652.81" font-family="sans-serif" font-size="10.00">ACL</text>
</a>
</g>
</g>
<!-- #/domains/payment_processing/subdomains/payment_processors/boundedcontexts/payment_processor/services/payment_service -->
<g id="node6" class="node">
<title>#/domains/payment_processing/subdomains/payment_processors/boundedcontexts/payment_processor/services/payment_service</title>
<g id="a_node6"><a xlink:title="Takes payments and emits status changes.">
<polygon fill="white" stroke="black" points="798.61,-88.1 802.33,-88.3 806.01,-88.59 809.64,-88.98 813.19,-89.47 816.67,-90.05 820.05,-90.73 823.32,-91.5 826.46,-92.35 829.48,-93.29 832.35,-94.32 835.06,-95.43 837.62,-96.62 840,-97.88 842.2,-99.21 844.22,-100.61 846.05,-102.08 847.68,-103.6 849.12,-105.18 850.36,-106.82 851.4,-108.5 852.25,-110.22 852.89,-111.98 853.34,-113.77 853.6,-115.59 853.67,-117.44 853.56,-119.3 853.26,-121.17 852.8,-123.06 852.16,-124.94 851.37,-126.83 850.43,-128.7 849.34,-130.56 848.11,-132.41 846.76,-134.23 845.28,-136.02 843.7,-137.78 842.01,-139.5 840.22,-141.18 838.35,-142.82 836.39,-144.4 834.36,-145.92 832.27,-147.39 830.12,-148.79 827.92,-150.12 825.67,-151.38 823.38,-152.57 821.06,-153.68 818.7,-154.71 816.32,-155.65 813.92,-156.5 811.49,-157.27 809.06,-157.95 806.61,-158.53 804.15,-159.02 801.68,-159.41 799.2,-159.7 796.72,-159.9 794.24,-160 791.76,-160 789.28,-159.9 786.8,-159.7 784.32,-159.41 781.85,-159.02 779.39,-158.53 776.94,-157.95 774.51,-157.27 772.08,-156.5 769.68,-155.65 767.3,-154.71 764.94,-153.68 762.62,-152.57 760.33,-151.38 758.08,-150.12 755.88,-148.79 753.73,-147.39 751.64,-145.92 749.61,-144.4 747.65,-142.82 745.78,-141.18 743.99,-139.5 742.3,-137.78 740.72,-136.02 739.24,-134.23 737.89,-132.41 736.66,-130.56 735.57,-128.7 734.63,-126.83 733.84,-124.94 733.2,-123.06 732.74,-121.17 732.44,-119.3 732.33,-117.44 732.4,-115.59 732.66,-113.77 733.11,-111.98 733.75,-110.22 734.6,-108.5 735.64,-106.82 736.88,-105.18 738.32,-103.6 739.95,-102.08 741.78,-100.61 743.8,-99.21 746,-97.88 748.38,-96.62 750.94,-95.43 753.65,-94.32 756.52,-93.29 759.54,-92.35 762.68,-91.5 765.95,-90.73 769.33,-90.05 772.81,-89.47 776.36,-88.98 779.99,-88.59 783.67,-88.3 787.39,-88.1 791.13,-88 794.87,-88 798.61,-88.1"/>
<text xml:space="preserve" text-anchor="middle" x="793" y="-119.8" font-family="sans-serif" font-size="14.00">PaymentService</text>
</a>
</g>
</g>
<!-- #/domains/commerce/subdomains/ordering/boundedcontexts/ordering/services/ordering_service&#45;&gt;#/domains/payment_processing/subdomains/payment_processors/boundedcontexts/payment_processor/services/payment_service -->
<g id="edge7" class="edge">
<title>#/domains/commerce/subdomains/ordering/boundedcontexts/ordering/services/ordering_service&#45;&gt;#/domains/payment_processing/subdomains/payment_processors/boundedcontexts/payment_processor/services/payment_service</title>
<path fill="none" stroke="black" d="M790.56,-376.29C764.77,-358.34 734.85,-332.12 720.45,-300 699.5,-253.24 730.92,-198.58 758.72,-162.95"/>
<polygon fill="black" stroke="black" points="761.18,-165.48 764.73,-155.5 755.73,-161.09 761.18,-165.48"/>
<text xml:space="preserve" text-anchor="middle" x="753.23" y="-291" font-family="sans-serif" font-size="10.00">ProcessPayment</text>
<g id="a_edge7&#45;headlabel"><a xlink:title="open&#45;host&#45;service">
<text xml:space="preserve" text-anchor="middle" x="765.68" y="-151.32" font-family="sans-serif" font-size="10.00">OHS</text>
</a>
</g>
<g id="a_edge7&#45;taillabel"><a xlink:title="customer&#45;supplier">
<text xml:space="preserve" text-anchor="middle" x="790.56" y="-373.29" font-family="sans-serif" font-size="10.00">C/s</text>
</a>
</g>
</g>
<!-- #/domains/commerce/subdomains/ordering/boundedcontexts/ordering/services/ordering_service&#45;&gt;#/domains/payment_processing/subdomains/payment_processors/boundedcontexts/payment_processor/services/payment_service -->
<g id="edge8" class="edge">
<title>#/domains/commerce/subdomains/ordering/boundedcontexts/ordering/services/ordering_service&#45;&gt;#/domains/payment_processing/subdomains/payment_processors/boundedcontexts/payment_processor/services/payment_service</title>
<path fill="none" stroke="black" d="M830.55,-367.79C822.83,-317.87 808.69,-226.44 800.14,-171.15"/>
<polygon fill="black" stroke="black" points="803.62,-170.77 798.63,-161.42 796.7,-171.84 803.62,-170.77"/>
<text xml:space="preserve" text-anchor="middle" x="858.49" y="-291" font-family="sans-serif" font-size="10.00">PaymentSucceeded</text>
<g id="a_edge8&#45;headlabel"><a xlink:title="published&#45;language">
<text xml:space="preserve" text-anchor="middle" x="798.4" y="-156.92" font-family="sans-serif" font-size="10.00">PL</text>
</a>
</g>
<g id="a_edge8&#45;taillabel"><a xlink:title="conformist">
<text xml:space="preserve" text-anchor="middle" x="830.55" y="-364.79" font-family="sans-serif" font-size="10.00">C</text>
</a>
</g>
</g>
</g>
</svg>
