<?xml version="1.0" encoding="UTF-8" standalone="no"?>
<?xml-stylesheet href="data:text/css,.graph%20text%20%7B%0A%09font-family%3A%20sans-serif%3B%0A%09stroke%3A%20white%3B%0A%09paint-order%3A%20stroke%3B%0A%09stroke-width%3A%203%3B%0A%09stroke-linecap%3A%20square%3B%0A%7D%0A%0A.namespace%20polygon%20%7B%0A%09fill-opacity%3A%200.2%3B%0A%09stroke%3A%20none%3B%0A%7D%0A" type="text/css"?>
<!DOCTYPE svg PUBLIC "-//W3C//DTD SVG 1.1//EN"
 "http://www.w3.org/Graphics/SVG/1.1/DTD/svg11.dtd">
<!-- Generated by graphviz version 13.1.2 (0)
 -->
<!-- Pages: 1 -->
<svg width="298pt" height="556pt"
 viewBox="0.00 0.00 298.00 556.00" xmlns="http://www.w3.org/2000/svg" xmlns:xlink="http://www.w3.org/1999/xlink">
<g id="graph0" class="graph" transform="scale(1 1) rotate(0) translate(4 552)">
<polygon fill="white" stroke="none" points="-4,4 -4,-552 294,-552 294,4 -4,4"/>
<g id="clust1" class="cluster namespace">
<title>swagger_petstore_(v3)</title>
<polygon fill="lightgrey" stroke="lightgrey" points="8,-8 8,-540 282,-540 282,-8 8,-8"/>
<text xml:space="preserve" text-anchor="middle" x="145" y="-527" font-family="sans-serif" font-size="10.00">Swagger Petstore (v3)</text>
</g>
<g id="clust2" class="cluster namespace">
<title>#/domains/petstore_commerce</title>
<polygon fill="lightgrey" stroke="lightgrey" points="28,-28 28,-500 262,-500 262,-28 28,-28"/>
<text xml:space="preserve" text-anchor="middle" x="145" y="-487" font-family="sans-serif" font-size="10.00">Petstore Commerce</text>
</g>
<g id="clust3" class="cluster namespace">
<title>#/domains/petstore_commerce/subdomains/catalog</title>
<polygon fill="lightgrey" stroke="lightgrey" points="48,-48 48,-240 242,-240 242,-48 48,-48"/>
<text xml:space="preserve" text-anchor="middle" x="145" y="-227" font-family="sans-serif" font-size="10.00">Catalog</text>
</g>
<g id="clust4" class="cluster namespace">
<title>#/domains/petstore_commerce/subdomains/catalog/boundedcontexts/catalog_bc</title>
<polygon fill="lightgrey" stroke="lightgrey" points="68,-68 68,-200 222,-200 222,-68 68,-68"/>
<text xml:space="preserve" text-anchor="middle" x="145" y="-187" font-family="sans-serif" font-size="10.00">Catalog BC</text>
</g>
<g id="clust5" class="cluster namespace">
<title>#/domains/petstore_commerce/subdomains/sales</title>
<polygon fill="lightgrey" stroke="lightgrey" points="48,-268 48,-460 242,-460 242,-268 48,-268"/>
<text xml:space="preserve" text-anchor="middle" x="145" y="-447" font-family="sans-serif" font-size="10.00">Sales</text>
</g>
<g id="clust6" class="cluster namespace">
<title>#/domains/petstore_commerce/subdomains/sales/boundedcontexts/sales_bc</title>
<polygon fill="lightgrey" stroke="lightgrey" points="68,-288 68,-420 222,-420 222,-288 68,-288"/>
<text xml:space="preserve" text-anchor="middle" x="145" y="-407" font-family="sans-serif" font-size="10.00">Sales BC</text>
</g>
<!-- #/domains/petstore_commerce/subdomains/catalog/boundedcontexts/catalog_bc/services/pet_app -->
<g id="node1" class="node">
<title>#/domains/petstore_commerce/subdomains/catalog/boundedcontexts/catalog_bc/services/pet_app</title>
<g id="a_node1"><a xlink:title="Open&#45;host service for /pet endpoints">
<polygon fill="white" stroke="black" points="150.32,-88.1 153.84,-88.3 157.33,-88.59 160.76,-88.98 164.13,-89.47 167.42,-90.05 170.63,-90.73 173.72,-91.5 176.71,-92.35 179.56,-93.29 182.28,-94.32 184.85,-95.43 187.27,-96.62 189.53,-97.88 191.62,-99.21 193.53,-100.61 195.26,-102.08 196.81,-103.6 198.17,-105.18 199.35,-106.82 200.34,-108.5 201.14,-110.22 201.75,-111.98 202.18,-113.77 202.42,-115.59 202.49,-117.44 202.38,-119.3 202.1,-121.17 201.66,-123.06 201.06,-124.94 200.31,-126.83 199.41,-128.7 198.38,-130.56 197.22,-132.41 195.94,-134.23 194.54,-136.02 193.03,-137.78 191.43,-139.5 189.74,-141.18 187.96,-142.82 186.11,-144.4 184.19,-145.92 182.21,-147.39 180.17,-148.79 178.09,-150.12 175.96,-151.38 173.79,-152.57 171.58,-153.68 169.35,-154.71 167.1,-155.65 164.82,-156.5 162.52,-157.27 160.21,-157.95 157.89,-158.53 155.56,-159.02 153.22,-159.41 150.88,-159.7 148.53,-159.9 146.18,-160 143.82,-160 141.47,-159.9 139.12,-159.7 136.78,-159.41 134.44,-159.02 132.11,-158.53 129.79,-157.95 127.48,-157.27 125.18,-156.5 122.9,-155.65 120.65,-154.71 118.42,-153.68 116.21,-152.57 114.04,-151.38 111.91,-150.12 109.83,-148.79 107.79,-147.39 105.81,-145.92 103.89,-144.4 102.04,-142.82 100.26,-141.18 98.57,-139.5 96.97,-137.78 95.46,-136.02 94.06,-134.23 92.78,-132.41 91.62,-130.56 90.59,-128.7 89.69,-126.83 88.94,-124.94 88.34,-123.06 87.9,-121.17 87.62,-119.3 87.51,-117.44 87.58,-115.59 87.82,-113.77 88.25,-111.98 88.86,-110.22 89.66,-108.5 90.65,-106.82 91.83,-105.18 93.19,-103.6 94.74,-102.08 96.47,-100.61 98.38,-99.21 100.47,-97.88 102.73,-96.62 105.15,-95.43 107.72,-94.32 110.44,-93.29 113.29,-92.35 116.28,-91.5 119.37,-90.73 122.58,-90.05 125.87,-89.47 129.24,-88.98 132.67,-88.59 136.16,-88.3 139.68,-88.1 143.22,-88 146.78,-88 150.32,-88.1"/>
<text xml:space="preserve" text-anchor="middle" x="145" y="-119.8" font-family="sans-serif" font-size="14.00">PetApp</text>
</a>
</g>
</g>
<!-- #/domains/petstore_commerce/subdomains/sales/boundedcontexts/sales_bc/services/order_app -->
<g id="node2" class="node">
<title>#/domains/petstore_commerce/subdomains/sales/boundedcontexts/sales_bc/services/order_app</title>
<g id="a_node2"><a xlink:title="Owns Order aggregate &amp; order&#45;facing operations">
<polygon fill="white" stroke="black" points="150.32,-308.1 153.84,-308.3 157.33,-308.59 160.76,-308.98 164.13,-309.47 167.42,-310.05 170.63,-310.73 173.72,-311.5 176.71,-312.35 179.56,-313.29 182.28,-314.32 184.85,-315.43 187.27,-316.62 189.53,-317.88 191.62,-319.21 193.53,-320.61 195.26,-322.08 196.81,-323.6 198.17,-325.18 199.35,-326.82 200.34,-328.5 201.14,-330.22 201.75,-331.98 202.18,-333.77 202.42,-335.59 202.49,-337.44 202.38,-339.3 202.1,-341.17 201.66,-343.06 201.06,-344.94 200.31,-346.83 199.41,-348.7 198.38,-350.56 197.22,-352.41 195.94,-354.23 194.54,-356.02 193.03,-357.78 191.43,-359.5 189.74,-361.18 187.96,-362.82 186.11,-364.4 184.19,-365.92 182.21,-367.39 180.17,-368.79 178.09,-370.12 175.96,-371.38 173.79,-372.57 171.58,-373.68 169.35,-374.71 167.1,-375.65 164.82,-376.5 162.52,-377.27 160.21,-377.95 157.89,-378.53 155.56,-379.02 153.22,-379.41 150.88,-379.7 148.53,-379.9 146.18,-380 143.82,-380 141.47,-379.9 139.12,-379.7 136.78,-379.41 134.44,-379.02 132.11,-378.53 129.79,-377.95 127.48,-377.27 125.18,-376.5 122.9,-375.65 120.65,-374.71 118.42,-373.68 116.21,-372.57 114.04,-371.38 111.91,-370.12 109.83,-368.79 107.79,-367.39 105.81,-365.92 103.89,-364.4 102.04,-362.82 100.26,-361.18 98.57,-359.5 96.97,-357.78 95.46,-356.02 94.06,-354.23 92.78,-352.41 91.62,-350.56 90.59,-348.7 89.69,-346.83 88.94,-344.94 88.34,-343.06 87.9,-341.17 87.62,-339.3 87.51,-337.44 87.58,-335.59 87.82,-333.77 88.25,-331.98 88.86,-330.22 89.66,-328.5 90.65,-326.82 91.83,-325.18 93.19,-323.6 94.74,-322.08 96.47,-320.61 98.38,-319.21 100.47,-317.88 102.73,-316.62 105.15,-315.43 107.72,-314.32 110.44,-313.29 113.29,-312.35 116.28,-311.5 119.37,-310.73 122.58,-310.05 125.87,-309.47 129.24,-308.98 132.67,-308.59 136.16,-308.3 139.68,-308.1 143.22,-308 146.78,-308 150.32,-308.1"/>
<text xml:space="preserve" text-anchor="middle" x="145" y="-339.8" font-family="sans-serif" font-size="14.00">OrderApp</text>
</a>
</g>
</g>
<!-- #/domains/petstore_commerce/subdomains/sales/boundedcontexts/sales_bc/services/order_app&#45;&gt;#/domains/petstore_commerce/subdomains/catalog/boundedcontexts/catalog_bc/services/pet_app -->
<g id="edge1" class="edge">
<title>#/domains/petstore_commerce/subdomains/sales/boundedcontexts/sales_bc/services/order_app&#45;&gt;#/domains/petstore_commerce/subdomains/catalog/boundedcontexts/catalog_bc/services/pet_app</title>
<path fill="none" stroke="black" d="M145,-307.97C145,-270.98 145,-212.46 145,-171.59"/>
<polygon fill="black" stroke="black" points="148.5,-171.81 145,-161.81 141.5,-171.81 148.5,-171.81"/>
<text xml:space="preserve" text-anchor="middle" x="178.05" y="-251" font-family="sans-serif" font-size="10.00">GetPetSummary</text>
<g id="a_edge1&#45;headlabel"><a xlink:title="open&#45;host&#45;service">
<text xml:space="preserve" text-anchor="middle" x="145" y="-157.3" font-family="sans-serif" font-size="10.00">OHS</text>
</a>
</g>
<g id="a_edge1&#45;taillabel"><a xlink:title="anti&#45;corruption&#45;layer">
<text xml:space="preserve" text-anchor="middle" x="145" y="-304.97" font-family="sans-serif" font-size="10.00">ACL</text>
</a>
</g>
</g>
</g>
</svg>
