<?xml version="1.0" encoding="UTF-8" standalone="no"?>
<?xml-stylesheet href="data:text/css,.graph%20text%20%7B%0A%09font-family%3A%20sans-serif%3B%0A%09stroke%3A%20white%3B%0A%09paint-order%3A%20stroke%3B%0A%09stroke-width%3A%203%3B%0A%09stroke-linecap%3A%20square%3B%0A%7D%0A%0A.namespace%20polygon%20%7B%0A%09fill-opacity%3A%200.2%3B%0A%09stroke%3A%20none%3B%0A%7D%0A" type="text/css"?>
<!DOCTYPE svg PUBLIC "-//W3C//DTD SVG 1.1//EN"
 "http://www.w3.org/Graphics/SVG/1.1/DTD/svg11.dtd">
<!-- Generated by graphviz version 13.1.2 (0)
 -->
<!-- Pages: 1 -->
<svg width="910pt" height="972pt"
 viewBox="0.00 0.00 910.00 972.00" xmlns="http://www.w3.org/2000/svg" xmlns:xlink="http://www.w3.org/1999/xlink">
<g id="graph0" class="graph" transform="scale(1 1) rotate(0) translate(4 968)">
<polygon fill="white" stroke="none" points="-4,4 -4,-968 906,-968 906,4 -4,4"/>
<g id="clust1" class="cluster namespace">
<title>e_shop_on_containers</title>
<polygon fill="lightgrey" stroke="lightgrey" points="8,-8 8,-956 894,-956 894,-8 8,-8"/>
<text xml:space="preserve" text-anchor="middle" x="451" y="-943" font-family="sans-serif" font-size="10.00">eShopOnContainers</text>
</g>
<g id="clust2" class="cluster namespace">
<title>#/domains/commerce</title>
<polygon fill="lightgrey" stroke="lightgrey" points="99,-272 99,-672 603,-672 603,-272 99,-272"/>
<text xml:space="preserve" text-anchor="middle" x="351" y="-659" font-family="sans-serif" font-size="10.00">Commerce</text>
</g>
<g id="clust3" class="cluster namespace">
<title>#/domains/commerce/subdomains/cataloging</title>
<polygon fill="lightgrey" stroke="lightgrey" points="119,-292 119,-448 349,-448 349,-292 119,-292"/>
<text xml:space="preserve" text-anchor="middle" x="234" y="-435" font-family="sans-serif" font-size="10.00">Cataloging</text>
</g>
<g id="clust4" class="cluster namespace">
<title>#/domains/commerce/subdomains/cataloging/boundedcontexts/catalog</title>
<polygon fill="lightgrey" stroke="lightgrey" points="139,-312 139,-408 329,-408 329,-312 139,-312"/>
<text xml:space="preserve" text-anchor="middle" x="234" y="-395" font-family="sans-serif" font-size="10.00">Catalog</text>
</g>
<g id="clust5" class="cluster namespace">
<title>#/domains/commerce/subdomains/shopping</title>
<polygon fill="lightgrey" stroke="lightgrey" points="281,-476 281,-632 503,-632 503,-476 281,-476"/>
<text xml:space="preserve" text-anchor="middle" x="392" y="-619" font-family="sans-serif" font-size="10.00">Shopping</text>
</g>
<g id="clust6" class="cluster namespace">
<title>#/domains/commerce/subdomains/shopping/boundedcontexts/basket</title>
<polygon fill="lightgrey" stroke="lightgrey" points="301,-496 301,-592 483,-592 483,-496 301,-496"/>
<text xml:space="preserve" text-anchor="middle" x="392" y="-579" font-family="sans-serif" font-size="10.00">Basket</text>
</g>
<g id="clust7" class="cluster namespace">
<title>#/domains/commerce/subdomains/sales</title>
<polygon fill="lightgrey" stroke="lightgrey" points="369,-292 369,-448 583,-448 583,-292 369,-292"/>
<text xml:space="preserve" text-anchor="middle" x="476" y="-435" font-family="sans-serif" font-size="10.00">Sales</text>
</g>
<g id="clust8" class="cluster namespace">
<title>#/domains/commerce/subdomains/sales/boundedcontexts/ordering</title>
<polygon fill="lightgrey" stroke="lightgrey" points="389,-312 389,-408 563,-408 563,-312 389,-312"/>
<text xml:space="preserve" text-anchor="middle" x="476" y="-395" font-family="sans-serif" font-size="10.00">Ordering</text>
</g>
<g id="clust9" class="cluster namespace">
<title>#/domains/integration</title>
<polygon fill="lightgrey" stroke="lightgrey" points="351,-700 351,-916 623,-916 623,-700 351,-700"/>
<text xml:space="preserve" text-anchor="middle" x="487" y="-903" font-family="sans-serif" font-size="10.00">Integration</text>
</g>
<g id="clust10" class="cluster namespace">
<title>#/domains/integration/subdomains/edge</title>
<polygon fill="lightgrey" stroke="lightgrey" points="371,-720 371,-876 603,-876 603,-720 371,-720"/>
<text xml:space="preserve" text-anchor="middle" x="487" y="-863" font-family="sans-serif" font-size="10.00">Edge</text>
</g>
<g id="clust11" class="cluster namespace">
<title>#/domains/integration/subdomains/edge/boundedcontexts/api_gateway</title>
<polygon fill="lightgrey" stroke="lightgrey" points="391,-740 391,-836 583,-836 583,-740 391,-740"/>
<text xml:space="preserve" text-anchor="middle" x="487" y="-823" font-family="sans-serif" font-size="10.00">ApiGateway</text>
</g>
<g id="clust12" class="cluster namespace">
<title>#/domains/identity&amp;access</title>
<polygon fill="lightgrey" stroke="lightgrey" points="604,-28 604,-244 874,-244 874,-28 604,-28"/>
<text xml:space="preserve" text-anchor="middle" x="739" y="-231" font-family="sans-serif" font-size="10.00">Identity&amp;Access</text>
</g>
<g id="clust13" class="cluster namespace">
<title>#/domains/identity&amp;access/subdomains/auth</title>
<polygon fill="lightgrey" stroke="lightgrey" points="624,-48 624,-204 854,-204 854,-48 624,-48"/>
<text xml:space="preserve" text-anchor="middle" x="739" y="-191" font-family="sans-serif" font-size="10.00">Auth</text>
</g>
<g id="clust14" class="cluster namespace">
<title>#/domains/identity&amp;access/subdomains/auth/boundedcontexts/identity</title>
<polygon fill="lightgrey" stroke="lightgrey" points="644,-68 644,-164 834,-164 834,-68 644,-68"/>
<text xml:space="preserve" text-anchor="middle" x="739" y="-151" font-family="sans-serif" font-size="10.00">Identity</text>
</g>
<g id="clust15" class="cluster namespace">
<title>#/domains/customer_experience</title>
<polygon fill="lightgrey" stroke="lightgrey" points="28,-28 28,-244 584,-244 584,-28 28,-28"/>
<text xml:space="preserve" text-anchor="middle" x="306" y="-231" font-family="sans-serif" font-size="10.00">CustomerExperience</text>
</g>
<g id="clust16" class="cluster namespace">
<title>#/domains/customer_experience/subdomains/promotions</title>
<polygon fill="lightgrey" stroke="lightgrey" points="48,-48 48,-204 298,-204 298,-48 48,-48"/>
<text xml:space="preserve" text-anchor="middle" x="173" y="-191" font-family="sans-serif" font-size="10.00">Promotions</text>
</g>
<g id="clust17" class="cluster namespace">
<title>#/domains/customer_experience/subdomains/promotions/boundedcontexts/marketing</title>
<polygon fill="lightgrey" stroke="lightgrey" points="68,-68 68,-164 278,-164 278,-68 68,-68"/>
<text xml:space="preserve" text-anchor="middle" x="173" y="-151" font-family="sans-serif" font-size="10.00">Marketing</text>
</g>
<g id="clust18" class="cluster namespace">
<title>#/domains/customer_experience/subdomains/geodata</title>
<polygon fill="lightgrey" stroke="lightgrey" points="318,-48 318,-204 564,-204 564,-48 318,-48"/>
<text xml:space="preserve" text-anchor="middle" x="441" y="-191" font-family="sans-serif" font-size="10.00">Geodata</text>
</g>
<g id="clust19" class="cluster namespace">
<title>#/domains/customer_experience/subdomains/geodata/boundedcontexts/locations</title>
<polygon fill="lightgrey" stroke="lightgrey" points="338,-68 338,-164 544,-164 544,-68 338,-68"/>
<text xml:space="preserve" text-anchor="middle" x="441" y="-151" font-family="sans-serif" font-size="10.00">Locations</text>
</g>
<!-- #/domains/commerce/subdomains/cataloging/boundedcontexts/catalog/services/catalog_service -->
<g id="node1" class="node">
<title>#/domains/commerce/subdomains/cataloging/boundedcontexts/catalog/services/catalog_service</title>
<g id="a_node1"><a xlink:title="Queries, pricing updates, stock">
<polygon fill="white" stroke="black" points="240.9,-332.05 245.47,-332.15 249.99,-332.3 254.45,-332.49 258.82,-332.74 263.09,-333.03 267.24,-333.36 271.26,-333.75 275.13,-334.18 278.84,-334.65 282.37,-335.16 285.7,-335.71 288.84,-336.31 291.77,-336.94 294.48,-337.61 296.96,-338.31 299.2,-339.04 301.21,-339.8 302.98,-340.59 304.51,-341.41 305.79,-342.25 306.83,-343.11 307.62,-343.99 308.17,-344.89 308.49,-345.8 308.58,-346.72 308.44,-347.65 308.08,-348.59 307.5,-349.53 306.72,-350.47 305.75,-351.41 304.59,-352.35 303.25,-353.28 301.74,-354.2 300.08,-355.11 298.27,-356.01 296.32,-356.89 294.24,-357.75 292.04,-358.59 289.74,-359.41 287.34,-360.2 284.84,-360.96 282.27,-361.69 279.63,-362.39 276.92,-363.06 274.16,-363.69 271.34,-364.29 268.49,-364.84 265.59,-365.35 262.66,-365.82 259.71,-366.25 256.73,-366.64 253.74,-366.97 250.72,-367.26 247.7,-367.51 244.66,-367.7 241.62,-367.85 238.58,-367.95 235.53,-368 232.47,-368 229.42,-367.95 226.38,-367.85 223.34,-367.7 220.3,-367.51 217.28,-367.26 214.26,-366.97 211.27,-366.64 208.29,-366.25 205.34,-365.82 202.41,-365.35 199.51,-364.84 196.66,-364.29 193.84,-363.69 191.08,-363.06 188.37,-362.39 185.73,-361.69 183.16,-360.96 180.66,-360.2 178.26,-359.41 175.96,-358.59 173.76,-357.75 171.68,-356.89 169.73,-356.01 167.92,-355.11 166.26,-354.2 164.75,-353.28 163.41,-352.35 162.25,-351.41 161.28,-350.47 160.5,-349.53 159.92,-348.59 159.56,-347.65 159.42,-346.72 159.51,-345.8 159.83,-344.89 160.38,-343.99 161.17,-343.11 162.21,-342.25 163.49,-341.41 165.02,-340.59 166.79,-339.8 168.8,-339.04 171.04,-338.31 173.52,-337.61 176.23,-336.94 179.16,-336.31 182.3,-335.71 185.63,-335.16 189.16,-334.65 192.87,-334.18 196.74,-333.75 200.76,-333.36 204.91,-333.03 209.18,-332.74 213.55,-332.49 218.01,-332.3 222.53,-332.15 227.1,-332.05 231.7,-332 236.3,-332 240.9,-332.05"/>
<text xml:space="preserve" text-anchor="middle" x="234" y="-345.8" font-family="sans-serif" font-size="14.00">CatalogService</text>
</a>
</g>
</g>
<!-- #/domains/commerce/subdomains/shopping/boundedcontexts/basket/services/basket_service -->
<g id="node2" class="node">
<title>#/domains/commerce/subdomains/shopping/boundedcontexts/basket/services/basket_service</title>
<g id="a_node2"><a xlink:title="Basket CRUD, pricing snapshot">
<polygon fill="white" stroke="black" points="398.53,-516.05 402.86,-516.15 407.13,-516.3 411.35,-516.49 415.49,-516.74 419.53,-517.03 423.46,-517.36 427.27,-517.75 430.93,-518.18 434.43,-518.65 437.77,-519.16 440.93,-519.71 443.9,-520.31 446.67,-520.94 449.23,-521.61 451.58,-522.31 453.71,-523.04 455.61,-523.8 457.29,-524.59 458.73,-525.41 459.94,-526.25 460.92,-527.11 461.67,-527.99 462.2,-528.89 462.5,-529.8 462.58,-530.72 462.45,-531.65 462.11,-532.59 461.56,-533.53 460.83,-534.47 459.9,-535.41 458.81,-536.35 457.54,-537.28 456.11,-538.2 454.54,-539.11 452.82,-540.01 450.98,-540.89 449.01,-541.75 446.93,-542.59 444.75,-543.41 442.48,-544.2 440.12,-544.96 437.69,-545.69 435.18,-546.39 432.62,-547.06 430.01,-547.69 427.34,-548.29 424.64,-548.84 421.9,-549.35 419.13,-549.82 416.33,-550.25 413.51,-550.64 410.68,-550.97 407.83,-551.26 404.97,-551.51 402.09,-551.7 399.21,-551.85 396.33,-551.95 393.44,-552 390.56,-552 387.67,-551.95 384.79,-551.85 381.91,-551.7 379.03,-551.51 376.17,-551.26 373.32,-550.97 370.49,-550.64 367.67,-550.25 364.87,-549.82 362.1,-549.35 359.36,-548.84 356.66,-548.29 353.99,-547.69 351.38,-547.06 348.82,-546.39 346.31,-545.69 343.88,-544.96 341.52,-544.2 339.25,-543.41 337.07,-542.59 334.99,-541.75 333.02,-540.89 331.18,-540.01 329.46,-539.11 327.89,-538.2 326.46,-537.28 325.19,-536.35 324.1,-535.41 323.17,-534.47 322.44,-533.53 321.89,-532.59 321.55,-531.65 321.42,-530.72 321.5,-529.8 321.8,-528.89 322.33,-527.99 323.08,-527.11 324.06,-526.25 325.27,-525.41 326.71,-524.59 328.39,-523.8 330.29,-523.04 332.42,-522.31 334.77,-521.61 337.33,-520.94 340.1,-520.31 343.07,-519.71 346.23,-519.16 349.57,-518.65 353.07,-518.18 356.73,-517.75 360.54,-517.36 364.47,-517.03 368.51,-516.74 372.65,-516.49 376.87,-516.3 381.14,-516.15 385.47,-516.05 389.82,-516 394.18,-516 398.53,-516.05"/>
<text xml:space="preserve" text-anchor="middle" x="392" y="-529.8" font-family="sans-serif" font-size="14.00">BasketService</text>
</a>
</g>
</g>
<!-- #/domains/commerce/subdomains/shopping/boundedcontexts/basket/services/basket_service&#45;&gt;#/domains/commerce/subdomains/cataloging/boundedcontexts/catalog/services/catalog_service -->
<g id="edge3" class="edge">
<title>#/domains/commerce/subdomains/shopping/boundedcontexts/basket/services/basket_service&#45;&gt;#/domains/commerce/subdomains/cataloging/boundedcontexts/catalog/services/catalog_service</title>
<path fill="none" stroke="black" d="M358.48,-517.18C337.25,-505.85 310.4,-488.91 291.8,-468 268.42,-441.73 252.14,-404.3 242.95,-378.9"/>
<polygon fill="black" stroke="black" points="246.31,-377.89 239.72,-369.59 239.69,-380.19 246.31,-377.89"/>
<text xml:space="preserve" text-anchor="middle" x="335.4" y="-459" font-family="sans-serif" font-size="10.00">ProductPriceChanged</text>
<g id="a_edge3&#45;headlabel"><a xlink:title="published&#45;language">
<text xml:space="preserve" text-anchor="middle" x="239.23" y="-365.16" font-family="sans-serif" font-size="10.00">PL</text>
</a>
</g>
<g id="a_edge3&#45;taillabel"><a xlink:title="conformist">
<text xml:space="preserve" text-anchor="middle" x="358.48" y="-514.18" font-family="sans-serif" font-size="10.00">C</text>
</a>
</g>
</g>
<!-- #/domains/commerce/subdomains/sales/boundedcontexts/ordering/services/ordering_app -->
<g id="node3" class="node">
<title>#/domains/commerce/subdomains/sales/boundedcontexts/ordering/services/ordering_app</title>
<g id="a_node3"><a xlink:title="Start/Place orders">
<polygon fill="white" stroke="black" points="482.16,-332.05 486.24,-332.15 490.28,-332.3 494.26,-332.49 498.16,-332.74 501.98,-333.03 505.68,-333.36 509.27,-333.75 512.73,-334.18 516.03,-334.65 519.18,-335.16 522.16,-335.71 524.97,-336.31 527.58,-336.94 530,-337.61 532.21,-338.31 534.22,-339.04 536.01,-339.8 537.59,-340.59 538.96,-341.41 540.1,-342.25 541.03,-343.11 541.73,-343.99 542.23,-344.89 542.51,-345.8 542.59,-346.72 542.46,-347.65 542.14,-348.59 541.63,-349.53 540.93,-350.47 540.06,-351.41 539.03,-352.35 537.83,-353.28 536.49,-354.2 535,-355.11 533.38,-356.01 531.64,-356.89 529.78,-357.75 527.82,-358.59 525.77,-359.41 523.62,-360.2 521.4,-360.96 519.1,-361.69 516.74,-362.39 514.32,-363.06 511.86,-363.69 509.34,-364.29 506.79,-364.84 504.21,-365.35 501.59,-365.82 498.96,-366.25 496.3,-366.64 493.62,-366.97 490.93,-367.26 488.23,-367.51 485.52,-367.7 482.81,-367.85 480.09,-367.95 477.36,-368 474.64,-368 471.91,-367.95 469.19,-367.85 466.48,-367.7 463.77,-367.51 461.07,-367.26 458.38,-366.97 455.7,-366.64 453.04,-366.25 450.41,-365.82 447.79,-365.35 445.21,-364.84 442.66,-364.29 440.14,-363.69 437.68,-363.06 435.26,-362.39 432.9,-361.69 430.6,-360.96 428.38,-360.2 426.23,-359.41 424.18,-358.59 422.22,-357.75 420.36,-356.89 418.62,-356.01 417,-355.11 415.51,-354.2 414.17,-353.28 412.97,-352.35 411.94,-351.41 411.07,-350.47 410.37,-349.53 409.86,-348.59 409.54,-347.65 409.41,-346.72 409.49,-345.8 409.77,-344.89 410.27,-343.99 410.97,-343.11 411.9,-342.25 413.04,-341.41 414.41,-340.59 415.99,-339.8 417.78,-339.04 419.79,-338.31 422,-337.61 424.42,-336.94 427.03,-336.31 429.84,-335.71 432.82,-335.16 435.97,-334.65 439.27,-334.18 442.73,-333.75 446.32,-333.36 450.02,-333.03 453.84,-332.74 457.74,-332.49 461.72,-332.3 465.76,-332.15 469.84,-332.05 473.94,-332 478.06,-332 482.16,-332.05"/>
<text xml:space="preserve" text-anchor="middle" x="476" y="-345.8" font-family="sans-serif" font-size="14.00">OrderingApp</text>
</a>
</g>
</g>
<!-- #/domains/commerce/subdomains/shopping/boundedcontexts/basket/services/basket_service&#45;&gt;#/domains/commerce/subdomains/sales/boundedcontexts/ordering/services/ordering_app -->
<g id="edge4" class="edge">
<title>#/domains/commerce/subdomains/shopping/boundedcontexts/basket/services/basket_service&#45;&gt;#/domains/commerce/subdomains/sales/boundedcontexts/ordering/services/ordering_app</title>
<path fill="none" stroke="black" d="M390.15,-515.6C389.1,-499.6 389.19,-475.48 396.35,-456 407.85,-424.76 432,-395.12 450.71,-375.35"/>
<polygon fill="black" stroke="black" points="453.08,-377.94 457.54,-368.33 448.06,-373.05 453.08,-377.94"/>
<text xml:space="preserve" text-anchor="middle" x="422.18" y="-459" font-family="sans-serif" font-size="10.00">OrderStarted</text>
<g id="a_edge4&#45;headlabel"><a xlink:title="published&#45;language">
<text xml:space="preserve" text-anchor="middle" x="458.6" y="-364.25" font-family="sans-serif" font-size="10.00">PL</text>
</a>
</g>
<g id="a_edge4&#45;taillabel"><a xlink:title="conformist">
<text xml:space="preserve" text-anchor="middle" x="390.15" y="-512.6" font-family="sans-serif" font-size="10.00">C</text>
</a>
</g>
</g>
<!-- #/domains/commerce/subdomains/sales/boundedcontexts/ordering/services/ordering_app&#45;&gt;#/domains/commerce/subdomains/shopping/boundedcontexts/basket/services/basket_service -->
<g id="edge5" class="edge">
<title>#/domains/commerce/subdomains/sales/boundedcontexts/ordering/services/ordering_app&#45;&gt;#/domains/commerce/subdomains/shopping/boundedcontexts/basket/services/basket_service</title>
<path fill="none" stroke="black" d="M476.65,-368.3C476.83,-392.08 474.57,-435.62 458,-468 449.91,-483.82 436.5,-498.09 423.88,-509.21"/>
<polygon fill="black" stroke="black" points="421.91,-506.29 416.5,-515.41 426.41,-511.65 421.91,-506.29"/>
<text xml:space="preserve" text-anchor="middle" x="484.02" y="-459" font-family="sans-serif" font-size="10.00">GetBasket</text>
<g id="a_edge5&#45;headlabel"><a xlink:title="open&#45;host&#45;service">
<text xml:space="preserve" text-anchor="middle" x="415.34" y="-513.38" font-family="sans-serif" font-size="10.00">OHS</text>
</a>
</g>
<g id="a_edge5&#45;taillabel"><a xlink:title="anti&#45;corruption&#45;layer">
<text xml:space="preserve" text-anchor="middle" x="476.65" y="-365.3" font-family="sans-serif" font-size="10.00">ACL</text>
</a>
</g>
</g>
<!-- #/domains/identity&amp;access/subdomains/auth/boundedcontexts/identity/services/identity_service -->
<g id="node5" class="node">
<title>#/domains/identity&amp;access/subdomains/auth/boundedcontexts/identity/services/identity_service</title>
<g id="a_node5"><a xlink:title="Token issuance, user claims">
<polygon fill="white" stroke="black" points="745.9,-88.05 750.47,-88.15 754.99,-88.3 759.45,-88.49 763.82,-88.74 768.09,-89.03 772.24,-89.36 776.26,-89.75 780.13,-90.18 783.84,-90.65 787.37,-91.16 790.7,-91.71 793.84,-92.31 796.77,-92.94 799.48,-93.61 801.96,-94.31 804.2,-95.04 806.21,-95.8 807.98,-96.59 809.51,-97.41 810.79,-98.25 811.83,-99.11 812.62,-99.99 813.17,-100.89 813.49,-101.8 813.58,-102.72 813.44,-103.65 813.08,-104.59 812.5,-105.53 811.72,-106.47 810.75,-107.41 809.59,-108.35 808.25,-109.28 806.74,-110.2 805.08,-111.11 803.27,-112.01 801.32,-112.89 799.24,-113.75 797.04,-114.59 794.74,-115.41 792.34,-116.2 789.84,-116.96 787.27,-117.69 784.63,-118.39 781.92,-119.06 779.16,-119.69 776.34,-120.29 773.49,-120.84 770.59,-121.35 767.66,-121.82 764.71,-122.25 761.73,-122.64 758.74,-122.97 755.72,-123.26 752.7,-123.51 749.66,-123.7 746.62,-123.85 743.58,-123.95 740.53,-124 737.47,-124 734.42,-123.95 731.38,-123.85 728.34,-123.7 725.3,-123.51 722.28,-123.26 719.26,-122.97 716.27,-122.64 713.29,-122.25 710.34,-121.82 707.41,-121.35 704.51,-120.84 701.66,-120.29 698.84,-119.69 696.08,-119.06 693.37,-118.39 690.73,-117.69 688.16,-116.96 685.66,-116.2 683.26,-115.41 680.96,-114.59 678.76,-113.75 676.68,-112.89 674.73,-112.01 672.92,-111.11 671.26,-110.2 669.75,-109.28 668.41,-108.35 667.25,-107.41 666.28,-106.47 665.5,-105.53 664.92,-104.59 664.56,-103.65 664.42,-102.72 664.51,-101.8 664.83,-100.89 665.38,-99.99 666.17,-99.11 667.21,-98.25 668.49,-97.41 670.02,-96.59 671.79,-95.8 673.8,-95.04 676.04,-94.31 678.52,-93.61 681.23,-92.94 684.16,-92.31 687.3,-91.71 690.63,-91.16 694.16,-90.65 697.87,-90.18 701.74,-89.75 705.76,-89.36 709.91,-89.03 714.18,-88.74 718.55,-88.49 723.01,-88.3 727.53,-88.15 732.1,-88.05 736.7,-88 741.3,-88 745.9,-88.05"/>
<text xml:space="preserve" text-anchor="middle" x="739" y="-101.8" font-family="sans-serif" font-size="14.00">IdentityService</text>
</a>
</g>
</g>
<!-- #/domains/commerce/subdomains/sales/boundedcontexts/ordering/services/ordering_app&#45;&gt;#/domains/identity&amp;access/subdomains/auth/boundedcontexts/identity/services/identity_service -->
<g id="edge6" class="edge">
<title>#/domains/commerce/subdomains/sales/boundedcontexts/ordering/services/ordering_app&#45;&gt;#/domains/identity&amp;access/subdomains/auth/boundedcontexts/identity/services/identity_service</title>
<path fill="none" stroke="black" d="M494.08,-332.37C539.7,-290.39 659.65,-180.01 712.9,-131.02"/>
<polygon fill="black" stroke="black" points="715.04,-133.8 720.03,-124.45 710.3,-128.65 715.04,-133.8"/>
<text xml:space="preserve" text-anchor="middle" x="599.26" y="-255" font-family="sans-serif" font-size="10.00">IssueToken</text>
<g id="a_edge6&#45;headlabel"><a xlink:title="open&#45;host&#45;service">
<text xml:space="preserve" text-anchor="middle" x="721.14" y="-120.43" font-family="sans-serif" font-size="10.00">OHS</text>
</a>
</g>
<g id="a_edge6&#45;taillabel"><a xlink:title="anti&#45;corruption&#45;layer">
<text xml:space="preserve" text-anchor="middle" x="494.08" y="-329.37" font-family="sans-serif" font-size="10.00">ACL</text>
</a>
</g>
</g>
<!-- #/domains/customer_experience/subdomains/promotions/boundedcontexts/marketing/services/marketing_service -->
<g id="node6" class="node">
<title>#/domains/customer_experience/subdomains/promotions/boundedcontexts/marketing/services/marketing_service</title>
<g id="a_node6"><a xlink:title="Apply campaigns/discounts">
<polygon fill="white" stroke="black" points="180.91,-88.05 186.14,-88.15 191.32,-88.3 196.42,-88.49 201.43,-88.74 206.32,-89.03 211.08,-89.36 215.69,-89.75 220.12,-90.18 224.36,-90.65 228.4,-91.16 232.23,-91.71 235.82,-92.31 239.17,-92.94 242.27,-93.61 245.12,-94.31 247.69,-95.04 249.99,-95.8 252.02,-96.59 253.77,-97.41 255.24,-98.25 256.42,-99.11 257.33,-99.99 257.97,-100.89 258.33,-101.8 258.43,-102.72 258.27,-103.65 257.85,-104.59 257.2,-105.53 256.31,-106.47 255.19,-107.41 253.86,-108.35 252.33,-109.28 250.6,-110.2 248.69,-111.11 246.62,-112.01 244.38,-112.89 242,-113.75 239.49,-114.59 236.85,-115.41 234.1,-116.2 231.24,-116.96 228.3,-117.69 225.27,-118.39 222.17,-119.06 219,-119.69 215.78,-120.29 212.5,-120.84 209.19,-121.35 205.84,-121.82 202.45,-122.25 199.04,-122.64 195.61,-122.97 192.16,-123.26 188.69,-123.51 185.22,-123.7 181.73,-123.85 178.24,-123.95 174.75,-124 171.25,-124 167.76,-123.95 164.27,-123.85 160.78,-123.7 157.31,-123.51 153.84,-123.26 150.39,-122.97 146.96,-122.64 143.55,-122.25 140.16,-121.82 136.81,-121.35 133.5,-120.84 130.22,-120.29 127,-119.69 123.83,-119.06 120.73,-118.39 117.7,-117.69 114.76,-116.96 111.9,-116.2 109.15,-115.41 106.51,-114.59 104,-113.75 101.62,-112.89 99.38,-112.01 97.31,-111.11 95.4,-110.2 93.67,-109.28 92.14,-108.35 90.81,-107.41 89.69,-106.47 88.8,-105.53 88.15,-104.59 87.73,-103.65 87.57,-102.72 87.67,-101.8 88.03,-100.89 88.67,-99.99 89.58,-99.11 90.76,-98.25 92.23,-97.41 93.98,-96.59 96.01,-95.8 98.31,-95.04 100.88,-94.31 103.73,-93.61 106.83,-92.94 110.18,-92.31 113.77,-91.71 117.6,-91.16 121.64,-90.65 125.88,-90.18 130.31,-89.75 134.92,-89.36 139.68,-89.03 144.57,-88.74 149.58,-88.49 154.68,-88.3 159.86,-88.15 165.09,-88.05 170.36,-88 175.64,-88 180.91,-88.05"/>
<text xml:space="preserve" text-anchor="middle" x="173" y="-101.8" font-family="sans-serif" font-size="14.00">MarketingService</text>
</a>
</g>
</g>
<!-- #/domains/commerce/subdomains/sales/boundedcontexts/ordering/services/ordering_app&#45;&gt;#/domains/customer_experience/subdomains/promotions/boundedcontexts/marketing/services/marketing_service -->
<g id="edge7" class="edge">
<title>#/domains/commerce/subdomains/sales/boundedcontexts/ordering/services/ordering_app&#45;&gt;#/domains/customer_experience/subdomains/promotions/boundedcontexts/marketing/services/marketing_service</title>
<path fill="none" stroke="black" d="M449.98,-332.53C419.1,-312.66 366.46,-277.69 324,-244 277.56,-207.16 227.26,-159.89 198.02,-131.6"/>
<polygon fill="black" stroke="black" points="200.7,-129.32 191.09,-124.86 195.82,-134.34 200.7,-129.32"/>
<text xml:space="preserve" text-anchor="middle" x="382.97" y="-255" font-family="sans-serif" font-size="10.00">ApplyCampaigns</text>
<g id="a_edge7&#45;headlabel"><a xlink:title="open&#45;host&#45;service">
<text xml:space="preserve" text-anchor="middle" x="190.01" y="-120.81" font-family="sans-serif" font-size="10.00">OHS</text>
</a>
</g>
<g id="a_edge7&#45;taillabel"><a xlink:title="anti&#45;corruption&#45;layer">
<text xml:space="preserve" text-anchor="middle" x="449.98" y="-329.53" font-family="sans-serif" font-size="10.00">ACL</text>
</a>
</g>
</g>
<!-- #/domains/customer_experience/subdomains/geodata/boundedcontexts/locations/services/locations_service -->
<g id="node7" class="node">
<title>#/domains/customer_experience/subdomains/geodata/boundedcontexts/locations/services/locations_service</title>
<g id="a_node7"><a xlink:title="Resolve/validate location data">
<polygon fill="white" stroke="black" points="448.69,-88.05 453.79,-88.15 458.83,-88.3 463.8,-88.49 468.67,-88.74 473.43,-89.03 478.06,-89.36 482.54,-89.75 486.86,-90.18 490.99,-90.65 494.92,-91.16 498.64,-91.71 502.14,-92.31 505.4,-92.94 508.42,-93.61 511.19,-94.31 513.69,-95.04 515.94,-95.8 517.91,-96.59 519.61,-97.41 521.04,-98.25 522.19,-99.11 523.08,-99.99 523.7,-100.89 524.05,-101.8 524.14,-102.72 523.99,-103.65 523.58,-104.59 522.95,-105.53 522.08,-106.47 520.99,-107.41 519.7,-108.35 518.2,-109.28 516.52,-110.2 514.67,-111.11 512.65,-112.01 510.47,-112.89 508.16,-113.75 505.71,-114.59 503.14,-115.41 500.46,-116.2 497.69,-116.96 494.82,-117.69 491.87,-118.39 488.85,-119.06 485.77,-119.69 482.63,-120.29 479.45,-120.84 476.22,-121.35 472.96,-121.82 469.66,-122.25 466.34,-122.64 463,-122.97 459.65,-123.26 456.27,-123.51 452.89,-123.7 449.5,-123.85 446.1,-123.95 442.7,-124 439.3,-124 435.9,-123.95 432.5,-123.85 429.11,-123.7 425.73,-123.51 422.35,-123.26 419,-122.97 415.66,-122.64 412.34,-122.25 409.04,-121.82 405.78,-121.35 402.55,-120.84 399.37,-120.29 396.23,-119.69 393.15,-119.06 390.13,-118.39 387.18,-117.69 384.31,-116.96 381.54,-116.2 378.86,-115.41 376.29,-114.59 373.84,-113.75 371.53,-112.89 369.35,-112.01 367.33,-111.11 365.48,-110.2 363.8,-109.28 362.3,-108.35 361.01,-107.41 359.92,-106.47 359.05,-105.53 358.42,-104.59 358.01,-103.65 357.86,-102.72 357.95,-101.8 358.3,-100.89 358.92,-99.99 359.81,-99.11 360.96,-98.25 362.39,-97.41 364.09,-96.59 366.06,-95.8 368.31,-95.04 370.81,-94.31 373.58,-93.61 376.6,-92.94 379.86,-92.31 383.36,-91.71 387.08,-91.16 391.01,-90.65 395.14,-90.18 399.46,-89.75 403.94,-89.36 408.57,-89.03 413.33,-88.74 418.2,-88.49 423.17,-88.3 428.21,-88.15 433.31,-88.05 438.43,-88 443.57,-88 448.69,-88.05"/>
<text xml:space="preserve" text-anchor="middle" x="441" y="-101.8" font-family="sans-serif" font-size="14.00">LocationsService</text>
</a>
</g>
</g>
<!-- #/domains/commerce/subdomains/sales/boundedcontexts/ordering/services/ordering_app&#45;&gt;#/domains/customer_experience/subdomains/geodata/boundedcontexts/locations/services/locations_service -->
<g id="edge8" class="edge">
<title>#/domains/commerce/subdomains/sales/boundedcontexts/ordering/services/ordering_app&#45;&gt;#/domains/customer_experience/subdomains/geodata/boundedcontexts/locations/services/locations_service</title>
<path fill="none" stroke="black" d="M473.48,-331.6C467.52,-290.35 452.47,-186.31 445.14,-135.63"/>
<polygon fill="black" stroke="black" points="448.61,-135.14 443.71,-125.74 441.68,-136.14 448.61,-135.14"/>
<text xml:space="preserve" text-anchor="middle" x="497.56" y="-255" font-family="sans-serif" font-size="10.00">ResolveLocation</text>
<g id="a_edge8&#45;headlabel"><a xlink:title="open&#45;host&#45;service">
<text xml:space="preserve" text-anchor="middle" x="443.49" y="-121.25" font-family="sans-serif" font-size="10.00">OHS</text>
</a>
</g>
<g id="a_edge8&#45;taillabel"><a xlink:title="anti&#45;corruption&#45;layer">
<text xml:space="preserve" text-anchor="middle" x="473.48" y="-328.6" font-family="sans-serif" font-size="10.00">ACL</text>
</a>
</g>
</g>
<!-- #/domains/integration/subdomains/edge/boundedcontexts/api_gateway/services/ocelot_gateway -->
<g id="node4" class="node">
<title>#/domains/integration/subdomains/edge/boundedcontexts/api_gateway/services/ocelot_gateway</title>
<g id="a_node4"><a xlink:title="Ocelot + Aggregators (Web &amp; Mobile Shopping)">
<polygon fill="white" stroke="black" points="494.01,-760.05 498.64,-760.15 503.24,-760.3 507.76,-760.49 512.2,-760.74 516.53,-761.03 520.75,-761.36 524.83,-761.75 528.76,-762.18 532.52,-762.65 536.1,-763.16 539.49,-763.71 542.68,-764.31 545.65,-764.94 548.4,-765.61 550.91,-766.31 553.2,-767.04 555.24,-767.8 557.03,-768.59 558.58,-769.41 559.88,-770.25 560.93,-771.11 561.74,-771.99 562.3,-772.89 562.63,-773.8 562.71,-774.72 562.57,-775.65 562.2,-776.59 561.62,-777.53 560.83,-778.47 559.84,-779.41 558.66,-780.35 557.3,-781.28 555.77,-782.2 554.08,-783.11 552.24,-784.01 550.26,-784.89 548.15,-785.75 545.92,-786.59 543.59,-787.41 541.15,-788.2 538.62,-788.96 536.01,-789.69 533.32,-790.39 530.58,-791.06 527.77,-791.69 524.91,-792.29 522.01,-792.84 519.07,-793.35 516.1,-793.82 513.1,-794.25 510.08,-794.64 507.04,-794.97 503.98,-795.26 500.91,-795.51 497.83,-795.7 494.74,-795.85 491.65,-795.95 488.55,-796 485.45,-796 482.35,-795.95 479.26,-795.85 476.17,-795.7 473.09,-795.51 470.02,-795.26 466.96,-794.97 463.92,-794.64 460.9,-794.25 457.9,-793.82 454.93,-793.35 451.99,-792.84 449.09,-792.29 446.23,-791.69 443.42,-791.06 440.68,-790.39 437.99,-789.69 435.38,-788.96 432.85,-788.2 430.41,-787.41 428.08,-786.59 425.85,-785.75 423.74,-784.89 421.76,-784.01 419.92,-783.11 418.23,-782.2 416.7,-781.28 415.34,-780.35 414.16,-779.41 413.17,-778.47 412.38,-777.53 411.8,-776.59 411.43,-775.65 411.29,-774.72 411.37,-773.8 411.7,-772.89 412.26,-771.99 413.07,-771.11 414.12,-770.25 415.42,-769.41 416.97,-768.59 418.76,-767.8 420.8,-767.04 423.09,-766.31 425.6,-765.61 428.35,-764.94 431.32,-764.31 434.51,-763.71 437.9,-763.16 441.48,-762.65 445.24,-762.18 449.17,-761.75 453.25,-761.36 457.47,-761.03 461.8,-760.74 466.24,-760.49 470.76,-760.3 475.36,-760.15 479.99,-760.05 484.66,-760 489.34,-760 494.01,-760.05"/>
<text xml:space="preserve" text-anchor="middle" x="487" y="-773.8" font-family="sans-serif" font-size="14.00">OcelotGateway</text>
</a>
</g>
</g>
<!-- #/domains/integration/subdomains/edge/boundedcontexts/api_gateway/services/ocelot_gateway&#45;&gt;#/domains/commerce/subdomains/cataloging/boundedcontexts/catalog/services/catalog_service -->
<g id="edge1" class="edge">
<title>#/domains/integration/subdomains/edge/boundedcontexts/api_gateway/services/ocelot_gateway&#45;&gt;#/domains/commerce/subdomains/cataloging/boundedcontexts/catalog/services/catalog_service</title>
<path fill="none" stroke="black" d="M417.62,-767.93C359.85,-756.35 280.89,-730.27 241.45,-672 179.65,-580.68 208.91,-438.83 225.4,-379.06"/>
<polygon fill="black" stroke="black" points="228.69,-380.27 228.08,-369.69 221.97,-378.34 228.69,-380.27"/>
<text xml:space="preserve" text-anchor="middle" x="264.23" y="-531" font-family="sans-serif" font-size="10.00">GetProduct</text>
<g id="a_edge1&#45;headlabel"><a xlink:title="open&#45;host&#45;service">
<text xml:space="preserve" text-anchor="middle" x="228.5" y="-365.24" font-family="sans-serif" font-size="10.00">OHS</text>
</a>
</g>
<g id="a_edge1&#45;taillabel"><a xlink:title="conformist">
<text xml:space="preserve" text-anchor="middle" x="417.62" y="-764.93" font-family="sans-serif" font-size="10.00">C</text>
</a>
</g>
</g>
<!-- #/domains/integration/subdomains/edge/boundedcontexts/api_gateway/services/ocelot_gateway&#45;&gt;#/domains/commerce/subdomains/shopping/boundedcontexts/basket/services/basket_service -->
<g id="edge2" class="edge">
<title>#/domains/integration/subdomains/edge/boundedcontexts/api_gateway/services/ocelot_gateway&#45;&gt;#/domains/commerce/subdomains/shopping/boundedcontexts/basket/services/basket_service</title>
<path fill="none" stroke="black" d="M480.17,-759.6C463.87,-718.08 422.61,-612.98 402.86,-562.67"/>
<polygon fill="black" stroke="black" points="406.24,-561.68 399.32,-553.66 399.72,-564.24 406.24,-561.68"/>
<text xml:space="preserve" text-anchor="middle" x="474.39" y="-683" font-family="sans-serif" font-size="10.00">GetBasket</text>
<g id="a_edge2&#45;headlabel"><a xlink:title="open&#45;host&#45;service">
<text xml:space="preserve" text-anchor="middle" x="398.77" y="-549.25" font-family="sans-serif" font-size="10.00">OHS</text>
</a>
</g>
<g id="a_edge2&#45;taillabel"><a xlink:title="conformist">
<text xml:space="preserve" text-anchor="middle" x="480.17" y="-756.6" font-family="sans-serif" font-size="10.00">C</text>
</a>
</g>
</g>
<!-- #/domains/integration/subdomains/edge/boundedcontexts/api_gateway/services/ocelot_gateway&#45;&gt;#/domains/commerce/subdomains/sales/boundedcontexts/ordering/services/ordering_app -->
<g id="edge9" class="edge">
<title>#/domains/integration/subdomains/edge/boundedcontexts/api_gateway/services/ocelot_gateway&#45;&gt;#/domains/commerce/subdomains/sales/boundedcontexts/ordering/services/ordering_app</title>
<path fill="none" stroke="black" d="M492.63,-759.64C497.88,-742.61 505.43,-715.82 509,-692 524.58,-588.18 539.27,-559.01 519,-456 513.58,-428.48 500.89,-399.08 490.69,-378.42"/>
<polygon fill="black" stroke="black" points="493.82,-376.86 486.17,-369.53 487.58,-380.03 493.82,-376.86"/>
<text xml:space="preserve" text-anchor="middle" x="551.38" y="-531" font-family="sans-serif" font-size="10.00">PlaceOrder</text>
<g id="a_edge9&#45;headlabel"><a xlink:title="open&#45;host&#45;service">
<text xml:space="preserve" text-anchor="middle" x="485.48" y="-365.18" font-family="sans-serif" font-size="10.00">OHS</text>
</a>
</g>
<g id="a_edge9&#45;taillabel"><a xlink:title="conformist">
<text xml:space="preserve" text-anchor="middle" x="492.63" y="-756.64" font-family="sans-serif" font-size="10.00">C</text>
</a>
</g>
</g>
<!-- #/domains/integration/subdomains/edge/boundedcontexts/api_gateway/services/ocelot_gateway&#45;&gt;#/domains/identity&amp;access/subdomains/auth/boundedcontexts/identity/services/identity_service -->
<g id="edge10" class="edge">
<title>#/domains/integration/subdomains/edge/boundedcontexts/api_gateway/services/ocelot_gateway&#45;&gt;#/domains/identity&amp;access/subdomains/auth/boundedcontexts/identity/services/identity_service</title>
<path fill="none" stroke="black" d="M508.86,-760.06C531.9,-741.06 567.62,-708.13 588,-672 693.31,-485.3 727.62,-222.28 736.41,-135.8"/>
<polygon fill="black" stroke="black" points="739.9,-136.14 737.38,-125.85 732.93,-135.46 739.9,-136.14"/>
<text xml:space="preserve" text-anchor="middle" x="696.58" y="-459" font-family="sans-serif" font-size="10.00">IssueToken</text>
<g id="a_edge10&#45;headlabel"><a xlink:title="open&#45;host&#45;service">
<text xml:space="preserve" text-anchor="middle" x="737.53" y="-121.35" font-family="sans-serif" font-size="10.00">OHS</text>
</a>
</g>
<g id="a_edge10&#45;taillabel"><a xlink:title="conformist">
<text xml:space="preserve" text-anchor="middle" x="508.86" y="-757.06" font-family="sans-serif" font-size="10.00">C</text>
</a>
</g>
</g>
</g>
</svg>
